<svg width="14" height="14" fill="none" xmlns="http://www.w3.org/2000/svg"><path d="M12.77 1.668H4.512a1.231 1.231 0 000 2.46h8.258a1.23 1.23 0 000-2.46zm0 4.102H4.512a1.231 1.231 0 000 2.46h8.258a1.23 1.23 0 000-2.46zm0 4.101H4.512a1.231 1.231 0 000 2.461h8.258a1.231 1.231 0 000-2.46zM1.23 1.668C.552 1.668 0 2.22 0 2.898a1.232 1.232 0 002.46 0c0-.678-.551-1.23-1.23-1.23zm0 4.102C.552 5.77 0 6.322 0 7a1.232 1.232 0 002.46 0c0-.678-.551-1.23-1.23-1.23zm0 4.101c-.678 0-1.23.552-1.23 1.23a1.232 1.232 0 002.46 0c0-.678-.551-1.23-1.23-1.23z" fill="#69A5FF"/></svg>