<svg width="41" height="40" fill="none" xmlns="http://www.w3.org/2000/svg"><g clip-path="url(#clip0)"><path fill-rule="evenodd" clip-rule="evenodd" d="M20.705.035l17.37 6.012c.289.1.463.395.412.698l-4.009 23.382a.626.626 0 01-.258.407l-13.36 9.353a.627.627 0 01-.718 0L6.779 30.534a.626.626 0 01-.258-.407L2.513 6.745a.626.626 0 01.412-.698L20.295.035a.625.625 0 01.41 0zM20.5 38.609l12.788-8.951 3.874-22.601L20.5 1.289 3.837 7.057l3.875 22.6L20.5 38.61zM35.246 7.72L20.704 2.686a.625.625 0 00-.41 0L5.755 7.719a.626.626 0 00-.413.698l3.473 20.257a.626.626 0 00.258.407l11.069 7.748a.626.626 0 00.718 0l11.068-7.748a.626.626 0 00.259-.407l3.472-20.257a.626.626 0 00-.412-.698zm-4.25 20.485L20.5 35.551l-10.496-7.347L6.666 8.73 20.5 3.94l13.834 4.79-3.339 19.476zM24.043 6.494l2.673.925a.626.626 0 11-.41 1.183l-2.672-.925a.626.626 0 01.41-1.183zm8.373 2.898l-4.03-1.395a.626.626 0 00-.41 1.184l3.528 1.22-.54 3.148a.627.627 0 001.235.211l.63-3.67a.626.626 0 00-.413-.698zm-1.644 8.99a.627.627 0 00-.723.511l-.974 5.679a.627.627 0 001.235.211l.973-5.678a.626.626 0 00-.511-.723z" fill="#69A5FF"/><path d="M21.631 17.468a4.307 4.307 0 003.17-4.149c0-2.371-1.93-4.3-4.3-4.3a4.306 4.306 0 00-4.302 4.3 4.31 4.31 0 003.17 4.149c-3.123.539-5.508 3.265-5.508 6.54v3.34c0 .347.28.627.627.627h12.025c.346 0 .626-.28.626-.626v-3.34c0-3.276-2.384-6.002-5.508-6.541zm-4.179-4.149a3.052 3.052 0 013.048-3.048 3.051 3.051 0 013.048 3.048 3.052 3.052 0 01-3.048 3.049 3.052 3.052 0 01-3.048-3.048zm8.434 13.403H15.114v-2.714a5.392 5.392 0 015.386-5.386 5.392 5.392 0 015.386 5.386v2.714z" fill="#fff"/></g><defs><clipPath id="clip0"><path fill="#fff" transform="translate(.5)" d="M0 0h40v40H0z"/></clipPath></defs></svg>