<svg width="41" height="40" fill="none" xmlns="http://www.w3.org/2000/svg"><g clip-path="url(#clip0)"><path fill-rule="evenodd" clip-rule="evenodd" d="M36.398 3.408H4.602A4.106 4.106 0 00.5 7.51v19.912c0 .756 1.172.756 1.172 0V10.81h37.656v21.68a2.933 2.933 0 01-2.93 2.93h-.156v-7.686a.586.586 0 00-.586-.586H22.063a.586.586 0 00-.586.586v7.686H4.602a2.933 2.933 0 01-2.93-2.93v-1.943c0-.756-1.172-.756-1.172 0v1.943a4.106 4.106 0 004.102 4.102h31.796A4.106 4.106 0 0040.5 32.49V7.51a4.106 4.106 0 00-4.102-4.102zM22.648 35.42v-7.1H35.07v7.1H22.648zM1.672 9.639v-2.13a2.933 2.933 0 012.93-2.929h31.796a2.933 2.933 0 012.93 2.93v2.129H1.672zM5.382 6.2a1.095 1.095 0 000 2.188 1.095 1.095 0 000-2.188zm0 1.172a.078.078 0 11.001-.156.078.078 0 010 .156zm2.657-.078a1.095 1.095 0 012.188 0 1.095 1.095 0 01-2.188 0zm1.016 0a.078.078 0 10.156 0 .078.078 0 00-.156 0zM12.883 6.2a1.095 1.095 0 000 2.188 1.095 1.095 0 000-2.187zm0 1.172a.078.078 0 010-.156.078.078 0 010 .156zm4.805 20.947H4.875c-.756 0-.756-1.172 0-1.172h12.813c.756 0 .756 1.172 0 1.172zM4.875 30.977h12.813c.756 0 .756-1.172 0-1.172H4.875c-.756 0-.756 1.172 0 1.172zm12.813 2.656H4.875c-.756 0-.756-1.172 0-1.172h12.813c.756 0 .756 1.172 0 1.172z" fill="#69A5FF"/><path d="M35.734 17.07a.586.586 0 00.586-.586v-2.49a.586.586 0 00-.586-.586H4.875a.586.586 0 00-.586.586v10.46c0 .323.262.585.586.585h30.86a.586.586 0 00.585-.586V19.61c0-.755-1.172-.755-1.172 0v4.258h-16.59l9.309-9.272.013-.015h7.268v1.904c0 .324.263.586.586.586zm-18.836 6.797H5.461V14.58h20.76l-9.323 9.287z" fill="#fff"/><path d="M32.375 17.617h-3.32c-.756 0-.756 1.172 0 1.172h3.32c.756 0 .756-1.172 0-1.172zm0 2.578H25.93c-.756 0-.756 1.172 0 1.172h6.445c.756 0 .756-1.172 0-1.172z" fill="#fff"/></g><defs><clipPath id="clip0"><path fill="#fff" transform="translate(.5)" d="M0 0h40v40H0z"/></clipPath></defs></svg>