<svg width="41" height="40" fill="none" xmlns="http://www.w3.org/2000/svg"><path fill-rule="evenodd" clip-rule="evenodd" d="M9.563 0h21.874a2.15 2.15 0 012.149 2.148v27.826a.586.586 0 11-1.172 0V5.859H30.52a.586.586 0 010-1.171h1.895v-2.54a.978.978 0 00-.977-.976H9.563a.978.978 0 00-.976.976v2.54H28.04a.586.586 0 010 1.171H8.586V7.48a.586.586 0 11-1.172 0V2.148A2.15 2.15 0 019.563 0zm9.14 2.344h3.594a.586.586 0 010 1.172h-3.594a.586.586 0 010-1.172zm13.711 30.169a.586.586 0 111.172 0v5.339A2.15 2.15 0 0131.438 40H9.563a2.15 2.15 0 01-2.149-2.148V9.98a.586.586 0 111.172 0v24.135h23.828v-1.602zm-.977 6.29a.978.978 0 00.977-.977v-2.54H8.586v2.54c0 .538.438.976.976.976h21.876zm-.78-30.014H10.343a.586.586 0 00-.586.586v3.438c0 .323.262.585.586.585h20.312a.586.586 0 00.586-.585V9.374a.586.586 0 00-.586-.586zm-.587 3.438H10.93V9.96h19.14v2.266zM17.223 2.93a.586.586 0 11-1.172 0 .586.586 0 011.172 0zm9.683 33.554H14.094a.586.586 0 100 1.172h12.812a.586.586 0 100-1.172z" fill="#69A5FF"/><path d="M20.5 14.49H10.344a.586.586 0 00-.586.585v6.787c0 .324.262.586.586.586H20.5a.586.586 0 00.586-.586v-6.787a.586.586 0 00-.586-.586zm-.586 6.786H10.93v-5.615h8.984v5.615zm.586 2.054H10.344a.586.586 0 00-.586.586v6.787c0 .324.262.586.586.586H20.5a.586.586 0 00.586-.586v-6.787a.586.586 0 00-.586-.586zm-.586 6.787H10.93v-5.615h8.984v5.615zm10.742-15.625h-7.5a.586.586 0 00-.586.586v15.625c0 .324.263.586.586.586h7.5a.586.586 0 00.586-.586V15.078a.586.586 0 00-.586-.586zm-.586 15.625h-6.328V15.664h6.328v14.453z" fill="#fff"/></svg>