<svg width="41" height="40" fill="none" xmlns="http://www.w3.org/2000/svg"><g clip-path="url(#clip0)"><path d="M37.75 14.121a.586.586 0 00-.292-.468l-.055-.03a.586.586 0 00-.293-.08h-9.158c-1.003-3.026-3.86-5.216-7.219-5.216-3.408 0-6.3 2.254-7.261 5.35h-2.605v-1.748a.586.586 0 00-.945-.463L3.477 16.46a.586.586 0 00.066.97l.054.032c.09.051.19.078.293.078h9.413c.742 3.42 3.791 5.99 7.43 5.99 3.686 0 6.768-2.636 7.458-6.123h1.942v1.748a.586.586 0 00.945.463l6.445-4.995a.586.586 0 00.226-.503zM5.507 16.37l4.187-3.245v1.139c0 .323.262.586.586.586h2.927a7.629 7.629 0 00-.064 1.52H5.508zm15.225 5.99a6.438 6.438 0 01-6.43-6.43 6.418 6.418 0 01.193-1.565A6.44 6.44 0 0120.732 9.5a6.438 6.438 0 016.43 6.43 6.438 6.438 0 01-6.43 6.43zm10.572-4.398v-1.139a.586.586 0 00-.586-.586h-2.39a7.614 7.614 0 00-.09-1.52h7.253l-4.187 3.245z" fill="#fff"/><path d="M38.288 1.766H2.712C1.492 1.766.5 2.76.5 3.978V29.21c0 1.22.992 2.212 2.212 2.212h11.917v2.723h-1.503c-.767 0-1.36.211-1.76.628-.645.668-.61 1.643-.584 2.354.007.184.013.358.005.483a.586.586 0 00.585.624h18.264a.586.586 0 00.585-.623 5.872 5.872 0 01.001-.469c.019-.72.045-1.707-.61-2.378-.4-.41-.982-.619-1.73-.619h-1.51v-2.723h11.916c1.22 0 2.212-.992 2.212-2.212V3.978c0-1.22-.992-2.212-2.212-2.212zm-9.515 33.816c.3.307.293.949.279 1.48h-17.1c-.019-.525-.038-1.17.257-1.476.172-.178.48-.27.917-.27h14.757c.42 0 .719.09.89.266zM25.2 34.145h-9.4v-2.723h9.4v2.723zm13.088-3.895H2.712a1.04 1.04 0 01-1.04-1.04v-1.928h31.253a.586.586 0 100-1.172H1.672V7.078h4.925a.586.586 0 100-1.172H1.672V3.978c0-.573.466-1.04 1.04-1.04h35.576c.574 0 1.04.467 1.04 1.04v1.928H8.948a.586.586 0 100 1.172h30.38V26.11h-4.051a.586.586 0 100 1.172h4.051v1.928a1.04 1.04 0 01-1.04 1.04z" fill="#69A5FF"/><path d="M21.051 15.261v-1.218c.543.041.701.309.977.309.367 0 .517-.46.517-.685 0-.576-.976-.71-1.494-.726v-.208c0-.117-.158-.226-.317-.226-.183 0-.317.109-.317.226v.233c-.885.126-1.669.635-1.669 1.694 0 1.068.901 1.427 1.669 1.72v1.351c-.618-.108-.901-.6-1.252-.6-.317 0-.567.417-.567.7 0 .534.818 1.052 1.819 1.085v.209c0 .116.134.225.317.225.159 0 .317-.109.317-.225v-.242c.977-.159 1.644-.785 1.644-1.82 0-1.126-.884-1.518-1.644-1.802zm-.55-.2c-.318-.134-.535-.284-.535-.526 0-.2.159-.392.534-.467v.993zm.467 2.662v-1.118c.3.141.509.317.509.592 0 .3-.226.459-.51.526z" fill="#fff"/></g><defs><clipPath id="clip0"><path fill="#fff" transform="translate(.5)" d="M0 0h40v40H0z"/></clipPath></defs></svg>