<svg width="41" height="40" fill="none" xmlns="http://www.w3.org/2000/svg"><path fill-rule="evenodd" clip-rule="evenodd" d="M18.512 8.792l-4.828-2.787a1.705 1.705 0 01-.862-1.492c0-.624.323-1.181.862-1.493L18.512.233a1.72 1.72 0 01.89-.233c.934.017 1.695.79 1.695 1.725v.693c2.769.09 5.419.77 7.884 2.024a.586.586 0 11-.531 1.045 17.436 17.436 0 00-7.94-1.908.586.586 0 01-.585-.586V1.725a.55.55 0 00-.827-.477L14.27 4.035a.542.542 0 00-.276.478c0 .095.027.334.276.477l4.828 2.788a.542.542 0 00.551 0 .542.542 0 00.276-.478V5.995a.586.586 0 01.588-.586c4.21.012 8.166 1.66 11.139 4.642a15.693 15.693 0 014.61 11.155 15.737 15.737 0 01-5.002 11.546.584.584 0 01-.828-.028.586.586 0 01.028-.828 14.575 14.575 0 004.63-10.69c0-3.899-1.515-7.567-4.268-10.328a14.521 14.521 0 00-9.725-4.284V7.3c0 .623-.322 1.18-.862 1.492a1.706 1.706 0 01-1.723 0zm11.852-2.888a.586.586 0 01.816-.147 18.819 18.819 0 018.083 15.45c0 5.033-1.953 9.756-5.496 13.299C30.223 38.049 25.5 40 20.467 40c-4.727 0-9.244-1.76-12.72-4.958a18.737 18.737 0 01-6.002-12.15 2.076 2.076 0 01.536-1.581c.395-.432.958-.68 1.543-.68 1.087 0 1.98.821 2.08 1.91a14.578 14.578 0 004.675 9.437 14.582 14.582 0 009.887 3.849c3.063 0 5.991-.93 8.47-2.687a.586.586 0 11.677.956 15.719 15.719 0 01-9.147 2.903c-3.967 0-7.76-1.477-10.68-4.158a15.747 15.747 0 01-5.05-10.194.917.917 0 00-1.59-.545.89.89 0 00-.234.686A17.568 17.568 0 008.54 34.18a17.573 17.573 0 0011.926 4.648c4.72 0 9.15-1.83 12.472-5.15 3.322-3.322 5.152-7.751 5.153-12.472a17.646 17.646 0 00-7.58-14.487.586.586 0 01-.147-.815z" fill="#69A5FF"/><path d="M17.944 12.127c1.268 0 2.45.83 2.45 2.22 0 2.362-3.467 3.128-3.467 4.265v.263h3.04c.24 0 .449.284.449.612s-.208.635-.449.635h-3.894c-.251 0-.623-.175-.623-.449v-1.06c0-1.75 3.522-2.68 3.522-4.223 0-.448-.296-.973-1.017-.973-.536 0-.974.284-.974.963 0 .262-.273.524-.744.524-.371 0-.645-.175-.645-.765 0-1.247 1.138-2.012 2.352-2.012zm5.6 6.256h-2.625c-.273 0-.481-.186-.481-.503 0-.088.022-.186.076-.285l2.593-5.097a.638.638 0 01.601-.371c.252 0 .711.218.711.546 0 .055-.022.12-.055.186l-2.1 4.2h1.28v-1.148c0-.317.36-.449.71-.449.362 0 .712.132.712.449v1.148h.514c.295 0 .448.328.448.668 0 .328-.218.656-.448.656h-.514v1.29c0 .296-.35.449-.711.449-.35 0-.711-.153-.711-.449v-1.29zm-.404 7.226c0 .23-.143.568-.274.831l-2.767 5.316c-.077.142-.22.207-.405.207-.448 0-.897-.306-.897-.71 0-.088.011-.165.066-.252l2.854-5.119v-.722h-2.286v.886c0 .263-.35.46-.722.46-.382 0-.7-.197-.7-.46v-1.684c0-.219.307-.448.624-.448h3.883c.273 0 .623.23.623.448v1.247zm-8.751-4.049a.586.586 0 100 1.172h12.316a.586.586 0 100-1.172H14.389z" fill="#fff"/></svg>