<svg width="80" height="12" viewBox="0 0 80 12" fill="none" xmlns="http://www.w3.org/2000/svg">
<path fill-rule="evenodd" clip-rule="evenodd" d="M21.8264 5.76953C21.4098 10.5111 27.3177 8.09518 27.6787 8.01882C27.8176 8.97685 27.9495 9.93488 28.0883 10.8929C27.9148 10.9485 18.4108 14.8986 18.1539 5.86672C18.1539 5.75564 18.1331 5.65151 18.147 5.54737C19.4382 -1.91556 28.0119 0.305964 28.1855 0.319849C28.0467 1.3473 27.9148 2.37476 27.7759 3.40221C27.4288 3.29114 22.2152 1.27094 21.8264 5.76953ZM35.0583 3.29808L33.5172 11.6149C32.3925 11.6149 30.1363 11.6149 30.1363 11.6149L31.7747 3.29808C31.7747 3.29808 29.928 3.29808 29.0047 3.29808C29.1782 2.23591 29.3449 1.17375 29.5184 0.118523C32.3856 0.118523 35.2597 0.118523 38.1268 0.118523C37.9533 1.18069 37.7867 2.24286 37.6131 3.29808C36.7731 3.29808 35.9122 3.29808 35.0583 3.29808ZM40.6955 9.94877L41.8201 7.81055L43.1461 8.5256L42.7365 4.0409C42.7365 4.0409 39.0987 10.9971 38.7516 11.2053C38.0019 11.7052 36.426 11.6357 35.1625 11.6149L41.5077 0.118523H45.1038C45.6522 3.95065 46.2007 7.78278 46.7422 11.6149C45.7841 11.6149 43.9514 11.6149 43.9514 11.6149L40.6955 9.94877ZM54.6702 2.70799C53.7469 2.70799 52.9 2.68022 51.9766 2.68022C51.8725 3.33279 51.6712 4.52686 51.6712 4.52686C51.6712 4.52686 52.1155 4.52686 52.7958 4.52686C53.8302 4.52686 54.9826 4.77678 55.2812 3.83263C55.5311 3.02039 54.7535 2.72881 54.6702 2.70799ZM50.852 8.83801H53.2818C53.2818 8.83801 54.4342 8.83106 54.6702 7.90774C54.9549 6.79698 53.9552 6.79004 53.9552 6.79004H51.095L50.852 8.83801ZM58.1344 8.51866C57.2458 11.6913 54.3578 11.5733 54.3578 11.5733C54.3578 11.5733 48.811 11.6149 47.4642 11.608C48.1445 7.81055 48.8318 4.01313 49.5121 0.208772L54.6633 0.0560412C54.6633 0.0560412 57.6415 0.215714 58.2316 2.70799C58.662 4.54074 57.0098 5.66539 57.0098 5.66539C57.0098 5.66539 58.6204 6.77616 58.1344 8.51866ZM76.0871 11.5802L73.4352 9.84463L74.4557 7.70642L75.7817 8.42147L75.3721 4.0409C75.3721 4.0409 75.1708 3.97842 75.1708 4.0409C75.1638 4.10338 71.3942 11.5802 71.3942 11.5802L65.0975 11.6149L63.0496 7.0955H62.9454C62.9454 7.0955 62.397 10.1084 62.1262 11.6149C61.0016 11.6149 59.87 11.6149 58.7454 11.6149C58.7454 11.5802 61.0016 0.118523 61.0016 0.118523H64.2853L63.5702 3.91594H63.6744C63.6744 3.91594 66.1319 1.38202 67.3676 0.118523C68.7006 0.118523 70.0335 0.118523 71.3664 0.118523L65.9028 5.76953L68.3812 10.6916L74.0461 0.264309H77.6144L79.35 11.5733H76.0871V11.5802Z" fill="#4878FE"/>
<path fill-rule="evenodd" clip-rule="evenodd" d="M9.74 4.42395C9.66363 4.45866 6.97003 0.112803 6.97003 0.112803C8.0322 -0.0260427 10.2746 -0.060754 10.9688 0.216937C10.9688 0.251648 12.3433 0.827855 12.6072 1.44572C12.6419 1.51514 12.6766 1.54291 12.5447 1.6887C11.6214 2.65367 10.6633 3.46592 9.74 4.42395ZM18.7649 11.4773C18.7649 11.4773 16.1546 11.8522 14.3774 11.0677C13.4819 10.672 12.0309 8.21442 12.0309 8.21442L8.80973 11.6161C6.21333 11.6161 1.02051 11.6161 1.02051 11.6161L2.24235 4.65304C2.24235 4.65304 0.784476 5.3195 0 5.66661C0 4.67387 0 3.68113 0 2.68838C0.104134 2.65367 3.8599 0.189168 3.89461 0.119745C4.78322 0.119745 6.56044 0.119745 6.56044 0.119745C6.56044 0.119745 4.78322 9.95693 4.7138 10.5956C4.74851 10.5956 4.78322 10.5956 4.81793 10.5956C8.26824 7.10366 11.7185 3.6117 15.1688 0.119745C16.7031 0.119745 19.9868 0.119745 19.9868 0.119745L14.6829 5.3681L18.7649 11.4773Z" fill="white"/>
</svg>
