<svg width="14" height="13" viewBox="0 0 14 13" fill="none" xmlns="http://www.w3.org/2000/svg">
<path d="M1.96277 11.9351L1.93918 11.9449L10.7094 5.80393L9.88711 10.4975C9.84657 10.727 9.90047 10.9616 10.0348 11.1534C10.1691 11.3452 10.3702 11.4748 10.5999 11.5155L11.3294 11.6443C11.5588 11.6847 11.7908 11.6335 11.9825 11.4992C12.1743 11.3649 12.3023 11.1649 12.3427 10.9356L13.7599 2.90066C13.8005 2.6704 13.7482 2.43814 13.6133 2.24661C13.4787 2.05326 13.2783 1.92461 13.0481 1.88422L5.0128 0.467379C4.78352 0.427044 4.55183 0.478751 4.35992 0.613126C4.16822 0.747352 4.04047 0.947491 3.99988 1.17664L3.87142 1.90623C3.83072 2.13545 3.8826 2.36717 4.01691 2.55897C4.15113 2.75067 4.34449 2.8692 4.57388 2.90946L9.3076 3.73573L0.516918 9.89104C0.121914 10.1676 0.0283743 10.7405 0.30481 11.1353L0.729871 11.7423C1.00631 12.1371 1.56776 12.2116 1.96277 11.9351Z" fill="#69A5FF"/>
</svg>
