<svg width="20" height="20" viewBox="0 0 20 20" fill="none" xmlns="http://www.w3.org/2000/svg">
<path d="M4.96277 14.9351L4.93918 14.9449L13.7094 8.80393L12.8871 13.4975C12.8466 13.727 12.9005 13.9616 13.0348 14.1534C13.1691 14.3452 13.3702 14.4748 13.5999 14.5155L14.3294 14.6443C14.5588 14.6847 14.7908 14.6335 14.9825 14.4992C15.1743 14.3649 15.3023 14.1649 15.3427 13.9356L16.7599 5.90066C16.8005 5.6704 16.7482 5.43814 16.6133 5.24661C16.4787 5.05326 16.2783 4.92461 16.0481 4.88422L8.0128 3.46738C7.78352 3.42704 7.55183 3.47875 7.35992 3.61313C7.16822 3.74735 7.04047 3.94749 6.99988 4.17664L6.87142 4.90623C6.83072 5.13545 6.88261 5.36717 7.01691 5.55897C7.15113 5.75067 7.34449 5.8692 7.57388 5.90946L12.3076 6.73573L3.51692 12.891C3.12191 13.1676 3.02837 13.7405 3.30481 14.1353L3.72987 14.7423C4.00631 15.1371 4.56776 15.2116 4.96277 14.9351Z" fill="white"/>
</svg>
