<svg width="12" height="12" viewBox="0 0 12 12" fill="none" xmlns="http://www.w3.org/2000/svg">
<g clip-path="url(#clip0)">
<path d="M1.42886 6.8627L1.41169 6.85894L8.7724 6.85894L6.45846 9.17798C6.34515 9.2912 6.28299 9.44457 6.28299 9.60555C6.28299 9.76652 6.34515 9.91882 6.45846 10.0323L6.81851 10.3925C6.93173 10.5058 7.0826 10.5684 7.24348 10.5684C7.40446 10.5684 7.55542 10.5062 7.66864 10.393L11.6352 6.42681C11.7488 6.31315 11.811 6.16174 11.8105 6.00068C11.811 5.83872 11.7488 5.68722 11.6352 5.57373L7.66864 1.6072C7.55542 1.49407 7.40455 1.43183 7.24348 1.43183C7.0826 1.43183 6.93173 1.49416 6.81851 1.6072L6.45846 1.96743C6.34515 2.08047 6.28299 2.23143 6.28299 2.39241C6.28299 2.55329 6.34515 2.69629 6.45846 2.80942L8.79851 5.14142L1.42063 5.14142C1.08911 5.14142 0.810534 5.42716 0.810534 5.7585V6.26798C0.810534 6.59933 1.09734 6.8627 1.42886 6.8627Z" fill="#47527E"/>
</g>
<defs>
<clipPath id="clip0">
<rect width="11" height="11" fill="white" transform="translate(11.8105 11.5) rotate(-180)"/>
</clipPath>
</defs>
</svg>
