<svg width="12" height="4" viewBox="0 0 12 4" fill="none" xmlns="http://www.w3.org/2000/svg">
<path d="M5.99999 3.33341C6.73637 3.33341 7.33332 2.73646 7.33332 2.00008C7.33332 1.2637 6.73637 0.666748 5.99999 0.666748C5.26361 0.666748 4.66666 1.2637 4.66666 2.00008C4.66666 2.73646 5.26361 3.33341 5.99999 3.33341Z" fill="white"/>
<path d="M10.6667 3.33341C11.4031 3.33341 12 2.73646 12 2.00008C12 1.2637 11.4031 0.666748 10.6667 0.666748C9.9303 0.666748 9.33334 1.2637 9.33334 2.00008C9.33334 2.73646 9.9303 3.33341 10.6667 3.33341Z" fill="white"/>
<path d="M1.33333 3.33341C2.06971 3.33341 2.66667 2.73646 2.66667 2.00008C2.66667 1.2637 2.06971 0.666748 1.33333 0.666748C0.596954 0.666748 0 1.2637 0 2.00008C0 2.73646 0.596954 3.33341 1.33333 3.33341Z" fill="white"/>
</svg>
