<svg width="16" height="10" viewBox="0 0 16 10" fill="none" xmlns="http://www.w3.org/2000/svg">
<path d="M0.159973 4.99998C0.896926 3.55439 2.01921 2.34071 3.40279 1.49305C4.78637 0.645395 6.37738 0.196777 7.99997 0.196777C9.62257 0.196777 11.2136 0.645395 12.5972 1.49305C13.9807 2.34071 15.103 3.55439 15.84 4.99998C15.103 6.44556 13.9807 7.65925 12.5972 8.50691C11.2136 9.35456 9.62257 9.80318 7.99997 9.80318C6.37738 9.80318 4.78637 9.35456 3.40279 8.50691C2.01921 7.65925 0.896926 6.44556 0.159973 4.99998ZM7.99997 8.19998C8.84867 8.19998 9.6626 7.86284 10.2627 7.26272C10.8628 6.6626 11.2 5.84867 11.2 4.99998C11.2 4.15129 10.8628 3.33735 10.2627 2.73724C9.6626 2.13712 8.84867 1.79998 7.99997 1.79998C7.15128 1.79998 6.33735 2.13712 5.73723 2.73724C5.13711 3.33735 4.79997 4.15129 4.79997 4.99998C4.79997 5.84867 5.13711 6.6626 5.73723 7.26272C6.33735 7.86284 7.15128 8.19998 7.99997 8.19998ZM7.99997 6.59998C7.57563 6.59998 7.16866 6.43141 6.8686 6.13135C6.56854 5.83129 6.39997 5.42432 6.39997 4.99998C6.39997 4.57563 6.56854 4.16867 6.8686 3.86861C7.16866 3.56855 7.57563 3.39998 7.99997 3.39998C8.42432 3.39998 8.83129 3.56855 9.13134 3.86861C9.4314 4.16867 9.59997 4.57563 9.59997 4.99998C9.59997 5.42432 9.4314 5.83129 9.13134 6.13135C8.83129 6.43141 8.42432 6.59998 7.99997 6.59998Z" fill="#838FC0"/>
</svg>
