<svg width="14" height="14" viewBox="0 0 14 14" fill="none" xmlns="http://www.w3.org/2000/svg">
<path d="M13.6313 5.11934C13.5894 4.99592 13.5123 4.88747 13.4095 4.80738C13.3066 4.72729 13.1826 4.67908 13.0527 4.66868L9.252 4.36668L7.60733 0.72601C7.55495 0.608751 7.46976 0.509157 7.36203 0.439248C7.2543 0.369339 7.12864 0.332102 7.00021 0.332031C6.87179 0.331961 6.74609 0.36906 6.63828 0.438851C6.53047 0.508642 6.44517 0.608142 6.39266 0.725343L4.748 4.36668L0.947331 4.66868C0.819634 4.67879 0.697556 4.72548 0.595701 4.80316C0.493845 4.88084 0.416526 4.98622 0.372993 5.1067C0.329459 5.22717 0.321556 5.35763 0.350227 5.48248C0.378899 5.60733 0.442931 5.72127 0.534664 5.81068L3.34333 8.54868L2.35 12.85C2.31984 12.9802 2.3295 13.1165 2.37774 13.2411C2.42598 13.3657 2.51057 13.473 2.62053 13.549C2.73049 13.6249 2.86074 13.6661 2.99439 13.6671C3.12803 13.6681 3.25889 13.629 3.37 13.5547L7 11.1347L10.63 13.5547C10.7436 13.6301 10.8775 13.6689 11.0138 13.6659C11.15 13.6629 11.2821 13.6183 11.3923 13.538C11.5024 13.4577 11.5853 13.3456 11.6298 13.2167C11.6744 13.0879 11.6784 12.9485 11.6413 12.8173L10.422 8.55068L13.446 5.82934C13.644 5.65068 13.7167 5.37201 13.6313 5.11934Z" fill="#FFC75B"/>
</svg>
