<svg width="30" height="30" viewBox="0 0 30 30" fill="none" xmlns="http://www.w3.org/2000/svg">
<rect width="30" height="30" rx="15" fill="#EE933E"/>
<path d="M14.9892 14.7558C12.7878 14.7558 10.9581 12.9963 10.9581 10.9143C10.9581 8.76027 12.7878 7 14.99 7C17.2671 7 19.0212 8.75952 19.0212 10.9143C19.0173 11.9366 18.5918 12.9156 17.8382 13.6361C17.0846 14.3565 16.0647 14.7596 15.0025 14.7566L14.9892 14.7558ZM14.9892 9.26278C14.0572 9.26278 13.3481 10.0165 13.3481 10.915C13.3481 11.8121 14.0572 12.4946 14.99 12.4946C15.9602 12.4946 16.6319 11.8121 16.6319 10.915C16.6327 10.0158 15.9602 9.26278 14.9892 9.26278ZM16.5945 17.9524L18.8724 20.0712C19.3204 20.5369 19.3204 21.2194 18.8724 21.6507C18.3877 22.1164 17.6403 22.1164 17.2671 21.6507L14.99 19.4959L12.7878 21.6507C12.5641 21.8659 12.2649 21.9732 11.9283 21.9732C11.6672 21.9732 11.3687 21.8652 11.1069 21.6507C10.6588 21.2194 10.6588 20.5369 11.1069 20.0704L13.4213 17.9516C12.5855 17.7134 11.7837 17.3761 11.0344 16.9474C10.4741 16.6601 10.3627 15.9424 10.6612 15.4031C11.0344 14.8646 11.7062 14.7213 12.3039 15.0806C13.1132 15.556 14.043 15.8075 14.9912 15.8075C15.9393 15.8075 16.8692 15.556 17.6785 15.0806C18.2762 14.7213 18.9846 14.8646 19.3204 15.4031C19.6571 15.9424 19.5067 16.6594 18.9838 16.9474C18.2754 17.3786 17.4541 17.7019 16.5953 17.9531L16.5945 17.9524Z" fill="white"/>
</svg>
