<svg width="16" height="16" viewBox="0 0 16 16" fill="none" xmlns="http://www.w3.org/2000/svg">
<path d="M11.6 9.59998C12.928 9.59998 14 10.672 14 12C14 13.328 12.928 14.4 11.6 14.4C10.272 14.4 9.19998 13.328 9.19998 12C9.19998 11.808 9.22398 11.632 9.27198 11.448L5.76798 9.60798C5.32798 10.096 4.70398 10.4 3.99998 10.4C2.67198 10.4 1.59998 9.32798 1.59998 7.99998C1.59998 6.67198 2.67198 5.59998 3.99998 5.59998C4.70398 5.59998 5.32798 5.91197 5.76798 6.39197L9.27198 4.55198C9.22398 4.36798 9.19998 4.19198 9.19998 3.99998C9.19998 2.67198 10.272 1.59998 11.6 1.59998C12.928 1.59998 14 2.67198 14 3.99998C14 5.32798 12.928 6.39998 11.6 6.39998C10.896 6.39998 10.272 6.08798 9.83197 5.60798L6.32798 7.44798C6.42487 7.8096 6.42487 8.19035 6.32798 8.55197L9.83197 10.392C10.272 9.90397 10.896 9.59998 11.6 9.59998Z" fill="white"/>
</svg>
