<svg width="30" height="30" viewBox="0 0 30 30" fill="none" xmlns="http://www.w3.org/2000/svg">
<rect width="30" height="30" rx="15" fill="#1E88E5"/>
<g clip-path="url(#clip0)">
<path d="M14.8288 19.5261H15.7848C15.7848 19.5261 16.0739 19.4941 16.2209 19.335C16.3569 19.189 16.3519 18.915 16.3519 18.915C16.3519 18.915 16.3329 17.6319 16.9289 17.4429C17.516 17.2569 18.27 18.683 19.0691 19.232C19.6731 19.6471 20.1322 19.5561 20.1322 19.5561L22.2693 19.5261C22.2693 19.5261 23.3874 19.4571 22.8574 18.578C22.8143 18.506 22.5483 17.9279 21.2682 16.7399C19.9281 15.4958 20.1082 15.6978 21.7223 13.5466C22.7053 12.2365 23.0984 11.4365 22.9754 11.0944C22.8584 10.7684 22.1353 10.8544 22.1353 10.8544L19.7311 10.8684C19.7311 10.8684 19.5531 10.8444 19.4201 10.9234C19.2911 11.0014 19.2081 11.1814 19.2081 11.1814C19.2081 11.1814 18.8271 12.1955 18.319 13.0576C17.2479 14.8767 16.8189 14.9727 16.6439 14.8597C16.2369 14.5967 16.3389 13.8016 16.3389 13.2376C16.3389 11.4745 16.6059 10.7394 15.8178 10.5494C15.5558 10.4864 15.3638 10.4444 14.6948 10.4374C13.8367 10.4284 13.1096 10.4404 12.6986 10.6414C12.4246 10.7754 12.2136 11.0744 12.3426 11.0914C12.5016 11.1124 12.8616 11.1884 13.0526 11.4485C13.2997 11.7835 13.2907 12.5375 13.2907 12.5375C13.2907 12.5375 13.4327 14.6127 12.9596 14.8707C12.6346 15.0477 12.1896 14.6867 11.2345 13.0356C10.7455 12.1905 10.3754 11.2554 10.3754 11.2554C10.3754 11.2554 10.3044 11.0814 10.1774 10.9884C10.0234 10.8754 9.8074 10.8394 9.8074 10.8394L7.52123 10.8534C7.52123 10.8534 7.17821 10.8634 7.0522 11.0124C6.94019 11.1454 7.0432 11.4195 7.0432 11.4195C7.0432 11.4195 8.83333 15.6068 10.8595 17.7179C12.7186 19.6531 14.8288 19.5261 14.8288 19.5261Z" fill="white"/>
</g>
<defs>
<clipPath id="clip0">
<rect width="16" height="16" fill="white" transform="translate(7 7)"/>
</clipPath>
</defs>
</svg>
