<svg width="107" height="17" fill="none" xmlns="http://www.w3.org/2000/svg"><path fill-rule="evenodd" clip-rule="evenodd" d="M29.248 8.144c-.558 6.354 7.358 3.117 7.842 3.014.186 1.284.363 2.568.549 3.852-.233.074-12.968 5.367-13.312-6.735 0-.15-.028-.289-.01-.428 1.73-10 13.22-7.024 13.452-7.005-.186 1.376-.363 2.753-.549 4.13-.465-.149-7.451-2.856-7.972 3.172zm17.73-3.311l-2.064 11.144h-4.53l2.195-11.144h-3.712c.232-1.424.456-2.847.688-4.261h11.536c-.233 1.423-.456 2.847-.689 4.26H46.98zm7.555 8.912l1.507-2.866 1.776.959-.548-6.01s-4.875 9.321-5.34 9.6c-1.005.67-3.116.577-4.81.55L55.621.571h4.819c.735 5.135 1.47 10.27 2.195 15.405h-3.74l-4.362-2.232zm18.726-9.703c-1.237 0-2.372-.037-3.61-.037-.139.874-.409 2.474-.409 2.474h1.507c1.386 0 2.93.335 3.33-.93.335-1.089-.706-1.48-.818-1.507zm-5.117 8.214H71.4s1.544-.01 1.86-1.247c.381-1.488-.958-1.497-.958-1.497h-3.833l-.326 2.744zm9.76-.428c-1.192 4.252-5.062 4.093-5.062 4.093s-7.433.056-9.237.047c.911-5.089 1.832-10.177 2.744-15.275L73.25.488s3.99.214 4.781 3.554c.577 2.456-1.637 3.963-1.637 3.963s2.158 1.488 1.507 3.823zm24.056 4.103l-3.554-2.326 1.368-2.865 1.777.958-.549-5.87s-.27-.084-.27 0c-.009.084-5.06 10.103-5.06 10.103l-8.438.046-2.745-6.056h-.14s-.734 4.038-1.097 6.056h-4.53c0-.046 3.023-15.405 3.023-15.405h4.4l-.958 5.088h.14s3.293-3.395 4.949-5.088h5.358l-7.321 7.572 3.32 6.596L99.224.767h4.781l2.326 15.154h-4.372v.01z" fill="#4878FE"/><path fill-rule="evenodd" clip-rule="evenodd" d="M13.052 6.34C12.949 6.387 9.34.563 9.34.563c1.423-.186 4.428-.232 5.358.14 0 .046 1.842.818 2.196 1.646.046.093.093.13-.084.326-1.237 1.293-2.521 2.381-3.758 3.665zm12.093 9.452s-3.498.502-5.88-.55c-1.2-.53-3.143-3.823-3.143-3.823l-4.317 4.559H1.367l1.638-9.33S1.05 7.54 0 8.004v-3.99C.14 3.967 5.172.664 5.219.571H8.79S6.41 13.754 6.317 14.61h.14L20.326.572h6.455l-7.107 7.033 5.47 8.187z" fill="#fff"/></svg>