<svg width="110" height="40" fill="none" xmlns="http://www.w3.org/2000/svg"><path d="M104 0H6a6 6 0 00-6 6v28a6 6 0 006 6h98a6 6 0 006-6V6a6 6 0 00-6-6z" fill="#000"/><mask id="a" maskUnits="userSpaceOnUse" x="10" y="6" width="24" height="23"><path d="M14.443 8.596l-4.046 11.422a3.894 3.894 0 002.371 4.972l15.904 3.098 4.536-12.845a3.896 3.896 0 00-2.371-4.973L19.415 6.225a3.896 3.896 0 00-4.972 2.37z" fill="#fff"/></mask><g mask="url(#a)"><path fill-rule="evenodd" clip-rule="evenodd" d="M14.443 8.596l-4.046 11.422a3.894 3.894 0 002.371 4.972l15.904 3.098 4.536-12.845a3.896 3.896 0 00-2.371-4.973L19.415 6.225a3.896 3.896 0 00-4.972 2.37z" fill="url(#paint0_linear)"/></g><mask id="b" maskUnits="userSpaceOnUse" x="9" y="11" width="20" height="20"><path d="M12.873 11.208A3.873 3.873 0 009 15.081v12.046A3.873 3.873 0 0012.873 31h12.046a3.873 3.873 0 003.873-3.873V15.08a3.873 3.873 0 00-3.873-3.873H12.873z" fill="#fff"/></mask><g mask="url(#b)"><path fill-rule="evenodd" clip-rule="evenodd" d="M12.873 11.208A3.873 3.873 0 009 15.081v12.046A3.873 3.873 0 0012.873 31h12.046a3.873 3.873 0 003.873-3.873V15.08a3.873 3.873 0 00-3.873-3.873H12.873z" fill="url(#paint1_linear)"/></g><path fill-rule="evenodd" clip-rule="evenodd" d="M14.105 24.765c.75.748 2.752 1.196 4.791 1.204 2.04-.008 4.041-.456 4.791-1.204 1.867-1.856-2.67-8.972-4.789-8.982-2.123.01-6.66 7.126-4.793 8.982zM43.228 7.866h1.908l3.048 8.604h-1.5l-.792-2.256h-3.624l-.792 2.256h-1.284l3.036-8.604zm2.22 5.1L44.08 9.09l-1.368 3.876h2.736zm4.458 1.296c.088-.408.146-.938.174-1.59.028-.652.042-1.462.042-2.43h4.476v6.228h-1.392v-5.1h-1.812a39.27 39.27 0 01-.096 2.184c-.048.632-.146 1.166-.294 1.602-.148.436-.36.77-.636 1.002-.276.232-.646.348-1.11.348a2.797 2.797 0 01-.372-.024v-1.296c.08.016.14.024.18.024a.65.65 0 00.522-.234c.132-.156.238-.394.318-.714zm7.854.324l2.88-4.344h1.368v6.228h-1.38v-4.32l-2.856 4.32H56.38v-6.228h1.38v4.344zm8.698 2.004c-.504 0-.956-.074-1.356-.222a2.83 2.83 0 01-1.02-.636 2.796 2.796 0 01-.648-1.014 3.832 3.832 0 01-.228-1.368c0-.504.076-.956.228-1.356.152-.4.368-.738.648-1.014s.624-.488 1.032-.636a3.99 3.99 0 011.368-.222c.432 0 .81.048 1.134.144.324.096.582.216.774.36v1.152a3.176 3.176 0 00-.81-.372 3.522 3.522 0 00-1.014-.132c-1.288 0-1.932.692-1.932 2.076 0 1.384.632 2.076 1.896 2.076.408 0 .758-.046 1.05-.138.292-.092.562-.21.81-.354v1.152a3.227 3.227 0 01-.78.354c-.312.1-.696.15-1.152.15zm6.714-1.212c-.064.144-.15.288-.258.432a1.93 1.93 0 01-.954.672 2.393 2.393 0 01-.756.108c-.272 0-.524-.038-.756-.114a1.612 1.612 0 01-1.014-.912 1.94 1.94 0 01-.15-.786c0-.68.252-1.19.756-1.53.504-.34 1.216-.51 2.136-.51h.948v-.384c0-.408-.104-.69-.312-.846-.208-.156-.552-.234-1.032-.234-.408 0-.79.058-1.146.174-.356.116-.67.25-.942.402v-1.164a5.05 5.05 0 01.984-.384c.408-.12.852-.18 1.332-.18.8 0 1.418.166 1.854.498.436.332.654.862.654 1.59v3.252c0 .072.002.154.006.246l.012.282a5.092 5.092 0 00.042.48h-1.284a4.499 4.499 0 01-.066-.468 11 11 0 01-.042-.54l-.012-.084zm-1.584.132c.296 0 .542-.062.738-.186a1.71 1.71 0 00.726-.918c.048-.16.072-.272.072-.336v-.42h-.864c-.552 0-.956.086-1.212.258a.825.825 0 00-.384.726c0 .272.078.486.234.642.156.156.386.234.69.234zM45.7 25.82c0 .512-.076.968-.228 1.368-.152.4-.368.738-.648 1.014a2.83 2.83 0 01-1.02.636c-.4.148-.852.222-1.356.222-.456 0-.842-.05-1.158-.15a3.207 3.207 0 01-.786-.354v-1.152c.248.144.518.262.81.354.292.092.642.138 1.05.138 1.112 0 1.74-.524 1.884-1.572h-2.532v-1.128h2.52c-.168-.968-.784-1.452-1.848-1.452-.392 0-.73.044-1.014.132-.284.088-.55.212-.798.372v-1.152c.192-.144.452-.264.78-.36a4.07 4.07 0 011.14-.144c1.024 0 1.814.282 2.37.846.556.564.834 1.358.834 2.382zm3.902-1.98v5.1H48.21v-5.1h-1.884v-1.128h5.196v1.128h-1.92zm5.43 5.22c-.44 0-.848-.072-1.224-.216a2.763 2.763 0 01-1.626-1.644c-.156-.4-.234-.86-.234-1.38 0-.52.078-.98.234-1.38.156-.4.372-.738.648-1.014s.602-.484.978-.624a3.48 3.48 0 011.224-.21c.44 0 .848.07 1.224.21.376.14.704.348.984.624s.5.614.66 1.014c.16.4.24.86.24 1.38 0 .52-.08.98-.24 1.38-.16.4-.38.738-.66 1.014s-.608.486-.984.63a3.394 3.394 0 01-1.224.216zm0-1.164c.48 0 .878-.168 1.194-.504.316-.336.474-.86.474-1.572 0-.704-.158-1.226-.474-1.566a1.56 1.56 0 00-1.194-.51c-.472 0-.866.17-1.182.51-.316.34-.474.862-.474 1.566 0 .712.158 1.236.474 1.572.316.336.71.504 1.182.504zm10.692.972a7.336 7.336 0 01-.438.996c-.156.288-.336.53-.54.726a2.04 2.04 0 01-.708.444c-.268.1-.582.15-.942.15-.392 0-.728-.064-1.008-.192v-1.248c.112.088.252.156.42.204.168.048.352.072.552.072.272 0 .496-.058.672-.174.176-.116.336-.29.48-.522l-2.508-6.612h1.5l1.74 4.836 1.728-4.836h1.296l-2.244 6.156zm9.146-4.44l-1.836 3.912h-1.02l-1.728-3.948v4.548h-1.26v-6.228h1.908l1.704 3.864 1.8-3.864h1.824v6.228H74.87v-4.512zm8.27 4.056a4.863 4.863 0 01-.324.186 2.76 2.76 0 01-.456.186 4.628 4.628 0 01-1.404.204c-1.144 0-1.998-.284-2.562-.852-.564-.568-.846-1.364-.846-2.388 0-.504.076-.956.228-1.356.152-.4.364-.738.636-1.014s.596-.488.972-.636a3.346 3.346 0 011.236-.222c.464 0 .882.076 1.254.228.372.152.678.38.918.684.24.304.406.68.498 1.128.092.448.094.972.006 1.572h-4.308c.056.568.244.994.564 1.278.32.284.82.426 1.5.426.496 0 .91-.062 1.242-.186.332-.124.614-.254.846-.39v1.152zm-2.52-4.788c-.408 0-.752.124-1.032.372s-.464.616-.552 1.104h2.928c.016-.504-.096-.876-.336-1.116-.24-.24-.576-.36-1.008-.36zm9.19 4.788a4.863 4.863 0 01-.324.186 2.76 2.76 0 01-.456.186 4.628 4.628 0 01-1.404.204c-1.144 0-1.998-.284-2.562-.852-.564-.568-.846-1.364-.846-2.388 0-.504.076-.956.228-1.356.152-.4.364-.738.636-1.014s.596-.488.972-.636a3.346 3.346 0 011.236-.222c.464 0 .882.076 1.254.228.372.152.678.38.918.684.24.304.406.68.498 1.128.092.448.094.972.006 1.572h-4.308c.056.568.244.994.564 1.278.32.284.82.426 1.5.426.496 0 .91-.062 1.242-.186.332-.124.614-.254.846-.39v1.152zm-2.52-4.788c-.408 0-.752.124-1.032.372s-.464.616-.552 1.104h2.928c.016-.504-.096-.876-.336-1.116-.24-.24-.576-.36-1.008-.36zm6.582.144v5.1H92.48v-5.1h-1.884v-1.128h5.196v1.128h-1.92z" fill="#fff"/><defs><linearGradient id="paint0_linear" x1="15.605" y1="27.055" x2="27.314" y2="7.804" gradientUnits="userSpaceOnUse"><stop stop-color="#F33"/><stop offset="1" stop-color="#FF00E2"/></linearGradient><linearGradient id="paint1_linear" x1="14.507" y1="31.965" x2="23.284" y2="10.242" gradientUnits="userSpaceOnUse"><stop stop-color="#C826FF"/><stop offset="1" stop-color="#5426FF"/></linearGradient></defs></svg>