<svg width="19" height="23" fill="none" xmlns="http://www.w3.org/2000/svg"><path d="M1.838 8.272c-1.86 3.227-.678 8.125 1.38 11.095 1.026 1.485 2.065 2.818 3.489 2.818.027 0 .054 0 .081-.002.67-.027 1.152-.233 1.62-.432.524-.223 1.067-.454 1.918-.454.81 0 1.327.223 1.826.44.493.213 1 .433 1.75.419 1.604-.03 2.588-1.468 3.457-2.737a12.13 12.13 0 001.514-3.102l.006-.02a.18.18 0 00-.095-.22l-.014-.007c-.282-.115-2.759-1.214-2.785-4.209-.024-2.433 1.858-3.722 2.236-3.956l.017-.01a.18.18 0 00.052-.254c-1.3-1.901-3.291-2.188-4.093-2.222a3.609 3.609 0 00-.357-.018c-.942 0-1.844.356-2.569.642-.5.197-.932.367-1.23.367-.335 0-.77-.172-1.273-.372-.673-.267-1.436-.57-2.243-.57h-.057c-1.878.029-3.652 1.103-4.63 2.804z" fill="#fff"/><path d="M14.198.185c-1.136.046-2.5.746-3.316 1.7-.692.803-1.37 2.142-1.191 3.49a.18.18 0 00.165.157 3.6 3.6 0 00.233.009c1.112 0 2.311-.615 3.13-1.606.862-1.046 1.298-2.388 1.166-3.59a.181.181 0 00-.187-.16z" fill="#fff"/></svg>