<svg width="18" height="23" fill="none" xmlns="http://www.w3.org/2000/svg"><path d="M.928 8.87c-1.86 3.228-.678 8.126 1.379 11.096 1.027 1.485 2.066 2.817 3.49 2.817l.081-.001c.669-.027 1.152-.233 1.62-.432.524-.223 1.067-.455 1.918-.455.81 0 1.327.224 1.826.44.493.213 1 .434 1.75.42 1.603-.03 2.588-1.468 3.457-2.737a12.135 12.135 0 001.514-3.102l.006-.02a.18.18 0 00-.109-.227c-.282-.115-2.76-1.214-2.785-4.21-.024-2.433 1.858-3.721 2.236-3.955l.017-.01a.18.18 0 00.052-.254c-1.3-1.901-3.291-2.188-4.093-2.223A3.61 3.61 0 0012.93 6c-.942 0-1.844.356-2.569.641-.5.198-.932.368-1.23.368-.335 0-.77-.172-1.273-.372-.673-.267-1.436-.57-2.243-.57h-.057C3.68 6.096 1.906 7.17.928 8.872zM13.198.185c-1.136.046-2.5.746-3.316 1.7-.692.803-1.37 2.142-1.191 3.49a.18.18 0 00.165.157 3.6 3.6 0 00.233.009c1.112 0 2.311-.615 3.13-1.606.862-1.046 1.298-2.388 1.166-3.59a.181.181 0 00-.187-.16z" fill="#838FC0"/></svg>