<svg width="20" height="21" fill="none" xmlns="http://www.w3.org/2000/svg"><g clip-path="url(#clip0)" fill="#69A5FF"><path d="M18.002 11.01V3a1.669 1.669 0 00-1.667-1.667H14.67V1a1 1 0 00-2 0v.333h-2.667V1a1 1 0 00-2 0v.333H5.335V1a1 1 0 00-2 0v.333H1.67A1.669 1.669 0 00.002 3v10.667c0 .92.747 1.665 1.667 1.666h8.35a4.996 4.996 0 107.983-4.324zM13.335 1a.333.333 0 01.667 0v1.333a.333.333 0 01-.667 0V1zM8.67 1a.333.333 0 01.666 0v1.333a.333.333 0 01-.666 0V1zM4.002 1a.333.333 0 01.667 0v1.333a.333.333 0 01-.667 0V1zM1.669 2h1.666v.333a1 1 0 102 0V2h2.667v.333a1 1 0 102 0V2h2.667v.333a1 1 0 102 0V2h1.666a1 1 0 011 1v1.667H.67V3a1 1 0 011-1zm-1 11.667V5.333h16.666v5.248a4.99 4.99 0 00-7.316 4.086h-8.35a1 1 0 01-1-1zm14.333 5.666a4.333 4.333 0 110-8.666 4.333 4.333 0 010 8.666z"/><path d="M15.335 14.061v-1.728h-.666v1.728a1 1 0 00-.606.606h-1.061v.666h1.061a.998.998 0 101.272-1.272zm-.333 1.272a.333.333 0 110-.667.333.333 0 010 .667z"/><path d="M15.002 11a4 4 0 100 8 4 4 0 000-8zm0 7.333a3.333 3.333 0 110-6.666 3.333 3.333 0 010 6.666zM7.335 6.667a1.333 1.333 0 100 2.666 1.333 1.333 0 000-2.666zm0 2a.667.667 0 110-1.333.667.667 0 010 1.333zm3.334.666a1.333 1.333 0 100-2.666 1.333 1.333 0 000 2.666zm0-2a.667.667 0 110 1.334.667.667 0 010-1.334zm3.333 2a1.333 1.333 0 100-2.666 1.333 1.333 0 000 2.666zm0-2a.667.667 0 110 1.334.667.667 0 010-1.334zm-10-.666a1.333 1.333 0 100 2.666 1.333 1.333 0 000-2.666zm0 2a.667.667 0 110-1.333.667.667 0 010 1.333zM7.335 10a1.333 1.333 0 100 2.667 1.333 1.333 0 000-2.667zm0 2a.667.667 0 110-1.333.667.667 0 010 1.333zm2.889.59l.222-.627a.667.667 0 11.73-1.063l.505-.433a1.333 1.333 0 10-1.457 2.125v-.002zM4.002 10a1.333 1.333 0 100 2.667 1.333 1.333 0 000-2.667zm0 2a.667.667 0 110-1.333.667.667 0 010 1.333z"/></g><defs><clipPath id="clip0"><path fill="#fff" d="M0 0h20v20.004H0z"/></clipPath></defs></svg>