<svg width="16" height="16" fill="none" xmlns="http://www.w3.org/2000/svg"><path d="M5.054 7.41c.944-.943 2.591-.943 3.535 0l.59.59 1.178-1.178-.59-.59a4.137 4.137 0 00-2.945-1.22c-1.114 0-2.16.434-2.946 1.22L2.108 8a4.173 4.173 0 000 5.893 4.153 4.153 0 002.945 1.218A4.152 4.152 0 008 13.893l.59-.59-1.18-1.178-.588.59a2.506 2.506 0 01-3.536 0 2.504 2.504 0 010-3.537l1.768-1.767z" fill="#838FC0"/><path d="M8 2.107l-.59.59 1.18 1.178.588-.59a2.506 2.506 0 013.536 0 2.504 2.504 0 010 3.537l-1.768 1.767c-.944.944-2.591.944-3.535 0L6.82 8 5.644 9.18l.59.588a4.138 4.138 0 002.945 1.221c1.114 0 2.16-.434 2.946-1.22L13.892 8a4.174 4.174 0 000-5.893 4.172 4.172 0 00-5.892 0z" fill="#838FC0"/></svg>