<svg width="40" height="40" fill="none" xmlns="http://www.w3.org/2000/svg"><path d="M36.68 24.766a3.503 3.503 0 00.898-2.344 3.52 3.52 0 00-3.516-3.516H27.24c.676-2.05.964-4.772.964-5.938v-1.171a4.693 4.693 0 00-4.687-4.688h-1.172c-.538 0-1.007.366-1.137.888l-.638 2.554c-.895 3.576-3.735 7.522-6.674 8.24a3.52 3.52 0 00-3.27-2.229H3.594c-.647 0-1.172.525-1.172 1.172v21.094c0 .647.525 1.172 1.172 1.172h7.031a3.52 3.52 0 003.173-2.004l4.027 1.342c1.316.44 2.688.662 4.077.662h9.817a3.52 3.52 0 003.268-4.81 3.523 3.523 0 002.591-3.393c0-.9-.34-1.721-.898-2.344a3.503 3.503 0 00.898-2.344c0-.899-.34-1.72-.898-2.343zM11.798 36.484c0 .646-.526 1.172-1.172 1.172h-5.86v-18.75h5.86c.646 0 1.172.526 1.172 1.172v16.406zM31.72 25.937h2.343a1.173 1.173 0 010 2.344H31.72a1.172 1.172 0 000 2.344h2.343a1.173 1.173 0 010 2.344H31.72a1.172 1.172 0 000 2.343c.646 0 1.172.526 1.172 1.172 0 .646-.526 1.172-1.172 1.172h-9.817c-1.136 0-2.259-.182-3.336-.541L14.14 35.64v-14.5c1.838-.35 3.637-1.514 5.261-3.42 1.586-1.86 2.872-4.328 3.44-6.6l.417-1.667h.257a2.347 2.347 0 012.343 2.344v1.171c0 1.573-.492 4.591-1.122 5.938h-2.393a1.172 1.172 0 000 2.344h11.718a1.173 1.173 0 010 2.344H31.72a1.172 1.172 0 000 2.343z" fill="#69A5FF"/><path d="M8.281 35.313a1.172 1.172 0 100-2.344 1.172 1.172 0 000 2.343zM24.688 0c-.648 0-1.172.525-1.172 1.172v2.422a1.172 1.172 0 002.343 0V1.172A1.171 1.171 0 0024.687 0zm-4.972 5.168L18.059 3.51A1.172 1.172 0 1016.4 5.168l1.658 1.657a1.172 1.172 0 001.657-1.657zM32.974 3.51a1.172 1.172 0 00-1.658 0L29.66 5.169a1.172 1.172 0 101.657 1.657l1.658-1.657c.457-.458.457-1.2 0-1.657z" fill="#69A5FF"/></svg>