<svg width="88" height="96" fill="none" xmlns="http://www.w3.org/2000/svg"><path d="M43.782 81.252c18.38 0 33.281-14.9 33.281-33.28 0-18.382-14.9-33.282-33.281-33.282-18.38 0-33.281 14.9-33.281 33.281 0 18.38 14.9 33.281 33.281 33.281z" fill="#69A5FF"/><path d="M64.916 9.829H27.783c-1.716 0-3.433-.044-5.135 0h-.072c-.49 0-.967.274-1.212.692l-2.12 3.679a2665.239 2665.239 0 00-5.093 8.829 6736.308 6736.308 0 00-6.146 10.66c-1.76 3.044-3.52 6.088-5.28 9.147C1.89 44.293.98 45.72.201 47.206c-.433.809-.087 1.357.288 2.02.433.75.866 1.5 1.299 2.265 1.601 2.77 3.202 5.554 4.804 8.324 2.034 3.535 4.082 7.069 6.116 10.603 1.832 3.174 3.665 6.362 5.511 9.536 1.01 1.746 2.005 3.477 3.015 5.222.043.087.101.159.144.245a1.4 1.4 0 001.212.693h37.206c1.716 0 3.433.043 5.135 0h.072c.49 0 .966-.274 1.212-.693l2.12-3.678c1.703-2.943 3.405-5.886 5.093-8.829 2.048-3.549 4.097-7.098 6.145-10.66 1.76-3.045 3.52-6.089 5.28-9.147.837-1.457 1.746-2.885 2.525-4.371.433-.808.087-1.356-.289-2.02-.432-.75-.865-1.5-1.298-2.265-1.601-2.77-3.203-5.554-4.804-8.324-2.034-3.534-4.082-7.068-6.116-10.603-1.833-3.173-3.665-6.362-5.511-9.535-1.01-1.746-2.005-3.477-3.015-5.223-.044-.086-.101-.158-.145-.245a1.448 1.448 0 00-.404-.433 1.363 1.363 0 00-.72-.26h-.16zm6.03 14.556c2.035 3.534 4.069 7.054 6.117 10.588 1.775 3.059 3.535 6.117 5.309 9.19.736 1.27 1.428 2.582 2.193 3.837-.563.967-1.125 1.948-1.688 2.914L77.813 59.7a3997.527 3997.527 0 01-6.116 10.588c-1.775 3.059-3.535 6.117-5.31 9.19-.735 1.27-1.528 2.539-2.235 3.823H27.798c-1.471 0-2.943-.058-4.414-.029a529.613 529.613 0 00-1.688-2.928l-5.064-8.786a3997.527 3997.527 0 00-6.116-10.589c-1.775-3.058-3.535-6.116-5.31-9.19-.735-1.269-1.427-2.582-2.192-3.837.563-.966 1.125-1.947 1.688-2.914l5.063-8.785c2.034-3.535 4.069-7.055 6.117-10.589 1.775-3.058 3.534-6.116 5.309-9.19.736-1.269 1.53-2.538 2.236-3.822H59.78c1.471 0 2.943.029 4.414.014.563.981 1.14 1.962 1.702 2.943a1287.44 1287.44 0 005.05 8.786z" fill="#69A5FF"/><path d="M50.995 62.006c0-.014.014-.028.014-.042 0 .028 0 .028-.014.042zm.101-10.082c-.043-.044-.086-.072-.1-.101.028.072.086.1.1.1zM5.25 57.204h18.97a.648.648 0 00.52.274.64.64 0 00.634-.635.64.64 0 00-.634-.635.65.65 0 00-.534.289H5.264a.625.625 0 00-.519-.288.64.64 0 00-.635.634.64.64 0 00.635.635c.202 0 .39-.115.505-.274zm59.306-2.135a.65.65 0 00-.534-.289.64.64 0 00-.635.635.64.64 0 00.635.635.611.611 0 00.52-.274h18.954a.611.611 0 00.52.274.64.64 0 00.634-.635.64.64 0 00-.635-.635.606.606 0 00-.519.289h-18.94zm-17.47 33.887l-.015.014c-.029.043-.043.087-.058.13-.028.058-.057.115-.057.187v2.107a.648.648 0 00-.274.519.64.64 0 00.634.635.64.64 0 00.635-.635.65.65 0 00-.288-.534v-2.005c.115-.115.23-.245.36-.375.13-.144.26-.274.404-.418.13-.13.26-.275.39-.419l.072-.072c.029 0 .057.014.086.014a.64.64 0 00.635-.634.64.64 0 00-.635-.635.64.64 0 00-.634.635.52.52 0 00.029.158l-.03.03c-.13.144-.259.302-.389.432s-.274.274-.404.418c-.13.13-.245.289-.375.404-.058.03-.072.03-.086.044zM48.24 7.65a11.19 11.19 0 00-.404-.418c-.116-.13-.231-.26-.36-.375V4.852a.65.65 0 00.288-.534.64.64 0 00-.635-.635.64.64 0 00-.635.635c0 .216.101.404.274.52v2.105c0 .073.015.13.058.188a.495.495 0 00.058.13l.014.014.029.029c.13.13.26.274.375.404.13.144.26.274.404.418.144.145.26.289.39.433l.028.029c-.014.058-.029.101-.029.159a.64.64 0 00.635.634.64.64 0 00.635-.634.64.64 0 00-.635-.635c-.029 0-.057 0-.086.014-.03-.029-.044-.057-.072-.072a2.046 2.046 0 00-.332-.404z" fill="#75CCD5"/><path d="M44.027 1.375c0 .23.13.433.317.548v.534h-.029v11.151a.26.26 0 00.03.115c0 .073.028.145.086.217.029.029.058.072.086.1.03.03.072.059.101.087l.101.101a7.86 7.86 0 01.058.058l.087.087.216.216c.115.101.23.216.332.317l.332.332.072.072c.1.087.187.173.288.26.044.043.101.101.159.144.043.03.087.058.115.087.03.029.058.058.101.086a158.906 158.906 0 00.202.202v9.652h-1.658v-7.343a.648.648 0 00.273-.52.64.64 0 00-.634-.634.64.64 0 00-.635.634.65.65 0 00.288.534v7.256h-1.384V8.891a.653.653 0 00.202-.462.64.64 0 00-.635-.635.64.64 0 00-.635.635c0 .245.144.462.36.563v16.662h-2.322V8.04a.63.63 0 00.159-.419.64.64 0 00-.635-.634.64.64 0 00-.635.634c0 .26.173.49.404.592v17.441h-1.5c0-2.207.014-4.415.014-6.607a.519.519 0 00.145-.101.636.636 0 000-.895.636.636 0 00-.895 0 .636.636 0 000 .895l.043.043c0 2.222-.014 4.458-.014 6.68h-.332l-4.876-4.877c-1.024-1.024-2.048-2.034-3.058-3.058 0-.043.014-.072.014-.115a.64.64 0 00-.634-.635.64.64 0 00-.635.635.64.64 0 00.634.634c.044 0 .087 0 .13-.014l7.43 7.43h-2.106c-.332 0-.678.13-.938.331l-3.174-3.174a.64.64 0 00-.635-.634.64.64 0 00-.634.634.64.64 0 00.634.635.526.526 0 00.217-.043l3.13 3.13a1.31 1.31 0 00-.158.707v1.24H30.12a.631.631 0 00-.535-.288.64.64 0 00-.634.635.64.64 0 00.634.635.648.648 0 00.52-.274h1.875v2.178h-5.668c-2.265-2.25-4.516-4.515-6.78-6.766v-.029a.64.64 0 00-.635-.634.64.64 0 00-.635.634.64.64 0 00.635.635.46.46 0 00.202-.043l6.88 6.881c.13.13.333.13.477.015h5.554v1.341H13.444a.629.629 0 00-.49-.245.64.64 0 00-.636.635.64.64 0 00.635.634.65.65 0 00.548-.317H32.01v1.645h-2.207a.65.65 0 00-.563-.347.64.64 0 00-.635.635.64.64 0 00.635.635c.188 0 .36-.087.476-.216h2.294v1.86H21.291a.664.664 0 00-.533-.303.64.64 0 00-.635.635.64.64 0 00.635.635c.202 0 .39-.101.505-.26H32.01v2.135H14.309a.648.648 0 00-.52-.274.64.64 0 00-.634.635.64.64 0 00.635.635.65.65 0 00.534-.289H32.01v2.308h-3.837a.63.63 0 00-.534-.303.64.64 0 00-.635.635.64.64 0 00.635.635c.202 0 .39-.101.505-.26h3.866v2.438H9.448a.648.648 0 00-.52-.274.64.64 0 00-.635.635.64.64 0 00.635.635.65.65 0 00.534-.289H32.01v1.861H21.118a.612.612 0 00-.52-.274.64.64 0 00-.634.635.64.64 0 00.635.635.65.65 0 00.534-.289H32.01v1.5H21.45c-.029-.028-.058-.057-.1-.086-.895-.678-1.775-1.356-2.67-2.034-.043-.044-.115-.044-.187-.044a.419.419 0 00-.13-.028h-6.78a.629.629 0 00-.49-.246.64.64 0 00-.636.635.64.64 0 00.635.635.65.65 0 00.548-.317h6.723c.88.678 1.76 1.341 2.64 2.02a.11.11 0 00.072.028.355.355 0 00.288.144H32.01v1.486h-.923a.638.638 0 00-1.198.303.64.64 0 00.635.635.61.61 0 00.476-.231h.996v1.5h-1.804c-.014-.014-.014-.029-.029-.029-.577-.591-1.154-1.168-1.716-1.76l-.015-.014-.086-.087a.37.37 0 00-.433-.057.328.328 0 00-.23-.087H16.386a.616.616 0 00-.491-.23.64.64 0 00-.635.634.64.64 0 00.635.635c.23 0 .447-.13.548-.332h11.224c.072 0 .13-.014.173-.058a.252.252 0 01.057.073c.578.591 1.155 1.168 1.717 1.76a.314.314 0 00.116.072.333.333 0 00.288.158h1.991v2.049h-8.656a.629.629 0 00-.49-.245.64.64 0 00-.635.634.64.64 0 00.635.635.65.65 0 00.548-.317h8.598v1.5H21.666c-.028-.029-.057-.043-.086-.072-.952-.736-1.919-1.471-2.87-2.207a.284.284 0 00-.217-.043.344.344 0 00-.202-.073h-3.953a.649.649 0 00-.548-.317.64.64 0 00-.635.635.64.64 0 00.635.634.629.629 0 00.49-.245h4.04c.014 0 .014.015.029.03.952.735 1.904 1.456 2.87 2.192a.352.352 0 00.303.173H32.01v1.687H18.868a.609.609 0 00-.476-.23.64.64 0 00-.635.635.64.64 0 00.635.635c.23 0 .447-.145.548-.332h13.084c0 .779-.014 1.558-.014 2.337l-4.256.043h-.317a.789.789 0 00-.087-.115.623.623 0 00-.894.014.623.623 0 00.014.894c.246.246.65.246.895 0a.248.248 0 00.058-.072h.201a467.12 467.12 0 004.4-.057c0 .346 0 .707.015 1.053v.072c0 .274.072.534.216.764-1.616 1.63-3.231 3.246-4.847 4.876l-5.367 5.41c-.043 0-.072-.014-.115-.014a.64.64 0 00-.635.635.64.64 0 00.635.634.64.64 0 00.635-.635c0-.043 0-.086-.014-.13 3.13-3.144 6.26-6.303 9.376-9.448.274-.275.534-.549.808-.808.245.173.548.274.88.274h.13c0 1.4 0 2.799.014 4.212-.028.015-.043.03-.057.043l-6.377 6.377a.653.653 0 00-.634.159.636.636 0 000 .894.636.636 0 00.894 0 .628.628 0 00.173-.49l6.434-6.42c.044-.043.058-.087.087-.13a.337.337 0 00.187-.303c0-1.442 0-2.87-.014-4.313h2.64c0 2.366.014 4.717.014 7.083l-.043.043a.636.636 0 000 .895c.245.245.65.245.895 0a.636.636 0 000-.895c-.044-.043-.101-.072-.145-.1 0-2.338-.014-4.675-.014-7.012h1.486v17.846a.647.647 0 00-.404.59.64.64 0 00.635.635.64.64 0 00.634-.634.629.629 0 00-.158-.419V70.317h2.322v17.066a.621.621 0 00-.36.563.64.64 0 00.634.635.64.64 0 00.635-.635.622.622 0 00-.202-.462V70.302h1.385v7.661a.65.65 0 00-.288.534.64.64 0 00.634.635.64.64 0 00.635-.635.611.611 0 00-.274-.52v-7.674h1.659v10.055l-.072.072-.13.13c-.029.028-.072.057-.101.086-.043.03-.087.058-.116.087-.057.043-.1.086-.158.144-.101.087-.188.173-.289.26l-.072.072c-.115.1-.23.216-.332.332a6.754 6.754 0 01-.331.317l-.217.216-.086.087-.03.029c-.014 0-.014.014-.028.029l-.101.1c-.029.03-.072.044-.101.087a.568.568 0 00-.173.317c-.015.044-.029.073-.029.116v11.137a.631.631 0 00-.288.534.64.64 0 00.634.634.64.64 0 00.635-.634.629.629 0 00-.245-.49V82.881l.072-.072.043-.043a.113.113 0 00.058-.058l.13-.13.23-.23c.102-.102.217-.203.318-.303l.303-.303.029-.03c.029-.014.043-.042.072-.057.029-.029.057-.043.072-.072.086-.072.159-.144.245-.216.029-.03.058-.044.101-.073a.728.728 0 00.116-.1l-.03.028c.073-.057.13-.13.203-.187a.589.589 0 01.1-.087.196.196 0 01.058-.043c.044-.029.072-.072.116-.116.014-.014.029-.028.043-.028.072-.073.087-.188.072-.289V70.346c1.01-.014 2.02-.115 3.015-.317-.1.1-.202.216-.317.331-.144.145-.303.275-.447.419-.116.13-.246.26-.361.375a.44.44 0 00-.115.115l-.015.015a.318.318 0 00-.086.216c0 .058.014.115.043.173v13.359a.39.39 0 00.072.216v.058c0 .072.029.173.072.216.693.678 1.385 1.37 2.078 2.049v3.751a.625.625 0 00-.419.591.64.64 0 00.635.635.64.64 0 00.635-.635.647.647 0 00-.145-.39V87.47a.348.348 0 00-.1-.244c-.015-.03-.03-.073-.058-.087-.693-.678-1.385-1.37-2.078-2.049V71.588c.087-.101.173-.188.274-.289l.347-.346c.072-.058.13-.115.202-.188.057-.072.13-.13.187-.202.116-.13.231-.245.36-.36l.318-.318c.072-.072.145-.158.217-.23l-.044.043.072-.072a13.136 13.136 0 001.616-.664c.101-.043.188-.1.289-.144v2.64c-.246.144-.49.303-.722.461l-.346.217c-.086.057-.187.13-.274.187-.13.101-.274.188-.404.289a2.113 2.113 0 01-.187.13c-.058.043-.101.086-.16.115.015 0 .03-.014.03-.014-.072.043-.13.086-.159.158-.014.03-.014.058-.029.087a.406.406 0 00-.057.173v9.016c-.188.116-.332.318-.332.549a.64.64 0 00.635.634.64.64 0 00.634-.634.689.689 0 00-.23-.49V73.36c.072-.058.158-.115.23-.159.145-.1.274-.187.419-.288l.26-.173c.115-.072.245-.145.36-.231.115-.087.23-.159.346-.23.159-.102.332-.203.505-.304a.326.326 0 00.144-.216.29.29 0 00.044-.159v-3.174c.62-.39 1.183-.85 1.716-1.356 1.803 1.832 3.592 3.665 5.381 5.497 1.775 1.817 3.563 3.635 5.338 5.453-.015.043-.015.072-.015.115a.65.65 0 00.62.65.65.65 0 00.65-.621.65.65 0 00-.62-.65c-.044 0-.087 0-.13.015-3.102-3.174-6.218-6.347-9.32-9.507-.476-.476-.937-.952-1.413-1.442.13-.13.245-.274.375-.419a.235.235 0 00.1.015c1.544.014 3.088.029 4.632.057.014.03.029.044.043.073l6.275 6.463a.614.614 0 00.144.634c.246.246.65.26.895.015a.636.636 0 00.014-.895.64.64 0 00-.49-.187l-6.333-6.52a.34.34 0 00-.13-.087.336.336 0 00-.303-.188l-4.313-.043c.187-.245.36-.505.519-.78a9.74 9.74 0 00.779-1.5h10.69a.608.608 0 001.14-.288.61.61 0 00-.606-.606.612.612 0 00-.462.216H59.117a15.04 15.04 0 00.476-1.615h7.472c.13 0 .231-.072.289-.173.909-.707 1.832-1.4 2.74-2.092.015 0 .015-.015.03-.015h3.866a.585.585 0 00.476.231.61.61 0 00.606-.606.61.61 0 00-.606-.606.619.619 0 00-.52.303h-3.779a.344.344 0 00-.202.072.284.284 0 00-.216.044l-2.756 2.106c-.029.029-.057.043-.072.072h-7.184c.1-.548.173-1.096.216-1.645h5.41a.649.649 0 00.548.318.64.64 0 00.635-.635.64.64 0 00-.635-.635.629.629 0 00-.49.246h-5.424c.043-1.025 0-2.049-.16-3.059.318-.331.65-.663.967-.995.015-.029.174-.014.246-.014h11.223c.116.187.318.331.548.331a.64.64 0 00.635-.634.64.64 0 00-.635-.635.66.66 0 00-.49.23H61.035a2.97 2.97 0 00-.404.044.487.487 0 00-.26.1c-.028.03-.057.059-.086.087l-.014.015c-.217.216-.419.433-.635.649a13.27 13.27 0 00-.851-2.553h8.583a.377.377 0 00.289-.145c.029-.014.043-.014.072-.029.88-.677 1.76-1.341 2.64-2.02h6.723a.649.649 0 00.548.318.64.64 0 00.635-.634.64.64 0 00-.635-.635.629.629 0 00-.49.245h-6.768a.413.413 0 00-.13.029.361.361 0 00-.187.043c-.894.678-1.774 1.356-2.669 2.034a.594.594 0 00-.1.087h-8.844a12.76 12.76 0 00-.98-1.5h10.155a.631.631 0 00.534.288.64.64 0 00.635-.635.64.64 0 00-.635-.635.648.648 0 00-.52.275H56.882a11.207 11.207 0 00-1.818-1.587c.1-.087.202-.188.288-.289H79.3a.63.63 0 00.533.289.64.64 0 00.635-.635.64.64 0 00-.635-.635.648.648 0 00-.519.274H56.015c.52-.634.981-1.327 1.342-2.063.057-.13.115-.245.173-.375h4.255c.116.159.303.26.505.26a.64.64 0 00.635-.635.64.64 0 00-.635-.635.612.612 0 00-.533.303h-3.939c.289-.75.49-1.529.635-2.308h15.984a.631.631 0 00.534.289.64.64 0 00.635-.635.64.64 0 00-.635-.635.648.648 0 00-.52.274H58.555a17.48 17.48 0 00.115-2.135h8.844c.115.159.303.26.504.26a.64.64 0 00.635-.635.64.64 0 00-.635-.635.612.612 0 00-.533.303H58.64a13.694 13.694 0 00-.202-1.702h3.202c.116.13.289.216.476.216a.64.64 0 00.635-.634.64.64 0 00-.635-.635.651.651 0 00-.562.346h-3.26a12.99 12.99 0 00-.549-1.803h17.499a.649.649 0 00.548.317.64.64 0 00.635-.634.64.64 0 00-.635-.635.629.629 0 00-.49.245H57.429a7.73 7.73 0 00-.404-.764 7.794 7.794 0 00-.36-.578h5.568a.37.37 0 00.476-.014l6.881-6.881a.46.46 0 00.202.043.64.64 0 00.635-.635.64.64 0 00-.635-.634.64.64 0 00-.635.634v.03l-6.766 6.765h-6.044a.243.243 0 00-.144.043 10.71 10.71 0 00-.635-.75c1.529-1.515 3.044-3.044 4.573-4.559a.58.58 0 00.216.044.64.64 0 00.635-.635.64.64 0 00-.635-.635.64.64 0 00-.635.635l-4.645 4.645c-.23-.216-.461-.433-.721-.62v-3.275a.29.29 0 00-.043-.159.31.31 0 00-.145-.216c-.173-.1-.331-.202-.504-.303-.116-.072-.231-.159-.347-.23-.115-.087-.245-.145-.36-.232l-.26-.173c-.144-.1-.274-.187-.418-.288a2.206 2.206 0 00-.231-.159V14.07a.616.616 0 00.23-.49.64.64 0 00-.634-.636.64.64 0 00-.635.635c0 .231.13.447.332.548v9.017c0 .072.014.13.058.173 0 .029.014.058.029.086.028.073.086.13.158.16-.014 0-.029-.015-.029-.015a.637.637 0 01.159.115c.058.043.115.087.188.13.13.1.274.188.403.288.087.058.188.13.275.188l.346.216c.23.16.476.318.721.462v2.626c-.245-.174-.505-.318-.764-.462-.462-.26-.953-.462-1.443-.65l-.26-.259c-.115-.115-.245-.23-.36-.36-.058-.073-.13-.13-.188-.202-.058-.058-.13-.116-.202-.188l-.346-.346c-.087-.101-.188-.188-.274-.289V11.314c.692-.678 1.385-1.37 2.077-2.048.029-.029.043-.058.058-.087a.338.338 0 00.1-.245V4.318a.648.648 0 00.145-.39.64.64 0 00-.635-.635.64.64 0 00-.634.635c0 .274.173.505.418.592v4.299c-.693.678-1.385 1.37-2.077 2.048-.058.058-.073.144-.073.216v.059a.354.354 0 00-.072.217v13.387a.385.385 0 00-.043.173.32.32 0 00.087.217l.014.014a.44.44 0 00.115.115c.116.13.246.26.361.376.13.13.274.26.404.389a14.874 14.874 0 00-2.654-.36v-9.724a.3.3 0 00-.072-.288c-.015-.015-.03-.03-.044-.03l-.115-.115a.198.198 0 00-.058-.043.625.625 0 00-.1-.086 2.399 2.399 0 01-.203-.188l.029.029c-.029-.029-.072-.058-.115-.101-.03-.029-.058-.043-.101-.072-.087-.072-.16-.145-.246-.217-.029-.028-.057-.043-.072-.072a.25.25 0 00-.072-.058l-.029-.028-.303-.303a6.184 6.184 0 00-.317-.303l-.23-.231-.13-.13c-.015-.014-.03-.043-.058-.058l-.044-.043c-.029-.029-.072-.058-.1-.087v-.26c.014 0 .014.015.028.015V1.851a.629.629 0 00.245-.49.64.64 0 00-.634-.635.663.663 0 00-.635.649zm3.679 31.463l.23.043c.188.044.376.087.563.145.144.043.288.086.433.144.029.014.072.014.1.029.015 0 .03.014.044.014.303.159.606.318.895.52.028.014.158.115.173.13.115.1.216.201.331.302.101.101.202.217.303.332.044.058.101.115.145.173 0 .015.014.015.014.03.173.259.346.518.476.807.015.029.043.072.072.115 0 .015.015.044.03.072.071.174.129.361.187.549.086.303.144.62.216.923v.014c0 .087.014.159.029.246.014.216.029.432.029.649 0 .375 0 .735-.044 1.11v.13c0 .015-.014.03-.014.058-.029.202-.072.39-.115.592-.072.302-.173.591-.274.894-.044.072-.073.159-.116.23-.086.16-.173.333-.274.477-.043.058-.245.288-.245.36a8.021 8.021 0 01-.808.808 1.197 1.197 0 01-.173.116c-.144.086-.274.173-.419.26l-.346.173c-.072.014-.26.1-.303.115a7.705 7.705 0 01-.952.245c-.072.015-.159.03-.23.044l-.563.043c-.404.014-.823.014-1.227.014h-4.746l.015-2.28a.788.788 0 00-.447-1.428.788.788 0 00-.794.78.8.8 0 00.36.663l-.014 2.25h-1.486V32.766h7.878c.316 0 .648 0 .966.043-.044 0-.03 0 .1.03zm-.116-.029c.029 0 .043.015.072.015-.029 0-.057 0-.072-.015zm3.938 2.842a.268.268 0 01.03.101.547.547 0 00-.03-.1zm-.605 6.203c-.015.015-.03.03-.03.044.044-.058.217-.246.03-.044zm-1.804 1.429c-.014 0-.014.014-.029.014-.23.115-.057.015.03-.014zm-7.674 11.829c0-.26-.13-.505-.347-.65l.015-3.808h5.958c.404 0 .793.03 1.183.072h.029c.072.015.158.03.23.044.188.043.39.086.578.13.187.043.375.1.548.173.072.029.13.057.202.072.317.158.62.317.923.505.072.043.144.1.216.158.101.073.116.101.087.101.1.087.245.174.288.217.202.187.462.418.635.663.015.03.043.087.072.116.058.072.101.158.159.23l.26.433c.086.145.158.303.23.448.03.043.044.072.044.1l.043.174c.115.346.216.707.288 1.082.015.1.03.202.058.303a.584.584 0 01.03.1c.028.16.014.347.014.477.028.418.028.836 0 1.255-.015.187-.03.375-.044.577 0 .043-.014.086-.014.1l-.044.217a7.546 7.546 0 01-.346 1.24 1.62 1.62 0 01-.072.188c-.014.03-.029.044-.043.072-.101.202-.202.404-.318.592-.1.159-.202.317-.302.462a.39.39 0 01-.058.072c-.043.043-.087.086-.116.13a4.21 4.21 0 01-.432.447c-.072.072-.347.23-.433.36.058-.072.159-.086.029.015-.015.014-.03.029-.043.029-.073.057-.145.1-.231.158a9.979 9.979 0 01-.52.318c-.086.043-.158.086-.245.13-.014.014-.043.014-.058.028-.158.015-.375.145-.519.188-.375.115-.866.303-1.255.288.043 0 .36-.043.058-.014-.13.014-.246.029-.375.029-.26.014-.52.029-.78.029h-8.352V50.654h1.515l.043 3.809a.776.776 0 00-.36.649c0 .433.345.793.778.793a.8.8 0 00.794-.793zm11.324-1.024c-.014-.044-.043-.116-.058-.116.015.03.03.072.058.116zm.404 4.04v-.015.014zm-1.096 2.827c0 .014-.015.014-.015.028 0-.014 0-.028.015-.028z" fill="#fff"/><path d="M5.25 36.416h18.97a.648.648 0 00.52.274.64.64 0 00.634-.635.64.64 0 00-.634-.635.65.65 0 00-.534.289H5.264a.625.625 0 00-.519-.289.64.64 0 00-.635.635.64.64 0 00.635.635c.202 0 .39-.116.505-.274zm81.277 6.318H67.585a.625.625 0 00-.52-.288.64.64 0 00-.634.635.64.64 0 00.635.634.648.648 0 00.52-.274h18.956a.648.648 0 00.519.274.64.64 0 00.634-.634.64.64 0 00-.634-.635.65.65 0 00-.534.288zm-38.085-6.131a.65.65 0 00.288.534v2.005c-.115.116-.23.246-.36.375-.13.145-.26.274-.404.419-.13.13-.26.274-.39.418l-.072.072c-.029 0-.058-.014-.087-.014a.64.64 0 00-.634.635.64.64 0 00.634.634.64.64 0 00.635-.634.52.52 0 00-.029-.16l.03-.028c.129-.144.259-.303.389-.433s.274-.274.404-.418c.13-.13.245-.289.375-.404l.029-.029.014-.014c.029-.044.043-.087.058-.13a.409.409 0 00.057-.188v-2.106a.648.648 0 00.275-.52.64.64 0 00-.635-.634c-.289-.014-.577.274-.577.62zm1.615 21.019v.433a.65.65 0 00-.289.534.64.64 0 00.635.635.64.64 0 00.635-.635.612.612 0 00-.274-.52v-2.106a.29.29 0 00-.058-.187.514.514 0 00-.058-.13l-.014-.014-.029-.03a9.6 9.6 0 01-.375-.403 11.19 11.19 0 00-.404-.418c-.144-.145-.26-.29-.39-.433l-.028-.03c.014-.057.029-.1.029-.158a.64.64 0 00-.635-.635.64.64 0 00-.635.635.64.64 0 00.635.635c.029 0 .057 0 .086-.014.03.028.044.057.072.072.13.144.26.288.39.418.13.144.26.274.404.418.115.13.23.26.36.375v1.558h-.057z" fill="#75CCD5"/></svg>