<svg width="20" height="20" viewBox="0 0 20 20" fill="none" xmlns="http://www.w3.org/2000/svg">
<path d="M18.8284 17.972H18.086V3.55052C18.086 3.24703 17.84 3.00098 17.5365 3.00098H13.3224V3.35609C13.3909 4.78487 11.2858 6.25773 10.2494 6.77815C10.0922 6.85864 9.90588 6.85864 9.74868 6.77815C8.70615 6.25461 6.60682 4.78165 6.67569 3.35609V3.00098H2.4616C2.1581 3.00098 1.91205 3.24703 1.91205 3.55052V17.972H1.16969C0.440557 18.0011 0.441106 19.0424 1.16969 19.0711H2.4616H6.97838V15.074C6.97838 14.7705 7.22443 14.5245 7.52793 14.5245H12.4702C12.7737 14.5245 13.0197 14.7705 13.0197 15.074V19.0711H17.5365H18.8284C19.5575 19.0421 19.557 18.0008 18.8284 17.972ZM6.32783 11.1394H4.70206C3.97292 11.1104 3.97347 10.0691 4.70206 10.0403H6.32783C7.05697 10.0694 7.05642 11.1106 6.32783 11.1394ZM6.87738 12.832C6.87738 13.1355 6.63133 13.3815 6.32783 13.3815H4.70206C3.97292 13.3525 3.97347 12.3112 4.70206 12.2824H6.32783C6.63133 12.2824 6.87738 12.5285 6.87738 12.832ZM6.32783 8.89737H4.70206C3.97292 8.86832 3.97347 7.82704 4.70206 7.79828H6.32783C7.05697 7.82734 7.05642 8.86861 6.32783 8.89737ZM10.8119 13.3815H9.18616C8.45702 13.3525 8.45757 12.3112 9.18616 12.2824H10.8119C11.5411 12.3114 11.5405 13.3527 10.8119 13.3815ZM10.8119 11.1394H9.18616C8.45702 11.1104 8.45757 10.0691 9.18616 10.0403H10.8119C11.5411 10.0694 11.5405 11.1106 10.8119 11.1394ZM10.8119 8.89737H9.18616C8.45702 8.86832 8.45757 7.82704 9.18616 7.79828H10.8119C11.5411 7.82734 11.5405 8.86861 10.8119 8.89737ZM13.6702 7.79828H15.296C16.0251 7.82734 16.0246 8.86861 15.296 8.89737H13.6702C12.9411 8.86836 12.9417 7.82704 13.6702 7.79828ZM13.6702 10.0403H15.296C16.0251 10.0694 16.0246 11.1106 15.296 11.1394H13.6702C12.9411 11.1104 12.9417 10.0691 13.6702 10.0403ZM13.6702 12.2824H15.296C16.0251 12.3115 16.0246 13.3528 15.296 13.3815H13.6702C12.9411 13.3525 12.9417 12.3112 13.6702 12.2824Z" fill="#69A5FF"/>
<path d="M8.07812 15.623H11.9213V19.0706H8.07812V15.623Z" fill="#69A5FF"/>
<path d="M7.77543 3.35576C7.77543 4.15784 9.14171 5.17043 9.99973 5.66286C10.8575 5.17061 12.224 4.15787 12.224 3.35576V2.16526C12.224 1.91555 12.0877 1.68705 11.8768 1.58322C11.6563 1.47463 11.459 1.32845 11.2905 1.14868C11.1576 1.00686 10.9859 0.928711 10.807 0.928711H9.19245C9.01359 0.928711 8.84184 1.00686 8.70885 1.14871C8.54039 1.32841 8.34318 1.47463 8.12267 1.58318C7.91171 1.68705 7.77539 1.91551 7.77539 2.16526V3.35576H7.77543Z" fill="#69A5FF"/>
</svg>
