<svg width="20" height="20" viewBox="0 0 20 20" fill="none" xmlns="http://www.w3.org/2000/svg">
<path d="M2.90726 10.5551L7.1243 13.5398C7.3562 13.704 7.679 13.6504 7.84446 13.4166L9.03834 11.7298C9.20318 11.4969 9.14801 11.1744 8.91511 11.0096L8.68248 10.8449C9.93013 9.85901 11.1373 8.13161 11.6602 6.62303L11.8998 6.79255C12.1327 6.95733 12.4551 6.90222 12.62 6.66932L13.8138 4.9825C13.9786 4.74977 13.9235 4.42714 13.6906 4.26234L9.47352 1.27772C9.24066 1.11288 8.91821 1.16802 8.75337 1.40096L7.55948 3.08774C7.39475 3.32051 7.44985 3.6431 7.68272 3.8079L7.92265 3.9777C6.65203 4.99028 5.43714 6.71199 4.93111 8.18985L4.69803 8.02491C4.46517 7.8601 4.14272 7.91521 3.97788 8.14814L2.784 9.83493C2.61929 10.0677 2.67436 10.3903 2.90726 10.5551V10.5551Z" fill="#69A5FF"/>
<path d="M17.629 12.1128L12.0981 8.19824C11.6335 9.09055 11.0042 9.98753 10.3129 10.7325L15.8382 14.643C16.5378 15.1382 17.5039 14.9724 17.9987 14.2733C18.4936 13.5741 18.3283 12.6078 17.629 12.1128Z" fill="#69A5FF"/>
<path d="M12.5655 15.7175H12.0488C11.7639 15.7175 11.5322 15.4857 11.5322 15.2008C11.5322 14.9155 11.3009 14.6842 11.0155 14.6842H3.78262C3.49729 14.6842 3.26598 14.9155 3.26598 15.2008C3.26598 15.4857 3.03421 15.7175 2.74934 15.7175H2.2327C1.94738 15.7175 1.71606 15.9488 1.71606 16.2341V18.3006C1.71606 18.586 1.94738 18.8173 2.2327 18.8173H12.5655C12.8508 18.8173 13.0821 18.586 13.0821 18.3006V16.2341C13.0821 15.9488 12.8508 15.7175 12.5655 15.7175Z" fill="#69A5FF"/>
</svg>
