<svg width="20" height="20" viewBox="0 0 20 20" fill="none" xmlns="http://www.w3.org/2000/svg">
<path d="M16.9874 1.26572H6.50631C5.54554 1.26572 4.75946 2.05181 4.75946 3.01258V16.114C4.75946 16.638 4.32274 16.9874 3.88603 16.9874C3.44932 16.9874 3.0126 16.638 3.0126 16.114V6.50629C3.0126 6.06958 2.57589 5.63286 2.13917 5.63286C1.70246 5.63286 1.26575 6.06958 1.26575 6.50629V16.9874C1.26575 17.9482 2.05183 18.7343 3.0126 18.7343H16.9874C17.9482 18.7343 18.7343 17.9482 18.7343 16.9874V3.01258C18.7343 2.05181 17.9482 1.26572 16.9874 1.26572ZM12.6203 10H7.37974C6.94303 10 6.50631 9.65063 6.50631 9.12657C6.50631 8.68986 6.94303 8.25314 7.37974 8.25314H12.6203C13.057 8.25314 13.4937 8.68986 13.4937 9.12657C13.4937 9.65063 13.057 10 12.6203 10ZM16.114 6.50629H7.37974C6.94303 6.50629 6.50631 6.15692 6.50631 5.63286C6.50631 5.19615 6.94303 4.75943 7.37974 4.75943H16.114C16.5507 4.75943 16.9874 5.19615 16.9874 5.63286C16.9874 6.15692 16.5507 6.50629 16.114 6.50629Z" fill="#69A5FF"/>
</svg>
