<svg width="20" height="20" viewBox="0 0 20 20" fill="none" xmlns="http://www.w3.org/2000/svg">
<path d="M17.4431 12.773C16.3575 12.773 15.2916 12.6032 14.2815 12.2694C13.7865 12.1006 13.178 12.2555 12.8759 12.5657L10.8821 14.0708C8.56991 12.8366 7.14562 11.4127 5.92821 9.11787L7.38902 7.17604C7.76855 6.79702 7.90468 6.24335 7.74158 5.72386C7.40634 4.70843 7.23604 3.64299 7.23604 2.5569C7.23608 1.77231 6.59778 1.134 5.81323 1.134H2.55683C1.77228 1.134 1.13397 1.77231 1.13397 2.55686C1.13397 11.5498 8.45017 18.866 17.4431 18.866C18.2277 18.866 18.866 18.2277 18.866 17.4431V14.1958C18.866 13.4113 18.2277 12.773 17.4431 12.773Z" fill="#69A5FF"/>
</svg>
