<svg width="20" height="21" viewBox="0 0 20 21" fill="none" xmlns="http://www.w3.org/2000/svg">
<g clip-path="url(#clip0)">
<path d="M10.768 8.48009V11.4796H13.7675C13.4609 9.97475 12.2728 8.7867 10.768 8.48009Z" fill="#69A5FF"/>
<path d="M9.22967 8.48009C7.47623 8.83742 6.15274 10.3914 6.15274 12.2488C6.15274 14.3696 7.87808 16.095 9.9989 16.095C11.8563 16.095 13.4103 14.7715 13.7677 13.018H9.22967V8.48009Z" fill="#69A5FF"/>
<path d="M10.769 3.82222V2.24842H12.3075V0.709961H7.69212V2.24842H9.23058V3.82222C4.92401 4.21217 1.53827 7.84201 1.53827 12.2484C1.53827 16.9142 5.33412 20.71 9.99981 20.71C14.6655 20.71 18.4613 16.9142 18.4613 12.2484C18.4613 7.84201 15.0756 4.21217 10.769 3.82222ZM9.99981 17.633C7.03068 17.633 4.61519 15.2175 4.61519 12.2484C4.61519 9.2794 7.03068 6.86381 9.99981 6.86381C12.9689 6.86381 15.3844 9.2794 15.3844 12.2484C15.3844 15.2175 12.9689 17.633 9.99981 17.633Z" fill="#69A5FF"/>
</g>
<defs>
<clipPath id="clip0">
<rect width="20" height="20" fill="white" transform="translate(0 0.709961)"/>
</clipPath>
</defs>
</svg>
