<svg width="20" height="21" viewBox="0 0 20 21" fill="none" xmlns="http://www.w3.org/2000/svg">
<g clip-path="url(#clip0)">
<path d="M8.12395 1.88184C12.3461 2.11258 15.49 4.47684 15.49 8.68742V12.3365H16.0759C16.3995 12.3365 16.6619 12.0742 16.6619 11.7506V8.70371C16.6619 6.55664 15.925 4.68484 14.5308 3.29074C12.2015 0.961445 8.802 0.709961 7.44856 0.709961C7.12309 0.709961 6.85981 0.975547 6.86266 1.30098C6.86434 1.49789 6.86598 1.69316 6.86739 1.88184H8.12395Z" fill="#69A5FF"/>
<path d="M5.41066 10.3549L8.25929 8.85469C8.08168 9.41262 7.77222 9.89531 7.41496 10.4526C6.86793 11.3059 6.26609 12.2451 6.00254 13.6787H14.3173C14.3173 11.9623 14.3173 9.67426 14.3173 8.68012C14.3173 5.11891 11.622 3.2616 8.05789 3.05371H6.86996C6.86988 3.06672 3.12828 7.0107 3.12828 7.0107C2.92531 7.20738 2.89164 7.52098 3.04832 7.75625L4.64988 10.1613C4.8164 10.4112 5.14484 10.495 5.41066 10.3549V10.3549Z" fill="#69A5FF"/>
<path d="M5.13672 14.8506C4.81312 14.8506 4.55078 15.1129 4.55078 15.4365V17.1553H15.8789V15.4365C15.8789 15.1129 15.6166 14.8506 15.293 14.8506H5.13672Z" fill="#69A5FF"/>
<path d="M3.37891 18.3271V20.124C3.37891 20.4476 3.64125 20.71 3.96484 20.71H16.4648C16.7884 20.71 17.0508 20.4476 17.0508 20.124V18.3271H3.37891Z" fill="#69A5FF"/>
</g>
<defs>
<clipPath id="clip0">
<rect width="20" height="20" fill="white" transform="translate(0 0.709961)"/>
</clipPath>
</defs>
</svg>
