<svg width="20" height="21" viewBox="0 0 20 21" fill="none" xmlns="http://www.w3.org/2000/svg">
<path d="M18.4556 3.72107C18.3605 3.57924 18.2011 3.4942 18.0304 3.4942H14.491C14.2787 3.4942 14.0885 3.62523 14.0128 3.82357L11.1642 11.2885L9.76717 5.25832C9.53284 4.24677 8.64325 3.54032 7.60397 3.54032H1.58289C1.31324 3.54032 1.09011 3.74959 1.07238 4.01857C1.05479 4.28769 1.24899 4.52442 1.51638 4.55974C1.53051 4.56161 2.945 4.75475 4.67407 5.51784C4.95705 5.64274 5.25936 5.78829 5.57273 5.95638L8.51302 17.3019C8.57154 17.5277 8.77534 17.6854 9.0086 17.6854H12.6172C12.8248 17.6854 13.0118 17.5601 13.0907 17.3682L18.5037 4.20065C18.5686 4.0427 18.5506 3.86289 18.4556 3.72107V3.72107ZM5.04809 4.56414H7.60397C8.1642 4.56414 8.64365 4.94455 8.76988 5.48932L9.22014 7.43312C8.85038 7.04351 8.44904 6.67642 8.01771 6.33386C7.14504 5.64101 6.14868 5.04679 5.05609 4.5676C5.05342 4.5664 5.05075 4.5652 5.04809 4.56414Z" fill="#69A5FF"/>
</svg>
