<svg width="20" height="21" viewBox="0 0 20 21" fill="none" xmlns="http://www.w3.org/2000/svg">
<g clip-path="url(#clip0)">
<path d="M13.5156 6.6084H12.9297V10.124H13.5156C13.839 10.124 14.1016 9.86142 14.1016 9.53809V7.19434C14.1016 6.871 13.839 6.6084 13.5156 6.6084Z" fill="#69A5FF"/>
<path d="M6.48438 8.95215H5.89844V10.124H6.48438C6.80771 10.124 7.07031 9.86142 7.07031 9.53809C7.07031 9.21475 6.80771 8.95215 6.48438 8.95215Z" fill="#69A5FF"/>
<path d="M6.48438 6.6084H5.89844V7.78027H6.48438C6.80771 7.78027 7.07031 7.51767 7.07031 7.19434C7.07031 6.871 6.80771 6.6084 6.48438 6.6084Z" fill="#69A5FF"/>
<path d="M17.6172 12.1245V4.60797L13.7582 0.709961H6.24176L2.38281 4.60797V12.1245L6.24176 15.9834H13.7582L17.6172 12.1245ZM8.24219 9.53809C8.24219 10.5073 7.45361 11.2959 6.48438 11.2959H4.72656V5.43652H6.48438C7.45361 5.43652 8.24219 6.2251 8.24219 7.19434C8.24219 7.64615 8.0661 8.05447 7.78503 8.36621C8.0661 8.67795 8.24219 9.08627 8.24219 9.53809ZM10.5859 11.2959H9.41406V5.43652H10.5859V11.2959ZM11.7578 11.2959V5.43652H13.5156C14.4849 5.43652 15.2734 6.2251 15.2734 7.19434V9.53809C15.2734 10.5073 14.4849 11.2959 13.5156 11.2959H11.7578Z" fill="#69A5FF"/>
<path d="M8.82812 17.1553H11.1719V20.71H8.82812V17.1553Z" fill="#69A5FF"/>
</g>
<defs>
<clipPath id="clip0">
<rect width="20" height="20" fill="white" transform="translate(0 0.709961)"/>
</clipPath>
</defs>
</svg>
