<svg width="20" height="21" viewBox="0 0 20 21" fill="none" xmlns="http://www.w3.org/2000/svg">
<g clip-path="url(#clip0)">
<path d="M2.2101 1.25903C1.29408 1.25903 0.548828 2.00428 0.548828 2.92031V9.67616H8.96595V1.25903H2.2101ZM6.04949 6.02135H5.31115V6.7597C5.31115 7.06552 5.06321 7.31346 4.75739 7.31346C4.45157 7.31346 4.20363 7.06552 4.20363 6.7597V6.02135H3.46529C3.15947 6.02135 2.91153 5.77342 2.91153 5.4676C2.91153 5.16177 3.15947 4.91384 3.46529 4.91384H4.20363V4.17549C4.20363 3.86967 4.45157 3.62173 4.75739 3.62173C5.06321 3.62173 5.31115 3.86967 5.31115 4.17549V4.91384H6.04949C6.35532 4.91384 6.60325 5.16177 6.60325 5.4676C6.60325 5.77342 6.35532 6.02135 6.04949 6.02135Z" fill="#69A5FF"/>
<path d="M18.1907 9.67646H18.4922V2.92061C18.4922 2.00459 17.747 1.25934 16.8309 1.25934H10.0751V9.47674C11.171 8.65219 12.5328 8.16286 14.0068 8.16286C15.5961 8.16286 17.0549 8.73179 18.1907 9.67646ZM12.4378 5.4679C12.4378 5.16208 12.6857 4.91414 12.9915 4.91414H15.5757C15.8816 4.91414 16.1295 5.16208 16.1295 5.4679C16.1295 5.77372 15.8816 6.02166 15.5757 6.02166H12.9915C12.6857 6.02166 12.4378 5.77372 12.4378 5.4679Z" fill="#69A5FF"/>
<path d="M8.76783 10.784H0.55043V17.5398C0.55043 18.4558 1.29568 19.2011 2.2117 19.2011H8.96755V18.8996C8.02288 17.7638 7.45395 16.305 7.45395 14.7156C7.45395 13.2417 7.94329 11.8799 8.76783 10.784ZM6.07347 15.5239C6.28973 15.7402 6.28973 16.0908 6.07347 16.307C5.96537 16.4152 5.82365 16.4692 5.68192 16.4692C5.5402 16.4692 5.39847 16.4152 5.29038 16.307L4.75899 15.7757L4.22761 16.307C4.11951 16.4152 3.97779 16.4692 3.83606 16.4692C3.69434 16.4692 3.55261 16.4152 3.44452 16.307C3.22826 16.0907 3.22826 15.7401 3.44452 15.5239L3.97587 14.9925L3.44448 14.4611C3.22822 14.2449 3.22822 13.8943 3.44448 13.678C3.66071 13.4618 4.01135 13.4618 4.22761 13.678L4.75899 14.2094L5.29038 13.678C5.5066 13.4618 5.85724 13.4618 6.0735 13.678C6.28976 13.8943 6.28976 14.2449 6.0735 14.4611L5.54212 14.9925L6.07347 15.5239Z" fill="#69A5FF"/>
<path d="M14.0059 9.27032C11.0033 9.27032 8.56059 11.7131 8.56059 14.7156C8.56059 17.7182 11.0033 20.1609 14.0059 20.1609C17.0084 20.1609 19.4512 17.7182 19.4512 14.7156C19.4512 11.7131 17.0084 9.27032 14.0059 9.27032ZM15.298 16.1923H12.7138C12.408 16.1923 12.16 15.9444 12.16 15.6385C12.16 15.3327 12.408 15.0848 12.7138 15.0848H15.298C15.6038 15.0848 15.8517 15.3327 15.8517 15.6385C15.8517 15.9444 15.6038 16.1923 15.298 16.1923ZM15.298 14.3464H12.7138C12.408 14.3464 12.16 14.0985 12.16 13.7927C12.16 13.4869 12.408 13.2389 12.7138 13.2389H15.298C15.6038 13.2389 15.8517 13.4869 15.8517 13.7927C15.8517 14.0985 15.6038 14.3464 15.298 14.3464Z" fill="#69A5FF"/>
</g>
<defs>
<clipPath id="clip0">
<rect width="20" height="20" fill="white" transform="translate(0 0.709961)"/>
</clipPath>
</defs>
</svg>
