<svg width="20" height="21" viewBox="0 0 20 21" fill="none" xmlns="http://www.w3.org/2000/svg">
<g clip-path="url(#clip0)">
<path d="M10 0.866211C5.77832 0.866211 2.34375 4.30078 2.34375 8.52246C2.34375 10.5732 3.58621 13.2068 6.0366 16.3497C7.15924 17.7859 8.375 19.1469 9.67602 20.4237C9.76325 20.5071 9.8793 20.5537 10 20.5537C10.1207 20.5537 10.2368 20.5071 10.324 20.4237C11.625 19.1469 12.8408 17.7859 13.9634 16.3497C16.4138 13.2068 17.6562 10.5732 17.6562 8.52246C17.6562 4.30078 14.2217 0.866211 10 0.866211ZM10 13.9912C6.98438 13.9912 4.53125 11.5381 4.53125 8.52246C4.53125 5.50684 6.98438 3.05371 10 3.05371C13.0156 3.05371 15.4688 5.50684 15.4688 8.52246C15.4688 11.5381 13.0156 13.9912 10 13.9912Z" fill="#69A5FF"/>
<path d="M13.7522 7.863L10.3147 4.73799C10.2284 4.65955 10.116 4.61609 9.99938 4.61609C9.88277 4.61609 9.77035 4.65955 9.68406 4.73799L6.24657 7.863C6.16649 7.93582 6.11406 8.03411 6.09818 8.14118C6.08231 8.24826 6.10396 8.35753 6.15946 8.45046C6.20325 8.52121 6.26463 8.57941 6.3376 8.61939C6.41058 8.65937 6.49267 8.67976 6.57587 8.67858H7.03063V11.6473C7.03063 11.7717 7.08002 11.8909 7.16793 11.9788C7.25583 12.0667 7.37506 12.1161 7.49938 12.1161H8.59313C8.71745 12.1161 8.83668 12.0667 8.92458 11.9788C9.01249 11.8909 9.06188 11.7717 9.06188 11.6473V9.92859C9.06188 9.80427 9.11126 9.68504 9.19917 9.59713C9.28708 9.50922 9.40631 9.45983 9.53063 9.45983H10.4681C10.5924 9.45983 10.7117 9.50922 10.7996 9.59713C10.8875 9.68504 10.9369 9.80427 10.9369 9.92859V11.6473C10.9369 11.7717 10.9863 11.8909 11.0742 11.9788C11.1621 12.0667 11.2813 12.1161 11.4056 12.1161H12.4994C12.6237 12.1161 12.7429 12.0667 12.8308 11.9788C12.9187 11.8909 12.9681 11.7717 12.9681 11.6473V8.67858H13.4229C13.5061 8.67976 13.5882 8.65937 13.6611 8.61939C13.7341 8.57941 13.7955 8.52121 13.8393 8.45046C13.8948 8.35753 13.9164 8.24826 13.9006 8.14118C13.8847 8.03411 13.8323 7.93582 13.7522 7.863V7.863Z" fill="#69A5FF"/>
</g>
<defs>
<clipPath id="clip0">
<rect width="20" height="20" fill="white" transform="translate(0 0.709961)"/>
</clipPath>
</defs>
</svg>
