<svg width="20" height="20" viewBox="0 0 20 20" fill="none" xmlns="http://www.w3.org/2000/svg">
<path d="M15.9602 10.0002C15.5944 10.0002 15.2978 10.2968 15.2978 10.6626V17.2859C15.2978 17.6517 15.0013 17.9482 14.6355 17.9482H2.71356C2.34775 17.9482 2.05121 17.6517 2.05121 17.2859V4.03924C2.05121 3.67343 2.34775 3.3769 2.71356 3.3769H10.6615C11.0273 3.3769 11.3239 3.08036 11.3239 2.71455C11.3239 2.34874 11.0273 2.05225 10.6615 2.05225H2.71356C1.61617 2.05225 0.726562 2.94185 0.726562 4.03924V17.2859C0.726562 18.3832 1.61617 19.2729 2.71356 19.2729H14.6355C15.7329 19.2729 16.6225 18.3832 16.6225 17.2859V10.6625C16.6225 10.2968 16.326 10.0002 15.9602 10.0002Z" fill="#69A5FF"/>
<path d="M18.5299 1.47027C18.0544 0.99463 17.4093 0.727472 16.7367 0.72755C16.0638 0.725609 15.4181 0.993232 14.9438 1.47069L6.21957 10.1942C6.14719 10.2671 6.09259 10.3558 6.05995 10.4532L4.7353 14.4272C4.61969 14.7742 4.80733 15.1493 5.15439 15.2649C5.22172 15.2873 5.29224 15.2987 5.36318 15.2988C5.43428 15.2987 5.50495 15.2873 5.57248 15.2651L9.54647 13.9404C9.64407 13.9078 9.73275 13.8529 9.80543 13.7801L18.5297 5.0559C19.5199 4.06582 19.52 2.46047 18.5299 1.47027Z" fill="#69A5FF"/>
</svg>
