<svg width="20" height="20" viewBox="0 0 20 20" fill="none" xmlns="http://www.w3.org/2000/svg">
<path d="M17.9095 4.4475H16.5853C16.76 4.17106 16.8753 3.86077 16.9081 3.5326C17.0131 2.48383 16.4608 1.54367 15.5205 1.12686C14.6561 0.743725 13.6848 0.900346 12.9854 1.53472L11.3133 3.05013C10.9876 2.69396 10.5195 2.47011 9.99998 2.47011C9.47952 2.47011 9.01065 2.69467 8.68493 3.05194L7.0107 1.53454C6.31014 0.900169 5.33921 0.744151 4.47527 1.12707C3.53518 1.54392 2.98274 2.4844 3.08806 3.53314C3.121 3.86105 3.23619 4.17121 3.41082 4.4475H2.09041C1.43515 4.4475 0.903992 4.97869 0.903992 5.63392V7.41357C0.903992 7.74117 1.16959 8.0068 1.49722 8.0068H18.5028C18.8304 8.0068 19.096 7.7412 19.096 7.41357V5.63392C19.096 4.97869 18.5648 4.4475 17.9095 4.4475ZM8.22033 4.24977V4.4475H5.4296C4.69226 4.4475 4.11196 3.76011 4.29612 2.99242C4.37724 2.65434 4.62127 2.36615 4.93689 2.22026C5.3703 2.01993 5.8504 2.08425 6.21441 2.41373L8.22083 4.23228C8.22072 4.23815 8.22033 4.2439 8.22033 4.24977ZM15.731 3.37509C15.6867 3.99167 15.1298 4.44757 14.5117 4.44757H11.7796V4.24984C11.7796 4.24284 11.7792 4.23591 11.7791 4.22891C12.2336 3.81689 13.2197 2.92321 13.7545 2.43846C14.0584 2.16298 14.4837 2.0344 14.8768 2.15165C15.4409 2.31992 15.7722 2.79967 15.731 3.37509Z" fill="#69A5FF"/>
<path d="M2.09076 9.19302V17.8936C2.09076 18.5488 2.62192 19.08 3.27718 19.08H8.81387V9.19302H2.09076Z" fill="#69A5FF"/>
<path d="M11.1867 9.19302V19.08H16.7234C17.3787 19.08 17.9098 18.5488 17.9098 17.8936V9.19302H11.1867Z" fill="#69A5FF"/>
</svg>
