<svg width="20" height="20" viewBox="0 0 20 20" fill="none" xmlns="http://www.w3.org/2000/svg">
<path d="M10.0001 13.8458C11.0579 13.8458 11.9632 13.4692 12.7164 12.7163C13.4694 11.9635 13.846 11.0577 13.846 9.99998V3.84626C13.846 2.78851 13.4697 1.88316 12.7164 1.1299C11.9632 0.376817 11.0579 0 10.0001 0C8.94241 0 8.03702 0.376817 7.28381 1.1299C6.53056 1.88303 6.15399 2.78851 6.15399 3.84626V9.99998C6.15399 11.0577 6.53072 11.9635 7.28381 12.7163C8.03689 13.4692 8.94241 13.8458 10.0001 13.8458Z" fill="#69A5FF"/>
<path d="M16.6944 7.92058C16.5426 7.76831 16.3619 7.69215 16.1536 7.69215C15.9454 7.69215 15.7652 7.76831 15.6127 7.92058C15.4606 8.0728 15.3845 8.25306 15.3845 8.46132V9.99987C15.3845 11.4823 14.8575 12.7502 13.8038 13.8039C12.7505 14.8576 11.4824 15.3845 9.99988 15.3845C8.51745 15.3845 7.24947 14.8576 6.19572 13.8039C5.1421 12.7505 4.61533 11.4823 4.61533 9.99987V8.46132C4.61533 8.25306 4.53917 8.0728 4.38699 7.92058C4.23472 7.76831 4.05463 7.69215 3.84616 7.69215C3.63769 7.69215 3.45739 7.76831 3.3052 7.92058C3.1529 8.0728 3.07678 8.25306 3.07678 8.46132V9.99987C3.07678 11.7707 3.66783 13.3112 4.8496 14.6212C6.03141 15.9312 7.49174 16.6823 9.23063 16.8745V18.4612H6.15375C5.94541 18.4612 5.76514 18.5375 5.61292 18.6897C5.46065 18.8419 5.3845 19.0222 5.3845 19.2306C5.3845 19.4386 5.46065 19.6192 5.61292 19.7714C5.76514 19.9235 5.94541 19.9999 6.15375 19.9999H13.8458C14.0541 19.9999 14.2346 19.9236 14.3866 19.7714C14.5391 19.6193 14.6153 19.4386 14.6153 19.2306C14.6153 19.0223 14.5391 18.8419 14.3866 18.6897C14.2347 18.5375 14.0541 18.4612 13.8458 18.4612H10.7693V16.8745C12.5079 16.6823 13.9681 15.9312 15.15 14.6212C16.332 13.3112 16.9232 11.7707 16.9232 9.99987V8.46132C16.9232 8.25311 16.8469 8.07297 16.6944 7.92058Z" fill="#69A5FF"/>
</svg>
