<svg width="20" height="20" viewBox="0 0 20 20" fill="none" xmlns="http://www.w3.org/2000/svg">
<path d="M9.99999 1.0248C5.05128 1.0248 1.02478 5.0513 1.02478 10C1.02478 14.9487 5.05128 18.9752 9.99999 18.9752C14.9487 18.9752 18.9752 14.9487 18.9752 10C18.9752 5.0513 14.9487 1.0248 9.99999 1.0248ZM10.5699 3.94062L12.8777 2.69979C14.1555 3.20577 15.2707 4.03486 16.1188 5.08944L15.5691 7.62718L13.8088 8.48992L10.5699 6.13057V3.94062ZM7.14138 2.69306L9.44913 3.93837V6.13057L6.21245 8.48992L4.44321 7.62606L3.89348 5.07261C4.74388 4.02027 5.8613 3.19567 7.14138 2.69306ZM3.52662 14.436C2.79402 13.3702 2.31721 12.117 2.18595 10.7629L4.08533 8.69972L5.81754 9.54676L7.12231 13.2524L6.01948 14.574L3.52662 14.436ZM12.0003 17.5852C11.3597 17.7546 10.6922 17.8533 9.99999 17.8533C9.16305 17.8533 8.35753 17.7187 7.60024 17.4752L6.89457 15.2785L8.01983 13.9267H11.9846L13.0897 15.2348L12.0003 17.5852ZM13.9648 14.5358L12.8799 13.2513L14.2026 9.54676L15.927 8.70196L17.8152 10.764C17.7018 11.9319 17.326 13.0213 16.755 13.985L13.9648 14.5358Z" fill="#69A5FF"/>
</svg>
