<svg width="18" height="18" viewBox="0 0 18 18" fill="none" xmlns="http://www.w3.org/2000/svg">
<path d="M16.1414 1.70061H1.85862C1.33597 1.70061 0.910645 2.12594 0.910645 2.64859V12.0651C0.910645 12.5878 1.33597 13.0131 1.85862 13.0131H16.1414C16.664 13.0131 17.0894 12.5878 17.0894 12.0651V2.64859C17.0894 2.12594 16.664 1.70061 16.1414 1.70061Z" fill="#69A5FF"/>
<path d="M14.0558 15.3514H11.4963V13.9611H6.50366V15.3514H3.94414C3.6825 15.3514 3.47015 15.5638 3.47015 15.8254C3.47015 16.087 3.6825 16.2994 3.94414 16.2994H14.0558C14.3175 16.2994 14.5298 16.087 14.5298 15.8254C14.5298 15.5638 14.3175 15.3514 14.0558 15.3514Z" fill="#69A5FF"/>
</svg>
