<svg width="20" height="20" viewBox="0 0 20 20" fill="none" xmlns="http://www.w3.org/2000/svg">
<path d="M9.88456 9.66399C11.0995 9.66399 12.1515 9.22824 13.0111 8.36851C13.8707 7.50892 14.3065 6.45716 14.3065 5.24208C14.3065 4.02742 13.8707 2.97552 13.011 2.11565C12.1513 1.2562 11.0994 0.820454 9.88456 0.820454C8.66948 0.820454 7.61771 1.2562 6.75812 2.11579C5.89853 2.97538 5.46265 4.02728 5.46265 5.24208C5.46265 6.45716 5.89853 7.50906 6.75826 8.36865C7.61799 9.2281 8.6699 9.66399 9.88456 9.66399V9.66399Z" fill="#69A5FF"/>
<path d="M17.6213 14.9376C17.5965 14.5799 17.5464 14.1897 17.4725 13.7776C17.398 13.3624 17.3021 12.97 17.1872 12.6113C17.0686 12.2405 16.9072 11.8744 16.7078 11.5235C16.5008 11.1593 16.2576 10.8422 15.9848 10.5813C15.6994 10.3083 15.3501 10.0888 14.9462 9.92869C14.5436 9.76944 14.0975 9.68876 13.6203 9.68876C13.4329 9.68876 13.2516 9.76565 12.9016 9.99354C12.6862 10.134 12.4342 10.2965 12.153 10.4762C11.9125 10.6294 11.5867 10.773 11.1842 10.903C10.7916 11.03 10.393 11.0945 9.99956 11.0945C9.60612 11.0945 9.20763 11.03 8.8146 10.903C8.41261 10.7732 8.08681 10.6296 7.8466 10.4764C7.56801 10.2983 7.31588 10.1359 7.09724 9.9934C6.74763 9.76551 6.56625 9.68862 6.37884 9.68862C5.90149 9.68862 5.45552 9.76944 5.05311 9.92883C4.64943 10.0886 4.29997 10.3081 4.01437 10.5814C3.74166 10.8425 3.49836 11.1595 3.29163 11.5235C3.09231 11.8744 2.93095 12.2404 2.81218 12.6114C2.69746 12.9701 2.60152 13.3624 2.527 13.7776C2.45319 14.1891 2.40304 14.5795 2.37825 14.938C2.35388 15.2893 2.34155 15.6539 2.34155 16.0222C2.34155 16.9805 2.6462 17.7563 3.24694 18.3285C3.84027 18.8931 4.62534 19.1795 5.58004 19.1795H14.4199C15.3746 19.1795 16.1594 18.8932 16.7529 18.3285C17.3538 17.7567 17.6584 16.9808 17.6584 16.022C17.6583 15.6521 17.6458 15.2872 17.6213 14.9376V14.9376Z" fill="#69A5FF"/>
</svg>
