<svg width="20" height="20" viewBox="0 0 20 20" fill="none" xmlns="http://www.w3.org/2000/svg">
<path d="M7.53613 1.14462H2.43071C1.72616 1.14462 1.15436 1.71643 1.15436 2.42097V7.52639C1.15436 8.23094 1.72616 8.80275 2.43071 8.80275H7.53613C8.24068 8.80275 8.81249 8.23094 8.81249 7.52639V2.42097C8.81249 1.71643 8.24068 1.14462 7.53613 1.14462Z" fill="#69A5FF"/>
<path d="M7.53589 11.3554H2.43047C1.72592 11.3554 1.15411 11.9272 1.15411 12.6317V17.7371C1.15411 18.4417 1.72592 19.0135 2.43047 19.0135H7.53589C8.24044 19.0135 8.81224 18.4417 8.81224 17.7371V12.6317C8.81224 11.9272 8.24044 11.3554 7.53589 11.3554Z" fill="#69A5FF"/>
<path d="M17.0317 12.4289H13.3578C12.8508 12.4289 12.4393 12.8404 12.4393 13.3474V17.0212C12.4393 17.5282 12.8508 17.9397 13.3578 17.9397H17.0317C17.5387 17.9397 17.9501 17.5282 17.9501 17.0212V13.3474C17.9501 12.8404 17.5387 12.4289 17.0317 12.4289Z" fill="#69A5FF"/>
<path d="M17.7458 1.14453H12.6404C11.9359 1.14453 11.3641 1.71634 11.3641 2.42089V7.52631C11.3641 8.23085 11.9359 8.80266 12.6404 8.80266H17.7458C18.4504 8.80266 19.0222 8.23085 19.0222 7.52631V2.42089C19.0222 1.71634 18.4504 1.14453 17.7458 1.14453Z" fill="#69A5FF"/>
</svg>
