<svg width="20" height="20" viewBox="0 0 20 20" fill="none" xmlns="http://www.w3.org/2000/svg">
<path d="M15.7321 2.76842L6.00009 6.01867C5.76714 6.09645 5.61005 6.31451 5.61005 6.56012V11.8357C5.61005 12.0813 5.76714 12.2994 6.00009 12.3772L15.7321 15.6274C16.1013 15.7508 16.4837 15.4756 16.4837 15.086V3.30988C16.4838 2.92059 16.1017 2.64501 15.7321 2.76842V2.76842Z" fill="#69A5FF"/>
<path d="M17.6243 6.90087V11.4952C19.5565 10.5781 19.5683 7.82363 17.6243 6.90087V6.90087Z" fill="#69A5FF"/>
<path d="M4.46739 11.8359C4.46739 6.15146 4.4295 6.37157 4.5663 5.98642H4.1338C2.36286 5.98642 0.922119 7.42715 0.922119 9.1981C0.922119 10.969 2.36286 12.4098 4.1338 12.4098H4.5663C4.50215 12.2291 4.46739 12.0357 4.46739 11.8359Z" fill="#69A5FF"/>
<path d="M7.22856 13.9919L5.90999 13.5515C3.99216 13.5515 3.96026 13.5616 3.61536 13.5205L4.32532 16.8109C4.38202 17.0738 4.61446 17.2614 4.88334 17.2614H7.22685C7.59163 17.2614 7.86132 16.9244 7.78486 16.5701L7.22856 13.9919Z" fill="#69A5FF"/>
</svg>
