<svg width="25" height="24" viewBox="0 0 25 24" fill="none" xmlns="http://www.w3.org/2000/svg">
<path d="M3.98877 12.6663L9.04922 16.2479C9.3275 16.4449 9.71486 16.3806 9.91341 16.1L11.3461 14.0759C11.5439 13.7964 11.4777 13.4095 11.1982 13.2117L10.919 13.0141C12.4162 11.831 13.8648 9.75809 14.4924 7.94779L14.7798 8.15122C15.0592 8.34895 15.4462 8.28282 15.644 8.00334L17.0767 5.97915C17.2743 5.69988 17.2083 5.31273 16.9288 5.11496L11.8683 1.53342C11.5888 1.33561 11.2019 1.40178 11.0041 1.6813L9.57144 3.70545C9.37375 3.98476 9.43988 4.37187 9.71932 4.56964L10.0072 4.7734C8.48249 5.98849 7.02462 8.05454 6.41738 9.82798L6.1377 9.63004C5.85826 9.43227 5.47132 9.4984 5.27351 9.77792L3.84085 11.8021C3.6432 12.0814 3.70929 12.4685 3.98877 12.6663Z" fill="white"/>
<path d="M21.6551 14.5354L15.018 9.83789C14.4605 10.9087 13.7053 11.985 12.8758 12.879L19.5061 17.5716C20.3456 18.1659 21.505 17.9669 22.0987 17.128C22.6926 16.289 22.4942 15.1293 21.6551 14.5354Z" fill="white"/>
<path d="M15.5787 18.861H14.9587C14.6169 18.861 14.3388 18.5829 14.3388 18.2411C14.3388 17.8987 14.0612 17.6211 13.7188 17.6211H5.03929C4.6969 17.6211 4.41932 17.8987 4.41932 18.2411C4.41932 18.5829 4.14121 18.861 3.79936 18.861H3.17939C2.83701 18.861 2.55943 19.1386 2.55943 19.481V21.9608C2.55943 22.3032 2.83701 22.5808 3.17939 22.5808H15.5787C15.9211 22.5808 16.1987 22.3032 16.1987 21.9608V19.481C16.1987 19.1386 15.9211 18.861 15.5787 18.861Z" fill="white"/>
</svg>
