<svg width="24" height="24" viewBox="0 0 24 24" fill="none" xmlns="http://www.w3.org/2000/svg">
<path d="M16.0127 6.68201H19.4809C20.3121 6.68201 21 7.35565 21 8.23431V13.5649H12.7452V7.35565C12.4586 7.26778 12.2006 7.15063 12.0287 6.9749C12 6.9749 12 6.94561 11.9713 6.94561C11.9713 6.94561 11.9713 6.9749 11.9427 6.9749C11.742 7.15063 11.5127 7.26778 11.2548 7.35565V13.5649H3V8.23431C3 7.35565 3.65924 6.68201 4.49045 6.68201H7.98726C7.58599 6.47699 7.21338 6.1841 6.89809 5.9205C5.52229 4.57322 5.26433 2.69874 6.3535 1.64435C6.8121 1.23431 7.41401 1 8.07325 1C9.01911 1 9.99363 1.38075 10.8248 2.17155C11.2834 2.61088 11.7134 3.22594 11.9713 3.81172C12.258 3.22594 12.6879 2.61088 13.1465 2.17155C13.949 1.38075 14.9809 1 15.8981 1C16.586 1 17.1879 1.23431 17.6178 1.64435C18.707 2.69874 18.449 4.57322 17.0446 5.9205C16.758 6.1841 16.3854 6.47699 16.0127 6.68201ZM10.9108 5.83264C11.0255 5.56904 10.7389 4.22176 9.79299 3.31381C9.30573 2.84519 8.6465 2.58159 8.07325 2.58159C7.90127 2.58159 7.61465 2.61088 7.41401 2.78661C7.35669 2.84519 7.18471 2.96234 7.18471 3.28452C7.18471 3.66527 7.41401 4.25105 7.9586 4.74895C8.6465 5.42259 9.73567 5.89121 10.5382 5.89121C10.7962 5.89121 10.9108 5.83264 10.9108 5.83264ZM13.0892 5.83264C13.0892 5.83264 13.2325 5.89121 13.4618 5.89121C14.2643 5.89121 15.3535 5.42259 16.0414 4.74895C16.586 4.25105 16.758 3.66527 16.758 3.28452C16.758 2.96234 16.6146 2.84519 16.586 2.78661C16.3854 2.61088 16.0701 2.58159 15.8981 2.58159C15.3535 2.58159 14.6656 2.84519 14.1783 3.31381C13.2611 4.22176 12.9459 5.53975 13.0892 5.86192V5.83264ZM11.2548 22H4.49045C3.65924 22 3 21.3264 3 20.477V15.1172H11.2548V22ZM19.4809 22H12.7452V15.1172H21V20.477C21 21.3264 20.3121 22 19.4809 22Z" fill="white"/>
</svg>
