<svg width="15" height="13" viewBox="0 0 15 13" fill="none" xmlns="http://www.w3.org/2000/svg">
<path d="M2.68909 12.312L2.66549 12.3219L11.4357 6.18088L10.6134 10.8745C10.5729 11.1039 10.6268 11.3385 10.7611 11.5303C10.8954 11.7221 11.0965 11.8517 11.3262 11.8924L12.0557 12.0212C12.2851 12.0617 12.5171 12.0104 12.7088 11.8762C12.9006 11.7419 13.0286 11.5419 13.069 11.3125L14.4862 3.27761C14.5268 3.04735 14.4745 2.8151 14.3396 2.62356C14.205 2.43021 14.0046 2.30156 13.7745 2.26117L5.73912 0.844332C5.50984 0.803997 5.27814 0.855704 5.08624 0.990079C4.89454 1.12431 4.76679 1.32444 4.72619 1.55359L4.59773 2.28318C4.55704 2.5124 4.60892 2.74413 4.74322 2.93593C4.87745 3.12762 5.07081 3.24615 5.3002 3.28641L10.0339 4.11269L1.24324 10.268C0.848232 10.5446 0.754693 11.1174 1.03113 11.5122L1.45619 12.1193C1.73263 12.5141 2.29408 12.5886 2.68909 12.312Z" fill="#69A5FF"/>
</svg>
