<svg width="125" height="19" viewBox="0 0 125 19" fill="none" xmlns="http://www.w3.org/2000/svg">
<path fill-rule="evenodd" clip-rule="evenodd" d="M34.3833 9.08873C33.7271 16.5581 43.0338 12.7523 43.6024 12.632C43.8212 14.1412 44.0289 15.6504 44.2477 17.1596C43.9743 17.2471 29.0027 23.4698 28.598 9.24184C28.598 9.06686 28.5652 8.90281 28.5871 8.73877C30.6212 -3.01758 44.1274 0.481985 44.4008 0.503857C44.1821 2.12241 43.9743 3.74095 43.7555 5.3595C43.2087 5.18453 34.9957 2.00211 34.3833 9.08873ZM55.2276 5.19546L52.7997 18.297C51.0281 18.297 47.4738 18.297 47.4738 18.297L50.0548 5.19546C50.0548 5.19546 47.1457 5.19546 45.6912 5.19546C45.9646 3.52223 46.2271 1.849 46.5005 0.18671C51.0171 0.18671 55.5447 0.18671 60.0613 0.18671C59.7879 1.85994 59.5255 3.53317 59.2521 5.19546C57.9288 5.19546 56.5727 5.19546 55.2276 5.19546ZM64.1077 15.6723L65.8794 12.304L67.9682 13.4304L67.3229 6.36563C67.3229 6.36563 61.5924 17.3236 61.0456 17.6517C59.8645 18.4391 57.382 18.3298 55.3916 18.297L65.3872 0.18671H71.0522C71.9161 6.22346 72.7801 12.2602 73.6331 18.297C72.1239 18.297 69.2368 18.297 69.2368 18.297L64.1077 15.6723ZM86.1222 4.26589C84.6677 4.26589 83.3335 4.22215 81.879 4.22215C81.7149 5.25014 81.3978 7.13116 81.3978 7.13116C81.3978 7.13116 82.0977 7.13116 83.1694 7.13116C84.7989 7.13116 86.6143 7.52486 87.0846 6.03755C87.4783 4.75802 86.2534 4.2987 86.1222 4.26589ZM80.1073 13.9225H83.9349C83.9349 13.9225 85.7503 13.9116 86.1222 12.4571C86.5706 10.7073 84.9958 10.6963 84.9958 10.6963H80.4901L80.1073 13.9225ZM91.5793 13.4194C90.1795 18.4173 85.6301 18.2313 85.6301 18.2313C85.6301 18.2313 76.8921 18.297 74.7705 18.286C75.8422 12.304 76.9249 6.32189 77.9966 0.328878L86.1112 0.0882816C86.1112 0.0882816 90.8028 0.339814 91.7324 4.26589C92.4105 7.15303 89.8077 8.92469 89.8077 8.92469C89.8077 8.92469 92.3448 10.6745 91.5793 13.4194ZM119.86 18.2423L115.683 15.5082L117.29 12.1399L119.379 13.2663L118.734 6.36563C118.734 6.36563 118.417 6.26721 118.417 6.36563C118.406 6.46406 112.467 18.2423 112.467 18.2423L102.548 18.297L99.3221 11.1775H99.1581C99.1581 11.1775 98.2941 15.9238 97.8676 18.297C96.0959 18.297 94.3134 18.297 92.5417 18.297C92.5417 18.2423 96.0959 0.18671 96.0959 0.18671H101.269L100.142 6.16878H100.306C100.306 6.16878 104.178 2.17709 106.124 0.18671C108.224 0.18671 110.324 0.18671 112.424 0.18671L103.817 9.08873L107.721 16.8425L116.645 0.416366H122.266L125 18.2313H119.86V18.2423Z" fill="#4878FE"/>
<path fill-rule="evenodd" clip-rule="evenodd" d="M15.3434 6.96982C15.2231 7.0245 10.9799 0.178471 10.9799 0.178471C12.6531 -0.0402521 16.1855 -0.0949329 17.2791 0.342513C17.2791 0.397194 19.4445 1.30489 19.86 2.27821C19.9147 2.38757 19.9694 2.43131 19.7616 2.66097C18.3071 4.1811 16.7979 5.46063 15.3434 6.96982ZM29.5604 18.0809C29.5604 18.0809 25.4484 18.6715 22.6488 17.4357C21.238 16.8123 18.9523 12.9409 18.9523 12.9409L13.878 18.2997C9.78785 18.2997 1.60761 18.2997 1.60761 18.2997L3.53238 7.33071C3.53238 7.33071 1.23578 8.38058 0 8.92739C0 7.36352 0 5.79965 0 4.23578C0.164042 4.1811 6.0805 0.298769 6.13518 0.189408C7.535 0.189408 10.3347 0.189408 10.3347 0.189408C10.3347 0.189408 7.535 15.6859 7.42564 16.692C7.48032 16.692 7.535 16.692 7.58968 16.692C13.0249 11.1912 18.4602 5.69029 23.8955 0.189408C26.3124 0.189408 31.4852 0.189408 31.4852 0.189408L23.1299 8.45713L29.5604 18.0809Z" fill="white"/>
</svg>
