<svg width="40" height="40" viewBox="0 0 40 40" fill="none" xmlns="http://www.w3.org/2000/svg">
<path fill-rule="evenodd" clip-rule="evenodd" d="M29.6774 22.5806H40V23.871H23.7554L24.0341 23.0239C24.3044 22.2033 24.4547 21.3483 24.4975 20.4795C23.6498 21.0046 22.6755 21.2903 21.6516 21.2903C19.6736 21.2903 18.0645 19.6806 18.0645 17.7032C18.0645 16.9342 17.6821 16.2194 17.042 15.7929L15.791 14.9587C14.7908 14.2921 14.1935 13.176 14.1935 11.9742C14.1935 11.3968 14.34 10.8373 14.604 10.3355C13.451 10.3632 12.3491 10.5935 11.3291 10.9923L12.2962 12.4427C12.6934 13.0387 12.9032 13.7324 12.9032 14.4484V15.4839C12.9032 16.1955 13.4819 16.7742 14.1935 16.7742C15.6168 16.7742 16.7742 17.9316 16.7742 19.3548C16.7742 20.7781 15.6168 21.9355 14.1935 21.9355H10.769C9.44903 21.9355 8.2781 21.1432 7.78824 19.9168C7.49559 19.1832 6.79561 18.7097 6.00523 18.7097C5.75794 18.7097 5.51285 18.6794 5.27092 18.624C5.20634 19.0742 5.16129 19.5316 5.16129 20C5.16129 21.6548 5.57995 23.2135 6.31615 24.5776C6.74836 24.2342 7.21176 23.9497 7.70571 23.7374C8.49798 23.3981 9.33688 23.2258 10.1988 23.2258H12.7511C14.2852 23.2258 15.6637 24.0779 16.3489 25.4495C16.6264 26.0059 16.7736 26.6283 16.7736 27.2489V29.4761C17.1412 29.4011 17.5057 29.3129 17.8626 29.1954L18.2658 30.4212C17.1632 30.7838 16.0096 30.9677 14.8387 30.9677C8.79095 30.9677 3.87097 26.0478 3.87097 20C3.87097 13.9522 8.79095 9.03226 14.8387 9.03226C20.8865 9.03226 25.8064 13.9522 25.8064 20C25.8064 20.8748 25.7038 21.7399 25.5006 22.5806H28.3871V18.5682L26.9626 18.2129L26.8882 17.8034C26.5742 16.0723 25.9104 14.4664 24.9149 13.0302L24.678 12.6878L25.4309 11.433L23.4057 9.40776L22.151 10.1607L21.8092 9.92313C20.373 8.92767 18.7676 8.26329 17.036 7.94953L16.6264 7.8755L16.2705 6.45161H13.4063L13.0503 7.87487L12.6405 7.9489C10.9098 8.26329 9.30443 8.92704 7.86763 9.9225L7.52583 10.16L6.27111 9.40713L4.24584 11.4324L4.99874 12.6871L4.76184 13.0295C3.76638 14.4657 3.102 16.0717 2.78824 17.8027L2.71421 18.2123L1.29032 18.5682V21.4318L2.71421 21.7877L2.78824 22.1973C3.10263 23.9283 3.76638 25.5343 4.76184 26.9704L4.99874 27.3129L4.24584 28.5676L6.27111 30.5922L7.52583 29.8393L7.86763 30.0769C9.30381 31.0723 10.9091 31.7367 12.6405 32.0505L13.0503 32.1245L13.4063 33.5484H16.3089L16.9541 31.6129H40V32.9032H17.884L17.2388 34.8387H15.6644L16.6327 38.7097H18.0645V36.129H19.3548V38.7097H20.6452V34.8387H21.9355V38.7097H23.2258V37.4194H24.5161V38.7097H25.8064V36.129H27.0968V38.7097H28.3871V40H15.6253L14.3356 34.8387H12.4001L11.9994 33.2387C10.3799 32.8941 8.86372 32.2678 7.48204 31.371L6.07044 32.2174L2.62128 28.7676L3.46774 27.3573C2.57088 25.9756 1.94399 24.4588 1.59936 22.8393L0 22.4392V17.5608L1.59936 17.1614C1.94462 15.5418 2.57088 14.025 3.46774 12.6433L2.62128 11.2324L6.07044 7.78257L7.48204 8.62903C8.86372 7.73217 10.3799 7.10591 11.9994 6.76128L12.4001 5.16129H17.2773L17.678 6.76128C18.4309 6.92131 19.1586 7.14844 19.8633 7.42912L22.2354 3.87097H23.2258V2.58065H24.5161V3.87097H25.8064V0H27.0968V3.87097H28.3871V1.29032H29.6774V3.87097H30.9677V0H32.2581V3.87097H33.5484V5.16129H22.9259L21.0534 7.96906C21.4431 8.17036 21.8252 8.38773 22.1954 8.6284L23.607 7.78194L27.0561 11.2317L26.2097 12.6427C27.1065 14.0244 27.7334 15.5412 28.0781 17.1607L29.6774 17.5608V22.5806ZM10.1988 24.5161C9.51235 24.5161 8.84451 24.6528 8.21352 24.9231C7.78635 25.1065 7.38376 25.3575 7.01172 25.6685C8.77174 28.0922 11.6201 29.6774 14.8387 29.6774C15.0548 29.6774 15.2697 29.6664 15.4839 29.6522V27.2489C15.4839 26.8271 15.3846 26.4044 15.1956 26.0263C14.7297 25.0948 13.7928 24.5161 12.7511 24.5161H10.1988ZM11.6129 14.4484C11.6129 13.9878 11.4781 13.5411 11.2226 13.1581L10.1465 11.5433C7.92528 12.7807 6.24527 14.8671 5.53679 17.3614C5.69241 17.3995 5.84898 17.4194 6.00523 17.4194C7.32516 17.4194 8.49609 18.2116 8.98595 19.438C9.2786 20.1717 9.97858 20.6452 10.769 20.6452H14.1935C14.9052 20.6452 15.4839 20.0665 15.4839 19.3548C15.4839 18.6432 14.9052 18.0645 14.1935 18.0645C12.7703 18.0645 11.6129 16.9071 11.6129 15.4839V14.4484ZM17.7574 14.7187C18.7576 15.3853 19.3548 16.5014 19.3548 17.7032C19.3548 18.9696 20.3853 20 21.6516 20C22.6994 20 23.6813 19.611 24.4497 18.9053C23.9516 14.5083 20.4968 11.004 16.1265 10.4187C15.722 10.8452 15.4839 11.3943 15.4839 11.9742C15.4839 12.7432 15.8663 13.458 16.5064 13.8845L17.7574 14.7187ZM22.5806 22.5807H18.0645V23.871H22.5806V22.5807Z" fill="#69A5FF"/>
<path d="M19.355 25.1614H20.6453V30.3227H19.355V25.1614Z" fill="white"/>
<path d="M23.2259 30.3227H24.5162C25.2278 30.3227 25.8065 29.744 25.8065 29.0323V26.4517C25.8065 25.7401 25.2278 25.1614 24.5162 25.1614H23.2259C22.5142 25.1614 21.9355 25.7401 21.9355 26.4517V29.0323C21.9355 29.744 22.5142 30.3227 23.2259 30.3227ZM23.2259 26.4517H24.5162L24.5168 29.0323H23.2259V26.4517Z" fill="white"/>
<path d="M27.0967 25.1614H28.387V30.3227H27.0967V25.1614Z" fill="white"/>
<path d="M30.9676 25.1614C30.2559 25.1614 29.6772 25.7401 29.6772 26.4517V29.0323C29.6772 29.744 30.2559 30.3227 30.9676 30.3227H32.2579C32.9695 30.3227 33.5482 29.744 33.5482 29.0323V26.4517C33.5482 25.7401 32.9695 25.1614 32.2579 25.1614H30.9676ZM30.9676 29.0323V26.4517H32.2579L32.2585 29.0323H30.9676Z" fill="white"/>
<path d="M34.8389 25.1614H36.1292V30.3227H34.8389V25.1614Z" fill="white"/>
<path d="M37.4194 25.1614H38.7098V30.3227H37.4194V25.1614Z" fill="white"/>
</svg>
