<svg width="20" height="20" viewBox="0 0 20 20" fill="none" xmlns="http://www.w3.org/2000/svg">
<path fill-rule="evenodd" clip-rule="evenodd" d="M12.3775 9.99956L19.5082 2.86882C20.1646 2.21242 20.1646 1.1482 19.5082 0.491901C18.8518 -0.164493 17.7877 -0.164493 17.1313 0.491901L10.0005 7.62274L2.86963 0.491807C2.21323 -0.164587 1.14911 -0.164587 0.492713 0.491807C-0.163587 1.1482 -0.163587 2.21242 0.492713 2.86872L7.62355 9.99946L0.492713 17.1303C-0.163587 17.7867 -0.163587 18.8509 0.492713 19.5072C1.14911 20.1636 2.21323 20.1636 2.86963 19.5072L10.0005 12.3764L17.1313 19.5072C17.7876 20.1636 18.8518 20.1636 19.5082 19.5072C20.1646 18.8508 20.1646 17.7867 19.5082 17.1303L12.3775 9.99956Z" fill="#838FC0"/>
</svg>
