<svg width="40" height="40" viewBox="0 0 40 40" fill="none" xmlns="http://www.w3.org/2000/svg">
<path d="M37.7778 36.1904C36.7278 36.1904 35.873 37.0452 35.873 38.0952C35.873 39.1452 36.7278 40 37.7778 40C38.8278 40 39.6826 39.1452 39.6826 38.0952C39.6826 37.0452 38.8278 36.1904 37.7778 36.1904ZM37.7778 38.7301C37.4281 38.7301 37.1429 38.4455 37.1429 38.0952C37.1429 37.7449 37.4281 37.4603 37.7778 37.4603C38.1275 37.4603 38.4127 37.7449 38.4127 38.0952C38.4127 38.4455 38.1275 38.7301 37.7778 38.7301Z" fill="white"/>
<path d="M4.12691 1.90476C4.12691 0.854725 3.27218 0 2.22214 0C1.17211 0 0.317383 0.854725 0.317383 1.90476C0.317383 2.9548 1.17211 3.80952 2.22214 3.80952C3.27218 3.80952 4.12691 2.9548 4.12691 1.90476ZM1.58722 1.90476C1.58722 1.55506 1.87244 1.26984 2.22214 1.26984C2.57185 1.26984 2.85707 1.55506 2.85707 1.90476C2.85707 2.25446 2.57185 2.53968 2.22214 2.53968C1.87244 2.53968 1.58722 2.25446 1.58722 1.90476Z" fill="white"/>
<path d="M1.5874 5.71436H2.85724V6.9842H1.5874V5.71436Z" fill="white"/>
<path d="M1.5874 8.88892H2.85724V10.1588H1.5874V8.88892Z" fill="white"/>
<path d="M1.5874 12.0635H2.85724V13.3333H1.5874V12.0635Z" fill="white"/>
<path d="M37.1428 26.6667H38.4127V27.9366H37.1428V26.6667Z" fill="white"/>
<path d="M37.1428 29.8413H38.4127V31.1111H37.1428V29.8413Z" fill="white"/>
<path d="M37.1428 33.0159H38.4127V34.2857H37.1428V33.0159Z" fill="white"/>
<path d="M34.4263 25.1611L33.1722 22.6533C33.4382 22.1136 33.6661 21.5682 33.8534 21.0254L36.5081 20.1403V12.8753L33.8534 11.9902C33.6667 11.4473 33.4382 10.902 33.1722 10.3623L34.4275 7.85203L29.2908 2.71531L26.7806 3.97058C26.2408 3.70458 25.6955 3.4761 25.1527 3.28947L24.2675 0.634766H17.0025L16.1174 3.28947C15.5746 3.4761 15.0293 3.70458 14.4895 3.97058L11.9793 2.71531L6.84257 7.85203L8.09784 10.3623C7.83184 10.902 7.60336 11.4473 7.41673 11.9902L4.76203 12.8753V20.1397L7.41673 21.0245C7.60212 21.5636 7.8275 22.1039 8.09102 22.6394L7.27443 24.1268H3.49219V36.8252H7.93663V34.9205H12.7531L14.6579 36.8252H18.0954V37.4602C18.0954 38.8608 19.2344 39.9998 20.635 39.9998C22.0357 39.9998 23.1747 38.8608 23.1747 37.4602V36.8252H27.6198C28.6698 36.8252 29.5245 35.9705 29.5245 34.9205C29.5245 34.431 29.3336 33.9886 29.0294 33.6506C29.3342 33.3127 29.5245 32.8703 29.5245 32.3808C29.5245 31.8913 29.3336 31.4489 29.0294 31.111C29.2719 30.8419 29.4374 30.5058 29.4954 30.1313L34.4263 25.1611ZM9.37233 22.3579C9.02294 21.687 8.73803 21.0049 8.52505 20.3319L8.42739 20.0234L6.03187 19.2245V13.7905L8.42739 12.9922L8.52443 12.6831C8.73648 12.0106 9.0217 11.3286 9.3714 10.6577L9.52083 10.37L8.3874 8.10283L12.2295 4.26076L14.4966 5.39419L14.7843 5.24507C15.4559 4.89506 16.1373 4.61015 16.8097 4.39779L17.1188 4.30075L17.9183 1.90461H23.3524L24.1507 4.30013L24.4598 4.39717C25.1322 4.60922 25.8142 4.89444 26.4851 5.24414L26.7728 5.39357L29.04 4.26014L32.8821 8.10221L31.7486 10.3694L31.8978 10.6571C32.2478 11.3286 32.5327 12.01 32.745 12.6824L32.8421 12.9915L35.2382 13.7911V19.2251L32.8427 20.0234L32.745 20.3319C32.5321 21.0049 32.2471 21.687 31.8978 22.3579L31.7486 22.6456L32.8833 24.9143L29.1314 28.695C29.0992 28.6525 29.0648 28.6106 29.0294 28.5713C29.3342 28.2334 29.5245 27.791 29.5245 27.3014C29.5245 26.3109 28.7619 25.5046 27.7949 25.4143C30.4884 23.2557 32.0636 20.0163 32.0636 16.5078C32.0636 10.2063 26.9365 5.07921 20.635 5.07921C14.3336 5.07921 9.20647 10.2063 9.20647 16.5078C9.20647 19.9738 10.7823 23.2343 13.4572 25.3967H8.02623L9.52889 22.6589L9.37233 22.3579ZM28.2547 32.3808C28.2547 32.7311 27.9695 33.0157 27.6198 33.0157H22.5398C22.1901 33.0157 21.9049 32.7311 21.9049 32.3808C21.9049 32.0305 22.1901 31.7459 22.5398 31.7459H27.6198C27.9695 31.7459 28.2547 32.0305 28.2547 32.3808ZM19.1023 16.5078H22.1678L23.1747 15.5008V12.6983C23.8751 12.6983 24.4446 13.2678 24.4446 13.9681V16.8798L22.2769 19.0475H18.9932L16.8255 16.8798V13.9681C16.8255 13.2678 17.395 12.6983 18.0954 12.6983V15.5008L19.1023 16.5078ZM19.3652 20.3173H21.9049V22.857H19.3652V20.3173ZM23.1747 19.9453L25.7144 17.4056V13.9681C25.7144 12.5674 24.5754 11.4284 23.1747 11.4284H21.9049V14.975L21.642 15.2379H19.6281L19.3652 14.975V11.4284H18.0954C16.6947 11.4284 15.5557 12.5674 15.5557 13.9681V17.4056L18.0954 19.9453V22.857H16.5626L16.5226 22.897C14.355 21.4982 13.016 19.1002 13.016 16.5078C13.016 12.3064 16.4337 8.88873 20.635 8.88873C24.8364 8.88873 28.2541 12.3064 28.2541 16.5078C28.2541 19.0813 26.9684 21.438 24.8166 22.857H23.1747V19.9453ZM29.5239 16.5078C29.5239 11.6061 25.5368 7.61889 20.635 7.61889C15.7333 7.61889 11.7462 11.6061 11.7462 16.5078C11.7462 19.4406 13.2051 22.1712 15.5982 23.8215L14.6839 24.7357C12.0472 22.826 10.4763 19.7695 10.4763 16.5078C10.4763 10.9067 15.0339 6.34905 20.635 6.34905C26.2362 6.34905 30.7938 10.9067 30.7938 16.5078C30.7938 19.6455 29.3754 22.5408 26.9539 24.4601C26.8813 24.01 26.6516 23.6162 26.3214 23.3301C28.3449 21.6501 29.5239 19.1764 29.5239 16.5078ZM27.6198 26.6665C27.9695 26.6665 28.2547 26.9511 28.2547 27.3014C28.2547 27.6518 27.9695 27.9364 27.6198 27.9364H22.5398C22.1901 27.9364 21.9049 27.6518 21.9049 27.3014C21.9049 26.9511 22.1901 26.6665 22.5398 26.6665H27.6198ZM22.5398 30.476C22.1901 30.476 21.9049 30.1914 21.9049 29.8411C21.9049 29.4908 22.1901 29.2062 22.5398 29.2062H27.6198C27.9695 29.2062 28.2547 29.4908 28.2547 29.8411C28.2547 30.1914 27.9695 30.476 27.6198 30.476H22.5398ZM6.66679 35.5554H4.76203V25.3967H6.66679V35.5554ZM15.1837 35.5554L13.2789 33.6506H7.93663V26.6665H14.5487L17.0884 24.1268H25.0795C25.4292 24.1268 25.7144 24.4114 25.7144 24.7617C25.7144 25.1121 25.4292 25.3967 25.0795 25.3967H18.4674L15.7417 28.1224L16.6395 29.0202L18.0954 27.5643V35.5554H15.1837ZM20.635 38.73C19.9347 38.73 19.3652 38.1605 19.3652 37.4602V26.6665H20.7519C20.6806 26.8659 20.635 27.0779 20.635 27.3014C20.635 27.791 20.826 28.2334 21.1301 28.5713C20.8254 28.9092 20.635 29.3516 20.635 29.8411C20.635 30.3306 20.826 30.773 21.1301 31.111C20.8254 31.4489 20.635 31.8913 20.635 32.3808C20.635 32.8703 20.826 33.3127 21.1301 33.6506C20.8254 33.9886 20.635 34.431 20.635 34.9205C20.635 35.747 21.1677 36.4455 21.9049 36.7084V37.4602C21.9049 38.1605 21.3354 38.73 20.635 38.73ZM27.6198 35.5554H22.5398C22.1901 35.5554 21.9049 35.2708 21.9049 34.9205C21.9049 34.5702 22.1901 34.2856 22.5398 34.2856H27.6198C27.9695 34.2856 28.2547 34.5702 28.2547 34.9205C28.2547 35.2708 27.9695 35.5554 27.6198 35.5554Z" fill="#69A5FF"/>
</svg>
