<svg width="178" height="44" viewBox="0 0 178 44" fill="none" xmlns="http://www.w3.org/2000/svg">
<path d="M19.9609 37.0123C28.3408 37.0123 35.1342 30.1637 35.1342 21.7154C35.1342 13.2671 28.3408 6.41846 19.9609 6.41846C11.5809 6.41846 4.7876 13.2671 4.7876 21.7154C4.7876 30.1637 11.5809 37.0123 19.9609 37.0123Z" fill="#69A5FF"/>
<path d="M29.5963 4.18389C28.9649 4.18389 28.3269 4.18389 27.6955 4.18389C26.1631 4.18389 24.6306 4.18389 23.0982 4.18389C21.2303 4.18389 19.3624 4.18389 17.4945 4.18389C15.8831 4.18389 14.2783 4.18389 12.6669 4.18389C11.8842 4.18389 11.1016 4.164 10.3255 4.18389C10.3124 4.18389 10.3058 4.18389 10.2926 4.18389C10.069 4.18389 9.85196 4.30987 9.74011 4.50216C9.41791 5.06578 9.09563 5.62938 8.77335 6.19299C7.99722 7.54564 7.22114 8.89827 6.45162 10.251C5.51767 11.8821 4.58373 13.5133 3.64979 15.151C2.84738 16.5501 2.04498 17.9492 1.24259 19.3548C0.861118 20.0246 0.446759 20.681 0.091598 21.364C-0.105713 21.7353 0.0521358 21.9872 0.223139 22.2922C0.420451 22.6371 0.617763 22.9818 0.815075 23.3333C1.54513 24.6064 2.27518 25.8861 3.00523 27.1591C3.9326 28.7837 4.86655 30.4082 5.79391 32.0327C6.6292 33.4914 7.46448 34.9568 8.30634 36.4156C8.76676 37.2179 9.22057 38.0136 9.68098 38.8159C9.70066 38.8557 9.72702 38.8888 9.7467 38.9286C9.85855 39.1276 10.0756 39.2469 10.2992 39.2469C10.9437 39.2469 11.5883 39.2469 12.2329 39.2469C13.7653 39.2469 15.2977 39.2469 16.8302 39.2469C18.6981 39.2469 20.566 39.2469 22.4339 39.2469C24.0452 39.2469 25.6501 39.2469 27.2614 39.2469C28.0441 39.2469 28.8268 39.2668 29.6029 39.2469C29.616 39.2469 29.6226 39.2469 29.6357 39.2469C29.8593 39.2469 30.0764 39.1209 30.1882 38.9286C30.5105 38.365 30.8328 37.8014 31.1551 37.2378C31.9311 35.8851 32.7072 34.5325 33.4768 33.1798C34.4107 31.5487 35.3446 29.9175 36.2785 28.2798C37.081 26.8806 37.8834 25.4816 38.6858 24.0759C39.0672 23.4062 39.4816 22.7497 39.8367 22.0668C40.0341 21.6955 39.8762 21.4435 39.7052 21.1386C39.508 20.7937 39.3106 20.449 39.1133 20.0975C38.3832 18.8244 37.6532 17.5447 36.9231 16.2716C35.9958 14.6471 35.0618 13.0225 34.1345 11.3981C33.2992 9.93935 32.4639 8.47394 31.622 7.01518C31.1616 6.21287 30.7078 5.4172 30.2474 4.61488C30.2277 4.5751 30.2014 4.54195 30.1816 4.50216C30.1356 4.4226 30.0698 4.35629 29.9975 4.30325C29.9054 4.23694 29.7936 4.19052 29.6687 4.18389C29.6621 4.18389 29.6555 4.18389 29.6423 4.18389C29.6357 4.18389 29.6291 4.18389 29.6226 4.18389C29.616 4.18389 29.616 4.18389 29.6094 4.18389C29.6094 4.18389 29.6029 4.18389 29.5963 4.18389ZM32.3455 10.8742C33.2728 12.4988 34.2002 14.1167 35.1342 15.7411C35.9432 17.1469 36.7455 18.5526 37.5545 19.9649C37.89 20.5484 38.2057 21.1518 38.5542 21.7287C38.2977 22.1729 38.0413 22.6238 37.7847 23.0681C37.0152 24.4141 36.2457 25.7601 35.4762 27.1062C34.5488 28.7306 33.6215 30.3485 32.6875 31.973C31.8785 33.3788 31.0761 34.7844 30.2672 36.1968C29.9317 36.7803 29.57 37.3638 29.2477 37.9539C28.7347 37.9539 28.2151 37.9539 27.7021 37.9539C26.1697 37.9539 24.6372 37.9539 23.1047 37.9539C21.2369 37.9539 19.369 37.9539 17.5011 37.9539C15.8897 37.9539 14.2849 37.9539 12.6735 37.9539C12.0027 37.9539 11.3318 37.9274 10.6609 37.9406C10.4044 37.4897 10.1479 37.0389 9.89141 36.5946C9.1219 35.2486 8.35239 33.9025 7.58287 32.5566C6.65551 30.932 5.72813 29.3141 4.7942 27.6896C3.98521 26.2839 3.18282 24.8782 2.37384 23.4659C2.03841 22.8824 1.72271 22.279 1.37413 21.7021C1.63063 21.2579 1.88713 20.807 2.14364 20.3627C2.91316 19.0167 3.68267 17.6707 4.45219 16.3247C5.37955 14.7001 6.30692 13.0822 7.24086 11.4578C8.04984 10.052 8.85225 8.64635 9.66121 7.234C9.99667 6.6505 10.3584 6.067 10.6807 5.47687C11.1936 5.47687 11.7133 5.47687 12.2263 5.47687C13.7587 5.47687 15.2911 5.47687 16.8237 5.47687C18.6915 5.47687 20.5594 5.47687 22.4273 5.47687C24.0386 5.47687 25.6435 5.47687 27.2549 5.47687C27.9257 5.47687 28.5966 5.49014 29.2674 5.4835C29.524 5.93439 29.787 6.38528 30.0435 6.83616C30.8065 8.18882 31.576 9.5348 32.3455 10.8742Z" fill="#69A5FF"/>
<path d="M23.2495 28.167C23.2495 28.1604 23.256 28.1538 23.256 28.1472C23.256 28.1604 23.256 28.1604 23.2495 28.167Z" fill="white"/>
<path d="M23.2956 23.5323C23.2758 23.5123 23.2561 23.499 23.2495 23.4858C23.2627 23.519 23.289 23.5323 23.2956 23.5323Z" fill="white"/>
<path d="M2.39361 25.959H8.39189H11.0425C11.0951 26.0319 11.1806 26.0849 11.2793 26.0849C11.4371 26.0849 11.5686 25.9523 11.5686 25.7932C11.5686 25.6341 11.4371 25.5015 11.2793 25.5015C11.1806 25.5015 11.0885 25.5545 11.0359 25.6341H5.74791H2.40018C2.34757 25.5545 2.26207 25.5015 2.16342 25.5015C2.00556 25.5015 1.87402 25.6341 1.87402 25.7932C1.87402 25.9523 2.00556 26.0849 2.16342 26.0849C2.25549 26.0849 2.341 26.0319 2.39361 25.959Z" fill="white"/>
<path d="M29.4316 24.9778C29.379 24.8982 29.2869 24.8452 29.1883 24.8452C29.0305 24.8452 28.8989 24.9778 28.8989 25.1369C28.8989 25.2961 29.0305 25.4287 29.1883 25.4287C29.2869 25.4287 29.3725 25.3823 29.4251 25.3027H32.069H38.0674C38.1199 25.3823 38.2054 25.4287 38.3041 25.4287C38.462 25.4287 38.5935 25.2961 38.5935 25.1369C38.5935 24.9778 38.462 24.8452 38.3041 24.8452C38.2054 24.8452 38.1133 24.8982 38.0674 24.9778H34.7196H29.4316Z" fill="white"/>
<path d="M21.4669 40.5531L21.4603 40.5597C21.4471 40.5796 21.4406 40.5995 21.434 40.6194C21.4208 40.6459 21.4077 40.6724 21.4077 40.7055V41.0305V41.4681V41.6736C21.3353 41.7267 21.2827 41.8129 21.2827 41.9124C21.2827 42.0715 21.4142 42.2041 21.5721 42.2041C21.7299 42.2041 21.8615 42.0715 21.8615 41.9124C21.8615 41.8129 21.8088 41.72 21.7299 41.667V41.4681V40.7454C21.7826 40.6923 21.8352 40.6326 21.8944 40.5729C21.9536 40.5067 22.0128 40.447 22.0786 40.3806C22.1377 40.321 22.1969 40.2547 22.2562 40.1884C22.2692 40.1751 22.2758 40.1685 22.289 40.1552C22.3022 40.1552 22.3153 40.1618 22.3285 40.1618C22.4864 40.1618 22.6179 40.0292 22.6179 39.8701C22.6179 39.711 22.4864 39.5784 22.3285 39.5784C22.1707 39.5784 22.039 39.711 22.039 39.8701C22.039 39.8966 22.0456 39.9231 22.0522 39.9431C22.0456 39.9497 22.0456 39.9497 22.039 39.9563C21.9799 40.0226 21.9207 40.0956 21.8615 40.1552C21.8023 40.2149 21.7365 40.2812 21.6773 40.3475C21.6182 40.4072 21.5655 40.4801 21.5063 40.5332C21.4801 40.5465 21.4735 40.5465 21.4669 40.5531Z" fill="white"/>
<path d="M21.993 3.18257C21.9339 3.11626 21.8747 3.05658 21.8089 2.99027C21.7563 2.93059 21.7037 2.87093 21.6445 2.81788V2.09513V1.89622C21.7234 1.84317 21.776 1.75034 21.776 1.65089C21.776 1.49174 21.6445 1.35913 21.4866 1.35913C21.3288 1.35913 21.1973 1.49174 21.1973 1.65089C21.1973 1.75034 21.2433 1.83654 21.3222 1.88958V2.09513V2.53276V2.85766C21.3222 2.89081 21.3288 2.91734 21.3485 2.94386C21.3551 2.96375 21.3617 2.98365 21.3748 3.00354L21.3814 3.01017C21.388 3.0168 21.388 3.0168 21.3945 3.02343C21.4537 3.0831 21.513 3.14941 21.5656 3.20909C21.6247 3.2754 21.6839 3.33507 21.7497 3.40138C21.8155 3.46768 21.8681 3.53399 21.9273 3.6003C21.9339 3.60693 21.9338 3.60693 21.9404 3.61356C21.9338 3.64008 21.9273 3.65997 21.9273 3.6865C21.9273 3.84563 22.0589 3.97824 22.2167 3.97824C22.3745 3.97824 22.5061 3.84563 22.5061 3.6865C22.5061 3.52736 22.3745 3.39474 22.2167 3.39474C22.2036 3.39474 22.1904 3.39474 22.1772 3.40138C22.1641 3.38812 22.1575 3.37486 22.1443 3.36822C22.1115 3.30855 22.0523 3.24224 21.993 3.18257Z" fill="white"/>
<path d="M20.0727 0.29838C20.0727 0.404471 20.1318 0.497299 20.2173 0.550345V0.79568C20.2107 0.79568 20.2107 0.79568 20.2042 0.79568V5.92119C20.2042 5.94108 20.2107 5.96097 20.2173 5.97423C20.2173 6.00739 20.2305 6.04054 20.2567 6.07369C20.2699 6.08695 20.2831 6.10685 20.2963 6.12011C20.3094 6.13337 20.3291 6.14664 20.3423 6.1599C20.3554 6.17316 20.3752 6.19304 20.3884 6.2063C20.3949 6.21294 20.3949 6.21294 20.4015 6.21957C20.408 6.2262 20.408 6.2262 20.4146 6.23283C20.4278 6.24609 20.4409 6.25935 20.4541 6.27261C20.4869 6.30577 20.5199 6.33892 20.5528 6.37207C20.6054 6.41849 20.658 6.47154 20.7041 6.51795C20.7567 6.57099 20.8026 6.61741 20.8553 6.67045C20.8684 6.68371 20.875 6.69035 20.8882 6.70361C20.9343 6.74339 20.9737 6.78318 21.0197 6.82296C21.0394 6.84285 21.0658 6.86938 21.0921 6.88927C21.1118 6.90253 21.1315 6.91579 21.1447 6.92905C21.1579 6.94231 21.171 6.95557 21.1907 6.96883C21.2105 6.98873 21.2302 7.00862 21.2499 7.02851C21.263 7.04177 21.2696 7.0484 21.2828 7.06166V11.4975C21.1052 11.4975 20.9277 11.4975 20.7501 11.4975C20.6777 11.4975 20.5988 11.4975 20.5265 11.4975V8.12257C20.5988 8.06953 20.6514 7.98333 20.6514 7.88387C20.6514 7.72473 20.5199 7.59212 20.362 7.59212C20.2042 7.59212 20.0727 7.72473 20.0727 7.88387C20.0727 7.98333 20.1252 8.07616 20.2042 8.1292V11.4644C19.9937 11.4644 19.7832 11.4644 19.5728 11.4644V9.85315V3.75296C19.6254 3.69992 19.6648 3.62698 19.6648 3.54078C19.6648 3.38164 19.5333 3.24903 19.3755 3.24903C19.2176 3.24903 19.086 3.38164 19.086 3.54078C19.086 3.6535 19.1519 3.75296 19.2505 3.79937V7.49929V11.4578C18.8953 11.4578 18.5467 11.4578 18.1916 11.4578V9.35587V3.36176C18.2376 3.30871 18.2639 3.24239 18.2639 3.16946C18.2639 3.01032 18.1324 2.87771 17.9746 2.87771C17.8167 2.87771 17.6852 3.01032 17.6852 3.16946C17.6852 3.28881 17.7641 3.3949 17.8693 3.44132V6.51132V11.4578C17.8035 11.4578 17.7444 11.4578 17.6786 11.4578C17.5142 11.4578 17.3497 11.4578 17.1853 11.4578C17.1853 10.4433 17.1919 9.42885 17.1919 8.42095C17.2182 8.40769 17.2379 8.39443 17.2576 8.37454C17.3695 8.26182 17.3695 8.07616 17.2576 7.96343C17.1458 7.85071 16.9617 7.85071 16.8498 7.96343C16.7381 8.07616 16.7381 8.26182 16.8498 8.37454C16.8564 8.38117 16.863 8.3878 16.8696 8.39443C16.8696 9.41557 16.863 10.4433 16.863 11.4644C16.8104 11.4644 16.7643 11.4644 16.7117 11.4644C15.9686 10.7152 15.2319 9.97256 14.4887 9.22326C14.0217 8.75246 13.5548 8.28834 13.0944 7.81757C13.0944 7.79767 13.101 7.78441 13.101 7.76452C13.101 7.60538 12.9694 7.47277 12.8115 7.47277C12.6537 7.47277 12.5221 7.60538 12.5221 7.76452C12.5221 7.92365 12.6537 8.05626 12.8115 8.05626C12.8313 8.05626 12.851 8.05627 12.8708 8.04964C14.002 9.19013 15.1267 10.324 16.2579 11.4644C15.9554 11.4644 15.6463 11.4644 15.3437 11.4644C15.3306 11.4644 15.3108 11.4644 15.2976 11.4644C15.1464 11.4644 14.9885 11.5241 14.8702 11.6169C14.39 11.1329 13.9033 10.6422 13.4233 10.1582C13.4233 9.99904 13.2916 9.86644 13.1338 9.86644C12.9759 9.86644 12.8444 9.99904 12.8444 10.1582C12.8444 10.3173 12.9759 10.4499 13.1338 10.4499C13.1667 10.4499 13.2061 10.4433 13.2325 10.4301C13.706 10.9074 14.1796 11.3849 14.6597 11.8689C14.6071 11.9683 14.5808 12.0745 14.5874 12.1938C14.5874 12.3861 14.5874 12.5717 14.5874 12.7641H14.5808H13.7324C13.6797 12.6845 13.5942 12.6315 13.489 12.6315C13.3312 12.6315 13.1996 12.7641 13.1996 12.9231C13.1996 13.0823 13.3312 13.2149 13.489 13.2149C13.5876 13.2149 13.6731 13.1619 13.7258 13.089H14.5742H14.5808C14.5808 13.4205 14.5808 13.752 14.5808 14.0902H12.0223C12.0092 14.0902 12.0026 14.0902 11.996 14.0902C10.9634 13.0558 9.93736 12.0148 8.90479 10.9804C8.90479 10.9738 8.90479 10.9671 8.90479 10.9671C8.90479 10.808 8.77326 10.6753 8.61537 10.6753C8.45754 10.6753 8.326 10.808 8.326 10.9671C8.326 11.1263 8.45754 11.2589 8.61537 11.2589C8.64823 11.2589 8.68118 11.2523 8.70745 11.239C9.7532 12.2933 10.799 13.3475 11.8447 14.4018C11.9039 14.4615 11.996 14.4615 12.0618 14.4084H14.5939C14.5939 14.614 14.5939 14.8195 14.5939 15.0251H11.4107H6.12926C6.07665 14.9588 5.99772 14.9124 5.90565 14.9124C5.74779 14.9124 5.61625 15.045 5.61625 15.2042C5.61625 15.3632 5.74779 15.4959 5.90565 15.4959C6.01088 15.4959 6.10295 15.4362 6.15557 15.35H12.2788H14.5939C14.5939 15.602 14.5939 15.854 14.5939 16.1059H13.5876C13.535 16.0131 13.4429 15.9467 13.3312 15.9467C13.1733 15.9467 13.0417 16.0794 13.0417 16.2385C13.0417 16.3977 13.1733 16.5303 13.3312 16.5303C13.4167 16.5303 13.4956 16.4905 13.5482 16.4308H14.5939C14.5939 16.7159 14.5939 17.0011 14.5939 17.2861H11.0818H9.70716C9.65453 17.2066 9.56245 17.1469 9.46387 17.1469C9.30598 17.1469 9.17444 17.2795 9.17444 17.4387C9.17444 17.5978 9.30598 17.7304 9.46387 17.7304C9.55595 17.7304 9.64144 17.684 9.69407 17.611H14.5939C14.5939 17.936 14.5939 18.2675 14.5939 18.5924H9.38488H6.52389C6.47127 18.5194 6.38577 18.4665 6.28711 18.4665C6.12926 18.4665 5.99772 18.5991 5.99772 18.7581C5.99772 18.9173 6.12926 19.0499 6.28711 19.0499C6.38577 19.0499 6.47785 18.9969 6.53046 18.9173H12.2262H14.5939C14.5939 19.2687 14.5939 19.6268 14.5939 19.9782H12.8444C12.7918 19.8921 12.6998 19.839 12.6011 19.839C12.4432 19.839 12.3117 19.9716 12.3117 20.1307C12.3117 20.2899 12.4432 20.4225 12.6011 20.4225C12.6932 20.4225 12.7787 20.3761 12.8313 20.3032H14.5939C14.5939 20.6744 14.5939 21.0457 14.5939 21.4237H10.1544H4.30741C4.2548 21.3508 4.1693 21.2977 4.07065 21.2977C3.91279 21.2977 3.78125 21.4303 3.78125 21.5895C3.78125 21.7486 3.91279 21.8812 4.07065 21.8812C4.1693 21.8812 4.26138 21.8281 4.31399 21.7486H10.0689H14.5939C14.5939 22.0337 14.5939 22.3189 14.5939 22.6039H10.424H9.62826C9.57563 22.5244 9.49014 22.478 9.39147 22.478C9.23366 22.478 9.10213 22.6106 9.10213 22.7697C9.10213 22.9288 9.23366 23.0614 9.39147 23.0614C9.49014 23.0614 9.58222 23.0085 9.63485 22.9288H14.5939C14.5939 23.1609 14.5939 23.3863 14.5939 23.6184H10.1413H9.77956C9.76638 23.6052 9.7532 23.5919 9.73352 23.5787C9.32574 23.267 8.92447 22.9554 8.51673 22.6438C8.497 22.6239 8.46411 22.6239 8.43123 22.6239C8.4115 22.6172 8.39177 22.6106 8.37204 22.6106H6.06349H5.28082C5.22821 22.5443 5.14928 22.4979 5.0572 22.4979C4.89935 22.4979 4.76781 22.6305 4.76781 22.7896C4.76781 22.9488 4.89935 23.0814 5.0572 23.0814C5.16244 23.0814 5.25451 23.0217 5.30713 22.9355H8.37204C8.77326 23.2471 9.17444 23.5522 9.57563 23.8638C9.58222 23.8704 9.5954 23.8771 9.60849 23.8771C9.63485 23.9168 9.68748 23.9433 9.74011 23.9433H14.5939C14.5939 24.0163 14.5939 24.0892 14.5939 24.1621C14.5939 24.3147 14.5939 24.4738 14.5939 24.6263H14.173C14.1204 24.5335 14.0283 24.4738 13.9165 24.4738C13.7586 24.4738 13.6271 24.6064 13.6271 24.7655C13.6271 24.9247 13.7586 25.0573 13.9165 25.0573C14.002 25.0573 14.0809 25.0175 14.1335 24.9512H14.5874C14.5874 25.1833 14.5874 25.4087 14.5874 25.6408H13.7652C13.7586 25.6341 13.7586 25.6276 13.752 25.6276C13.489 25.3556 13.2259 25.0904 12.9694 24.8186C12.9694 24.8186 12.9694 24.8186 12.9628 24.8119C12.9497 24.7987 12.9365 24.7855 12.9234 24.7722C12.8708 24.7191 12.7918 24.7126 12.7261 24.7457C12.6997 24.7191 12.6602 24.7059 12.6208 24.7059H7.47098C7.41836 24.6396 7.33944 24.5998 7.24736 24.5998C7.08951 24.5998 6.95797 24.7324 6.95797 24.8916C6.95797 25.0507 7.08951 25.1833 7.24736 25.1833C7.3526 25.1833 7.45125 25.1237 7.49729 25.0308H12.6142C12.6472 25.0308 12.6734 25.0242 12.6932 25.0043C12.7063 25.0175 12.7129 25.0242 12.7195 25.0374C12.9825 25.3092 13.2457 25.5745 13.5022 25.8464C13.5153 25.8596 13.535 25.8729 13.5548 25.8795C13.5811 25.9259 13.6337 25.9524 13.6863 25.9524H14.5939C14.5939 26.2641 14.5939 26.5824 14.5939 26.894H10.6477C10.5951 26.8277 10.5161 26.7812 10.424 26.7812C10.2662 26.7812 10.1347 26.9139 10.1347 27.073C10.1347 27.2322 10.2662 27.3648 10.424 27.3648C10.5293 27.3648 10.6214 27.3051 10.674 27.2189H14.5939C14.5939 27.451 14.5939 27.6764 14.5939 27.9085H10.891H9.87814C9.86505 27.8952 9.85187 27.8886 9.83869 27.8754C9.40465 27.5372 8.96401 27.199 8.52989 26.8609C8.50358 26.8409 8.46411 26.8343 8.43123 26.8409C8.40492 26.8211 8.37204 26.8078 8.33915 26.8078H6.53704C6.48442 26.7216 6.39235 26.6619 6.28711 26.6619C6.12926 26.6619 5.99772 26.7945 5.99772 26.9537C5.99772 27.1128 6.12926 27.2454 6.28711 27.2454C6.37919 27.2454 6.45811 27.199 6.51073 27.1327H8.33257C8.33915 27.1327 8.34573 27.1327 8.35231 27.1327C8.35888 27.1327 8.35888 27.1394 8.36546 27.1459C8.79953 27.4841 9.23366 27.8157 9.6743 28.1538C9.70057 28.2002 9.7532 28.2334 9.81242 28.2334H14.5939C14.5939 28.4589 14.5939 28.6776 14.5939 28.9031C14.5939 28.9362 14.5939 28.9694 14.5939 29.0092H11.7856H11.6935H11.0423H8.60228C8.54962 28.9429 8.47069 28.9031 8.38519 28.9031C8.22734 28.9031 8.0958 29.0357 8.0958 29.1949C8.0958 29.354 8.22734 29.4866 8.38519 29.4866C8.49042 29.4866 8.5891 29.4203 8.63514 29.3341H11.7H14.5479H14.6005C14.6005 29.6922 14.5939 30.0502 14.5939 30.4082C13.9494 30.4149 13.2982 30.4215 12.6537 30.4282C12.6537 30.4282 12.6537 30.4282 12.6472 30.4282C12.6274 30.4282 12.6077 30.4282 12.5879 30.4282C12.5617 30.4282 12.5353 30.4282 12.509 30.4282C12.4959 30.4082 12.4827 30.3884 12.4696 30.3751C12.3577 30.2624 12.1736 30.2624 12.0618 30.3817C11.95 30.4944 11.95 30.6801 12.0683 30.7928C12.1802 30.9056 12.3643 30.9056 12.4761 30.7928C12.4893 30.7796 12.4959 30.7729 12.5024 30.7597C12.5353 30.7597 12.5682 30.7597 12.5945 30.7597C13.2588 30.7531 13.9296 30.7464 14.6005 30.7331C14.6005 30.8923 14.6005 31.058 14.6071 31.2172C14.6071 31.2304 14.6071 31.2371 14.6071 31.2504C14.6071 31.3763 14.64 31.4957 14.7057 31.6017C13.9691 32.351 13.2325 33.0937 12.4959 33.843C11.6803 34.6717 10.8648 35.5006 10.0492 36.3294C10.0294 36.3294 10.0163 36.3229 9.99658 36.3229C9.83869 36.3229 9.70716 36.4555 9.70716 36.6146C9.70716 36.7737 9.83869 36.9063 9.99658 36.9063C10.1544 36.9063 10.286 36.7737 10.286 36.6146C10.286 36.5947 10.286 36.5748 10.2794 36.5549C11.7066 35.1094 13.1338 33.6573 14.5545 32.2118C14.6794 32.0858 14.7978 31.9599 14.9228 31.8405C15.0346 31.92 15.1727 31.9664 15.324 31.9664C15.3437 31.9664 15.3635 31.9664 15.3832 31.9664C15.3832 32.6096 15.3832 33.2528 15.3897 33.9026C15.3766 33.9092 15.37 33.9159 15.3635 33.9225L12.4564 36.8533C12.3577 36.8268 12.2459 36.8466 12.167 36.9262C12.0552 37.0389 12.0552 37.2246 12.167 37.3373C12.2788 37.45 12.463 37.45 12.5748 37.3373C12.634 37.2777 12.6602 37.1915 12.6537 37.1118L15.5871 34.1613C15.6068 34.1413 15.6133 34.1215 15.6265 34.1016C15.6791 34.0751 15.712 34.022 15.712 33.9623C15.712 33.2992 15.712 32.6428 15.7054 31.9797C16.1067 31.9797 16.5079 31.9797 16.9091 31.9797C16.9091 33.0671 16.9156 34.148 16.9156 35.2354C16.9091 35.242 16.9025 35.2487 16.8959 35.2553C16.7841 35.368 16.7841 35.5536 16.8959 35.6664C17.0077 35.7791 17.1919 35.7791 17.3037 35.6664C17.4155 35.5536 17.4155 35.368 17.3037 35.2553C17.284 35.2354 17.2576 35.2221 17.2379 35.2089C17.2379 34.1347 17.2313 33.0606 17.2313 31.9864C17.3102 31.9864 17.3957 31.9864 17.4747 31.9864C17.6193 31.9864 17.7641 31.9864 17.9088 31.9864V37.1185V40.1885C17.8035 40.2349 17.7246 40.3344 17.7246 40.4603C17.7246 40.6195 17.8561 40.7521 18.014 40.7521C18.1718 40.7521 18.3034 40.6195 18.3034 40.4603C18.3034 40.3874 18.2771 40.3211 18.231 40.2681V34.2739V31.9864C18.5862 31.9864 18.9348 31.9864 19.29 31.9864V36.1306V39.8304C19.1913 39.8769 19.1255 39.9763 19.1255 40.089C19.1255 40.2482 19.257 40.3808 19.4149 40.3808C19.5727 40.3808 19.7043 40.2482 19.7043 40.089C19.7043 40.0095 19.6714 39.9299 19.6123 39.8769V33.7766V31.9797C19.8227 31.9797 20.0331 31.9797 20.2436 31.9797V35.5006C20.1647 35.5536 20.1121 35.6465 20.1121 35.7459C20.1121 35.9051 20.2436 36.0377 20.4015 36.0377C20.5593 36.0377 20.6909 35.9051 20.6909 35.7459C20.6909 35.6465 20.6448 35.5603 20.5659 35.5072V31.9797C20.6646 31.9797 20.7632 31.9797 20.8619 31.9797C21.0132 31.9797 21.171 31.9797 21.3223 31.9797V36.6013C21.3091 36.6146 21.3025 36.6212 21.2894 36.6345C21.2696 36.6543 21.2499 36.6743 21.2302 36.6941C21.217 36.7074 21.1973 36.7207 21.1841 36.734C21.1645 36.7472 21.1447 36.7604 21.1315 36.7737C21.1052 36.7936 21.0855 36.8135 21.0592 36.84C21.0132 36.8798 20.9737 36.9196 20.9277 36.9594C20.9145 36.9726 20.9079 36.9792 20.8947 36.9925C20.8422 37.0389 20.7895 37.092 20.7435 37.1451C20.6909 37.198 20.6448 37.2444 20.5922 37.2909C20.5593 37.3241 20.5265 37.3572 20.4935 37.3903C20.4804 37.4036 20.4673 37.4169 20.4541 37.4301C20.4475 37.4368 20.4475 37.4368 20.4409 37.4434C20.4344 37.4434 20.4344 37.45 20.4278 37.4567C20.4146 37.47 20.3949 37.4898 20.3818 37.5031C20.3686 37.5163 20.3488 37.5229 20.3357 37.5429C20.3225 37.5562 20.3094 37.5694 20.2963 37.5893C20.2765 37.6224 20.2633 37.649 20.2567 37.6888C20.2502 37.7086 20.2436 37.7219 20.2436 37.7418V42.8607C20.1647 42.9137 20.1121 42.9999 20.1121 43.106C20.1121 43.2651 20.2436 43.3977 20.4015 43.3977C20.5593 43.3977 20.6909 43.2651 20.6909 43.106C20.6909 43.0132 20.6448 42.9336 20.579 42.8806V37.7617C20.5922 37.7484 20.5988 37.7418 20.612 37.7285L20.6317 37.7086C20.6448 37.702 20.6514 37.6954 20.658 37.6821C20.6777 37.6622 20.6975 37.6423 20.7171 37.6224C20.7501 37.5893 20.7895 37.5495 20.8224 37.5164C20.8684 37.47 20.9211 37.4235 20.9671 37.377C21.0132 37.3306 21.0592 37.2843 21.1052 37.2379C21.1118 37.2313 21.1118 37.2313 21.1184 37.2246C21.1315 37.218 21.1381 37.2047 21.1513 37.198C21.1645 37.1848 21.1775 37.1782 21.1841 37.1649C21.2236 37.1318 21.2565 37.0986 21.296 37.0654C21.3091 37.0522 21.3223 37.0456 21.342 37.0323C21.3617 37.019 21.3749 37.0058 21.3946 36.9859L21.3815 36.9992C21.4143 36.9726 21.4406 36.9395 21.4736 36.913C21.4867 36.8997 21.4998 36.8864 21.5196 36.8731C21.5262 36.8666 21.5327 36.8599 21.5459 36.8533C21.5656 36.84 21.5787 36.8201 21.5985 36.8002C21.6051 36.7936 21.6117 36.7869 21.6183 36.7869C21.6511 36.7538 21.6577 36.7007 21.6511 36.6543C21.6511 36.6477 21.6511 36.6411 21.6511 36.6345V31.9996C22.1115 31.993 22.5719 31.9466 23.0258 31.8538C22.9797 31.9002 22.9337 31.9532 22.881 32.0063C22.8152 32.0726 22.7429 32.1323 22.6771 32.1985C22.6245 32.2582 22.5653 32.3179 22.5127 32.371C22.493 32.3842 22.4733 32.4041 22.4601 32.4239L22.4535 32.4306C22.4272 32.4572 22.414 32.4969 22.414 32.5301C22.414 32.5566 22.4206 32.5831 22.4338 32.6096V38.7497C22.4338 38.7828 22.4469 38.8226 22.4667 38.8491C22.4667 38.8557 22.4667 38.8557 22.4667 38.8624C22.4667 38.869 22.4667 38.8756 22.4667 38.8756C22.4667 38.9088 22.4799 38.9552 22.4995 38.9751C22.8152 39.2867 23.1309 39.605 23.4466 39.9166V41.4086V41.6407C23.3349 41.6804 23.256 41.7865 23.256 41.9125C23.256 42.0716 23.3875 42.2042 23.5453 42.2042C23.7032 42.2042 23.8347 42.0716 23.8347 41.9125C23.8347 41.8462 23.8084 41.7865 23.7689 41.7335V41.4218V39.9896V39.8702C23.7689 39.8238 23.7492 39.784 23.7229 39.7575C23.7164 39.7443 23.7098 39.7243 23.6966 39.7177C23.3809 39.4061 23.0652 39.0878 22.7495 38.7762C22.7495 38.7695 22.7495 38.7629 22.7495 38.7497V32.5698C22.789 32.5234 22.8284 32.4836 22.8745 32.4372C22.9271 32.3842 22.9797 32.3311 23.0323 32.2781C23.0652 32.2516 23.0915 32.2251 23.1243 32.192C23.1507 32.1587 23.1836 32.1323 23.2099 32.099C23.2625 32.0394 23.3151 31.9864 23.3743 31.9333C23.4203 31.8869 23.473 31.8338 23.519 31.7874C23.5519 31.7543 23.5847 31.7145 23.6177 31.6814C23.6111 31.688 23.6045 31.6946 23.5979 31.7012C23.6111 31.6879 23.6177 31.6814 23.6308 31.6681C23.8808 31.5819 24.1306 31.4824 24.3674 31.3631C24.4135 31.3432 24.4529 31.3167 24.499 31.2968V32.5102C24.3872 32.5765 24.2753 32.6495 24.1701 32.7224C24.1175 32.7555 24.0649 32.7886 24.0123 32.8218C23.9728 32.8483 23.9268 32.8815 23.8873 32.908C23.8281 32.9544 23.7623 32.9942 23.7032 33.0406C23.6768 33.0606 23.6506 33.0804 23.6177 33.1003C23.5913 33.1202 23.5716 33.1401 23.5453 33.1534C23.5519 33.1534 23.5585 33.1468 23.5585 33.1468C23.5256 33.1666 23.4993 33.1865 23.4861 33.2197C23.4796 33.2329 23.4796 33.2462 23.473 33.2594C23.4598 33.286 23.4466 33.3125 23.4466 33.3391V37.4832C23.3611 37.5362 23.2954 37.6291 23.2954 37.7352C23.2954 37.8943 23.4269 38.0269 23.5847 38.0269C23.7426 38.0269 23.8742 37.8943 23.8742 37.7352C23.8742 37.649 23.8281 37.5627 23.7689 37.5097V33.3855C23.8018 33.3589 23.8413 33.3324 23.8742 33.3125C23.94 33.2661 23.9991 33.2263 24.0649 33.1799C24.1044 33.1534 24.1438 33.1268 24.1833 33.1003C24.2359 33.0671 24.2951 33.034 24.3477 32.9942C24.4003 32.9544 24.4529 32.9213 24.5055 32.8881C24.5779 32.8417 24.6568 32.7953 24.7358 32.7489C24.7686 32.729 24.795 32.6892 24.8016 32.6495C24.8147 32.6295 24.8212 32.6031 24.8212 32.5765V31.1177C25.1041 30.9387 25.3605 30.7265 25.6039 30.4945C26.4261 31.3365 27.2416 32.1787 28.0572 33.0207C28.8661 33.8562 29.6817 34.6917 30.4907 35.5272C30.4841 35.547 30.4841 35.5603 30.4841 35.5802C30.4841 35.7393 30.6091 35.8719 30.767 35.8785C30.9248 35.8785 31.0563 35.7526 31.0629 35.5934C31.0629 35.4343 30.9379 35.3017 30.78 35.2951C30.7604 35.2951 30.7406 35.2951 30.7209 35.3017C29.3068 33.843 27.8862 32.3842 26.4721 30.9321C26.2551 30.7133 26.0446 30.4945 25.8275 30.269C25.8868 30.2094 25.9394 30.143 25.9985 30.0768C26.0117 30.0833 26.0315 30.0833 26.0446 30.0833C26.7483 30.09 27.452 30.0966 28.1558 30.1099C28.1624 30.1232 28.169 30.1297 28.1756 30.143L31.0366 33.1135C31.0037 33.213 31.0234 33.3258 31.1023 33.4053C31.2142 33.5181 31.3983 33.5246 31.5101 33.412C31.622 33.2992 31.6285 33.1135 31.5167 33.0009C31.4575 32.9412 31.372 32.908 31.2931 32.9147L28.4057 29.9176C28.386 29.8977 28.3663 29.8845 28.3466 29.8778C28.3202 29.8248 28.2676 29.7916 28.2085 29.7916C27.5507 29.785 26.8996 29.7783 26.2419 29.7717C26.3274 29.659 26.4063 29.5396 26.4787 29.4137C26.6168 29.1949 26.7352 28.9628 26.8338 28.7241H28.7806H31.7074C31.7535 28.8103 31.8456 28.87 31.9508 28.87C32.102 28.87 32.227 28.744 32.227 28.5915C32.227 28.4389 32.102 28.313 31.9508 28.313C31.8652 28.313 31.7929 28.3527 31.7403 28.4124H29.4054H28.7806H28.6885H26.9522C27.0378 28.1737 27.1101 27.9218 27.1693 27.6698H30.5762C30.6353 27.6698 30.6814 27.6367 30.7077 27.5902C31.1221 27.2653 31.5431 26.9471 31.9573 26.6288C31.9639 26.6288 31.9639 26.6222 31.9705 26.6222C31.9771 26.6222 31.9837 26.6222 31.9903 26.6222H33.7331C33.7858 26.6884 33.8582 26.7283 33.9502 26.7283C34.1015 26.7283 34.2265 26.6022 34.2265 26.4498C34.2265 26.2972 34.1015 26.1713 33.9502 26.1713C33.8516 26.1713 33.7595 26.2309 33.7135 26.3105H31.9903C31.9573 26.3105 31.9245 26.3237 31.8982 26.3437C31.8652 26.337 31.8258 26.3437 31.7995 26.3635C31.3786 26.6884 30.9642 27.0067 30.5433 27.3316C30.5302 27.3449 30.517 27.3515 30.5104 27.3648H29.5435H27.235C27.2811 27.1128 27.3139 26.8609 27.3337 26.6089H29.8001C29.8527 26.6951 29.9448 26.7548 30.05 26.7548C30.2079 26.7548 30.3394 26.6222 30.3394 26.463C30.3394 26.3039 30.2079 26.1713 30.05 26.1713C29.9579 26.1713 29.879 26.2177 29.8264 26.284H27.3535C27.3731 25.8132 27.3535 25.3424 27.2811 24.8783C27.4258 24.7258 27.5771 24.5733 27.7217 24.4208C27.7283 24.4075 27.8007 24.4141 27.8335 24.4141H32.9505C33.0031 24.5003 33.0952 24.5667 33.2004 24.5667C33.3583 24.5667 33.4898 24.4341 33.4898 24.2749C33.4898 24.1157 33.3583 23.9831 33.2004 23.9831C33.1149 23.9831 33.036 24.023 32.9768 24.0892H27.827C27.8007 24.0892 27.7152 24.0959 27.6428 24.1092C27.5902 24.1157 27.5441 24.1356 27.5244 24.1556C27.5113 24.1688 27.4981 24.1821 27.485 24.1953C27.485 24.1953 27.485 24.1953 27.4784 24.202C27.3797 24.3014 27.2877 24.4008 27.189 24.5003C27.0969 24.0959 26.972 23.7046 26.801 23.3267H30.7143C30.767 23.3267 30.813 23.3002 30.8459 23.2604C30.859 23.2537 30.8655 23.2537 30.8787 23.2471C31.2799 22.9355 31.6812 22.6305 32.0824 22.3189H35.1472C35.1998 22.4051 35.2919 22.4647 35.3972 22.4647C35.555 22.4647 35.6865 22.3321 35.6865 22.173C35.6865 22.0138 35.555 21.8812 35.3972 21.8812C35.3051 21.8812 35.2262 21.9276 35.1736 21.994H34.3909H32.0889C32.0692 21.994 32.0494 22.0006 32.0297 22.0072C31.9969 22.0072 31.9639 22.0138 31.9442 22.0271C31.5365 22.3387 31.1353 22.6503 30.7274 22.962C30.7077 22.9752 30.6946 22.9885 30.6814 23.0018H30.3196H26.6497C26.5181 22.7631 26.3668 22.531 26.2025 22.3122H30.8327C30.8853 22.3918 30.9708 22.4448 31.0761 22.4448C31.2339 22.4448 31.3654 22.3122 31.3654 22.1531C31.3654 21.994 31.2339 21.8614 31.0761 21.8614C30.9774 21.8614 30.8919 21.9143 30.8393 21.9873H30.0434H25.9328C25.6828 21.7155 25.4066 21.4701 25.1041 21.258C25.1501 21.2182 25.1962 21.1718 25.2356 21.1253C25.2356 21.1253 25.2356 21.1253 25.2422 21.1253H25.3014H30.3986H36.1535C36.2061 21.2049 36.2916 21.258 36.3969 21.258C36.5547 21.258 36.6863 21.1253 36.6863 20.9662C36.6863 20.8071 36.5547 20.6744 36.3969 20.6744C36.2982 20.6744 36.2127 20.7275 36.1601 20.8004H30.3131H25.5381C25.7749 20.5087 25.9854 20.1904 26.1498 19.8522C26.1761 19.7926 26.2025 19.7395 26.2287 19.6798H28.169C28.2216 19.7528 28.3071 19.7992 28.3992 19.7992C28.557 19.7992 28.6885 19.6665 28.6885 19.5074C28.6885 19.3483 28.557 19.2157 28.3992 19.2157C28.294 19.2157 28.2085 19.2687 28.1558 19.3549H26.3603C26.4919 19.0102 26.584 18.6521 26.6497 18.294H28.2413H33.9371C33.9897 18.3736 34.0752 18.4266 34.1804 18.4266C34.3382 18.4266 34.4698 18.294 34.4698 18.1349C34.4698 17.9757 34.3382 17.8431 34.1804 17.8431C34.0818 17.8431 33.9963 17.8962 33.9437 17.9691H31.0826H26.6957C26.7352 17.6443 26.7483 17.3193 26.7483 16.9878H30.78C30.8327 17.0607 30.9182 17.1071 31.0103 17.1071C31.1681 17.1071 31.2997 16.9745 31.2997 16.8154C31.2997 16.6562 31.1681 16.5236 31.0103 16.5236C30.9051 16.5236 30.8195 16.5767 30.767 16.6629H29.3923H26.7352C26.722 16.4043 26.6891 16.139 26.6431 15.8805H28.1032C28.1558 15.9402 28.2347 15.9799 28.3202 15.9799C28.4781 15.9799 28.6096 15.8473 28.6096 15.6882C28.6096 15.5291 28.4781 15.3964 28.3202 15.3964C28.2085 15.3964 28.1164 15.4627 28.0638 15.5556H26.5774C26.5116 15.2704 26.4327 14.9986 26.3274 14.7267H28.1821H34.3054C34.358 14.8129 34.4501 14.8726 34.5553 14.8726C34.7132 14.8726 34.8447 14.74 34.8447 14.5808C34.8447 14.4217 34.7132 14.2891 34.5553 14.2891C34.4632 14.2891 34.3843 14.3355 34.3317 14.4018H29.0503H26.1827C26.1301 14.2825 26.0643 14.1631 25.9985 14.0504C25.946 13.9576 25.8933 13.8714 25.8341 13.7852H28.3729C28.4387 13.8382 28.5307 13.8316 28.5899 13.7786C29.6356 12.7243 30.6814 11.67 31.7271 10.6157C31.7535 10.6289 31.7863 10.6356 31.8192 10.6356C31.9771 10.6356 32.1086 10.503 32.1086 10.3439C32.1086 10.1847 31.9771 10.0521 31.8192 10.0521C31.6614 10.0521 31.5299 10.1847 31.5299 10.3439C31.5299 10.3504 31.5299 10.3571 31.5299 10.3571C30.5038 11.3915 29.4712 12.4325 28.4453 13.4669C28.4387 13.4669 28.4255 13.4669 28.4189 13.4669H25.6894C25.6631 13.4669 25.6434 13.4735 25.6237 13.4868C25.5316 13.3675 25.4329 13.2481 25.3343 13.142C26.0315 12.4458 26.722 11.7429 27.4192 11.0467C27.452 11.06 27.485 11.0666 27.5179 11.0666C27.6757 11.0666 27.8073 10.934 27.8073 10.7748C27.8073 10.6157 27.6757 10.4831 27.5179 10.4831C27.36 10.4831 27.2284 10.6157 27.2284 10.7748C26.5247 11.4843 25.8144 12.2004 25.1107 12.9099C25.0054 12.8105 24.9001 12.711 24.7818 12.6248V11.1197C24.7818 11.0931 24.7752 11.0666 24.762 11.0467C24.7555 11.0069 24.7358 10.9738 24.6963 10.9472C24.6174 10.9008 24.545 10.8544 24.4661 10.808C24.4135 10.7748 24.3608 10.7351 24.3082 10.7019C24.2557 10.6621 24.1964 10.6356 24.1438 10.5958C24.1044 10.5693 24.0649 10.5427 24.0255 10.5163C23.9597 10.4698 23.9004 10.4301 23.8347 10.3837C23.8018 10.3571 23.7623 10.3306 23.7295 10.3107V6.13337C23.7953 6.08033 23.8347 6.00075 23.8347 5.90792C23.8347 5.74879 23.7032 5.61618 23.5453 5.61618C23.3875 5.61618 23.256 5.74879 23.256 5.90792C23.256 6.01401 23.3151 6.11348 23.4072 6.1599V10.304C23.4072 10.3372 23.4138 10.3637 23.4335 10.3837C23.4335 10.3969 23.4401 10.4101 23.4466 10.4234C23.4598 10.4566 23.4861 10.4831 23.519 10.4963C23.5124 10.4963 23.5058 10.4897 23.5058 10.4897C23.5322 10.503 23.5585 10.5229 23.5782 10.5427C23.6045 10.5627 23.6308 10.5825 23.6637 10.6024C23.7229 10.6489 23.7887 10.6886 23.8479 10.7351C23.8873 10.7616 23.9334 10.7948 23.9728 10.8212C24.0255 10.8544 24.0781 10.8876 24.1306 10.9207C24.2359 10.9936 24.3477 11.0666 24.4595 11.1329V12.3397C24.3477 12.2601 24.2293 12.1938 24.111 12.1275C23.9004 12.0081 23.6768 11.9153 23.4532 11.8291C23.4138 11.7893 23.3743 11.7496 23.3349 11.7098C23.2822 11.6567 23.223 11.6037 23.1704 11.544C23.1441 11.5108 23.1112 11.4843 23.0849 11.4511C23.0586 11.4246 23.0258 11.3982 22.9928 11.3649C22.9402 11.312 22.8876 11.2589 22.835 11.2059C22.7956 11.1594 22.7495 11.1197 22.7101 11.0732V4.89344C22.7101 4.8868 22.7101 4.88018 22.7101 4.86692C23.0258 4.55528 23.3414 4.237 23.6571 3.92536C23.6703 3.9121 23.6768 3.89883 23.6834 3.88557C23.7163 3.85242 23.7295 3.81263 23.7295 3.77285V2.22128V1.65104C23.7689 1.59799 23.7953 1.53832 23.7953 1.47201C23.7953 1.31287 23.6637 1.18026 23.5058 1.18026C23.348 1.18026 23.2164 1.31287 23.2164 1.47201C23.2164 1.59799 23.2954 1.70409 23.4072 1.74387V3.69328V3.7198C23.0915 4.03144 22.7758 4.34972 22.4601 4.66136C22.4338 4.68788 22.4272 4.72767 22.4272 4.76082C22.4272 4.76745 22.4272 4.77409 22.4272 4.77409C22.4272 4.78071 22.4272 4.78071 22.4272 4.78735C22.4075 4.81387 22.3943 4.84702 22.3943 4.8868V11.04C22.3812 11.0666 22.3746 11.0931 22.3746 11.1197C22.3746 11.1528 22.3878 11.1926 22.414 11.2191L22.4206 11.2257C22.4338 11.2456 22.4535 11.2655 22.4733 11.2788C22.5259 11.3385 22.585 11.3982 22.6377 11.4511C22.6969 11.5108 22.7626 11.5705 22.8218 11.6302C22.4272 11.5374 22.0195 11.4843 21.6117 11.4644V7.01525C21.6117 7.00862 21.6117 7.00199 21.6117 6.99536C21.6248 6.94895 21.6117 6.8959 21.5787 6.86275C21.5722 6.85611 21.5656 6.84948 21.559 6.84948C21.5393 6.82959 21.5262 6.81633 21.5064 6.79644C21.4998 6.7898 21.4932 6.78318 21.4801 6.77654C21.467 6.76328 21.4538 6.75002 21.4341 6.73676C21.4012 6.71024 21.3749 6.68371 21.342 6.65057L21.3551 6.66383C21.342 6.65057 21.3223 6.63731 21.3026 6.61741C21.2894 6.60415 21.2762 6.59752 21.2564 6.58426C21.217 6.5511 21.1841 6.51795 21.1447 6.4848C21.1315 6.47154 21.1184 6.4649 21.1118 6.45164C21.0986 6.43838 21.0921 6.43176 21.0789 6.42512C21.0724 6.4185 21.0724 6.41849 21.0658 6.41186C21.0197 6.36545 20.9737 6.31903 20.9277 6.27261C20.8816 6.2262 20.8356 6.17978 20.783 6.13337C20.7501 6.10022 20.7106 6.06044 20.6777 6.02728C20.658 6.00739 20.6382 5.98749 20.6186 5.96761C20.612 5.96097 20.6054 5.94771 20.5922 5.94108L20.5725 5.92119C20.5593 5.90793 20.5396 5.89467 20.5265 5.8814V5.76206C20.533 5.76206 20.533 5.76868 20.5396 5.76868V0.517192C20.6054 0.464146 20.6514 0.384581 20.6514 0.291751C20.6514 0.132615 20.5199 0 20.362 0C20.2042 0.00663067 20.0727 0.139244 20.0727 0.29838ZM21.7498 14.7598C21.7827 14.7665 21.8221 14.7731 21.855 14.7798C21.9406 14.7997 22.026 14.8195 22.1115 14.8461C22.1773 14.866 22.2431 14.8859 22.3088 14.9124C22.322 14.919 22.3417 14.919 22.3548 14.9257C22.3614 14.9257 22.368 14.9323 22.3746 14.9323C22.5127 15.0052 22.6508 15.0781 22.7824 15.1709C22.7956 15.1776 22.8547 15.224 22.8613 15.2306C22.9139 15.2771 22.9599 15.3235 23.0126 15.3699C23.0586 15.4163 23.1047 15.4694 23.1507 15.5224C23.1704 15.5489 23.1967 15.5755 23.2164 15.602C23.2164 15.6086 23.223 15.6086 23.223 15.6153C23.302 15.7346 23.3809 15.854 23.4401 15.9866C23.4466 15.9998 23.4598 16.0197 23.473 16.0396C23.473 16.0462 23.4796 16.0595 23.4861 16.0728C23.519 16.1523 23.5453 16.2385 23.5716 16.3247C23.6111 16.4639 23.6374 16.6098 23.6702 16.7491V16.7557C23.6702 16.7955 23.6768 16.8286 23.6834 16.8684C23.69 16.9679 23.6966 17.0673 23.6966 17.1668C23.6966 17.3392 23.6966 17.505 23.6768 17.6774C23.6768 17.6906 23.6768 17.7172 23.6768 17.737C23.6768 17.7436 23.6702 17.7503 23.6702 17.7636C23.6571 17.8564 23.6374 17.9426 23.6177 18.0354C23.5847 18.1747 23.5387 18.3073 23.4927 18.4465C23.473 18.4797 23.4598 18.5194 23.4401 18.5526C23.4006 18.6255 23.3611 18.7051 23.3151 18.7714C23.2954 18.7979 23.2033 18.904 23.2033 18.9372C23.1901 18.9571 23.1704 18.9769 23.1573 18.9902C23.0586 19.103 22.9468 19.209 22.835 19.3085C22.8086 19.3284 22.7824 19.3483 22.7561 19.3616C22.6903 19.4013 22.6311 19.4411 22.5653 19.4809C22.5127 19.5074 22.4601 19.5339 22.4075 19.5605C22.3746 19.5671 22.2891 19.6069 22.2693 19.6136C22.1246 19.66 21.98 19.6997 21.8353 19.7262C21.8024 19.7329 21.7629 19.7395 21.73 19.7462C21.6445 19.7528 21.559 19.7594 21.4736 19.766C21.2894 19.7727 21.0986 19.7727 20.9145 19.7727C20.191 19.7727 19.4741 19.7727 18.7507 19.7727L18.7572 18.725C18.8493 18.6587 18.9085 18.5526 18.9085 18.4332C18.9085 18.2344 18.7507 18.0686 18.5533 18.0686C18.356 18.0686 18.1916 18.2277 18.1916 18.4266C18.1916 18.5526 18.2573 18.6653 18.356 18.7317L18.3494 19.766C18.1258 19.766 17.8956 19.766 17.672 19.766C17.672 19.282 17.672 18.7913 17.672 18.3073C17.672 17.1402 17.672 15.9733 17.672 14.8063C17.672 14.7798 17.672 14.7532 17.672 14.7267C18.6915 14.7267 19.7108 14.7267 20.7303 14.7267C20.9079 14.7267 21.0855 14.7267 21.263 14.7267C21.4077 14.7267 21.559 14.7267 21.7038 14.7466C21.684 14.7466 21.6906 14.7466 21.7498 14.7598ZM21.6972 14.7466C21.7103 14.7466 21.7169 14.7533 21.73 14.7533C21.7169 14.7533 21.7038 14.7533 21.6972 14.7466ZM23.4927 16.0528C23.4993 16.0661 23.5058 16.086 23.5058 16.0993C23.5058 16.0926 23.4993 16.0728 23.4927 16.0528ZM23.2164 18.904C23.2099 18.9107 23.2033 18.9173 23.2033 18.924C23.223 18.8974 23.302 18.8112 23.2164 18.904ZM22.3943 19.5605C22.3878 19.5605 22.3878 19.5671 22.3812 19.5671C22.2759 19.6201 22.3548 19.5737 22.3943 19.5605ZM18.8953 24.9976C18.8953 24.8783 18.8362 24.7655 18.7375 24.6993L18.7441 22.9488C19.4938 22.9488 20.2436 22.9488 20.9934 22.9488C21.1513 22.9488 21.3091 22.9488 21.4604 22.9488C21.6445 22.9488 21.8221 22.962 21.9997 22.9819C22.0063 22.9819 22.0063 22.9819 22.0129 22.9819C22.0457 22.9885 22.0852 22.9952 22.1181 23.0018C22.2036 23.0217 22.2957 23.0416 22.3812 23.0614C22.4667 23.0814 22.5522 23.1079 22.6311 23.1411C22.664 23.1543 22.6903 23.1676 22.7232 23.1742C22.8679 23.2471 23.006 23.3201 23.1441 23.4063C23.177 23.4262 23.2099 23.4527 23.2428 23.4792C23.2888 23.5124 23.2954 23.5256 23.2822 23.5256C23.3283 23.5654 23.3941 23.6052 23.4138 23.6251C23.5058 23.7113 23.6242 23.8174 23.7032 23.9301C23.7098 23.9433 23.7229 23.9699 23.736 23.9831C23.7623 24.0163 23.7821 24.0561 23.8084 24.0892C23.8479 24.1556 23.8873 24.2218 23.9268 24.2882C23.9662 24.3544 23.9991 24.4274 24.0321 24.4937C24.0451 24.5136 24.0517 24.5269 24.0517 24.5401C24.0583 24.5667 24.0649 24.5932 24.0715 24.6196C24.124 24.7788 24.1701 24.9445 24.203 25.117C24.2096 25.1634 24.2161 25.2098 24.2293 25.2563C24.2359 25.2761 24.2425 25.296 24.2425 25.3027C24.2557 25.3756 24.2491 25.4618 24.2491 25.5215C24.2623 25.7138 24.2623 25.906 24.2491 26.0983C24.2425 26.1845 24.2359 26.2708 24.2293 26.3635C24.2293 26.3834 24.2227 26.4034 24.2227 26.4099C24.2162 26.4431 24.2096 26.4763 24.203 26.5094C24.1636 26.7017 24.1175 26.894 24.0451 27.0797C24.0386 27.0995 24.0255 27.1394 24.0123 27.1659C24.0057 27.1791 23.9991 27.1858 23.9925 27.199C23.9465 27.2918 23.9004 27.3847 23.8479 27.4708C23.8018 27.5438 23.7558 27.6167 23.7098 27.6831C23.6966 27.7029 23.69 27.7096 23.6834 27.7162C23.6637 27.7361 23.644 27.756 23.6308 27.7759C23.5716 27.8488 23.5058 27.9152 23.4335 27.9814C23.4006 28.0146 23.2756 28.0875 23.2362 28.1472C23.2625 28.114 23.3085 28.1074 23.2494 28.1538C23.2428 28.1604 23.2362 28.1671 23.2296 28.1671C23.2296 28.1671 23.2296 28.1671 23.2296 28.1737C23.2296 28.1737 23.2296 28.1737 23.2296 28.1671C23.1967 28.1936 23.1639 28.2135 23.1243 28.2401C23.0454 28.293 22.9665 28.3394 22.8876 28.3859C22.8482 28.4058 22.8152 28.4257 22.7758 28.4456C22.7692 28.4522 22.7561 28.4522 22.7495 28.4589C22.6771 28.4655 22.5784 28.5251 22.5127 28.545C22.3417 28.5981 22.1181 28.6843 21.9405 28.6776C21.9602 28.6776 22.1049 28.6578 21.9668 28.671C21.9076 28.6776 21.855 28.6843 21.7958 28.6843C21.6774 28.6909 21.559 28.6976 21.4406 28.6976C20.1712 28.6976 18.9019 28.6976 17.6325 28.6976C17.6325 28.1273 17.6325 27.557 17.6325 26.9935C17.6325 25.7005 17.6325 24.4141 17.6325 23.1211C17.6325 23.0614 17.6325 23.0085 17.6325 22.9488C17.8627 22.9488 18.0929 22.9488 18.3231 22.9488L18.3429 24.6993C18.2442 24.7655 18.1784 24.8716 18.1784 24.9976C18.1784 25.1966 18.3363 25.3623 18.5336 25.3623C18.7309 25.3623 18.8953 25.1966 18.8953 24.9976ZM24.0583 24.5269C24.0517 24.507 24.0386 24.4738 24.0321 24.4738C24.0386 24.487 24.0451 24.507 24.0583 24.5269ZM23.7426 27.6831C23.7426 27.6897 23.736 27.6897 23.736 27.6963C23.736 27.6897 23.736 27.6831 23.7426 27.6831Z" fill="white"/>
<path d="M2.39361 16.404H8.39189H11.0425C11.0951 16.477 11.1806 16.5301 11.2793 16.5301C11.4371 16.5301 11.5686 16.3975 11.5686 16.2383C11.5686 16.0792 11.4371 15.9465 11.2793 15.9465C11.1806 15.9465 11.0885 15.9996 11.0359 16.0792H5.74791H2.40018C2.34757 15.9996 2.26207 15.9465 2.16342 15.9465C2.00556 15.9465 1.87402 16.0792 1.87402 16.2383C1.87402 16.3975 2.00556 16.5301 2.16342 16.5301C2.25549 16.5301 2.341 16.477 2.39361 16.404Z" fill="white"/>
<path d="M39.449 19.3084H34.161H30.8132C30.7606 19.2288 30.6751 19.1758 30.5765 19.1758C30.4186 19.1758 30.2871 19.3084 30.2871 19.4675C30.2871 19.6267 30.4186 19.7593 30.5765 19.7593C30.6751 19.7593 30.7606 19.7062 30.8132 19.6333H36.8116H39.4555C39.5081 19.7062 39.5936 19.7593 39.6923 19.7593C39.8502 19.7593 39.9817 19.6267 39.9817 19.4675C39.9817 19.3084 39.8502 19.1758 39.6923 19.1758C39.5936 19.1758 39.5015 19.2288 39.449 19.3084Z" fill="white"/>
<path d="M22.0854 16.4905C22.0854 16.5898 22.1381 16.6827 22.217 16.7357V16.9347V17.6574C22.1643 17.7105 22.1118 17.7702 22.0526 17.8298C21.9933 17.8961 21.9341 17.9558 21.8684 18.0221C21.8092 18.0818 21.7501 18.148 21.6908 18.2144C21.6777 18.2277 21.6711 18.2343 21.658 18.2475C21.6448 18.2475 21.6316 18.2409 21.6184 18.2409C21.4606 18.2409 21.3291 18.3736 21.3291 18.5327C21.3291 18.6918 21.4606 18.8244 21.6184 18.8244C21.7763 18.8244 21.9079 18.6918 21.9079 18.5327C21.9079 18.5062 21.9013 18.4796 21.8947 18.4598C21.9013 18.4531 21.9013 18.4531 21.9079 18.4465C21.9671 18.3801 22.0262 18.3072 22.0854 18.2475C22.1446 18.1879 22.2104 18.1216 22.2696 18.0552C22.3288 17.9956 22.3814 17.9226 22.4406 17.8696C22.4472 17.863 22.4472 17.863 22.4538 17.8564L22.4603 17.8497C22.4735 17.8298 22.48 17.8099 22.4866 17.79C22.4998 17.7635 22.513 17.7369 22.513 17.7038V17.3789V16.9413V16.7357C22.5853 16.6827 22.6379 16.5965 22.6379 16.497C22.6379 16.3379 22.5064 16.2053 22.3485 16.2053C22.217 16.1987 22.0854 16.3313 22.0854 16.4905Z" fill="white"/>
<path d="M22.822 26.1513V26.3503C22.7431 26.4033 22.6905 26.4962 22.6905 26.5957C22.6905 26.7547 22.822 26.8873 22.9799 26.8873C23.1377 26.8873 23.2693 26.7547 23.2693 26.5957C23.2693 26.4962 23.2232 26.41 23.1443 26.3569V26.1513V25.7138V25.3888C23.1443 25.3557 23.1377 25.3291 23.118 25.3027C23.1115 25.2827 23.1049 25.2629 23.0917 25.243L23.0851 25.2363C23.0786 25.2298 23.0786 25.2298 23.072 25.2231C23.0128 25.1634 22.9536 25.0971 22.901 25.0374C22.8418 24.9711 22.7826 24.9114 22.7169 24.8451C22.6511 24.7788 22.5984 24.7125 22.5392 24.6462C22.5327 24.6395 22.5327 24.6396 22.5261 24.633C22.5327 24.6064 22.5392 24.5866 22.5392 24.56C22.5392 24.4009 22.4077 24.2683 22.2499 24.2683C22.092 24.2683 21.9604 24.4009 21.9604 24.56C21.9604 24.7192 22.092 24.8518 22.2499 24.8518C22.263 24.8518 22.2761 24.8518 22.2893 24.8451C22.3025 24.8584 22.309 24.8716 22.3222 24.8783C22.3814 24.9446 22.4406 25.0109 22.4998 25.0706C22.559 25.1369 22.6182 25.1965 22.6839 25.2629C22.7365 25.3226 22.7892 25.3822 22.8484 25.4353V26.1513H22.822Z" fill="white"/>
<path d="M57.0172 16.6111C60.6943 16.6111 62.9758 14.1931 62.9758 10.3175V10.3007C62.9758 6.43342 60.686 4.01538 57.0172 4.01538C53.3734 4.01538 51.0669 6.43342 51.0669 10.3007V10.3175C51.0669 14.1931 53.3568 16.6111 57.0172 16.6111ZM57.0172 14.0499C55.2956 14.0499 54.1925 12.626 54.1925 10.3175V10.3007C54.1925 7.99209 55.304 6.57666 57.0172 6.57666C58.7471 6.57666 59.8586 8.00052 59.8586 10.3007V10.3175C59.8586 12.6007 58.7722 14.0499 57.0172 14.0499ZM65.1564 16.3921H68.2151V9.29797H68.2736L73.1207 16.3921H75.6947V4.23443H72.636V11.2527H72.5775L67.7554 4.23443H65.1564V16.3921ZM78.2095 16.3921H86.2657V13.9066H81.2766V4.23443H78.2095V16.3921ZM88.3546 16.3921H91.4217V4.23443H88.3546V16.3921ZM93.936 16.3921H96.9953V9.29797H97.0535L101.901 16.3921H104.475V4.23443H101.416V11.2527H101.357L96.5349 4.23443H93.936V16.3921ZM106.989 16.3921H115.255V13.9066H110.056V11.4465H114.945V9.12111H110.056V6.71988H115.255V4.23443H106.989V16.3921Z" fill="#69A5FF"/>
<path d="M51.4014 38.8235H57.1594C59.7417 38.8235 61.3713 37.4586 61.3713 35.3438V35.327C61.3713 33.7346 60.076 32.5298 58.4296 32.4455V32.3866C59.8002 32.2097 60.8449 31.1144 60.8449 29.7411V29.7242C60.8449 27.8285 59.3991 26.6658 57.009 26.6658H51.4014V38.8235ZM56.1983 28.848C57.2346 28.848 57.853 29.3535 57.853 30.196V30.2128C57.853 31.1228 57.2012 31.662 55.9726 31.662H54.4684V28.848H56.1983ZM56.1983 33.6083C57.5438 33.6083 58.2542 34.139 58.2542 35.108V35.1248C58.2542 36.1106 57.5438 36.6413 56.2902 36.6413H54.4684V33.6083H56.1983ZM68.9673 39.0425C72.6445 39.0425 74.926 36.6245 74.926 32.7489V32.732C74.926 28.8648 72.6361 26.4468 68.9673 26.4468C65.3236 26.4468 63.0171 28.8648 63.0171 32.732V32.7489C63.0171 36.6245 65.3069 39.0425 68.9673 39.0425ZM68.9673 36.4813C67.2458 36.4813 66.1426 35.0574 66.1426 32.7489V32.732C66.1426 30.4235 67.2542 29.008 68.9673 29.008C70.6973 29.008 71.8087 30.4319 71.8087 32.732V32.7489C71.8087 35.0321 70.7223 36.4813 68.9673 36.4813ZM82.7225 39.0425C86.3993 39.0425 88.6808 36.6245 88.6808 32.7489V32.732C88.6808 28.8648 86.3916 26.4468 82.7225 26.4468C79.0787 26.4468 76.7722 28.8648 76.7722 32.732V32.7489C76.7722 36.6245 79.0621 39.0425 82.7225 39.0425ZM82.7225 36.4813C81.0009 36.4813 79.8978 35.0574 79.8978 32.7489V32.732C79.8978 30.4235 81.0093 29.008 82.7225 29.008C84.4524 29.008 85.5639 30.4319 85.5639 32.732V32.7489C85.5639 35.0321 84.4774 36.4813 82.7225 36.4813ZM90.8613 38.8235H93.9284V35.3859L94.9647 34.0295L97.9736 38.8235H101.576L97.2051 32.0412L101.333 26.6658H98.0489L93.9874 32.0159H93.9284V26.6658H90.8613V38.8235ZM103.196 38.8235H105.895V31.2239H105.962L108.912 38.8235H110.667L113.617 31.2239H113.685V38.8235H116.384V26.6658H112.84L109.815 34.6108H109.764L106.739 26.6658H103.196V38.8235ZM118.221 38.8235H121.439L122.191 36.1527H126.128L126.88 38.8235H130.097L126.035 26.6658H122.283L118.221 38.8235ZM124.13 29.3114H124.188L125.493 33.9284H122.826L124.13 29.3114ZM131.943 38.8235H135.01V35.3859L136.047 34.0295L139.055 38.8235H142.657L138.286 32.0412L142.415 26.6658H139.13L135.069 32.0159H135.01V26.6658H131.943V38.8235ZM144.278 38.8235H152.543V36.338H147.345V33.8779H152.234V31.5525H147.345V29.1513H152.543V26.6658H144.278V38.8235ZM154.958 38.8235H158.025V34.6361H159.587L161.66 38.8235H165.103L162.688 34.1727C163.941 33.6251 164.743 32.277 164.743 30.7184V30.7015C164.743 28.1234 163.098 26.6658 160.18 26.6658H154.958V38.8235ZM158.025 32.395V28.9996H159.821C160.899 28.9996 161.618 29.6736 161.618 30.6931V30.7099C161.618 31.7378 160.924 32.395 159.838 32.395H158.025ZM171.621 39.0425C174.813 39.0425 176.702 37.5007 176.702 35.0742V35.0658C176.702 33.1196 175.515 32.0748 172.958 31.5778L171.721 31.3418C170.426 31.0975 169.857 30.752 169.857 30.0949V30.0864C169.857 29.3872 170.492 28.8732 171.621 28.8732C172.724 28.8732 173.501 29.3704 173.593 30.1707L173.601 30.2634H176.451L176.443 30.0864C176.335 27.8791 174.621 26.4468 171.595 26.4468C168.83 26.4468 166.815 27.9549 166.815 30.2971V30.3056C166.815 32.1676 168.077 33.3555 170.468 33.802L171.704 34.0379C173.117 34.316 173.652 34.6361 173.652 35.327V35.3354C173.652 36.0936 172.9 36.616 171.679 36.616C170.501 36.616 169.598 36.1021 169.448 35.3186L169.431 35.2259H166.581L166.59 35.3776C166.724 37.7029 168.621 39.0425 171.621 39.0425Z" fill="#69A5FF"/>
</svg>
