<svg width="207" height="51" viewBox="0 0 207 51" fill="none" xmlns="http://www.w3.org/2000/svg">
<path d="M23.3253 42.9008C33.1176 42.9008 41.0559 34.9626 41.0559 25.1703C41.0559 15.3779 33.1176 7.4397 23.3253 7.4397C13.533 7.4397 5.59473 15.3779 5.59473 25.1703C5.59473 34.9626 13.533 42.9008 23.3253 42.9008Z" fill="#69A5FF"/>
<path d="M34.5844 4.8496C33.8466 4.8496 33.1011 4.8496 32.3633 4.8496C30.5726 4.8496 28.7818 4.8496 26.9911 4.8496C24.8084 4.8496 22.6257 4.8496 20.443 4.8496C18.56 4.8496 16.6848 4.8496 14.8018 4.8496C13.8872 4.8496 12.9726 4.82655 12.0658 4.8496C12.0504 4.8496 12.0427 4.8496 12.0273 4.8496C11.766 4.8496 11.5124 4.99563 11.3817 5.21851C11.0051 5.87179 10.6286 6.52506 10.252 7.17833C9.34507 8.74618 8.43818 10.314 7.53897 11.8819C6.44762 13.7725 5.35627 15.6632 4.26492 17.5615C3.32728 19.1832 2.38964 20.8048 1.45201 22.4341C1.00625 23.2104 0.522056 23.9713 0.107036 24.7629C-0.12353 25.1933 0.0609229 25.4853 0.260747 25.8388C0.491314 26.2385 0.72188 26.6381 0.952447 27.0455C1.80554 28.5211 2.65864 30.0044 3.51173 31.48C4.5954 33.363 5.68675 35.246 6.77041 37.1289C7.74648 38.8197 8.72254 40.5182 9.70629 42.2091C10.2443 43.139 10.7746 44.0613 11.3126 44.9912C11.3356 45.0374 11.3664 45.0758 11.3894 45.1219C11.5201 45.3525 11.7737 45.4908 12.035 45.4908C12.7882 45.4908 13.5414 45.4908 14.2946 45.4908C16.0853 45.4908 17.876 45.4908 19.6668 45.4908C21.8495 45.4908 24.0322 45.4908 26.2149 45.4908C28.0978 45.4908 29.9731 45.4908 31.856 45.4908C32.7706 45.4908 33.6852 45.5139 34.5921 45.4908C34.6075 45.4908 34.6152 45.4908 34.6305 45.4908C34.8918 45.4908 35.1455 45.3448 35.2761 45.1219C35.6527 44.4686 36.0293 43.8153 36.4059 43.1621C37.3128 41.5942 38.2197 40.0264 39.1189 38.4585C40.2102 36.5679 41.3016 34.6772 42.3929 32.7789C43.3306 31.1572 44.2682 29.5356 45.2059 27.9063C45.6516 27.13 46.1358 26.3691 46.5508 25.5775C46.7814 25.1471 46.5969 24.8551 46.3971 24.5016C46.1666 24.1019 45.936 23.7023 45.7054 23.2949C44.8523 21.8193 43.9992 20.336 43.1461 18.8604C42.0625 16.9774 40.9711 15.0944 39.8875 13.2115C38.9114 11.5207 37.9353 9.82216 36.9516 8.13133C36.4136 7.20138 35.8833 6.27912 35.3453 5.34916C35.3222 5.30305 35.2915 5.26463 35.2684 5.21851C35.2146 5.12629 35.1378 5.04943 35.0532 4.98795C34.9456 4.91109 34.815 4.85729 34.669 4.8496C34.6613 4.8496 34.6536 4.8496 34.6382 4.8496C34.6305 4.8496 34.6228 4.8496 34.6152 4.8496C34.6075 4.8496 34.6075 4.8496 34.5998 4.8496C34.5998 4.8496 34.5921 4.8496 34.5844 4.8496ZM37.797 12.6043C38.8806 14.4873 39.9643 16.3626 41.0557 18.2455C42.001 19.8749 42.9386 21.5042 43.8839 23.1412C44.2759 23.8175 44.6448 24.5169 45.0521 25.1856C44.7524 25.7005 44.4527 26.2231 44.1529 26.7381C43.2537 28.2982 42.3545 29.8584 41.4553 31.4186C40.3716 33.3015 39.288 35.1768 38.1966 37.0597C37.2513 38.6891 36.3137 40.3184 35.3684 41.9555C34.9764 42.6318 34.5537 43.3081 34.1771 43.9921C33.5776 43.9921 32.9705 43.9921 32.371 43.9921C30.5803 43.9921 28.7895 43.9921 26.9988 43.9921C24.8161 43.9921 22.6334 43.9921 20.4507 43.9921C18.5677 43.9921 16.6925 43.9921 14.8095 43.9921C14.0256 43.9921 13.2416 43.9614 12.4577 43.9767C12.158 43.4541 11.8582 42.9315 11.5585 42.4166C10.6593 40.8564 9.76009 39.2962 8.86088 37.7361C7.77722 35.8531 6.69355 33.9778 5.60221 32.0949C4.65688 30.4655 3.71925 28.8362 2.77392 27.1992C2.38196 26.5229 2.01305 25.8235 1.60572 25.1548C1.90546 24.6399 2.20519 24.1173 2.50493 23.6023C3.40414 22.0422 4.30335 20.482 5.20256 18.9219C6.28622 17.0389 7.36988 15.1636 8.46123 13.2807C9.40656 11.6513 10.3442 10.022 11.2895 8.38496C11.6815 7.70863 12.1042 7.0323 12.4808 6.34829C13.0802 6.34829 13.6874 6.34829 14.2869 6.34829C16.0776 6.34829 17.8683 6.34829 19.6591 6.34829C21.8418 6.34829 24.0245 6.34829 26.2072 6.34829C28.0901 6.34829 29.9654 6.34829 31.8484 6.34829C32.6323 6.34829 33.4162 6.36366 34.2001 6.35597C34.4999 6.87859 34.8073 7.40121 35.107 7.92382C35.9986 9.49168 36.8978 11.0518 37.797 12.6043Z" fill="#69A5FF"/>
<path d="M27.168 32.6476C27.168 32.6401 27.1754 32.6327 27.1754 32.6252C27.1754 32.6401 27.1754 32.6401 27.168 32.6476Z" fill="white"/>
<path d="M27.2218 27.276C27.1987 27.2529 27.1757 27.2375 27.168 27.2222C27.1833 27.2606 27.2141 27.276 27.2218 27.276Z" fill="white"/>
<path d="M2.7971 30.0889H9.80633H12.9036C12.9651 30.1734 13.065 30.2349 13.1803 30.2349C13.3647 30.2349 13.5184 30.0812 13.5184 29.8968C13.5184 29.7123 13.3647 29.5586 13.1803 29.5586C13.065 29.5586 12.9574 29.6201 12.8959 29.7123H6.71673H2.80479C2.7433 29.6201 2.64339 29.5586 2.52811 29.5586C2.34365 29.5586 2.18994 29.7123 2.18994 29.8968C2.18994 30.0812 2.34365 30.2349 2.52811 30.2349C2.63571 30.2349 2.73562 30.1734 2.7971 30.0889Z" fill="white"/>
<path d="M34.3925 28.9516C34.3311 28.8593 34.2235 28.7979 34.1082 28.7979C33.9237 28.7979 33.77 28.9516 33.77 29.136C33.77 29.3205 33.9237 29.4742 34.1082 29.4742C34.2235 29.4742 34.3234 29.4204 34.3849 29.3282H37.4745H44.4837C44.5452 29.4204 44.6451 29.4742 44.7604 29.4742C44.9448 29.4742 45.0985 29.3205 45.0985 29.136C45.0985 28.9516 44.9448 28.7979 44.7604 28.7979C44.6451 28.7979 44.5375 28.8593 44.4837 28.9516H40.5717H34.3925Z" fill="white"/>
<path d="M25.0853 47.0048L25.0776 47.0125C25.0623 47.0355 25.0546 47.0586 25.0469 47.0816C25.0315 47.1124 25.0161 47.1431 25.0161 47.1815V47.5581V48.0654V48.3036C24.9316 48.3651 24.8701 48.465 24.8701 48.5803C24.8701 48.7648 25.0238 48.9185 25.2083 48.9185C25.3927 48.9185 25.5464 48.7648 25.5464 48.5803C25.5464 48.465 25.485 48.3574 25.3927 48.2959V48.0654V47.2277C25.4542 47.1662 25.5157 47.097 25.5849 47.0278C25.654 46.951 25.7232 46.8818 25.8001 46.8049C25.8692 46.7358 25.9384 46.6589 26.0076 46.5821C26.0229 46.5667 26.0306 46.559 26.046 46.5436C26.0614 46.5436 26.0767 46.5513 26.0921 46.5513C26.2766 46.5513 26.4303 46.3976 26.4303 46.2132C26.4303 46.0287 26.2766 45.875 26.0921 45.875C25.9077 45.875 25.754 46.0287 25.754 46.2132C25.754 46.2439 25.7616 46.2746 25.7693 46.2977C25.7616 46.3054 25.7616 46.3054 25.754 46.3131C25.6848 46.3899 25.6156 46.4745 25.5464 46.5436C25.4773 46.6128 25.4004 46.6897 25.3312 46.7665C25.2621 46.8357 25.2006 46.9202 25.1314 46.9817C25.1007 46.9971 25.093 46.9971 25.0853 47.0048Z" fill="white"/>
<path d="M25.7 3.68897C25.6308 3.61211 25.5616 3.54294 25.4848 3.46608C25.4233 3.39691 25.3618 3.32775 25.2926 3.26626V2.42853V2.19797C25.3849 2.13648 25.4463 2.02889 25.4463 1.91361C25.4463 1.72915 25.2926 1.57544 25.1082 1.57544C24.9237 1.57544 24.77 1.72915 24.77 1.91361C24.77 2.02889 24.8238 2.1288 24.916 2.19028V2.42853V2.93578V3.31237C24.916 3.3508 24.9237 3.38155 24.9468 3.41229C24.9545 3.43534 24.9622 3.4584 24.9775 3.48146L24.9852 3.48914C24.9929 3.49683 24.9929 3.49683 25.0006 3.50451C25.0698 3.57368 25.1389 3.65054 25.2004 3.71971C25.2696 3.79657 25.3388 3.86573 25.4156 3.94259C25.4925 4.01944 25.5539 4.0963 25.6231 4.17316C25.6308 4.18084 25.6308 4.18084 25.6385 4.18853C25.6308 4.21927 25.6231 4.24232 25.6231 4.27307C25.6231 4.45752 25.7768 4.61123 25.9613 4.61123C26.1457 4.61123 26.2994 4.45752 26.2994 4.27307C26.2994 4.08861 26.1457 3.9349 25.9613 3.9349C25.9459 3.9349 25.9305 3.9349 25.9152 3.94259C25.8998 3.92722 25.8921 3.91185 25.8767 3.90416C25.8383 3.83499 25.7691 3.75814 25.7 3.68897Z" fill="white"/>
<path d="M23.4561 0.34585C23.4561 0.468819 23.5252 0.576415 23.6251 0.6379V0.922266C23.6175 0.922266 23.6175 0.922266 23.6098 0.922266V6.8632C23.6098 6.88625 23.6175 6.90931 23.6251 6.92468C23.6251 6.96311 23.6405 7.00153 23.6713 7.03996C23.6866 7.05533 23.702 7.07839 23.7174 7.09376C23.7327 7.10913 23.7558 7.12451 23.7712 7.13988C23.7865 7.15525 23.8096 7.1783 23.825 7.19367C23.8326 7.20136 23.8326 7.20136 23.8403 7.20905C23.848 7.21673 23.848 7.21673 23.8557 7.22442C23.8711 7.23979 23.8864 7.25516 23.9018 7.27053C23.9402 7.30896 23.9787 7.34738 24.0171 7.38581C24.0786 7.43961 24.1401 7.5011 24.1939 7.5549C24.2554 7.61638 24.3092 7.67018 24.3706 7.73166C24.386 7.74703 24.3937 7.75472 24.4091 7.77009C24.4629 7.8162 24.509 7.86232 24.5628 7.90843C24.5858 7.93149 24.6166 7.96223 24.6473 7.98529C24.6704 8.00066 24.6934 8.01603 24.7088 8.0314C24.7242 8.04677 24.7395 8.06214 24.7626 8.07751C24.7857 8.10057 24.8087 8.12363 24.8318 8.14668C24.8471 8.16206 24.8548 8.16974 24.8702 8.18511V13.3267C24.6627 13.3267 24.4552 13.3267 24.2477 13.3267C24.1631 13.3267 24.0709 13.3267 23.9864 13.3267V9.4148C24.0709 9.35332 24.1324 9.2534 24.1324 9.13812C24.1324 8.95367 23.9787 8.79996 23.7942 8.79996C23.6098 8.79996 23.4561 8.95367 23.4561 9.13812C23.4561 9.2534 23.5175 9.361 23.6098 9.42248V13.2883C23.3638 13.2883 23.1179 13.2883 22.872 13.2883V11.4207V4.35002C22.9334 4.28854 22.9796 4.204 22.9796 4.10409C22.9796 3.91963 22.8258 3.76592 22.6414 3.76592C22.4569 3.76592 22.3032 3.91963 22.3032 4.10409C22.3032 4.23474 22.3801 4.35002 22.4954 4.40382V8.69236V13.2806C22.0803 13.2806 21.673 13.2806 21.258 13.2806V10.8443V3.89658C21.3118 3.83509 21.3425 3.75823 21.3425 3.67369C21.3425 3.48924 21.1888 3.33553 21.0044 3.33553C20.8199 3.33553 20.6662 3.48924 20.6662 3.67369C20.6662 3.81203 20.7584 3.935 20.8814 3.9888V7.54721V13.2806C20.8045 13.2806 20.7354 13.2806 20.6585 13.2806C20.4664 13.2806 20.2742 13.2806 20.0821 13.2806C20.0821 12.1047 20.0898 10.9289 20.0898 9.76065C20.1205 9.74528 20.1436 9.72991 20.1666 9.70685C20.2973 9.5762 20.2973 9.361 20.1666 9.23034C20.036 9.09969 19.8208 9.09969 19.6901 9.23034C19.5595 9.361 19.5595 9.5762 19.6901 9.70685C19.6978 9.71454 19.7055 9.72222 19.7132 9.72991C19.7132 10.9135 19.7055 12.1047 19.7055 13.2883C19.644 13.2883 19.5902 13.2883 19.5287 13.2883C18.6603 12.4199 17.7995 11.5591 16.931 10.6906C16.3854 10.1449 15.8397 9.60694 15.3017 9.06127C15.3017 9.03821 15.3094 9.02284 15.3094 8.99978C15.3094 8.81533 15.1557 8.66162 14.9712 8.66162C14.7868 8.66162 14.633 8.81533 14.633 8.99978C14.633 9.18423 14.7868 9.33794 14.9712 9.33794C14.9943 9.33794 15.0173 9.33795 15.0404 9.33026C16.3623 10.6522 17.6765 11.9664 18.9984 13.2883C18.6449 13.2883 18.2837 13.2883 17.9301 13.2883C17.9148 13.2883 17.8917 13.2883 17.8763 13.2883C17.6996 13.2883 17.5151 13.3575 17.3768 13.4651C16.8157 12.904 16.247 12.3353 15.686 11.7743C15.686 11.5898 15.5323 11.4361 15.3478 11.4361C15.1633 11.4361 15.0096 11.5898 15.0096 11.7743C15.0096 11.9587 15.1633 12.1124 15.3478 12.1124C15.3862 12.1124 15.4323 12.1047 15.4631 12.0894C16.0164 12.6427 16.5698 13.1961 17.1308 13.7571C17.0694 13.8724 17.0386 13.9954 17.0463 14.1337C17.0463 14.3566 17.0463 14.5718 17.0463 14.7947H17.0386H16.0472C15.9857 14.7025 15.8858 14.641 15.7628 14.641C15.5784 14.641 15.4247 14.7947 15.4247 14.9791C15.4247 15.1636 15.5784 15.3173 15.7628 15.3173C15.8781 15.3173 15.978 15.2558 16.0395 15.1713H17.0309H17.0386C17.0386 15.5556 17.0386 15.9398 17.0386 16.3318H14.0489C14.0336 16.3318 14.0259 16.3318 14.0182 16.3318C12.8116 15.1329 11.6126 13.9262 10.406 12.7273C10.406 12.7196 10.406 12.7119 10.406 12.7119C10.406 12.5275 10.2523 12.3737 10.0678 12.3737C9.88337 12.3737 9.72966 12.5275 9.72966 12.7119C9.72966 12.8964 9.88337 13.0501 10.0678 13.0501C10.1063 13.0501 10.1447 13.0424 10.1754 13.027C11.3974 14.249 12.6194 15.471 13.8414 16.693C13.9106 16.7622 14.0182 16.7622 14.0951 16.7007H17.054C17.054 16.939 17.054 17.1772 17.054 17.4155H13.3342H7.16269C7.1012 17.3386 7.00898 17.2848 6.90138 17.2848C6.71693 17.2848 6.56322 17.4385 6.56322 17.623C6.56322 17.8074 6.71693 17.9611 6.90138 17.9611C7.02435 17.9611 7.13195 17.892 7.19343 17.7921H14.3487H17.054C17.054 18.0841 17.054 18.3762 17.054 18.6682H15.8781C15.8166 18.5606 15.709 18.4837 15.5784 18.4837C15.3939 18.4837 15.2402 18.6375 15.2402 18.8219C15.2402 19.0064 15.3939 19.1601 15.5784 19.1601C15.6783 19.1601 15.7705 19.114 15.832 19.0448H17.054C17.054 19.3753 17.054 19.7058 17.054 20.0362H12.9499H11.3436C11.2821 19.944 11.1745 19.8748 11.0593 19.8748C10.8748 19.8748 10.7211 20.0285 10.7211 20.213C10.7211 20.3975 10.8748 20.5512 11.0593 20.5512C11.1669 20.5512 11.2668 20.4974 11.3283 20.4128H17.054C17.054 20.7894 17.054 21.1737 17.054 21.5503H10.967H7.62382C7.56234 21.4657 7.46243 21.4043 7.34714 21.4043C7.16269 21.4043 7.00898 21.558 7.00898 21.7424C7.00898 21.9269 7.16269 22.0806 7.34714 22.0806C7.46243 22.0806 7.57002 22.0191 7.63151 21.9269H14.2872H17.054C17.054 22.3342 17.054 22.7492 17.054 23.1566H15.0096C14.9482 23.0567 14.8406 22.9952 14.7253 22.9952C14.5408 22.9952 14.3871 23.1489 14.3871 23.3333C14.3871 23.5178 14.5408 23.6715 14.7253 23.6715C14.8329 23.6715 14.9328 23.6177 14.9943 23.5332H17.054C17.054 23.9635 17.054 24.3939 17.054 24.832H11.8662H5.03379C4.9723 24.7475 4.87239 24.686 4.75711 24.686C4.57266 24.686 4.41895 24.8397 4.41895 25.0242C4.41895 25.2086 4.57266 25.3623 4.75711 25.3623C4.87239 25.3623 4.97999 25.3008 5.04148 25.2086H11.7663H17.054C17.054 25.5391 17.054 25.8696 17.054 26.2H12.1814H11.2514C11.1899 26.1078 11.09 26.054 10.9747 26.054C10.7903 26.054 10.6366 26.2077 10.6366 26.3922C10.6366 26.5766 10.7903 26.7303 10.9747 26.7303C11.09 26.7303 11.1976 26.6689 11.2591 26.5766H17.054C17.054 26.8456 17.054 27.1069 17.054 27.3759H11.8509H11.4282C11.4128 27.3606 11.3974 27.3452 11.3744 27.3298C10.8979 26.9686 10.429 26.6074 9.95254 26.2462C9.92949 26.2231 9.89106 26.2231 9.85263 26.2231C9.82957 26.2154 9.80652 26.2077 9.78346 26.2077H7.08583H6.17125C6.10977 26.1309 6.01754 26.0771 5.90994 26.0771C5.72549 26.0771 5.57178 26.2308 5.57178 26.4152C5.57178 26.5997 5.72549 26.7534 5.90994 26.7534C6.03291 26.7534 6.14051 26.6842 6.20199 26.5843H9.78346C10.2523 26.9455 10.7211 27.2991 11.1899 27.6603C11.1976 27.668 11.213 27.6757 11.2283 27.6757C11.2591 27.7218 11.3206 27.7525 11.3821 27.7525H17.054C17.054 27.8371 17.054 27.9216 17.054 28.0061C17.054 28.1829 17.054 28.3674 17.054 28.5441H16.5621C16.5006 28.4365 16.393 28.3674 16.2624 28.3674C16.0779 28.3674 15.9242 28.5211 15.9242 28.7055C15.9242 28.89 16.0779 29.0437 16.2624 29.0437C16.3623 29.0437 16.4545 28.9976 16.516 28.9207H17.0463C17.0463 29.1897 17.0463 29.451 17.0463 29.72H16.0856C16.0779 29.7123 16.0779 29.7047 16.0702 29.7047C15.7628 29.3895 15.4554 29.0821 15.1557 28.767C15.1557 28.767 15.1557 28.767 15.148 28.7593C15.1326 28.744 15.1172 28.7286 15.1019 28.7132C15.0404 28.6517 14.9482 28.6441 14.8713 28.6825C14.8406 28.6517 14.7944 28.6364 14.7483 28.6364H8.73054C8.66906 28.5595 8.57683 28.5134 8.46923 28.5134C8.28478 28.5134 8.13107 28.6671 8.13107 28.8516C8.13107 29.036 8.28478 29.1897 8.46923 29.1897C8.5922 29.1897 8.70748 29.1206 8.76128 29.013H14.7406C14.7791 29.013 14.8098 29.0053 14.8329 28.9822C14.8482 28.9976 14.8559 29.0053 14.8636 29.0206C15.171 29.3357 15.4785 29.6432 15.7782 29.9583C15.7936 29.9736 15.8166 29.989 15.8397 29.9967C15.8704 30.0505 15.9319 30.0812 15.9934 30.0812H17.054C17.054 30.4425 17.054 30.8114 17.054 31.1726H12.4427C12.3812 31.0957 12.2889 31.0419 12.1814 31.0419C11.9969 31.0419 11.8432 31.1957 11.8432 31.3801C11.8432 31.5646 11.9969 31.7183 12.1814 31.7183C12.3043 31.7183 12.4119 31.6491 12.4734 31.5492H17.054C17.054 31.8182 17.054 32.0795 17.054 32.3485H12.727H11.5435C11.5281 32.3331 11.5127 32.3254 11.4973 32.3101C10.9901 31.9181 10.4752 31.5261 9.96791 31.1342C9.93717 31.1111 9.89106 31.1034 9.85263 31.1111C9.82189 31.0881 9.78346 31.0727 9.74504 31.0727H7.63919C7.57771 30.9728 7.47011 30.9036 7.34714 30.9036C7.16269 30.9036 7.00898 31.0573 7.00898 31.2418C7.00898 31.4262 7.16269 31.5799 7.34714 31.5799C7.45474 31.5799 7.54696 31.5261 7.60845 31.4493H9.73735C9.74503 31.4493 9.75272 31.4493 9.7604 31.4493C9.76809 31.4493 9.76809 31.457 9.77578 31.4646C10.283 31.8566 10.7903 32.2409 11.3052 32.6328C11.3359 32.6866 11.3974 32.7251 11.4666 32.7251H17.054C17.054 32.9864 17.054 33.24 17.054 33.5013C17.054 33.5397 17.054 33.5782 17.054 33.6243H13.7723H13.6647H12.9038H10.0525C9.99097 33.5474 9.89874 33.5013 9.79883 33.5013C9.61438 33.5013 9.46067 33.655 9.46067 33.8395C9.46067 34.0239 9.61438 34.1776 9.79883 34.1776C9.9218 34.1776 10.0371 34.1008 10.0909 34.0009H13.6724H17.0002H17.0617C17.0617 34.4159 17.054 34.8309 17.054 35.2459C16.3008 35.2536 15.5399 35.2613 14.7868 35.269C14.7868 35.269 14.7868 35.269 14.7791 35.269C14.756 35.269 14.733 35.269 14.7099 35.269C14.6792 35.269 14.6484 35.269 14.6177 35.269C14.6023 35.2459 14.5869 35.2229 14.5716 35.2075C14.4409 35.0769 14.2257 35.0769 14.0951 35.2152C13.9644 35.3458 13.9644 35.561 14.1027 35.6917C14.2334 35.8224 14.4486 35.8224 14.5792 35.6917C14.5946 35.6763 14.6023 35.6686 14.61 35.6533C14.6484 35.6533 14.6868 35.6533 14.7176 35.6533C15.4938 35.6456 16.2778 35.6379 17.0617 35.6225C17.0617 35.807 17.0617 35.9991 17.0694 36.1836C17.0694 36.1989 17.0694 36.2066 17.0694 36.222C17.0694 36.368 17.1078 36.5064 17.1846 36.6293C16.3239 37.4978 15.4631 38.3586 14.6023 39.2271C13.6493 40.1877 12.6963 41.1484 11.7433 42.1091C11.7202 42.1091 11.7048 42.1015 11.6818 42.1015C11.4973 42.1015 11.3436 42.2552 11.3436 42.4396C11.3436 42.6241 11.4973 42.7778 11.6818 42.7778C11.8662 42.7778 12.02 42.6241 12.02 42.4396C12.02 42.4166 12.02 42.3935 12.0123 42.3704C13.68 40.695 15.3478 39.0119 17.0079 37.3364C17.1539 37.1904 17.2922 37.0444 17.4383 36.906C17.5689 36.9982 17.7303 37.052 17.9071 37.052C17.9301 37.052 17.9532 37.052 17.9763 37.052C17.9763 37.7975 17.9763 38.543 17.9839 39.2962C17.9686 39.3039 17.9609 39.3116 17.9532 39.3193L14.5562 42.7163C14.4409 42.6856 14.3103 42.7086 14.218 42.8008C14.0874 42.9315 14.0874 43.1467 14.218 43.2773C14.3487 43.408 14.5639 43.408 14.6945 43.2773C14.7637 43.2082 14.7944 43.1083 14.7868 43.016L18.2145 39.596C18.2376 39.5729 18.2453 39.5499 18.2606 39.5268C18.3221 39.4961 18.3605 39.4346 18.3605 39.3654C18.3605 38.5968 18.3605 37.836 18.3529 37.0674C18.8217 37.0674 19.2905 37.0674 19.7593 37.0674C19.7593 38.3278 19.767 39.5806 19.767 40.841C19.7593 40.8487 19.7516 40.8564 19.7439 40.8641C19.6133 40.9947 19.6133 41.2099 19.7439 41.3406C19.8746 41.4712 20.0898 41.4712 20.2204 41.3406C20.3511 41.2099 20.3511 40.9947 20.2204 40.8641C20.1974 40.841 20.1666 40.8256 20.1436 40.8103C20.1436 39.5652 20.1359 38.3202 20.1359 37.0751C20.2281 37.0751 20.328 37.0751 20.4203 37.0751C20.5893 37.0751 20.7584 37.0751 20.9275 37.0751V43.0237V46.5821C20.8045 46.6359 20.7123 46.7512 20.7123 46.8972C20.7123 47.0817 20.866 47.2354 21.0505 47.2354C21.2349 47.2354 21.3886 47.0817 21.3886 46.8972C21.3886 46.8127 21.3579 46.7358 21.3041 46.6744V39.7266V37.0751C21.7191 37.0751 22.1265 37.0751 22.5415 37.0751V41.8786V46.1671C22.4262 46.2209 22.3493 46.3362 22.3493 46.4668C22.3493 46.6513 22.503 46.805 22.6875 46.805C22.872 46.805 23.0257 46.6513 23.0257 46.4668C23.0257 46.3746 22.9872 46.2824 22.9181 46.2209V39.1502V37.0674C23.164 37.0674 23.4099 37.0674 23.6559 37.0674V41.1484C23.5637 41.2099 23.5022 41.3175 23.5022 41.4328C23.5022 41.6173 23.6559 41.771 23.8403 41.771C24.0248 41.771 24.1785 41.6173 24.1785 41.4328C24.1785 41.3175 24.1247 41.2176 24.0325 41.1561V37.0674C24.1478 37.0674 24.263 37.0674 24.3783 37.0674C24.5551 37.0674 24.7395 37.0674 24.9163 37.0674V42.4242C24.9009 42.4396 24.8933 42.4473 24.8779 42.4627C24.8548 42.4857 24.8318 42.5088 24.8087 42.5318C24.7933 42.5472 24.7703 42.5626 24.7549 42.578C24.7319 42.5933 24.7088 42.6087 24.6934 42.6241C24.6627 42.6471 24.6396 42.6702 24.6089 42.7009C24.5551 42.747 24.509 42.7932 24.4552 42.8393C24.4398 42.8546 24.4321 42.8623 24.4167 42.8777C24.3553 42.9315 24.2938 42.993 24.24 43.0545C24.1785 43.1159 24.1247 43.1697 24.0632 43.2235C24.0248 43.262 23.9864 43.3004 23.9479 43.3388C23.9326 43.3542 23.9172 43.3696 23.9018 43.3849C23.8941 43.3926 23.8941 43.3926 23.8864 43.4003C23.8788 43.4003 23.8788 43.408 23.8711 43.4157C23.8557 43.431 23.8326 43.4541 23.8173 43.4695C23.8019 43.4848 23.7788 43.4925 23.7635 43.5156C23.7481 43.531 23.7327 43.5463 23.7174 43.5694C23.6943 43.6078 23.6789 43.6386 23.6713 43.6847C23.6636 43.7077 23.6559 43.7231 23.6559 43.7462V49.6794C23.5637 49.7409 23.5022 49.8408 23.5022 49.9638C23.5022 50.1482 23.6559 50.3019 23.8403 50.3019C24.0248 50.3019 24.1785 50.1482 24.1785 49.9638C24.1785 49.8562 24.1247 49.7639 24.0478 49.7025V43.7692C24.0632 43.7538 24.0709 43.7462 24.0863 43.7308L24.1093 43.7077C24.1247 43.7 24.1324 43.6924 24.1401 43.677C24.1631 43.6539 24.1862 43.6309 24.2092 43.6078C24.2477 43.5694 24.2938 43.5233 24.3322 43.4849C24.386 43.4311 24.4475 43.3772 24.5013 43.3234C24.5551 43.2696 24.6089 43.2159 24.6627 43.1621C24.6704 43.1544 24.6704 43.1544 24.6781 43.1467C24.6934 43.139 24.7011 43.1236 24.7165 43.1159C24.7319 43.1006 24.7472 43.0929 24.7549 43.0775C24.801 43.0391 24.8395 43.0007 24.8856 42.9622C24.9009 42.9469 24.9163 42.9392 24.9394 42.9238C24.9624 42.9084 24.9778 42.8931 25.0009 42.87L24.9855 42.8854C25.0239 42.8546 25.0546 42.8162 25.0931 42.7855C25.1084 42.7701 25.1238 42.7547 25.1469 42.7393C25.1546 42.7317 25.1623 42.724 25.1776 42.7163C25.2007 42.7009 25.216 42.6779 25.2391 42.6548C25.2468 42.6471 25.2545 42.6394 25.2622 42.6394C25.3006 42.601 25.3083 42.5395 25.3006 42.4857C25.3006 42.478 25.3006 42.4704 25.3006 42.4627V37.0905C25.8386 37.0828 26.3766 37.029 26.9069 36.9214C26.8531 36.9752 26.7993 37.0367 26.7378 37.0982C26.6609 37.175 26.5764 37.2442 26.4995 37.321C26.4381 37.3902 26.3689 37.4594 26.3074 37.5209C26.2843 37.5362 26.2613 37.5593 26.2459 37.5823L26.2382 37.59C26.2075 37.6208 26.1921 37.6669 26.1921 37.7053C26.1921 37.7361 26.1998 37.7668 26.2152 37.7975V44.9144C26.2152 44.9528 26.2305 44.9989 26.2536 45.0296C26.2536 45.0373 26.2536 45.0373 26.2536 45.045C26.2536 45.0527 26.2536 45.0604 26.2536 45.0604C26.2536 45.0988 26.269 45.1526 26.292 45.1757C26.6609 45.5369 27.0298 45.9058 27.3987 46.267V47.9963V48.2653C27.2681 48.3114 27.1759 48.4343 27.1759 48.5804C27.1759 48.7648 27.3296 48.9185 27.514 48.9185C27.6985 48.9185 27.8522 48.7648 27.8522 48.5804C27.8522 48.5035 27.8215 48.4343 27.7753 48.3729V48.0116V46.3516V46.2132C27.7753 46.1594 27.7523 46.1133 27.7215 46.0826C27.7139 46.0672 27.7062 46.0441 27.6908 46.0364C27.3219 45.6752 26.953 45.3063 26.5841 44.9451C26.5841 44.9374 26.5841 44.9297 26.5841 44.9144V37.7514C26.6302 37.6976 26.6763 37.6515 26.7301 37.5977C26.7916 37.5362 26.8531 37.4748 26.9146 37.4133C26.953 37.3825 26.9837 37.3518 27.0221 37.3134C27.0529 37.2749 27.0913 37.2442 27.1221 37.2057C27.1835 37.1366 27.245 37.0751 27.3142 37.0136C27.368 36.9598 27.4295 36.8983 27.4833 36.8445C27.5217 36.8061 27.5601 36.76 27.5986 36.7216C27.5909 36.7293 27.5832 36.7369 27.5755 36.7446C27.5909 36.7292 27.5986 36.7216 27.6139 36.7062C27.906 36.6063 28.198 36.491 28.4747 36.3527C28.5285 36.3296 28.5746 36.2989 28.6284 36.2758V37.6823C28.4978 37.7591 28.3671 37.8437 28.2442 37.9282C28.1827 37.9666 28.1212 38.005 28.0597 38.0435C28.0136 38.0742 27.9598 38.1127 27.9137 38.1434C27.8445 38.1972 27.7677 38.2433 27.6985 38.2971C27.6677 38.3202 27.637 38.3432 27.5986 38.3663C27.5678 38.3893 27.5448 38.4124 27.514 38.4278C27.5217 38.4278 27.5294 38.4201 27.5294 38.4201C27.491 38.4431 27.4602 38.4662 27.4449 38.5046C27.4372 38.52 27.4372 38.5354 27.4295 38.5507C27.4141 38.5815 27.3987 38.6122 27.3987 38.643V43.4464C27.2988 43.5079 27.222 43.6155 27.222 43.7385C27.222 43.9229 27.3757 44.0766 27.5601 44.0766C27.7446 44.0766 27.8983 43.9229 27.8983 43.7385C27.8983 43.6386 27.8445 43.5386 27.7753 43.4772V38.6968C27.8138 38.666 27.8599 38.6353 27.8983 38.6122C27.9752 38.5584 28.0443 38.5123 28.1212 38.4585C28.1673 38.4278 28.2134 38.397 28.2595 38.3663C28.321 38.3278 28.3902 38.2894 28.4517 38.2433C28.5132 38.1972 28.5746 38.1588 28.6361 38.1203C28.7207 38.0665 28.8129 38.0127 28.9051 37.9589C28.9435 37.9359 28.9743 37.8898 28.982 37.8437C28.9973 37.8206 29.005 37.7899 29.005 37.7591V36.0683C29.3355 35.8608 29.6352 35.6148 29.9196 35.3459C30.8803 36.3219 31.8333 37.298 32.7863 38.274C33.7316 39.2424 34.6846 40.2108 35.63 41.1792C35.6223 41.2022 35.6223 41.2176 35.6223 41.2407C35.6223 41.4251 35.7683 41.5788 35.9528 41.5865C36.1372 41.5865 36.2909 41.4405 36.2986 41.256C36.2986 41.0716 36.1526 40.9179 35.9681 40.9102C35.9451 40.9102 35.922 40.9102 35.899 40.9179C34.2466 39.2271 32.5865 37.5362 30.9341 35.8531C30.6805 35.5995 30.4345 35.3459 30.1809 35.0845C30.2501 35.0154 30.3116 34.9385 30.3807 34.8617C30.3961 34.8693 30.4192 34.8693 30.4345 34.8693C31.2569 34.877 32.0792 34.8847 32.9016 34.9001C32.9093 34.9155 32.917 34.9231 32.9247 34.9385L36.2679 38.3816C36.2294 38.4969 36.2525 38.6276 36.3447 38.7198C36.4754 38.8505 36.6906 38.8581 36.8212 38.7275C36.9519 38.5968 36.9596 38.3816 36.8289 38.251C36.7598 38.1818 36.6598 38.1434 36.5676 38.1511L33.1937 34.6772C33.1706 34.6541 33.1475 34.6388 33.1245 34.6311C33.0937 34.5696 33.0323 34.5312 32.9631 34.5312C32.1945 34.5235 31.4337 34.5158 30.6651 34.5081C30.765 34.3775 30.8572 34.2391 30.9418 34.0931C31.1032 33.8395 31.2415 33.5705 31.3568 33.2938H33.6317H37.0518C37.1056 33.3937 37.2132 33.4629 37.3362 33.4629C37.5129 33.4629 37.659 33.3169 37.659 33.1401C37.659 32.9633 37.5129 32.8173 37.3362 32.8173C37.2363 32.8173 37.1517 32.8634 37.0902 32.9326H34.3619H33.6317H33.5241H31.4951C31.5951 32.6559 31.6796 32.3639 31.7488 32.0718H35.7299C35.7991 32.0718 35.8528 32.0334 35.8836 31.9796C36.3678 31.603 36.8597 31.2341 37.3438 30.8652C37.3515 30.8652 37.3515 30.8575 37.3592 30.8575C37.3669 30.8575 37.3746 30.8575 37.3823 30.8575H39.4189C39.4804 30.9343 39.565 30.9805 39.6726 30.9805C39.8493 30.9805 39.9954 30.8344 39.9954 30.6577C39.9954 30.4809 39.8493 30.3349 39.6726 30.3349C39.5573 30.3349 39.4497 30.404 39.3959 30.4963H37.3823C37.3438 30.4963 37.3054 30.5116 37.2747 30.5347C37.2362 30.527 37.1901 30.5347 37.1594 30.5577C36.6675 30.9343 36.1833 31.3032 35.6915 31.6798C35.6761 31.6952 35.6607 31.7029 35.653 31.7183H34.5233H31.8256C31.8794 31.4262 31.9178 31.1342 31.9409 30.8421H34.823C34.8845 30.942 34.9921 31.0112 35.115 31.0112C35.2995 31.0112 35.4532 30.8575 35.4532 30.673C35.4532 30.4886 35.2995 30.3349 35.115 30.3349C35.0074 30.3349 34.9152 30.3887 34.8537 30.4655H31.964C31.987 29.9199 31.964 29.3742 31.8794 28.8362C32.0485 28.6594 32.2253 28.4827 32.3944 28.3059C32.402 28.2905 32.4866 28.2982 32.525 28.2982H38.5044C38.5658 28.3981 38.6734 28.475 38.7964 28.475C38.9809 28.475 39.1346 28.3213 39.1346 28.1368C39.1346 27.9523 38.9809 27.7986 38.7964 27.7986C38.6965 27.7986 38.6043 27.8448 38.5351 27.9216H32.5173C32.4866 27.9216 32.3867 27.9293 32.3021 27.9447C32.2406 27.9523 32.1868 27.9754 32.1638 27.9985C32.1484 28.0138 32.133 28.0292 32.1177 28.0446C32.1177 28.0446 32.1177 28.0446 32.11 28.0523C31.9947 28.1675 31.8871 28.2828 31.7718 28.3981C31.6642 27.9293 31.5182 27.4758 31.3184 27.0378H35.8913C35.9528 27.0378 36.0066 27.007 36.045 26.9609C36.0604 26.9532 36.068 26.9532 36.0834 26.9455C36.5522 26.5843 37.0211 26.2308 37.4899 25.8696H41.0713C41.1328 25.9695 41.2404 26.0386 41.3634 26.0386C41.5478 26.0386 41.7016 25.8849 41.7016 25.7005C41.7016 25.516 41.5478 25.3623 41.3634 25.3623C41.2558 25.3623 41.1636 25.4161 41.1021 25.493H40.1875H37.4976C37.4745 25.493 37.4514 25.5007 37.4284 25.5083C37.39 25.5083 37.3515 25.516 37.3285 25.5314C36.852 25.8926 36.3832 26.2538 35.9067 26.6151C35.8836 26.6304 35.8682 26.6458 35.8528 26.6612H35.4301H31.1416C30.9879 26.3845 30.8111 26.1155 30.619 25.8619H36.0296C36.0911 25.9541 36.191 26.0156 36.314 26.0156C36.4984 26.0156 36.6521 25.8619 36.6521 25.6774C36.6521 25.493 36.4984 25.3393 36.314 25.3393C36.1987 25.3393 36.0988 25.4007 36.0373 25.4853H35.1074H30.3039C30.0118 25.1702 29.689 24.8858 29.3355 24.6399C29.3893 24.5938 29.4431 24.54 29.4892 24.4862C29.4892 24.4862 29.4892 24.4862 29.4969 24.4862H29.5661H35.5224H42.2472C42.3087 24.5784 42.4086 24.6399 42.5316 24.6399C42.716 24.6399 42.8698 24.4862 42.8698 24.3017C42.8698 24.1173 42.716 23.9635 42.5316 23.9635C42.4163 23.9635 42.3164 24.025 42.2549 24.1096H35.4225H29.8428C30.1194 23.7714 30.3654 23.4025 30.5575 23.0105C30.5882 22.9414 30.619 22.8799 30.6497 22.8107H32.917C32.9785 22.8953 33.0784 22.9491 33.186 22.9491C33.3704 22.9491 33.5241 22.7953 33.5241 22.6109C33.5241 22.4264 33.3704 22.2727 33.186 22.2727C33.063 22.2727 32.9631 22.3342 32.9016 22.4341H30.8034C30.9572 22.0345 31.0648 21.6195 31.1416 21.2044H33.0015H39.6572C39.7187 21.2967 39.8186 21.3581 39.9416 21.3581C40.126 21.3581 40.2797 21.2044 40.2797 21.02C40.2797 20.8355 40.126 20.6818 39.9416 20.6818C39.8263 20.6818 39.7264 20.7433 39.6649 20.8278H36.3217H31.1954C31.2415 20.4513 31.2569 20.0747 31.2569 19.6904H35.9681C36.0296 19.7749 36.1295 19.8287 36.2371 19.8287C36.4216 19.8287 36.5753 19.675 36.5753 19.4906C36.5753 19.3061 36.4216 19.1524 36.2371 19.1524C36.1142 19.1524 36.0142 19.2139 35.9528 19.3138H34.3465H31.2415C31.2261 19.0141 31.1877 18.7066 31.1339 18.4069H32.8401C32.9016 18.4761 32.9938 18.5222 33.0937 18.5222C33.2782 18.5222 33.4319 18.3685 33.4319 18.184C33.4319 17.9996 33.2782 17.8458 33.0937 17.8458C32.9631 17.8458 32.8555 17.9227 32.794 18.0303H31.0571C30.9802 17.6998 30.888 17.3847 30.765 17.0696H32.9323H40.0876C40.1491 17.1695 40.2567 17.2387 40.3796 17.2387C40.5641 17.2387 40.7178 17.085 40.7178 16.9005C40.7178 16.7161 40.5641 16.5624 40.3796 16.5624C40.272 16.5624 40.1798 16.6162 40.1183 16.693H33.9468H30.5959C30.5344 16.5547 30.4576 16.4163 30.3807 16.2857C30.3193 16.1781 30.2578 16.0782 30.1886 15.9783H33.1552C33.2321 16.0397 33.3397 16.0321 33.4088 15.9706C34.6309 14.7486 35.8528 13.5266 37.0749 12.3046C37.1056 12.3199 37.144 12.3276 37.1825 12.3276C37.3669 12.3276 37.5206 12.1739 37.5206 11.9895C37.5206 11.805 37.3669 11.6513 37.1825 11.6513C36.998 11.6513 36.8443 11.805 36.8443 11.9895C36.8443 11.9971 36.8443 12.0048 36.8443 12.0048C35.6453 13.2038 34.4387 14.4104 33.2398 15.6094C33.2321 15.6094 33.2167 15.6094 33.209 15.6094H30.0195C29.9888 15.6094 29.9657 15.617 29.9427 15.6324C29.8351 15.4941 29.7198 15.3557 29.6045 15.2328C30.4192 14.4258 31.2261 13.6111 32.0408 12.8041C32.0792 12.8195 32.1177 12.8272 32.1561 12.8272C32.3406 12.8272 32.4943 12.6735 32.4943 12.489C32.4943 12.3046 32.3406 12.1509 32.1561 12.1509C31.9716 12.1509 31.8179 12.3046 31.8179 12.489C30.9956 13.3114 30.1655 14.1414 29.3432 14.9638C29.2202 14.8485 29.0973 14.7332 28.9589 14.6333V12.8887C28.9589 12.8579 28.9512 12.8272 28.9359 12.8041C28.9282 12.758 28.9051 12.7196 28.859 12.6888C28.7668 12.635 28.6822 12.5812 28.59 12.5274C28.5285 12.489 28.467 12.4429 28.4055 12.4045C28.3441 12.3584 28.2749 12.3276 28.2134 12.2815C28.1673 12.2508 28.1212 12.22 28.0751 12.1893C27.9982 12.1355 27.929 12.0894 27.8522 12.0356C27.8138 12.0048 27.7677 11.9741 27.7292 11.951V7.10913C27.8061 7.04765 27.8522 6.95542 27.8522 6.84782C27.8522 6.66337 27.6985 6.50966 27.514 6.50966C27.3296 6.50966 27.1759 6.66337 27.1759 6.84782C27.1759 6.97079 27.245 7.08608 27.3526 7.13988V11.9433C27.3526 11.9818 27.3603 12.0125 27.3834 12.0356C27.3834 12.0509 27.3911 12.0663 27.3987 12.0817C27.4141 12.1201 27.4449 12.1509 27.4833 12.1662C27.4756 12.1662 27.4679 12.1585 27.4679 12.1585C27.4987 12.1739 27.5294 12.197 27.5525 12.22C27.5832 12.2431 27.6139 12.2661 27.6524 12.2892C27.7215 12.343 27.7984 12.3891 27.8676 12.4429C27.9137 12.4737 27.9675 12.5121 28.0136 12.5428C28.0751 12.5812 28.1366 12.6197 28.198 12.6581C28.321 12.7426 28.4517 12.8272 28.5823 12.904V14.3028C28.4517 14.2106 28.3133 14.1337 28.175 14.0569C27.929 13.9185 27.6677 13.8109 27.4064 13.711C27.3603 13.6649 27.3142 13.6188 27.2681 13.5727C27.2066 13.5112 27.1374 13.4497 27.076 13.3805C27.0452 13.3421 27.0068 13.3114 26.976 13.2729C26.9453 13.2422 26.9069 13.2115 26.8684 13.173C26.807 13.1116 26.7455 13.0501 26.684 12.9886C26.6379 12.9348 26.5841 12.8887 26.538 12.8349V5.67194C26.538 5.66425 26.538 5.65657 26.538 5.6412C26.9069 5.27998 27.2758 4.91107 27.6447 4.54985C27.6601 4.53448 27.6677 4.5191 27.6754 4.50373C27.7138 4.4653 27.7292 4.41919 27.7292 4.37308V2.57466V1.9137C27.7753 1.85222 27.8061 1.78305 27.8061 1.70619C27.8061 1.52174 27.6524 1.36803 27.4679 1.36803C27.2835 1.36803 27.1297 1.52174 27.1297 1.70619C27.1297 1.85222 27.222 1.97519 27.3526 2.0213V4.28085V4.31159C26.9837 4.67281 26.6148 5.04172 26.2459 5.40294C26.2152 5.43368 26.2075 5.4798 26.2075 5.51822C26.2075 5.52591 26.2075 5.5336 26.2075 5.5336C26.2075 5.54128 26.2075 5.54128 26.2075 5.54897C26.1844 5.57971 26.1691 5.61814 26.1691 5.66425V12.7964C26.1537 12.8272 26.146 12.8579 26.146 12.8887C26.146 12.9271 26.1614 12.9732 26.1921 13.004L26.1998 13.0116C26.2152 13.0347 26.2382 13.0577 26.2613 13.0731C26.3228 13.1423 26.3919 13.2115 26.4534 13.2729C26.5226 13.3421 26.5994 13.4113 26.6686 13.4805C26.2075 13.3729 25.731 13.3114 25.2545 13.2883V8.13131C25.2545 8.12363 25.2545 8.11594 25.2545 8.10826C25.2698 8.05446 25.2545 7.99297 25.216 7.95455C25.2084 7.94686 25.2007 7.93917 25.193 7.93917C25.1699 7.91612 25.1546 7.90075 25.1315 7.87769C25.1238 7.87 25.1161 7.86232 25.1008 7.85463C25.0854 7.83926 25.07 7.82389 25.047 7.80852C25.0085 7.77778 24.9778 7.74703 24.9394 7.70861L24.9547 7.72398C24.9394 7.70861 24.9163 7.69324 24.8933 7.67018C24.8779 7.65481 24.8625 7.64712 24.8395 7.63175C24.7933 7.59332 24.7549 7.5549 24.7088 7.51647C24.6934 7.5011 24.6781 7.49341 24.6704 7.47804C24.655 7.46267 24.6473 7.45499 24.6319 7.4473C24.6243 7.43962 24.6243 7.43961 24.6166 7.43193C24.5628 7.37813 24.509 7.32433 24.4552 7.27053C24.4014 7.21673 24.3476 7.16293 24.2861 7.10913C24.2477 7.07071 24.2016 7.0246 24.1631 6.98617C24.1401 6.96311 24.117 6.94005 24.094 6.917C24.0863 6.90931 24.0786 6.89394 24.0632 6.88625L24.0402 6.8632C24.0248 6.84783 24.0017 6.83246 23.9864 6.81708V6.67875C23.994 6.67875 23.994 6.68643 24.0017 6.68643V0.599472C24.0786 0.537988 24.1324 0.445764 24.1324 0.338166C24.1324 0.153713 23.9787 0 23.7942 0C23.6098 0.00768555 23.4561 0.161397 23.4561 0.34585ZM25.4159 17.108C25.4543 17.1157 25.5004 17.1234 25.5388 17.1311C25.6388 17.1542 25.7387 17.1772 25.8386 17.208C25.9154 17.231 25.9923 17.2541 26.0691 17.2848C26.0845 17.2925 26.1076 17.2925 26.1229 17.3002C26.1306 17.3002 26.1383 17.3079 26.146 17.3079C26.3074 17.3924 26.4688 17.4769 26.6225 17.5845C26.6379 17.5922 26.707 17.646 26.7147 17.6537C26.7762 17.7075 26.83 17.7613 26.8915 17.8151C26.9453 17.8689 26.9991 17.9304 27.0529 17.9919C27.0759 18.0226 27.1067 18.0534 27.1297 18.0841C27.1297 18.0918 27.1374 18.0918 27.1374 18.0995C27.2297 18.2378 27.3219 18.3762 27.3911 18.5299C27.3987 18.5452 27.4141 18.5683 27.4295 18.5914C27.4295 18.599 27.4372 18.6144 27.4449 18.6298C27.4833 18.722 27.514 18.8219 27.5448 18.9218C27.5909 19.0832 27.6216 19.2523 27.6601 19.4137V19.4214C27.6601 19.4675 27.6677 19.5059 27.6754 19.552C27.6831 19.6673 27.6908 19.7826 27.6908 19.8979C27.6908 20.0977 27.6908 20.2899 27.6677 20.4897C27.6677 20.505 27.6677 20.5358 27.6677 20.5588C27.6677 20.5665 27.6601 20.5742 27.6601 20.5896C27.6447 20.6972 27.6216 20.7971 27.5986 20.9047C27.5601 21.0661 27.5063 21.2198 27.4525 21.3812C27.4295 21.4196 27.4141 21.4657 27.3911 21.5042C27.3449 21.5887 27.2988 21.6809 27.245 21.7578C27.222 21.7885 27.1144 21.9115 27.1144 21.9499C27.099 21.973 27.0759 21.996 27.0606 22.0114C26.9453 22.1421 26.8146 22.265 26.684 22.3803C26.6532 22.4034 26.6225 22.4264 26.5918 22.4418C26.5149 22.4879 26.4457 22.534 26.3689 22.5801C26.3074 22.6109 26.2459 22.6416 26.1844 22.6724C26.146 22.6801 26.0461 22.7262 26.023 22.7339C25.8539 22.7877 25.6849 22.8338 25.5158 22.8645C25.4774 22.8722 25.4312 22.8799 25.3928 22.8876C25.2929 22.8953 25.193 22.9029 25.0931 22.9106C24.8779 22.9183 24.655 22.9183 24.4398 22.9183C23.5944 22.9183 22.7567 22.9183 21.9113 22.9183L21.9189 21.704C22.0265 21.6271 22.0957 21.5042 22.0957 21.3658C22.0957 21.1353 21.9113 20.9431 21.6807 20.9431C21.4501 20.9431 21.258 21.1276 21.258 21.3581C21.258 21.5042 21.3348 21.6348 21.4501 21.7117L21.4424 22.9106C21.1811 22.9106 20.9121 22.9106 20.6508 22.9106C20.6508 22.3496 20.6508 21.7808 20.6508 21.2198C20.6508 19.8671 20.6508 18.5145 20.6508 17.1618C20.6508 17.1311 20.6508 17.1003 20.6508 17.0696C21.8421 17.0696 23.0333 17.0696 24.2246 17.0696C24.4321 17.0696 24.6396 17.0696 24.8471 17.0696C25.0162 17.0696 25.193 17.0696 25.3621 17.0927C25.339 17.0927 25.3467 17.0927 25.4159 17.108ZM25.3544 17.0927C25.3698 17.0927 25.3774 17.1004 25.3928 17.1004C25.3774 17.1004 25.3621 17.1004 25.3544 17.0927ZM27.4525 18.6067C27.4602 18.6221 27.4679 18.6451 27.4679 18.6605C27.4679 18.6528 27.4602 18.6298 27.4525 18.6067ZM27.1297 21.9115C27.1221 21.9192 27.1144 21.9269 27.1144 21.9346C27.1374 21.9038 27.2297 21.8039 27.1297 21.9115ZM26.1691 22.6724C26.1614 22.6724 26.1614 22.6801 26.1537 22.6801C26.0307 22.7415 26.1229 22.6877 26.1691 22.6724ZM22.0803 28.9745C22.0803 28.8362 22.0112 28.7055 21.8959 28.6287L21.9036 26.5997C22.7797 26.5997 23.6559 26.5997 24.532 26.5997C24.7165 26.5997 24.9009 26.5997 25.0777 26.5997C25.2929 26.5997 25.5004 26.6151 25.7079 26.6381C25.7156 26.6381 25.7156 26.6381 25.7233 26.6381C25.7617 26.6458 25.8078 26.6535 25.8463 26.6612C25.9462 26.6842 26.0538 26.7073 26.1537 26.7303C26.2536 26.7534 26.3535 26.7841 26.4457 26.8226C26.4842 26.8379 26.5149 26.8533 26.5533 26.861C26.7224 26.9455 26.8838 27.0301 27.0452 27.13C27.0836 27.1531 27.1221 27.1838 27.1605 27.2145C27.2143 27.253 27.222 27.2683 27.2066 27.2683C27.2604 27.3144 27.3373 27.3606 27.3603 27.3836C27.4679 27.4835 27.6063 27.6065 27.6985 27.7372C27.7062 27.7525 27.7215 27.7833 27.7369 27.7986C27.7677 27.8371 27.7907 27.8832 27.8214 27.9216C27.8676 27.9985 27.9137 28.0753 27.9598 28.1522C28.0059 28.229 28.0443 28.3136 28.0828 28.3904C28.0981 28.4135 28.1058 28.4289 28.1058 28.4442C28.1135 28.475 28.1212 28.5057 28.1289 28.5364C28.1904 28.7209 28.2442 28.913 28.2826 29.1129C28.2903 29.1667 28.298 29.2205 28.3133 29.2743C28.321 29.2973 28.3287 29.3204 28.3287 29.3281C28.3441 29.4126 28.3364 29.5125 28.3364 29.5817C28.3518 29.8046 28.3518 30.0274 28.3364 30.2503C28.3287 30.3502 28.321 30.4502 28.3133 30.5577C28.3133 30.5808 28.3056 30.6039 28.3056 30.6115C28.298 30.65 28.2903 30.6884 28.2826 30.7268C28.2365 30.9497 28.1827 31.1726 28.0981 31.3878C28.0904 31.4108 28.0751 31.457 28.0597 31.4877C28.052 31.5031 28.0443 31.5108 28.0366 31.5261C27.9828 31.6337 27.929 31.7413 27.8676 31.8412C27.8138 31.9258 27.76 32.0103 27.7062 32.0872C27.6908 32.1102 27.6831 32.1179 27.6754 32.1256C27.6524 32.1487 27.6293 32.1717 27.6139 32.1948C27.5448 32.2793 27.4679 32.3562 27.3834 32.433C27.3449 32.4715 27.1989 32.556 27.1528 32.6252C27.1836 32.5867 27.2373 32.579 27.1682 32.6328C27.1605 32.6405 27.1528 32.6482 27.1451 32.6482C27.1451 32.6482 27.1451 32.6482 27.1451 32.6559C27.1451 32.6559 27.1451 32.6559 27.1451 32.6482C27.1067 32.679 27.0683 32.702 27.0221 32.7328C26.9299 32.7943 26.8377 32.848 26.7455 32.9018C26.6994 32.9249 26.6609 32.948 26.6148 32.971C26.6071 32.9787 26.5918 32.9787 26.5841 32.9864C26.4995 32.9941 26.3843 33.0632 26.3074 33.0863C26.1076 33.1478 25.8463 33.2477 25.6388 33.24C25.6618 33.24 25.8309 33.217 25.6695 33.2323C25.6003 33.24 25.5388 33.2477 25.4697 33.2477C25.3313 33.2554 25.193 33.2631 25.0546 33.2631C23.5713 33.2631 22.088 33.2631 20.6047 33.2631C20.6047 32.6021 20.6047 31.9411 20.6047 31.2879C20.6047 29.7892 20.6047 28.2982 20.6047 26.7995C20.6047 26.7303 20.6047 26.6689 20.6047 26.5997C20.8737 26.5997 21.1427 26.5997 21.4117 26.5997L21.4348 28.6287C21.3195 28.7055 21.2426 28.8285 21.2426 28.9745C21.2426 29.2051 21.4271 29.3972 21.6576 29.3972C21.8882 29.3972 22.0803 29.2051 22.0803 28.9745ZM28.1135 28.4289C28.1058 28.4058 28.0904 28.3674 28.0828 28.3674C28.0904 28.3827 28.0981 28.4058 28.1135 28.4289ZM27.7446 32.0872C27.7446 32.0949 27.7369 32.0949 27.7369 32.1025C27.7369 32.0949 27.7369 32.0872 27.7446 32.0872Z" fill="white"/>
<path d="M2.7971 19.0139H9.80633H12.9036C12.9651 19.0985 13.065 19.16 13.1803 19.16C13.3647 19.16 13.5184 19.0063 13.5184 18.8218C13.5184 18.6374 13.3647 18.4836 13.1803 18.4836C13.065 18.4836 12.9574 18.5451 12.8959 18.6374H6.71673H2.80479C2.7433 18.5451 2.64339 18.4836 2.52811 18.4836C2.34365 18.4836 2.18994 18.6374 2.18994 18.8218C2.18994 19.0063 2.34365 19.16 2.52811 19.16C2.63571 19.16 2.73562 19.0985 2.7971 19.0139Z" fill="white"/>
<path d="M46.0976 22.3803H39.9184H36.0064C35.945 22.288 35.8451 22.2266 35.7298 22.2266C35.5453 22.2266 35.3916 22.3803 35.3916 22.5647C35.3916 22.7492 35.5453 22.9029 35.7298 22.9029C35.8451 22.9029 35.945 22.8414 36.0064 22.7569H43.0157H46.1053C46.1667 22.8414 46.2667 22.9029 46.3819 22.9029C46.5664 22.9029 46.7201 22.7492 46.7201 22.5647C46.7201 22.3803 46.5664 22.2266 46.3819 22.2266C46.2667 22.2266 46.1591 22.288 46.0976 22.3803Z" fill="white"/>
<path d="M25.8077 19.114C25.8077 19.2292 25.8692 19.3368 25.9614 19.3983V19.6289V20.4666C25.8999 20.5281 25.8384 20.5973 25.7692 20.6664C25.7001 20.7433 25.6309 20.8125 25.554 20.8893C25.4849 20.9585 25.4157 21.0353 25.3465 21.1122C25.3312 21.1276 25.3235 21.1353 25.3081 21.1506C25.2927 21.1506 25.2774 21.1429 25.262 21.1429C25.0775 21.1429 24.9238 21.2967 24.9238 21.4811C24.9238 21.6656 25.0775 21.8193 25.262 21.8193C25.4464 21.8193 25.6002 21.6656 25.6002 21.4811C25.6002 21.4504 25.5925 21.4196 25.5848 21.3966C25.5925 21.3889 25.5925 21.3889 25.6002 21.3812C25.6693 21.3043 25.7385 21.2198 25.8077 21.1506C25.8768 21.0815 25.9537 21.0046 26.0229 20.9277C26.092 20.8586 26.1535 20.774 26.2227 20.7126C26.2304 20.7049 26.2304 20.7049 26.2381 20.6972L26.2457 20.6895C26.2611 20.6664 26.2688 20.6434 26.2765 20.6203C26.2919 20.5896 26.3072 20.5588 26.3072 20.5204V20.1438V19.6366V19.3983C26.3918 19.3368 26.4533 19.2369 26.4533 19.1216C26.4533 18.9372 26.2995 18.7835 26.1151 18.7835C25.9614 18.7758 25.8077 18.9295 25.8077 19.114Z" fill="white"/>
<path d="M26.6684 30.3118V30.5424C26.5762 30.6039 26.5147 30.7115 26.5147 30.8268C26.5147 31.0112 26.6684 31.1649 26.8529 31.1649C27.0373 31.1649 27.191 31.0112 27.191 30.8268C27.191 30.7115 27.1372 30.6116 27.045 30.5501V30.3118V29.8046V29.428C27.045 29.3896 27.0373 29.3588 27.0143 29.3281C27.0066 29.305 26.9989 29.282 26.9835 29.2589L26.9758 29.2512C26.9682 29.2436 26.9682 29.2436 26.9605 29.2359C26.8913 29.1667 26.8221 29.0898 26.7607 29.0207C26.6915 28.9438 26.6223 28.8746 26.5455 28.7978C26.4686 28.7209 26.4071 28.6441 26.338 28.5672C26.3303 28.5595 26.3303 28.5595 26.3226 28.5519C26.3303 28.5211 26.338 28.4981 26.338 28.4673C26.338 28.2829 26.1842 28.1292 25.9998 28.1292C25.8153 28.1292 25.6616 28.2829 25.6616 28.4673C25.6616 28.6518 25.8153 28.8055 25.9998 28.8055C26.0152 28.8055 26.0305 28.8055 26.0459 28.7978C26.0613 28.8132 26.069 28.8285 26.0843 28.8362C26.1535 28.9131 26.2227 28.9899 26.2918 29.0591C26.361 29.136 26.4302 29.2051 26.507 29.282C26.5685 29.3512 26.63 29.4203 26.6992 29.4818V30.3118H26.6684Z" fill="white"/>
<path d="M65.627 19.2539C69.9238 19.2539 72.5898 16.4512 72.5898 11.959V11.9395C72.5898 7.45703 69.9141 4.6543 65.627 4.6543C61.3691 4.6543 58.6738 7.45703 58.6738 11.9395V11.959C58.6738 16.4512 61.3496 19.2539 65.627 19.2539ZM65.627 16.2852C63.6152 16.2852 62.3262 14.6348 62.3262 11.959V11.9395C62.3262 9.26367 63.625 7.62305 65.627 7.62305C67.6484 7.62305 68.9473 9.27344 68.9473 11.9395V11.959C68.9473 14.6055 67.6777 16.2852 65.627 16.2852ZM75.1379 19H78.7121V10.7773H78.7805L84.4445 19H87.4523V4.9082H83.8781V13.043H83.8098L78.175 4.9082H75.1379V19ZM90.391 19H99.8051V16.1191H93.975V4.9082H90.391V19ZM102.246 19H105.83V4.9082H102.246V19ZM108.768 19H112.343V10.7773H112.411L118.075 19H121.083V4.9082H117.509V13.043H117.44L111.805 4.9082H108.768V19ZM124.021 19H133.68V16.1191H127.605V13.2676H133.318V10.5723H127.605V7.78906H133.68V4.9082H124.021V19Z" fill="#69A5FF"/>
<path d="M59.0645 45H65.793C68.8105 45 70.7148 43.418 70.7148 40.9668V40.9473C70.7148 39.1016 69.2012 37.7051 67.2773 37.6074V37.5391C68.8789 37.334 70.0996 36.0645 70.0996 34.4727V34.4531C70.0996 32.2559 68.4102 30.9082 65.6172 30.9082H59.0645V45ZM64.6699 33.4375C65.8809 33.4375 66.6035 34.0234 66.6035 35V35.0195C66.6035 36.0742 65.8418 36.6992 64.4062 36.6992H62.6484V33.4375H64.6699ZM64.6699 38.9551C66.2422 38.9551 67.0723 39.5703 67.0723 40.6934V40.7129C67.0723 41.8555 66.2422 42.4707 64.7773 42.4707H62.6484V38.9551H64.6699ZM79.591 45.2539C83.8879 45.2539 86.5539 42.4512 86.5539 37.959V37.9395C86.5539 33.457 83.8781 30.6543 79.591 30.6543C75.3332 30.6543 72.6379 33.457 72.6379 37.9395V37.959C72.6379 42.4512 75.3137 45.2539 79.591 45.2539ZM79.591 42.2852C77.5793 42.2852 76.2902 40.6348 76.2902 37.959V37.9395C76.2902 35.2637 77.5891 33.623 79.591 33.623C81.6125 33.623 82.9113 35.2734 82.9113 37.9395V37.959C82.9113 40.6055 81.6418 42.2852 79.591 42.2852ZM95.6645 45.2539C99.9613 45.2539 102.627 42.4512 102.627 37.959V37.9395C102.627 33.457 99.9516 30.6543 95.6645 30.6543C91.4066 30.6543 88.7113 33.457 88.7113 37.9395V37.959C88.7113 42.4512 91.3871 45.2539 95.6645 45.2539ZM95.6645 42.2852C93.6527 42.2852 92.3637 40.6348 92.3637 37.959V37.9395C92.3637 35.2637 93.6625 33.623 95.6645 33.623C97.6859 33.623 98.9848 35.2734 98.9848 37.9395V37.959C98.9848 40.6055 97.7152 42.2852 95.6645 42.2852ZM105.175 45H108.759V41.0156L109.97 39.4434L113.486 45H117.695L112.588 37.1387L117.412 30.9082H113.574L108.828 37.1094H108.759V30.9082H105.175V45ZM119.589 45H122.743V36.1914H122.821L126.268 45H128.319L131.766 36.1914H131.845V45H134.999V30.9082H130.858L127.323 40.1172H127.264L123.729 30.9082H119.589V45ZM137.146 45H140.906L141.785 41.9043H146.385L147.264 45H151.023L146.277 30.9082H141.893L137.146 45ZM144.051 33.9746H144.119L145.643 39.3262H142.527L144.051 33.9746ZM153.181 45H156.765V41.0156L157.976 39.4434L161.491 45H165.7L160.593 37.1387L165.417 30.9082H161.579L156.833 37.1094H156.765V30.9082H153.181V45ZM167.594 45H177.252V42.1191H171.178V39.2676H176.891V36.5723H171.178V33.7891H177.252V30.9082H167.594V45ZM180.074 45H183.658V40.1465H185.484L187.906 45H191.929L189.107 39.6094C190.572 38.9746 191.509 37.4121 191.509 35.6055V35.5859C191.509 32.5977 189.586 30.9082 186.177 30.9082H180.074V45ZM183.658 37.5488V33.6133H185.757C187.017 33.6133 187.857 34.3945 187.857 35.5762V35.5957C187.857 36.7871 187.046 37.5488 185.777 37.5488H183.658ZM199.546 45.2539C203.276 45.2539 205.483 43.4668 205.483 40.6543V40.6445C205.483 38.3887 204.096 37.1777 201.108 36.6016L199.663 36.3281C198.149 36.0449 197.485 35.6445 197.485 34.8828V34.873C197.485 34.0625 198.227 33.4668 199.546 33.4668C200.835 33.4668 201.743 34.043 201.85 34.9707L201.86 35.0781H205.19L205.18 34.873C205.054 32.3145 203.052 30.6543 199.516 30.6543C196.284 30.6543 193.93 32.4023 193.93 35.1172V35.127C193.93 37.2852 195.405 38.6621 198.198 39.1797L199.643 39.4531C201.294 39.7754 201.919 40.1465 201.919 40.9473V40.957C201.919 41.8359 201.04 42.4414 199.614 42.4414C198.237 42.4414 197.182 41.8457 197.007 40.9375L196.987 40.8301H193.657L193.667 41.0059C193.823 43.7012 196.04 45.2539 199.546 45.2539Z" fill="#69A5FF"/>
</svg>
