<svg width="20" height="20" viewBox="0 0 20 20" fill="none" xmlns="http://www.w3.org/2000/svg">
<path d="M18.2561 8.97437H1.74339C1.20527 8.97437 0.769043 9.4106 0.769043 9.94872V10.0513C0.769043 10.5894 1.20527 11.0256 1.74339 11.0256H18.2561C18.7942 11.0256 19.2304 10.5894 19.2304 10.0513V9.94872C19.2304 9.4106 18.7942 8.97437 18.2561 8.97437Z" fill="white"/>
<path d="M18.2561 15.6411H1.74339C1.20527 15.6411 0.769043 16.0773 0.769043 16.6155V16.718C0.769043 17.2561 1.20527 17.6924 1.74339 17.6924H18.2561C18.7942 17.6924 19.2304 17.2561 19.2304 16.718V16.6155C19.2304 16.0773 18.7942 15.6411 18.2561 15.6411Z" fill="white"/>
<path d="M18.2561 2.30762H1.74339C1.20527 2.30762 0.769043 2.74385 0.769043 3.28197V3.38453C0.769043 3.92265 1.20527 4.35888 1.74339 4.35888H18.2561C18.7942 4.35888 19.2304 3.92265 19.2304 3.38453V3.28197C19.2304 2.74385 18.7942 2.30762 18.2561 2.30762Z" fill="white"/>
</svg>
