<svg width="40" height="40" viewBox="0 0 40 40" fill="none" xmlns="http://www.w3.org/2000/svg">
<g clip-path="url(#clip0)">
<path fill-rule="evenodd" clip-rule="evenodd" d="M17.7433 1.24173L1.57763 10.5751L7.91097 21.5445C8.03173 21.7508 8.03304 22.006 7.9139 22.2134C7.79475 22.4211 7.5734 22.5487 7.33414 22.548C7.09489 22.5477 6.87451 22.4188 6.75602 22.2111L0.0893507 10.6643C-0.0945686 10.3456 0.0144809 9.93769 0.333491 9.75377L17.0767 0.0871043C17.3953 -0.0942108 17.8003 0.0158152 17.9836 0.333198C18.1668 0.650581 18.0597 1.05618 17.7433 1.24173ZM10.0002 7.99756H30.0002C30.3683 7.99756 30.6668 8.29607 30.6668 8.66423V10.6642H31.3335C31.7017 10.6642 32.0002 10.9627 32.0002 11.3309C32.0002 11.6991 31.7017 11.9976 31.3335 11.9976H30.0002C29.632 11.9976 29.3335 11.6991 29.3335 11.3309V9.3309H10.6668V14.6642H26.0002C26.3683 14.6642 26.6668 14.9627 26.6668 15.3309C26.6668 15.6991 26.3683 15.9976 26.0002 15.9976H10.6668V28.6642C10.6668 29.0324 10.3683 29.3309 10.0002 29.3309C9.63201 29.3309 9.33351 29.0324 9.33351 28.6642V8.66423C9.33351 8.29607 9.63201 7.99756 10.0002 7.99756ZM30.6668 25.3309V35.3309C30.6668 35.6991 30.3683 35.9976 30.0002 35.9976H10.0002C9.63201 35.9976 9.33351 35.6991 9.33351 35.3309V31.9976C9.33351 31.6294 9.63201 31.3309 10.0002 31.3309C10.3683 31.3309 10.6668 31.6294 10.6668 31.9976V34.6643H29.3335V17.9976C29.3335 17.6294 29.632 17.3309 30.0002 17.3309H31.3335C31.7017 17.3309 32.0002 17.6294 32.0002 17.9976C32.0002 18.3658 31.7017 18.6643 31.3335 18.6643H30.6668V20.6643H31.3335C31.7017 20.6643 32.0002 20.9628 32.0002 21.3309C32.0002 21.6991 31.7017 21.9976 31.3335 21.9976H30.6668V23.9976H31.3335C31.7017 23.9976 32.0002 24.2961 32.0002 24.6643C32.0002 25.0324 31.7017 25.3309 31.3335 25.3309H30.6668ZM27.3335 29.3309C27.7016 29.3309 28.0001 29.0324 28.0001 28.6642C28.0001 28.2961 27.7016 27.9976 27.3335 27.9976H23.3335C22.9653 27.9976 22.6668 28.2961 22.6668 28.6642V32.6642C22.6668 33.0324 22.9653 33.3309 23.3335 33.3309H27.3335C27.7016 33.3309 28.0001 33.0324 28.0001 32.6642C28.0001 32.2961 27.7016 31.9976 27.3335 31.9976H24.0001V29.3309H27.3335ZM25.3335 17.3309H28.0001C28.3683 17.3309 28.6668 17.6294 28.6668 17.9976C28.6668 18.3658 28.3683 18.6643 28.0001 18.6643H25.3335C24.9653 18.6643 24.6668 18.3658 24.6668 17.9976C24.6668 17.6294 24.9653 17.3309 25.3335 17.3309ZM20.6668 28.6643H14.6668C14.2987 28.6643 14.0002 28.9628 14.0002 29.331C14.0002 29.6991 14.2987 29.9976 14.6668 29.9976H20.6668C21.035 29.9976 21.3335 29.6991 21.3335 29.331C21.3335 28.9628 21.035 28.6643 20.6668 28.6643ZM12.0002 31.9976C12.0002 31.6294 12.2987 31.3309 12.6668 31.3309H14.6668C15.035 31.3309 15.3335 31.6294 15.3335 31.9976C15.3335 32.3658 15.035 32.6643 14.6668 32.6643H12.6668C12.2987 32.6643 12.0002 32.3658 12.0002 31.9976ZM20.6668 31.3309H17.3335C16.9653 31.3309 16.6668 31.6294 16.6668 31.9976C16.6668 32.3658 16.9653 32.6643 17.3335 32.6643H20.6668C21.035 32.6643 21.3335 32.3658 21.3335 31.9976C21.3335 31.6294 21.035 31.3309 20.6668 31.3309ZM20.0002 11.7215V10.6642C20.0002 10.2961 20.2987 9.99756 20.6668 9.99756C21.035 9.99756 21.3335 10.2961 21.3335 10.6642V13.3309C21.3335 13.6004 21.1711 13.8436 20.922 13.9468C20.6727 14.05 20.3862 13.993 20.1955 13.8022L18.6668 12.2736V13.3309C18.6668 13.6004 18.5044 13.8436 18.2554 13.9468C18.006 14.05 17.7196 13.993 17.5288 13.8022L16.0002 12.2736V13.3309C16.0002 13.6004 15.8377 13.8436 15.5887 13.9468C15.3394 14.05 15.0529 13.993 14.8621 13.8022L13.3335 12.2736V13.3309C13.3335 13.6991 13.035 13.9976 12.6668 13.9976C12.2987 13.9976 12.0002 13.6991 12.0002 13.3309V10.6642C12.0002 10.3947 12.1626 10.1515 12.4116 10.0487C12.6606 9.94548 12.9474 10.0024 13.1382 10.1929L14.6668 11.7215V10.6642C14.6668 10.3947 14.8293 10.1515 15.0783 10.0487C15.3273 9.94548 15.6141 10.0024 15.8048 10.1929L17.3335 11.7215V10.6642C17.3335 10.3947 17.4959 10.1515 17.745 10.0487C17.994 9.94548 18.2808 10.0024 18.4715 10.1929L20.0002 11.7215ZM27.3335 13.3309V10.6642C27.3335 10.2961 27.035 9.99756 26.6668 9.99756C26.2987 9.99756 26.0002 10.2961 26.0002 10.6642V11.7215L24.4715 10.1929C24.2808 10.0024 23.994 9.94548 23.745 10.0487C23.4959 10.1515 23.3335 10.3947 23.3335 10.6642V13.3309C23.3335 13.6991 23.632 13.9976 24.0002 13.9976C24.3683 13.9976 24.6668 13.6991 24.6668 13.3309V12.2736L26.1955 13.8022C26.3862 13.993 26.6727 14.05 26.922 13.9468C27.1711 13.8436 27.3335 13.6004 27.3335 13.3309ZM7.91095 9.22777C7.7267 8.90876 7.31882 8.79971 7.00014 8.98363L3.97605 10.731C3.65866 10.9156 3.54994 11.3222 3.73353 11.6405L6.7573 16.8778C6.87579 17.0855 7.09617 17.2144 7.33543 17.2148C7.57468 17.2154 7.79604 17.0878 7.91518 16.8801C8.03432 16.6728 8.03302 16.4175 7.91225 16.2112L5.22019 11.5517L7.66681 10.1383C7.98549 9.95433 8.09487 9.54646 7.91095 9.22777ZM29.3335 13.9976H31.3335C31.7016 13.9976 32.0001 14.2961 32.0001 14.6642C32.0001 15.0324 31.7016 15.3309 31.3335 15.3309H29.3335C28.9653 15.3309 28.6668 15.0324 28.6668 14.6642C28.6668 14.2961 28.9653 13.9976 29.3335 13.9976ZM39.911 13.2398C39.8224 13.0865 39.6769 12.9748 39.506 12.9289L34.6668 11.6324V5.33097C34.6668 4.9628 34.3683 4.6643 34.0002 4.6643H14.6668C14.2987 4.6643 14.0002 4.9628 14.0002 5.33097C14.0002 5.69913 14.2987 5.99763 14.6668 5.99763H33.3335V31.331H32.6668C32.2987 31.331 32.0002 31.6295 32.0002 31.9976C32.0002 32.3658 32.2987 32.6643 32.6668 32.6643H34.0002C34.3683 32.6643 34.6668 32.3658 34.6668 31.9976V24.0025L36.8787 15.7457C36.9481 15.5133 36.8856 15.2616 36.7157 15.0888C36.5457 14.9156 36.2954 14.8485 36.0617 14.9133C35.828 14.9781 35.6479 15.1646 35.5916 15.4003L34.6668 18.8511V13.0123L38.5168 14.0445L35.3602 25.8251C35.2648 26.1806 35.4757 26.5465 35.8315 26.6418C35.8882 26.6568 35.9464 26.6643 36.0047 26.6643C36.3061 26.664 36.5701 26.4615 36.6483 26.1705L39.9774 13.7457C40.0233 13.5748 39.9992 13.3928 39.911 13.2398ZM32.1453 37.8251C32.2407 37.4696 32.606 37.2587 32.9614 37.3537C33.3166 37.4498 33.5269 37.815 33.4315 38.1705L33.0741 39.5038C32.9787 39.8589 32.6134 40.0699 32.2583 39.9751L27.2821 38.6418C26.9282 38.5451 26.7186 38.1805 26.8133 37.8261C26.9084 37.4716 27.272 37.2606 27.6268 37.3537L31.9601 38.5142L32.1453 37.8251Z" fill="#69A5FF"/>
<path d="M21.3333 18.6645C21.3333 18.2963 21.0348 17.9978 20.6667 17.9978C20.2985 17.9978 20 18.2963 20 18.6645V25.9978H18.6667V25.3311C18.665 24.8376 18.4795 24.3624 18.1465 23.9978C18.873 23.199 18.8337 21.9675 18.0583 21.2162C17.2826 20.4649 16.0508 20.4649 15.2751 21.2162C14.4993 21.9675 14.4603 23.199 15.1865 23.9978C14.8538 24.3624 14.6683 24.8376 14.6667 25.3311V25.9978H13.3333V19.3311H16.6667C17.0348 19.3311 17.3333 19.0326 17.3333 18.6645C17.3333 18.2963 17.0348 17.9978 16.6667 17.9978H12.6667C12.2985 17.9978 12 18.2963 12 18.6645V26.6645C12 27.0326 12.2985 27.3311 12.6667 27.3311H20.6667C21.0348 27.3311 21.3333 27.0326 21.3333 26.6645V18.6645ZM16.6667 21.9978C17.0348 21.9978 17.3333 22.2963 17.3333 22.6645C17.3333 23.0326 17.0348 23.3311 16.6667 23.3311C16.2985 23.3311 16 23.0326 16 22.6645C16 22.2963 16.2985 21.9978 16.6667 21.9978ZM16 25.9978V25.3311C16 24.963 16.2985 24.6645 16.6667 24.6645C17.0348 24.6645 17.3333 24.963 17.3333 25.3311V25.9978H16Z" fill="white"/>
<path d="M28.6665 20.6645C28.6665 20.2963 28.368 19.9978 27.9998 19.9978H23.3332C22.965 19.9978 22.6665 20.2963 22.6665 20.6645C22.6665 21.0326 22.965 21.3311 23.3332 21.3311H27.9998C28.368 21.3311 28.6665 21.0326 28.6665 20.6645Z" fill="white"/>
<path d="M27.3332 22.6646H23.3332C22.965 22.6646 22.6665 22.9631 22.6665 23.3312C22.6665 23.6994 22.965 23.9979 23.3332 23.9979H27.3332C27.7013 23.9979 27.9998 23.6994 27.9998 23.3312C27.9998 22.9631 27.7013 22.6646 27.3332 22.6646Z" fill="white"/>
<path d="M23.3332 26.6644H25.3332C25.7013 26.6644 25.9998 26.3659 25.9998 25.9977C25.9998 25.6296 25.7013 25.3311 25.3332 25.3311H23.3332C22.965 25.3311 22.6665 25.6296 22.6665 25.9977C22.6665 26.3659 22.965 26.6644 23.3332 26.6644Z" fill="white"/>
</g>
<defs>
<clipPath id="clip0">
<rect width="40" height="40" fill="white"/>
</clipPath>
</defs>
</svg>
