<svg width="18" height="18" viewBox="0 0 18 18" fill="none" xmlns="http://www.w3.org/2000/svg">
<path fill-rule="evenodd" clip-rule="evenodd" d="M0.5 9.5C0.5 8.67157 1.17157 8 2 8C2.82843 8 3.5 8.67157 3.5 9.5L3.5 16.5C3.5 17.3284 2.82843 18 2 18C1.17157 18 0.5 17.3284 0.5 16.5L0.5 9.5ZM7.5 1.5C7.5 0.671572 8.17157 0 9 0C9.82843 0 10.5 0.671574 10.5 1.5L10.5 16.5C10.5 17.3284 9.82843 18 9 18C8.17157 18 7.5 17.3284 7.5 16.5L7.5 1.5ZM16 4C15.1716 4 14.5 4.67157 14.5 5.5V16.5C14.5 17.3284 15.1716 18 16 18C16.8284 18 17.5 17.3284 17.5 16.5V5.5C17.5 4.67157 16.8284 4 16 4Z" fill="white"/>
</svg>
