<svg width="172" height="51" viewBox="0 0 172 51" fill="none" xmlns="http://www.w3.org/2000/svg">
<path fill-rule="evenodd" clip-rule="evenodd" d="M0 0H172V41C172 46.5228 167.523 51 162 51H161C161 48.2386 158.761 46 156 46C153.239 46 151 48.2386 151 51H141C141 48.2386 138.761 46 136 46C133.239 46 131 48.2386 131 51H121C121 48.2386 118.761 46 116 46C113.239 46 111 48.2386 111 51H101C101 48.2386 98.7614 46 96 46C93.2386 46 91 48.2386 91 51H81C81 48.2386 78.7614 46 76 46C73.2386 46 71 48.2386 71 51H61C61 48.2386 58.7614 46 56 46C53.2386 46 51 48.2386 51 51H41C41 48.2386 38.7614 46 36 46C33.2386 46 31 48.2386 31 51H21C21 48.2386 18.7614 46 16 46C13.2386 46 11 48.2386 11 51H10C4.47716 51 0 46.5228 0 41V0Z" fill="#6A32DF"/>
</svg>
