<svg width="40" height="40" viewBox="0 0 40 40" fill="none" xmlns="http://www.w3.org/2000/svg">
<g clip-path="url(#clip0)">
<path fill-rule="evenodd" clip-rule="evenodd" d="M31.9975 39.9966H3.33305C1.49315 39.9945 0.00200535 38.5037 0 36.6636V7.3329C0.00200535 5.49266 1.49315 4.00185 3.33305 3.99951H23.3314V5.33307H3.33305C2.22827 5.33307 1.33322 6.22829 1.33322 7.3329V36.6636C1.33322 37.768 2.22827 38.6632 3.33305 38.6632H31.9975C33.1016 38.6632 33.9971 37.768 33.9971 36.6636V23.3314H35.3305V36.6636C35.3282 38.5037 33.8369 39.9945 31.9975 39.9966ZM3.9995 6.66626H2.66628V7.99932H3.9995V6.66626ZM5.33293 6.66626H6.66615V7.99932H5.33293V6.66626ZM9.33246 6.66626H7.99923V7.99932H9.33246V6.66626ZM2.66628 9.33251H21.3316V10.6657H2.66628V9.33251ZM8.66595 12.6656C9.03426 12.6656 9.33239 12.9643 9.33239 13.3323V18.665C9.33239 19.0331 9.03426 19.3318 8.66595 19.3318H3.33306C2.96474 19.3318 2.66628 19.0331 2.66628 18.665V13.3323C2.66628 12.9643 2.96474 12.6656 3.33306 12.6656H8.66595ZM3.9995 17.9985H7.99917V13.9989H3.9995V17.9985ZM10.6659 12.6656H15.3322V13.9989H10.6659V12.6656ZM21.9981 15.3319H10.6659V16.6653H21.9981V15.3319ZM10.6659 17.9985H16.6653V19.3317H10.6659V17.9985ZM21.9982 17.9985H17.9985V19.3317H21.9982V17.9985ZM9.33239 21.998C9.33239 21.63 9.03426 21.3316 8.66595 21.3316H3.33306C2.96474 21.3316 2.66628 21.63 2.66628 21.998V27.3311C2.66628 27.6992 2.96474 27.9978 3.33306 27.9978H8.66595C9.03426 27.9978 9.33239 27.6992 9.33239 27.3311V21.998ZM7.99917 26.6646H3.9995V22.6646H7.99917V26.6646ZM15.3322 21.3316H10.6659V22.6646H15.3322V21.3316ZM10.6659 23.9978H25.9977V25.3314H10.6659V23.9978ZM16.6653 26.6646H10.6659V27.9978H16.6653V26.6646ZM17.9985 26.6646H25.9977V27.9978H17.9985V26.6646ZM3.33306 29.9977H8.66595C9.03426 29.9977 9.33239 30.2962 9.33239 30.6641V35.997C9.33239 36.3652 9.03426 36.6636 8.66595 36.6636H3.33306C2.96474 36.6636 2.66628 36.3652 2.66628 35.997V30.6641C2.66628 30.2962 2.96474 29.9977 3.33306 29.9977ZM3.9995 35.3306H7.99917V31.3307H3.9995V35.3306ZM10.6659 29.9977H15.3322V31.3307H10.6659V29.9977ZM25.9977 32.6639H10.6659V33.9972H25.9977V32.6639ZM10.6659 35.3306H16.6653V36.6636H10.6659V35.3306ZM25.9977 35.3306H17.9985V36.6636H25.9977V35.3306Z" fill="#69A5FF"/>
<path d="M38.1223 5.85223L37.6454 2.9022C37.5994 2.61911 37.3777 2.39702 37.0944 2.35106L34.1446 1.87429L31.7209 0.125961C31.4878 -0.041987 31.1738 -0.041987 30.9405 0.125961L28.5169 1.87429L25.5672 2.35106C25.2839 2.39702 25.0618 2.61911 25.0157 2.9022L24.5391 5.85223L22.7911 8.27603C22.623 8.50865 22.623 8.82315 22.7911 9.05577L24.5391 11.4799L25.0157 14.4294C25.0572 14.6654 25.2219 14.8611 25.448 14.9408L23.4016 19.0339C23.298 19.2404 23.3092 19.4861 23.4308 19.6823C23.5522 19.8788 23.7671 19.9983 23.998 19.9983H26.308L27.4409 21.7017C27.5652 21.8877 27.7744 21.9988 27.9978 21.998H28.039C28.2764 21.9834 28.488 21.8435 28.5943 21.631L30.8413 17.132L30.9405 17.204C31.1738 17.372 31.4878 17.372 31.7209 17.204L31.8202 17.132L34.0674 21.6275C34.1735 21.8399 34.3847 21.9799 34.6215 21.9949L34.6639 21.998C34.8864 21.998 35.0946 21.8868 35.2184 21.7017L36.3536 19.9983H38.6638C38.8949 19.9995 39.111 19.8805 39.2335 19.6838C39.3555 19.4869 39.367 19.2409 39.2635 19.0339L37.2169 14.9408C37.4427 14.8611 37.6076 14.6654 37.6487 14.4294L38.1255 11.4799L39.874 9.05577C40.0423 8.82315 40.0423 8.50865 39.874 8.27603L38.1223 5.85223ZM27.9153 20.0066L27.2188 18.9617C27.0951 18.7767 26.8872 18.6649 26.6646 18.6649H25.0766L26.8169 15.1828L28.5169 15.4573L29.4023 16.096L29.7462 16.3447L27.9153 20.0066ZM37.5849 18.6649H35.9972C35.7744 18.6649 35.566 18.7767 35.4427 18.9617L34.7463 20.0066L32.9155 16.3447L33.259 16.096L34.1446 15.4573L35.8446 15.1828L37.5849 18.6649ZM36.9495 10.8273C36.8887 10.9111 36.8483 11.0078 36.8319 11.1106L36.4056 13.7408L36.1163 13.7882L33.7773 14.1661C33.6743 14.1828 33.5774 14.2231 33.493 14.2844L32.6579 14.8843L31.3311 15.8434L30.0049 14.8868L29.1698 14.2869C29.0854 14.2257 28.9885 14.1853 28.8855 14.1687L26.5465 13.7911L26.2572 13.7434L25.8316 11.1131C25.8149 11.0108 25.7741 10.9137 25.7132 10.8298L24.1533 8.66607L25.7119 6.50464C25.7729 6.42108 25.8135 6.32382 25.8297 6.22155L26.2557 3.5912L28.886 3.16523C28.9886 3.14852 29.0854 3.10808 29.1698 3.04692L31.3311 1.48843L33.4918 3.04692C33.5759 3.10808 33.673 3.14852 33.7756 3.16523L36.4056 3.5912L36.8319 6.22155C36.8483 6.32382 36.8887 6.42108 36.9495 6.50464L38.508 8.66607L36.9495 10.8273Z" fill="white"/>
<path d="M31.331 3.99951C28.7536 3.99951 26.6646 6.08858 26.6646 8.66612C26.6646 11.2432 28.7536 13.3322 31.331 13.3322C33.9079 13.3322 35.9971 11.2432 35.9971 8.66612C35.9936 6.09025 33.9064 4.00285 31.331 3.99951ZM31.331 11.9992C29.4899 11.9992 27.9978 10.5067 27.9978 8.66612C27.9978 6.82538 29.4899 5.33307 31.331 5.33307C33.1716 5.33307 34.6639 6.82538 34.6639 8.66612C34.6615 10.5059 33.1706 11.9967 31.331 11.9992Z" fill="white"/>
<path d="M31.6808 6.76521C31.4843 6.64423 31.2391 6.63269 31.0328 6.7358L29.6997 7.40258L30.2956 8.59576L30.6644 8.41127V10.6656H31.9977V7.33273C31.997 7.10144 31.8777 6.8867 31.6808 6.76521Z" fill="white"/>
</g>
<defs>
<clipPath id="clip0">
<rect width="40" height="40" fill="white"/>
</clipPath>
</defs>
</svg>
