<svg width="27" height="26" viewBox="0 0 27 26" fill="none" xmlns="http://www.w3.org/2000/svg">
<g clip-path="url(#clip0)">
<path d="M13.5881 26C6.40843 26 0.588135 20.1797 0.588135 13C0.588135 5.8203 6.40843 0 13.5881 0C20.7678 0 26.5881 5.8203 26.5881 13C26.5881 20.1797 20.7678 26 13.5881 26Z" fill="#F0F0F0"/>
<path d="M1.39672 17.5217C0.874134 16.1134 0.588135 14.5901 0.588135 13C0.588135 11.4098 0.874134 9.88659 1.39672 8.47827H25.7795C26.3021 9.88659 26.5881 11.4098 26.5881 13C26.5881 14.5901 26.3021 16.1134 25.7795 17.5217L13.5881 18.6521L1.39672 17.5217Z" fill="#0052B4"/>
<path d="M13.5881 26C7.99859 26 3.23353 22.4721 1.39672 17.5217H25.7795C23.9427 22.4721 19.1777 26 13.5881 26Z" fill="#D80027"/>
</g>
<defs>
<clipPath id="clip0">
<rect width="26" height="26" fill="white" transform="matrix(-1 0 0 1 26.5881 0)"/>
</clipPath>
</defs>
</svg>
