<svg width="40" height="40" viewBox="0 0 40 40" fill="none" xmlns="http://www.w3.org/2000/svg">
<g clip-path="url(#clip0)">
<path fill-rule="evenodd" clip-rule="evenodd" d="M38 5.99254e-06H14.5524C14.0215 -0.00129609 13.5124 0.209641 13.138 0.585944L0.585943 13.138C0.209641 13.5121 -0.00129609 14.0215 5.99253e-06 14.5521V40H1.33334V14.6667H12.6667C13.7708 14.6654 14.6654 13.7708 14.6667 12.6667V1.33334H38C38.3682 1.33366 38.6663 1.63184 38.6667 2.00001V12.6667H40V2.00001C39.9987 0.895839 39.1042 0.00130808 38 5.99254e-06ZM12.6667 13.3333H2.27605L13.3333 2.27605V12.6667C13.333 13.0348 13.0348 13.333 12.6667 13.3333ZM38.0001 35.4282V29.3335C37.9988 28.2293 37.1042 27.3348 36.0001 27.3335H32.6667V25.9607C35.7012 25.6183 37.9958 23.0538 38.0001 20.0001H39.3334V18.6668H38.0001V17.3335C37.9991 16.5975 37.4027 16.0011 36.6667 16.0001H27.3334C26.5974 16.0011 26.001 16.5975 26.0001 17.3335V18.6668H24.6667V20.0001H26.0001C26.0043 23.0538 28.2989 25.6183 31.3334 25.9607V27.3335H28.0001C26.8959 27.3348 26.0014 28.2293 26.0001 29.3335V35.4282C24.8256 35.7303 24.0036 36.7876 24.0001 38.0001V38.6668C24.001 39.4028 24.5974 39.9991 25.3334 40.0001H38.6667C39.4027 39.9991 39.9991 39.4028 40.0001 38.6668V38.0001C39.9965 36.7876 39.1745 35.7303 38.0001 35.4282ZM27.3334 20.0001L27.3324 17.3335H36.6667V20.0001C36.6667 22.5776 34.5775 24.6668 32.0001 24.6668C29.4226 24.6668 27.3334 22.5776 27.3334 20.0001ZM27.3334 29.3335C27.3337 28.9653 27.6319 28.6671 28.0001 28.6668H36.0001C36.3682 28.6671 36.6664 28.9653 36.6667 29.3335V35.3335H35.3334V32.0001C35.3321 30.896 34.4376 30.0014 33.3334 30.0001H30.6667C29.5626 30.0014 28.668 30.896 28.6667 32.0001V35.3335H27.3334V29.3335ZM34.0001 35.3335H30.0001V32.0001C30.0004 31.632 30.2986 31.3338 30.6667 31.3335H33.3334C33.7016 31.3338 33.9997 31.632 34.0001 32.0001V35.3335ZM25.3334 38.6668V38.0001C25.3344 37.2641 25.9307 36.6678 26.6667 36.6668H37.3334C38.0694 36.6678 38.6658 37.2641 38.6667 38.0001V38.6668H25.3334ZM30.6667 4.66683V3.3335H32.0001V4.66683H33.3334C34.0694 4.66781 34.6658 5.26416 34.6667 6.00016V6.66683H33.3334V6.00016H32.0001V8.00016H33.3334C34.0694 8.00114 34.6658 8.59749 34.6667 9.3335V11.3335C34.6658 12.0695 34.0694 12.6659 33.3334 12.6668H32.0001V14.0002H30.6667V12.6668H29.3334C28.5974 12.6659 28.001 12.0695 28.0001 11.3335V10.6668H29.3334V11.3335H30.6667V9.3335H29.3334C28.5974 9.33252 28.001 8.73617 28.0001 8.00016V6.00016C28.001 5.26416 28.5974 4.66781 29.3334 4.66683H30.6667ZM33.3334 11.3335V9.3335H32.0001V11.3335H33.3334ZM29.3334 8.00016H30.6667V6.00016H29.3334V8.00016ZM25.3334 4.66675V6.00008H26.6667V4.66675C26.6671 4.29858 26.9652 4.00041 27.3334 4.00008H28.0001V2.66675H27.3334C26.2292 2.66805 25.3347 3.56258 25.3334 4.66675ZM27.3334 14.6668C26.2292 14.6655 25.3347 13.771 25.3334 12.6668V12.0001H26.6667V12.6668C26.6671 13.035 26.9652 13.3331 27.3334 13.3335H28.0001V14.6668H27.3334ZM34.6667 14.6668H35.3334C36.4375 14.6655 37.3321 13.771 37.3334 12.6668V12.0001H36V12.6668C35.9997 13.035 35.7015 13.3331 35.3334 13.3335H34.6667V14.6668ZM37.3334 4.66675V5.33342H36V4.66675C35.9997 4.29858 35.7015 4.00041 35.3334 4.00008H34.6667V2.66675H35.3334C36.4375 2.66805 37.3321 3.56258 37.3334 4.66675ZM20.0001 5.33342V4.00008C19.9991 3.26408 19.4027 2.66772 18.6667 2.66675H17.3334C16.5974 2.66772 16.001 3.26408 16.0001 4.00008V5.33342C16.001 6.06942 16.5974 6.66577 17.3334 6.66675H18.6667C19.4027 6.66577 19.9991 6.06942 20.0001 5.33342ZM17.3334 4.00008H18.6667L18.6677 5.33342H17.3334V4.00008ZM4.00005 16.0001H5.33338C6.06939 16.0011 6.66574 16.5975 6.66672 17.3335V18.6668C6.66574 19.4028 6.06939 19.9991 5.33338 20.0001H4.00005C3.26405 19.9991 2.66769 19.4028 2.66672 18.6668V17.3335C2.66769 16.5975 3.26405 16.0011 4.00005 16.0001ZM4.00005 17.3335V18.6668H5.33436L5.33338 17.3335H4.00005ZM16.0001 8.00012H17.3334V9.33346H16.0001V8.00012ZM23.3334 8.00012H18.6667V9.33346H23.3334V8.00012ZM16.0001 10.6667H17.3334V12.0001H16.0001V10.6667ZM23.3334 10.6667H18.6667V12.0001H23.3334V10.6667ZM8.00006 16.0001H9.33339V17.3335H8.00006V16.0001ZM17.3334 16.0001H16.0001V17.3335H17.3334V16.0001ZM10.6667 16.0001H14.6667V17.3335H10.6667V16.0001ZM4.00005 21.3335H2.66672V22.6668H4.00005V21.3335ZM10.6667 21.3335H12.0001V22.6668H10.6667V21.3335ZM9.3334 21.3335H5.3334V22.6668H9.3334V21.3335ZM8.00006 18.6667H9.33339V20.0001H8.00006V18.6667ZM12.6667 18.6667H10.6667V20.0001H12.6667V18.6667ZM5.3334 24.0001H6.66674V25.3335H5.3334V24.0001ZM4.00005 24.0001H2.66672V25.3335H4.00005V24.0001ZM16.0001 13.3335H17.3334V14.6668H16.0001V13.3335ZM23.3334 13.3335H18.6667V14.6668H23.3334V13.3335ZM21.3334 5.3335H23.3334V6.66683H21.3334V5.3335ZM23.3334 2.66675H21.3334V4.00008H23.3334V2.66675ZM14.6667 38.0001H16V39.3335H14.6667V38.0001ZM21.3334 38.0001H20.0001V39.3335H21.3334V38.0001ZM9.3334 38.0001H10.6667V39.3335H9.3334V38.0001ZM5.33339 38.0001H4.00006V39.3335H5.33339V38.0001Z" fill="#69A5FF"/>
<path d="M15.9999 20.6665H14.6666C13.9306 20.6675 13.3342 21.2638 13.3333 21.9998V35.3332C13.3342 36.0692 13.9306 36.6655 14.6666 36.6665H15.9999C16.7359 36.6655 17.3323 36.0692 17.3333 35.3332V21.9998C17.3323 21.2638 16.7359 20.6675 15.9999 20.6665ZM15.9999 35.3332L14.6666 35.3338V21.9998H15.9999V35.3332Z" fill="white"/>
<path d="M21.3332 16.6665H19.9998C19.2638 16.6675 18.6675 17.2638 18.6665 17.9998V35.3332C18.6675 36.0692 19.2638 36.6655 19.9998 36.6665H21.3332C22.0692 36.6655 22.6655 36.0692 22.6665 35.3332V17.9998C22.6655 17.2638 22.0692 16.6675 21.3332 16.6665ZM21.3332 35.3332L19.9998 35.3338V17.9998H21.3332V35.3332Z" fill="white"/>
<path d="M10.6667 24.6665H9.33333C8.59733 24.6675 8.00098 25.2638 8 25.9998V35.3332C8.00098 36.0692 8.59733 36.6655 9.33333 36.6665H10.6667C11.4027 36.6655 11.999 36.0692 12 35.3332V25.9998C11.999 25.2638 11.4027 24.6675 10.6667 24.6665ZM10.6667 35.3332L9.33333 35.3338V25.9998H10.6667V35.3332Z" fill="white"/>
<path d="M5.33317 28.6665H3.99984C3.26383 28.6675 2.66748 29.2638 2.6665 29.9998V35.3332C2.66748 36.0692 3.26383 36.6655 3.99984 36.6665H5.33317C6.06917 36.6655 6.66553 36.0692 6.6665 35.3332V29.9998C6.66553 29.2638 6.06917 28.6675 5.33317 28.6665ZM5.33317 35.3332L3.99984 35.3338V29.9998H5.33317V35.3332Z" fill="white"/>
</g>
<defs>
<clipPath id="clip0">
<rect width="40" height="40" fill="white"/>
</clipPath>
</defs>
</svg>
