<svg width="18" height="20" viewBox="0 0 18 20" fill="none" xmlns="http://www.w3.org/2000/svg">
<path d="M17.7607 12.414L16.3716 11.227C16.4375 10.8235 16.4714 10.4116 16.4714 10.0017C16.4714 9.59188 16.4375 9.17779 16.3716 8.77645L17.7607 7.58939C17.8656 7.49958 17.9408 7.37996 17.976 7.24644C18.0113 7.11292 18.0051 6.97182 17.9582 6.84191L17.9391 6.7867C17.5568 5.71791 16.984 4.72721 16.2484 3.8626L16.2102 3.81801C16.1209 3.71301 16.0018 3.63752 15.8687 3.60151C15.7356 3.5655 15.5948 3.57065 15.4647 3.61628L13.74 4.22997C13.1028 3.70759 12.3934 3.29562 11.6245 3.00895L11.291 1.20607C11.2658 1.07026 11.1999 0.945309 11.1021 0.847829C11.0042 0.750349 10.879 0.684952 10.743 0.660326L10.6857 0.649709C9.58118 0.450097 8.41723 0.450097 7.31275 0.649709L7.2554 0.660326C7.11946 0.684952 6.99423 0.750349 6.89635 0.847829C6.79847 0.945309 6.73257 1.07026 6.70741 1.20607L6.37182 3.01744C5.61021 3.3064 4.90072 3.71737 4.27118 4.23422L2.53375 3.61628C2.40368 3.57028 2.2627 3.56495 2.12954 3.60099C1.99637 3.63702 1.87733 3.71271 1.78822 3.81801L1.74999 3.8626C1.01571 4.72813 0.443029 5.71858 0.0592832 6.7867L0.0401672 6.84191C-0.0554129 7.10735 0.0231752 7.40465 0.237699 7.58939L1.64379 8.78919C1.57794 9.18841 1.54608 9.59613 1.54608 9.9996C1.54608 10.4073 1.57794 10.815 1.64379 11.21L0.241947 12.4098C0.137013 12.4996 0.0619094 12.6192 0.0266245 12.7528C-0.00866046 12.8863 -0.00245526 13.0274 0.0444151 13.1573L0.0635312 13.2125C0.447975 14.2806 1.01508 15.2681 1.75424 16.1366L1.79247 16.1812C1.88179 16.2862 2.00084 16.3617 2.13393 16.3977C2.26701 16.4337 2.40789 16.4285 2.53799 16.3829L4.27543 15.765C4.90838 16.2852 5.61355 16.6972 6.37606 16.9818L6.71166 18.7931C6.73682 18.9289 6.80271 19.0539 6.90059 19.1514C6.99848 19.2488 7.12371 19.3142 7.25965 19.3389L7.317 19.3495C8.43234 19.5502 9.57457 19.5502 10.6899 19.3495L10.7473 19.3389C10.8832 19.3142 11.0084 19.2488 11.1063 19.1514C11.2042 19.0539 11.2701 18.9289 11.2953 18.7931L11.6287 16.9902C12.3976 16.7014 13.107 16.2916 13.7442 15.7692L15.4689 16.3829C15.599 16.4289 15.74 16.4342 15.8731 16.3982C16.0063 16.3622 16.1253 16.2865 16.2144 16.1812L16.2527 16.1366C16.9918 15.2638 17.5589 14.2806 17.9434 13.2125L17.9625 13.1573C18.0538 12.894 17.9752 12.5988 17.7607 12.414ZM9.00346 13.5225C6.94105 13.5225 5.26946 11.8513 5.26946 9.78937C5.26946 7.72742 6.94105 6.05621 9.00346 6.05621C11.0659 6.05621 12.7374 7.72742 12.7374 9.78937C12.7374 11.8513 11.0659 13.5225 9.00346 13.5225Z" fill="white"/>
</svg>
