<svg width="44" height="45" fill="none" xmlns="http://www.w3.org/2000/svg"><path d="M42.558 18.984c.775 0 1.406-.63 1.406-1.406v-7.031c0-.776-.63-1.406-1.406-1.406H26.142C24.132 4.076 19.213.703 13.73.703 6.362.703.37 6.696.37 14.063c0 6.217 4.277 11.441 10.038 12.924a3.512 3.512 0 00-.194 1.138v14.063c0 1.162.946 2.109 2.11 2.109h2.812c1.163 0 2.11-.947 2.11-2.11V28.126c0-.39-.07-.77-.193-1.133a13.316 13.316 0 004.41-2.048v5.29c0 .776.632 1.407 1.407 1.407h19.688c.775 0 1.406-.631 1.406-1.407v-7.03c0-.776-.63-1.407-1.406-1.407H24.615a13.209 13.209 0 001.521-2.813h16.422zm-25.313 0h4.182c-1.665 2.593-4.573 4.22-7.697 4.22-5.04 0-9.141-4.102-9.141-9.142 0-5.04 4.1-9.14 9.14-9.14 3.125 0 6.033 1.626 7.698 4.219h-4.182c-.775 0-1.406.63-1.406 1.406v7.031c0 .776.63 1.406 1.406 1.406zm0-1.406v-7.031h8.438v7.031h-8.438zm25.313 0h-15.47v-7.031h15.47v7.031zM15.136 42.891h-2.813a.704.704 0 01-.703-.703V31.64h4.219v10.547a.704.704 0 01-.703.703zm.703-14.766v2.11H11.62v-2.11c0-.3.067-.59.186-.858.63.092 1.269.155 1.924.155.649 0 1.289-.06 1.923-.153.12.268.186.557.186.856zm7.031-4.922h9.844v7.031H22.87v-7.03zm19.688 7.031H34.12v-7.03h8.438v7.03zm-19.732-8.433a1.403 1.403 0 00-1.357 1.359 11.927 11.927 0 01-7.74 2.856c-6.59 0-11.953-5.362-11.953-11.953 0-6.592 5.362-11.954 11.954-11.954 4.718 0 8.975 2.788 10.893 7.032h-1.57c-1.817-3.43-5.424-5.625-9.324-5.625-5.815 0-10.546 4.73-10.546 10.546 0 5.816 4.73 10.547 10.546 10.547 3.9 0 7.507-2.196 9.323-5.625h1.567a11.87 11.87 0 01-1.793 2.817z" fill="#69A5FF"/><path d="M39.745 13.36h1.406v1.406h-1.406v-1.407zm-2.812 0h1.406v1.406h-1.406v-1.407zm-2.813 0h1.406v1.406H34.12v-1.407zm-2.812 0h1.406v1.406h-1.406v-1.407zm-2.813 0h1.406v1.406h-1.406v-1.407zm-4.715-1.904l-3.723 3.722-.909-.91-.994.995 1.904 1.903 4.715-4.716-.994-.994zm15.965 22.997H20.058c-.776 0-1.407.63-1.407 1.406v7.032c0 .775.631 1.406 1.407 1.406h19.687c.776 0 1.406-.63 1.406-1.406v-7.032c0-.775-.63-1.406-1.406-1.406zM20.058 35.86h8.437v7.032h-8.437V35.86zm9.843 7.032V35.86h9.844v7.032h-9.844z" fill="#69A5FF"/><path d="M36.933 38.672h1.406v1.406h-1.406v-1.406zm-2.813 0h1.406v1.406H34.12v-1.406zm-2.812 0h1.406v1.406h-1.406v-1.406zm-7.032-12.656h1.407v1.406h-1.407v-1.406zm2.813 0h1.406v1.406H27.09v-1.406zm2.812 0h1.407v1.406H29.9v-1.406zm-3.309 10.753L22.87 40.49l-.91-.909-.993.994 1.903 1.904 4.716-4.716-.994-.994zm9.14-8.438l.995.994 1.612-1.612 1.612 1.612.994-.994-1.612-1.612 1.612-1.613-.994-.994-1.612 1.613-1.612-1.613-.995.995 1.613 1.612-1.613 1.612z" fill="#69A5FF"/></svg>