<svg width="45" height="46" fill="none" xmlns="http://www.w3.org/2000/svg"><path d="M30.41 40.561h-3.69a.703.703 0 00-.585.313l-1.198 1.796H11.25v-.52l3.427-6.17a.702.702 0 00.089-.34v-4.22h-1.407v4.037l-3.427 6.169a.703.703 0 00-.088.341v1.407a.703.703 0 00.703.703h14.765a.703.703 0 00.585-.313l1.198-1.797h3.315a3.352 3.352 0 002.45-1.069l-1.032-.956a1.914 1.914 0 01-1.418.619z" fill="#69A5FF"/><path d="M39.375 36.694a1.056 1.056 0 01-1.055 1.054H22.148a1.056 1.056 0 01-1.054-1.054V26.498H22.5a4.223 4.223 0 004.219-4.218v-2.813a.703.703 0 00-.703-.703h-7.24a3.335 3.335 0 00-3.17 2.284l-2.21 6.634a.703.703 0 00-.037.223v2.11h1.407v-1.996l2.175-6.526a1.931 1.931 0 011.835-1.323h6.537v2.11a2.816 2.816 0 01-2.813 2.812h-2.813v11.602a2.464 2.464 0 002.461 2.46H38.32a2.464 2.464 0 002.461-2.46V7.514h-1.406v29.18z" fill="#69A5FF"/><path d="M38.32 1.89H22.148a2.464 2.464 0 00-2.46 2.46v13.008h1.406V4.35a1.056 1.056 0 011.054-1.055H38.32a1.056 1.056 0 011.055 1.055v1.758h1.406V4.35a2.464 2.464 0 00-2.46-2.46zm-3.164 9.14h1.407v1.406h1.406v-2.11a.703.703 0 00-.703-.702h-2.11v1.406zm2.813 14.765v-2.109h-1.407v1.406h-1.406V26.5h2.11a.703.703 0 00.703-.704z" fill="#69A5FF"/><path d="M22.5 10.327v2.109h1.406V11.03h1.407V9.624h-2.11a.703.703 0 00-.703.703zm9.14 2.109a.703.703 0 00-.703.703v3.516a.703.703 0 00.704.703h3.515a.703.703 0 00.703-.703v-3.516a.703.703 0 00-.703-.703h-3.515zm2.813 3.516h-2.11v-2.11h2.11v2.11zM24.61 13.14v3.515a.703.703 0 00.703.703h3.515a.703.703 0 00.703-.703v-3.516a.703.703 0 00-.703-.703h-3.515a.703.703 0 00-.704.703zm1.406.702h2.109v2.11h-2.11v-2.11zm9.844 9.141v-3.516a.703.703 0 00-.704-.703h-3.515a.703.703 0 00-.703.703v3.516a.703.703 0 00.703.703h3.515a.703.703 0 00.703-.703zm-1.407-.703h-2.11v-2.11h2.11v2.11zm-4.922.703v-3.516a.703.703 0 00-.703-.703h-.703v4.922h.703a.703.703 0 00.703-.703zM26.719 4.702h7.031v1.406h-7.031V4.702zm-2.813 0h1.407v1.406h-1.407V4.702zm11.25 0h1.407v1.406h-1.407V4.702zM25.313 31.42a4.922 4.922 0 109.844 0 4.922 4.922 0 00-9.844 0zm4.921-3.515a3.516 3.516 0 110 7.032 3.516 3.516 0 010-7.032z" fill="#69A5FF"/><path d="M29.034 33.324a.704.704 0 00.994 0l2.813-2.813-.995-.994-2.315 2.315-.909-.909-.994.995 1.406 1.406zM11.247 20.873a.702.702 0 00.413-.134l1.46-1.062a11.505 11.505 0 004.6-7.26l.003-.015.532-3.372a.703.703 0 00-.408-.752l-6.32-2.818a.703.703 0 00-.572 0l-6.32 2.818a.703.703 0 00-.408.751l.527 3.345.003.016c.103.571.25 1.133.44 1.682l1.33-.46a9.987 9.987 0 01-.385-1.466L5.7 9.343l5.54-2.471 5.542 2.47-.447 2.832a10.105 10.105 0 01-4.042 6.366l-1.044.759-1.118-.824a10.315 10.315 0 01-3.042-3.55l-1.25.646a11.729 11.729 0 003.458 4.036l1.532 1.13a.712.712 0 00.418.136z" fill="#69A5FF"/><path d="M10.53 15.248a.703.703 0 00.497-.206l4.22-4.219-.995-.994-3.722 3.722-1.612-1.613-.995.995 2.11 2.11a.701.701 0 00.497.205z" fill="#69A5FF"/></svg>