<svg width="46" height="45" fill="none" xmlns="http://www.w3.org/2000/svg"><path d="M44.511 26.719v-9.844a2.816 2.816 0 00-2.813-2.813h-.069L38.214 7.14a2.691 2.691 0 00-2.627-1.506 2.65 2.65 0 00-1.007.294l-6.513 3.399a.704.704 0 00-.29.285l-.947 1.727-1.904-.233a.699.699 0 00-.411.075l-5.524 2.883H5.136a2.816 2.816 0 00-2.813 2.812v1.406H3.73v-1.406a1.408 1.408 0 011.406-1.406h8.016l-.136.427a.703.703 0 00.196.733l1.427 1.3-1.427 1.302a.703.703 0 00-.197.733l.586 1.839-1.886.412a.702.702 0 00-.536.537l-.413 1.885-1.839-.586a.704.704 0 00-.733.197l-1.3 1.427-1.301-1.428a.702.702 0 00-.733-.196l-1.13.36v-4.724H2.324v11.25a2.815 2.815 0 002.812 2.813h14.279l-7.811 4.076a1.231 1.231 0 01-.961.081 1.297 1.297 0 01-.76-.668L8.7 34.845l-1.26.622 1.18 2.395a2.69 2.69 0 002.628 1.505 2.63 2.63 0 001.006-.294l10.2-5.323h7.291a.703.703 0 00.39-.118l1.72-1.146 1.72 1.146a.703.703 0 00.39.118h7.733a2.815 2.815 0 002.813-2.813v-2.812h-1.406v2.813a1.408 1.408 0 01-1.406 1.406h-7.522l-1.62-1.08v-1.03h-1.405v1.03l-1.62 1.08H5.136a1.408 1.408 0 01-1.406-1.407v-5.05l1.127-.36 1.517 1.665a.703.703 0 001.04 0l1.516-1.664 2.145.683a.703.703 0 00.9-.52l.481-2.199 2.2-.48a.703.703 0 00.519-.901l-.683-2.145 1.664-1.516a.703.703 0 000-1.04l-1.664-1.516.135-.425h14.905l1.62 1.08v1.732h1.406v-1.733l1.619-1.08h7.522a1.408 1.408 0 011.406 1.407v9.844h1.406zM33.964 14.062a.703.703 0 00-.39.119l-1.72 1.146-1.719-1.146a.703.703 0 00-.39-.118H22.03l2.942-1.536 2.16.265a.703.703 0 00.702-.36l1.073-1.958 6.324-3.3a1.233 1.233 0 01.96-.081 1.296 1.296 0 01.762.668l3.108 6.301h-6.097zm-1.406 7.735h-1.406v-2.11h1.406v2.11zm0 3.515h-1.406v-2.109h1.406v2.11zm-1.406 1.407h1.406v2.11h-1.406v-2.11zm-22.337-9.59l1.08.9-3.516 4.218-1.08-.9 3.516-4.219zm-3.679.45h1.406v1.405H5.136v-1.406zm3.516 4.218V20.39h1.406v1.406H8.652zm6.187 6.047l-.738.984.738.985-1.125.843-.492-.656-.492.656-1.125-.843.738-.985-.738-.984L12.73 27l.492.656.492-.656 1.125.844zm4.219 0l-.738.984.738.985-1.125.843L17.44 30l-.492.656-1.126-.843.739-.985-.739-.984L16.948 27l.493.656.492-.656 1.125.844zm4.219 0l-.739.984.739.985-1.125.843-.493-.656-.492.656-1.125-.843.738-.985-.738-.984L21.167 27l.492.656.493-.656 1.125.844zm4.218 0l-.738.984.738.985-1.125.843-.492-.656-.492.656-1.125-.843.738-.985-.738-.984L25.386 27l.492.656.492-.656 1.125.844zm.141-3.235h-8.438v-1.406h8.438v1.406zm0-2.812h-8.438V20.39h8.438v1.406zm-5.625-4.219v1.406h-2.813v-1.406h2.813zm5.625 1.406h-4.219v-1.406h4.219v1.406zm13.36 5.625h-6.329v-1.406h6.328v1.406zm0-2.812h-6.329V20.39h6.328v1.406zm0-2.813h-6.329v-1.406h6.328v1.406zm-6.329 9.844h6.328v1.406h-6.328v-1.406zm6.328-1.406h-6.328v-1.406h6.328v1.406zm-18.28 14.765h1.405v1.407h-1.406v-1.407zm1.405-1.406h-1.406v-5.625h1.406v5.625zM22.714 4.22h1.406v6.328h-1.406V4.219zm1.406-1.406h-1.406V1.406h1.406v1.407zM43.39 38.88l1.581 1.37-.92 1.063-1.582-1.37.922-1.063zm-.806-.7l-.92 1.063-4.104-3.556.921-1.063 4.103 3.557zM5.28 5.85l7.348 6.369-.921 1.062-7.348-6.368.921-1.062zm-1.868.243L1.863 4.75l.921-1.063 1.55 1.343-.922 1.063zm41.56-1.343l-4.22 3.656-.92-1.062 4.218-3.657.922 1.063zM2.783 41.313l-.921-1.063 4.219-3.656.92 1.062-4.218 3.657zm31.809 1.966l-1.258.63-4.219-8.438 1.258-.63 4.219 8.438zM17.866 12.971L12.242 1.72l1.257-.63 5.625 11.25-1.258.63zM13.5 43.908l-1.258-.629 2.462-4.922 1.257.63-2.46 4.921zM34.593 1.721l-2.11 4.218-1.257-.628 2.11-4.22 1.257.63z" fill="#69A5FF"/></svg>