<svg width="46" height="46" fill="none" xmlns="http://www.w3.org/2000/svg"><path d="M42.23 6.405v33.047a2.816 2.816 0 01-2.813 2.812h-1.406a2.816 2.816 0 01-2.813-2.812V34.53h-1.406v4.922c0 1.038.383 2.04 1.077 2.812H5.667a2.816 2.816 0 01-2.813-2.812V10.624H1.448v28.828a4.223 4.223 0 004.219 4.218h33.75a4.223 4.223 0 004.219-4.218V6.405h-1.407z" fill="#69A5FF"/><path d="M2.854 3.437l1.242.756a.703.703 0 00.731 0L6.772 3.01l1.945 1.184a.703.703 0 00.731 0l1.945-1.184 1.944 1.184a.703.703 0 00.731 0l1.945-1.184 1.945 1.184a.703.703 0 00.73 0l1.946-1.184 1.944 1.184a.703.703 0 00.731 0l1.945-1.184 1.945 1.184a.703.703 0 00.73 0l1.946-1.184 1.944 1.184a.703.703 0 00.731 0l1.242-.756V32.42h1.406V2.186a.703.703 0 00-1.068-.6l-1.945 1.183-1.945-1.184a.703.703 0 00-.73 0L27.563 2.77 25.62 1.585a.703.703 0 00-.732 0L22.945 2.77 21 1.586a.703.703 0 00-.731 0L18.323 2.77l-1.945-1.184a.703.703 0 00-.73 0L13.702 2.77l-1.945-1.184a.703.703 0 00-.731 0L9.082 2.77 7.137 1.585a.703.703 0 00-.73 0L4.461 2.77 2.517 1.585a.703.703 0 00-1.069.601v7.031h1.406v-5.78z" fill="#69A5FF"/><path d="M4.964 6.405h26.719V7.81H4.963V6.405zm0 7.031h26.719v1.406H4.963v-1.406zM17.62 12.03V9.92a.703.703 0 00-.703-.703h-5.625a.703.703 0 00-.703.703v2.11h1.406v-1.406h1.406v1.406h1.407v-1.406h1.406v1.406h1.406zm1.406-2.813v2.11a.703.703 0 00.704.703h5.625a.703.703 0 00.703-.703v-2.11H24.65v1.406h-1.406V9.217H21.84v1.406h-1.406V9.217h-1.407zM9.183 12.03V9.92a.703.703 0 00-.704-.703H5.667a.703.703 0 00-.703.703v2.11H6.37v-1.406h1.406v1.406h1.407zm22.5-2.11a.703.703 0 00-.703-.703h-2.813a.703.703 0 00-.703.703v2.11h1.406v-1.406h1.406v1.406h1.407V9.92zm0 7.735a.703.703 0 00-.703-.703H5.667a.703.703 0 00-.703.703v7.734a.703.703 0 00.703.703H30.98a.703.703 0 00.703-.703v-7.734zm-1.407 7.031H6.37v-6.328h23.906v6.328zM4.964 28.202H12.5v1.406H4.964v-1.406zm0 3.515H12.5v1.407H4.964v-1.407zm0 3.516H12.5v1.406H4.964v-1.406zm0 3.515H12.5v1.407H4.964v-1.407zm9.591-10.546h7.536v1.406h-7.536v-1.406zm0 3.515h7.536v1.407h-7.536v-1.407zm0 3.516h7.536v1.406h-7.536v-1.406zm0 3.515h7.536v1.407h-7.536v-1.407zm9.592-10.546h7.536v1.406h-7.536v-1.406zm0 3.515h7.536v1.407h-7.536v-1.407zm0 3.516h7.536v1.406h-7.536v-1.406zm0 3.515h7.536v1.407h-7.536v-1.407zM36.605 1.483h1.406v38.672h-1.407V1.483zm2.812 4.922h1.406v33.75h-1.406V6.405z" fill="#69A5FF"/></svg>