<svg width="46" height="45" fill="none" xmlns="http://www.w3.org/2000/svg"><g clip-path="url(#clip0)" fill="#69A5FF"><path d="M5.167 42h33a3.754 3.754 0 003.75-3.75v-27a3.754 3.754 0 00-3.75-3.75h-.75V9h.75a2.25 2.25 0 012.25 2.25v27a2.25 2.25 0 01-2.25 2.25h-33a2.25 2.25 0 01-2.25-2.25v-27A2.25 2.25 0 015.167 9h21.75V7.5H5.167a3.754 3.754 0 00-3.75 3.75v27A3.754 3.754 0 005.167 42z"/><path d="M4.417 10.5h1.5V12h-1.5v-1.5zm3 0h1.5V12h-1.5v-1.5zm3 0h1.5V12h-1.5v-1.5zm27 3h1.5V15h-1.5v-1.5zm-33 0h22.5V15h-22.5v-1.5zm.75 3.75a.75.75 0 00-.75.75v9c0 .414.336.75.75.75h10.5a.75.75 0 00.75-.75v-9a.75.75 0 00-.75-.75h-10.5zm9.75 9h-9v-7.5h9v7.5zm3.75-9h5.25v1.5h-5.25v-1.5zm6.75 0h1.5v1.5h-1.5v-1.5zM18.667 21h3v1.5h-3V21zm4.5 0h3.75v1.5h-3.75V21zm-4.5 3.75h8.25v1.5h-8.25v-1.5zm0 3.75h8.25V30h-8.25v-1.5zm0 7.5h9.75v1.5h-9.75V36zm0-3.75h4.5v1.5h-4.5v-1.5zm6 0h2.25v1.5h-2.25v-1.5zm12.75-15h1.5v1.5h-1.5v-1.5zm0 3.75h1.5v1.5h-1.5V21zm0 3.75h1.5v1.5h-1.5v-1.5zm0 3.75h1.5V30h-1.5v-1.5zm0 3.75h1.5v1.5h-1.5v-1.5z"/><path d="M5.917 43.5V45h33a6.007 6.007 0 006-6V12h-1.5v27a4.504 4.504 0 01-4.5 4.5h-33z"/><path d="M32.167 0a3.754 3.754 0 00-3.75 3.75V33c0 .132.034.26.099.375l3 5.25a.75.75 0 001.302 0l3-5.25a.752.752 0 00.099-.375V3.75A3.754 3.754 0 0032.167 0zm0 1.5a2.25 2.25 0 012.25 2.25v.75h-4.5v-.75a2.25 2.25 0 012.25-2.25zm.75 30.75V9h1.5v23.25h-1.5zm-3 0V9h1.5v23.25h-1.5zm0-24.75V6h4.5v1.5h-4.5zm2.25 29.238l-1.708-2.988h3.416l-1.708 2.988z"/></g><defs><clipPath id="clip0"><path fill="#fff" transform="translate(.667)" d="M0 0h45v45H0z"/></clipPath></defs></svg>