<svg width="46" height="46" fill="none" xmlns="http://www.w3.org/2000/svg"><g clip-path="url(#clip0)" fill="#69A5FF"><path d="M42.042.077h-37.5a3.754 3.754 0 00-3.75 3.75v29.25a3.755 3.755 0 003.75 3.75h13.35l-1.228 6.75h-2.372v1.5h18v-1.5h-2.374l-1.226-6.75h13.35a3.755 3.755 0 003.75-3.75V3.827a3.754 3.754 0 00-3.75-3.75zm-23.85 43.5l1.227-6.75h7.747l1.226 6.75h-10.2zm26.1-10.5a2.25 2.25 0 01-2.25 2.25h-37.5a2.25 2.25 0 01-2.25-2.25v-1.5h42v1.5zm0-3h-42V3.827a2.25 2.25 0 012.25-2.25h37.5a2.25 2.25 0 012.25 2.25v26.25z"/><path d="M21.042 3.827a.75.75 0 00-.75.75v2.77a9.674 9.674 0 00-.876.36L17.459 5.75a.75.75 0 00-1.061 0l-3.182 3.183a.75.75 0 000 1.06l1.957 1.958a8.981 8.981 0 00-.361.876h-2.77a.75.75 0 00-.75.75v3.75h1.5v-3h2.569a.75.75 0 00.721-.546c.158-.56.38-1.1.663-1.608a.75.75 0 00-.124-.896l-1.814-1.814 2.121-2.122 1.814 1.814a.75.75 0 00.9.125 7.353 7.353 0 011.608-.66.75.75 0 00.542-.725V5.327h3v-1.5h-3.75zm12.75 10.5v3h-2.569a.75.75 0 00-.721.545c-.158.56-.38 1.1-.663 1.609a.75.75 0 00.124.895l1.814 1.814-2.121 2.122-1.814-1.81a.75.75 0 00-.896-.125 7.476 7.476 0 01-1.609.663.75.75 0 00-.545.722v2.565h-3v1.5h3.75a.75.75 0 00.75-.75v-2.77c.298-.105.59-.226.876-.362l1.957 1.958a.75.75 0 001.061 0l3.182-3.182a.75.75 0 000-1.06l-1.957-1.958a9.01 9.01 0 00.361-.876h2.77a.75.75 0 00.75-.75v-3.75h-1.5zm1.033-7.409a.75.75 0 00-1.214-.221l-2.069 2.07-1.19-1.19 2.07-2.07a.75.75 0 00-.225-1.213 5.2 5.2 0 00-2.155-.467 5.256 5.256 0 00-5.25 5.25c0 .309.029.618.085.922l-.671.671a5.142 5.142 0 00-.914-.093 5.256 5.256 0 00-5.25 5.25c.004.306.035.612.094.913l-.671.671a5.258 5.258 0 00-6.173 5.166c0 .744.159 1.48.467 2.158a.75.75 0 001.214.225l2.069-2.073 1.19 1.19-2.07 2.069a.75.75 0 00.221 1.213 5.203 5.203 0 002.159.468 5.256 5.256 0 005.25-5.25c0-.31-.029-.619-.085-.923l.671-.671a5.2 5.2 0 00.914.094 5.256 5.256 0 005.25-5.25 5.14 5.14 0 00-.094-.914l.675-.671a5.255 5.255 0 006.169-5.165 5.2 5.2 0 00-.467-2.159zm-12.063 5.196l-3.183 3.182a3.758 3.758 0 013.183-3.182zm1.06 7.425l3.183-3.182a3.758 3.758 0 01-3.183 3.182zm6.235-6.714c-.332 0-.663-.043-.983-.13a.75.75 0 00-.723.195l-1.246 1.245-5.504 5.505-1.246 1.25a.75.75 0 00-.194.722 3.736 3.736 0 01-4.035 4.691l1.696-1.696a.75.75 0 000-1.06l-2.25-2.25a.75.75 0 00-1.06 0l-1.697 1.696a3.74 3.74 0 014.695-4.035.75.75 0 00.723-.194l1.246-1.246 5.504-5.504 1.246-1.246a.75.75 0 00.194-.723 3.737 3.737 0 014.035-4.695l-1.696 1.696a.75.75 0 000 1.06l2.25 2.25a.75.75 0 001.06 0L33.77 8.66a3.742 3.742 0 01-3.712 4.165zM11.072 5.547a.75.75 0 00-.53-.22H8.154a2.25 2.25 0 100 1.5h2.077l1.28 1.28 1.06-1.06-1.5-1.5zm-5.03 1.28a.75.75 0 110-1.5.75.75 0 010 1.5zm2.112 6a2.25 2.25 0 100 1.5h1.638v-1.5H8.154zm-2.112 1.5a.75.75 0 110-1.5.75.75 0 010 1.5zm2.25 4.5v3.44l-1.286 1.285c-.3-.147-.63-.224-.964-.225a2.25 2.25 0 102.25 2.25 2.213 2.213 0 00-.225-.964l1.506-1.506a.75.75 0 00.219-.53v-3.75h-1.5zm-2.25 7.5a.75.75 0 110-1.5.75.75 0 010 1.5zM42.663 4.576a2.245 2.245 0 00-2.121-1.5 2.245 2.245 0 00-.75 4.363v1.638h-3v1.5h3.75a.75.75 0 00.75-.75V7.439a2.245 2.245 0 001.371-2.863zm-2.121 1.5a.75.75 0 110-1.5.75.75 0 010 1.5zm2.12 18.744a2.246 2.246 0 00-2.12-1.493 2.25 2.25 0 00-2.112 1.5h-2.077l-1.656-1.655-1.06 1.06 1.875 1.875c.14.141.331.22.53.22h2.388a2.246 2.246 0 004.232-1.507zm-2.12 1.507a.75.75 0 110-1.5.75.75 0 010 1.5zm2.122-11.251a2.245 2.245 0 00-2.122-1.5 2.245 2.245 0 00-.75 4.363v1.327l-1.655 1.655 1.06 1.06 1.875-1.874a.75.75 0 00.22-.53v-1.638a2.245 2.245 0 001.372-2.863zm-2.122 1.5a.75.75 0 110-1.5.75.75 0 010 1.5z"/></g><defs><clipPath id="clip0"><path fill="#fff" transform="translate(.792 .077)" d="M0 0h45v45H0z"/></clipPath></defs></svg>