<svg width="21" height="22" fill="none" xmlns="http://www.w3.org/2000/svg"><path d="M3.937 7.877c-1.555 2.699-.566 6.794 1.154 9.277.858 1.241 1.727 2.355 2.917 2.355h.068c.56-.023.964-.195 1.354-.362.439-.187.893-.38 1.604-.38.677 0 1.11.187 1.527.368.412.178.836.362 1.463.35 1.34-.024 2.164-1.227 2.89-2.288a10.14 10.14 0 001.267-2.593l.005-.017a.15.15 0 00-.08-.185l-.011-.004c-.236-.097-2.307-1.016-2.33-3.52-.02-2.035 1.554-3.112 1.87-3.307l.015-.01a.15.15 0 00.043-.211c-1.087-1.59-2.753-1.83-3.423-1.86a3.018 3.018 0 00-.299-.014c-.787 0-1.541.297-2.147.536-.419.165-.78.308-1.03.308-.28 0-.643-.145-1.063-.312-.563-.223-1.2-.476-1.876-.476h-.048c-1.57.024-3.053.922-3.87 2.344z" fill="#838FC0"/><path d="M14.272 1.115c-.95.04-2.09.624-2.773 1.423-.579.67-1.145 1.79-.996 2.917a.15.15 0 00.138.13c.064.006.13.008.195.008.93 0 1.932-.514 2.617-1.342.72-.874 1.085-1.996.975-3.001a.152.152 0 00-.156-.135z" fill="#838FC0"/></svg>