<svg width="21" height="21" fill="none" xmlns="http://www.w3.org/2000/svg"><g clip-path="url(#clip0)" fill="#00A2B5"><path d="M18.245 9.614v8.892H3.525V9.614H2.153v9.577c0 .38.307.686.686.686h16.092a.686.686 0 00.685-.686V9.614h-1.371z"/><path d="M20.187 4.471H1.56a.686.686 0 00-.686.686v4.48c0 .379.307.686.686.686h18.628a.686.686 0 00.686-.686v-4.48a.686.686 0 00-.686-.686zm-.685 4.48H2.244V5.843h17.258V8.95z"/><path d="M11.548 4.984C11.5 4.806 10.37.632 7.068.632A2.609 2.609 0 004.46 3.237c0 1.437 1.16 2.606 2.583 2.606h3.84a.686.686 0 00.664-.86zm-4.504-.512c-.679 0-1.211-.542-1.211-1.235a1.25 1.25 0 011.234-1.234c1.505 0 2.406 1.482 2.839 2.469H7.044z"/><path d="M14.702.632c-3.303 0-4.434 4.174-4.48 4.352a.686.686 0 00.663.86h3.84c1.424 0 2.583-1.17 2.583-2.606A2.609 2.609 0 0014.702.632zm.023 3.84H11.86c.43-.987 1.329-2.469 2.842-2.469a1.25 1.25 0 011.235 1.235c0 .692-.533 1.234-1.212 1.234z"/><path d="M11.57 5.157h-1.372v14.034h1.372V5.157z"/></g><defs><clipPath id="clip0"><path fill="#fff" transform="translate(.873 .254)" d="M0 0h20v20H0z"/></clipPath></defs></svg>