<svg width="20" height="20" fill="none" xmlns="http://www.w3.org/2000/svg"><path d="M10.02 15.489a1.953 1.953 0 100-3.907 1.953 1.953 0 000 3.907z" fill="#69A5FF"/><path d="M19.414 0H.586A.586.586 0 000 .586v14.062c0 .323.262.586.586.586h6.812c-1.343-2.067.147-4.823 2.622-4.823 2.474 0 3.964 2.756 2.62 4.823h6.774a.586.586 0 00.586-.586V.586A.586.586 0 0019.414 0zM7.656 2.383h4.688a.586.586 0 010 1.171H7.656a.586.586 0 110-1.171zm8.203 7.03H4.141a.586.586 0 110-1.171h11.718a.586.586 0 110 1.172zm0-2.343H4.141a.586.586 0 110-1.172h11.718a.586.586 0 110 1.172zm-8.173 8.54v3.803c0 .465.518.748.91.488l1.443-.957 1.444.957a.587.587 0 00.91-.488v-3.848a3.119 3.119 0 01-4.707.046z" fill="#69A5FF"/></svg>