<svg width="20" height="15" fill="none" xmlns="http://www.w3.org/2000/svg"><rect y=".357" width="20" height="14.286" rx="2" fill="#fff"/><mask id="a" maskUnits="userSpaceOnUse" x="0" y="0" width="20" height="15"><rect y=".357" width="20" height="14.286" rx="2" fill="#fff"/></mask><g mask="url(#a)"><path d="M9.069 1.899c.149-.271.394-.51.572-.557.172-.046.27-.045.513.006.117.025.343.07.501.098.629.115.975.234 1.143.393.058.055.117.176.175.357l.09.282a.976.976 0 00.139-.12c.258-.246.68-.402 1.012-.376.37.03.743.306 1.081.8.11.162.212.463.212.63 0 .044.036.181.08.304.133.379.098.648-.125.941a.558.558 0 00-.083.133c0 .065.281.364.52.553.197.156.295.26.36.38.223.42.308.534.496.666.228.16.366.356.415.592l.036.175.101-.026c.355-.09.668.055.88.41.038.064.136.17.217.237.254.209.327.477.2.738-.122.254-.774.798-1.046.873-.272.076-.522.015-.79-.191a.898.898 0 00-.195-.127c-.016 0-.054.04-.084.091-.052.088-.051.093.023.163.131.123.214.368.237.703.02.286.03.315.135.452.142.183.21.427.238.853.038.58-.032.637-.72.582-.66-.052-.807-.008-.95.281-.073.152-.085.222-.103.656-.023.548-.06.67-.252.815-.096.074-.143.086-.323.085a.871.871 0 01-.44-.108c-.207-.096-.248-.104-.407-.084-.277.034-.489-.026-.792-.224-.146-.095-.295-.173-.331-.174a2.05 2.05 0 00-.351.099c-.388.134-.571.135-.867.003-.29-.13-.38-.129-.574.005-.248.17-.35.212-.514.212a.56.56 0 01-.473-.246c-.079-.106-.12-.132-.237-.149a.822.822 0 01-.53-.34c-.183-.25-.203-.252-1.774-.252-1.77.001-1.852.013-2.029.293l-.189.3c-.19.3-.516.411-1.084.366-.291-.024-.32-.032-.41-.122-.14-.14-.15-.298-.044-.705.047-.18.08-.36.075-.398-.006-.04-.085-.127-.185-.204-.278-.211-.339-.413-.24-.797.07-.265.234-.5.472-.67.295-.212.397-.324.456-.501.062-.187.069-.53.015-.825-.035-.193-.095-.378-.494-1.527-.18-.52-.207-.678-.132-.792.095-.145.216-.172.545-.125.442.065.871.058 1.143-.017.127-.036.282-.064.346-.064.107 0 .118-.01.154-.128a.367.367 0 01.156-.208.56.56 0 01.147-.08c.017 0 .159-.06.316-.132.238-.11.308-.128.418-.113l.133.018.004-.182a1.47 1.47 0 01.092-.422c.049-.132.109-.326.134-.431.157-.666.276-.837.745-1.07.079-.04.17-.095.201-.123.055-.048.052-.056-.057-.148-.21-.176-.207-.47.004-.759.062-.084.126-.154.142-.154.016 0 .101-.1.19-.22.088-.123.226-.266.307-.319.217-.144.367-.155.721-.054l.297.086.053-.066c.03-.036.112-.172.183-.301z" fill="#F92323"/></g></svg>