<svg width="20" height="21" fill="none" xmlns="http://www.w3.org/2000/svg"><path d="M7.658 6.744a6.104 6.104 0 016.098 6.098 6.104 6.104 0 01-6.098 6.097 6.104 6.104 0 01-6.096-6.098 6.103 6.103 0 016.096-6.097zm0-1.56A7.66 7.66 0 000 12.842 7.66 7.66 0 007.658 20.5a7.661 7.661 0 007.659-7.659 7.66 7.66 0 00-7.659-7.657z" fill="#69A5FF"/><path d="M14.682.501a5.315 5.315 0 00-5.296 4.92 7.643 7.643 0 013.788 2.193c.092-.007.224-.02.404-.037.195-.02.19-.041.264-.062a.432.432 0 00.218-.149.53.53 0 00.074-.308V4.501h-1.001v-.384h.252c.328 0 .624-.061.884-.184.262-.12.447-.251.561-.391h.535l-.027.693c-.01.267-.015.504-.015.714v2.058c0 .107.024.202.072.285a.433.433 0 00.204.186c.079.033.208.063.388.09.18.029.16.044.248.047v.496h-2.626a7.627 7.627 0 011.453 3.005A5.315 5.315 0 0020 5.818 5.32 5.32 0 0014.682.501zM9.606 12.216c.265.177.489.414.668.714.18.3.272.671.272 1.114 0 .78-.302 1.417-.907 1.91-.603.496-1.375.742-2.314.742-.727 0-1.333-.155-1.818-.467-.486-.312-.729-.68-.729-1.105a.9.9 0 01.242-.638c.163-.175.376-.262.646-.262.28 0 .51.076.689.226a.756.756 0 01.269.604c0 .177-.03.37-.091.579a9.2 9.2 0 01-.148.478 1.4 1.4 0 00.298.072c.113.016.219.024.318.024a1.413 1.413 0 001.095-.532c.16-.199.28-.434.363-.705.081-.27.122-.578.122-.923 0-.499-.135-.909-.404-1.228a1.286 1.286 0 00-1.039-.483c-.331 0-.607.067-.832.2a2.374 2.374 0 00-.6.524l-.411-.138.516-3.914h4.4v1.468H6.196l-.22 1.754c.19-.12.437-.236.739-.345.302-.11.655-.165 1.062-.165.314 0 .627.035.933.105.306.069.606.2.897.39z" fill="#69A5FF"/></svg>