<svg width="19" height="25" fill="none" xmlns="http://www.w3.org/2000/svg"><path d="M10.965 4.395h-.733v-.779c0-1.186.965-2.151 2.152-2.151h.778V0h-.778a3.62 3.62 0 00-3.616 3.616v.779h-.733v5.908h2.93V4.395z" fill="#69A5FF"/><path d="M9.5 25c1.549 0 3.2-.436 5.088-1.905.993-5.96 1.504-9.006 1.504-15.038v-.392L12.43 5.223v6.545H6.57V5.223L2.908 7.665v.392c0 6.046.513 9.092 1.524 15.157C6.654 24.848 8.698 25 9.5 25zm8.79-8.52l-1.129-.678c-.19 1.678-.444 3.394-.76 5.322l1.889-.756V16.48zm-16.453-.676l-1.126.675v3.89l1.89.755c-.323-1.96-.576-3.669-.764-5.32z" fill="#69A5FF"/></svg>