<svg width="20" height="21" fill="none" xmlns="http://www.w3.org/2000/svg"><path d="M19.871 11.39l-1.47-2.332a.835.835 0 01-.109-.621l.584-2.694a.835.835 0 00-.561-.972L15.69 3.93a.835.835 0 01-.484-.405l-1.284-2.439a.835.835 0 00-1.055-.384l-2.552 1.043a.836.836 0 01-.63 0L7.132.7a.835.835 0 00-1.055.384l-1.283 2.44a.835.835 0 01-.484.405l-2.625.842a.835.835 0 00-.56.972l.583 2.694a.835.835 0 01-.11.621L.128 11.39a.835.835 0 00.195 1.105l2.179 1.689c.173.134.286.33.316.547l.373 2.73c.058.427.43.739.86.722l2.754-.107a.836.836 0 01.593.216l2.041 1.852a.835.835 0 001.122 0l2.041-1.852a.834.834 0 01.594-.216l2.754.107a.835.835 0 00.86-.721l.373-2.731a.836.836 0 01.315-.547l2.179-1.689a.835.835 0 00.194-1.104zM7.687 13.83l-2.432-1.698 1 2.317-.667.287-1.533-3.553.698-.301 2.478 1.745-1.024-2.373.666-.287 1.534 3.553-.72.31zm1.479-.638L7.632 9.64l2.635-1.138.259.601-1.917.828.34.787 1.784-.77.258.599-1.784.77.417.967 1.985-.857.258.599-2.701 1.166zm6.005-2.591l-1.854-2.352.441 2.961-.778.336-2.38-3.187.734-.317 1.59 2.21-.405-2.721.854-.369 1.694 2.213-.526-2.717.722-.312.67 3.926-.76.329z" fill="#69A5FF"/></svg>