<svg width="40" height="40" fill="none" xmlns="http://www.w3.org/2000/svg"><g clip-path="url(#clip0)" fill-rule="evenodd" clip-rule="evenodd" fill="#69A5FF"><path d="M10.694 31.517A14.84 14.84 0 0020 34.807c8.165 0 14.807-6.642 14.807-14.807S28.164 5.193 20 5.193a14.84 14.84 0 00-9.306 3.29 14.865 14.865 0 00-5.136 8.239.781.781 0 101.524.345C8.454 10.995 13.767 6.756 20 6.756c7.303 0 13.244 5.941 13.244 13.244S27.303 33.245 20 33.245c-6.233 0-11.545-4.24-12.918-10.311a.781.781 0 00-1.524.344 14.865 14.865 0 005.136 8.24z"/><path d="M38.406 12.166a.781.781 0 00-1.437.612 18.318 18.318 0 011.468 7.223c0 10.166-8.27 18.437-18.437 18.437-10.166 0-18.438-8.27-18.438-18.437C1.563 9.834 9.835 1.563 20 1.563c2.506 0 4.936.495 7.223 1.47a.781.781 0 10.612-1.438A19.87 19.87 0 0020 0 19.87 19.87 0 005.858 5.859 19.87 19.87 0 000 20a19.87 19.87 0 005.858 14.142A19.87 19.87 0 0020 40.001a19.87 19.87 0 0014.142-5.858A19.87 19.87 0 0040 20.001c0-2.718-.536-5.354-1.594-7.835z"/><path d="M29.401 6.747h3.456v3.627a.781.781 0 101.562 0V6.747h3.456a.781.781 0 000-1.563h-3.456V1.557a.781.781 0 00-1.562 0v3.627H29.4a.781.781 0 000 1.563zm-10.61 17.489a4.725 4.725 0 004.72 4.72 4.725 4.725 0 004.72-4.72 4.719 4.719 0 00-2.123-3.939 4.719 4.719 0 002.124-3.939 4.725 4.725 0 00-4.72-4.72 4.725 4.725 0 00-4.72 4.72c0 1.644.845 3.094 2.123 3.939a4.719 4.719 0 00-2.123 3.939zm1.563-7.878a3.161 3.161 0 013.158-3.157 3.161 3.161 0 013.157 3.157 3.161 3.161 0 01-3.157 3.158 3.161 3.161 0 01-3.158-3.158zm3.158 4.72a3.161 3.161 0 013.157 3.158 3.161 3.161 0 01-3.157 3.157 3.161 3.161 0 01-3.158-3.157 3.161 3.161 0 013.158-3.158zm-8.158-8.418l-.001-.02a.774.774 0 00-.011-.073l-.004-.017a.718.718 0 00-.016-.06l-.014-.04-.012-.033a.781.781 0 00-.032-.066l-.001-.003a.788.788 0 00-.04-.066l-.012-.014a.811.811 0 00-.035-.048l-.003-.003-.017-.018a.36.36 0 00-.033-.035c-.008-.009-.018-.017-.027-.025l-.03-.026-.031-.024-.03-.02c-.01-.008-.022-.014-.033-.021l-.033-.019-.032-.015-.038-.017-.03-.011-.042-.014-.03-.008a.752.752 0 00-.044-.01c-.01-.003-.022-.004-.033-.006l-.042-.005-.042-.002-.03-.002h-.004c-.018 0-.035.002-.053.003-.008 0-.017 0-.025.002a.83.83 0 00-.107.02l-.043.01-.042.015-.03.011a.781.781 0 00-.062.03l-.008.005a.775.775 0 00-.064.039l-.017.012a.746.746 0 00-.045.034l-.003.003-3.1 2.609a.781.781 0 101.006 1.195l1.816-1.528v13.475a.781.781 0 001.562 0V12.716a.793.793 0 00-.003-.058zM6.756 20a.783.783 0 00-1.563 0 .783.783 0 001.563 0z"/></g><defs><clipPath id="clip0"><path fill="#fff" d="M0 0h40v40H0z"/></clipPath></defs></svg>