<svg width="45" height="45" viewBox="0 0 45 45" fill="none" xmlns="http://www.w3.org/2000/svg">
<path d="M2.79881 22.5347C2.79881 26.4652 3.96434 30.3075 6.14801 33.5756C8.33168 36.8437 11.4354 39.3908 15.0667 40.895C18.698 42.3991 22.6938 42.7927 26.5488 42.0259C30.4038 41.2591 33.9448 39.3663 36.7241 36.5871C39.5034 33.8078 41.3961 30.2667 42.1629 26.4118C42.9297 22.5568 42.5362 18.561 41.0321 14.9297C39.5279 11.2983 36.9808 8.1946 33.7127 6.01093C30.4446 3.82725 26.6023 2.66172 22.6718 2.66172" stroke="#0D0F22" stroke-width="4" stroke-linecap="round" stroke-linejoin="round"/>
<path d="M2.79881 22.5347C2.79881 26.4652 3.96434 30.3075 6.14801 33.5756C8.33168 36.8437 11.4354 39.3908 15.0667 40.895C18.698 42.3991 22.6938 42.7927 26.5488 42.0259C30.4038 41.2591 33.9448 39.3663 36.7241 36.5871C39.5034 33.8078 41.3961 30.2667 42.1629 26.4118C42.9297 22.5568 42.5362 18.561 41.0321 14.9297C39.5279 11.2983 36.9808 8.1946 33.7127 6.01093C30.4446 3.82725 26.6023 2.66172 22.6718 2.66172" stroke="url(#paint0_linear)" stroke-width="4" stroke-linecap="round" stroke-linejoin="round"/>
<path d="M2.79881 22.5347C2.79881 26.4652 3.96434 30.3075 6.14801 33.5756C8.33168 36.8437 11.4354 39.3908 15.0667 40.895C18.698 42.3991 22.6938 42.7927 26.5488 42.0259C30.4038 41.2591 33.9448 39.3663 36.7241 36.5871C39.5034 33.8078 41.3961 30.2667 42.1629 26.4118C42.9297 22.5568 42.5362 18.561 41.0321 14.9297C39.5279 11.2983 36.9808 8.1946 33.7127 6.01093C30.4446 3.82725 26.6023 2.66172 22.6718 2.66172" stroke="url(#paint1_linear)" stroke-width="4" stroke-linecap="round" stroke-linejoin="round"/>
<path d="M2.79881 22.5347C2.79881 26.4652 3.96434 30.3075 6.14801 33.5756C8.33168 36.8437 11.4354 39.3908 15.0667 40.895C18.698 42.3991 22.6938 42.7927 26.5488 42.0259C30.4038 41.2591 33.9448 39.3663 36.7241 36.5871C39.5034 33.8078 41.3961 30.2667 42.1629 26.4118C42.9297 22.5568 42.5362 18.561 41.0321 14.9297C39.5279 11.2983 36.9808 8.1946 33.7127 6.01093C30.4446 3.82725 26.6023 2.66172 22.6718 2.66172" stroke="url(#paint2_linear)" stroke-width="4" stroke-linecap="round" stroke-linejoin="round"/>
<path d="M19.3591 19.5198C19.3591 20.0771 19.2159 20.5745 18.9294 21.012C18.643 21.4443 18.2524 21.7854 17.7576 22.0354C18.3513 22.3114 18.807 22.689 19.1248 23.1682C19.4477 23.6474 19.6091 24.189 19.6091 24.7932C19.6091 25.7932 19.2706 26.5875 18.5935 27.176C17.9164 27.7594 17.0154 28.051 15.8904 28.051C14.7602 28.051 13.8539 27.7568 13.1716 27.1682C12.4945 26.5797 12.156 25.788 12.156 24.7932C12.156 24.1838 12.3175 23.637 12.6404 23.1526C12.9633 22.6682 13.4164 22.2958 13.9998 22.0354C13.5102 21.7854 13.1222 21.4443 12.8357 21.012C12.5544 20.5745 12.4138 20.0771 12.4138 19.5198C12.4138 18.551 12.7263 17.7828 13.3513 17.2151C13.9763 16.6474 14.8201 16.3635 15.8826 16.3635C16.9503 16.3635 17.7966 16.6474 18.4216 17.2151C19.0466 17.7828 19.3591 18.551 19.3591 19.5198ZM17.7107 24.6995C17.7107 24.137 17.5414 23.6838 17.2029 23.3401C16.8695 22.9911 16.4268 22.8167 15.8748 22.8167C15.3227 22.8167 14.88 22.9885 14.5466 23.3323C14.2185 23.676 14.0544 24.1318 14.0544 24.6995C14.0544 25.2568 14.2159 25.7021 14.5388 26.0354C14.8669 26.3687 15.3175 26.5354 15.8904 26.5354C16.4633 26.5354 16.9086 26.3739 17.2263 26.051C17.5492 25.7281 17.7107 25.2776 17.7107 24.6995ZM17.4685 19.5901C17.4685 19.0953 17.3253 18.689 17.0388 18.3713C16.7524 18.0484 16.3669 17.887 15.8826 17.887C15.3982 17.887 15.0154 18.0406 14.7341 18.3479C14.4529 18.65 14.3123 19.064 14.3123 19.5901C14.3123 20.1109 14.4529 20.525 14.7341 20.8323C15.0206 21.1396 15.406 21.2932 15.8904 21.2932C16.3748 21.2932 16.7576 21.1396 17.0388 20.8323C17.3253 20.525 17.4685 20.1109 17.4685 19.5901ZM22.5935 25.8948C22.9477 25.8948 23.2211 25.9963 23.4138 26.1995C23.6065 26.3974 23.7029 26.6474 23.7029 26.9495C23.7029 27.2463 23.6065 27.4937 23.4138 27.6917C23.2211 27.8844 22.9477 27.9807 22.5935 27.9807C22.255 27.9807 21.9867 27.8844 21.7888 27.6917C21.5909 27.4989 21.4919 27.2515 21.4919 26.9495C21.4919 26.6474 21.5883 26.3974 21.781 26.1995C21.9737 25.9963 22.2445 25.8948 22.5935 25.8948ZM27.9529 21.3401H29.1091C29.6925 21.3349 30.1534 21.1838 30.4919 20.887C30.8357 20.5901 31.0076 20.1604 31.0076 19.5979C31.0076 19.0562 30.8643 18.637 30.5779 18.3401C30.2966 18.038 29.8643 17.887 29.281 17.887C28.7706 17.887 28.3513 18.0354 28.0232 18.3323C27.6951 18.6239 27.531 19.0068 27.531 19.4807H25.6326C25.6326 18.8974 25.7862 18.3661 26.0935 17.887C26.406 17.4078 26.8383 17.0354 27.3904 16.7698C27.9477 16.4989 28.5701 16.3635 29.2576 16.3635C30.393 16.3635 31.2836 16.65 31.9294 17.2229C32.5805 17.7906 32.906 18.5823 32.906 19.5979C32.906 20.1083 32.7419 20.5901 32.4138 21.0432C32.0909 21.4911 31.6716 21.8297 31.156 22.0588C31.781 22.2724 32.255 22.6083 32.5779 23.0667C32.906 23.525 33.0701 24.0719 33.0701 24.7073C33.0701 25.7281 32.7185 26.5406 32.0154 27.1448C31.3175 27.7489 30.3982 28.051 29.2576 28.051C28.1638 28.051 27.268 27.7594 26.5701 27.176C25.8722 26.5927 25.5232 25.8167 25.5232 24.8479H27.4216C27.4216 25.3479 27.5883 25.7542 27.9216 26.0667C28.2602 26.3792 28.7133 26.5354 29.281 26.5354C29.8695 26.5354 30.3331 26.3792 30.6716 26.0667C31.0102 25.7542 31.1794 25.301 31.1794 24.7073C31.1794 24.1083 31.0024 23.6474 30.6482 23.3245C30.294 23.0015 29.768 22.8401 29.0701 22.8401H27.9529V21.3401Z" fill="white"/>
<defs>
<linearGradient id="paint0_linear" x1="42.5448" y1="22.5347" x2="2.79881" y2="22.5347" gradientUnits="userSpaceOnUse">
<stop stop-color="#75CCD5"/>
<stop offset="1" stop-color="#2C319E"/>
</linearGradient>
<linearGradient id="paint1_linear" x1="42.5448" y1="22.5347" x2="2.79881" y2="22.5348" gradientUnits="userSpaceOnUse">
<stop stop-color="#01C3DA"/>
<stop offset="1" stop-color="#8226B7"/>
</linearGradient>
<linearGradient id="paint2_linear" x1="42.5448" y1="22.5347" x2="2.79881" y2="22.5348" gradientUnits="userSpaceOnUse">
<stop stop-color="#8226B7"/>
<stop offset="1" stop-color="#00A2B5"/>
</linearGradient>
</defs>
</svg>
