<svg width="16" height="20" viewBox="0 0 16 20" fill="none" xmlns="http://www.w3.org/2000/svg">
<path d="M15.3593 11.0818C15.3593 11.9259 14.6731 12.6103 13.8266 12.6103H9.22852L9.60041 14.8918L9.89213 16.8618C10.017 18.2315 8.78516 19.3354 7.4328 19.0657V19.0657L6.4038 16.5143C5.35798 13.9212 2.83489 12.2239 0.0322418 12.2282V3.057C1.46609 3.057 2.83019 2.85758 3.85016 1.85247C4.77285 0.943355 6.0408 0.38208 7.44037 0.38208H11.5276C12.374 0.38208 13.0603 1.06645 13.0603 1.91061C13.0603 2.75476 12.374 3.43913 11.5276 3.43913H13.0603C13.9067 3.43913 14.593 4.12351 14.593 4.96766C14.593 5.81182 13.9067 6.49619 13.0603 6.49619H13.8266C14.6731 6.49619 15.3593 7.18056 15.3593 8.02472C15.3593 8.86887 14.6731 9.55324 13.8266 9.55324C14.6731 9.55324 15.3593 10.2376 15.3593 11.0818Z" fill="white"/>
</svg>
