<svg width="18" height="20" viewBox="0 0 18 20" fill="none" xmlns="http://www.w3.org/2000/svg">
<g clip-path="url(#clip0)">
<path d="M17.5996 8.6985C17.5996 7.85435 16.9133 7.16997 16.0669 7.16997L11.4687 7.16997L11.8406 4.88845L12.1323 2.91843C12.2572 1.54876 11.0254 0.444862 9.67302 0.714546L9.67302 0.714597L8.64402 3.26596C7.5982 5.85911 5.07511 7.55639 2.27246 7.55211L2.27246 16.7233C3.70631 16.7233 5.07041 16.9227 6.09038 17.9278C7.01307 18.8369 8.28102 19.3982 9.68058 19.3982L13.7678 19.3982C14.6143 19.3982 15.3005 18.7138 15.3005 17.8697C15.3005 17.0255 14.6143 16.3411 13.7678 16.3411L15.3005 16.3411C16.147 16.3411 16.8332 15.6568 16.8332 14.8126C16.8332 13.9685 16.147 13.2841 15.3005 13.2841L16.0669 13.2841C16.9133 13.2841 17.5996 12.5997 17.5996 11.7556C17.5996 10.9114 16.9133 10.227 16.0669 10.227C16.9133 10.227 17.5996 9.54271 17.5996 8.6985Z" fill="white"/>
</g>
<defs>
<clipPath id="clip0">
<rect width="18" height="19.8947" fill="white" transform="matrix(1 -8.74228e-08 -8.74228e-08 -1 0 20)"/>
</clipPath>
</defs>
</svg>
