<svg width="21" height="22" viewBox="0 0 21 22" fill="none" xmlns="http://www.w3.org/2000/svg">
<path d="M3.93737 7.87704C2.3823 10.5756 3.37089 14.6707 5.09053 17.1537C5.94891 18.3951 6.81796 19.5095 8.00828 19.5095C8.03071 19.5095 8.05321 19.5091 8.07624 19.5081C8.63549 19.4858 9.03962 19.3137 9.43036 19.1473C9.86905 18.9603 10.3228 18.767 11.0344 18.767C11.7114 18.767 12.1435 18.954 12.5613 19.1348C12.9731 19.313 13.3972 19.4973 14.024 19.4855C15.3648 19.4606 16.188 18.2581 16.9143 17.1974C17.6722 16.0898 18.0524 15.0144 18.1806 14.6035L18.1858 14.5871C18.2102 14.5141 18.1757 14.4344 18.1057 14.4022C18.1038 14.4013 18.0967 14.3984 18.0947 14.3975C17.8586 14.301 15.7875 13.3822 15.7657 10.8779C15.7455 8.84331 17.3194 7.76589 17.6351 7.57061L17.6498 7.56144C17.684 7.53943 17.7078 7.50451 17.7159 7.46459C17.724 7.42472 17.7155 7.38323 17.6926 7.3497C16.6062 5.75984 14.9411 5.52023 14.2707 5.4914C14.1734 5.48169 14.073 5.47681 13.9722 5.47681C13.1848 5.47681 12.4305 5.77419 11.8245 6.01313C11.4062 6.17808 11.0449 6.32053 10.7957 6.32053C10.5157 6.32053 10.1523 6.17633 9.73154 6.00939C9.16886 5.78607 8.53109 5.53301 7.85594 5.53301C7.83983 5.53301 7.82397 5.5332 7.80835 5.5335C6.23851 5.5566 4.75516 6.45472 3.93737 7.87704Z" fill="#838FC0"/>
<path d="M14.2721 1.11535C13.3215 1.15407 12.1811 1.73925 11.4995 2.53761C10.9202 3.20867 10.3543 4.32752 10.5034 5.4553C10.5128 5.52586 10.5702 5.58032 10.6412 5.58581C10.7053 5.59081 10.7708 5.59334 10.8361 5.5934C11.7656 5.5934 12.7684 5.07915 13.4532 4.25111C14.1739 3.37675 14.5384 2.25465 14.4281 1.24954C14.4195 1.17077 14.3502 1.11227 14.2721 1.11535Z" fill="#838FC0"/>
</svg>
