<svg width="21" height="21" viewBox="0 0 21 21" fill="none" xmlns="http://www.w3.org/2000/svg">
<g clip-path="url(#clip0)">
<path d="M18.2449 9.6142V18.5056H3.52489V9.6142H2.15344V19.1913C2.15344 19.5701 2.4604 19.877 2.83915 19.877H18.9306C19.3093 19.877 19.6163 19.5701 19.6163 19.1913V9.6142H18.2449Z" fill="#00A2B5"/>
<path d="M20.1873 4.47119H1.55875C1.18 4.47119 0.873047 4.77814 0.873047 5.15689V9.63689C0.873047 10.0156 1.18 10.3226 1.55875 10.3226H20.1873C20.5661 10.3226 20.873 10.0158 20.873 9.63689V5.15689C20.873 4.77814 20.5661 4.47119 20.1873 4.47119ZM19.5016 8.95143H2.24449V5.84287H19.5016V8.95143H19.5016Z" fill="#00A2B5"/>
<path d="M11.5476 4.98377C11.501 4.80595 10.3698 0.631775 7.06713 0.631775C5.63033 0.631775 4.46143 1.80068 4.46143 3.23748C4.46143 4.67427 5.62006 5.84318 7.04428 5.84318H10.8843C11.0966 5.84318 11.2973 5.74467 11.4271 5.57642C11.5569 5.40818 11.6013 5.18924 11.5476 4.98377ZM7.04432 4.47178C6.36502 4.47178 5.83287 3.92959 5.83287 3.23748C5.83287 2.56845 6.39814 2.00318 7.06717 2.00318C8.57186 2.00318 9.47287 3.48549 9.90603 4.47174H7.04432V4.47178Z" fill="#00A2B5"/>
<path d="M14.702 0.631775C11.3994 0.631775 10.2682 4.80595 10.2215 4.98377C10.1676 5.18924 10.2122 5.40822 10.342 5.57646C10.4718 5.7447 10.6723 5.84322 10.8849 5.84322H14.7249C16.1491 5.84322 17.3077 4.67431 17.3077 3.23752C17.3077 1.80068 16.1388 0.631775 14.702 0.631775ZM14.7249 4.47178H11.8604C12.2904 3.48549 13.1887 2.00322 14.7023 2.00322C15.3713 2.00322 15.9366 2.56849 15.9366 3.23752C15.9365 3.92959 15.4044 4.47178 14.7249 4.47178Z" fill="#00A2B5"/>
<path d="M11.5699 5.15704H10.1985V19.1913H11.5699V5.15704Z" fill="#00A2B5"/>
</g>
<defs>
<clipPath id="clip0">
<rect width="20" height="20" fill="white" transform="translate(0.873047 0.254395)"/>
</clipPath>
</defs>
</svg>
