<svg width="21" height="22" viewBox="0 0 21 22" fill="none" xmlns="http://www.w3.org/2000/svg">
<path d="M3.8616 2.70662C3.94653 2.65804 4.04276 2.63267 4.1406 2.63306C4.23845 2.63345 4.33446 2.65959 4.419 2.70885L13.1624 7.80908L10.4568 10.2438L3.58179 4.05665V3.19045C3.58171 3.09231 3.60754 2.99589 3.65667 2.91093C3.70581 2.82598 3.7765 2.7555 3.8616 2.70662Z" fill="#838FC0"/>
<path d="M3.58179 5.55713V16.4309L9.62402 10.994L3.58179 5.55713Z" fill="#838FC0"/>
<path d="M3.58179 17.9315V18.7977C3.58176 18.8958 3.60761 18.9922 3.65673 19.0771C3.70584 19.1619 3.77649 19.2324 3.86153 19.2812C3.94658 19.3301 4.043 19.3556 4.14108 19.3553C4.23916 19.355 4.33541 19.3288 4.42012 19.2793L13.1624 14.1791L10.4568 11.7444L3.58179 17.9315Z" fill="#838FC0"/>
<path d="M14.1735 13.5892L17.7967 11.4755C17.8809 11.4265 17.9507 11.3562 17.9993 11.2717C18.0479 11.1872 18.0734 11.0914 18.0734 10.9939C18.0734 10.8965 18.0479 10.8007 17.9993 10.7162C17.9507 10.6317 17.8809 10.5614 17.7967 10.5123L14.1735 8.39868L11.2896 10.9939L14.1735 13.5892Z" fill="#838FC0"/>
</svg>
