<svg width="25" height="24" fill="none" xmlns="http://www.w3.org/2000/svg"><path d="M3.989 12.666l5.06 3.582a.62.62 0 00.864-.148l1.433-2.024a.62.62 0 00-.148-.864l-.279-.198c1.497-1.183 2.946-3.256 3.573-5.066l.288.203a.62.62 0 00.864-.148l1.433-2.024a.62.62 0 00-.148-.864l-5.06-3.582a.62.62 0 00-.865.148L9.571 3.705a.62.62 0 00.148.865l.288.203c-1.525 1.215-2.982 3.282-3.59 5.055l-.28-.198a.62.62 0 00-.863.148L3.84 11.802a.62.62 0 00.148.864zm17.666 1.869l-6.637-4.697a14.288 14.288 0 01-2.142 3.041l6.63 4.693a1.86 1.86 0 002.593-.444 1.859 1.859 0 00-.444-2.593zm-6.076 4.326h-.62a.62.62 0 01-.62-.62.62.62 0 00-.62-.62h-8.68a.62.62 0 00-.62.62.62.62 0 01-.62.62h-.62a.62.62 0 00-.62.62v2.48c0 .342.278.62.62.62h12.4a.62.62 0 00.62-.62v-2.48a.62.62 0 00-.62-.62z" fill="#fff"/></svg>