<svg width="24" height="24" fill="none" xmlns="http://www.w3.org/2000/svg"><path d="M16.013 6.682h3.468c.831 0 1.519.674 1.519 1.552v5.33h-8.255V7.357c-.286-.088-.544-.205-.716-.381-.029 0-.029-.03-.058-.03 0 0 0 .03-.028.03-.201.176-.43.293-.688.38v6.21H3v-5.33c0-.88.66-1.553 1.49-1.553h3.497c-.401-.205-.774-.498-1.089-.762C5.522 4.573 5.264 2.7 6.354 1.644A2.559 2.559 0 018.074 1c.945 0 1.92.38 2.75 1.172a5.42 5.42 0 011.147 1.64 6.082 6.082 0 011.175-1.64C13.95 1.38 14.982 1 15.898 1c.688 0 1.29.234 1.72.644 1.089 1.055.831 2.93-.573 4.276-.287.264-.66.557-1.032.762zm-5.102-.85c.114-.263-.172-1.61-1.118-2.518-.487-.469-1.146-.732-1.72-.732-.172 0-.458.029-.659.205-.057.058-.23.175-.23.498 0 .38.23.966.775 1.464.688.674 1.777 1.142 2.58 1.142.257 0 .372-.058.372-.058zm2.178 0s.143.06.373.06c.802 0 1.892-.47 2.58-1.143.544-.498.716-1.084.716-1.464 0-.323-.143-.44-.172-.498-.2-.176-.516-.205-.688-.205-.544 0-1.232.263-1.72.732-.917.908-1.232 2.226-1.089 2.548v-.03zM11.255 22H4.49C3.66 22 3 21.326 3 20.477v-5.36h8.255V22zm8.226 0h-6.736v-6.883H21v5.36A1.52 1.52 0 0119.48 22z" fill="#fff"/></svg>