<svg width="21" height="21" fill="none" xmlns="http://www.w3.org/2000/svg"><g clip-path="url(#clip0)"><path d="M16.486.778V.776a1.893 1.893 0 00-1.34-.558h-8.81A1.903 1.903 0 004.44 2.115V18.32c0 .503.2.985.557 1.34a1.89 1.89 0 001.34.558h8.81c.502 0 .984-.201 1.338-.558.356-.354.557-.836.558-1.338V2.117c0-.503-.202-.984-.558-1.339zm-5.744 18.153a.512.512 0 110-1.025.512.512 0 010 1.025zm4.796-3.217a1.24 1.24 0 01-1.24 1.24H7.184a1.24 1.24 0 01-1.24-1.24V3.638c0-.685.556-1.24 1.24-1.24H14.3c.685 0 1.24.555 1.24 1.24l-.002 12.076z" fill="#69A5FF"/></g><defs><clipPath id="clip0"><path fill="#fff" transform="translate(.742 .218)" d="M0 0h20v20H0z"/></clipPath></defs></svg>