<svg width="131" height="20" fill="none" xmlns="http://www.w3.org/2000/svg"><path fill-rule="evenodd" clip-rule="evenodd" d="M36.626 9.885c-.682 7.768 8.997 3.81 9.588 3.685.228 1.57.444 3.14.671 4.709-.284.09-15.854 6.562-16.275-8.235 0-.181-.034-.352-.011-.523C32.714-2.705 46.76.934 47.044.957c-.227 1.683-.443 3.367-.67 5.05-.57-.182-9.11-3.492-9.748 3.878zm21.678-4.049L55.78 19.462h-5.54l2.684-13.626h-4.538c.285-1.74.558-3.48.842-5.209h14.103c-.284 1.74-.557 3.48-.841 5.21h-4.186zm9.235 10.896l1.843-3.503 2.172 1.171-.67-7.347s-5.96 11.396-6.53 11.738c-1.227.819-3.81.705-5.88.67L68.87.628h5.892c.898 6.278 1.797 12.557 2.684 18.835h-4.572l-5.335-2.73zM90.434 4.87c-1.513 0-2.9-.046-4.413-.046-.17 1.07-.5 3.025-.5 3.025h1.842c1.695 0 3.583.41 4.072-1.137.41-1.33-.864-1.808-1-1.842zM84.18 14.912h3.98s1.888-.011 2.275-1.524c.466-1.82-1.171-1.83-1.171-1.83h-4.686l-.398 3.354zm11.93-.523c-1.455 5.198-6.187 5.005-6.187 5.005s-9.087.068-11.293.056c1.114-6.22 2.24-12.442 3.355-18.675l8.439-.25s4.879.262 5.846 4.345c.705 3.002-2.002 4.845-2.002 4.845s2.639 1.82 1.843 4.674zm29.412 5.016l-4.344-2.844 1.672-3.502 2.172 1.17-.671-7.176s-.33-.102-.33 0c-.011.103-6.187 12.352-6.187 12.352l-10.316.057-3.355-7.404h-.171s-.898 4.936-1.342 7.404h-5.54c0-.057 3.697-18.835 3.697-18.835h5.379l-1.171 6.222h.171s4.026-4.152 6.05-6.222h6.551l-8.951 9.258 4.061 8.064L122.178.866h5.845l2.844 18.527h-5.346v.012z" fill="#4878FE"/><path fill-rule="evenodd" clip-rule="evenodd" d="M16.824 7.68C16.7 7.739 12.286.619 12.286.619c1.74-.228 5.414-.284 6.551.17 0 .057 2.252 1.001 2.684 2.014.057.113.114.159-.102.398-1.513 1.58-3.082 2.911-4.595 4.48zM31.61 19.237s-4.277.614-7.188-.67c-1.468-.649-3.845-4.675-3.845-4.675L15.3 19.464H2.54l2-11.408S2.153 9.148.868 9.716V4.839C1.037 4.78 7.191.743 7.247.629h4.368S8.703 16.745 8.59 17.792h.17L25.718.629h7.893l-8.689 8.599 6.688 10.008z" fill="#fff"/></svg>