<svg width="124" height="31" fill="none" xmlns="http://www.w3.org/2000/svg"><path d="M68.201 22.838c2.205 0 3.353-.769 3.353-2.308 0-1.539-1.186-2.377-3.483-2.377-1-.002-1.998.078-2.985.238v-5.17a22.98 22.98 0 002.626.13c2.373 0 3.551-.7 3.551-2.308 0-1.608-1.079-2.347-3.314-2.347-1.897.103-3.77.484-5.557 1.131V4.441a22.093 22.093 0 017.294-1.115c6.216 0 9.806 2.754 9.806 7.055 0 2.655-1.684 4.617-4.593 5.24 3.253.708 4.914 2.555 4.914 5.386 0 4.486-3.643 7.102-10.624 7.102a29.49 29.49 0 01-7.004-.916v-5.486a21.529 21.529 0 006.032 1.124l-.016.007zm25.95-10.649c4.913 0 8.159 3.078 8.159 7.656 0 4.902-3.72 8.302-9.568 8.302-6.89 0-11.352-4.455-11.352-11.764 0-8.333 4.708-13.027 13.189-13.027a26.84 26.84 0 015.756.654v5.386a18.214 18.214 0 00-5.473-.838c-3.743 0-5.496 1.539-5.588 5.109a7.443 7.443 0 014.915-1.462l-.039-.015zm.703 7.487c0-1.97-1.087-3.232-2.663-3.232-1.577 0-2.633 1.224-2.633 3.232s1.056 3.2 2.633 3.2c1.576 0 2.648-1.23 2.648-3.2h.015zm9.882-15.712h16.014v5.648h-8.52v3.57c.681-.038 1.156-.07 1.309-.07 5.289 0 8.16 2.763 8.16 7.41 0 4.802-3.491 7.656-10.296 7.656a28.263 28.263 0 01-7.08-1v-5.386c1.54.471 3.137.73 4.746.77 2.755 0 4.21-.955 4.21-2.717 0-1.97-1.531-2.954-4.593-2.954-1.333.026-2.657.22-3.942.577V3.964h-.008z" fill="#FFE418"/><path d="M2.427 2.125h8.12v10.003a5.55 5.55 0 012.128-1.837c.853-.42 1.8-.61 2.749-.556 4.723 0 7.379 3.393 7.379 9.433 0 5.756-2.702 9.233-7.196 9.233-2.732 0-4.592-1.061-5.64-3.262v3.009h-7.54V2.125zm7.891 16.928c0 2.639.56 3.916 2.006 3.916 1.447 0 2.036-1.277 2.036-3.916 0-2.64-.597-3.917-2.044-3.917s-2.013 1.293-2.013 3.917h.015zm33.26 1.631H32.332c.199 1.947 1.653 2.87 4.393 2.87a16 16 0 005.802-1.131v4.54a19.905 19.905 0 01-7.455 1.223c-6.89 0-10.655-3.409-10.655-9.41 0-5.87 3.659-9.387 9.767-9.387 6.774 0 9.407 3.24 9.407 10.133v1.162h-.015zm-7.058-3.447v-.546c0-2.016-.766-3.178-2.105-3.178-1.34 0-2.136 1.162-2.136 3.208v.516h4.24zm23.093-7.363v5.216h-3.789v4.263c0 2.185.33 3.208 1.96 3.208a7.674 7.674 0 001.722-.238v5.109a17.65 17.65 0 01-5.358.77c-2.296 0-4.05-.77-5.083-2.047-1.34-1.709-1.34-3.848-1.34-6.733v-4.34h-2.923V9.875h2.893V5.91l8.13-2.585v6.586l3.788-.038z" fill="#fff"/></svg>