<svg width="117" height="45" fill="none" xmlns="http://www.w3.org/2000/svg"><path d="M79.892 13.952c0 2.555-2.043 4.258-5.167 4.258-3.125 0-5.168-1.825-5.168-4.258 0-2.556 2.043-4.26 5.168-4.26 3.124-.121 5.167 1.704 5.167 4.26zM52.01 29.528c0 3.041-2.404 5.11-6.13 5.11-3.724 0-6.129-2.185-6.129-5.11 0-3.041 2.404-5.11 6.13-5.11s6.129 2.185 6.129 5.11zM22.084 13.952c0 2.555-2.043 4.258-5.168 4.258s-5.048-1.82-5.048-4.258c0-2.556 2.043-4.26 5.167-4.26 3.129-.121 5.049 1.704 5.049 4.26zm65.502-.487c0-5.963-5.048-10.952-12.86-10.952-7.932 0-12.859 4.867-12.859 10.952 0 3.164 1.322 5.597 3.723 7.18.118 0 .118.119.118.243s-.118.12-.118.243c-2.527 1.338-4.327 3.285-5.168 5.84 0 0 0 .12-.24.12s-.24-.12-.24-.12c-.842-2.555-2.525-4.5-5.168-5.84-.118 0-.118-.12-.118-.243s.118-.12.118-.244c2.404-1.581 3.723-4.137 3.723-7.18 0-5.962-5.048-10.952-12.86-10.952-7.932 0-12.86 4.868-12.86 10.953 0 3.164 1.322 5.597 3.723 7.18.118 0 .118.119.118.242s-.118.12-.118.244c-2.524 1.338-4.327 3.285-5.168 5.84 0 0 0 .12-.24.12-.118 0-.24-.12-.24-.12-.841-2.555-2.524-4.5-5.168-5.84-.118 0-.118-.12-.118-.244s.119-.12.119-.243c2.403-1.581 3.722-4.137 3.722-7.18 0-5.961-5.047-10.951-12.86-10.951-7.932 0-12.86 4.867-12.86 10.952 0 3.164 1.323 5.597 3.724 7.18.118 0 .118.119.118.242s-.118.12-.118.244c-3.605 1.825-5.648 4.988-5.648 9.004.49 6.816 6.259 12.413 15.15 12.413 7.452 0 12.74-3.895 14.3-9.127 0 0 0-.12.241-.12.118 0 .24.12.24.12 1.442 5.232 6.61 9.127 14.183 9.127 7.572 0 12.739-3.895 14.3-9.127 0 0 0-.243.24-.243.118 0 .24.12.24.12 1.562 5.231 6.73 9.126 14.3 9.126 9.014 0 14.663-5.598 14.663-12.413 0-4.137-2.043-7.18-5.649-9.004-.118 0-.118-.12-.118-.244 0-.123.118-.12.118-.243 2.284-1.46 3.605-4.015 3.605-7.06l.01.005zm22.713 4.499s-1.562 1.218-3.846 1.218c-2.764 0-4.086-1.46-4.086-4.017v-4.5h2.764v4.501c0 1.096.36 1.46 1.322 1.46.841 0 1.082-.242 1.082-.242v-5.72h2.764v7.3zm-9.375-4.38s-.361-.244-1.201-.244c-.722 0-1.443.365-1.443 1.46v4.137h-2.764v-4.133c0-3.77 2.884-4.137 4.086-4.137.491-.004.979.078 1.442.243l-.118 2.677-.002-.004zm14.3 1.339c0-6.937-5.529-12.534-12.26-12.534S90.706 7.986 90.706 14.923s5.529 12.533 12.258 12.533c6.729 0 12.263-5.595 12.263-12.53l-.003-.003z" fill="#fff"/><path d="M16.913 24.417c-3.723 0-6.13 2.186-6.13 5.111.002 3.041 2.407 5.111 6.13 5.111s6.129-2.186 6.129-5.11c.122-2.921-2.281-5.112-6.13-5.112z" fill="#96C11E"/><path d="M74.724 24.417c-3.722 0-6.128 2.186-6.128 5.111 0 3.041 2.403 5.111 6.128 5.111 3.726 0 6.13-2.186 6.13-5.11 0-2.926-2.404-5.112-6.13-5.112z" fill="#F2CB03"/><path d="M45.88 18.21c3.125 0 5.168-1.825 5.168-4.258s-2.043-4.259-5.167-4.259c-3.125 0-5.168 1.826-5.168 4.259 0 2.433 2.044 4.26 5.168 4.26v-.002z" fill="#E2271D"/></svg>