<svg width="103" height="54" fill="none" xmlns="http://www.w3.org/2000/svg"><path d="M2.112 6.152s12.29-4.516 26.215-4.516c13.926 0 21.44 2.627 24.896 3.69C56.68 6.386 64.145 9.46 75.066 9.46s25.955-4.135 25.955-4.135v42.05s-14.085 4.022-25.006 4.022c-10.92 0-22.94-4.023-22.94-4.023S41.754 43.24 28.58 43.24c-13.175 0-26.468 5.216-26.468 5.216V6.152z" fill="#fff"/><path d="M4.382 7.872s11.471-4.228 25.297-4.228S55.978 8.25 55.978 8.25s9.417 3.42 17.883 3.42c8.465 0 22.191-2.77 24.996-3.422v37.33s-11.47 3.593-24.846 3.593c-13.375 0-28.052-8.006-42.93-8.006-14.877 0-22.558 3.003-26.7 4.413V7.871z" fill="#234697"/><path d="M8.816 11.52s9.192-2.96 21.482-2.96 21.924 3.514 21.924 3.514 12.724 4.503 22.14 4.503c9.418 0 20.005-2.567 20.005-2.567v22.186s-9.434 2.37-19.885 2.37c-10.45 0-25.116-5.227-25.116-5.227s-8.95-2.768-19.67-2.768c-10.72 0-20.88 2.768-20.88 2.768V11.521z" fill="#fff"/><path d="M9.742 32.308v-19.98s8.766-2.77 20.638-2.77c11.872 0 22.392 3.726 22.392 3.726s11.12 4.297 21.89 4.297c10.77 0 18.768-2.182 18.768-2.182v20.084s-8.55 2.214-19.068 2.214-21.339-4.357-21.339-4.357-11.271-3.624-22.692-3.624c-11.422 0-19.337 1.988-20.589 2.592z" fill="#3D9349"/><path d="M19.786 18.894l-3.319.428s-.012-1.912-.012-2.542c1.728-.365 6.123-.792 6.123-.792v-1.976c-2.604.164-8.34 1.208-8.34 1.208v11.54c1.014-.23 3.613-.608 5.805-.91a4.092 4.092 0 002.511-1.347 4.128 4.128 0 001.032-2.666c.03-1.902-1.42-3.244-3.8-2.943zm1.453 3.207c0 .436-.156.857-.437 1.189-.281.332-.67.552-1.099.622l-3.236.53v-3.17s1.998-.296 2.668-.352c1.374-.113 2.104.288 2.104 1.18zm9.179-8.504l-2.404.113-4.296 11.755 2.404-.134 1.17-3.24s3.121-.052 4.024 0c.266.737 1.133 3.105 1.133 3.105s2.538.143 2.534.13l-4.565-11.729zm-2.442 6.58l1.227-3.9 1.378 3.9h-2.605zm9.443-6.165v8.922a.606.606 0 01-.599.604c-.336.002-.757-.014-1.105-.089v1.737s1.303.414 2.054.414h.084c.444 0 .87-.176 1.186-.49a1.7 1.7 0 00.5-1.188l.071-7.709s3.043.466 3.331.592v9.564s1.991.39 2.254.478V15.32s-4.608-1.107-7.776-1.308zm9.058 1.552v2.013s2.521.518 3.223.829v9.582l2.145.587v-9.576l3.228.984V18.02s-6.36-1.996-8.596-2.456zm19.532 11.811c-1.246-.283-2.962-.66-2.962-.66v3.157s2.611.66 3.357.66c.745 0 1.345-.32 1.345-1.144 0-.824-.494-1.73-1.74-2.013z" fill="#fff"/><path d="M75.046 18.198c-9.75 0-17.532-2.752-17.532-2.752v18.657s10.019 2.92 17.641 2.92c7.622 0 17.641-2.048 17.641-2.048V16.186s-7.998 2.012-17.75 2.012zm-7.38 14.462c-1.678-.067-6.854-1.426-6.854-1.426V19.658c2.442.87 8.209 1.677 8.209 1.677v1.976c-1.24 0-5.971-1.095-5.971-1.095v2.592s2.947.613 3.514.755c3.381.948 3.456 3.549 3.456 4.345.003 2.39-1.92 2.752-2.354 2.752zm12.858.227c-2.455.39-8.552.251-8.552.251V21.6c4.688.103 8.311-.231 8.311-.231v1.98c-2.112.201-6.027.268-6.027.268v2.563c1.97.088 5.619-.264 5.619-.264s-.012 1.195-.012 1.962c-.99.089-5.636.24-5.636.24V31.3c3.945.038 6.3-.315 6.3-.315l-.004 1.9zm9.935-10.89l-3.273.579v9.505c-.367.034-2.215.294-2.215.294v-9.521c-1.16.168-3.331.344-3.331.344v-1.963c2.37-.052 8.816-1.2 8.816-1.2l.003 1.962zM8.926 36.432l3.29-.816v.764l-2.401.596v1.056l1.189-.295c.328-.081.6-.108.816-.078a.85.85 0 01.553.322c.154.186.23.429.23.73.003.299-.077.593-.231.849-.13.23-.31.43-.527.58-.197.13-.478.24-.841.33l-2.078.518v-4.556zm.889 3.571l.865-.214c.199-.044.394-.106.582-.186a.784.784 0 00.292-.266.683.683 0 00.124-.397c0-.212-.072-.347-.218-.407-.145-.06-.393-.047-.742.04l-.903.224v1.206zm3.034-4.67l1.006-.183 1.04 2.174.889-2.525.94-.171-1.506 3.734c-.164.405-.332.72-.502.947a1.03 1.03 0 01-.66.414 2.83 2.83 0 01-.624.06V39.1c.128-.015.244-.031.348-.052.208-.038.358-.104.448-.198.09-.093.178-.276.262-.548l-1.641-2.97zm4.475-.856l.908-.116v1.938c.202-.047.339-.117.412-.211.073-.095.182-.345.329-.751.188-.518.377-.848.566-.992.19-.144.493-.243.911-.297l.132-.02v.68l-.129.014c-.186.023-.322.064-.408.122a.63.63 0 00-.206.24c-.092.2-.17.406-.236.616a2.409 2.409 0 01-.18.418 1.114 1.114 0 01-.342.342.79.79 0 01.5.29c.167.214.312.444.434.688l.613 1.17-1.067.138-.537-1.11a5.662 5.662 0 01-.165-.29c-.116-.207-.212-.335-.287-.382-.075-.047-.188-.061-.341-.044v1.994l-.907.117v-4.554zm3.869 3.989V33.91l1.366-.094.82 3.05.811-3.163 1.37-.094v4.555l-.848.058V34.64l-.897 3.646-.88.06-.894-3.523v3.583l-.848.06zm5.339-.391V33.52l3.36-.023v.77l-2.445.017v1.01l2.275-.017v.768l-2.275.016V37.3l2.532-.018v.767l-3.447.026zm4.366-4.613l.914.044v1.938c.206-.011.341-.057.412-.139.07-.082.184-.31.334-.692.189-.483.379-.78.571-.892.192-.112.498-.158.917-.137.02 0 .065 0 .133.004v.68l-.13-.01c-.187-.008-.324.008-.412.052a.494.494 0 00-.21.203 4.283 4.283 0 00-.237.574 1.967 1.967 0 01-.18.386c-.065.104-.18.197-.345.282.204.068.381.2.505.375.167.242.314.499.437.766l.618 1.278-1.074-.052-.54-1.202a2.416 2.416 0 00-.05-.099 5.847 5.847 0 01-.115-.22c-.117-.229-.214-.373-.29-.433-.074-.06-.189-.094-.343-.103v1.994l-.914-.044-.001-4.553zm3.906 4.771V33.68l3.342.35v.77l-2.432-.253v1.01l2.263.236v.768l-2.263-.238v1.24l2.518.264v.767l-3.428-.36zm4.322.431V34.11l1.448.243c.55.093.907.176 1.073.25.264.117.488.31.644.553.171.258.257.568.257.932 0 .28-.05.506-.15.68a.969.969 0 01-.379.385c-.143.08-.303.127-.467.137-.217.007-.528-.023-.936-.092l-.59-.099v1.718l-.9-.152zm.902-3.631v1.294l.494.083c.357.06.594.076.714.048a.474.474 0 00.282-.176.542.542 0 00.103-.337.691.691 0 00-.143-.434.782.782 0 00-.363-.263 4.598 4.598 0 00-.65-.14l-.437-.075zm5.989 3.351l.864.486c-.132.466-.353.783-.661.952-.308.168-.7.196-1.172.084a2.476 2.476 0 01-1.443-.96c-.378-.502-.566-1.111-.566-1.828 0-.76.188-1.303.566-1.632.378-.328.876-.42 1.494-.276a2.35 2.35 0 011.315.804c.201.241.352.556.452.945l-.882.01a1.3 1.3 0 00-.324-.634 1.185 1.185 0 00-.604-.347c-.327-.077-.592-.019-.796.175-.203.195-.305.563-.303 1.104 0 .575.1 1.01.3 1.3.18.278.46.476.781.552.237.056.44.026.611-.089.17-.115.293-.33.368-.646zm1.753-2.388l.881.246v1.938c.197.034.33.019.4-.047.069-.066.176-.273.321-.622.181-.439.365-.693.55-.762.184-.069.48-.047.886.066l.128.033v.677l-.124-.037c-.181-.051-.313-.065-.397-.041a.345.345 0 00-.203.155c-.09.168-.167.343-.229.523a1.534 1.534 0 01-.174.346c-.063.088-.174.158-.332.207.201.118.369.286.487.487.16.278.301.566.422.863l.595 1.415-1.036-.289-.522-1.323-.051-.11-.11-.245c-.114-.255-.207-.421-.28-.497a.742.742 0 00-.332-.18v1.995l-.88-.245v-4.553zm7.957 6.739l-.958-.272-.38-1.142-1.745-.495-.36.931-.935-.264 1.7-4.072.931.264 1.747 5.05zm-1.622-2.26l-.601-1.863-.589 1.523 1.19.34zm4.935 3.185v-1.902l-.179-.05c-.278-.076-.474-.086-.588-.03-.115.055-.31.26-.586.617l-.638.815-1.055-.29.533-.74c.21-.294.378-.494.504-.602.139-.114.299-.2.47-.25-.406-.178-.7-.407-.882-.686a1.62 1.62 0 01-.271-.896c0-.276.067-.504.201-.683a.692.692 0 01.531-.285c.22-.013.548.04.985.161l1.855.511v4.556l-.88-.247zm0-3.784l-.689-.19a6.403 6.403 0 00-.691-.165.338.338 0 00-.285.089c-.08.074-.12.187-.12.34a.732.732 0 00.408.673c.118.056.358.133.72.233l.653.18.004-1.16zm5.58.489l.895.192v1.938c.2.021.335-.003.405-.072.07-.07.18-.283.327-.639.185-.453.371-.72.558-.8.188-.08.487-.076.899.012l.13.025v.68l-.129-.03c-.183-.039-.318-.044-.402-.016a.385.385 0 00-.206.17c-.093.172-.17.351-.233.537a1.632 1.632 0 01-.178.356c-.063.092-.175.167-.336.226.203.104.374.262.494.457.163.268.306.548.428.837l.604 1.378-1.047-.223-.531-1.294-.052-.107a7.53 7.53 0 01-.112-.238c-.115-.249-.21-.408-.282-.48a.7.7 0 00-.338-.159v1.994l-.895-.191v-4.553zm3.646 2.989c0-.464.069-.844.206-1.143.1-.218.242-.413.418-.576a1.51 1.51 0 01.582-.341c.316-.09.646-.112.97-.066.664.078 1.194.348 1.592.81.398.464.598 1.066.598 1.808 0 .735-.198 1.287-.593 1.656-.395.369-.923.514-1.584.437-.67-.08-1.202-.348-1.597-.808-.396-.46-.593-1.052-.592-1.777zm.936.08c0 .515.118.92.353 1.213a1.31 1.31 0 00.897.505c.362.042.66-.055.892-.291.232-.237.349-.62.349-1.147 0-.522-.114-.925-.34-1.208a1.304 1.304 0 00-.901-.491c-.374-.045-.676.05-.906.283-.23.233-.344.611-.344 1.135zm4.214 2.644v-4.555h.916v1.792l1.793-.003V41.52h.915v4.555h-.915v-1.992l-1.793.003v1.991l-.916.002zm5.649-.164v-3.782l-1.34.112v-.772l3.59-.299v.77l-1.34.111v3.784l-.91.076zm2.621-2.356c0-.464.069-.863.206-1.196.104-.248.245-.477.419-.681.162-.197.36-.362.58-.489.3-.164.629-.27.968-.31.662-.09 1.192.046 1.589.409.397.362.596.914.596 1.656 0 .735-.197 1.337-.592 1.805-.394.469-.92.748-1.58.837-.668.091-1.2-.044-1.594-.404-.394-.36-.591-.902-.592-1.627zm.935-.156c0 .516.117.891.352 1.126.235.234.533.327.894.278a1.32 1.32 0 00.89-.518c.232-.296.348-.708.348-1.236 0-.521-.113-.895-.338-1.121-.226-.226-.526-.314-.9-.264a1.328 1.328 0 00-.903.511c-.229.29-.343.698-.343 1.222v.002zm4.248 1.726v-4.555l1.448-.244c.55-.093.907-.13 1.074-.113a.937.937 0 01.642.337c.172.2.258.481.258.844.006.251-.045.501-.15.73a1.603 1.603 0 01-.847.807 5.438 5.438 0 01-.936.223l-.588.1v1.717l-.901.154zm.902-3.934v1.294l.495-.083c.355-.06.593-.124.713-.191a.761.761 0 00.282-.272.707.707 0 00.103-.371.509.509 0 00-.143-.386.514.514 0 00-.361-.14 4.35 4.35 0 00-.65.078l-.439.071zm6.794 2.606l-.98.181-.388-.962-1.782.33-.368 1.103-.955.177 1.737-4.876.951-.176 1.785 4.222zm-1.657-1.495l-.614-1.576-.602 1.802 1.216-.226z" fill="#fff"/></svg>