<svg width="131" height="27" fill="none" xmlns="http://www.w3.org/2000/svg"><path d="M16.375 13.204a5.139 5.139 0 001.978-4.26c.014-3.79-2.775-6.121-7.065-6.121H2.825v21.46h9.047c2.175 0 3.925-.578 5.24-1.716A5.711 5.711 0 0019.09 18a5.224 5.224 0 00-2.715-4.796zM8.312 7.727h2.824a1.641 1.641 0 011.742 1.686 1.628 1.628 0 01-1.745 1.69H8.31l.002-3.376zm3.414 11.651H8.312V15.76h3.414a1.81 1.81 0 01-.002 3.618h.002zm17.068-10.85a7.856 7.856 0 00-5.854 2.328 7.95 7.95 0 00-2.318 5.809 7.765 7.765 0 002.328 5.794c1.562 1.483 3.649 2.269 6.254 2.269 2.882 0 5.092-.95 6.595-2.848l-3.683-2.576a3.954 3.954 0 01-2.788 1.073c-1.78 0-2.912-.612-3.436-1.873H36.49a7.54 7.54 0 00.212-1.899 7.91 7.91 0 00-2.24-5.777 7.59 7.59 0 00-5.67-2.3zm-2.967 6.427c.43-1.44 1.439-2.146 3.006-2.146a2.714 2.714 0 012.882 2.146h-5.888zm23.096-1.123V8.953h-3.188V4.662l-5.087 1.532v2.758h-2.304v4.879h2.304v4.568c0 2.422.612 4.107 1.838 5.056 1.226.948 3.368 1.223 6.427.826v-4.596c-2.298.123-3.189-.06-3.189-1.41v-4.448l3.2.005z" fill="#E62533"/><path d="M65.267 13.204a5.137 5.137 0 001.977-4.26c.015-3.793-2.773-6.121-7.074-6.121h-8.453v21.46h9.04c2.18 0 3.926-.578 5.246-1.716A5.72 5.72 0 0067.98 18a5.225 5.225 0 00-2.713-4.796zm-8.063-5.477h2.818a1.644 1.644 0 011.75 1.686 1.625 1.625 0 01-1.752 1.69h-2.816V7.727zm3.401 11.651h-3.4V15.76h3.4a1.809 1.809 0 010 3.618zM77.716 8.527a7.983 7.983 0 00-5.794 2.359 7.698 7.698 0 00-2.393 5.734 7.77 7.77 0 002.393 5.764 7.956 7.956 0 005.794 2.33 7.86 7.86 0 005.794-2.33 7.772 7.772 0 002.393-5.764 7.707 7.707 0 00-2.394-5.734 7.91 7.91 0 00-5.793-2.359zm0 11.281a3.028 3.028 0 01-3.065-3.188 3.084 3.084 0 012.955-3.29 3.084 3.084 0 013.21 3.043 3.08 3.08 0 010 .247 3.018 3.018 0 01-3.1 3.188zM95.59 8.528a7.988 7.988 0 00-5.793 2.358 7.694 7.694 0 00-2.39 5.734 7.766 7.766 0 002.392 5.764 7.962 7.962 0 005.794 2.33 7.863 7.863 0 005.794-2.33 7.773 7.773 0 002.393-5.764 7.708 7.708 0 00-2.393-5.734 7.912 7.912 0 00-5.796-2.358zm0 11.28a3.032 3.032 0 01-3.068-2.99c0-.066.001-.132.004-.198a3.082 3.082 0 012.956-3.29 3.085 3.085 0 013.208 3.043c.004.082.004.165 0 .247a3.017 3.017 0 01-3.1 3.189zm27.534-11.281a5.38 5.38 0 00-4.45 1.978c-.86-1.32-2.18-1.978-3.925-1.978-1.745 0-3.164.614-4.153 1.869V8.952h-5.091v15.326h5.091v-8.365c0-1.591.732-2.576 2.116-2.576 1.285 0 1.928.707 1.928 2.146v8.798h5.092v-8.368c0-1.591.736-2.576 2.116-2.576 1.255 0 1.898.707 1.898 2.146v8.798h5.141v-9.39c-.001-3.94-2.211-6.364-5.763-6.364z" fill="#F7E813"/></svg>