<svg width="165" height="25" fill="none" xmlns="http://www.w3.org/2000/svg"><path d="M31.744 2.623h17.12l-.74 4.305H36.741l-.414 2.454h6.801l-.786 4.434h-6.757l-.463 2.931h12.493l-.787 4.563H28.552l3.192-18.687zM57.562 7.23h-7.171l.786-4.607h20.08l-.827 4.606h-7.176l-2.402 14.078h-5.695L57.562 7.23zm14.11 5.637C71.442 6.797 75.98 2.32 82.176 2.32c7.218 0 9.346 4.478 9.577 6.634h-5.826C85.65 8.436 84.631 7.1 82.365 7.1c-3.192 0-4.996 2.54-4.857 5.51.092 2.412 1.526 4.22 4.025 4.22 2.314 0 3.331-1.249 3.655-1.722h5.783c-.37 1.679-2.733 6.5-9.254 6.5-5.97 0-9.856-3.574-10.045-8.742zM95.875 2.623h5.737l-1.897 11.236 10.781-11.236h5.738l-3.192 18.684h-5.738l1.897-11.193L98.42 21.306h-5.738l3.193-18.684zm29.521 4.607h-7.173l.787-4.607h20.085l-.786 4.606h-7.173l-2.402 14.078h-5.691l2.353-14.078zm16.515-4.607h5.737l-1.942 11.28 10.783-11.237h5.738l-3.193 18.686h-5.738l1.897-11.194-10.78 11.194h-5.738l3.236-18.73zM18.604 9.554h-5.09l.414-2.282h12.076l.787-4.606H8.933l-1.16 6.888h-3.84l-.74 4.22h3.841l-1.293 7.533h11.845c5.55 0 9.254-2.237 9.069-6.802-.092-3.185-2.962-4.95-8.051-4.95zm-.509 7.104h-5.83l.51-2.885h6.014c1.203 0 1.804.386 1.804 1.12.093 1.162-.925 1.765-2.498 1.765z" fill="#fff"/></svg>