<svg width="130" height="26" fill="none" xmlns="http://www.w3.org/2000/svg"><path d="M32.109 7.266c0-.114.044-.224.123-.305a.415.415 0 01.298-.127h9.56c2.269 0 3.28 1.022 3.28 2.844 0 1.004-.482 1.884-1.322 2.22v.032c1.433.384 1.896 1.758 1.896 2.604 0 2.236-1.087 3.707-4.337 3.707H32.53a.415.415 0 01-.298-.127.439.439 0 01-.123-.306V7.266zm4.29 3.386c0 .115.045.225.124.306a.415.415 0 00.297.126h2.891c.886 0 1.088-.303 1.088-.75 0-.415-.202-.72-1.088-.72h-2.893a.415.415 0 00-.297.128.439.439 0 00-.123.305l.002.605zm0 4.378a.441.441 0 00.122.306.42.42 0 00.297.128h3.326c.87 0 1.136-.384 1.136-.895 0-.495-.264-.895-1.136-.895h-3.326a.415.415 0 00-.297.127.439.439 0 00-.123.306l.002.923zm11.425-8.195h10.958c.112 0 .22.045.298.126a.44.44 0 01.123.306v1.916a.438.438 0 01-.26.4.41.41 0 01-.16.032h-6.576a.414.414 0 00-.297.127.439.439 0 00-.123.306v.67c0 .114.044.224.123.305a.415.415 0 00.297.127h6.046c.111 0 .218.045.297.126a.438.438 0 01.123.306v1.916a.44.44 0 01-.123.306.42.42 0 01-.297.127h-6.046a.415.415 0 00-.297.126.438.438 0 00-.123.306v.67c0 .114.044.224.123.305a.414.414 0 00.297.127h6.575a.408.408 0 01.298.126.43.43 0 01.123.306v1.917a.438.438 0 01-.123.305.415.415 0 01-.298.126H47.824a.415.415 0 01-.297-.126.438.438 0 01-.123-.305V7.266c0-.114.044-.224.123-.305a.416.416 0 01.297-.126zm39.427 0h10.96c.11 0 .218.045.297.126a.439.439 0 01.123.306v1.916a.438.438 0 01-.26.4.41.41 0 01-.16.032h-6.575a.415.415 0 00-.298.127.438.438 0 00-.123.306v.67a.44.44 0 00.123.305.42.42 0 00.298.126h6.046c.112 0 .219.046.297.127a.438.438 0 01.124.306v1.915a.44.44 0 01-.124.306.415.415 0 01-.297.126h-6.046a.415.415 0 00-.298.127.438.438 0 00-.123.306v.67c0 .114.044.224.123.305a.414.414 0 00.298.127h6.574a.41.41 0 01.298.126.429.429 0 01.123.306v1.916a.438.438 0 01-.123.306.415.415 0 01-.298.127H87.251a.415.415 0 01-.297-.127.438.438 0 01-.123-.306V7.266c0-.114.044-.224.123-.305a.414.414 0 01.297-.126zm13.008.432a.432.432 0 01.26-.4.411.411 0 01.161-.032h8.814c1.259 0 2.019.111 2.626.415.824.415 1.508 1.518 1.508 2.764 0 1.071-.435 2.22-1.71 2.604v.034c.652.192 1.182.767 1.26 1.758l.186 2.492c.025.251.087.498.185.73a.444.444 0 01-.03.412.425.425 0 01-.352.2h-3.736a.415.415 0 01-.269-.1.435.435 0 01-.144-.252c-.06-.344-.077-.866-.13-1.808-.047-.846-.326-1.358-1.135-1.358h-2.689a.414.414 0 00-.297.127.437.437 0 00-.123.305v2.65a.446.446 0 01-.123.305.415.415 0 01-.298.127h-3.544a.417.417 0 01-.298-.127.443.443 0 01-.123-.305V7.268h.001zm4.385 4.151a.446.446 0 00.123.306.417.417 0 00.298.127h2.688c.855 0 1.212-.352 1.212-1.071 0-.863-.545-1.072-1.275-1.072h-2.627a.416.416 0 00-.297.127.438.438 0 00-.123.306v1.272l.001.005zm13.939 3.404l-4.456-7.41c-.19-.317-.05-.577.313-.577h4.013a.569.569 0 01.472.304l1.688 3.569c.156.33.411.33.567 0l1.687-3.569a.566.566 0 01.472-.305h4.018c.362 0 .503.261.312.578l-4.454 7.41a1.028 1.028 0 00-.125.454v2.532a.441.441 0 01-.123.305.418.418 0 01-.298.127h-3.543a.415.415 0 01-.297-.127.437.437 0 01-.123-.305v-2.532a1.041 1.041 0 00-.123-.454zM15.198 12.233a.438.438 0 010 .611l-9.61 9.876c-.296.303-.538.2-.538-.23v-3.817a.441.441 0 00-.124-.305.419.419 0 00-.297-.127H3.086a.41.41 0 01-.298-.126.432.432 0 01-.123-.306V7.267a.442.442 0 01.123-.306.42.42 0 01.298-.126h1.543a.41.41 0 00.297-.127.432.432 0 00.124-.305V2.586c0-.43.242-.535.538-.229l9.61 9.876zm12.686-5.398h-1.543a.41.41 0 01-.298-.127.433.433 0 01-.123-.305V2.586c0-.43-.243-.535-.539-.229l-9.607 9.876a.438.438 0 000 .611l9.61 9.876c.296.304.538.201.538-.229v-3.816a.442.442 0 01.123-.306.42.42 0 01.297-.126h1.544a.412.412 0 00.298-.127.433.433 0 00.123-.306V7.267a.44.44 0 00-.124-.306.417.417 0 00-.299-.126zm44.219-.001H60.798a.408.408 0 00-.297.127.44.44 0 00-.123.305v2.01a.446.446 0 00.123.305.42.42 0 00.297.127h3.041a.407.407 0 01.298.126.441.441 0 01.123.306v7.668a.441.441 0 00.122.306.42.42 0 00.298.126h3.54a.412.412 0 00.298-.127.432.432 0 00.123-.305v-7.666a.44.44 0 01.124-.305.417.417 0 01.297-.127h3.042a.41.41 0 00.298-.127.427.427 0 00.123-.306V7.268a.443.443 0 00-.124-.306.419.419 0 00-.298-.128zm13.208 0H74.007a.413.413 0 00-.298.126.43.43 0 00-.123.306v2.01a.431.431 0 00.26.4.41.41 0 00.16.032h3.041a.41.41 0 01.298.126.43.43 0 01.123.306v7.668a.446.446 0 00.123.305.42.42 0 00.297.127h3.543a.41.41 0 00.297-.127.437.437 0 00.124-.305v-7.666a.445.445 0 01.122-.305.418.418 0 01.298-.127h3.04a.414.414 0 00.299-.127.438.438 0 00.123-.306V7.268a.443.443 0 00-.124-.307.418.418 0 00-.299-.127z" fill="#fff"/></svg>