<svg width="133" height="29" fill="none" xmlns="http://www.w3.org/2000/svg"><path d="M20.184 12.253h-8.467l.42-1.937.212-.646c.104-.216.247-.41.421-.574l.706-.43a2.79 2.79 0 011.058-.216h7.977l.495-.143c.146-.16.244-.36.282-.575L24.135 4c.142-.36.142-.574.071-.646l-.494-.144H13.9a8.135 8.135 0 00-3.035.503c-.83.307-1.596.77-2.258 1.363a7.314 7.314 0 00-1.482 2.009 9.881 9.881 0 00-.848 2.3L2.61 25.465c-.141.431.067.647.565.647h4.589l.705-.143c.112-.146.185-.32.212-.503l1.9-8.114h8.466c.425 0 .637-.29.779-.792l.781-3.446c.142-.43.142-.645.07-.717a.665.665 0 00-.493-.144zm23.929-2.51a8.004 8.004 0 00-1.058-3.729 6.108 6.108 0 00-2.684-2.372 9.957 9.957 0 00-4.377-.863c-1.574.017-3.13.333-4.588.934a11.62 11.62 0 00-3.742 2.369 14.698 14.698 0 00-2.823 3.732 19.897 19.897 0 00-1.765 4.882 18.76 18.76 0 00-.564 4.954 8.071 8.071 0 00.988 3.73 5.679 5.679 0 002.61 2.298c1.387.579 2.88.85 4.378.793 1.68.04 3.354-.228 4.941-.792a10.979 10.979 0 003.741-2.369 13.413 13.413 0 002.684-3.732 22.694 22.694 0 001.694-4.954h.07c.388-1.595.554-3.238.495-4.88zm-6.565 2.441a19.32 19.32 0 01-.353 2.441l-.147.074c-.18.805-.416 1.597-.706 2.369a9.038 9.038 0 01-1.058 2.013 4.987 4.987 0 01-1.412 1.364 3.553 3.553 0 01-1.902.5 2.926 2.926 0 01-1.764-.431 2.439 2.439 0 01-.918-1.293 5.677 5.677 0 01-.14-2.082c.07-.92.212-1.832.422-2.729.185-.813.446-1.606.78-2.369a9.119 9.119 0 011.124-1.937 5.32 5.32 0 011.554-1.292 3.346 3.346 0 011.764-.503 2.718 2.718 0 011.766.503c.422.347.72.827.847 1.364.158.656.207 1.335.143 2.007v.001zm50.185-7.748a4.633 4.633 0 00-1.976-1.077A9.921 9.921 0 0083.145 3h-8.397a2.432 2.432 0 00-1.835.574c-.401.47-.67 1.04-.779 1.652l-4.305 18.66a2.55 2.55 0 000 1.652c.189.335.73.502 1.624.502h8.328a10.28 10.28 0 003.247-.502 10.025 10.025 0 002.824-1.439 9.242 9.242 0 002.185-2.222 8.323 8.323 0 001.271-2.872c.129-.517.2-1.047.212-1.58a4.947 4.947 0 00-.212-1.507 4.171 4.171 0 00-.705-1.363 3.677 3.677 0 00-1.27-1.006v-.144a7.236 7.236 0 002.117-1.867 6.202 6.202 0 001.266-2.508 5.68 5.68 0 00.071-2.73 3.82 3.82 0 00-1.054-1.863zM81.24 18.65c-.067.249-.161.49-.282.717a2.659 2.659 0 01-.495.717 2.532 2.532 0 01-.779.503 2.86 2.86 0 01-1.125.216h-3.812l.989-4.307h3.808a1.668 1.668 0 011.484.575 1.886 1.886 0 01.212 1.575v.004zm1.06-8.687c-.037.266-.132.52-.279.745a1.781 1.781 0 01-.568.548 2.715 2.715 0 01-1.271.359h-3.318l.707-3.159H81.1a1.316 1.316 0 011.058.36A1.236 1.236 0 0182.3 9.96v.003zm27.036-6.754h-9.528a8.138 8.138 0 00-3.036.502c-.83.307-1.596.77-2.258 1.363a7.32 7.32 0 00-1.481 2.01 9.84 9.84 0 00-.853 2.301l-2.33 10.48a9.694 9.694 0 00-.279 2.226 4.215 4.215 0 00.494 2.01 3.55 3.55 0 001.553 1.436 6.674 6.674 0 003.035.574h9.955l-.006.144c.425 0 .638-.29.778-.792l.848-3.733c.142-.359.142-.574.071-.646l-.495-.143h-8.966l-.565-.216a.868.868 0 01-.282-.574 2.637 2.637 0 01.07-1.006l.567-2.44h8.75c.426 0 .638-.215.779-.718l.779-3.446a1.24 1.24 0 00.071-.717.667.667 0 00-.495-.144h-8.681l.281-1.363.213-.646c.103-.218.247-.413.423-.575l.706-.43a2.79 2.79 0 011.058-.216h7.624l.494-.143c.146-.16.244-.36.282-.574L109.76 4c.142-.359.142-.574.07-.646l-.494-.145zm21.176.07l-.494-.144H113l-.565.144c-.159.18-.257.406-.282.646l-.847 3.661c-.142.506.07.792.494.792h5.367l-3.953 17.086c-.143.48.045.718.564.718h4.588a.673.673 0 00.655-.1.693.693 0 00.263-.618l3.956-17.086h5.577a.837.837 0 00.576-.226.862.862 0 00.271-.566l.848-3.66c.07-.36.07-.576 0-.647zm-61.977-.213h-4.587a1.046 1.046 0 00-.706.143 1.148 1.148 0 00-.212.575l-2.753 11.845h-.212l-1.553-4.02-2.964-7.032-.494-.793-.495-.433-.635-.216h-2.542a3.07 3.07 0 00-1.977.503 3.83 3.83 0 00-.988 2.086l-4.588 19.74c-.14.503.07.719.565.719h4.587a.7.7 0 00.877-.442.727.727 0 00.04-.276l2.755-11.774h.21l1.624 4.091 2.967 6.89c.105.282.247.548.423.792l.494.43.635.216h2.471a2.574 2.574 0 002.047-.717 4.333 4.333 0 00.918-1.867l4.657-19.742c.142-.5-.07-.718-.564-.718z" fill="#fff"/></svg>