<svg width="117" height="27" fill="none" xmlns="http://www.w3.org/2000/svg"><path fill-rule="evenodd" clip-rule="evenodd" d="M56.745 24.21H49.65l1.23-7.036h7.095l-1.23 7.037zM14.237 10.538l-.62 3.76h4.11l-.494 2.815c-.078.444-.377 1.975-.782 2.323a1.93 1.93 0 01-1.25.349h-2.13c-1.192 0-2.237-.285-2.805-1.518-.556-1.297-.13-3.925.08-5.127.217-1.234.632-3.433 1.6-4.666a4.964 4.964 0 014.11-1.834h8.062l2.831-4.569H13.658c-.595 0-3.515.031-5.779 1.517-3.215 2.09-4.21 6.168-4.823 9.68-.508 2.91-.989 6.927 1.047 9.072 1.189 1.265 3.402 1.867 5.188 1.867h10.37a4.325 4.325 0 002.482-.76 3.981 3.981 0 001.512-2.562l1.151-6.588.072-.414.42-2.403.164-.943-11.225.001zm23.917 0l-.618 3.76h4.108l-.492 2.814c-.08.445-.376 1.977-.782 2.324-.366.258-.807.38-1.25.349h-2.131c-1.193 0-2.238-.284-2.805-1.518-.558-1.297-.13-3.925.08-5.126.215-1.234.63-3.433 1.598-4.667a4.983 4.983 0 014.111-1.835h8.063l2.832-4.569H37.576c-.595 0-3.515.032-5.78 1.518-3.215 2.089-4.209 6.167-4.822 9.679-.508 2.91-.99 6.928 1.046 9.076 1.189 1.266 3.402 1.867 5.189 1.867h10.37a4.33 4.33 0 002.481-.759 3.98 3.98 0 001.515-2.562l1.152-6.588.072-.418.417-2.4.164-.943H38.154v-.002z" fill="#EF7C1B"/><path fill-rule="evenodd" clip-rule="evenodd" d="M77.004 24.21c-.908 0-1.806-.064-2.53-.76-.852-.851-.698-1.739-.516-2.782L76.61 5.486a3.834 3.834 0 011.382-2.53 4.396 4.396 0 012.818-.886h14.233L92.21 6.633h-7.28a1.984 1.984 0 00-1.151.316c-.31.273-.5.66-.532 1.074l-.44 2.513h8.757l-.655 3.76H82.15l-.766 4.38a.879.879 0 00.17.822c.382.259.846.36 1.298.284H93.02l-.774 4.426H77.004v.002zm20.841 0l3.074-17.601h-5.29l.792-4.544h18.677l-2.827 4.544h-4.273l-3.073 17.598h-7.08v.003zM72.017 11.715a5.468 5.468 0 001.7-3.447c.253-1.455.45-3.48-.551-4.745-.988-1.287-2.819-1.445-4.357-1.455H53.524l-.621 3.563v.012l-1.512 8.655h12.771a1.605 1.605 0 011.53.631c.137.277.18.592.123.896l-.385 2.22c-.095.482-.314.93-.633 1.298-.153.158-.61.443-1.958.443h-2.066l-2.727 4.42h7.157c1.879 0 3.508 0 5.188-1.551 1.6-1.456 1.88-3.228 2.128-4.65.238-1.36.455-2.783-.506-3.92a3.576 3.576 0 00-2.402-1.139l.022-.125a3.692 3.692 0 002.386-1.108l-.002.002zM66.75 7.996a.4.4 0 01-.012.052l-.149.836-.02.113-.01.046a2.58 2.58 0 01-.37.892 2.08 2.08 0 01-1.795.6H59.13l.164-.923.154-.878c.014-.087.028-.17.044-.255l.117-.67a1.275 1.275 0 01.448-.949c.275-.203.614-.293.952-.254h4.042c.47 0 1.16 0 1.524.444a1.26 1.26 0 01.175.949v-.003z" fill="#fff"/></svg>