<svg width="131" height="29" fill="none" xmlns="http://www.w3.org/2000/svg"><path opacity=".5" d="M120.918 12.64a1.78 1.78 0 01-.345.66 2.007 2.007 0 01-.525.439 2.298 2.298 0 01-.67.25 3.398 3.398 0 01-.75.082 2.848 2.848 0 01-.557-.06 1.476 1.476 0 01-.48-.185 1.08 1.08 0 01-.329-.321.84.84 0 01-.108-.462c.005-.111.023-.221.052-.328l1.438-4.852h-1.868l-1.39 4.746a2.15 2.15 0 00-.066.309 3.14 3.14 0 00-.028.291c-.021.348.064.693.245.993.182.28.425.516.712.693.319.191.668.329 1.033.406.4.086.808.13 1.217.128a6.47 6.47 0 001.462-.156c.43-.095.843-.252 1.226-.467.356-.2.672-.461.934-.771a3.07 3.07 0 00.561-1.053l1.504-5.12h-1.882l-1.386 4.778zm-6.72-4.166a2.156 2.156 0 00-.741-.443 3.094 3.094 0 00-1.065-.166h-4.061l-2.198 7.502h1.868l.028-.097c.136-.47.273-.937.406-1.408.122-.439.249-.873.386-1.302h1.901l.311 1.297c.113.471.231.938.349 1.409l.029.101h1.98l-.854-3.065c.329-.107.643-.254.934-.439.271-.167.515-.375.722-.614.176-.206.315-.44.41-.693.085-.225.133-.462.142-.702a1.77 1.77 0 00-.118-.734 1.709 1.709 0 00-.429-.646zm-1.445 1.418v.006a.448.448 0 01-.079.124 1.193 1.193 0 01-.274.223l-.026.018a2.22 2.22 0 01-.482.217c-.183.062-.356.15-.513.262a1.978 1.978 0 00-.656-.11h-1.152l.245-.836h2.577a1.16 1.16 0 01.371.042h.007a.44.44 0 01-.017.05l-.001.004z" fill="#749ED3"/><path d="M2.842 23.605L8.336 3.411a.518.518 0 01.188-.277.537.537 0 01.321-.109h5.853a.535.535 0 01.521.417.479.479 0 01-.012.236l-4.254 15.55a.49.49 0 00.09.45.508.508 0 00.42.203h11.304a.535.535 0 01.419.202.509.509 0 01.09.449l-.92 3.343a.518.518 0 01-.188.277.538.538 0 01-.321.108H3.35a.535.535 0 01-.42-.203.512.512 0 01-.089-.452zM31.02 3.028h17.14a.625.625 0 01.5.244.606.606 0 01.113.531l-.112.428c-.823.9-1.536 1.893-2.122 2.957a.407.407 0 01-.368.217h-9.758a.626.626 0 00-.387.127.603.603 0 00-.221.335l-.746 2.764a.604.604 0 00.109.535.626.626 0 00.5.24H44.4a.611.611 0 01.5.245.596.596 0 01.108.536l-.83 3.075a.614.614 0 01-.226.331.636.636 0 01-.387.126H34.17a.636.636 0 00-.388.127.613.613 0 00-.225.334l-.82 2.978a.6.6 0 00.108.54.616.616 0 00.505.24h11.7a.624.624 0 01.608.786l-.858 3.075a.613.613 0 01-.224.33.635.635 0 01-.384.127H25.2a.534.534 0 01-.522-.418.481.481 0 01.012-.235L30.1 3.717a.922.922 0 01.339-.499.957.957 0 01.58-.19zm50.883 10.331l-2.806 10.536a.474.474 0 01-.174.26.49.49 0 01-.302.1l-5.923-.033a.414.414 0 01-.306-.148.359.359 0 01-.066-.327l.01-.037a14.63 14.63 0 003.151-10.924 1.538 1.538 0 01.042-.586l2.382-8.583a.786.786 0 01.288-.424.815.815 0 01.495-.162h4.57a.8.8 0 01.712.424l5.89 10.966a.21.21 0 00.207.106.2.2 0 00.116-.047.192.192 0 00.063-.105l3.16-11.344h5.946a.49.49 0 01.49.389.451.451 0 01-.01.22l-5.45 20.028a.784.784 0 01-.285.427.813.813 0 01-.493.165h-4.465a.802.802 0 01-.408-.106.78.78 0 01-.294-.296l-6.145-10.542a.205.205 0 00-.088-.082.212.212 0 00-.12-.02.213.213 0 00-.187.145zm30.757-3.921c-.217-.18-.556-.217-.83-.217h-2.028l-.585 1.98h1.962c.229.001.456-.032.674-.096.195-.057.38-.143.548-.254.146-.1.268-.229.358-.379.085-.148.132-.314.137-.485a.632.632 0 00-.236-.55z" fill="#fff"/><path d="M126.156 3.032h-19.25c-1.466 0-2.994 1.173-3.391 2.609l-3.004 10.896c-.504 1.832.614 3.328 2.486 3.328h19.415c1.466 0 2.99-1.172 3.386-2.608l2.961-10.739c.53-1.916-.641-3.486-2.603-3.486zm-11.412 6.82a2.221 2.221 0 01-.142.701 2.334 2.334 0 01-.41.692c-.208.24-.451.447-.722.615a4.09 4.09 0 01-.934.438l.854 3.066h-1.98l-.029-.102c-.118-.47-.236-.937-.349-1.408l-.311-1.297h-1.901c-.137.429-.262.863-.386 1.302-.131.47-.269.937-.406 1.408l-.028.097h-1.868l2.198-7.502h4.06c.363-.008.724.048 1.066.165.275.097.527.248.74.444.192.18.339.401.429.646.091.234.131.484.119.734zm7.937 3.13a3.05 3.05 0 01-.562 1.052c-.261.31-.577.572-.933.772a4.482 4.482 0 01-1.226.467c-.48.107-.97.16-1.462.156a5.723 5.723 0 01-1.217-.128 3.342 3.342 0 01-1.033-.406 2.257 2.257 0 01-.712-.693 1.71 1.71 0 01-.245-.993 3.23 3.23 0 01.028-.291 2.06 2.06 0 01.066-.31l1.391-4.745h1.867l-1.435 4.853a1.583 1.583 0 00-.052.328.84.84 0 00.109.462c.084.13.196.239.328.322.148.089.311.151.481.185.183.038.369.058.556.06.253 0 .504-.028.75-.084.235-.047.462-.131.67-.249.2-.115.377-.264.525-.438a1.78 1.78 0 00.345-.66l1.386-4.78h1.882l-1.507 5.12zM60.482 26.471c6.733 0 12.192-5.343 12.192-11.935 0-6.592-5.459-11.936-12.192-11.936-6.733 0-12.191 5.344-12.191 11.936S53.749 26.47 60.482 26.47z" fill="#fff"/><path fill-rule="evenodd" clip-rule="evenodd" d="M58.848 2.704a12.354 12.354 0 00-5.521 2.164 12.016 12.016 0 00-3.821 4.462l6.324-1.21 3.018-5.416zm-10.404 9.918a11.723 11.723 0 00.476 5.699 11.931 11.931 0 003.123 4.832l.726-6.066-4.325-4.465zm6.58 12.59a12.426 12.426 0 005.53 1.26 12.424 12.424 0 005.514-1.325l-5.49-2.544-5.554 2.609zm14.218-2.373a11.753 11.753 0 003.31-10l-4.041 4.266.73 5.734zm2.15-13.638a12.019 12.019 0 00-3.647-4.253 12.342 12.342 0 00-5.217-2.18L65.5 8.18l5.893 1.02zM60.442 20.24l2.73-1.94 2.73-1.944-1.041-3.144-1.042-3.144h-6.754l-1.042 3.144-1.042 3.144 2.73 1.944 2.731 1.94z" fill="#D72629"/></svg>