<svg width="130" height="44" fill="none" xmlns="http://www.w3.org/2000/svg"><path d="M2.667 41.155V2.03h125.088v39.13h-7.617V9.078H10.354V41.16l-7.687-.005z" fill="#fff"/><path d="M15.444 41.15h2.895l2.276-14.78h.338l2.366 14.792h2.972l-3.304-17.706h-4.243l-3.3 17.693zM27.73 27.033h2.8v7.976h.343l2.973-7.976h2.448v14.122h-2.79v-7.56h-.259l-3.056 7.566h-2.46V27.033zm10.682 0h6.278v2.472h-3.565v11.646h-2.71l-.003-14.118zm12.551-.003h-3.991l-2.965 14.126h2.715l.335-1.74h3.903l.168 1.744h2.804l-2.97-14.13zm-3.398 10.056l1.268-7.574h.257l1.279 7.574h-2.804zm12.799-13.631h3.566a2.667 2.667 0 011.86.755 2.538 2.538 0 01.771 1.824v3.475H63.85V26.48a.525.525 0 00-.159-.376.541.541 0 00-.383-.155h-2.144a.551.551 0 00-.384.155.53.53 0 00-.158.376v11.63c0 .168.068.33.19.448a.65.65 0 00.458.186h1.93a.654.654 0 00.458-.186.628.628 0 00.19-.449v-2.774h2.712v3.245c0 .339-.068.674-.2.987a2.57 2.57 0 01-.57.836c-.244.24-.534.43-.853.56a2.67 2.67 0 01-1.007.196h-3.563a2.655 2.655 0 01-1.858-.754 2.553 2.553 0 01-.77-1.821l-.005-12.55c0-.339.068-.674.2-.987a2.58 2.58 0 01.57-.837c.243-.24.533-.43.852-.56.32-.13.661-.196 1.007-.196zm7.288 3.572h8.147v2.508h-2.62v11.614h-2.81V29.501h-2.717v-2.474zm15.012.006H78.6l-2.974 14.125h2.8l.334-1.752h3.742l.333 1.752h2.796l-2.968-14.125zm-3.477 10.045l1.267-7.57h.343l1.276 7.57h-2.886zm13.991-2.735v-.33c.54 0 1.059-.211 1.44-.586a1.98 1.98 0 00.598-1.413v-2.257c0-.722-.292-1.413-.812-1.924a2.806 2.806 0 00-1.962-.799l-5.368-.007v14.126h5.707c.321 0 .64-.063.936-.183.297-.12.566-.297.794-.52a2.4 2.4 0 00.53-.778c.123-.291.186-.603.186-.918v-2.401a1.98 1.98 0 00-.6-1.421 2.082 2.082 0 00-1.45-.589zm-1.511-4.834c.2 0 .39.078.532.216.14.138.22.326.22.521v2.096a.657.657 0 01-.198.47.685.685 0 01-.48.194H89.88l-.01-3.497h1.797zm.76 8.57a.663.663 0 01-.2.472.688.688 0 01-.482.197h-1.87V35.41l2.005.004c.145 0 .285.057.387.157.103.101.16.238.16.38v2.126zm10.244-11.052h-3.218a2.57 2.57 0 00-1.798.73 2.469 2.469 0 00-.744 1.763v9.163c0 .661.268 1.295.744 1.763.477.467 1.124.73 1.798.73h3.216a2.57 2.57 0 001.798-.73 2.468 2.468 0 00.745-1.763V29.52a2.45 2.45 0 00-.193-.954 2.497 2.497 0 00-.551-.809 2.58 2.58 0 00-1.797-.731zm-.249 11.01a.707.707 0 01-.213.503.731.731 0 01-.512.208h-1.37a.737.737 0 01-.512-.208.71.71 0 01-.212-.503l.015-7.819a.7.7 0 01.212-.501.73.73 0 01.511-.208h1.356a.738.738 0 01.512.208.707.707 0 01.213.502v7.819zm4.838-11.004h2.783v5.986h.522l2.447-5.992h2.984l-2.981 6.983v.185l3.143 6.968h-2.974l-2.559-5.75h-.582v5.742h-2.783V27.033z" fill="#fff"/></svg>