<svg width="135" height="40" fill="none" xmlns="http://www.w3.org/2000/svg"><path opacity=".5" d="M55.351 31.116h-2.045v2.017l2.035.013h.007c.271 0 .532-.107.723-.297a1.01 1.01 0 000-1.433 1.028 1.028 0 00-.723-.297l.003-.003z" fill="#749ED3"/><path d="M2.046 2.526v16.306h4.058V6.485h.18L9.42 18.832l3.84.013 3.085-12.36h.23v12.36h4.046V2.525h-6.657l-2.496 9.835h-.282L8.728 2.526H2.046zm32.094.008h-5.603l-6.179 16.31h5.104l.776-2.69h5.901l.85 2.69h5.255L34.14 2.533zm-4.762 10.129l1.83-5.865 1.814 5.864h-3.644zM51.434 2.55H41.96v16.295h5.01v-6.193h4.22c1.256 0 2.46-.495 3.348-1.376a4.674 4.674 0 001.386-3.319v-.952a4.434 4.434 0 00-1.315-3.15 4.514 4.514 0 00-3.176-1.304zm-.384 5.096c0 .49-.197.96-.546 1.305a1.87 1.87 0 01-1.317.541h-2.208V5.8h2.208c.494 0 .968.194 1.317.54.35.347.546.816.546 1.306zM67.385 2.55h-5.528l-6.199 16.248 5.121.047.717-2.692h6.008l.803 2.69h5.273L67.386 2.551zm-4.673 10.09l1.716-5.736h.191l1.742 5.736h-3.649zM87.55 3.794h-1.011v-1.25h-4.621v1.263h-1.004a6.53 6.53 0 00-4.597 1.888 6.416 6.416 0 00-1.904 4.557v.583c0 .815.162 1.622.477 2.376a6.208 6.208 0 001.357 2.014 6.307 6.307 0 004.428 1.818h1.24v1.802h4.608v-1.802h1.266a6.29 6.29 0 004.428-1.818 6.18 6.18 0 001.835-4.39v-.596a6.41 6.41 0 00-.495-2.467 6.442 6.442 0 00-1.41-2.09 6.503 6.503 0 00-2.11-1.397 6.55 6.55 0 00-2.488-.49zm-5.648 10.003a2.481 2.481 0 01-1.747-.717 2.438 2.438 0 01-.724-1.731V9.467a2.431 2.431 0 01.724-1.732 2.474 2.474 0 011.748-.717l-.002 6.78zm7.295-2.652c0 .699-.281 1.369-.78 1.863a2.675 2.675 0 01-1.878.774V7.005c.706 0 1.382.28 1.88.774a2.63 2.63 0 01.779 1.866l-.001 1.5zm17.132-8.925h-1.852c-.996 0-1.982.195-2.903.573a7.591 7.591 0 00-2.46 1.63 7.513 7.513 0 00-1.644 2.44 7.458 7.458 0 00-.578 2.877v1.84c0 .987.197 1.965.578 2.877.38.912.94 1.741 1.644 2.44a7.592 7.592 0 002.46 1.63 7.649 7.649 0 002.903.572h1.852c.996 0 1.983-.195 2.903-.573a7.602 7.602 0 002.461-1.63 7.517 7.517 0 001.644-2.439c.381-.912.577-1.89.577-2.877V9.74c0-.987-.196-1.965-.577-2.877a7.517 7.517 0 00-1.644-2.44 7.6 7.6 0 00-2.461-1.63 7.644 7.644 0 00-2.903-.572zm2.622 9.743c0 .93-.373 1.823-1.037 2.481a3.557 3.557 0 01-5.005 0 3.492 3.492 0 01-1.036-2.481V9.499c0-.93.372-1.823 1.036-2.481a3.557 3.557 0 015.005 0 3.493 3.493 0 011.037 2.48v2.465zm8.241-9.429h4.984v5.744h5.7V2.534h5.079v16.298h-5.076v-6.637h-5.712v6.65h-4.975V2.534zM56.288 29.31h-2.976v-1.912h5.223v-1.794H50.37l-.004 9.552h6.114a2.873 2.873 0 002.019-.828 2.822 2.822 0 00.836-2 2.994 2.994 0 00-.893-2.135 3.067 3.067 0 00-2.154-.883zm-.943 3.836l-2.035-.013v-2.017h2.045c.272 0 .531.108.723.3a1.01 1.01 0 01-.005 1.433c-.193.19-.453.296-.724.295l-.004.002zm8.072-7.542v9.552h8.175v-2.14h-5.24v-2.04h4.643v-1.903H66.36V27.49h5v-1.887h-7.944zm12.153 0h9.063v2.25h-3.055v7.294h-2.954v-7.302H75.57v-2.242zm-61.943 2.479s-4.4.292-6.499-3.376c1.216 0 4.199-.558 6.682 2.615-.447-.089-3.827-1.368-3.827-1.368a29.154 29.154 0 003.644 2.13zm5.433.817s-4.206-1.314-4.817-5.488c1.133.439 4.117.993 5.266 4.844-.384-.244-3.063-2.657-3.063-2.657a28.888 28.888 0 002.613 3.3zm6.792.974s-4.296-.987-5.231-5.101c1.164.35 4.181.676 5.629 4.425-.402-.215-3.261-2.413-3.261-2.413a28.921 28.921 0 002.863 3.089zm7.735.094s-4.41.03-6.283-3.757c1.215.073 4.228-.307 6.512 3.008-.442-.116-3.737-1.597-3.737-1.597a29.11 29.11 0 003.508 2.346zm-14.334 1.21s-3.228 2.978-7.19 1.444c.943-.76 2.902-3.058 6.847-2.15-.403.212-3.842 1.33-3.842 1.33a29.34 29.34 0 004.185-.624zm6.94 1.612s-2.477 3.616-6.682 2.998c.75-.946 2.142-3.623 6.192-3.61-.346.295-3.446 2.146-3.446 2.146a29.291 29.291 0 003.936-1.534zm8.251-.805s-1.159 4.218-5.339 4.99c.397-1.14.838-4.118 4.673-5.408-.231.391-2.555 3.14-2.555 3.14a29.076 29.076 0 003.221-2.722z" fill="#fff"/><path d="M14.642 28.083s11.88 5.736 23.556 1.472l.614.609s-10.705 4.493-24.17-2.08zm106.619.183s4.399.292 6.499-3.38c-1.217 0-4.199-.558-6.682 2.615.448-.089 3.827-1.371 3.827-1.371a29.177 29.177 0 01-3.644 2.136zm-5.431.815s4.205-1.313 4.816-5.486c-1.133.438-4.116.993-5.267 4.843.386-.244 3.064-2.656 3.064-2.656a28.838 28.838 0 01-2.613 3.3zm-6.791.974s4.295-.986 5.231-5.1c-1.164.35-4.182.676-5.629 4.425.398-.215 3.262-2.413 3.262-2.413a28.945 28.945 0 01-2.864 3.088zm-7.738.095s4.409.03 6.283-3.756c-1.214.072-4.227-.307-6.512 3.007.442-.115 3.738-1.596 3.738-1.596a29.11 29.11 0 01-3.509 2.345zm14.335 1.21s3.228 2.978 7.191 1.445c-.944-.76-2.903-3.058-6.849-2.15.404.211 3.843 1.33 3.843 1.33a29.34 29.34 0 01-4.185-.625zm-6.941 1.612s2.477 3.616 6.682 2.999c-.75-.95-2.141-3.624-6.192-3.61.347.295 3.446 2.146 3.446 2.146a29.294 29.294 0 01-3.936-1.535zm-8.25-.804s1.159 4.217 5.338 4.989c-.396-1.14-.837-4.117-4.672-5.407.231.39 2.555 3.14 2.555 3.14a28.987 28.987 0 01-3.221-2.722z" fill="#fff"/><path d="M120.246 28.266S108.366 34 96.692 29.738l-.614.609s10.701 4.492 24.168-2.081z" fill="#fff"/></svg>