<svg width="129" height="18" fill="none" xmlns="http://www.w3.org/2000/svg"><path fill-rule="evenodd" clip-rule="evenodd" d="M105.607 6.52h-3.563l-1.735 8.466h-3.931L98.11 6.52h-3.485l.578-2.823h10.983l-.579 2.825zm-19.738 0l-.296 1.412h5.194l-.58 2.822h-5.195l-.288 1.412h5.912l-.575 2.82H80.2l2.31-11.288h9.74l-.58 2.823h-5.8zm-9.7 2.682a2.78 2.78 0 011.175.877c.282.39.427.855.414 1.328 0 1.19-.516 2.084-1.548 2.681-1.032.598-2.36.897-3.983.898H65.39l2.374-11.262h6.279c1.384 0 2.44.235 3.164.705a2.3 2.3 0 01.818.857c.19.349.281.738.265 1.13a2.636 2.636 0 01-.563 1.654 3.651 3.651 0 01-1.559 1.132zm-6.312 2.964h2.374a.98.98 0 00.572-.207.89.89 0 00.319-.496.54.54 0 00-.113-.494.621.621 0 00-.483-.211H70.14l-.283 1.408zm3.23-5.645H71.01l-.288 1.411H72.8a.975.975 0 00.572-.208.893.893 0 00.319-.498.542.542 0 00-.115-.497.595.595 0 00-.218-.159.624.624 0 00-.27-.05zm-12.446 0l-1.736 8.465h-3.931l1.735-8.465H53.22l.577-2.823H64.78l-.578 2.823H60.64zm-12.813.053a7.036 7.036 0 00-1.716-.207c-.553 0-.981.074-1.286.224-.304.15-.456.327-.456.53 0 .204.137.367.413.483.441.167.897.296 1.362.387.658.14 1.306.323 1.938.548.523.191.99.5 1.362.9.382.408.574.944.575 1.609a3.527 3.527 0 01-.727 2.202 4.662 4.662 0 01-2.078 1.471 8.807 8.807 0 01-3.18.523c-.974.005-1.945-.1-2.893-.315a8.004 8.004 0 01-2.23-.824l1.538-2.8a8.195 8.195 0 003.994 1.046 3 3 0 001.166-.176c.272-.118.407-.279.407-.482 0-.204-.139-.36-.416-.468a8.796 8.796 0 00-1.31-.385 16.895 16.895 0 01-1.962-.587 3.629 3.629 0 01-1.367-.92c-.389-.414-.583-.958-.583-1.633a3.61 3.61 0 01.718-2.228 4.576 4.576 0 012.078-1.48c.9-.348 1.966-.522 3.197-.523.828-.005 1.654.079 2.464.249a7.087 7.087 0 011.97.717l-1.438 2.768a5.583 5.583 0 00-1.545-.629h.005zM11.67 14.986l1.059-5.166-3.92 5.166H7.63L5.944 9.914l-1.04 5.072H.984l2.304-11.29h3.998l1.993 5.996 4.544-5.996h4.083l-2.311 11.29h-3.926z" fill="#fff"/><path d="M28.436 17.81c4.917 0 8.904-3.79 8.904-8.467 0-4.676-3.987-8.467-8.904-8.467-4.918 0-8.904 3.79-8.904 8.467 0 4.677 3.986 8.468 8.904 8.468z" fill="#E9501A"/><path fill-rule="evenodd" clip-rule="evenodd" d="M125.704 14.986h-18.911l2.316-11.29h18.908l-2.313 11.29z" fill="#E9501A"/><path d="M115.934 7.01c-.432-.326-1.038-.49-1.815-.49h-2.657l-1.187 5.631h1.998l.297-1.411h.491l.837 1.411h2.077l-.992-1.64a2.469 2.469 0 001.191-.834c.28-.381.426-.838.415-1.303.013-.26-.039-.52-.153-.758a1.65 1.65 0 00-.502-.606zm-1.603 2.1a.958.958 0 01-.642.196h-.821l.279-1.317h.668c.496 0 .742.188.742.566a.682.682 0 01-.226.557V9.11zm8.204-2.59l-.643 3.066c-.088.417-.215.715-.381.893a.9.9 0 01-.685.276.86.86 0 01-.596-.186.756.756 0 01-.162-.263.71.71 0 01-.039-.303c.001-.138.018-.276.05-.41l.644-3.074h-1.996l-.657 3.104a2.974 2.974 0 00-.066.595c-.01.385.097.765.308 1.095.216.318.526.568.89.72a3.41 3.41 0 001.375.251c.902 0 1.624-.217 2.165-.65.541-.434.902-1.078 1.083-1.932l.673-3.184-1.963.003zM28.59 12.137l4.058 2.305-1.072-4.348 3.585-2.927-4.723-.378-1.848-4.101-1.846 4.1-4.723.386 3.58 2.923-1.075 4.349 4.064-2.309z" fill="#fff"/></svg>