<svg width="162" height="36" fill="none" xmlns="http://www.w3.org/2000/svg"><g clip-path="url(#clip0)"><path opacity=".5" d="M47.307 9.343c4.207 0 8.391 2.834 8.391 8.456 0 4.971-3.48 8.434-8.463 8.434-4.348 0-8.415-2.787-8.415-8.434 0-5.623 4.207-8.456 8.487-8.456zm-.048 12.87c2.046 0 4.138-1.51 4.138-4.418 0-2.908-2.046-4.413-4.09-4.413-2.14 0-4.186 1.44-4.186 4.413 0 2.904 2.022 4.418 4.138 4.418zm77.992-12.611c3.057 0 5.197 1.975 5.197 4.995 0 1-.54 2.16-1.364 2.812 1.34.674 2.045 1.997 2.045 3.483 0 2.79-1.833 4.95-5.218 4.95h-7.92V9.599h7.263l-.003.003zm-2.961 6.408h2.656c.822 0 1.246-.627 1.27-1.277.023-.723-.4-1.44-1.27-1.44h-2.656v2.717zm0 6.134h3.315c.823 0 1.199-.604 1.269-1.256.023-.488-.188-.998-.587-1.276a1.648 1.648 0 00-.706-.16h-3.291v2.694-.002zM99.116 9.624V25.93h-4.302v-7.503l-3.502 3.624h-.494l-3.503-3.624v7.503h-4.303V9.624h1.528l6.536 7.039 6.511-7.04h1.53zm7.935.012c.805 0 1.611 0 2.426.01 3.951 0 5.972 3.043 5.902 6.11 0 2.972-1.998 5.948-5.902 5.948h-2.961v4.204h-4.302V9.646c1.625 0 3.228-.01 4.837-.01zm-.603 8.374h3.032c1.13 0 1.788-1.186 1.788-2.37 0-1.162-.612-2.3-1.788-2.3h-3.032v4.67zM62.75 9.646v12.45h5.95v3.81H58.448V9.646h4.302zm96.54.023v3.718h-4.02V25.93h-4.162V13.387h-4.043V9.669h12.225zm-14.982 0v3.695h-5.971v2.325h5.503v3.717h-5.5v2.65h6.183v3.88h-10.487V9.669h10.275-.003zm-64.598 0v3.81h-1.907v8.642h2.092v3.81h-8.483v-3.81h2.09v-8.642h-1.904v-3.81h8.112zM47.307 6.934c-2.838 0-5.494.971-7.48 2.738a9.952 9.952 0 00-2.519 3.479c-.613 1.404-.923 2.968-.923 4.648 0 3.325 1.166 6.131 3.374 8.113 1.956 1.758 4.612 2.726 7.478 2.726 3.067 0 5.848-1.088 7.833-3.064.34-.34.655-.702.942-1.085v1.415c0 .639.256 1.252.714 1.704a2.453 2.453 0 001.724.706H68.7c.476 0 .941-.137 1.338-.396a2.44 2.44 0 001.375.422h8.483a2.45 2.45 0 001.56-.556c.437.36.988.557 1.557.556h4.303c.647 0 1.267-.254 1.724-.706a2.394 2.394 0 00.715-1.704v-1.71c.331.158.695.24 1.064.24h.494c.369 0 .732-.082 1.064-.24v1.71c0 .64.257 1.252.715 1.704a2.453 2.453 0 001.724.706h4.302c.571 0 1.125-.2 1.563-.562.433.348.976.538 1.535.536h4.302a2.45 2.45 0 001.724-.705 2.392 2.392 0 00.714-1.704v-1.792h.523a8.76 8.76 0 003.565-.723 7.757 7.757 0 002.507-1.767v4.213c0 .639.257 1.252.714 1.704a2.455 2.455 0 001.724.705h7.923c2.281 0 4.227-.744 5.62-2.152l.066-.068c.025.622.294 1.21.748 1.641a2.453 2.453 0 001.691.67h10.486c.646 0 1.267-.253 1.724-.705a2.398 2.398 0 00.715-1.704v-3.876a2.407 2.407 0 00-.833-1.813c.1-.268.151-.55.15-.836v-3.735c.254.086.521.13.789.13h1.605V25.93c0 .64.257 1.252.715 1.704a2.452 2.452 0 001.724.706h4.162c.647 0 1.267-.254 1.724-.706a2.393 2.393 0 00.715-1.704V15.797h1.581c.646 0 1.267-.254 1.724-.706a2.392 2.392 0 00.714-1.704V9.669c0-.64-.256-1.252-.714-1.704a2.453 2.453 0 00-1.724-.706h-12.226a2.45 2.45 0 00-1.382.422 2.453 2.453 0 00-1.382-.422h-10.269c-.647 0-1.267.254-1.724.706a2.393 2.393 0 00-.715 1.704v.62a6.789 6.789 0 00-.909-1.062c-1.382-1.314-3.313-2.038-5.435-2.038h-7.26c-.647 0-1.267.254-1.724.706a2.393 2.393 0 00-.715 1.704v.12a2.493 2.493 0 00-.113-.116c-1.529-1.546-3.585-2.364-5.946-2.367a256.49 256.49 0 00-2.439-.01c-.805 0-1.625 0-2.411.005-.785.005-1.612.005-2.426.005a2.446 2.446 0 00-1.535.537 2.448 2.448 0 00-1.563-.562h-1.532a2.465 2.465 0 00-1.8.783l-4.715 5.097-4.735-5.097a2.439 2.439 0 00-1.797-.78h-1.528a2.442 2.442 0 00-1.676.66 2.449 2.449 0 00-1.626-.615h-8.112c-.647 0-1.267.254-1.725.706a2.396 2.396 0 00-.714 1.704v3.81a2.4 2.4 0 00.534 1.506c.346.427.83.725 1.37.845v3.905c-.354.05-.693.177-.992.372a2.44 2.44 0 00-1.372-.418h-3.51V9.65c0-.64-.257-1.252-.714-1.704a2.454 2.454 0 00-1.725-.706h-4.302c-.647 0-1.267.254-1.725.706a2.395 2.395 0 00-.714 1.704v1.433a9.995 9.995 0 00-1.288-1.4c-1.973-1.772-4.606-2.748-7.414-2.748zm32.935 8.896c.113-.024.224-.058.332-.098v4.074a2.355 2.355 0 00-.332-.071V15.83zM47.26 19.804c-.399 0-1.7-.145-1.7-2.008 0-1.743 1.095-2.003 1.748-2.003.276 0 1.651.096 1.651 2.003 0 1.48-.915 2.008-1.699 2.008z" fill="#fff"/><path fill-rule="evenodd" clip-rule="evenodd" d="M55.698 17.8c0 4.971-3.48 8.434-8.464 8.434-4.348 0-8.415-2.787-8.415-8.434 0-5.623 4.208-8.456 8.487-8.456 4.207 0 8.392 2.834 8.392 8.456zm-4.302 0c0-2.904-2.046-4.413-4.09-4.413-2.14 0-4.186 1.44-4.186 4.413 0 2.904 2.023 4.418 4.139 4.418 2.042-.004 4.137-1.514 4.137-4.418zm11.354 4.298h5.948v3.81h-10.25V9.646h4.302v12.452zm15.053.023h2.091v3.81h-8.482v-3.81H73.5v-8.642h-1.904v-3.81h8.106v3.81h-1.9v8.642zM97.587 9.624h1.528V25.93h-4.301v-7.503l-3.502 3.624h-.495l-3.502-3.624v7.503h-4.303V9.624h1.527l6.537 7.039 6.51-7.04zm17.791 6.132c0 2.972-1.998 5.948-5.901 5.948h-2.962v4.204h-4.302V9.646c2.444 0 4.819-.022 7.264 0 3.951 0 5.972 3.043 5.902 6.11h-.001zm-4.114-.117c0-1.161-.612-2.3-1.788-2.3h-3.029v4.67h3.032c1.129 0 1.786-1.185 1.786-2.37h-.001zm19.863 5.25c0 2.79-1.833 4.95-5.218 4.95h-7.919V9.599h7.264c3.056 0 5.195 1.975 5.195 4.994 0 1.001-.539 2.161-1.364 2.812 1.342.674 2.043 1.997 2.043 3.484h-.001zm-8.837-4.879h2.655c.823 0 1.246-.627 1.271-1.277.022-.723-.401-1.44-1.271-1.44h-2.655v2.717zm4.583 4.878c.023-.488-.188-.998-.586-1.276a1.654 1.654 0 00-.707-.16h-3.29v2.694h3.314c.823-.001 1.199-.605 1.269-1.257zm11.462 1.162h6.183v3.88h-10.486V9.669h10.274v3.695h-5.972v2.325h5.506v3.717h-5.501l-.004 2.644zm20.954-12.382v3.718h-4.02V25.93h-4.162V13.387h-4.044V9.669l12.226-.001z" fill="#761615"/><path opacity=".5" d="M18.385 3.488c2.85 0 5.634.834 8.003 2.399a14.272 14.272 0 015.306 6.388 14.078 14.078 0 01.82 8.224 14.183 14.183 0 01-3.943 7.288 14.459 14.459 0 01-7.376 3.896 14.57 14.57 0 01-8.323-.81 14.37 14.37 0 01-6.465-5.244 14.115 14.115 0 01-2.427-7.908A14.15 14.15 0 018.2 7.656a14.493 14.493 0 0110.185-4.168zm0-3.213A17.799 17.799 0 0011.627 1.6 17.63 17.63 0 005.9 5.385a17.367 17.367 0 00-3.782 5.542 17.311 17.311 0 000 13.585A17.36 17.36 0 005.9 30.054a17.622 17.622 0 005.726 3.788 17.787 17.787 0 006.759 1.326 17.786 17.786 0 006.758-1.324 17.617 17.617 0 005.726-3.786 17.36 17.36 0 003.783-5.542 17.311 17.311 0 000-13.585 17.365 17.365 0 00-3.783-5.542A17.625 17.625 0 0025.143 1.6 17.795 17.795 0 0018.385.275z" fill="#fff"/><path d="M18.385 3.488c-2.849 0-5.634.834-8.003 2.398a14.273 14.273 0 00-5.306 6.388 14.078 14.078 0 00-.82 8.225A14.182 14.182 0 008.2 27.787a14.459 14.459 0 007.375 3.896c2.795.55 5.691.267 8.324-.81a14.37 14.37 0 006.464-5.243 14.088 14.088 0 001.33-13.355 14.223 14.223 0 00-3.121-4.618 14.418 14.418 0 00-4.673-3.086 14.555 14.555 0 00-5.513-1.083z" fill="#761615"/><path fill-rule="evenodd" clip-rule="evenodd" d="M23.28 10.406c.14 0 .28.007.418.02.054.107.116.208.186.305.306.438.772.741 1.3.845-.854.06-1.488-.225-1.904-1.17zm-3.501-1.404c1.597-.482 3.007-.409 3.609.452.04.254.109.503.205.742-1.492.47-2.833.175-3.814-1.194zm.435-1.843c1.51 0 2.566.373 3.139 1.085a5.136 5.136 0 00-.016.746 1.907 1.907 0 00-.25-.19c-.47-.293-1.116-.413-1.88-.356-.384-.306-.716-.722-.993-1.285zm3.5.526c1.56 1.157 2.253 2.306 1.732 3.516a6.6 6.6 0 00.52.462c.06.196.133.388.218.575a9.896 9.896 0 01-1.002-.944c-1.397-.344-1.788-1.979-1.468-3.61zm.953 4.31c.613.104 1.2.322 1.732.642.26.402.582.761.955 1.064.096.233.146.482.147.734a3.17 3.17 0 00-.075.638 1.567 1.567 0 00-.12-.153c-1.293-.013-2.464-1.152-2.64-2.926zm1.19-2.18c2.033.752 2.491 2.112 2.195 3.263-.153.26-.283.531-.39.813a1.93 1.93 0 01-.012-.307c-1.225-.99-1.458-1.737-1.792-3.766v-.002zm2.887 2.72c.852 1.762.79 3.42-.307 4.2a4.519 4.519 0 00-.57-.723c-.35-.96-.204-2.01.877-3.474v-.002zm-.288 4.83a4.217 4.217 0 00-.331 2.18c-1.278-1.005-1.494-1.667-1.76-4.418 1.144.798 1.802 1.503 2.091 2.24v-.002zm.429 3.409a4.398 4.398 0 01-.502.36 5.12 5.12 0 00-.479.34 5.889 5.889 0 00-.795.447c.435-.502.946-1.35 1.04-2.204.038.256.095.508.168.756-.059.172-.13.34-.212.501.03-.017.06-.031.09-.046.167-.078.323-.175.465-.292-.463-1.344-.499-2.919 1.027-4.647 1.04 2.288.22 4.497-.802 4.787v-.002zm-2.635 1.534c.104-.174.193-.356.267-.544-.75-.635-1.085-2.244-.321-3.946 1.028 1.636 1.3 2.87.68 3.819a3.73 3.73 0 01-.215.62c-.138.115-.27.235-.396.362a3.37 3.37 0 00-.015-.311zm3.061-1.003c-1.074 3.12-1.883 3.861-3.69 3.529a1.797 1.797 0 00-.623.308 1.788 1.788 0 00-.569.042c.15-.157.29-.321.422-.492-.531-1.428-.406-2.65.84-3.815.283.748.39 1.407.353 1.973-.537.609-.858 1.277-.884 1.867a1.43 1.43 0 01.281-.073c.125-1.215 1.655-2.92 3.87-3.34zm-2.938 4.617c-1.138 1.494-2.18 1.62-3.295.738.862-1.212 1.58-1.72 3.295-.738zm-2.014-2.513a8.124 8.124 0 01-.6 2.1c-.31.23-.592.555-.878.951a2.734 2.734 0 00-1.268-.448c.401-1.226 1.32-2.176 2.746-2.603zm-.792 4.076c-1.489.673-3 .529-3.831-.388a7.59 7.59 0 00-.794.588 7.292 7.292 0 01-.371-.21c.107-.068.21-.137.309-.202.37-.24.686-.448 1.015-.537 1.262-.78 2.616-.62 3.672.75zm-5.649.547c.096.08.196.161.295.241-.506.392-1.057.754-1.666.905l-.034.01-.844-.693.162-.018a6.078 6.078 0 001.951-.556c.046.036.09.074.136.111z" fill="#FBBC55"/><path fill-rule="evenodd" clip-rule="evenodd" d="M7.886 16.452c-.75-.863-.708-2.33.041-3.884.327.428.598.896.806 1.393-.063.592-.263 1.035-.447 1.441a6.46 6.46 0 00-.217.512 12.4 12.4 0 00-.183.538zm5.528 10.442c-1.1.603-2.58.177-3.184-1.25.611-.295 1.12-.402 1.557-.369l.073.092c.384.46.806.888 1.262 1.278.11.088.234.186.259.213l.033.036zm-1.83-15.278a2.107 2.107 0 001.475-1.056 3.85 3.85 0 011.09.074c-.728 1.039-1.56 1.242-2.566.982zm1.617-1.338a3.15 3.15 0 00.17-.522c1.108-.036 1.97-.321 2.638-.906.237.047.479.109.726.183-.621.867-1.386 1.303-2.242 1.388l-.29-.057a4.302 4.302 0 00-1.005-.086h.003zm.226-.798a4.65 4.65 0 00.046-1.044c.62-.78 1.76-1.221 3.394-1.293-.717 1.642-1.87 2.272-3.443 2.337h.003zm-2.06 1.751c-.52-1.21.172-2.358 1.732-3.514.32 1.63-.07 3.266-1.463 3.607a9.88 9.88 0 01-.894.854l-.081.036c.074-.172.138-.348.19-.527.18-.142.351-.295.514-.456h.003zm-2.401 2.432c-.609-1.236-.38-2.938 1.99-3.814-.203 1.231-.368 1.99-.742 2.617a2.822 2.822 0 00-.793.756c-.075.108-.14.221-.195.34.015.6-.191 1.258-.415 1.94.1-.123.19-.25.278-.374.087-.123.157-.223.243-.329-.215-1.554 1.15-2.463 2.816-2.774-.178 1.783-1.363 2.925-2.67 2.923a3.186 3.186 0 00-.396.506c-.135.202-.35.44-.503.776-.121.406-.205.77-.265 1.07a5.272 5.272 0 00-.294-.547c.063-.23.146-.49.253-.78a6.74 6.74 0 01.214-.502c.219-.487.462-1.027.476-1.808h.003zm-.267 5.779a4.202 4.202 0 00-.367-2.105c.275-.764.936-1.487 2.113-2.308-.264 2.748-.48 3.411-1.749 4.413h.003zm-1.573-3.419c1.526 1.727 1.491 3.3 1.028 4.645.142.117.298.215.465.294a2.6 2.6 0 01.224.12 4.688 4.688 0 01-.313-.697 5.23 5.23 0 00.163-.833c.045.508.26 1.037.533 1.519.065.199.15.39.256.57a5.182 5.182 0 00-1.156-.542 3.44 3.44 0 01-.4-.292c-1.022-.288-1.844-2.499-.803-4.784h.003zm3.213 5.873c.088.204.192.401.313.588 0 .046-.012.091-.016.135a5.126 5.126 0 00-.577-.562 3.858 3.858 0 01-.048-.139c-.82-1.021-1.035-2.336.632-4.185 1.162 1.757.518 3.467-.307 4.163h.003zM7.28 21.15a5.02 5.02 0 011.862.604 4.96 4.96 0 011.481 1.268c.023.76.294 1.401.809 1.89a2.152 2.152 0 00-.19-.06c-1.952.384-2.813-.376-3.962-3.702zm4.04-.09c1.144 1.131 1.287 2.29.813 3.603.18.244.377.476.587.695.094.303.218.596.369.875-.396-.341-.878-.803-1.216-1.314-.993-.734-1.304-2.048-.552-3.861v.002zm2.401 5.573c-.628-.73-.996-1.857-1.027-3.252 1.352.498 2.194 1.453 2.546 2.646a2.73 2.73 0 00-1.519.604v.002zm7.42 1.89l-.845.692-.034-.007c-.844-.213-1.617-.829-2.297-1.375a12.16 12.16 0 00-.913-.683c-.836.896-2.334 1.03-3.81.364 1.095-1.418 2.508-1.539 3.809-.66.294.136.577.297.845.481.693.441 1.555.992 3.084 1.174l.16.015z" fill="#FBBC55"/><path fill-rule="evenodd" clip-rule="evenodd" d="M33.553 17.721c0 8.28-6.792 14.99-15.168 14.99-8.377 0-15.17-6.71-15.17-14.99 0-8.279 6.791-14.988 15.17-14.988 8.378 0 15.168 6.71 15.168 14.988zm-1.64 0a13.26 13.26 0 00-2.28-7.427A13.495 13.495 0 0023.56 5.37a13.68 13.68 0 00-7.817-.76 13.58 13.58 0 00-6.927 3.659 13.32 13.32 0 00-3.702 6.845 13.221 13.221 0 00.77 7.724 13.404 13.404 0 004.983 6 13.644 13.644 0 007.516 2.252 13.61 13.61 0 009.566-3.916 13.288 13.288 0 003.963-9.453z" fill="#FBBC55" stroke="#FBBC55" stroke-miterlimit="10"/></g><defs><clipPath id="clip0"><path fill="#fff" transform="translate(.729 .275)" d="M0 0h161v35H0z"/></clipPath></defs></svg>