<svg width="133" height="44" fill="none" xmlns="http://www.w3.org/2000/svg"><path d="M28.077 15.495h6.36c3.348 0 5.383-1.532 6.31-4.781l.515-1.793c1.184-4.13-.747-6.704-4.97-6.704H8.635l-5.15 18.11h23.227l1.365-4.832zm2.395-8.393h5.787l-1.074 3.924h-5.82l1.107-3.924zm13.159 13.225l1.7-3.04h7.88v3.04h5.176V2.191H48.215L37.631 20.327h6zm7.443-13.199h2.137v5.769h-5.408l3.271-5.769zm28.429 3.404l.462-1.637c1.186-4.183-.748-6.704-4.968-6.704H65.16l-5.153 18.136h5.382l1.417-4.988h3.348l1.518 4.988h5.537L75.586 15c1.96-.596 3.247-2.076 3.917-4.467zm-5.64.466h-5.819l1.107-3.923h5.794l-1.082 3.923zm10.687 9.329L89.7 2.191h-5.407l-5.125 18.136h5.382zM51.563 22.9l-6.078 7.249-2.498-7.25H19.682l-5.124 18.163h23.227l2.833-10.03 1.88 5.612h3.476l5.022-5.976-2.961 10.394h5.381L58.541 22.9h-6.978zm3.579 18.136h6l1.703-3.04h7.877v3.04h5.175v-18.11L65.75 22.9 55.142 41.036zm15.58-13.173v5.768H65.34l3.244-5.768h2.138zM95.57 22.9H79.22l-1.468 5.197h5.922l-3.683 12.965h5.383l3.682-12.965h5.047l1.468-5.197zm5.719 5.196h8.163l1.494-5.17h-8.704c-3.348 0-5.383 1.532-6.31 4.78l-1.905 6.626c-1.21 4.235.746 6.704 4.97 6.704h6.773l1.468-5.171h-8.164l2.215-7.769zm23.562-5.196l-1.854 6.495h-6.155l1.829-6.495h-5.383l-5.124 18.162h5.382l1.828-6.496h6.155l-1.829 6.496h5.408l5.125-18.162h-5.382z" fill="#EAE200"/></svg>