<svg width="121" height="40" fill="none" xmlns="http://www.w3.org/2000/svg"><path d="M89.87 17.214a2.04 2.04 0 001.864-1.271 2.027 2.027 0 00-.457-2.206 2.038 2.038 0 00-3.467 1.446 2.033 2.033 0 00.608 1.442 2.046 2.046 0 001.452.59z" fill="#E63420"/><path fill-rule="evenodd" clip-rule="evenodd" d="M2.53 23.85h116.363v6.865a6.46 6.46 0 01-1.884 4.536 6.366 6.366 0 01-4.512 1.875H8.921a6.374 6.374 0 01-4.516-1.87 6.452 6.452 0 01-1.878-4.537l.002-6.868zm9.953 9.73c.5.01.993-.11 1.432-.35a2.68 2.68 0 00.996-1.012l-.852-.544a1.942 1.942 0 01-.64.66 1.734 1.734 0 01-.938.242 1.905 1.905 0 01-.792-.163 1.772 1.772 0 01-.6-.442 1.99 1.99 0 01-.39-.659 2.395 2.395 0 01-.137-.81 2.425 2.425 0 01.137-.815c.085-.244.216-.47.386-.665a1.788 1.788 0 011.398-.617 1.765 1.765 0 011.576.847l.856-.561a2.683 2.683 0 00-1.038-.98 2.99 2.99 0 00-1.394-.318 3.042 3.042 0 00-1.224.25c-.36.154-.687.38-.957.663-.27.284-.482.619-.623.984a3.243 3.243 0 00-.225 1.21c-.005.418.067.833.212 1.225.13.366.337.7.606.98.266.28.589.5.946.648.402.16.833.236 1.265.227zm7.758-5.045h1.818l-.016-1.015h-4.73v1.015h1.802v4.933h1.126v-4.933zm7.71 3.667l.503 1.266h1.199l-2.624-6.048h-.494l-2.597 6.048h1.17l.498-1.266h2.346zm5.819 1.266c.722 0 1.258-.15 1.624-.453a1.549 1.549 0 00.55-1.267 1.442 1.442 0 00-.295-.976 1.538 1.538 0 00-.794-.506c.22-.112.405-.28.537-.488a1.574 1.574 0 00-.303-1.86 2.132 2.132 0 00-1.387-.398H32.06v5.948h1.711zm5.925-2.91l2.469 2.91h1.432l-2.628-3.057 2.525-2.891h-1.32l-2.477 2.81v-2.81h-1.128v5.948h1.128v-2.91zm10.083 2.91h1.069l.012-6.003h-.502l-3.318 3.804v-3.75h-1.07v5.987h.494l3.312-3.803v3.762l.003.003zm12.025 0h1.127l.007-5.948h-1.13v2.412H59.02V27.52h-1.127v5.948h1.127v-2.512h2.783v2.512h.001zm7.565-1.266l.499 1.266h1.194l-2.626-6.047h-.493l-2.598 6.041h1.17l.503-1.26h2.351zm10.644 1.378c.501.01.996-.11 1.436-.35h.004a2.683 2.683 0 001.006-1.014l-.849-.544c-.16.265-.38.49-.644.653a1.75 1.75 0 01-.938.242 1.9 1.9 0 01-.792-.161 1.796 1.796 0 01-.606-.442 1.97 1.97 0 01-.388-.659 2.324 2.324 0 01-.138-.81 2.358 2.358 0 01.138-.817c.084-.244.213-.47.383-.665a1.79 1.79 0 01.606-.453c.25-.114.521-.17.796-.166a1.76 1.76 0 011.563.856l.856-.554a2.66 2.66 0 00-1.039-.98 2.98 2.98 0 00-1.394-.319 3.043 3.043 0 00-1.226.242c-.36.156-.685.382-.956.665-.269.286-.48.62-.62.986-.15.386-.226.796-.225 1.21-.004.417.067.833.21 1.225.134.363.34.695.606.976.269.28.593.501.951.65.4.16.829.237 1.26.229zm8.67-.112h1.108V27.52h-4.83v5.948h1.126v-4.933h2.595l.002 4.933zm8.935-.78a2.92 2.92 0 00.627-.983h.004c.15-.389.226-.802.221-1.219a3.458 3.458 0 00-.21-1.21 2.795 2.795 0 00-1.562-1.643 3.192 3.192 0 00-1.255-.238 2.939 2.939 0 00-2.168.896 2.997 2.997 0 00-.627.986c-.15.385-.227.796-.225 1.21a3.48 3.48 0 00.21 1.218 2.805 2.805 0 001.557 1.636c.398.164.824.245 1.254.239a2.977 2.977 0 002.172-.893h.002zm5.296-1.253c.701-.007 1.242-.189 1.619-.544h.004a1.864 1.864 0 00.561-1.455 1.822 1.822 0 00-.551-1.412c-.369-.335-.908-.503-1.616-.503h-1.818v5.957h1.127v-2.043h.674zm7.465-2.903h1.818l-.005-1.014h-4.734v1.014h1.803v4.934h1.117l.001-4.934zm-14.193.203c.217.091.411.23.569.405.16.18.283.388.363.613a2.33 2.33 0 010 1.525c-.08.225-.204.433-.364.612a1.604 1.604 0 01-.568.406 1.838 1.838 0 01-.74.145 1.805 1.805 0 01-.738-.145 1.618 1.618 0 01-.564-.406 1.83 1.83 0 01-.364-.612 2.294 2.294 0 010-1.525c.08-.226.204-.434.364-.613.156-.174.349-.312.564-.405.233-.1.484-.15.737-.145.254-.004.507.046.74.145zm-70.187 2.402h1.565l-.777-1.822-.788 1.822zm7.94-.15h-.74v1.448h.693c.3.021.602-.047.864-.197a.656.656 0 00.205-.234.548.548 0 00.061-.285.602.602 0 00-.06-.291.72.72 0 00-.199-.242 1.306 1.306 0 00-.824-.2zm33.528.15h1.46l-.727-1.822-.733 1.822zm-33.011-1.58a.623.623 0 01-.165.231.929.929 0 01-.652.201h-.44v-1.4h.44a.987.987 0 01.652.182.606.606 0 01.21.506.622.622 0 01-.045.28zm68.477-.968h-.691v1.972h.693c.303.021.604-.07.843-.257a1.063 1.063 0 000-1.458 1.231 1.231 0 00-.845-.256z" fill="#4BB79D"/><path d="M24.924 4.732a2.683 2.683 0 01-.828 1.93 2.897 2.897 0 01-4 0 2.67 2.67 0 01-.613-2.981 2.67 2.67 0 01.613-.881 2.898 2.898 0 014 0 2.688 2.688 0 01.828 1.932zm0 4.354h-5.653v13.139h5.656l-.003-13.139zm27.462 5.555V9.088h-9.003v5.553h9.003z" fill="#E63420"/><path fill-rule="evenodd" clip-rule="evenodd" d="M10.153 17.21c2.022 0 3.96-.801 5.39-2.227a7.597 7.597 0 001.653-8.288 7.603 7.603 0 00-4.126-4.116 7.637 7.637 0 00-8.307 1.649A7.604 7.604 0 002.53 9.605v12.62h5.515V9.605a2.111 2.111 0 013.6-1.488 2.102 2.102 0 01-1.491 3.592c-.163 0-.326-.02-.485-.057v5.542c.16.01.323.015.485.015zm68.407 0a7.641 7.641 0 004.234-1.283 7.606 7.606 0 002.806-3.413 7.589 7.589 0 00-1.654-8.287A7.638 7.638 0 0075.64 2.58a7.617 7.617 0 00-3.42 2.8 7.59 7.59 0 00-1.283 4.225v12.62h5.515V9.605a2.1 2.1 0 011.301-1.945 2.114 2.114 0 012.3.456 2.101 2.101 0 01-.32 3.238 2.112 2.112 0 01-1.657.298v5.542c.161.01.323.015.484.015zM41.757 9.604v12.62h-5.515V9.767a2.1 2.1 0 00-.618-1.487 2.11 2.11 0 00-3.6 1.487v12.458H26.51V9.606a7.599 7.599 0 012.257-5.335 7.632 7.632 0 0110.734 0 7.6 7.6 0 012.256 5.335zm12.351 5.015V2h5.515v12.458a2.11 2.11 0 004.217 0V2.001h5.516v12.62a7.598 7.598 0 01-2.257 5.334 7.632 7.632 0 01-10.734 0 7.6 7.6 0 01-2.256-5.335zm53.341-3.126V2h4.14v9.373a1.587 1.587 0 00.464 1.117 1.586 1.586 0 002.582-.513c.08-.191.12-.396.12-.604V2h4.14v9.494a5.698 5.698 0 01-1.655 4.076 5.725 5.725 0 01-4.068 1.694 5.74 5.74 0 01-4.068-1.694 5.729 5.729 0 01-1.237-1.873 5.716 5.716 0 01-.418-2.203zm-9.846 5.72V5.076h1.294a1.787 1.787 0 011.641 1.101 1.778 1.778 0 01-.385 1.936c-1.743 1.413-1.743.81-1.743 2.903v1.056l3.459 5.14h4.628l-4.265-6.426a4.617 4.617 0 002.537-5.175 4.63 4.63 0 00-4.499-3.612h-6.712v15.215h4.045z" fill="#E63420"/></svg>