<svg width="130" height="29" fill="none" xmlns="http://www.w3.org/2000/svg"><path fill-rule="evenodd" clip-rule="evenodd" d="M128.03 13.938a11.897 11.897 0 00-3.459-8.402 11.802 11.802 0 00-3.835-2.575 11.755 11.755 0 00-4.524-.902c-6.534 0-11.866 5.312-11.866 11.879 0 6.616 5.332 11.927 11.866 11.927 6.535 0 11.818-5.311 11.818-11.927z" fill="#E6E12C"/><path d="M23.674 15.67h5.669v-3.513h-5.67v-2.136h6.006V6.507H19.506v15.296h10.51V18.29h-6.342v-2.62zm20.815-3.616c0 .867.006 1.768.037 2.697a35.61 35.61 0 00-1.333-2l-4.394-6.243h-4.496v15.295h4.216V16.11c0-1.171-.013-2.186-.04-3.109a84.48 84.48 0 001.514 2.392l4.504 6.409h4.16V6.508h-4.168v5.546zM1.97 10.069h4.612v11.734h4.408V10.069h4.708V6.507H1.97v3.562zm61.736 1.985c0 .949.01 1.832.041 2.682a44.084 44.084 0 00-1.291-1.982L58.062 6.51H53.57v15.292h4.168V16.11c0-1.11-.012-2.138-.037-3.12.466.764.988 1.57 1.57 2.42l4.442 6.392h4.21V6.508h-4.216v5.546zm35.973-5.547h-4.408v15.296h4.408V6.507zm-22.291 0h-4.409v15.296h4.409V6.507zm9.539 5.845c-1.931-.766-2.142-1.09-2.142-1.601 0-.57.59-.924 1.543-.924.822 0 1.633.189 2.37.553l.749.375 1.057-3.35-.525-.282c-1.002-.537-2.214-.809-3.603-.809-3.278 0-5.568 1.924-5.568 4.679 0 2.128 1.362 3.66 4.163 4.68 1.796.703 1.939 1.144 1.939 1.645 0 1.052-1.214 1.165-1.736 1.165-1.238 0-2.33-.41-2.89-.76l-.81-.509-.972 3.503.431.29c.898.601 2.62 1.037 4.096 1.037 4.321 0 5.855-2.65 5.855-4.919 0-2.234-1.22-3.706-3.957-4.773z" fill="#fff"/><path d="M109.667 17.404c.127.516.278 1.122.312 1.465l1.166-.292-.151-.808.047-.011c.536.562 1.211.692 1.91.517 1.166-.291 2.146-1.532 1.671-3.453-.348-1.605-1.547-2.45-2.853-2.123-.792.197-1.317.677-1.516 1.274l-.788-3.186-1.352.338 1.554 6.28zm.957-1.93a.815.815 0 01-.034-.34c-.011-.645.409-1.148.919-1.276.933-.233 1.538.412 1.769 1.349.268 1.078-.083 1.862-.919 2.072-.56.14-1.116-.119-1.398-.646a.619.619 0 01-.116-.27l-.221-.89zm9.755-1.594c-.035-.14-.035-.34-.092-.574-.291-1.172-1.198-2.438-2.923-2.007-1.724.431-2.275 2.013-1.904 3.512.394 1.594 1.687 2.415 3.414 1.984.746-.187 1.364-.49 1.726-.83l-.406-.844a4.403 4.403 0 01-1.388.594c-.886.221-1.736-.014-1.97-.95l3.543-.885zm-3.775-.051c-.093-.574.048-1.406.887-1.616.886-.221 1.313.517 1.445 1.033l-2.332.583zm4.13-4.317l.243.984-.744.186.256 1.031.746-.187.615 2.484c.174.703.429 1.137.788 1.395.291.176.757.259 1.27.132.419-.105.722-.28.944-.386l-.302-1.02c-.131.083-.268.118-.501.176-.513.128-.78-.153-.931-.763l-.58-2.342 1.259-.315-.256-1.032-1.258.315-.337-1.359-1.212.7z" fill="#991915"/></svg>