<svg width="127" height="32" fill="none" xmlns="http://www.w3.org/2000/svg"><path d="M110.58 2.062H17.13c-7.934 0-14.365 6.087-14.365 13.594 0 7.508 6.431 13.594 14.365 13.594h93.45c7.934 0 14.366-6.086 14.366-13.594 0-7.507-6.432-13.594-14.366-13.594z" fill="#fff"/><path d="M16.789 4.253h83.43a.25.25 0 01.139.041.23.23 0 01.089.11.217.217 0 01.006.137.229.229 0 01-.079.116c-1.471 1.151-5.34 4.77-5.34 11.001 0 6.169 3.791 9.848 5.295 11.065.041.034.071.08.085.13a.244.244 0 01-.008.153.26.26 0 01-.099.122.284.284 0 01-.155.046h-83.21c-6.731 0-12.188-5.165-12.188-11.533 0-6.29 5.388-11.388 12.035-11.388z" fill="#272727"/><path d="M110.728 27.236c6.707 0 12.144-5.145 12.144-11.492 0-6.346-5.437-11.491-12.144-11.491S98.585 9.398 98.585 15.744c0 6.347 5.436 11.492 12.143 11.492z" fill="#ED6D24"/><path d="M14.49 8.936h1.057c.26 0 .511.083.715.235.203.152.347.365.407.604l2.26 8.95h.11l2.35-6.38a1.04 1.04 0 01.398-.502 1.14 1.14 0 01.631-.191h1.224c.242 0 .477.07.676.201.198.13.35.316.433.53l2.47 6.342h.069l2.262-8.607c.088-.337.294-.637.584-.851.29-.214.646-.33 1.014-.33h.456c.16 0 .318.035.462.103.143.068.267.166.364.287a.925.925 0 01.165.86l-3.584 11.625a.943.943 0 01-.358.49 1.033 1.033 0 01-.597.188h-1.61c-.246 0-.485-.074-.683-.21a1.107 1.107 0 01-.423-.549l-2.22-6.433h-.117L20.7 21.862a.921.921 0 01-.352.455 1.005 1.005 0 01-.566.174h-1.58a1.19 1.19 0 01-.686-.216 1.085 1.085 0 01-.413-.562L13.52 10.164a.909.909 0 01.16-.844 1 1 0 01.358-.282 1.06 1.06 0 01.453-.102zm21.41-.235h1.273a.832.832 0 01.56.22.743.743 0 01.233.531v1.013a.653.653 0 01-.208.475.73.73 0 01-.502.196h-1.424a.817.817 0 01-.561-.22.731.731 0 01-.233-.53v-.872a.795.795 0 01.254-.575.887.887 0 01.608-.238zm-.039 3.607h1.331a.8.8 0 01.551.217.718.718 0 01.229.522v8.861c0 .2-.084.392-.234.533a.821.821 0 01-.563.221h-1.369a.802.802 0 01-.543-.211.689.689 0 01-.224-.514v-8.853c0-.205.087-.403.242-.548a.846.846 0 01.58-.228zm6.218-.046h1.209a.94.94 0 01.646.253.842.842 0 01.268.612v.377s1.123-1.415 3.173-1.415 3.833.848 3.833 4.332v5.476a.795.795 0 01-.252.577.888.888 0 01-.61.239h-1.162a.927.927 0 01-.637-.25.83.83 0 01-.263-.602v-6.058c0-.362-.152-.71-.423-.965-.27-.256-.637-.4-1.02-.4h-.262c-.63 0-1.236.237-1.682.66a2.191 2.191 0 00-.697 1.592v5.275a.727.727 0 01-.231.529.812.812 0 01-.559.219h-1.272a.852.852 0 01-.584-.229.761.761 0 01-.244-.551v-8.95a.72.72 0 01.226-.512.8.8 0 01.543-.21zm13.227-3.495h1.372c.198 0 .39.075.53.208.14.134.22.314.22.502v12.355a.847.847 0 01-.273.623.934.934 0 01-.301.19.977.977 0 01-.357.068h-1.072a.9.9 0 01-.618-.243.807.807 0 01-.257-.585v-12.4a.682.682 0 01.22-.508.793.793 0 01.535-.21zm6.327-.066h1.272a.831.831 0 01.56.22c.074.07.133.153.173.244a.71.71 0 01.06.287v1.013a.653.653 0 01-.208.475.731.731 0 01-.502.196h-1.423a.832.832 0 01-.561-.22.748.748 0 01-.172-.243.707.707 0 01-.06-.287v-.872c0-.215.092-.422.253-.574a.887.887 0 01.608-.239zm-.041 3.607h1.328c.207 0 .405.078.551.216a.718.718 0 01.23.523v8.861a.75.75 0 01-.234.534.839.839 0 01-.565.22h-1.365a.803.803 0 01-.543-.211.694.694 0 01-.224-.514v-8.853c0-.205.087-.403.241-.548a.846.846 0 01.58-.228zm6.218-.046h1.21a.956.956 0 01.646.253.823.823 0 01.268.612v.377s1.124-1.415 3.173-1.415c2.05 0 3.833.848 3.833 4.332v5.476a.779.779 0 01-.254.579.903.903 0 01-.612.237h-1.162a.927.927 0 01-.636-.25.83.83 0 01-.263-.602v-6.058c0-.362-.151-.709-.422-.964a1.48 1.48 0 00-1.018-.4h-.262c-.63 0-1.236.236-1.682.659a2.191 2.191 0 00-.697 1.592v5.275a.726.726 0 01-.231.529.812.812 0 01-.559.219H67.87a.85.85 0 01-.582-.23.762.762 0 01-.242-.55v-8.95c0-.191.081-.375.224-.51a.787.787 0 01.54-.211zm14.552 5.982h6.312a.786.786 0 00.54-.211.705.705 0 00.224-.511V16.52c0-.581-.121-1.158-.356-1.695a4.42 4.42 0 00-1.015-1.438 4.71 4.71 0 00-1.52-.96 4.913 4.913 0 00-1.792-.338h-.452a5.44 5.44 0 00-3.734 1.465c-.99.937-1.548 2.208-1.548 3.533v.948c0 .643.134 1.28.394 1.874.26.594.641 1.134 1.121 1.588.48.455 1.051.816 1.68 1.062a5.43 5.43 0 001.98.372h.521c2.854 0 4.509-1.648 4.509-1.648a.458.458 0 00.038-.388 3.316 3.316 0 00-.802-1.182.701.701 0 00-.912-.054c-1.263.985-2.772.986-2.772.986h-.58c-.287 0-.572-.052-.838-.156a2.197 2.197 0 01-.71-.448 2.059 2.059 0 01-.475-.672 1.965 1.965 0 01-.166-.792c0-.088.038-.173.104-.235a.364.364 0 01.25-.098zm-.236-2.232c0-.492.207-.963.575-1.311a2.018 2.018 0 011.385-.543h.533c.513 0 1.004.193 1.367.536.362.343.566.808.566 1.294 0 .061-.026.12-.072.163a.253.253 0 01-.173.068h-3.962a.23.23 0 01-.155-.06.207.207 0 01-.064-.147zm27.652-4.714c-1.682 0-2.603 1.16-2.603 1.16v-.309a.672.672 0 00-.057-.271.709.709 0 00-.163-.23.756.756 0 00-.531-.209h-.99a.647.647 0 00-.443.174.577.577 0 00-.183.418v7.347c0 .17.071.332.198.452s.298.187.478.187h1.043a.665.665 0 00.458-.18.595.595 0 00.19-.433v-4.331c0-.243.051-.483.149-.707.097-.224.241-.428.423-.6a1.95 1.95 0 01.633-.4 2.05 2.05 0 01.747-.141h.215c.1 0 .2.012.296.035a.94.94 0 00.585-.041.877.877 0 00.431-.376l.08-.145a.916.916 0 00-.026-.934.99.99 0 00-.364-.339 1.053 1.053 0 00-.492-.127h-.074zm9.632 8.575h-.99a.787.787 0 01-.531-.207.71.71 0 01-.163-.23.673.673 0 01-.057-.273v-.31s-.922 1.162-2.604 1.162-3.145-.696-3.145-3.553v-4.495a.654.654 0 01.207-.473.743.743 0 01.5-.196h.954c.196 0 .384.073.522.204a.679.679 0 01.217.494v4.972c0 .297.124.582.346.792.222.21.523.328.837.328h.215c.518 0 1.015-.195 1.381-.542a1.8 1.8 0 00.572-1.306v-4.33c0-.162.068-.318.189-.433a.668.668 0 01.459-.18h1.043c.179 0 .351.068.478.188s.198.283.198.452v7.347a.574.574 0 01-.186.418.641.641 0 01-.442.171zm-17.373-1.856h1.046a.67.67 0 01.46.18.6.6 0 01.191.436v.83a.534.534 0 01-.171.39.598.598 0 01-.411.162h-1.171a.673.673 0 01-.461-.18.6.6 0 01-.19-.436v-.713a.63.63 0 01.054-.256.67.67 0 01.153-.217.723.723 0 01.5-.196z" fill="#fff"/></svg>