<svg width="129" height="47" fill="none" xmlns="http://www.w3.org/2000/svg"><path d="M12.963 27.09a2.385 2.385 0 00-.161.325 2.78 2.78 0 00-.164 2.069 14.511 14.511 0 013.85-2.301 10.012 10.012 0 00-3.524-.092zm1.128 3.876c.318.142.648.25.987.324a17.383 17.383 0 011.452-3.49 13.694 13.694 0 00-3.629 2.19c.297.433.71.772 1.19.976zm4.095.144a51.518 51.518 0 01-1.027-3.207 15.754 15.754 0 00-1.493 3.47c.849.06 1.701-.03 2.52-.264zm-1.271-6.901c.102.628.261 1.4.504 2.312a17.67 17.67 0 012.46-2.552 6.799 6.799 0 00-2.964.24zm11.19 10.39a30.11 30.11 0 00-2.28-2.252 10.734 10.734 0 01-4.978 3.838c.503 1.18 1.088 2.415 1.714 3.73a10.619 10.619 0 005.544-5.316zM21.088 24.33c-.14-.06-.303-.121-.464-.182a16.384 16.384 0 00-2.52 2.446 17.446 17.446 0 014.455-.75l-.02-.041a2.56 2.56 0 00-1.45-1.473z" fill="#C5AC71"/><path d="M25.384 31.962a28.808 28.808 0 00-3.408-2.457 7.96 7.96 0 01-2.984 1.948h-.041a93.547 93.547 0 001.654 4.16 9.953 9.953 0 004.779-3.651zm-5.323 3.896a83.186 83.186 0 01-1.674-4.18 7.582 7.582 0 01-2.902.284 29.164 29.164 0 00-.847 4.241c1.806.368 3.677.25 5.423-.345zM37.037 8.12a3.062 3.062 0 001.172-2.033v-.061h.02a3.195 3.195 0 00-.624-2.191 3.054 3.054 0 00-2.02-1.18h-.06a3.04 3.04 0 00-2.177.612A3.117 3.117 0 0032.175 5.3v.08a3.04 3.04 0 00.624 2.22 3.002 3.002 0 001.998 1.132h.06v.02c.78.077 1.56-.15 2.18-.633zm-3.512-1.138a2.306 2.306 0 01-.423-1.501l.02-.042v-.02c.07-.544.35-1.039.781-1.376a2.27 2.27 0 011.493-.427l.06.02c.541.07 1.033.354 1.368.787.312.435.461.967.424 1.502l-.02.06a2.007 2.007 0 01-.782 1.378c-.43.316-.96.467-1.492.426l-.04-.02h-.02a1.989 1.989 0 01-1.364-.787h-.005zM4.697 12.906c0 .894.353 1.751.98 2.383a3.34 3.34 0 002.368.987c.888 0 1.739-.356 2.366-.987a3.38 3.38 0 00.726-3.672 3.37 3.37 0 00-1.811-1.823 3.328 3.328 0 00-3.647.731 3.384 3.384 0 00-.982 2.381zm8.045 23.255A7.176 7.176 0 019.96 33.91a9.805 9.805 0 00-.665 2.033 10.51 10.51 0 004.45 3.873c.041.02.102.041.14.061-.03-1.084.01-2.168.12-3.247a6.81 6.81 0 01-1.263-.468zm16.189-8.26a9.605 9.605 0 00-1.733-.749c.04.296.06.594.06.893a7.025 7.025 0 01-.685 3.004c-.12.28-.262.551-.423.81a29.26 29.26 0 012.215 2.16c.79-1.937.986-4.067.566-6.117zm-3.245 3.552c.121-.224.242-.445.343-.67a6.366 6.366 0 00.525-3.855 12.76 12.76 0 00-3.287-.487v.153a3.87 3.87 0 01-.343 1.522 4.44 4.44 0 01-.564.932 29.094 29.094 0 013.326 2.405zm-6.916-.528a7.34 7.34 0 002.7-1.705 20.626 20.626 0 00-3.79-1.705c.263.975.626 2.111 1.09 3.41zm-3.852.933a4.376 4.376 0 01-1.069-.346 3.652 3.652 0 01-1.39-1.115 11.344 11.344 0 00-2.202 2.903 6.312 6.312 0 002.73 2.335 7.02 7.02 0 001.089.406 27.82 27.82 0 01.842-4.183zm3.488-4.726c1.194.441 2.347.984 3.449 1.622.214-.269.396-.561.544-.872.217-.448.315-.945.283-1.443a17.698 17.698 0 00-4.276.693zm3.614 13.027a136.115 136.115 0 01-1.735-3.754c-1.833.64-3.803.776-5.706.393a26.57 26.57 0 00-.101 3.344 10.83 10.83 0 007.541.017z" fill="#C5AC71"/><path d="M22.26 40.686a11.4 11.4 0 01-7.743.081c.057.876.187 1.745.391 2.598a10.897 10.897 0 004.8 1.095h.06a10.64 10.64 0 004.031-.787 105.355 105.355 0 01-1.511-2.982l-.029-.005zm3.446-16.763c.515.57.914 1.238 1.172 1.963l.182.549c.572.182 1.13.406 1.67.67-.041-.163-.102-.305-.14-.468a11.163 11.163 0 00-2.884-2.714z" fill="#C5AC71"/><path d="M38.427 3.57l2.4 3.082c-.02.141-.121.932-.162 1.096-1.412 5.275-3.932 8.602-6.956 10.287-.02 0-.02.02-.04.02-4.558 2.498-9.658 1.057-14.377-2.067 0 0 3.751-.59 6.714.994 2.682 1.42 1.95 1.887 3.993 1.482-2.781-4.586-7.607-5.397-12.923-4.18a23.641 23.641 0 01-2.078-2.172h-2.426c.162.163 1.149 1.259 2.701 2.658-2.943.984-6.31 2.82-10.16 5.763l-3.16 2.275h4.114c4.437-3.55 8.167-5.48 11.352-6.23 3.367 2.679 8.045 5.52 12.56 5.317 2.48 3.815 3.59 8.639 4.032 11.466.039.457.053.916.041 1.374h4.375v-1.151h-3.286c-.223-2.396-1.13-7.508-3.488-11.912 3.787-.872 7.32-4.241 9.639-12.155.018-.08.826-2.945.826-2.945l-2.964-3.793-.727.79z" fill="#C5AC71"/><path d="M29.739 30.012a11.428 11.428 0 01-.927 4.465 24.71 24.71 0 011.534 1.908c.787-2.696.52-5.592-.746-8.097.087.57.134 1.147.139 1.724zm-6.917 10.451c.465.954.977 1.928 1.493 2.963a11.066 11.066 0 003.54-2.576 11.15 11.15 0 002.274-3.754 30.6 30.6 0 00-1.593-2.033 11.323 11.323 0 01-5.714 5.4zm-6.129-17.917c.02.262.06.628.121 1.075a7.085 7.085 0 013.669-.121 9.952 9.952 0 011.775-1.055 11.177 11.177 0 00-5.565.1zm-3.287 3.875a10.408 10.408 0 013.388.224 24.713 24.713 0 01-.484-2.23 6.924 6.924 0 00-2.904 2.006zm9.721-3.693c-.687.25-1.338.59-1.935 1.015.041.02.102.042.141.061a3.36 3.36 0 011.777 1.808c.02.08.06.164.08.244 1.08.017 2.154.154 3.205.406a.484.484 0 01-.041-.163c-.568-1.526-1.736-2.682-3.227-3.37zM10.463 27.11a11.11 11.11 0 012.158-.564c.745-1.16 2.036-2.133 3.59-2.702l.04-.02c-.06-.426-.101-.787-.12-1.076a10.797 10.797 0 00-5.668 4.362zm-.463.73c-.122.197-.223.407-.322.61a5.887 5.887 0 00.06 3.773c.06.163.14.324.195.487a11.479 11.479 0 012.215-2.841 2.058 2.058 0 01-.08-.197 3.237 3.237 0 01.162-2.476c-.75.152-1.48.39-2.177.71L10 27.84zm3.508 12.523a11.22 11.22 0 01-4.356-3.572v.02a11.141 11.141 0 005.073 6.21 19.664 19.664 0 01-.322-2.476c-.114-.06-.255-.121-.395-.182zm-4.295-7.955a4.435 4.435 0 01-.363-1.483c-.163.77-.244 1.556-.242 2.344v.02a9.982 9.982 0 00.12 1.57c.06.122.122.263.182.394.182-.658.425-1.297.726-1.908a4.71 4.71 0 01-.423-.937zm102.054-18.825h-4.284v21.402h4.284V13.584zM99.02 26.06l-10.746-12.4h-2.176v21.326h4.356V22.657l10.67 12.329h2.178V13.583H99.02V26.06zm-29.68 8.926h13.15v-4.312h-8.866v-5.067h8.866v-4.235h-8.866v-3.554h8.94v-4.312H69.341v21.48zm45.006-17.091h4.208v17.09h4.284v-17.09h4.207V13.66h-12.699v4.235zm-60.633 0h6.386L53.19 32.79v2.27h12.396v-4.235h-6.837l6.837-14.822v-2.27H53.713v4.16z" fill="#C5AC71"/></svg>