<svg width="14" height="13" viewBox="0 0 14 13" fill="none" xmlns="http://www.w3.org/2000/svg">
<path d="M1.96252 11.9351L1.93893 11.9449L10.7092 5.80393L9.88687 10.4975C9.84632 10.727 9.90022 10.9616 10.0345 11.1534C10.1688 11.3452 10.3699 11.4748 10.5996 11.5155L11.3292 11.6443C11.5585 11.6847 11.7905 11.6335 11.9822 11.4992C12.174 11.3649 12.302 11.1649 12.3425 10.9356L13.7596 2.90066C13.8002 2.6704 13.748 2.43814 13.613 2.24661C13.4785 2.05326 13.278 1.92461 13.0479 1.88422L5.01256 0.467379C4.78327 0.427044 4.55158 0.478751 4.35967 0.613126C4.16798 0.747352 4.04022 0.947491 3.99963 1.17664L3.87117 1.90623C3.83047 2.13545 3.88236 2.36717 4.01666 2.55897C4.15089 2.75067 4.34425 2.8692 4.57364 2.90946L9.30736 3.73573L0.516674 9.89104C0.12167 10.1676 0.0281302 10.7405 0.304566 11.1353L0.729627 11.7423C1.00606 12.1371 1.56752 12.2116 1.96252 11.9351Z" fill="#69A5FF"/>
</svg>
