<svg width="20" height="20" viewBox="0 0 20 20" fill="none" xmlns="http://www.w3.org/2000/svg">
<path d="M4.96252 14.9351L4.93893 14.9449L13.7092 8.80393L12.8869 13.4975C12.8463 13.727 12.9002 13.9616 13.0345 14.1534C13.1688 14.3452 13.3699 14.4748 13.5996 14.5155L14.3292 14.6443C14.5585 14.6847 14.7905 14.6335 14.9822 14.4992C15.174 14.3649 15.302 14.1649 15.3425 13.9356L16.7596 5.90066C16.8002 5.6704 16.748 5.43814 16.613 5.24661C16.4785 5.05326 16.278 4.92461 16.0479 4.88422L8.01256 3.46738C7.78327 3.42704 7.55158 3.47875 7.35967 3.61313C7.16798 3.74735 7.04022 3.94749 6.99963 4.17664L6.87117 4.90623C6.83047 5.13545 6.88236 5.36717 7.01666 5.55897C7.15089 5.75067 7.34425 5.8692 7.57364 5.90946L12.3074 6.73573L3.51667 12.891C3.12167 13.1676 3.02813 13.7405 3.30457 14.1353L3.72963 14.7423C4.00606 15.1371 4.56752 15.2116 4.96252 14.9351Z" fill="white"/>
</svg>
