<svg width="44" height="45" viewBox="0 0 44 45" fill="none" xmlns="http://www.w3.org/2000/svg">
<path d="M42.5576 18.9844C43.3332 18.9844 43.9639 18.3537 43.9639 17.5781V10.5469C43.9639 9.77133 43.3332 9.14062 42.5576 9.14062H26.1418C24.1322 4.07602 19.2132 0.703125 13.7295 0.703125C6.36285 0.703125 0.370117 6.69586 0.370117 14.0625C0.370117 20.2802 4.64652 25.5045 10.4079 26.9866C10.2835 27.3502 10.2139 27.7327 10.2139 28.125V42.1875C10.2139 43.3505 11.1603 44.2969 12.3232 44.2969H15.1357C16.2987 44.2969 17.2451 43.3505 17.2451 42.1875V28.125C17.2451 27.7348 17.1769 27.3544 17.0532 26.9923C18.6324 26.5866 20.1258 25.8961 21.4639 24.9441V30.2344C21.4639 31.0099 22.0946 31.6406 22.8701 31.6406H42.5576C43.3332 31.6406 43.9639 31.0099 43.9639 30.2344V23.2031C43.9639 22.4276 43.3332 21.7969 42.5576 21.7969H24.6146C25.2361 20.925 25.741 19.9821 26.1361 18.9844H42.5576ZM17.2451 18.9844H21.4273C19.7616 21.5775 16.8535 23.2031 13.7295 23.2031C8.68949 23.2031 4.58887 19.1025 4.58887 14.0625C4.58887 9.0225 8.68949 4.92188 13.7295 4.92188C16.8535 4.92188 19.7616 6.5475 21.4273 9.14062H17.2451C16.4696 9.14062 15.8389 9.77133 15.8389 10.5469V17.5781C15.8389 18.3537 16.4696 18.9844 17.2451 18.9844ZM17.2451 17.5781V10.5469H25.6826V17.5781H17.2451ZM42.5583 17.5781H27.0889V10.5469H42.5576L42.5583 17.5781ZM15.1357 42.8906H12.3232C11.9358 42.8906 11.6201 42.5749 11.6201 42.1875V31.6406H15.8389V42.1875C15.8389 42.5749 15.5232 42.8906 15.1357 42.8906ZM15.8389 28.125V30.2344H11.6201V28.125C11.6201 27.8255 11.6869 27.5358 11.8064 27.2672C12.4364 27.3586 13.0749 27.4219 13.7295 27.4219C14.3785 27.4219 15.019 27.3614 15.6532 27.2693C15.7728 27.5372 15.8389 27.8262 15.8389 28.125ZM22.8701 23.2031H32.7139V30.2344H22.8701V23.2031ZM42.5576 30.2344H34.1201V23.2031H42.5576V30.2344ZM22.8258 21.8011C22.0861 21.825 21.492 22.4191 21.4688 23.1595C19.3088 24.9982 16.5757 26.0156 13.7295 26.0156C7.1384 26.0156 1.77637 20.6536 1.77637 14.0625C1.77637 7.47141 7.1384 2.10938 13.7295 2.10938C18.4482 2.10938 22.7049 4.89727 24.623 9.14062H23.0522C21.2361 5.71148 17.629 3.51562 13.7295 3.51562C7.91395 3.51562 3.18262 8.24695 3.18262 14.0625C3.18262 19.878 7.91395 24.6094 13.7295 24.6094C17.629 24.6094 21.2361 22.4135 23.0522 18.9844H24.6188C24.1596 20.0018 23.5564 20.9433 22.8258 21.8011V21.8011Z" fill="#69A5FF"/>
<path d="M39.7451 13.3594H41.1514V14.7656H39.7451V13.3594Z" fill="#69A5FF"/>
<path d="M36.9326 13.3594H38.3389V14.7656H36.9326V13.3594Z" fill="#69A5FF"/>
<path d="M34.1201 13.3594H35.5264V14.7656H34.1201V13.3594Z" fill="#69A5FF"/>
<path d="M31.3076 13.3594H32.7139V14.7656H31.3076V13.3594Z" fill="#69A5FF"/>
<path d="M28.4951 13.3594H29.9014V14.7656H28.4951V13.3594Z" fill="#69A5FF"/>
<path d="M23.7792 11.4561L20.0575 15.1777L19.1484 14.2686L18.1542 15.2628L20.0575 17.1661L24.7734 12.4503L23.7792 11.4561Z" fill="#69A5FF"/>
<path d="M39.7451 34.4531H20.0576C19.2821 34.4531 18.6514 35.0838 18.6514 35.8594V42.8906C18.6514 43.6662 19.2821 44.2969 20.0576 44.2969H39.7451C40.5207 44.2969 41.1514 43.6662 41.1514 42.8906V35.8594C41.1514 35.0838 40.5207 34.4531 39.7451 34.4531ZM20.0576 35.8594H28.4951V42.8906H20.0576V35.8594ZM29.9014 42.8906V35.8594H39.7451L39.7458 42.8906H29.9014Z" fill="#69A5FF"/>
<path d="M36.9326 38.6719H38.3389V40.0781H36.9326V38.6719Z" fill="#69A5FF"/>
<path d="M34.1201 38.6719H35.5264V40.0781H34.1201V38.6719Z" fill="#69A5FF"/>
<path d="M31.3076 38.6719H32.7139V40.0781H31.3076V38.6719Z" fill="#69A5FF"/>
<path d="M24.2764 26.0156H25.6826V27.4219H24.2764V26.0156Z" fill="#69A5FF"/>
<path d="M27.0889 26.0156H28.4951V27.4219H27.0889V26.0156Z" fill="#69A5FF"/>
<path d="M29.9014 26.0156H31.3076V27.4219H29.9014V26.0156Z" fill="#69A5FF"/>
<path d="M26.5917 36.7686L22.87 40.4902L21.9609 39.5811L20.9667 40.5753L22.87 42.4786L27.5859 37.7628L26.5917 36.7686Z" fill="#69A5FF"/>
<path d="M35.7323 28.3311L36.7265 29.3253L38.3388 27.713L39.9511 29.3253L40.9453 28.3311L39.333 26.7188L40.9453 25.1065L39.9511 24.1123L38.3388 25.7246L36.7265 24.1123L35.7323 25.1065L37.3446 26.7188L35.7323 28.3311Z" fill="#69A5FF"/>
</svg>
