<svg width="45" height="46" viewBox="0 0 45 46" fill="none" xmlns="http://www.w3.org/2000/svg">
<path d="M30.4102 40.561H26.7187C26.603 40.561 26.489 40.5896 26.387 40.6442C26.2849 40.6989 26.1979 40.7778 26.1337 40.8741L24.9362 42.6704H11.25V42.1495L14.6771 35.9806C14.7352 35.8762 14.7656 35.7587 14.7656 35.6392V31.4204H13.3594V35.4569L9.93224 41.6258C9.87421 41.7303 9.84376 41.8478 9.84375 41.9673V43.3735C9.84375 43.56 9.91783 43.7389 10.0497 43.8707C10.1816 44.0026 10.3604 44.0767 10.5469 44.0767H25.3125C25.4283 44.0767 25.5422 44.0481 25.6443 43.9935C25.7463 43.9388 25.8333 43.8599 25.8975 43.7635L27.095 41.9673H30.4102C30.8699 41.9666 31.3246 41.8714 31.7459 41.6875C32.1672 41.5035 32.5462 41.2349 32.8592 40.8982L31.8283 39.9419C31.648 40.1381 31.4288 40.2945 31.1846 40.4011C30.9404 40.5078 30.6766 40.5622 30.4102 40.561Z" fill="#69A5FF"/>
<path d="M39.375 36.6938C39.3747 36.9735 39.2635 37.2416 39.0657 37.4393C38.868 37.637 38.5999 37.7482 38.3203 37.7485H22.1484C21.8688 37.7482 21.6007 37.637 21.403 37.4393C21.2053 37.2416 21.0941 36.9735 21.0938 36.6938V26.4985H22.5C23.6185 26.4973 24.6908 26.0524 25.4817 25.2615C26.2726 24.4706 26.7175 23.3983 26.7188 22.2798V19.4673C26.7188 19.2808 26.6447 19.102 26.5128 18.9701C26.3809 18.8382 26.2021 18.7642 26.0156 18.7642H18.7755C18.0743 18.7635 17.3908 18.9838 16.822 19.3938C16.2532 19.8038 15.8281 20.3825 15.6069 21.0479L13.3954 27.6824C13.3715 27.7541 13.3594 27.8292 13.3594 27.9048V30.0142H14.7656V28.0189L16.9411 21.4926C17.0691 21.1074 17.3152 20.7723 17.6445 20.5349C17.9738 20.2976 18.3695 20.17 18.7755 20.1704H25.3125V22.2798C25.3117 23.0254 25.0151 23.7403 24.4878 24.2676C23.9605 24.7949 23.2457 25.0914 22.5 25.0923H19.6875V36.6938C19.6882 37.3463 19.9477 37.9718 20.4091 38.4332C20.8705 38.8945 21.496 39.1541 22.1484 39.1548H38.3203C38.9728 39.1541 39.5983 38.8945 40.0597 38.4332C40.521 37.9718 40.7805 37.3463 40.7812 36.6938V7.51416H39.375V36.6938Z" fill="#69A5FF"/>
<path d="M38.3203 1.88916H22.1484C21.496 1.88989 20.8705 2.1494 20.4091 2.61076C19.9477 3.07212 19.6882 3.69764 19.6875 4.3501V17.3579H21.0938V4.3501C21.0941 4.07047 21.2053 3.80239 21.403 3.60467C21.6007 3.40694 21.8688 3.29572 22.1484 3.29541H38.3203C38.5999 3.29572 38.868 3.40694 39.0657 3.60467C39.2635 3.80239 39.3747 4.07047 39.375 4.3501V6.10791H40.7812V4.3501C40.7805 3.69764 40.521 3.07212 40.0597 2.61076C39.5983 2.1494 38.9728 1.88989 38.3203 1.88916Z" fill="#69A5FF"/>
<path d="M35.1562 11.0298H36.5625V12.436H37.9688V10.3267C37.9688 10.1402 37.8947 9.96134 37.7628 9.82948C37.6309 9.69761 37.4521 9.62354 37.2656 9.62354H35.1562V11.0298Z" fill="#69A5FF"/>
<path d="M37.9688 25.7954V23.686H36.5625V25.0923H35.1562V26.4985H37.2656C37.4521 26.4985 37.6309 26.4245 37.7628 26.2926C37.8947 26.1607 37.9688 25.9819 37.9688 25.7954Z" fill="#69A5FF"/>
<path d="M22.5 10.3267V12.436H23.9062V11.0298H25.3125V9.62354H23.2031C23.0166 9.62354 22.8378 9.69761 22.7059 9.82948C22.5741 9.96134 22.5 10.1402 22.5 10.3267V10.3267Z" fill="#69A5FF"/>
<path d="M31.6406 12.436C31.4541 12.436 31.2753 12.5101 31.1434 12.642C31.0116 12.7738 30.9375 12.9527 30.9375 13.1392V16.6548C30.9375 16.8413 31.0116 17.0201 31.1434 17.152C31.2753 17.2838 31.4541 17.3579 31.6406 17.3579H35.1562C35.3427 17.3579 35.5216 17.2838 35.6534 17.152C35.7853 17.0201 35.8594 16.8413 35.8594 16.6548V13.1392C35.8594 12.9527 35.7853 12.7738 35.6534 12.642C35.5216 12.5101 35.3427 12.436 35.1562 12.436H31.6406ZM34.4531 15.9517H32.3438V13.8423H34.4531V15.9517Z" fill="#69A5FF"/>
<path d="M24.6094 13.1392V16.6548C24.6094 16.8413 24.6835 17.0201 24.8153 17.152C24.9472 17.2838 25.126 17.3579 25.3125 17.3579H28.8281C29.0146 17.3579 29.1934 17.2838 29.3253 17.152C29.4572 17.0201 29.5312 16.8413 29.5312 16.6548V13.1392C29.5312 12.9527 29.4572 12.7738 29.3253 12.642C29.1934 12.5101 29.0146 12.436 28.8281 12.436H25.3125C25.126 12.436 24.9472 12.5101 24.8153 12.642C24.6835 12.7738 24.6094 12.9527 24.6094 13.1392ZM26.0156 13.8423H28.125V15.9517H26.0156V13.8423Z" fill="#69A5FF"/>
<path d="M35.8594 22.9829V19.4673C35.8594 19.2808 35.7853 19.102 35.6534 18.9701C35.5216 18.8382 35.3427 18.7642 35.1562 18.7642H31.6406C31.4541 18.7642 31.2753 18.8382 31.1434 18.9701C31.0116 19.102 30.9375 19.2808 30.9375 19.4673V22.9829C30.9375 23.1694 31.0116 23.3482 31.1434 23.4801C31.2753 23.612 31.4541 23.686 31.6406 23.686H35.1562C35.3427 23.686 35.5216 23.612 35.6534 23.4801C35.7853 23.3482 35.8594 23.1694 35.8594 22.9829ZM34.4531 22.2798H32.3438V20.1704H34.4531V22.2798Z" fill="#69A5FF"/>
<path d="M29.5312 22.9829V19.4673C29.5312 19.2808 29.4572 19.102 29.3253 18.9701C29.1934 18.8382 29.0146 18.7642 28.8281 18.7642H28.125V23.686H28.8281C29.0146 23.686 29.1934 23.612 29.3253 23.4801C29.4572 23.3482 29.5312 23.1694 29.5312 22.9829Z" fill="#69A5FF"/>
<path d="M26.7188 4.70166H33.75V6.10791H26.7188V4.70166Z" fill="#69A5FF"/>
<path d="M23.9062 4.70166H25.3125V6.10791H23.9062V4.70166Z" fill="#69A5FF"/>
<path d="M35.1562 4.70166H36.5625V6.10791H35.1562V4.70166Z" fill="#69A5FF"/>
<path d="M25.3125 31.4204C25.3125 32.3939 25.6012 33.3455 26.142 34.1549C26.6828 34.9643 27.4515 35.5951 28.3509 35.9676C29.2502 36.3402 30.2398 36.4376 31.1946 36.2477C32.1493 36.0578 33.0263 35.589 33.7147 34.9007C34.403 34.2124 34.8718 33.3354 35.0617 32.3806C35.2516 31.4259 35.1541 30.4362 34.7816 29.5369C34.4091 28.6375 33.7782 27.8688 32.9688 27.328C32.1594 26.7872 31.2078 26.4985 30.2344 26.4985C28.9295 26.5 27.6784 27.019 26.7557 27.9417C25.833 28.8645 25.314 30.1155 25.3125 31.4204V31.4204ZM30.2344 27.9048C30.9297 27.9048 31.6094 28.111 32.1876 28.4973C32.7657 28.8836 33.2163 29.4326 33.4824 30.075C33.7485 30.7174 33.8181 31.4243 33.6824 32.1063C33.5468 32.7882 33.212 33.4147 32.7203 33.9063C32.2286 34.398 31.6022 34.7328 30.9202 34.8685C30.2383 35.0041 29.5314 34.9345 28.889 34.6684C28.2466 34.4023 27.6975 33.9517 27.3112 33.3736C26.9249 32.7954 26.7187 32.1157 26.7187 31.4204C26.7198 30.4883 27.0905 29.5947 27.7496 28.9357C28.4087 28.2766 29.3023 27.9058 30.2344 27.9048V27.9048Z" fill="#69A5FF"/>
<path d="M29.0339 33.3239C29.0992 33.3892 29.1767 33.441 29.2621 33.4764C29.3474 33.5117 29.4388 33.5299 29.5312 33.5299C29.6235 33.5299 29.7149 33.5117 29.8002 33.4764C29.8856 33.441 29.9631 33.3892 30.0284 33.3239L32.8409 30.5114L31.8464 29.5171L29.5312 31.8324L28.6221 30.9233L27.6277 31.9177L29.0339 33.3239Z" fill="#69A5FF"/>
<path d="M11.2466 20.8733C11.3951 20.8734 11.5399 20.8263 11.66 20.7389L13.1204 19.6772C15.5337 17.9423 17.1819 15.3408 17.7198 12.4178C17.7208 12.4123 17.7217 12.4069 17.7226 12.4015L18.2548 9.02954C18.2789 8.87678 18.252 8.72033 18.1782 8.58442C18.1044 8.44851 17.9879 8.34072 17.8466 8.27775L11.5273 5.45989C11.4372 5.4197 11.3396 5.39893 11.2409 5.39893C11.1423 5.39893 11.0447 5.4197 10.9546 5.45989L4.63528 8.27775C4.49407 8.34071 4.37755 8.44847 4.30376 8.58433C4.22997 8.7202 4.20301 8.8766 4.22707 9.02933L4.75381 12.3736C4.75469 12.3791 4.75557 12.3845 4.75656 12.39C4.86049 12.961 5.00789 13.5233 5.19747 14.0718L6.52647 13.6122C6.36125 13.1341 6.23259 12.6441 6.14161 12.1465L5.7 9.3427L11.2409 6.87196L16.7817 9.34268L16.3348 12.174C15.8595 14.7378 14.4115 17.0187 12.2935 18.5398L11.2493 19.2989L10.1307 18.4751C8.85857 17.5404 7.81796 16.3261 7.08902 14.9259L5.83933 15.5707C6.6677 17.1631 7.85054 18.5441 9.29673 19.6074L10.8295 20.7363C10.9503 20.8254 11.0965 20.8734 11.2466 20.8733V20.8733Z" fill="#69A5FF"/>
<path d="M10.5301 15.2482C10.6225 15.2483 10.7139 15.2301 10.7993 15.1948C10.8846 15.1594 10.9621 15.1076 11.0273 15.0422L15.2461 10.8235L14.2516 9.8291L10.5301 13.5507L8.91794 11.9385L7.92346 12.9328L10.0328 15.0422C10.0981 15.1076 10.1756 15.1595 10.2609 15.1948C10.3463 15.2301 10.4377 15.2483 10.5301 15.2482V15.2482Z" fill="#69A5FF"/>
</svg>
