<svg width="46" height="45" viewBox="0 0 46 45" fill="none" xmlns="http://www.w3.org/2000/svg">
<path d="M44.511 26.7188V16.875C44.5102 16.1294 44.2136 15.4145 43.6863 14.8872C43.159 14.3599 42.4442 14.0634 41.6985 14.0625H41.6294L38.214 7.1385C38.056 6.81336 37.8342 6.52338 37.5617 6.28588C37.2891 6.04838 36.9716 5.86822 36.6279 5.75615C36.2926 5.6456 35.9384 5.60377 35.5866 5.63316C35.2347 5.66254 34.8924 5.76254 34.5801 5.92719L28.0674 9.32583C27.9442 9.39016 27.8429 9.48949 27.7761 9.6113L26.83 11.3379L24.9256 11.105C24.7843 11.0874 24.641 11.1134 24.5149 11.1795L18.991 14.0625H5.136C4.39033 14.0634 3.67545 14.3599 3.14818 14.8872C2.62092 15.4145 2.32433 16.1294 2.3235 16.875V18.2813H3.72975V16.875C3.73019 16.5022 3.87849 16.1448 4.14212 15.8811C4.40574 15.6175 4.76317 15.4692 5.136 15.4688H13.1516L13.0155 15.896C12.9746 16.0242 12.9714 16.1615 13.0062 16.2914C13.0411 16.4214 13.1124 16.5387 13.2119 16.6293L14.6388 17.9297L13.2116 19.2305C13.1121 19.3211 13.0407 19.4383 13.0059 19.5683C12.971 19.6982 12.9742 19.8355 13.015 19.9637L13.6009 21.8027L11.7155 22.2152C11.5841 22.2439 11.4637 22.3097 11.3686 22.4049C11.2735 22.5 11.2077 22.6203 11.1789 22.7517L10.7664 24.6372L8.92742 24.0513C8.79922 24.0105 8.66199 24.0073 8.53203 24.0421C8.40207 24.0769 8.28484 24.1483 8.19424 24.2478L6.89381 25.6747L5.59303 24.2475C5.50246 24.1479 5.3852 24.0765 5.25521 24.0417C5.12522 24.0068 4.98796 24.0101 4.85976 24.051L3.72975 24.4112V19.6875H2.3235V30.9375C2.32433 31.6832 2.62092 32.3981 3.14818 32.9253C3.67545 33.4526 4.39033 33.7492 5.136 33.75H19.4145L11.6035 37.8263C11.457 37.9036 11.2965 37.9506 11.1315 37.9644C10.9664 37.9783 10.8003 37.9588 10.643 37.9071C10.4778 37.8525 10.3253 37.7653 10.1946 37.6506C10.0639 37.5358 9.9576 37.396 9.88209 37.2393L8.70049 34.8451L7.43926 35.4674L8.62051 37.8615C8.77847 38.1867 9.00033 38.4767 9.27284 38.7142C9.54534 38.9517 9.86291 39.1318 10.2066 39.2439C10.5419 39.3544 10.8961 39.3962 11.2479 39.3668C11.5998 39.3374 11.9421 39.2374 12.2544 39.0729L22.4542 33.75H29.7454C29.8842 33.75 30.0199 33.7089 30.1354 33.6319L31.8547 32.4857L33.5741 33.6319C33.6896 33.7089 33.8253 33.75 33.9641 33.75H41.6985C42.4442 33.7492 43.159 33.4526 43.6863 32.9253C44.2136 32.3981 44.5102 31.6832 44.511 30.9375V28.125H43.1047V30.9375C43.1043 31.3103 42.956 31.6678 42.6924 31.9314C42.4287 32.195 42.0713 32.3433 41.6985 32.3438H34.177L32.5579 31.2644V30.2344H31.1516V31.2644L29.5325 32.3438H5.136C4.76317 32.3433 4.40574 32.195 4.14212 31.9314C3.87849 31.6678 3.73019 31.3103 3.72975 30.9375V25.8871L4.85747 25.5278L6.37402 27.1923C6.43992 27.2647 6.52018 27.3224 6.60969 27.362C6.69919 27.4015 6.79596 27.4219 6.89381 27.4219C6.99166 27.4219 7.08843 27.4015 7.17793 27.362C7.26743 27.3224 7.3477 27.2647 7.41359 27.1923L8.93015 25.5278L11.0747 26.211C11.1679 26.2407 11.2663 26.2506 11.3636 26.2401C11.4608 26.2296 11.5549 26.1989 11.6396 26.15C11.7243 26.1011 11.7979 26.035 11.8557 25.9561C11.9134 25.8771 11.954 25.7869 11.9749 25.6913L12.4561 23.4922L14.6552 23.0111C14.7507 22.9902 14.8409 22.9496 14.9199 22.8918C14.9989 22.8341 15.0649 22.7605 15.1138 22.6758C15.1628 22.591 15.1934 22.497 15.204 22.3997C15.2145 22.3025 15.2046 22.2041 15.1749 22.1108L14.4916 19.9663L16.1562 18.4498C16.2285 18.3839 16.2863 18.3036 16.3258 18.2141C16.3654 18.1246 16.3858 18.0278 16.3858 17.93C16.3858 17.8321 16.3654 17.7354 16.3258 17.6458C16.2863 17.5563 16.2285 17.4761 16.1562 17.4102L14.4916 15.8936L14.6271 15.4688H29.5325L31.1516 16.5482V18.2813H32.5579V16.5482L34.177 15.4688H41.6985C42.0713 15.4692 42.4287 15.6175 42.6924 15.8811C42.956 16.1448 43.1043 16.5022 43.1047 16.875V26.7188H44.511ZM33.9641 14.0625C33.8253 14.0625 33.6896 14.1036 33.5741 14.1806L31.8547 15.3268L30.1354 14.1806C30.0199 14.1036 29.8842 14.0625 29.7454 14.0625H22.0302L24.9719 12.5273L27.1323 12.7916C27.2719 12.8087 27.4135 12.7834 27.5386 12.7192C27.6637 12.655 27.7667 12.5547 27.8343 12.4313L28.907 10.4737L35.231 7.17339C35.3775 7.09612 35.538 7.04914 35.703 7.03526C35.8681 7.02138 36.0342 7.04089 36.1915 7.09262C36.3568 7.14713 36.5094 7.23438 36.6402 7.34914C36.771 7.4639 36.8773 7.60383 36.9528 7.76059L40.0614 14.0625H33.9641ZM32.5579 21.7969H31.1516V19.6875H32.5579V21.7969ZM32.5579 25.3125H31.1516V23.2031H32.5579V25.3125ZM31.1516 26.7188H32.5579V28.8281H31.1516V26.7188ZM8.81457 17.1281L9.89492 18.0282L6.3793 22.247L5.29895 21.3468L8.81457 17.1281ZM5.136 17.5781H6.54225V18.9844H5.136V17.5781ZM8.65162 21.7969V20.3906H10.0579V21.7969H8.65162ZM14.8391 27.8438L14.1008 28.8281L14.8391 29.8125L13.7141 30.6563L13.2219 30.0001L12.7297 30.6563L11.6047 29.8125L12.343 28.8281L11.6047 27.8438L12.7297 27L13.2219 27.6562L13.7141 27L14.8391 27.8438ZM19.0579 27.8438L18.3196 28.8281L19.0579 29.8125L17.9329 30.6563L17.4407 30.0001L16.9485 30.6563L15.8235 29.8125L16.5618 28.8281L15.8235 27.8438L16.9485 27L17.4407 27.6562L17.9329 27L19.0579 27.8438ZM23.2766 27.8438L22.5383 28.8281L23.2766 29.8125L22.1516 30.6563L21.6594 30.0001L21.1672 30.6563L20.0422 29.8125L20.7805 28.8281L20.0422 27.8438L21.1672 27L21.6594 27.6562L22.1516 27L23.2766 27.8438ZM27.4954 27.8438L26.7571 28.8281L27.4954 29.8125L26.3704 30.6563L25.8782 30.0001L25.386 30.6563L24.261 29.8125L24.9993 28.8281L24.261 27.8438L25.386 27L25.8782 27.6562L26.3704 27L27.4954 27.8438ZM27.636 24.6094H19.1985V23.2031H27.636V24.6094ZM27.636 21.7969H19.1985V20.3906H27.636V21.7969ZM22.011 17.5781V18.9844H19.1985V17.5781H22.011ZM27.636 18.9844H23.4172V17.5781H27.636V18.9844ZM40.9954 24.6094H34.6672V23.2031H40.9954V24.6094ZM40.9954 21.7969H34.6672V20.3906H40.9954V21.7969ZM40.9954 18.9844H34.6672V17.5781H40.9954V18.9844ZM34.6672 28.8281H40.9954V30.2344H34.6672V28.8281ZM40.9954 27.4219H34.6672V26.0156H40.9954V27.4219ZM22.7141 42.1875H24.1204V43.5938H22.7141V42.1875ZM24.1204 40.7813H22.7141V35.1563H24.1204V40.7813ZM22.7141 4.21877H24.1204V10.5469H22.7141V4.21877ZM24.1204 2.81252H22.7141V1.40627H24.1204V2.81252ZM43.3905 38.8797L44.9715 40.2499L44.0505 41.3127L42.4695 39.9424L43.3905 38.8797ZM42.584 38.1808L41.6633 39.2432L37.5604 35.6873L38.4814 34.6245L42.584 38.1808ZM5.28022 5.85072L12.6279 12.2187L11.707 13.2813L4.35922 6.9135L5.28022 5.85072ZM3.41229 6.09277L1.86304 4.75016L2.78396 3.68738L4.3332 5.03L3.41229 6.09277ZM44.9715 4.75016L40.7527 8.40641L39.8318 7.34363L44.0505 3.68738L44.9715 4.75016ZM2.78396 41.3127L1.86304 40.2499L6.08179 36.5936L7.0027 37.6564L2.78396 41.3127ZM34.593 43.2793L33.3353 43.9082L29.1165 35.4707L30.3742 34.8418L34.593 43.2793ZM17.8665 12.9707L12.2415 1.72074L13.4992 1.0918L19.1242 12.3418L17.8665 12.9707ZM13.4992 43.9082L12.2415 43.2793L14.7025 38.3574L15.9602 38.9864L13.4992 43.9082ZM34.593 1.72074L32.4836 5.93949L31.2259 5.31055L33.3353 1.0918L34.593 1.72074Z" fill="#69A5FF"/>
</svg>
