<svg width="46" height="46" viewBox="0 0 46 46" fill="none" xmlns="http://www.w3.org/2000/svg">
<path d="M42.2295 6.40479V39.4517C42.2287 40.1973 41.9321 40.9122 41.4048 41.4395C40.8775 41.9667 40.1627 42.2633 39.417 42.2642H38.0107C37.2651 42.2633 36.5502 41.9667 36.0229 41.4395C35.4957 40.9122 35.1991 40.1973 35.1982 39.4517V34.5298H33.792V39.4517C33.7911 40.49 34.1747 41.4919 34.8688 42.2642H5.66699C4.92133 42.2633 4.20644 41.9667 3.67918 41.4395C3.15191 40.9122 2.85533 40.1973 2.85449 39.4517V10.6235H1.44824V39.4517C1.44948 40.5702 1.89435 41.6425 2.68525 42.4334C3.47615 43.2243 4.54849 43.6692 5.66699 43.6704H39.417C40.5355 43.6692 41.6078 43.2243 42.3987 42.4334C43.1896 41.6425 43.6345 40.5702 43.6357 39.4517V6.40479H42.2295Z" fill="#69A5FF"/>
<path d="M2.85449 3.43719L4.09612 4.19305C4.20627 4.26008 4.33272 4.29554 4.46166 4.29554C4.5906 4.29554 4.71705 4.26008 4.8272 4.19305L6.77187 3.00916L8.7168 4.19296C8.82695 4.26001 8.95342 4.29547 9.08238 4.29547C9.21133 4.29547 9.3378 4.26001 9.44796 4.19296L11.3926 3.00916L13.3372 4.19296C13.4474 4.25999 13.5738 4.29545 13.7027 4.29545C13.8317 4.29545 13.9581 4.25999 14.0683 4.19296L16.0129 3.00916L17.9577 4.19296C18.0678 4.25999 18.1943 4.29545 18.3232 4.29545C18.4522 4.29545 18.5786 4.25999 18.6888 4.19296L20.6335 3.00916L22.5782 4.19296C22.6883 4.25999 22.8148 4.29545 22.9437 4.29545C23.0727 4.29545 23.1991 4.25999 23.3093 4.19296L25.254 3.00916L27.1987 4.19296C27.3089 4.26001 27.4353 4.29547 27.5643 4.29547C27.6932 4.29547 27.8197 4.26001 27.9299 4.19296L29.8746 3.00916L31.8193 4.19296C31.9294 4.25999 32.0559 4.29545 32.1848 4.29545C32.3138 4.29545 32.4402 4.25999 32.5504 4.19296L33.792 3.43719V32.4204H35.1982V2.18607C35.1982 2.06126 35.165 1.93871 35.102 1.83099C35.039 1.72327 34.9484 1.63427 34.8396 1.57312C34.7308 1.51197 34.6077 1.48088 34.4829 1.48304C34.3582 1.4852 34.2362 1.52054 34.1296 1.58542L32.1848 2.76922L30.2402 1.58542C30.13 1.51839 30.0036 1.48294 29.8746 1.48294C29.7457 1.48294 29.6192 1.51839 29.5091 1.58542L27.5643 2.76922L25.6197 1.58542C25.5095 1.51837 25.383 1.48291 25.2541 1.48291C25.1251 1.48291 24.9987 1.51837 24.8885 1.58542L22.9437 2.76922L20.9991 1.58542C20.8889 1.51839 20.7625 1.48294 20.6335 1.48294C20.5046 1.48294 20.3781 1.51839 20.268 1.58542L18.3232 2.76922L16.3785 1.58542C16.2683 1.51839 16.1419 1.48294 16.0129 1.48294C15.884 1.48294 15.7576 1.51839 15.6474 1.58542L13.7027 2.76922L11.7578 1.58542C11.6477 1.51837 11.5212 1.48291 11.3922 1.48291C11.2633 1.48291 11.1368 1.51837 11.0267 1.58542L9.08216 2.76922L7.1374 1.58542C7.02726 1.51839 6.9008 1.48294 6.77187 1.48294C6.64293 1.48294 6.51647 1.51839 6.40633 1.58542L4.46166 2.76922L2.5169 1.58542C2.41029 1.52054 2.28833 1.4852 2.16355 1.48304C2.03877 1.48088 1.91566 1.51197 1.80686 1.57312C1.69807 1.63427 1.60751 1.72327 1.54448 1.83099C1.48146 1.93871 1.44824 2.06126 1.44824 2.18607V9.21732H2.85449V3.43719Z" fill="#69A5FF"/>
<path d="M4.96387 6.40479H31.6826V7.81104H4.96387V6.40479Z" fill="#69A5FF"/>
<path d="M4.96387 13.436H31.6826V14.8423H4.96387V13.436Z" fill="#69A5FF"/>
<path d="M17.6201 12.0298V9.92041C17.6201 9.73393 17.546 9.55509 17.4142 9.42323C17.2823 9.29136 17.1035 9.21729 16.917 9.21729H11.292C11.1055 9.21729 10.9267 9.29136 10.7948 9.42323C10.6629 9.55509 10.5889 9.73393 10.5889 9.92041V12.0298H11.9951V10.6235H13.4014V12.0298H14.8076V10.6235H16.2139V12.0298H17.6201Z" fill="#69A5FF"/>
<path d="M19.0264 9.21729V11.3267C19.0264 11.5131 19.1004 11.692 19.2323 11.8238C19.3642 11.9557 19.543 12.0298 19.7295 12.0298H25.3545C25.541 12.0298 25.7198 11.9557 25.8517 11.8238C25.9835 11.692 26.0576 11.5131 26.0576 11.3267V9.21729H24.6514V10.6235H23.2451V9.21729H21.8389V10.6235H20.4326V9.21729H19.0264Z" fill="#69A5FF"/>
<path d="M9.18262 12.0298V9.92041C9.18262 9.73393 9.10854 9.55509 8.97668 9.42323C8.84481 9.29136 8.66597 9.21729 8.47949 9.21729H5.66699C5.48051 9.21729 5.30167 9.29136 5.16981 9.42323C5.03795 9.55509 4.96387 9.73393 4.96387 9.92041V12.0298H6.37012V10.6235H7.77637V12.0298H9.18262Z" fill="#69A5FF"/>
<path d="M31.6826 9.92041C31.6826 9.73393 31.6085 9.55509 31.4767 9.42323C31.3448 9.29136 31.166 9.21729 30.9795 9.21729H28.167C27.9805 9.21729 27.8017 9.29136 27.6698 9.42323C27.5379 9.55509 27.4639 9.73393 27.4639 9.92041V12.0298H28.8701V10.6235H30.2764V12.0298H31.6826V9.92041Z" fill="#69A5FF"/>
<path d="M31.6826 17.6548C31.6826 17.4683 31.6085 17.2895 31.4767 17.1576C31.3448 17.0257 31.166 16.9517 30.9795 16.9517H5.66699C5.48051 16.9517 5.30167 17.0257 5.16981 17.1576C5.03795 17.2895 4.96387 17.4683 4.96387 17.6548V25.3892C4.96387 25.5756 5.03795 25.7545 5.16981 25.8863C5.30167 26.0182 5.48051 26.0923 5.66699 26.0923H30.9795C31.166 26.0923 31.3448 26.0182 31.4767 25.8863C31.6085 25.7545 31.6826 25.5756 31.6826 25.3892V17.6548ZM30.2764 24.686H6.37012V18.3579H30.2764V24.686Z" fill="#69A5FF"/>
<path d="M4.96387 28.2017H12.4999V29.6079H4.96387V28.2017Z" fill="#69A5FF"/>
<path d="M4.96387 31.7173H12.4999V33.1235H4.96387V31.7173Z" fill="#69A5FF"/>
<path d="M4.96387 35.2329H12.4999V36.6392H4.96387V35.2329Z" fill="#69A5FF"/>
<path d="M4.96387 38.7485H12.4999V40.1548H4.96387V38.7485Z" fill="#69A5FF"/>
<path d="M14.5553 28.2017H22.0914V29.6079H14.5553V28.2017Z" fill="#69A5FF"/>
<path d="M14.5553 31.7173H22.0914V33.1235H14.5553V31.7173Z" fill="#69A5FF"/>
<path d="M14.5553 35.2329H22.0914V36.6392H14.5553V35.2329Z" fill="#69A5FF"/>
<path d="M14.5553 38.7485H22.0914V40.1548H14.5553V38.7485Z" fill="#69A5FF"/>
<path d="M24.1467 28.2017H31.6827V29.6079H24.1467V28.2017Z" fill="#69A5FF"/>
<path d="M24.1467 31.7173H31.6827V33.1235H24.1467V31.7173Z" fill="#69A5FF"/>
<path d="M24.1467 35.2329H31.6827V36.6392H24.1467V35.2329Z" fill="#69A5FF"/>
<path d="M24.1467 38.7485H31.6827V40.1548H24.1467V38.7485Z" fill="#69A5FF"/>
<path d="M36.6045 1.48291H38.0107V40.1548H36.6045V1.48291Z" fill="#69A5FF"/>
<path d="M39.417 6.40479H40.8232V40.1548H39.417V6.40479Z" fill="#69A5FF"/>
</svg>
