<svg width="46" height="45" viewBox="0 0 46 45" fill="none" xmlns="http://www.w3.org/2000/svg">
<g clip-path="url(#clip0)">
<path d="M5.16699 42H38.167C40.2372 41.9974 41.9144 40.3202 41.917 38.25V11.25C41.9144 9.17981 40.2372 7.50256 38.167 7.5H37.417V9H38.167C39.4095 9 40.417 10.0074 40.417 11.25V38.25C40.417 39.4926 39.4095 40.5 38.167 40.5H5.16699C3.92444 40.5 2.91699 39.4926 2.91699 38.25V11.25C2.91699 10.0074 3.92444 9 5.16699 9H26.917V7.5H5.16699C3.0968 7.50256 1.41956 9.17981 1.41699 11.25V38.25C1.41956 40.3202 3.0968 41.9974 5.16699 42Z" fill="#69A5FF"/>
<path d="M4.41699 10.5H5.91699V12H4.41699V10.5Z" fill="#69A5FF"/>
<path d="M7.41699 10.5H8.91699V12H7.41699V10.5Z" fill="#69A5FF"/>
<path d="M10.417 10.5H11.917V12H10.417V10.5Z" fill="#69A5FF"/>
<path d="M37.417 13.5H38.917V15H37.417V13.5Z" fill="#69A5FF"/>
<path d="M4.41699 13.5H26.917V15H4.41699V13.5Z" fill="#69A5FF"/>
<path d="M5.16699 17.25C4.75281 17.25 4.41699 17.5858 4.41699 18V27C4.41699 27.4142 4.75281 27.75 5.16699 27.75H15.667C16.0812 27.75 16.417 27.4142 16.417 27V18C16.417 17.5858 16.0812 17.25 15.667 17.25H5.16699ZM14.917 26.25H5.91699V18.75H14.917V26.25Z" fill="#69A5FF"/>
<path d="M18.667 17.25H23.917V18.75H18.667V17.25Z" fill="#69A5FF"/>
<path d="M25.417 17.25H26.917V18.75H25.417V17.25Z" fill="#69A5FF"/>
<path d="M18.667 21H21.667V22.5H18.667V21Z" fill="#69A5FF"/>
<path d="M23.167 21H26.917V22.5H23.167V21Z" fill="#69A5FF"/>
<path d="M18.667 24.75H26.917V26.25H18.667V24.75Z" fill="#69A5FF"/>
<path d="M18.667 28.5H26.917V30H18.667V28.5Z" fill="#69A5FF"/>
<path d="M18.667 36H28.417V37.5H18.667V36Z" fill="#69A5FF"/>
<path d="M18.667 32.25H23.167V33.75H18.667V32.25Z" fill="#69A5FF"/>
<path d="M24.667 32.25H26.917V33.75H24.667V32.25Z" fill="#69A5FF"/>
<path d="M37.417 17.25H38.917V18.75H37.417V17.25Z" fill="#69A5FF"/>
<path d="M37.417 21H38.917V22.5H37.417V21Z" fill="#69A5FF"/>
<path d="M37.417 24.75H38.917V26.25H37.417V24.75Z" fill="#69A5FF"/>
<path d="M37.417 28.5H38.917V30H37.417V28.5Z" fill="#69A5FF"/>
<path d="M37.417 32.25H38.917V33.75H37.417V32.25Z" fill="#69A5FF"/>
<path d="M5.91699 43.5V45H38.917C42.229 44.9963 44.9133 42.312 44.917 39V12H43.417V39C43.4144 41.4844 41.4014 43.4974 38.917 43.5H5.91699Z" fill="#69A5FF"/>
<path d="M32.167 0C30.0968 0.00256348 28.4196 1.67981 28.417 3.75V33C28.4166 33.1315 28.4507 33.2607 28.5159 33.375L31.5159 38.625C31.6495 38.8586 31.8978 39.0026 32.167 39.0026C32.4362 39.0026 32.6845 38.8586 32.8181 38.625L35.8181 33.375C35.8833 33.2607 35.9174 33.1315 35.917 33V3.75C35.9144 1.67981 34.2372 0.00256348 32.167 0ZM32.167 1.5C33.4095 1.5 34.417 2.50745 34.417 3.75V4.5H29.917V3.75C29.917 2.50745 30.9244 1.5 32.167 1.5ZM32.917 32.25V9H34.417V32.25H32.917ZM29.917 32.25V9H31.417V32.25H29.917ZM29.917 7.5V6H34.417V7.5H29.917ZM32.167 36.7379L30.4594 33.75H33.8746L32.167 36.7379Z" fill="#69A5FF"/>
</g>
<defs>
<clipPath id="clip0">
<rect width="45" height="45" fill="white" transform="translate(0.666992)"/>
</clipPath>
</defs>
</svg>
