<svg width="46" height="46" viewBox="0 0 46 46" fill="none" xmlns="http://www.w3.org/2000/svg">
<g clip-path="url(#clip0)">
<path d="M42.042 0.0766602H4.54199C2.47199 0.0790977 0.79443 1.75666 0.791992 3.82666V33.0767C0.79443 35.1467 2.47199 36.8242 4.54199 36.8267H17.892L16.6642 43.5767H14.292V45.0767H32.292V43.5767H29.9182L28.692 36.8267H42.042C44.112 36.8242 45.7896 35.1467 45.792 33.0767V3.82666C45.7896 1.75666 44.112 0.0790977 42.042 0.0766602ZM18.192 43.5767L19.419 36.8267H27.1665L28.392 43.5767H18.192ZM44.292 33.0767C44.292 34.3193 43.2846 35.3267 42.042 35.3267H4.54199C3.29934 35.3267 2.29199 34.3193 2.29199 33.0767V31.5767H44.292V33.0767ZM44.292 30.0767H2.29199V3.82666C2.29199 2.584 3.29934 1.57666 4.54199 1.57666H42.042C43.2846 1.57666 44.292 2.584 44.292 3.82666V30.0767Z" fill="#69A5FF"/>
<path d="M21.042 3.82666C20.6278 3.82666 20.292 4.16247 20.292 4.57666V7.34641C20.2005 7.37866 20.1105 7.41241 20.0212 7.44691C19.8157 7.52641 19.6132 7.61341 19.416 7.70791L17.4585 5.75041C17.1656 5.45763 16.6909 5.45763 16.398 5.75041L13.2157 8.93266C12.923 9.22553 12.923 9.70029 13.2157 9.99316L15.1732 11.9507C15.0374 12.2361 14.9167 12.5285 14.8117 12.8267H12.042C11.6278 12.8267 11.292 13.1625 11.292 13.5767V17.3267H12.792V14.3267H15.3607C15.6961 14.3267 15.9906 14.104 16.0822 13.7814C16.2398 13.2212 16.4624 12.6813 16.7452 12.1727C16.9086 11.8799 16.8577 11.5143 16.6207 11.2772L14.8065 9.46291L16.9282 7.34116L18.7425 9.15541C18.9803 9.39457 19.3487 9.44547 19.6425 9.27991C19.9401 9.1136 20.2488 8.96829 20.5665 8.84491C20.79 8.75838 21.018 8.68338 21.2505 8.61991C21.5727 8.52663 21.7938 8.23085 21.792 7.89541V5.32666H24.792V3.82666H21.042Z" fill="#69A5FF"/>
<path d="M33.792 14.3267V17.3267H31.2232C30.8879 17.3267 30.5933 17.5493 30.5017 17.8719C30.3441 18.4322 30.1216 18.9721 29.8387 19.4807C29.6754 19.7734 29.7262 20.1391 29.9632 20.3762L31.7775 22.1904L29.6557 24.3122L27.8415 22.5017C27.6044 22.2647 27.2388 22.2138 26.946 22.3772C26.4374 22.66 25.8975 22.8826 25.3372 23.0402C25.0146 23.1318 24.792 23.4263 24.792 23.7617V26.3267H21.792V27.8267H25.542C25.9562 27.8267 26.292 27.4908 26.292 27.0767V24.3069C26.5901 24.2019 26.8825 24.0813 27.168 23.9454L29.1255 25.9029C29.4184 26.1957 29.8931 26.1957 30.186 25.9029L33.3682 22.7207C33.661 22.4278 33.661 21.953 33.3682 21.6602L31.4107 19.7027C31.5466 19.4172 31.6672 19.1248 31.7722 18.8267H34.542C34.9562 18.8267 35.292 18.4908 35.292 18.0767V14.3267H33.792Z" fill="#69A5FF"/>
<path d="M34.8247 6.91816C34.6539 6.54082 34.2096 6.37329 33.8322 6.5441C33.7499 6.58132 33.6751 6.63307 33.6112 6.69691L31.542 8.76616L30.3525 7.57666L32.4217 5.50741C32.714 5.21379 32.7127 4.73894 32.4191 4.44672C32.3548 4.38279 32.2794 4.33094 32.1967 4.29391C31.5202 3.98594 30.7854 3.82666 30.042 3.82666C27.1439 3.82994 24.7953 6.17857 24.792 9.07666C24.7926 9.38604 24.821 9.69485 24.8767 9.99916L24.2055 10.6704C23.9044 10.612 23.5986 10.5806 23.292 10.5767C20.3939 10.5799 18.0453 12.9286 18.042 15.8267C18.0459 16.1333 18.0773 16.439 18.1357 16.7402L17.4645 17.4114C14.6046 16.9065 11.877 18.8155 11.3721 21.6753C11.3196 21.9729 11.2927 22.2745 11.292 22.5768C11.2914 23.3214 11.4508 24.0575 11.7592 24.7353C11.9286 25.1133 12.3723 25.2825 12.7503 25.1131C12.8331 25.0759 12.9084 25.0242 12.9727 24.9603L15.042 22.8872L16.2315 24.0767L14.1622 26.1459C13.8695 26.4389 13.8696 26.9137 14.1625 27.2066C14.2264 27.2704 14.3013 27.3222 14.3835 27.3594C15.0612 27.6678 15.7973 27.8272 16.542 27.8267C19.4401 27.8234 21.7887 25.4748 21.792 22.5767C21.7914 22.2673 21.763 21.9585 21.7072 21.6542L22.3785 20.9829C22.6796 21.0413 22.9853 21.0727 23.292 21.0767C26.1901 21.0734 28.5387 18.7248 28.542 15.8267C28.5381 15.52 28.5066 15.2143 28.4482 14.9132L29.1232 14.2419C31.9809 14.7468 34.7069 12.8395 35.2118 9.98182C35.2646 9.68294 35.2914 9.38013 35.292 9.07666C35.2926 8.332 35.1332 7.59588 34.8247 6.91816ZM22.7617 12.1142L19.5795 15.2964C19.8177 13.6476 21.113 12.3524 22.7617 12.1142ZM23.8222 19.5392L27.0045 16.3569C26.7663 18.0057 25.471 19.3009 23.8222 19.5392ZM30.0569 12.8251C29.7248 12.8256 29.3943 12.782 29.0737 12.6954C28.8154 12.6267 28.5399 12.7007 28.3507 12.8897L27.105 14.1354L21.6007 19.6397L20.355 20.8892C20.166 21.0783 20.092 21.3538 20.1607 21.6122C20.7009 23.6038 19.5242 25.6563 17.5326 26.1964C17.2097 26.284 16.8766 26.3278 16.542 26.3267C16.4029 26.3268 16.2639 26.3191 16.1257 26.3034L17.8222 24.6069C18.115 24.314 18.115 23.8393 17.8222 23.5464L15.5722 21.2964C15.2794 21.0036 14.8046 21.0036 14.5117 21.2964L12.8152 22.9929C12.7996 22.8547 12.7918 22.7158 12.792 22.5767C12.7872 20.511 14.4579 18.8326 16.5236 18.8278C16.8568 18.827 17.1887 18.8708 17.5102 18.9579C17.7686 19.0266 18.0441 18.9527 18.2332 18.7637L19.479 17.5179L24.9832 12.0137L26.229 10.7679C26.418 10.5787 26.492 10.3033 26.4232 10.0449C25.881 8.05385 27.0556 6.00016 29.0466 5.45791C29.371 5.3696 29.7058 5.32544 30.042 5.32666C30.1811 5.32647 30.3201 5.33425 30.4582 5.34991L28.7617 7.04641C28.469 7.33929 28.469 7.81403 28.7617 8.10691L31.0117 10.3569C31.3046 10.6497 31.7794 10.6497 32.0722 10.3569L33.7687 8.66041C33.7844 8.7986 33.7922 8.93754 33.792 9.07666C33.7956 11.1432 32.1234 12.8214 30.0569 12.8251Z" fill="#69A5FF"/>
<path d="M11.0719 5.54653C10.9313 5.40591 10.7406 5.32678 10.5417 5.32678H8.15366C7.73947 4.15519 6.45388 3.54122 5.28238 3.9555C4.11088 4.36978 3.49682 5.65519 3.91101 6.82678C4.32519 7.99838 5.61079 8.61235 6.78229 8.19806C7.42307 7.97156 7.92716 7.46756 8.15366 6.82678H10.2312L11.5114 8.10703L12.5719 7.04653L11.0719 5.54653ZM6.04166 6.82678C5.62747 6.82678 5.29166 6.49097 5.29166 6.07678C5.29166 5.66259 5.62747 5.32678 6.04166 5.32678C6.45585 5.32678 6.79166 5.66259 6.79166 6.07678C6.79166 6.49097 6.45585 6.82678 6.04166 6.82678Z" fill="#69A5FF"/>
<path d="M8.15426 12.8267C7.83757 11.9309 6.99232 11.3306 6.04226 11.3267C4.7996 11.3215 3.78814 12.3247 3.78298 13.5673C3.77782 14.8099 4.78104 15.8214 6.0236 15.8266C6.98051 15.8305 7.83523 15.2288 8.15426 14.3266H9.79226V12.8266H8.15426V12.8267ZM6.04226 14.3267C5.62807 14.3267 5.29226 13.9909 5.29226 13.5767C5.29226 13.1625 5.62807 12.8267 6.04226 12.8267C6.45645 12.8267 6.79226 13.1625 6.79226 13.5767C6.79226 13.9909 6.45645 14.3267 6.04226 14.3267Z" fill="#69A5FF"/>
<path d="M8.29199 18.8267V22.2662L7.00574 23.5517C6.70555 23.4048 6.37612 23.328 6.04199 23.3267C4.79934 23.3267 3.79199 24.334 3.79199 25.5767C3.79199 26.8193 4.79934 27.8267 6.04199 27.8267C7.28465 27.8267 8.29199 26.8193 8.29199 25.5767C8.29068 25.2425 8.2138 24.9131 8.06699 24.6129L9.57299 23.1069C9.71334 22.9662 9.79218 22.7754 9.79199 22.5767V18.8267H8.29199V18.8267ZM6.04199 26.3267C5.6278 26.3267 5.29199 25.9908 5.29199 25.5767C5.29199 25.1625 5.6278 24.8267 6.04199 24.8267C6.45618 24.8267 6.79199 25.1625 6.79199 25.5767C6.79199 25.9908 6.45618 26.3267 6.04199 26.3267Z" fill="#69A5FF"/>
<path d="M42.6635 4.57563C42.3466 3.67601 41.4958 3.07488 40.542 3.07666C39.3022 3.07432 38.2954 4.07745 38.293 5.3172C38.2912 6.27101 38.8924 7.12179 39.792 7.43866V9.07666H36.792V10.5767H40.542C40.9562 10.5767 41.292 10.2409 41.292 9.82666V7.43866C42.4613 7.02682 43.0754 5.74498 42.6635 4.57563ZM40.542 6.07666C40.1278 6.07666 39.792 5.74085 39.792 5.32666C39.792 4.91248 40.1278 4.57666 40.542 4.57666C40.9562 4.57666 41.292 4.91248 41.292 5.32666C41.292 5.74085 40.9562 6.07666 40.542 6.07666Z" fill="#69A5FF"/>
<path d="M42.6623 24.8196C42.343 23.9234 41.4937 23.3254 40.5422 23.3271C39.5921 23.3311 38.7469 23.9313 38.4302 24.8271H36.3527L34.6975 23.1719L33.637 24.2324L35.512 26.1074C35.6526 26.248 35.8433 26.3271 36.0422 26.3271H38.4302C38.8465 27.4957 40.1313 28.1057 41.3 27.6894C42.4686 27.2731 43.0785 25.9882 42.6623 24.8196ZM40.5422 26.3271C40.128 26.3271 39.7922 25.9913 39.7922 25.5771C39.7922 25.1629 40.128 24.8271 40.5422 24.8271C40.9564 24.8271 41.2922 25.1629 41.2922 25.5771C41.2922 25.9913 40.9564 26.3271 40.5422 26.3271Z" fill="#69A5FF"/>
<path d="M42.6637 15.0756C42.3468 14.176 41.496 13.5748 40.5422 13.5767C39.3025 13.5743 38.2956 14.5774 38.2932 15.8172C38.2915 16.771 38.8926 17.6218 39.7922 17.9387V19.2662L38.137 20.9214L39.1975 21.9819L41.0725 20.1069C41.2131 19.9663 41.2922 19.7756 41.2922 19.5767V17.9387C42.4616 17.5268 43.0756 16.245 42.6637 15.0756ZM40.5422 16.5767C40.128 16.5767 39.7922 16.2409 39.7922 15.8267C39.7922 15.4125 40.128 15.0767 40.5422 15.0767C40.9564 15.0767 41.2922 15.4125 41.2922 15.8267C41.2922 16.2409 40.9564 16.5767 40.5422 16.5767Z" fill="#69A5FF"/>
</g>
<defs>
<clipPath id="clip0">
<rect width="45" height="45" fill="white" transform="translate(0.791992 0.0766602)"/>
</clipPath>
</defs>
</svg>
