<svg width="125" height="19" fill="none" xmlns="http://www.w3.org/2000/svg"><path fill-rule="evenodd" clip-rule="evenodd" d="M34.383 9.089c-.656 7.47 8.65 3.663 9.22 3.543.218 1.51.426 3.018.645 4.528-.274.087-15.245 6.31-15.65-7.918 0-.175-.033-.34-.01-.503C30.62-3.018 44.127.482 44.4.504c-.219 1.618-.427 3.237-.646 4.855-.546-.174-8.76-3.357-9.372 3.73zm20.845-3.894L52.8 18.297h-5.326l2.58-13.102h-4.363c.274-1.673.536-3.346.81-5.008h13.56c-.273 1.673-.535 3.346-.809 5.008h-4.024zm8.88 10.477l1.771-3.368 2.09 1.126-.646-7.064s-5.73 10.958-6.277 11.286c-1.181.787-3.664.678-5.654.645L65.387.187h5.665c.864 6.036 1.728 12.073 2.581 18.11h-4.396l-5.13-2.625zM86.122 4.266c-1.454 0-2.788-.044-4.243-.044a459.282 459.282 0 01-.481 2.91h1.771c1.63 0 3.445.393 3.916-1.094.393-1.28-.832-1.74-.963-1.772zm-6.015 9.656h3.828s1.815-.01 2.187-1.465c.449-1.75-1.126-1.76-1.126-1.76H80.49l-.383 3.226zm11.472-.503c-1.4 4.998-5.949 4.812-5.949 4.812s-8.738.066-10.86.055c1.072-5.982 2.155-11.964 3.227-17.957l8.114-.24s4.692.25 5.621 4.177c.678 2.887-1.924 4.659-1.924 4.659s2.537 1.75 1.771 4.494zm28.281 4.823l-4.177-2.734 1.607-3.368 2.089 1.126-.645-6.9s-.317-.099-.317 0c-.011.098-5.95 11.876-5.95 11.876l-9.919.055-3.226-7.12h-.164s-.864 4.747-1.29 7.12h-5.326c0-.055 3.554-18.11 3.554-18.11h5.173l-1.127 5.982h.164s3.872-3.992 5.818-5.982h6.3l-8.607 8.902 3.904 7.754L116.645.416h5.621L125 18.231h-5.14v.011z" fill="#4878FE"/><path fill-rule="evenodd" clip-rule="evenodd" d="M15.343 6.97c-.12.054-4.363-6.792-4.363-6.792 1.673-.218 5.206-.273 6.3.165 0 .054 2.165.962 2.58 1.935.055.11.11.153-.098.383-1.455 1.52-2.964 2.8-4.419 4.309zM29.56 18.08s-4.112.592-6.911-.644c-1.411-.624-3.697-4.495-3.697-4.495L13.878 18.3H1.608L3.532 7.33S1.236 8.38 0 8.928V4.236C.164 4.18 6.08.299 6.135.189h4.2s-2.8 15.497-2.91 16.503h.165L23.895.189h7.59L23.13 8.457l6.43 9.624z" fill="#fff"/></svg>