<svg width="40" height="40" fill="none" xmlns="http://www.w3.org/2000/svg"><path fill-rule="evenodd" clip-rule="evenodd" d="M29.677 22.58H40v1.291H23.755l.28-.847c.27-.82.42-1.676.462-2.544a5.379 5.379 0 01-2.845.81 3.591 3.591 0 01-3.588-3.587 2.29 2.29 0 00-1.022-1.91l-1.251-.834a3.58 3.58 0 01-1.598-2.985c0-.577.147-1.137.411-1.639a9.607 9.607 0 00-3.275.657l.967 1.45a3.61 3.61 0 01.607 2.006v1.036c0 .711.579 1.29 1.29 1.29a2.583 2.583 0 012.581 2.58 2.583 2.583 0 01-2.58 2.582h-3.425c-1.32 0-2.49-.793-2.98-2.02a1.91 1.91 0 00-1.784-1.206 3.25 3.25 0 01-.734-.086c-.065.45-.11.908-.11 1.376a9.61 9.61 0 001.155 4.578 6.125 6.125 0 011.39-.84 6.298 6.298 0 012.493-.512h2.552a4 4 0 013.598 2.224c.277.556.425 1.178.425 1.799v2.227a9.628 9.628 0 001.089-.28l.403 1.225a10.954 10.954 0 01-3.427.547C8.79 30.968 3.87 26.048 3.87 20S8.791 9.032 14.839 9.032 25.806 13.952 25.806 20c0 .875-.102 1.74-.305 2.58h2.886v-4.012l-1.424-.355-.075-.41a12.116 12.116 0 00-1.973-4.773l-.237-.342.753-1.255-2.025-2.025-1.255.753-.342-.238a12.11 12.11 0 00-4.773-1.973l-.41-.075-.356-1.423h-2.864l-.356 1.423-.41.074c-1.73.314-3.336.978-4.772 1.973l-.342.238-1.255-.753-2.025 2.025.753 1.255-.237.343a12.114 12.114 0 00-1.974 4.773l-.074.41-1.424.355v2.864l1.424.356.074.41a12.122 12.122 0 001.974 4.772l.237.343-.753 1.255 2.025 2.024 1.255-.753.342.238a12.112 12.112 0 004.772 1.973l.41.075.356 1.423h2.903l.645-1.935H40v1.29H17.884l-.645 1.936h-1.575l.969 3.87h1.431v-2.58h1.29v2.58h1.291v-3.87h1.29v3.87h1.29v-1.29h1.291v1.29h1.29v-2.58h1.29v2.58h1.291V40H15.625l-1.29-5.161H12.4l-.4-1.6a13.362 13.362 0 01-4.518-1.868l-1.412.846-3.449-3.45.847-1.41a13.366 13.366 0 01-1.869-4.518L0 22.44v-4.878l1.6-.4c.345-1.62.97-3.136 1.868-4.518l-.847-1.41 3.45-3.45 1.411.846a13.361 13.361 0 014.517-1.868l.401-1.6h4.877l.401 1.6c.753.16 1.48.387 2.185.668l2.372-3.558h.99v-1.29h1.291v1.29h1.29V0h1.29v3.871h1.291v-2.58h1.29v2.58h1.29V0h1.291v3.871h1.29v1.29H22.926L21.053 7.97a13 13 0 011.142.66l1.412-.847 3.45 3.45-.847 1.41a13.369 13.369 0 011.868 4.519l1.6.4v5.02zM10.2 24.517c-.687 0-1.354.137-1.985.407a4.88 4.88 0 00-1.202.746c1.76 2.423 4.608 4.008 7.827 4.008.216 0 .43-.01.645-.025V27.25c0-.422-.1-.845-.288-1.223a2.718 2.718 0 00-2.445-1.51H10.2zm1.414-10.068c0-.46-.135-.907-.39-1.29l-1.077-1.615a9.71 9.71 0 00-4.61 5.818c.156.038.313.058.47.058 1.32 0 2.49.793 2.98 2.019a1.91 1.91 0 001.783 1.207h3.425a1.291 1.291 0 000-2.58 2.583 2.583 0 01-2.581-2.581v-1.036zm6.144.27a3.58 3.58 0 011.598 2.985A2.3 2.3 0 0021.652 20c1.047 0 2.03-.389 2.798-1.095-.498-4.397-3.953-7.901-8.323-8.486a2.264 2.264 0 00-.643 1.555c0 .77.382 1.484 1.022 1.91l1.251.835zm4.824 7.863h-4.517v1.29h4.517v-1.29z" fill="#69A5FF"/><path d="M19.355 25.161h1.29v5.162h-1.29V25.16zm3.871 5.162h1.29c.712 0 1.29-.579 1.29-1.29v-2.581a1.29 1.29 0 00-1.29-1.29h-1.29a1.29 1.29 0 00-1.29 1.29v2.58c0 .712.578 1.29 1.29 1.29zm0-3.871h1.29v2.58h-1.29v-2.58zm3.871-1.291h1.29v5.162h-1.29V25.16zm3.871 0c-.712 0-1.29.58-1.29 1.29v2.581c0 .712.578 1.29 1.29 1.29h1.29c.711 0 1.29-.578 1.29-1.29v-2.58c0-.712-.579-1.29-1.29-1.29h-1.29zm0 3.871v-2.58h1.29v2.58h-1.29zm3.871-3.871h1.29v5.162h-1.29V25.16zm2.581 0h1.29v5.162h-1.29V25.16z" fill="#fff"/></svg>