<svg width="40" height="40" fill="none" xmlns="http://www.w3.org/2000/svg"><path d="M37.778 36.19c-1.05 0-1.905.855-1.905 1.905S36.728 40 37.778 40s1.905-.855 1.905-1.905-.855-1.905-1.905-1.905zm0 2.54a.636.636 0 11.001-1.271.636.636 0 01-.001 1.271zM4.127 1.905C4.127.855 3.272 0 2.222 0S.317.855.317 1.905 1.172 3.81 2.222 3.81s1.905-.855 1.905-1.905zm-2.54 0a.636.636 0 011.27 0 .636.636 0 01-1.27 0zm0 3.809h1.27v1.27h-1.27v-1.27zm0 3.175h1.27v1.27h-1.27v-1.27zm0 3.174h1.27v1.27h-1.27v-1.27zm35.556 14.604h1.27v1.27h-1.27v-1.27zm0 3.174h1.27v1.27h-1.27v-1.27zm0 3.175h1.27v1.27h-1.27v-1.27z" fill="#fff"/><path d="M34.426 25.161l-1.254-2.508c.266-.54.494-1.085.681-1.628l2.655-.885v-7.265l-2.655-.885a13.966 13.966 0 00-.68-1.628l1.255-2.51-5.137-5.137-2.51 1.256a13.968 13.968 0 00-1.628-.682L24.267.635h-7.264l-.886 2.654c-.542.187-1.088.416-1.628.682l-2.51-1.256-5.136 5.137 1.255 2.51a13.86 13.86 0 00-.681 1.628l-2.655.885v7.265l2.655.884c.185.54.41 1.08.674 1.615l-.817 1.488H3.492v12.698h4.445V34.92h4.816l1.905 1.905h3.437v.635c0 1.4 1.14 2.54 2.54 2.54 1.4 0 2.54-1.14 2.54-2.54v-.635h4.445c1.05 0 1.904-.855 1.904-1.905 0-.489-.19-.931-.495-1.27a1.89 1.89 0 00.495-1.27c0-.489-.19-.931-.495-1.269a1.89 1.89 0 00.466-.98l4.931-4.97zM9.372 22.358a12.66 12.66 0 01-.847-2.026l-.098-.309-2.395-.799V13.79l2.395-.798.097-.309a12.61 12.61 0 01.847-2.025l.15-.288-1.134-2.267L12.23 4.26l2.268 1.133.287-.149c.672-.35 1.353-.635 2.026-.847l.309-.097.8-2.396h5.433l.799 2.395.309.097c.672.212 1.354.497 2.025.847l.288.15L29.04 4.26l3.842 3.842-1.133 2.267.149.288c.35.672.635 1.353.847 2.025l.097.31 2.396.8v5.433l-2.395.798-.098.309a12.712 12.712 0 01-.847 2.026l-.15.288 1.135 2.268-3.752 3.781a1.903 1.903 0 00-.102-.124 1.89 1.89 0 00.495-1.27c0-.99-.762-1.796-1.73-1.887a11.359 11.359 0 004.27-8.906c0-6.302-5.128-11.429-11.429-11.429S9.206 10.206 9.206 16.508c0 3.466 1.576 6.726 4.251 8.889h-5.43l1.502-2.738-.157-.301zM28.255 32.38c0 .35-.285.635-.635.635h-5.08a.636.636 0 010-1.27h5.08c.35 0 .635.285.635.635zm-9.153-15.873h3.066l1.007-1.007v-2.803c.7 0 1.27.57 1.27 1.27v2.912l-2.168 2.168h-3.284l-2.167-2.168v-2.912c0-.7.569-1.27 1.27-1.27V15.5l1.006 1.007zm.263 3.81h2.54v2.539h-2.54v-2.54zm3.81-.373l2.54-2.54v-3.437c0-1.4-1.14-2.54-2.54-2.54h-1.27v3.547l-.263.263h-2.014l-.263-.263v-3.547h-1.27c-1.4 0-2.54 1.14-2.54 2.54v3.438l2.54 2.54v2.911h-1.532l-.04.04c-2.168-1.399-3.507-3.797-3.507-6.39 0-4.2 3.418-7.618 7.619-7.618s7.62 3.417 7.62 7.619c0 2.573-1.287 4.93-3.438 6.349h-1.642v-2.912zm6.349-3.437c0-4.902-3.987-8.89-8.889-8.89-4.902 0-8.889 3.988-8.889 8.89a8.898 8.898 0 003.852 7.314l-.914.914a10.163 10.163 0 01-4.208-8.228c0-5.601 4.558-10.159 10.159-10.159 5.601 0 10.159 4.558 10.159 10.159a10.1 10.1 0 01-3.84 7.952 1.89 1.89 0 00-.633-1.13 8.83 8.83 0 003.203-6.822zm-1.904 10.16a.636.636 0 010 1.27h-5.08a.636.636 0 010-1.27h5.08zm-5.08 3.809a.636.636 0 010-1.27h5.08a.636.636 0 010 1.27h-5.08zm-15.873 5.08H4.762v-10.16h1.905v10.16zm8.517 0l-1.905-1.905H7.937v-6.985h6.612l2.54-2.54h7.99a.636.636 0 010 1.27h-6.612l-2.725 2.726.898.898 1.455-1.456v7.991h-2.911zm5.451 3.174c-.7 0-1.27-.57-1.27-1.27V26.666h1.387c-.071.2-.117.412-.117.635 0 .49.191.932.495 1.27a1.89 1.89 0 00-.495 1.27c0 .49.191.932.495 1.27a1.89 1.89 0 00-.495 1.27c0 .49.191.932.495 1.27a1.89 1.89 0 00-.495 1.27c0 .826.533 1.525 1.27 1.787v.752c0 .7-.57 1.27-1.27 1.27zm6.985-3.175h-5.08a.636.636 0 010-1.27h5.08a.636.636 0 010 1.27z" fill="#69A5FF"/></svg>