<svg width="178" height="44" fill="none" xmlns="http://www.w3.org/2000/svg"><path d="M19.96 37.012c8.38 0 15.174-6.848 15.174-15.297 0-8.448-6.793-15.297-15.173-15.297-8.38 0-15.173 6.85-15.173 15.297 0 8.449 6.793 15.297 15.173 15.297z" fill="#69A5FF"/><path d="M29.596 4.184H12.667c-.783 0-1.565-.02-2.341 0h-.033a.651.651 0 00-.553.318l-.967 1.691c-.776 1.353-1.552 2.705-2.321 4.058-.934 1.631-1.868 3.262-2.802 4.9-.803 1.4-1.605 2.798-2.407 4.204-.382.67-.796 1.326-1.151 2.009-.198.371-.04.623.131.928.197.345.395.69.592 1.041.73 1.273 1.46 2.553 2.19 3.826.928 1.625 1.862 3.25 2.789 4.874.835 1.458 1.67 2.924 2.512 4.383l1.375 2.4c.02.04.046.073.066.113a.637.637 0 00.552.318h16.962c.783 0 1.566.02 2.342 0h.033c.223 0 .44-.126.552-.318l.967-1.691c.776-1.353 1.552-2.706 2.322-4.058.934-1.631 1.868-3.262 2.802-4.9.802-1.4 1.604-2.798 2.407-4.204.381-.67.796-1.326 1.15-2.01.198-.37.04-.622-.13-.927a161.1 161.1 0 01-.593-1.041c-.73-1.274-1.46-2.553-2.19-3.826-.927-1.625-1.861-3.25-2.788-4.874-.836-1.459-1.671-2.924-2.513-4.383-.46-.802-.914-1.598-1.375-2.4-.02-.04-.046-.073-.065-.113a.663.663 0 00-.513-.318h-.073zm2.75 6.69c.927 1.625 1.854 3.243 2.788 4.867.81 1.406 1.611 2.812 2.42 4.224.336.583.652 1.187 1 1.764-.256.444-.513.895-.77 1.34l-2.308 4.037a1847.44 1847.44 0 01-2.788 4.867c-.81 1.406-1.612 2.811-2.42 4.224-.336.583-.698 1.167-1.02 1.757H12.673c-.67 0-1.341-.027-2.012-.013-.257-.451-.513-.902-.77-1.346l-2.308-4.038c-.927-1.625-1.855-3.243-2.789-4.867-.809-1.406-1.611-2.812-2.42-4.224-.336-.584-.651-1.187-1-1.764.257-.444.513-.895.77-1.34l2.308-4.037c.928-1.625 1.855-3.243 2.789-4.867.809-1.406 1.611-2.812 2.42-4.224.336-.583.697-1.167 1.02-1.757h16.574c.67 0 1.342.013 2.012.006.257.451.52.902.777 1.353a589.627 589.627 0 002.302 4.038z" fill="#69A5FF"/><path d="M23.25 28.167c0-.007.006-.013.006-.02 0 .013 0 .013-.006.02zm.046-4.635c-.02-.02-.04-.033-.046-.046.013.033.039.046.046.046zM2.394 25.959h8.648a.295.295 0 00.237.126c.158 0 .29-.133.29-.292a.293.293 0 00-.29-.291.296.296 0 00-.243.132H2.4a.284.284 0 00-.237-.133.293.293 0 00-.289.292c0 .16.132.292.29.292a.292.292 0 00.23-.126zm27.038-.981a.296.296 0 00-.244-.133.293.293 0 00-.29.292c0 .16.133.292.29.292a.278.278 0 00.237-.126h8.642c.053.08.138.126.237.126.158 0 .29-.133.29-.292a.293.293 0 00-.29-.292.275.275 0 00-.237.133h-8.635zm-7.965 15.575l-.007.007a.223.223 0 00-.026.06.188.188 0 00-.026.086v.968a.299.299 0 00-.125.238c0 .16.131.292.29.292a.293.293 0 00.157-.537v-.922c.053-.053.105-.112.164-.172.06-.066.119-.126.185-.192.059-.06.118-.126.177-.193l.033-.033c.013 0 .026.007.04.007a.294.294 0 00.289-.292.293.293 0 00-.29-.292.293.293 0 00-.289.292.24.24 0 00.013.073l-.013.013c-.06.067-.118.14-.178.2-.059.059-.125.125-.184.191-.059.06-.111.133-.17.186-.027.014-.034.014-.04.02zm.526-37.37a4.881 4.881 0 00-.184-.193 2.024 2.024 0 00-.165-.172v-.922a.293.293 0 00-.158-.537.293.293 0 00-.289.292c0 .1.046.186.125.239v.968c0 .033.007.06.027.086.006.02.013.04.026.06l.006.006.014.013c.059.06.118.126.17.186.06.066.119.126.185.192.066.067.118.133.177.2l.013.013c-.006.026-.013.046-.013.073 0 .159.132.291.29.291.158 0 .29-.132.29-.292a.293.293 0 00-.29-.291c-.013 0-.027 0-.04.006-.013-.013-.02-.026-.033-.033a.932.932 0 00-.151-.185z" fill="#fff"/><path d="M20.073.298c0 .106.059.2.144.252v.246h-.013V5.92c0 .02.007.04.013.053a.16.16 0 00.04.1c.013.013.026.033.04.046.012.013.032.027.045.04l.046.046.013.014.014.013.04.04.098.1c.052.045.105.099.151.145l.151.152.033.034c.046.04.086.08.132.119a.72.72 0 00.125.106c.013.013.026.027.046.04a36.83 36.83 0 01.092.093v4.436h-.757V8.123a.299.299 0 00.125-.24.293.293 0 00-.289-.29.293.293 0 00-.158.536v3.335h-.631V3.753a.301.301 0 00.092-.212.293.293 0 00-.29-.292.293.293 0 00-.289.292c0 .113.066.212.165.258v7.659h-1.06V3.362a.293.293 0 00-.217-.484.293.293 0 00-.289.291c0 .12.08.226.184.272v8.017h-.684c0-1.015.007-2.03.007-3.037a.236.236 0 00.066-.046.294.294 0 000-.412.288.288 0 00-.408 0 .294.294 0 000 .412l.02.02c0 1.02-.007 2.048-.007 3.07h-.151l-2.223-2.242c-.467-.47-.934-.935-1.395-1.405 0-.02.007-.034.007-.053a.293.293 0 00-.29-.292.293.293 0 00-.289.292c0 .159.132.291.29.291.02 0 .039 0 .059-.006l3.387 3.414h-.96c-.152 0-.31.06-.428.153l-1.447-1.459a.293.293 0 00-.29-.292.293.293 0 00-.289.292c0 .16.132.292.29.292a.24.24 0 00.098-.02l1.428 1.439a.606.606 0 00-.073.325v.57h-.855a.287.287 0 00-.243-.132.293.293 0 00-.29.291c0 .16.132.292.29.292a.295.295 0 00.237-.126h.855v1.001h-2.585c-1.033-1.034-2.059-2.075-3.091-3.11v-.013a.293.293 0 00-.29-.292.293.293 0 00-.289.292c0 .16.132.292.29.292a.208.208 0 00.091-.02l3.138 3.163c.059.06.151.06.217.006h2.532v.617H6.129a.286.286 0 00-.223-.113.293.293 0 00-.29.292c0 .16.132.292.29.292.105 0 .197-.06.25-.146h8.438v.756h-1.006a.297.297 0 00-.257-.16.293.293 0 00-.29.292c0 .16.132.292.29.292a.29.29 0 00.217-.1h1.046v.856H9.707a.302.302 0 00-.243-.14.293.293 0 00-.29.293c0 .159.132.291.29.291a.286.286 0 00.23-.119h4.9v.981h-8.07a.295.295 0 00-.237-.125.293.293 0 00-.29.291c0 .16.132.292.29.292.099 0 .19-.053.243-.133h8.064v1.061h-1.75a.287.287 0 00-.243-.139.293.293 0 00-.29.292c0 .159.132.291.29.291a.286.286 0 00.23-.119h1.763v1.12H4.307a.295.295 0 00-.236-.125.293.293 0 00-.29.292c0 .159.132.291.29.291.098 0 .19-.053.243-.132h10.28v.855H9.628a.278.278 0 00-.237-.126.293.293 0 00-.289.292c0 .159.132.291.29.291.098 0 .19-.052.243-.132h4.959v.69H9.78a.307.307 0 00-.046-.04c-.408-.312-.81-.624-1.217-.935-.02-.02-.053-.02-.086-.02a.189.189 0 00-.059-.013H5.281a.286.286 0 00-.224-.113.293.293 0 00-.29.292c0 .159.132.291.29.291.105 0 .198-.06.25-.145h3.065c.401.311.802.616 1.204.928a.05.05 0 00.032.013c.027.04.08.066.132.066h4.854v.683h-.421a.29.29 0 00-.546.14c0 .159.132.291.29.291.085 0 .164-.04.216-.106h.454v.69h-.822c-.006-.007-.006-.013-.013-.013-.263-.272-.526-.538-.783-.81l-.006-.006-.04-.04a.168.168 0 00-.197-.026.149.149 0 00-.105-.04H7.47a.28.28 0 00-.224-.106.293.293 0 00-.289.292c0 .159.132.291.29.291a.28.28 0 00.25-.152h5.116c.033 0 .06-.007.08-.027.012.013.019.02.025.033.264.272.527.538.783.81a.142.142 0 00.053.032.151.151 0 00.131.073h.908v.942h-3.946a.286.286 0 00-.224-.113.293.293 0 00-.29.292c0 .16.132.292.29.292.105 0 .197-.06.25-.146h3.92v.69H9.878c-.013-.014-.026-.02-.04-.034-.433-.338-.874-.676-1.308-1.014a.129.129 0 00-.099-.02.157.157 0 00-.092-.033H6.537a.295.295 0 00-.25-.146.293.293 0 00-.29.292c0 .159.132.291.29.291a.286.286 0 00.224-.112h1.842c.006 0 .006.006.012.013.435.338.869.67 1.31 1.008a.16.16 0 00.137.08h4.782v.775H8.602a.277.277 0 00-.217-.106.293.293 0 00-.29.292c0 .159.132.292.29.292a.293.293 0 00.25-.153h5.966c0 .358-.007.716-.007 1.074l-1.94.02h-.145a.364.364 0 00-.04-.053.283.283 0 00-.407.007.288.288 0 00.006.41.288.288 0 00.408 0 .114.114 0 00.026-.032h.092c.665-.007 1.336-.014 2.007-.027 0 .16 0 .325.006.484v.033a.66.66 0 00.099.352c-.737.749-1.473 1.492-2.21 2.241l-2.447 2.486c-.02 0-.033-.006-.052-.006a.293.293 0 00-.29.292c0 .159.132.291.29.291a.293.293 0 00.289-.291c0-.02 0-.04-.007-.06 1.428-1.446 2.855-2.898 4.276-4.343.124-.126.243-.252.368-.372.112.08.25.126.401.126h.06c0 .644 0 1.287.006 1.937a.09.09 0 00-.027.02l-2.907 2.93a.296.296 0 00-.289.073.294.294 0 000 .411.288.288 0 00.408 0 .29.29 0 00.079-.225l2.933-2.95c.02-.02.026-.04.04-.06a.155.155 0 00.085-.14c0-.663 0-1.32-.007-1.982h1.204c0 1.087.007 2.168.007 3.255a.294.294 0 00-.02.431.288.288 0 00.408 0 .294.294 0 000-.41c-.02-.02-.046-.034-.066-.047 0-1.074-.007-2.148-.007-3.223h.679v8.202a.297.297 0 00-.184.272c0 .16.131.292.289.292a.293.293 0 00.217-.484v-8.282h1.059v7.845a.286.286 0 00-.165.258c0 .16.132.292.29.292.158 0 .29-.133.29-.292 0-.08-.034-.16-.093-.212V31.98h.632v3.52a.293.293 0 00.158.537.293.293 0 00.289-.291c0-.1-.046-.186-.125-.239V31.98h.756v4.62l-.033.034-.059.06c-.013.012-.033.026-.046.039-.02.013-.04.026-.053.04-.026.02-.046.04-.072.066-.046.04-.085.08-.131.12l-.033.032a1.65 1.65 0 00-.151.153c-.053.053-.1.1-.152.146l-.098.1-.04.04-.013.012c-.007 0-.007.007-.013.014l-.046.046c-.013.013-.033.02-.046.04a.262.262 0 00-.079.146c-.007.02-.013.033-.013.053v5.119a.293.293 0 00.158.537.294.294 0 00.289-.292.29.29 0 00-.112-.225v-5.12l.033-.033.02-.02a.052.052 0 00.026-.026l.06-.06.104-.106c.046-.046.1-.093.145-.139l.138-.14.013-.012c.014-.007.02-.02.033-.027.014-.013.026-.02.033-.033.04-.033.072-.066.112-.1.013-.013.026-.02.046-.033a.332.332 0 00.053-.046l-.014.013c.033-.026.06-.06.093-.086.013-.013.026-.027.046-.04a.102.102 0 01.026-.02c.02-.013.033-.033.053-.053.006-.006.013-.013.02-.013.032-.033.039-.086.032-.133V32c.46-.007.92-.053 1.375-.146-.046.046-.092.1-.145.152-.066.067-.138.126-.204.193-.052.06-.112.119-.164.172a.202.202 0 00-.053.053l-.007.007a.147.147 0 00-.039.1c0 .026.007.052.02.079v6.14c0 .033.013.073.033.1v.025c0 .033.013.08.033.1.315.31.63.629.947.94v1.725a.287.287 0 00-.191.272c0 .159.131.291.29.291a.293.293 0 00.289-.291.299.299 0 00-.066-.18V39.87a.16.16 0 00-.046-.112c-.007-.014-.013-.034-.026-.04-.316-.312-.632-.63-.947-.942V32.57c.039-.047.078-.086.125-.133l.157-.159a.913.913 0 00.092-.086c.027-.033.06-.06.086-.093.052-.06.105-.113.164-.166l.145-.146c.033-.033.066-.072.099-.106l-.02.02.033-.033c.25-.086.5-.186.736-.305.046-.02.086-.046.132-.066v1.213c-.112.067-.224.14-.329.212l-.158.1c-.04.026-.085.06-.125.086-.059.046-.125.086-.184.133a.952.952 0 01-.085.06c-.027.02-.046.04-.073.052.007 0 .013-.006.013-.006-.032.02-.059.04-.072.073-.006.013-.006.026-.013.04a.188.188 0 00-.026.08v4.143a.305.305 0 00-.152.252c0 .16.132.292.29.292.158 0 .29-.133.29-.292a.318.318 0 00-.106-.225v-4.124a.994.994 0 01.105-.074l.19-.132.12-.08c.052-.033.111-.066.164-.106.052-.04.105-.073.158-.106a7.07 7.07 0 01.23-.14.15.15 0 00.066-.098.135.135 0 00.02-.073v-1.46c.282-.178.538-.39.782-.623a955.64 955.64 0 012.453 2.527c.81.835 1.625 1.67 2.434 2.506-.007.02-.007.033-.007.053 0 .16.125.292.283.299.158 0 .29-.126.296-.286a.298.298 0 00-.283-.298c-.02 0-.04 0-.06.007a2691.11 2691.11 0 00-4.248-4.37c-.217-.219-.427-.438-.645-.663.06-.06.112-.126.171-.192a.114.114 0 00.047.006c.703.007 1.407.014 2.11.027.007.013.014.02.02.033l2.862 2.97a.288.288 0 00.474.298.294.294 0 00.006-.41.29.29 0 00-.224-.086l-2.887-2.997a.156.156 0 00-.06-.04.154.154 0 00-.137-.086l-1.967-.02a3.58 3.58 0 00.237-.358c.138-.22.256-.451.355-.69h4.873a.277.277 0 00.244.146.28.28 0 000-.557.278.278 0 00-.21.1h-4.789c.086-.24.158-.491.217-.743h3.407a.15.15 0 00.132-.08c.414-.325.835-.643 1.25-.961.006 0 .006-.007.013-.007h1.762a.268.268 0 00.217.106.28.28 0 000-.557c-.098 0-.19.06-.236.14H31.99a.155.155 0 00-.092.033.129.129 0 00-.099.02l-1.256.968c-.013.013-.026.02-.033.033h-3.275c.046-.252.079-.504.099-.756H29.8a.295.295 0 00.25.146c.158 0 .29-.133.29-.292a.293.293 0 00-.29-.292.286.286 0 00-.224.113h-2.473c.02-.47 0-.942-.072-1.406.145-.152.296-.305.44-.457.007-.014.08-.007.113-.007h5.116a.302.302 0 00.25.153c.158 0 .29-.133.29-.292a.293.293 0 00-.29-.292.3.3 0 00-.223.106h-5.15c-.026 0-.112.007-.184.02a.22.22 0 00-.119.047l-.039.04-.007.006c-.098.1-.19.199-.289.298a6.135 6.135 0 00-.388-1.173h3.913a.171.171 0 00.132-.067c.013-.006.02-.006.033-.013.4-.311.802-.616 1.203-.928h3.065a.295.295 0 00.25.146c.158 0 .29-.133.29-.292a.293.293 0 00-.29-.292.286.286 0 00-.223.113h-3.085c-.02 0-.04.007-.06.013a.163.163 0 00-.085.02c-.407.312-.809.623-1.217.935-.02.013-.032.026-.046.04H26.65a5.892 5.892 0 00-.447-.69h4.63c.052.08.138.133.243.133.158 0 .29-.133.29-.292a.293.293 0 00-.29-.292.295.295 0 00-.237.126h-4.906a5.124 5.124 0 00-.829-.729c.046-.04.092-.086.132-.133h10.918c.052.08.138.133.243.133.158 0 .29-.133.29-.292a.293.293 0 00-.29-.292.295.295 0 00-.237.126H25.538c.237-.291.447-.61.612-.948.026-.06.053-.113.079-.172h1.94c.053.073.138.12.23.12.158 0 .29-.134.29-.293a.293.293 0 00-.29-.291.279.279 0 00-.243.139H26.36a6.02 6.02 0 00.29-1.061h7.287c.053.08.138.133.243.133.158 0 .29-.133.29-.292a.293.293 0 00-.29-.292.295.295 0 00-.236.126h-7.248c.04-.325.052-.65.052-.981h4.032c.053.073.138.12.23.12.158 0 .29-.134.29-.293a.293.293 0 00-.29-.291.278.278 0 00-.243.139h-4.032a6.355 6.355 0 00-.092-.783h1.46c.053.06.132.1.217.1.158 0 .29-.133.29-.292a.293.293 0 00-.29-.292.296.296 0 00-.256.16h-1.487a6.006 6.006 0 00-.25-.83h7.978a.295.295 0 00.25.147c.158 0 .29-.133.29-.292a.293.293 0 00-.29-.292.286.286 0 00-.223.113h-8.149a3.559 3.559 0 00-.184-.352 3.54 3.54 0 00-.165-.265h2.539a.168.168 0 00.217-.006l3.137-3.163a.21.21 0 00.092.02c.158 0 .29-.133.29-.292a.293.293 0 00-.29-.292.293.293 0 00-.29.292v.013l-3.084 3.11H25.69a.11.11 0 00-.065.02 5.019 5.019 0 00-.29-.345c.698-.696 1.388-1.4 2.085-2.095a.27.27 0 00.099.02c.158 0 .29-.133.29-.292a.293.293 0 00-.29-.292.293.293 0 00-.29.292l-2.117 2.135c-.106-.1-.21-.199-.33-.285V11.12a.134.134 0 00-.019-.073.142.142 0 00-.066-.1c-.079-.046-.151-.093-.23-.139-.053-.033-.105-.073-.158-.106-.052-.04-.112-.066-.164-.106-.04-.027-.08-.053-.118-.08l-.191-.132a1.004 1.004 0 00-.105-.073V6.133a.293.293 0 00-.184-.517.293.293 0 00-.29.292c0 .106.06.205.151.252v4.144c0 .033.007.06.026.08 0 .013.007.026.014.04a.13.13 0 00.072.072c-.007 0-.013-.006-.013-.006a.293.293 0 01.072.053c.027.02.053.04.086.06.059.046.125.086.184.132.04.027.085.06.125.086l.158.1c.105.073.217.146.328.212v1.207c-.111-.08-.23-.146-.348-.213a4.891 4.891 0 00-.658-.298l-.118-.12c-.053-.052-.112-.105-.165-.165-.026-.033-.059-.06-.085-.093-.026-.026-.06-.053-.092-.086l-.158-.16c-.04-.046-.085-.085-.125-.132V4.867c.316-.312.631-.63.947-.942a.12.12 0 00.026-.04.156.156 0 00.047-.112V1.65a.3.3 0 00.065-.179.293.293 0 00-.29-.292.293.293 0 00-.289.292c0 .126.08.232.191.272V3.72c-.316.311-.631.63-.947.941-.026.027-.033.067-.033.1v.026a.164.164 0 00-.033.1v6.153a.179.179 0 00-.02.08c0 .033.014.073.04.1l.007.006c.013.02.032.04.052.053.053.06.112.12.165.172.059.06.125.12.184.18a6.732 6.732 0 00-1.21-.167V6.995c.013-.046 0-.1-.033-.132-.007-.007-.013-.014-.02-.014l-.053-.053a.092.092 0 00-.026-.02.285.285 0 00-.046-.04.9.9 0 01-.092-.085l.013.013c-.013-.013-.033-.027-.052-.047-.014-.013-.027-.02-.047-.033-.039-.033-.072-.066-.111-.1-.014-.012-.027-.02-.033-.032a.112.112 0 00-.033-.027l-.013-.013-.138-.14c-.046-.046-.092-.092-.145-.139l-.105-.106-.06-.06c-.006-.006-.013-.02-.026-.026l-.02-.02c-.013-.013-.032-.026-.046-.04v-.119c.007 0 .007.007.014.007V.517a.29.29 0 00.111-.225.293.293 0 00-.289-.292.304.304 0 00-.29.298zM21.75 14.76l.105.02a3.846 3.846 0 01.454.132c.013.007.033.007.046.014.006 0 .013.006.02.006.138.073.276.146.407.239a.836.836 0 01.08.06c.052.046.098.092.15.139.047.046.093.1.139.152.02.027.046.053.065.08 0 .007.007.007.007.013.079.12.158.239.217.372l.033.053c0 .006.007.02.013.033.033.08.06.165.086.252.04.139.065.285.098.424v.007c0 .04.007.073.013.112.007.1.014.2.014.299 0 .172 0 .338-.02.51v.06c0 .007-.007.013-.007.027-.013.092-.033.179-.052.271-.033.14-.08.272-.125.412-.02.033-.033.072-.053.106-.04.072-.079.152-.125.218-.02.027-.112.133-.112.166-.013.02-.033.04-.046.053-.098.113-.21.219-.322.319a.52.52 0 01-.079.053c-.066.04-.125.08-.19.119l-.159.08c-.032.006-.118.046-.138.053a3.418 3.418 0 01-.434.112l-.105.02-.256.02c-.185.007-.375.007-.56.007h-2.163l.006-1.048a.36.36 0 00-.204-.656.36.36 0 00-.197.663l-.007 1.034h-.677v-5.039h3.591c.145 0 .296 0 .44.02-.019 0-.012 0 .047.013zm-.053-.013c.013 0 .02.006.033.006-.013 0-.026 0-.033-.006zm1.796 1.306zm-.277 2.851c-.006.007-.013.013-.013.02.02-.027.099-.113.013-.02zm-.822.657c-.006 0-.006.006-.013.006a.776.776 0 01.013-.006zm-3.499 5.437a.36.36 0 00-.157-.299l.006-1.75h2.716c.184 0 .362.013.54.033h.013l.105.02.263.06c.086.02.171.046.25.08.033.012.06.026.092.032.145.073.283.146.421.232.033.02.066.047.099.073.046.033.052.047.04.047.045.04.111.08.13.1.093.085.211.191.29.304.007.013.02.04.033.053.026.033.046.073.072.106l.119.2c.04.065.072.138.105.205.013.02.02.033.02.046l.02.08c.052.159.098.325.131.497.007.046.013.093.026.14.007.02.014.039.014.046.013.073.006.159.006.218.013.193.013.385 0 .577l-.02.265c0 .02-.006.04-.006.047l-.02.1a3.484 3.484 0 01-.19.656c-.007.013-.014.02-.02.033a3.557 3.557 0 01-.145.272c-.046.073-.092.146-.138.212a.183.183 0 01-.027.033.397.397 0 00-.052.06c-.06.073-.125.14-.198.205-.032.034-.157.106-.197.166.026-.033.072-.04.013.007-.006.006-.013.013-.02.013-.032.027-.065.046-.105.073-.079.053-.157.1-.236.146-.04.02-.073.04-.112.06-.007.006-.02.006-.026.013-.073.006-.172.066-.237.086-.171.053-.395.14-.573.133.02 0 .165-.02.027-.007-.06.007-.112.013-.171.013-.119.007-.237.014-.355.014h-3.808v-5.749h.69l.02 1.75a.36.36 0 00.19.663.366.366 0 00.362-.364zm5.163-.471c-.006-.02-.02-.053-.026-.053.007.013.013.033.026.053zm-.315 3.156c0 .007-.007.007-.007.013 0-.006 0-.013.007-.013z" fill="#fff"/><path d="M2.394 16.404h8.648a.295.295 0 00.237.126c.158 0 .29-.133.29-.292a.293.293 0 00-.29-.291.296.296 0 00-.243.132H2.4a.284.284 0 00-.237-.133.293.293 0 00-.289.292c0 .16.132.292.29.292a.292.292 0 00.23-.126zm37.055 2.904h-8.636a.284.284 0 00-.236-.132.293.293 0 00-.29.292c0 .159.132.291.29.291a.295.295 0 00.236-.126h8.643a.295.295 0 00.236.126c.158 0 .29-.132.29-.291a.293.293 0 00-.29-.292.295.295 0 00-.243.132zM22.085 16.49a.3.3 0 00.132.246v.921c-.053.053-.105.113-.164.173-.06.066-.119.126-.185.192a5.59 5.59 0 00-.177.192l-.033.034c-.013 0-.026-.007-.04-.007a.293.293 0 00-.289.292c0 .159.132.291.29.291a.293.293 0 00.289-.291.239.239 0 00-.013-.073l.013-.014c.06-.066.118-.139.177-.199.06-.06.125-.125.185-.192.059-.06.111-.132.17-.185l.014-.014.006-.006c.014-.02.02-.04.027-.06a.189.189 0 00.026-.086v-.968a.299.299 0 00.125-.239.293.293 0 00-.29-.292c-.131-.006-.263.126-.263.286zm.737 9.661v.2a.293.293 0 00.158.537c.158 0 .29-.133.29-.292 0-.1-.047-.186-.126-.24v-.966a.134.134 0 00-.026-.086.23.23 0 00-.026-.06l-.007-.007-.013-.013a4.375 4.375 0 01-.171-.186c-.06-.066-.118-.126-.184-.192s-.119-.133-.178-.199l-.013-.013c.007-.027.013-.046.013-.073a.293.293 0 00-.29-.292.293.293 0 00-.289.292c0 .16.132.292.29.292.013 0 .026 0 .04-.007.012.013.019.027.032.033a5.1 5.1 0 00.178.193c.059.066.118.125.184.192.052.06.105.12.164.172v.716h-.026z" fill="#fff"/><path d="M57.017 16.611c3.677 0 5.959-2.418 5.959-6.293V10.3c0-3.868-2.29-6.286-5.959-6.286-3.644 0-5.95 2.418-5.95 6.286v.017c0 3.875 2.29 6.293 5.95 6.293zm0-2.561c-1.721 0-2.825-1.424-2.825-3.732V10.3c0-2.309 1.112-3.724 2.825-3.724 1.73 0 2.842 1.424 2.842 3.724v.017c0 2.283-1.087 3.732-2.842 3.732zm8.14 2.342h3.058V9.298h.059l4.847 7.094h2.574V4.234h-3.059v7.019h-.058l-4.823-7.019h-2.599v12.158zm13.053 0h8.056v-2.485h-4.99V4.234H78.21v12.158zm10.145 0h3.067V4.234h-3.067v12.158zm5.581 0h3.06V9.298h.058l4.847 7.094h2.574V4.234h-3.059v7.019h-.059l-4.822-7.019h-2.599v12.158zm13.053 0h8.266v-2.485h-5.199v-2.46h4.889V9.12h-4.889v-2.4h5.199V4.234h-8.266v12.158zM51.401 38.824h5.758c2.583 0 4.212-1.365 4.212-3.48v-.017c0-1.592-1.295-2.797-2.941-2.881v-.06c1.37-.176 2.415-1.272 2.415-2.645v-.017c0-1.896-1.446-3.058-3.836-3.058h-5.608v12.158zm4.797-9.976c1.037 0 1.655.506 1.655 1.348v.017c0 .91-.652 1.449-1.88 1.449h-1.505v-2.814h1.73zm0 4.76c1.346 0 2.056.531 2.056 1.5v.017c0 .986-.71 1.516-1.964 1.516h-1.822v-3.033h1.73zm12.77 5.434c3.676 0 5.958-2.418 5.958-6.293v-.017c0-3.867-2.29-6.285-5.959-6.285-3.643 0-5.95 2.418-5.95 6.285v.017c0 3.875 2.29 6.293 5.95 6.293zm0-2.56c-1.722 0-2.825-1.425-2.825-3.733v-.017c0-2.308 1.111-3.724 2.824-3.724 1.73 0 2.842 1.424 2.842 3.724v.017c0 2.283-1.087 3.732-2.842 3.732zm13.754 2.56c3.677 0 5.959-2.418 5.959-6.293v-.017c0-3.867-2.29-6.285-5.959-6.285-3.643 0-5.95 2.418-5.95 6.285v.017c0 3.875 2.29 6.293 5.95 6.293zm0-2.56c-1.721 0-2.824-1.425-2.824-3.733v-.017c0-2.308 1.111-3.724 2.825-3.724 1.73 0 2.84 1.424 2.84 3.724v.017c0 2.283-1.086 3.732-2.84 3.732zm8.14 2.342h3.066v-3.438l1.037-1.357 3.009 4.794h3.602l-4.37-6.782 4.127-5.375h-3.284l-4.062 5.35h-.059v-5.35h-3.067v12.158zm12.334 0h2.699v-7.6h.067l2.95 7.6h1.755l2.95-7.6h.068v7.6h2.699V26.666h-3.544l-3.025 7.945h-.051l-3.025-7.945h-3.543v12.158zm15.025 0h3.218l.752-2.671h3.937l.752 2.67h3.217l-4.062-12.157h-3.752l-4.062 12.158zm5.909-9.513h.058l1.305 4.617h-2.667l1.304-4.617zm7.813 9.513h3.067v-3.438l1.037-1.357 3.008 4.794h3.602l-4.371-6.782 4.129-5.375h-3.285l-4.061 5.35h-.059v-5.35h-3.067v12.158zm12.335 0h8.265v-2.486h-5.198v-2.46h4.889v-2.326h-4.889v-2.4h5.198v-2.486h-8.265v12.158zm10.68 0h3.067v-4.188h1.562l2.073 4.188h3.443l-2.415-4.651c1.253-.548 2.055-1.896 2.055-3.455v-.017c0-2.578-1.645-4.035-4.563-4.035h-5.222v12.158zm3.067-6.429V29h1.796c1.078 0 1.797.674 1.797 1.693v.017c0 1.028-.694 1.685-1.78 1.685h-1.813zm13.596 6.647c3.192 0 5.081-1.541 5.081-3.968v-.008c0-1.946-1.187-2.991-3.744-3.488l-1.237-.236c-1.295-.244-1.864-.59-1.864-1.247v-.009c0-.699.635-1.213 1.764-1.213 1.103 0 1.88.497 1.972 1.298l.008.092h2.85l-.008-.177c-.108-2.207-1.822-3.64-4.848-3.64-2.765 0-4.78 1.509-4.78 3.851v.009c0 1.862 1.262 3.05 3.653 3.496l1.236.236c1.413.278 1.948.598 1.948 1.289v.008c0 .759-.752 1.281-1.973 1.281-1.178 0-2.081-.514-2.231-1.297l-.017-.093h-2.85l.009.152c.134 2.325 2.031 3.664 5.031 3.664z" fill="#69A5FF"/></svg>