<svg width="207" height="51" fill="none" xmlns="http://www.w3.org/2000/svg"><path d="M23.325 42.9c9.793 0 17.73-7.937 17.73-17.73 0-9.792-7.937-17.73-17.73-17.73-9.792 0-17.73 7.938-17.73 17.73 0 9.793 7.938 17.73 17.73 17.73z" fill="#69A5FF"/><path d="M34.584 4.85H14.802c-.915 0-1.83-.023-2.736 0h-.039a.762.762 0 00-.645.369l-1.13 1.96a1322.62 1322.62 0 00-2.713 4.703c-1.091 1.89-2.183 3.781-3.274 5.68a2637.34 2637.34 0 00-2.813 4.872c-.446.776-.93 1.537-1.345 2.329-.23.43-.046.722.154 1.076.23.4.46.8.691 1.207.854 1.475 1.707 2.958 2.56 4.434 1.083 1.883 2.175 3.766 3.258 5.649.976 1.69 1.953 3.39 2.936 5.08l1.607 2.782c.023.046.053.085.076.13.131.231.385.37.646.37h19.821c.915 0 1.83.023 2.736 0h.038a.762.762 0 00.646-.37l1.13-1.959c.907-1.568 1.814-3.136 2.713-4.703 1.091-1.891 2.183-3.782 3.274-5.68.938-1.622 1.875-3.243 2.813-4.873.446-.776.93-1.537 1.345-2.328.23-.43.046-.723-.154-1.076-.23-.4-.461-.8-.692-1.207-.853-1.476-1.706-2.959-2.559-4.435-1.084-1.883-2.175-3.766-3.258-5.649-.977-1.69-1.953-3.389-2.936-5.08L35.345 5.35c-.023-.046-.053-.084-.077-.13a.77.77 0 00-.599-.37h-.085zm3.213 7.754c1.084 1.883 2.167 3.759 3.259 5.642.945 1.629 1.883 3.258 2.828 4.895.392.677.76 1.376 1.168 2.045-.3.515-.6 1.037-.9 1.552l-2.697 4.68a2121.802 2121.802 0 01-3.258 5.642c-.946 1.63-1.883 3.258-2.829 4.895-.392.677-.814 1.353-1.19 2.037h-19.37c-.783 0-1.567-.03-2.351-.015a166010.497 166010.497 0 00-3.597-6.24 2111.478 2111.478 0 00-3.259-5.642c-.945-1.63-1.883-3.259-2.828-4.896-.392-.676-.761-1.376-1.168-2.044.3-.515.6-1.038.899-1.553l2.698-4.68a2041.86 2041.86 0 013.258-5.641c.946-1.63 1.883-3.259 2.829-4.896.392-.676.814-1.353 1.19-2.037h19.37c.784 0 1.568.016 2.352.008.3.523.607 1.045.907 1.568.892 1.568 1.79 3.128 2.69 4.68z" fill="#69A5FF"/><path d="M27.168 32.648c0-.008.007-.015.007-.023 0 .015 0 .015-.007.023zm.054-5.372c-.023-.023-.046-.038-.054-.054.015.039.046.054.054.054zM2.797 30.089h10.107a.345.345 0 00.276.146.341.341 0 00.338-.338.341.341 0 00-.338-.338.346.346 0 00-.284.153H2.805a.333.333 0 00-.277-.153.341.341 0 00-.338.338c0 .184.154.338.338.338a.342.342 0 00.27-.146zm31.595-1.137a.346.346 0 00-.284-.154.341.341 0 00-.338.338c0 .184.154.338.338.338a.326.326 0 00.277-.146h10.099a.326.326 0 00.276.146.341.341 0 00.339-.338.341.341 0 00-.339-.338.323.323 0 00-.276.154H34.392zm-9.307 18.053l-.007.008c-.016.023-.023.046-.031.069a.217.217 0 00-.03.1v1.121a.345.345 0 00-.147.276c0 .185.154.339.338.339a.341.341 0 00.338-.339.346.346 0 00-.153-.284v-1.068c.061-.062.123-.131.192-.2.069-.077.138-.146.215-.223.07-.07.138-.146.208-.223l.038-.038c.015 0 .03.007.046.007a.341.341 0 00.338-.338.341.341 0 00-.338-.338.341.341 0 00-.338.338c0 .03.008.062.015.085l-.015.015c-.07.077-.138.161-.208.23-.069.07-.146.147-.215.224-.069.069-.13.153-.2.215-.03.015-.038.015-.046.023zM25.7 3.689a6.347 6.347 0 00-.215-.223 2.358 2.358 0 00-.192-.2V2.198a.346.346 0 00.153-.284.341.341 0 00-.338-.339.341.341 0 00-.338.339c0 .115.054.215.146.276v1.122c0 .039.008.07.03.1a.327.327 0 00.031.07l.008.007.016.016c.069.069.138.146.2.215.069.077.138.146.215.223.076.076.138.153.207.23l.015.016c-.007.03-.015.053-.015.084a.34.34 0 00.338.338.341.341 0 00.338-.338.341.341 0 00-.338-.338c-.015 0-.03 0-.046.008-.015-.016-.023-.031-.038-.039a1.09 1.09 0 00-.177-.215z" fill="#fff"/><path d="M23.456.346c0 .123.07.23.17.292v.284h-.016v5.941c0 .023.008.046.015.062 0 .038.015.077.046.115.016.015.031.038.046.054.016.015.039.03.054.046l.054.054.015.015.016.015.046.047.115.115c.062.054.123.115.177.169l.177.177.038.038c.054.046.1.092.154.138a.84.84 0 00.146.123c.015.016.03.031.054.047l.069.069.038.038v5.142h-.884V9.415a.345.345 0 00.146-.277.341.341 0 00-.338-.338.341.341 0 00-.338.338c0 .115.061.223.154.284v3.866h-.738V4.35a.348.348 0 00.108-.246.341.341 0 00-.339-.338.341.341 0 00-.338.338c0 .13.077.246.192.3v8.877h-1.237V3.897a.335.335 0 00.085-.223.341.341 0 00-.339-.338.341.341 0 00-.338.338c0 .138.092.261.215.315v9.292h-.799c0-1.176.008-2.352.008-3.52a.275.275 0 00.077-.054.339.339 0 000-.477.339.339 0 00-.477 0 .339.339 0 000 .477l.023.023c0 1.184-.008 2.375-.008 3.558h-.176l-2.598-2.597c-.546-.546-1.091-1.084-1.63-1.63 0-.023.008-.038.008-.061a.341.341 0 00-.338-.338.341.341 0 00-.338.338c0 .184.154.338.338.338.023 0 .046 0 .07-.008l3.957 3.958h-1.122a.84.84 0 00-.5.177l-1.69-1.69a.341.341 0 00-.338-.339.341.341 0 00-.338.338.34.34 0 00.338.338.282.282 0 00.115-.023l1.668 1.668a.699.699 0 00-.085.377v.66h-.999a.336.336 0 00-.284-.153.341.341 0 00-.338.338.34.34 0 00.338.338.345.345 0 00.277-.146h.999v1.16h-3.02c-1.207-1.198-2.406-2.405-3.613-3.604v-.015a.341.341 0 00-.338-.338.341.341 0 00-.338.338.34.34 0 00.338.338.245.245 0 00.107-.023l3.666 3.666c.07.07.177.07.254.008h2.959v.715H7.163a.335.335 0 00-.262-.131.341.341 0 00-.338.338c0 .184.154.338.338.338.123 0 .23-.069.292-.169h9.861v.876h-1.176a.347.347 0 00-.3-.184.341.341 0 00-.338.338c0 .184.154.338.338.338.1 0 .193-.046.254-.115h1.222v.991h-5.71a.354.354 0 00-.285-.161.341.341 0 00-.338.338c0 .184.154.338.338.338a.335.335 0 00.27-.138h5.725v1.137h-9.43a.345.345 0 00-.277-.146.341.341 0 00-.338.338c0 .185.154.339.338.339a.346.346 0 00.285-.154h9.422v1.23H15.01a.335.335 0 00-.285-.162.341.341 0 00-.338.338c0 .185.154.339.338.339a.335.335 0 00.27-.139h2.059v1.299H5.034a.345.345 0 00-.277-.146.341.341 0 00-.338.338.34.34 0 00.338.338.346.346 0 00.284-.153h12.013v.991h-5.803a.326.326 0 00-.276-.146.341.341 0 00-.338.338.34.34 0 00.338.338.346.346 0 00.284-.153h5.795v.799h-5.626c-.015-.015-.03-.03-.054-.046-.476-.361-.945-.723-1.421-1.084-.024-.023-.062-.023-.1-.023a.214.214 0 00-.07-.015H6.171a.335.335 0 00-.261-.13.341.341 0 00-.338.337.34.34 0 00.338.338c.123 0 .23-.069.292-.169h3.581c.47.361.938.715 1.407 1.076a.059.059 0 00.038.016.19.19 0 00.154.077h5.672v.791h-.492a.34.34 0 00-.638.162c0 .184.154.338.338.338.1 0 .192-.046.254-.123h.53v.799h-.96c-.008-.008-.008-.015-.016-.015-.307-.315-.615-.623-.914-.938l-.008-.008-.046-.046a.197.197 0 00-.23-.03.174.174 0 00-.124-.047H8.731a.328.328 0 00-.262-.123.341.341 0 00-.338.339c0 .184.154.338.338.338a.33.33 0 00.292-.177h5.98c.038 0 .069-.008.092-.03.015.015.023.022.03.038.308.315.616.622.915.937a.172.172 0 00.062.039c.03.053.092.084.153.084h1.061v1.092h-4.611a.335.335 0 00-.262-.131.341.341 0 00-.338.338.34.34 0 00.338.338c.123 0 .23-.069.292-.169h4.581v.8h-5.511c-.015-.016-.03-.024-.046-.039-.507-.392-1.022-.784-1.53-1.176a.151.151 0 00-.114-.023.184.184 0 00-.108-.038H7.639a.346.346 0 00-.292-.17.341.341 0 00-.338.339c0 .184.154.338.338.338.108 0 .2-.054.261-.13H9.76c.008 0 .008.007.016.015.507.392 1.014.776 1.53 1.168.03.054.091.092.16.092h5.588v.899h-7.001a.324.324 0 00-.254-.123.341.341 0 00-.338.339.34.34 0 00.338.338.343.343 0 00.291-.178h6.971c0 .415-.008.83-.008 1.245l-2.267.023h-.169a.433.433 0 00-.046-.061.332.332 0 00-.477.007c-.13.13-.13.346.008.477.13.13.346.13.476 0a.136.136 0 00.031-.039h.108c.776-.007 1.56-.015 2.344-.03 0 .184 0 .376.007.56v.039a.76.76 0 00.116.407c-.861.869-1.722 1.73-2.583 2.598l-2.859 2.882c-.023 0-.038-.008-.061-.008a.341.341 0 00-.338.339.34.34 0 00.338.338.341.341 0 00.338-.338c0-.023 0-.046-.008-.07 1.668-1.675 3.336-3.358 4.996-5.034.146-.146.284-.292.43-.43a.81.81 0 00.47.146h.068c0 .745 0 1.491.008 2.244-.015.008-.023.016-.03.023l-3.398 3.397a.348.348 0 00-.338.085.339.339 0 000 .476c.13.131.346.131.476 0 .07-.069.1-.169.093-.261l3.428-3.42c.023-.023.03-.046.046-.07a.18.18 0 00.1-.16c0-.77 0-1.53-.008-2.299h1.406c0 1.26.008 2.514.008 3.774l-.023.023a.339.339 0 000 .477c.13.13.346.13.476 0a.339.339 0 000-.477c-.023-.023-.053-.038-.076-.054 0-1.245-.008-2.49-.008-3.735h.792v9.507a.345.345 0 00-.215.315.34.34 0 00.338.338.341.341 0 00.339-.338.335.335 0 00-.085-.223v-9.599h1.238v9.092a.331.331 0 00-.193.3c0 .184.154.338.338.338a.341.341 0 00.339-.338.332.332 0 00-.108-.246v-9.154h.738v4.081a.346.346 0 00-.154.285c0 .184.154.338.338.338a.341.341 0 00.338-.338.326.326 0 00-.146-.277v-4.089h.884v5.357l-.038.039-.07.069c-.015.015-.038.03-.053.046a.424.424 0 00-.062.046c-.03.023-.053.046-.084.077-.054.046-.1.092-.154.138a13.92 13.92 0 00-.038.039 1.927 1.927 0 00-.177.176 3.107 3.107 0 01-.177.17 62.669 62.669 0 01-.161.16l-.016.016c-.007 0-.007.008-.015.016l-.054.053c-.015.016-.038.023-.053.047a.301.301 0 00-.092.17c-.008.022-.016.037-.016.06v5.933a.336.336 0 00-.154.285c0 .184.154.338.338.338a.341.341 0 00.338-.338c0-.108-.053-.2-.13-.261v-5.934l.038-.038.023-.023a.06.06 0 00.031-.031l.07-.07.122-.122c.054-.054.116-.108.17-.162l.16-.16.016-.016c.015-.008.023-.023.038-.031.016-.015.031-.023.039-.038.046-.039.085-.077.13-.116.016-.015.031-.023.054-.038a.389.389 0 00.062-.054l-.016.015c.039-.03.07-.069.108-.1a.33.33 0 01.054-.046c.008-.007.015-.015.03-.023.024-.015.039-.038.062-.061.008-.008.015-.016.023-.016.039-.038.046-.1.039-.153V37.09a8.701 8.701 0 001.606-.169c-.054.054-.108.116-.17.177-.076.077-.16.146-.237.223-.062.07-.131.138-.193.2a.233.233 0 00-.061.061l-.008.008a.17.17 0 00-.046.115c0 .031.008.062.023.093v7.116c0 .039.015.085.039.116v.03c0 .039.015.093.038.116.369.36.738.73 1.107 1.091v1.998a.333.333 0 00-.223.315c0 .185.154.339.338.339a.341.341 0 00.338-.339.344.344 0 00-.077-.207v-2.16c0-.054-.023-.1-.053-.13-.008-.016-.016-.039-.031-.047-.37-.36-.738-.73-1.107-1.09V37.75c.046-.053.092-.1.146-.153l.185-.185c.038-.03.069-.061.107-.1.03-.038.07-.069.1-.107.061-.07.123-.13.192-.192l.17-.17c.038-.038.076-.084.115-.122l-.023.023.038-.039c.292-.1.584-.215.86-.353.055-.023.1-.054.154-.077v1.406c-.13.077-.26.162-.384.246l-.184.116c-.046.03-.1.069-.146.1-.07.053-.146.1-.216.153-.03.023-.061.046-.1.07-.03.022-.053.045-.084.06.008 0 .015-.007.015-.007-.038.023-.069.046-.084.085-.008.015-.008.03-.015.046a.206.206 0 00-.031.092v4.803a.353.353 0 00-.177.293c0 .184.154.338.338.338a.341.341 0 00.338-.338c0-.1-.053-.2-.123-.262v-4.78a1.24 1.24 0 01.123-.085l.223-.154.139-.092c.061-.038.13-.077.192-.123.061-.046.123-.084.184-.123.085-.053.177-.107.27-.161a.174.174 0 00.076-.115.156.156 0 00.023-.085v-1.69c.33-.208.63-.454.915-.723.96.976 1.913 1.952 2.866 2.928.946.968 1.899 1.937 2.844 2.905-.008.023-.008.039-.008.062 0 .184.146.338.33.346a.346.346 0 00.347-.331.346.346 0 00-.33-.346c-.024 0-.047 0-.07.008-1.652-1.69-3.313-3.382-4.965-5.065-.254-.254-.5-.507-.753-.769.07-.069.13-.146.2-.222a.139.139 0 00.053.007c.823.008 1.645.016 2.468.031.007.016.015.023.023.038l3.343 3.444a.327.327 0 00.077.338.34.34 0 00.476.008.339.339 0 00.008-.477.34.34 0 00-.261-.1l-3.374-3.474a.182.182 0 00-.07-.046.18.18 0 00-.16-.1l-2.299-.023c.1-.13.192-.269.277-.415.161-.254.3-.523.415-.8h5.695a.324.324 0 00.607-.153.325.325 0 00-.323-.323c-.1 0-.184.046-.246.116h-5.595c.1-.277.185-.57.254-.861h3.98c.07 0 .124-.039.155-.092.484-.377.976-.746 1.46-1.115.008 0 .008-.007.015-.007h2.06a.314.314 0 00.254.122.325.325 0 00.322-.322.325.325 0 00-.322-.323.33.33 0 00-.277.161h-2.014a.183.183 0 00-.107.039.152.152 0 00-.116.023l-1.468 1.122c-.015.015-.03.023-.038.038h-3.827c.053-.292.092-.584.115-.876h2.882c.062.1.17.17.292.17a.341.341 0 00.338-.339.341.341 0 00-.338-.338c-.108 0-.2.054-.261.13h-2.89a8.22 8.22 0 00-.085-1.629c.17-.177.346-.353.515-.53.008-.015.093-.008.131-.008h5.98c.06.1.168.177.291.177a.341.341 0 00.339-.338.341.341 0 00-.339-.338c-.1 0-.192.046-.26.123h-6.019c-.03 0-.13.007-.215.023a.258.258 0 00-.138.053l-.046.047-.008.007c-.115.116-.223.23-.338.346a7.068 7.068 0 00-.454-1.36h4.573a.2.2 0 00.154-.077c.015-.008.023-.008.038-.015.47-.362.938-.715 1.407-1.076h3.581c.062.1.17.169.292.169a.341.341 0 00.339-.338.341.341 0 00-.339-.339c-.107 0-.2.054-.26.131h-3.606c-.023 0-.046.008-.069.015a.192.192 0 00-.1.023c-.476.362-.945.723-1.421 1.084a.282.282 0 00-.054.046h-4.711a6.797 6.797 0 00-.523-.8h5.41a.336.336 0 00.285.155.341.341 0 00.338-.339.341.341 0 00-.338-.338.345.345 0 00-.277.146h-5.733a5.972 5.972 0 00-.968-.845c.053-.046.107-.1.153-.154h12.758a.336.336 0 00.285.154.341.341 0 00.338-.338.341.341 0 00-.338-.338.345.345 0 00-.277.146H29.842a5.77 5.77 0 00.716-1.1c.03-.069.061-.13.092-.2h2.267a.335.335 0 00.269.14.341.341 0 00.338-.34.341.341 0 00-.338-.337.326.326 0 00-.284.161h-2.099c.154-.4.262-.815.339-1.23h8.515a.336.336 0 00.285.154.341.341 0 00.338-.338.341.341 0 00-.338-.338.345.345 0 00-.277.146h-8.47c.046-.377.062-.753.062-1.138h4.711a.335.335 0 00.27.139.341.341 0 00.337-.338.341.341 0 00-.338-.339.326.326 0 00-.284.162h-4.711a7.298 7.298 0 00-.108-.907h1.706c.062.07.154.115.254.115a.341.341 0 00.338-.338.341.341 0 00-.338-.338.347.347 0 00-.3.184h-1.737a6.926 6.926 0 00-.292-.96h9.323c.061.1.169.169.292.169a.341.341 0 00.338-.338.341.341 0 00-.338-.339c-.108 0-.2.054-.262.131h-9.522a4.113 4.113 0 00-.215-.407 4.097 4.097 0 00-.192-.308h2.966a.197.197 0 00.254-.007l3.666-3.666c.03.015.069.023.107.023a.341.341 0 00.339-.338.341.341 0 00-.339-.339.341.341 0 00-.338.338v.016l-3.604 3.604h-3.221a.13.13 0 00-.076.023 5.775 5.775 0 00-.338-.4c.814-.806 1.621-1.62 2.436-2.428a.308.308 0 00.115.023.341.341 0 00.338-.338.341.341 0 00-.338-.338.341.341 0 00-.338.338l-2.475 2.475a3.904 3.904 0 00-.384-.33v-1.745a.156.156 0 00-.023-.085.166.166 0 00-.077-.115c-.092-.054-.177-.108-.269-.162-.061-.038-.123-.084-.184-.122-.062-.047-.131-.077-.193-.123l-.138-.093-.223-.153a1.161 1.161 0 00-.123-.085V7.109a.328.328 0 00.123-.261.341.341 0 00-.338-.338.341.341 0 00-.338.338c0 .123.069.238.177.292v4.803c0 .039.007.07.03.093 0 .015.008.03.016.046a.15.15 0 00.084.084.344.344 0 01.07.054c.03.023.06.046.1.07.069.053.145.1.215.153.046.03.1.07.146.1l.184.115c.123.085.254.17.384.246v1.399a5.73 5.73 0 00-1.176-.592l-.138-.138c-.061-.062-.13-.123-.192-.193-.03-.038-.07-.069-.1-.107-.03-.03-.07-.062-.108-.1l-.184-.184c-.046-.054-.1-.1-.146-.154V5.642c.369-.362.738-.73 1.107-1.092a.15.15 0 00.03-.046.18.18 0 00.054-.13v-2.46a.345.345 0 00.077-.208.341.341 0 00-.338-.338.341.341 0 00-.338.338c0 .146.092.27.223.315v2.29c-.37.362-.738.73-1.107 1.092-.03.03-.038.077-.038.115v.031a.188.188 0 00-.039.115v7.132a.205.205 0 00-.023.093.17.17 0 00.046.115l.008.008a.234.234 0 00.061.061c.062.07.13.138.192.2.07.07.146.138.216.207a7.928 7.928 0 00-1.415-.192v-5.18a.16.16 0 00-.038-.153c-.008-.008-.015-.016-.023-.016l-.062-.061a.107.107 0 00-.03-.023c-.016-.016-.031-.031-.054-.046a1.406 1.406 0 01-.108-.1l.016.015c-.016-.015-.039-.03-.062-.054-.015-.015-.03-.023-.053-.038-.047-.039-.085-.077-.131-.116-.016-.015-.03-.023-.039-.038a.135.135 0 00-.038-.03l-.015-.016-.162-.161c-.054-.054-.107-.108-.169-.162l-.123-.123-.069-.069c-.008-.008-.015-.023-.03-.03l-.024-.024c-.015-.015-.038-.03-.054-.046V6.68c.008 0 .008.007.016.007V.6a.335.335 0 00.13-.26.341.341 0 00-.338-.339.353.353 0 00-.338.346zm1.96 16.762l.123.023c.1.023.2.046.3.077.076.023.153.046.23.077.015.008.039.008.054.015.008 0 .015.008.023.008.161.084.323.169.476.276a.958.958 0 01.093.07c.061.053.115.107.177.161.053.054.107.115.16.177.024.03.055.061.078.092 0 .008.007.008.007.015.093.139.185.277.254.43.008.016.023.04.039.062a.13.13 0 00.015.039c.038.092.069.192.1.292.046.161.077.33.115.492v.007c0 .047.008.085.015.131.008.115.016.23.016.346 0 .2 0 .392-.023.592v.069c0 .008-.008.015-.008.03-.015.108-.038.208-.061.316-.039.161-.093.315-.146.476-.023.039-.039.085-.062.123-.046.085-.092.177-.146.254-.023.03-.13.154-.13.192-.016.023-.04.046-.054.061a4.389 4.389 0 01-.377.37.645.645 0 01-.092.06c-.077.047-.146.093-.223.14l-.185.091c-.038.008-.138.054-.161.062-.17.054-.338.1-.507.13l-.123.024-.3.023c-.215.007-.438.007-.653.007h-2.53l.008-1.214a.42.42 0 10-.66-.346.425.425 0 00.191.354l-.008 1.199h-.791V17.07h4.196c.17 0 .346 0 .515.023-.023 0-.015 0 .054.015zm-.062-.015c.016 0 .023.007.039.007-.016 0-.03 0-.039-.007zm2.099 1.514a.142.142 0 01.015.053c0-.007-.008-.03-.015-.053zm-.323 3.305c-.008.007-.016.015-.016.023.023-.031.116-.131.016-.023zm-.96.76c-.009 0-.009.008-.016.008a.902.902 0 01.015-.008zm-4.09 6.302a.416.416 0 00-.184-.345l.008-2.03h3.174c.215 0 .422.016.63.04h.015l.123.022c.1.023.208.046.308.07.1.022.2.053.292.092.038.015.069.03.107.038.17.084.33.17.492.269.039.023.077.054.115.085.054.038.062.053.047.053.053.046.13.093.153.116.108.1.246.223.338.353.008.016.023.046.039.062.03.038.054.084.084.123l.139.23c.046.077.084.162.123.238.015.023.023.039.023.054l.023.092c.061.185.115.377.154.577.007.054.015.108.03.161a.311.311 0 01.016.054c.015.085.007.184.007.254.016.223.016.445 0 .668l-.023.308c0 .023-.007.046-.007.053l-.023.116c-.047.223-.1.446-.185.66-.008.024-.023.07-.038.1-.008.016-.016.024-.023.04a4.124 4.124 0 01-.17.314 6.83 6.83 0 01-.16.246c-.016.023-.024.03-.032.039-.023.023-.046.046-.061.069-.07.084-.146.161-.23.238-.04.038-.185.123-.231.192.03-.038.084-.046.015.008-.008.008-.015.015-.023.015-.038.031-.077.054-.123.085a5.849 5.849 0 01-.276.169c-.047.023-.085.046-.131.069-.008.008-.023.008-.03.015-.085.008-.2.077-.278.1-.2.062-.46.162-.668.154.023 0 .192-.023.03-.008-.069.008-.13.016-.2.016-.138.007-.276.015-.414.015h-4.45v-6.664h.807l.023 2.03a.413.413 0 00-.192.345.42.42 0 00.415.423c.23 0 .422-.192.422-.422zm6.034-.545c-.008-.023-.024-.062-.031-.062.007.016.015.039.03.062zm-.37 3.658c0 .008-.007.008-.007.015 0-.007 0-.015.008-.015z" fill="#fff"/><path d="M2.797 19.014h10.107a.345.345 0 00.276.146.341.341 0 00.338-.338.341.341 0 00-.338-.338.346.346 0 00-.284.153H2.805a.333.333 0 00-.277-.153.341.341 0 00-.338.338c0 .184.154.338.338.338a.342.342 0 00.27-.146zm43.301 3.366H36.006a.332.332 0 00-.276-.153.341.341 0 00-.338.338.34.34 0 00.338.338.345.345 0 00.276-.146h10.1a.345.345 0 00.276.146.341.341 0 00.338-.338.341.341 0 00-.338-.338.346.346 0 00-.284.153zm-20.29-3.266c0 .115.061.223.153.284v1.069c-.061.061-.123.13-.192.2-.069.076-.138.145-.215.222-.07.07-.138.146-.207.223a6.951 6.951 0 01-.039.039c-.015 0-.03-.008-.046-.008a.341.341 0 00-.338.338.34.34 0 00.338.338.341.341 0 00.338-.338.275.275 0 00-.015-.084l.015-.016c.07-.077.138-.161.208-.23.069-.07.146-.146.215-.223.069-.07.13-.154.2-.215l.015-.016.008-.008a.273.273 0 00.03-.069.217.217 0 00.031-.1v-1.122a.345.345 0 00.146-.276.341.341 0 00-.338-.338c-.154-.008-.307.146-.307.33zm.86 11.198v.23a.346.346 0 00-.153.285.34.34 0 00.338.338.341.341 0 00.338-.338.326.326 0 00-.146-.277v-1.122a.155.155 0 00-.03-.1.273.273 0 00-.032-.07l-.007-.007-.015-.015a5.09 5.09 0 01-.2-.215c-.07-.077-.139-.146-.215-.223-.077-.077-.139-.154-.208-.23l-.015-.016c.007-.03.015-.054.015-.085A.341.341 0 0026 28.13a.341.341 0 00-.338.338.34.34 0 00.338.338c.015 0 .03 0 .046-.007.015.015.023.03.038.038.07.077.139.154.208.223.069.077.138.146.215.223.061.07.123.138.192.2v.83h-.03z" fill="#fff"/><path d="M65.627 19.254c4.297 0 6.963-2.803 6.963-7.295v-.02c0-4.482-2.676-7.285-6.963-7.285-4.258 0-6.953 2.803-6.953 7.286v.019c0 4.492 2.676 7.295 6.953 7.295zm0-2.969c-2.012 0-3.3-1.65-3.3-4.326v-.02c0-2.675 1.298-4.316 3.3-4.316 2.021 0 3.32 1.65 3.32 4.317v.019c0 2.646-1.27 4.326-3.32 4.326zM75.137 19h3.575v-8.223h.069L84.444 19h3.008V4.908h-3.574v8.135h-.068l-5.635-8.135h-3.037V19zm15.254 0h9.414v-2.88h-5.83V4.907h-3.584V19zm11.855 0h3.584V4.908h-3.584V19zm6.522 0h3.575v-8.223h.068L118.075 19h3.008V4.908h-3.574v8.135h-.069l-5.635-8.135h-3.037V19zm15.253 0h9.659v-2.88h-6.075v-2.852h5.713v-2.696h-5.713V7.79h6.075V4.91h-9.659V19zM59.065 45h6.728c3.017 0 4.922-1.582 4.922-4.033v-.02c0-1.845-1.514-3.242-3.438-3.34v-.068c1.602-.205 2.823-1.474 2.823-3.066v-.02c0-2.197-1.69-3.545-4.483-3.545h-6.553V45zm5.605-11.563c1.21 0 1.933.586 1.933 1.563v.02c0 1.054-.761 1.68-2.197 1.68h-1.758v-3.263h2.022zm0 5.518c1.572 0 2.402.615 2.402 1.738v.02c0 1.142-.83 1.758-2.295 1.758h-2.129v-3.516h2.022zm14.921 6.299c4.297 0 6.963-2.803 6.963-7.295v-.02c0-4.482-2.676-7.285-6.963-7.285-4.258 0-6.953 2.803-6.953 7.286v.019c0 4.492 2.676 7.295 6.953 7.295zm0-2.969c-2.012 0-3.3-1.65-3.3-4.326v-.02c0-2.675 1.298-4.316 3.3-4.316 2.022 0 3.32 1.65 3.32 4.317v.019c0 2.646-1.27 4.326-3.32 4.326zm16.074 2.969c4.296 0 6.962-2.803 6.962-7.295v-.02c0-4.482-2.675-7.285-6.962-7.285-4.258 0-6.954 2.803-6.954 7.286v.019c0 4.492 2.676 7.295 6.954 7.295zm0-2.969c-2.012 0-3.301-1.65-3.301-4.326v-.02c0-2.675 1.298-4.316 3.3-4.316 2.022 0 3.32 1.65 3.32 4.317v.019c0 2.646-1.269 4.326-3.32 4.326zm9.51 2.715h3.584v-3.984l1.211-1.573L113.486 45h4.209l-5.107-7.861 4.824-6.23h-3.838l-4.746 6.2h-.069v-6.2h-3.584V45zm14.414 0h3.154v-8.809h.078L126.268 45h2.051l3.447-8.809h.079V45h3.154V30.908h-4.141l-3.535 9.21h-.059l-3.535-9.21h-4.14V45zm17.557 0h3.76l.879-3.096h4.6l.879 3.096h3.759l-4.746-14.092h-4.384L137.146 45zm6.905-11.025h.068l1.524 5.351h-3.116l1.524-5.351zM153.181 45h3.584v-3.984l1.211-1.573L161.491 45h4.209l-5.107-7.861 4.824-6.23h-3.838l-4.746 6.2h-.068v-6.2h-3.584V45zm14.413 0h9.658v-2.88h-6.074v-2.852h5.713v-2.696h-5.713V33.79h6.074v-2.88h-9.658V45zm12.48 0h3.584v-4.853h1.826L187.906 45h4.023l-2.822-5.39c1.465-.635 2.402-2.198 2.402-4.005v-.02c0-2.987-1.923-4.677-5.332-4.677h-6.103V45zm3.584-7.451v-3.936h2.099c1.26 0 2.1.782 2.1 1.963v.02c0 1.191-.811 1.953-2.08 1.953h-2.119zm15.888 7.705c3.73 0 5.937-1.787 5.937-4.6v-.01c0-2.255-1.387-3.466-4.375-4.042l-1.445-.274c-1.514-.283-2.178-.684-2.178-1.445v-.01c0-.81.742-1.406 2.061-1.406 1.289 0 2.197.576 2.304 1.504l.01.107h3.33l-.01-.205c-.126-2.558-2.128-4.219-5.664-4.219-3.232 0-5.586 1.748-5.586 4.463v.01c0 2.158 1.475 3.535 4.268 4.053l1.445.273c1.651.322 2.276.694 2.276 1.494v.01c0 .879-.879 1.484-2.305 1.484-1.377 0-2.432-.595-2.607-1.504l-.02-.107h-3.33l.01.176c.156 2.695 2.373 4.248 5.879 4.248z" fill="#69A5FF"/></svg>