<svg width="40" height="40" fill="none" xmlns="http://www.w3.org/2000/svg"><g clip-path="url(#clip0)"><path fill-rule="evenodd" clip-rule="evenodd" d="M17.743 1.242L1.578 10.575l6.333 10.97a.667.667 0 11-1.155.666L.089 10.664a.667.667 0 01.244-.91L17.077.087a.667.667 0 01.666 1.155zM10 7.998h20c.368 0 .667.298.667.666v2h.666a.667.667 0 010 1.334H30a.667.667 0 01-.666-.667v-2H10.666v5.333H26a.667.667 0 010 1.334H10.667v12.666a.667.667 0 11-1.333 0v-20c0-.368.298-.666.666-.666zM30.667 25.33v10a.667.667 0 01-.667.667H10a.667.667 0 01-.666-.667v-3.333a.667.667 0 011.333 0v2.666h18.666V17.998c0-.369.299-.667.667-.667h1.334a.667.667 0 010 1.333h-.667v2h.666a.667.667 0 110 1.334h-.666v2h.666a.667.667 0 010 1.333h-.666zm-3.334 4a.667.667 0 000-1.333h-4a.667.667 0 00-.666.666v4c0 .368.298.667.666.667h4a.667.667 0 000-1.333H24V29.33h3.334zm-2-12H28a.667.667 0 010 1.333h-2.666a.667.667 0 010-1.333zm-4.666 11.333h-6a.667.667 0 000 1.334h6a.667.667 0 100-1.334zM12 31.998c0-.369.299-.667.667-.667h2a.667.667 0 010 1.333h-2a.667.667 0 01-.667-.666zm8.667-.667h-3.334a.667.667 0 000 1.333h3.334a.667.667 0 000-1.333zM20 11.72v-1.057a.667.667 0 011.334 0v2.667a.667.667 0 01-1.139.471l-1.528-1.528v1.057a.667.667 0 01-1.138.471L16 12.274v1.057a.667.667 0 01-1.138.471l-1.528-1.528v1.057a.667.667 0 01-1.334 0v-2.667a.666.666 0 011.138-.471l1.529 1.529v-1.058a.666.666 0 011.138-.471l1.529 1.529v-1.058a.666.666 0 011.137-.471l1.53 1.529zm7.334 1.61v-2.667a.667.667 0 00-1.334 0v1.058l-1.529-1.53a.667.667 0 00-1.137.472v2.667a.667.667 0 001.333 0v-1.057l1.528 1.528a.666.666 0 001.139-.471zM7.91 9.228A.667.667 0 007 8.984L3.975 10.73a.667.667 0 00-.242.91l3.023 5.237a.667.667 0 101.155-.667l-2.692-4.66 2.447-1.413a.667.667 0 00.244-.91zm21.422 4.77h2a.667.667 0 010 1.333h-2a.667.667 0 010-1.333zm10.578-.758a.668.668 0 00-.405-.311l-4.84-1.297V5.331A.667.667 0 0034 4.664H14.667a.667.667 0 000 1.334h18.666V31.33h-.666a.667.667 0 000 1.333H34a.667.667 0 00.667-.666v-7.995l2.212-8.257a.665.665 0 10-1.287-.346l-.925 3.451v-5.839l3.85 1.032-3.157 11.781a.667.667 0 101.288.346l3.33-12.425a.667.667 0 00-.067-.506zm-7.766 24.585a.667.667 0 111.286.345l-.357 1.334a.667.667 0 01-.816.471l-4.976-1.333a.667.667 0 01.345-1.288l4.333 1.16.185-.689z" fill="#69A5FF"/><path d="M21.333 18.665a.667.667 0 10-1.333 0v7.333h-1.333v-.667a1.987 1.987 0 00-.52-1.333 2 2 0 10-2.96 0c-.333.364-.519.84-.52 1.333v.667h-1.334V19.33h3.334a.667.667 0 000-1.333h-4a.667.667 0 00-.667.666v8c0 .369.299.667.667.667h8a.667.667 0 00.666-.666v-8zm-4.666 3.333a.667.667 0 110 1.333.667.667 0 010-1.333zm-.667 4v-.667a.667.667 0 011.333 0v.667H16zm12.666-5.333a.667.667 0 00-.666-.667h-4.667a.667.667 0 000 1.333H28a.667.667 0 00.666-.666zm-1.333 2h-4a.667.667 0 100 1.333h4a.667.667 0 000-1.333zm-4 3.999h2a.667.667 0 000-1.333h-2a.667.667 0 100 1.333z" fill="#fff"/></g><defs><clipPath id="clip0"><path fill="#fff" d="M0 0h40v40H0z"/></clipPath></defs></svg>