<svg width="40" height="40" fill="none" xmlns="http://www.w3.org/2000/svg"><g clip-path="url(#clip0)"><path fill-rule="evenodd" clip-rule="evenodd" d="M31.997 39.997H3.333A3.337 3.337 0 010 36.664V7.333A3.337 3.337 0 013.333 4h19.998v1.333H3.333a2 2 0 00-2 2v29.33a2 2 0 002 2h28.664a2 2 0 002-2V23.332h1.334v13.333a3.337 3.337 0 01-3.334 3.333zM4 6.667H2.666v1.332H4V6.666zm1.333 0h1.333v1.332H5.333V6.666zm4 0H7.998v1.332h1.333V6.666zM2.665 9.332h18.666v1.333H2.666V9.333zm6 3.333c.368 0 .666.298.666.666v5.333a.667.667 0 01-.666.667H3.333a.667.667 0 01-.667-.667v-5.333c0-.368.299-.666.667-.666h5.333zm-4.667 5.332h4v-4H4v4zm6.667-5.332h4.666v1.333h-4.666v-1.333zm11.332 2.666H10.666v1.333h11.332v-1.333zm-11.332 2.666h6v1.334h-6v-1.334zm11.332 0h-4v1.334h4v-1.334zm-12.666 4a.666.666 0 00-.666-.666H3.333a.667.667 0 00-.667.666v5.333c0 .368.299.667.667.667h5.333a.666.666 0 00.666-.667v-5.333zM8 26.665H4v-4h4v4zm7.333-5.333h-4.666v1.333h4.666v-1.333zm-4.666 2.666h15.332v1.333H10.666v-1.333zm6 2.667h-6v1.333h6v-1.333zm1.332 0h8v1.333h-8v-1.333zM3.334 29.998h5.333c.368 0 .666.298.666.666v5.333a.666.666 0 01-.666.667H3.333a.667.667 0 01-.667-.667v-5.333c0-.368.299-.666.667-.666zM4 35.33h4v-4H4v4zm6.667-5.333h4.666v1.333h-4.666v-1.333zm15.332 2.666H10.666v1.333h15.332v-1.333zM10.666 35.33h6v1.333h-6V35.33zm15.332 0h-8v1.333h8V35.33z" fill="#69A5FF"/><path d="M38.122 5.852l-.477-2.95a.666.666 0 00-.55-.55l-2.95-.478L31.72.126a.667.667 0 00-.78 0l-2.424 1.748-2.95.477a.667.667 0 00-.551.551l-.477 2.95-1.748 2.424a.666.666 0 000 .78l1.748 2.424.477 2.95a.663.663 0 00.432.51l-2.046 4.094a.665.665 0 00.596.964h2.31l1.133 1.704a.667.667 0 00.557.296h.041a.667.667 0 00.555-.367l2.247-4.499.1.072a.667.667 0 00.78 0l.1-.072 2.246 4.495a.667.667 0 00.554.368l.043.003c.222 0 .43-.111.554-.296l1.136-1.704h2.31a.668.668 0 00.6-.964l-2.047-4.093a.663.663 0 00.432-.512l.477-2.95 1.748-2.423a.665.665 0 000-.78l-1.752-2.424zM27.915 20.007l-.696-1.045a.667.667 0 00-.554-.297h-1.588l1.74-3.482 1.7.274.885.639.344.249-1.83 3.662zm9.67-1.342h-1.588a.667.667 0 00-.554.297l-.697 1.045-1.83-3.662.343-.249.886-.639 1.7-.274 1.74 3.482zm-.636-7.838a.659.659 0 00-.117.284l-.426 2.63-.29.047-2.339.378a.663.663 0 00-.284.118l-.835.6-1.327.96-1.326-.957-.835-.6a.663.663 0 00-.285-.118l-2.338-.378-.29-.048-.425-2.63a.665.665 0 00-.119-.283l-1.56-2.164 1.559-2.161a.655.655 0 00.118-.283l.426-2.63 2.63-.427a.665.665 0 00.284-.118l2.161-1.559 2.16 1.559a.664.664 0 00.285.118l2.63.426.426 2.63a.66.66 0 00.117.284l1.559 2.161-1.559 2.161z" fill="#fff"/><path d="M31.331 4a4.666 4.666 0 104.666 4.666A4.673 4.673 0 0031.331 4zm0 8a3.333 3.333 0 110-6.667 3.333 3.333 0 010 6.666z" fill="#fff"/><path d="M31.68 6.765a.667.667 0 00-.647-.03l-1.333.668.596 1.193.368-.185v2.255h1.334V7.333a.669.669 0 00-.317-.568z" fill="#fff"/></g><defs><clipPath id="clip0"><path fill="#fff" d="M0 0h40v40H0z"/></clipPath></defs></svg>