<svg width="27" height="26" fill="none" xmlns="http://www.w3.org/2000/svg"><g clip-path="url(#clip0)"><path d="M13.588 26c-7.18 0-13-5.82-13-13s5.82-13 13-13 13 5.82 13 13-5.82 13-13 13z" fill="#F0F0F0"/><path d="M1.397 17.522A12.971 12.971 0 01.588 13c0-1.59.286-3.113.809-4.522H25.78A12.97 12.97 0 0126.587 13c0 1.59-.286 3.113-.809 4.522l-12.19 1.13-12.192-1.13z" fill="#0052B4"/><path d="M13.588 26c-5.59 0-10.354-3.528-12.191-8.478h24.382C23.944 22.472 19.178 26 13.59 26z" fill="#D80027"/></g><defs><clipPath id="clip0"><path fill="#fff" transform="matrix(-1 0 0 1 26.588 0)" d="M0 0h26v26H0z"/></clipPath></defs></svg>