<svg width="40" height="40" fill="none" xmlns="http://www.w3.org/2000/svg"><g clip-path="url(#clip0)"><path fill-rule="evenodd" clip-rule="evenodd" d="M38 0H14.552a1.99 1.99 0 00-1.414.586L.586 13.138A1.987 1.987 0 000 14.552V40h1.333V14.667h11.334a2.002 2.002 0 002-2V1.333H38c.368 0 .666.299.667.667v10.667H40V2a2.002 2.002 0 00-2-2zM12.667 13.333H2.277L13.332 2.276v10.39a.667.667 0 01-.666.667zM38 35.428v-6.094a2.002 2.002 0 00-2-2h-3.333V25.96A6.007 6.007 0 0038 20h1.333v-1.334H38v-1.334A1.335 1.335 0 0036.667 16h-9.334A1.335 1.335 0 0026 17.334v1.333h-1.333V20H26a6.007 6.007 0 005.333 5.96v1.373H28a2.002 2.002 0 00-2 2v6.095A2.664 2.664 0 0024 38v.667A1.335 1.335 0 0025.333 40h13.334A1.335 1.335 0 0040 38.667V38a2.664 2.664 0 00-2-2.572zM27.333 20v-2.666h9.334V20a4.666 4.666 0 11-9.334 0zm0 9.334c0-.369.299-.667.667-.667h8c.368 0 .666.298.667.666v6h-1.334V32a2.002 2.002 0 00-2-2h-2.666a2.002 2.002 0 00-2 2v3.334h-1.334v-6zm6.667 6h-4V32c0-.368.299-.666.667-.666h2.666c.369 0 .667.298.667.666v3.334zm-8.667 3.333V38a1.335 1.335 0 011.334-1.333h10.666A1.335 1.335 0 0138.667 38v.667H25.333zm5.334-34V3.334H32v1.333h1.333A1.335 1.335 0 0134.667 6v.667h-1.334V6H32v2h1.333a1.335 1.335 0 011.334 1.334v2a1.335 1.335 0 01-1.334 1.333H32V14h-1.333v-1.333h-1.334A1.335 1.335 0 0128 11.334v-.667h1.333v.667h1.334v-2h-1.334A1.335 1.335 0 0128 8V6a1.335 1.335 0 011.333-1.333h1.334zm2.666 6.667v-2H32v2h1.333zm-4-3.334h1.334V6h-1.334v2zm-4-3.333V6h1.334V4.667c0-.368.298-.667.666-.667H28V2.667h-.667a2.002 2.002 0 00-2 2zm2 10a2.002 2.002 0 01-2-2V12h1.334v.667c0 .368.298.666.666.667H28v1.333h-.667zm7.334 0h.666a2.002 2.002 0 002-2V12H36v.667a.667.667 0 01-.667.667h-.666v1.333zm2.666-10v.666H36v-.666A.667.667 0 0035.333 4h-.666V2.667h.666a2.002 2.002 0 012 2zM20 5.333V4a1.335 1.335 0 00-1.333-1.333h-1.334A1.335 1.335 0 0016 4v1.333a1.335 1.335 0 001.333 1.334h1.334A1.335 1.335 0 0020 5.333zM17.333 4h1.334v1.333h-1.334V4zM4 16h1.333a1.335 1.335 0 011.334 1.334v1.333A1.335 1.335 0 015.333 20H4a1.335 1.335 0 01-1.333-1.333v-1.334A1.335 1.335 0 014 16zm0 1.334v1.333h1.334v-1.334H4zM16 8h1.333v1.333H16V8zm7.333 0h-4.666v1.333h4.666V8zM16 10.667h1.333V12H16v-1.333zm7.333 0h-4.666V12h4.666v-1.333zM8 16h1.333v1.334H8V16zm9.333 0H16v1.334h1.333V16zm-6.666 0h4v1.334h-4V16zM4 21.334H2.667v1.333H4v-1.334zm6.667 0H12v1.333h-1.333v-1.334zm-1.334 0h-4v1.333h4v-1.334zM8 18.666h1.333V20H8v-1.333zm4.667 0h-2V20h2v-1.333zM5.333 24h1.334v1.334H5.333V24zM4 24H2.667v1.334H4V24zm12-10.666h1.333v1.333H16v-1.333zm7.333 0h-4.666v1.333h4.666v-1.333zm-2-8h2v1.333h-2V5.334zm2-2.667h-2V4h2V2.667zM14.667 38H16v1.334h-1.333V38zm6.666 0H20v1.334h1.333V38zm-12 0h1.334v1.334H9.333V38zm-4 0H4v1.334h1.333V38z" fill="#69A5FF"/><path d="M16 20.666h-1.333A1.335 1.335 0 0013.333 22v13.333a1.336 1.336 0 001.334 1.334H16a1.335 1.335 0 001.333-1.334V22A1.335 1.335 0 0016 20.666zm0 14.667h-1.333V22H16v13.333zm5.333-18.667H20A1.335 1.335 0 0018.666 18v17.333A1.335 1.335 0 0020 36.667h1.333a1.335 1.335 0 001.334-1.334V18a1.335 1.335 0 00-1.334-1.334zm0 18.667H20V18h1.333v17.333zM10.667 24.666H9.333A1.335 1.335 0 008 26v9.333a1.335 1.335 0 001.333 1.334h1.334A1.335 1.335 0 0012 35.332V26a1.335 1.335 0 00-1.333-1.334zm0 10.667H9.333V26h1.334v9.333zm-5.334-6.667H4A1.335 1.335 0 002.667 30v5.333A1.335 1.335 0 004 36.667h1.333a1.335 1.335 0 001.333-1.334V30a1.335 1.335 0 00-1.333-1.334zm0 6.667H4V30h1.333v5.333z" fill="#fff"/></g><defs><clipPath id="clip0"><path fill="#fff" d="M0 0h40v40H0z"/></clipPath></defs></svg>