<svg width="18" height="20" fill="none" xmlns="http://www.w3.org/2000/svg"><path d="M17.76 12.414l-1.388-1.187a7.622 7.622 0 000-2.45l1.389-1.188a.68.68 0 00.197-.747l-.019-.055a9.396 9.396 0 00-1.69-2.924l-.039-.045a.682.682 0 00-.745-.202l-1.725.614a7.417 7.417 0 00-2.116-1.221l-.333-1.803a.681.681 0 00-.548-.546l-.057-.01a9.574 9.574 0 00-3.373 0l-.058.01a.68.68 0 00-.548.546l-.335 1.811c-.762.29-1.471.7-2.1 1.217l-1.738-.618a.68.68 0 00-.746.202l-.038.045A9.469 9.469 0 00.06 6.787l-.02.055a.682.682 0 00.198.747l1.406 1.2a7.462 7.462 0 000 2.421l-1.402 1.2a.68.68 0 00-.198.747l.02.056a9.42 9.42 0 001.69 2.924l.038.044a.682.682 0 00.746.202l1.737-.618c.633.52 1.339.932 2.101 1.217l.336 1.811a.68.68 0 00.548.546l.057.01a9.51 9.51 0 003.373 0l.057-.01a.682.682 0 00.548-.546l.334-1.803a7.467 7.467 0 002.115-1.22l1.725.613a.68.68 0 00.745-.202l.039-.044a9.472 9.472 0 001.69-2.925l.02-.055a.686.686 0 00-.202-.743zm-8.757 1.109a3.733 3.733 0 110-7.467 3.733 3.733 0 010 7.467z" fill="#fff"/></svg>