<svg width="15" height="17" fill="none" xmlns="http://www.w3.org/2000/svg"><path d="M1.542 6.075a.955.955 0 00-.702.289.944.944 0 00-.288.692v4.135c0 .276.096.51.288.702a.955.955 0 00.702.288.94.94 0 00.697-.288.964.964 0 00.284-.702V7.056a.94.94 0 00-.289-.692.945.945 0 00-.692-.289zm7.962-3.711l.682-1.26c.045-.083.03-.147-.048-.192-.083-.039-.147-.019-.192.058l-.692 1.27a4.727 4.727 0 00-1.933-.405 4.73 4.73 0 00-1.933.404L4.696.97C4.651.894 4.587.875 4.504.913c-.077.045-.093.11-.048.192l.683 1.26A4.216 4.216 0 003.485 3.84a3.728 3.728 0 00-.616 2.072h8.894c0-.75-.205-1.44-.615-2.072a4.234 4.234 0 00-1.644-1.476zM5.557 4.196a.36.36 0 01-.265.11.344.344 0 01-.26-.11.368.368 0 01-.105-.265.37.37 0 01.105-.264.345.345 0 01.26-.11c.103 0 .19.036.265.11.073.074.11.162.11.264a.364.364 0 01-.11.265zm4.052 0a.345.345 0 01-.26.11.36.36 0 01-.264-.11.36.36 0 01-.11-.265.36.36 0 01.11-.264.361.361 0 01.265-.11.37.37 0 01.365.375c0 .102-.035.19-.106.264zm-6.702 8.466c0 .295.103.545.308.75.205.205.455.307.75.307h.711l.01 2.183c0 .276.096.51.289.702a.944.944 0 00.692.289c.275 0 .51-.096.702-.289a.955.955 0 00.288-.702V13.72h1.327v2.182c0 .276.096.51.288.702a.955.955 0 00.702.289c.276 0 .51-.096.702-.289a.955.955 0 00.289-.702V13.72h.72c.29 0 .536-.103.741-.308a1.02 1.02 0 00.308-.75V6.258H2.907v6.404zM13.1 6.075c-.27 0-.5.095-.693.284a.94.94 0 00-.288.697v4.135c0 .276.096.51.288.702a.944.944 0 00.693.288c.275 0 .51-.096.702-.288a.955.955 0 00.288-.702V7.056a.94.94 0 00-.288-.697.965.965 0 00-.702-.284z" fill="#69A5FF"/></svg>