<svg width="14" height="14" fill="none" xmlns="http://www.w3.org/2000/svg"><g clip-path="url(#clip0)"><path fill-rule="evenodd" clip-rule="evenodd" d="M10.249 6.906l2.375-1.375a1.077 1.077 0 00.531-.692 1.129 1.129 0 00-.112-.871l-.571-.982a1.08 1.08 0 00-.692-.531 1.128 1.128 0 00-.871.112L8.534 3.933V1.192A1.158 1.158 0 007.392.049H6.249a1.158 1.158 0 00-1.143 1.143v2.74L2.731 2.568a1.128 1.128 0 00-.871-.112 1.081 1.081 0 00-.692.53l-.571.983a1.128 1.128 0 00-.112.87 1.08 1.08 0 00.532.693l2.375 1.375L1.017 8.28a1.08 1.08 0 00-.532.692 1.125 1.125 0 00.112.87l.571.983a1.084 1.084 0 00.692.53 1.127 1.127 0 00.871-.111l2.375-1.366v2.74a1.158 1.158 0 001.143 1.144h1.143a1.159 1.159 0 001.142-1.143v-2.74l2.375 1.366a1.128 1.128 0 00.871.112 1.084 1.084 0 00.692-.531l.571-.983a1.124 1.124 0 00.112-.87 1.077 1.077 0 00-.531-.692l-2.375-1.375z" fill="#69A5FF"/></g><defs><clipPath id="clip0"><path fill="#fff" transform="translate(.43 .034)" d="M0 0h12.781v13.718H0z"/></clipPath></defs></svg>