<svg width="16" height="16" fill="none" xmlns="http://www.w3.org/2000/svg"><g clip-path="url(#clip0)" fill="#69A5FF"><path d="M10.277.679v3.626h3.626L10.277.68z"/><path d="M9.788 5.284a.49.49 0 01-.49-.49v-4.4H2.94a.49.49 0 00-.49.489v14.021c0 .27.22.49.49.49H13.7c.27 0 .49-.22.49-.49v-9.62H9.788zm-.978 7.174H4.896a.49.49 0 010-.979H8.81a.49.49 0 010 .979zm2.934-1.957H4.896a.49.49 0 010-.978h6.848a.49.49 0 010 .978zm0-1.956H4.896a.49.49 0 010-.979h6.848a.49.49 0 010 .979z"/></g><defs><clipPath id="clip0"><path fill="#fff" transform="translate(.82 .393)" d="M0 0h15v15H0z"/></clipPath></defs></svg>