<svg width="15" height="15" fill="none" xmlns="http://www.w3.org/2000/svg"><g clip-path="url(#clip0)" fill="#69A5FF"><path d="M4.474 7.393c0-.747.04-1.478.118-2.175H1a7.05 7.05 0 00-.141 3.855h3.686a20.005 20.005 0 01-.07-1.68zm.158 2.499H1.114a6.98 6.98 0 001.592 2.45 6.95 6.95 0 003.34 1.865c-.273-.378-.52-.857-.735-1.431-.31-.83-.54-1.813-.68-2.884zm5.972-5.494h3.379a7.008 7.008 0 00-1.38-1.955A6.95 6.95 0 009.261.578c.272.378.52.857.735 1.432.261.7.465 1.509.607 2.388zm-5.9 0A12.61 12.61 0 015.31 2.01c.215-.575.462-1.054.735-1.432a6.951 6.951 0 00-3.34 1.865 7.006 7.006 0 00-1.381 1.955h3.379zm5.972 5.494c-.14 1.07-.37 2.054-.68 2.884-.214.574-.462 1.053-.734 1.431a6.95 6.95 0 003.34-1.865 6.98 6.98 0 001.592-2.45h-3.518zm3.633-4.674h-3.594a19.988 19.988 0 01.049 3.855h3.686a7.052 7.052 0 00-.141-3.855zM9.85 9.892H5.458c.132.966.342 1.85.62 2.597.446 1.192 1.035 1.903 1.575 1.903s1.129-.711 1.574-1.903c.28-.747.489-1.63.621-2.597zM5.534 4.397h4.239a11.61 11.61 0 00-.545-2.1C8.782 1.103 8.194.392 7.654.392s-1.13.711-1.575 1.903a11.72 11.72 0 00-.545 2.101zm4.356.821H5.417a19.201 19.201 0 00-.05 3.855H9.94a19.2 19.2 0 00-.051-3.855z"/></g><defs><clipPath id="clip0"><path fill="#fff" transform="translate(.654 .393)" d="M0 0h14v14H0z"/></clipPath></defs></svg>