<svg width="16" height="16" fill="none" xmlns="http://www.w3.org/2000/svg"><g clip-path="url(#clip0)" fill="#69A5FF"><path d="M1.37 11.848h11.485a.44.44 0 00.281-.102c.11-.092 2.627-2.257 2.78-6.93H3.582c-.153 4.242-2.47 6.236-2.495 6.256a.44.44 0 00.283.776zM15.491 2.18h-2.197v-.44a.435.435 0 00-.44-.44.435.435 0 00-.44.44v.44h-2.226v-.44a.435.435 0 00-.44-.44.435.435 0 00-.439.44v.44H7.112v-.44a.435.435 0 00-.44-.44.435.435 0 00-.44.44v.44H4.037a.435.435 0 00-.44.439v1.318h12.335V2.62a.435.435 0 00-.44-.44z"/><path d="M13.7 12.42a1.323 1.323 0 01-.846.307H3.596v1.318c0 .243.197.44.44.44H15.49a.44.44 0 00.44-.44V9.119c-.848 2.078-2.03 3.133-2.23 3.3z"/></g><defs><clipPath id="clip0"><path fill="#fff" transform="translate(.931 .393)" d="M0 0h15v15H0z"/></clipPath></defs></svg>