<svg width="16" height="16" fill="none" xmlns="http://www.w3.org/2000/svg"><g clip-path="url(#clip0)" fill="#69A5FF"><path d="M14.406 5.158l-.622-4.35a.44.44 0 00-.745-.249l-.905.905A7.422 7.422 0 008.29.393a7.427 7.427 0 00-7.47 7.28.44.44 0 00.377.446l1.756.252a.44.44 0 00.502-.442 4.836 4.836 0 016.726-4.513l-.872.872a.44.44 0 00.248.746l4.35.621a.44.44 0 00.498-.497zM15.444 7.7l-1.755-.25a.47.47 0 00-.502.472 4.84 4.84 0 01-4.834 4.834 4.84 4.84 0 01-1.884-.382l.845-.845a.44.44 0 00-.249-.746l-4.35-.622a.44.44 0 00-.497.498l.62 4.35a.44.44 0 00.747.249l.927-.927a7.439 7.439 0 003.841 1.062 7.434 7.434 0 007.468-7.245.44.44 0 00-.377-.448z"/></g><defs><clipPath id="clip0"><path fill="#fff" transform="translate(.82 .393)" d="M0 0h15v15H0z"/></clipPath></defs></svg>