<svg width="15" height="17" viewBox="0 0 15 17" fill="none" xmlns="http://www.w3.org/2000/svg">
<path d="M1.54181 6.07544C1.26613 6.07544 1.03222 6.17158 0.839952 6.36385C0.647679 6.55612 0.551514 6.78684 0.551514 7.05613V11.1907C0.551514 11.4667 0.64765 11.7004 0.839952 11.8927C1.03222 12.085 1.26613 12.1812 1.54181 12.1812C1.81728 12.1812 2.04977 12.085 2.23906 11.8927C2.42798 11.7005 2.5227 11.4667 2.5227 11.1907V7.05613C2.5227 6.78681 2.42656 6.55612 2.23426 6.36385C2.04196 6.17158 1.81109 6.07544 1.54181 6.07544Z" fill="#69A5FF"/>
<path d="M9.50359 2.36385L10.1863 1.10444C10.2311 1.02107 10.2152 0.957129 10.1383 0.91217C10.0549 0.873403 9.99084 0.893047 9.94606 0.969713L9.25381 2.23919C8.64467 1.96987 8.00042 1.83497 7.32104 1.83497C6.64152 1.83497 5.99721 1.9699 5.3883 2.23919L4.69602 0.969713C4.65104 0.893047 4.58696 0.873577 4.50375 0.91217C4.42674 0.957331 4.4108 1.02107 4.45578 1.10444L5.13852 2.36385C4.44624 2.71689 3.89488 3.20856 3.48464 3.83995C3.07441 4.47167 2.8692 5.16201 2.8692 5.91218H11.7632C11.7632 5.16219 11.558 4.47182 11.1478 3.83995C10.7375 3.20856 10.1893 2.71689 9.50359 2.36385ZM5.55651 4.19568C5.48268 4.26968 5.3945 4.30651 5.29199 4.30651C5.18929 4.30651 5.1029 4.26968 5.03243 4.19568C4.96195 4.12202 4.92672 4.03419 4.92672 3.93134C4.92672 3.82884 4.96195 3.74083 5.03243 3.667C5.1029 3.59334 5.18949 3.55651 5.29199 3.55651C5.3945 3.55651 5.48268 3.59334 5.55651 3.667C5.63016 3.741 5.66717 3.82884 5.66717 3.93134C5.66696 4.03401 5.62999 4.12202 5.55651 4.19568ZM9.60928 4.19568C9.53866 4.26968 9.45207 4.30651 9.34974 4.30651C9.24701 4.30651 9.15886 4.26968 9.08517 4.19568C9.01137 4.12202 8.97454 4.03419 8.97454 3.93134C8.97454 3.82884 9.01137 3.74083 9.08517 3.667C9.15886 3.59334 9.24701 3.55651 9.34974 3.55651C9.45224 3.55651 9.53863 3.59334 9.60928 3.667C9.67981 3.741 9.71499 3.82884 9.71499 3.93134C9.71499 4.03401 9.67978 4.12202 9.60928 4.19568Z" fill="#69A5FF"/>
<path d="M2.90735 12.6617C2.90735 12.9569 3.00985 13.2067 3.21488 13.4117C3.42009 13.6168 3.66993 13.7193 3.96488 13.7193H4.67645L4.6862 15.9022C4.6862 16.1778 4.78234 16.4119 4.97461 16.6042C5.16689 16.7965 5.39778 16.8927 5.66689 16.8927C5.9424 16.8927 6.17645 16.7965 6.36875 16.6042C6.56105 16.4119 6.65719 16.1779 6.65719 15.9022V13.7195H7.98406V15.9022C7.98406 16.1778 8.08017 16.4119 8.27247 16.6042C8.46477 16.7965 8.69861 16.8927 8.97432 16.8927C9.24983 16.8927 9.48388 16.7965 9.67618 16.6042C9.86848 16.4119 9.96459 16.1779 9.96459 15.9022V13.7195H10.6858C10.9742 13.7195 11.2208 13.6169 11.4262 13.4119C11.6312 13.2069 11.7338 12.957 11.7338 12.6619V6.25781H2.90735V12.6617Z" fill="#69A5FF"/>
<path d="M13.0996 6.07544C12.8303 6.07544 12.5996 6.17016 12.4073 6.35908C12.215 6.54834 12.1189 6.78083 12.1189 7.05613V11.1907C12.1189 11.4667 12.215 11.7004 12.4073 11.8927C12.5996 12.085 12.8305 12.1812 13.0996 12.1812C13.3751 12.1812 13.6092 12.085 13.8015 11.8927C13.9938 11.7004 14.0899 11.4667 14.0899 11.1907V7.05613C14.0899 6.7808 13.9938 6.54834 13.8015 6.35908C13.6092 6.17016 13.3751 6.07544 13.0996 6.07544Z" fill="#69A5FF"/>
</svg>
