<svg width="14" height="14" viewBox="0 0 14 14" fill="none" xmlns="http://www.w3.org/2000/svg">
<g clip-path="url(#clip0)">
<path fill-rule="evenodd" clip-rule="evenodd" d="M10.249 6.90558L12.624 5.53058C12.7559 5.45859 12.8712 5.35986 12.9626 5.24069C13.0541 5.12152 13.1196 4.98454 13.155 4.83856C13.1955 4.69327 13.2065 4.54133 13.1873 4.39172C13.168 4.24212 13.119 4.09791 13.043 3.96759L12.472 2.98557C12.3999 2.85384 12.3011 2.73861 12.182 2.64719C12.0628 2.55576 11.9259 2.49018 11.78 2.45459C11.6347 2.41407 11.4828 2.4031 11.3332 2.42233C11.1836 2.44157 11.0393 2.49063 10.909 2.56659L8.53402 3.93259V1.19159C8.53014 0.889826 8.40861 0.601491 8.1953 0.388C7.982 0.17451 7.69378 0.0527288 7.39202 0.048584H6.24901C5.94708 0.0524704 5.65861 0.174147 5.44509 0.387665C5.23157 0.601182 5.10993 0.889655 5.10604 1.19159V3.93259L2.73104 2.56659C2.60072 2.49063 2.45648 2.44157 2.30688 2.42233C2.15727 2.4031 2.00533 2.41407 1.86004 2.45459C1.71414 2.49018 1.57724 2.55576 1.45809 2.64719C1.33895 2.73861 1.24015 2.85384 1.16802 2.98557L0.597037 3.96759C0.521081 4.09791 0.472018 4.24212 0.452781 4.39172C0.433543 4.54133 0.444522 4.69327 0.485038 4.83856C0.52068 4.98458 0.586393 5.12156 0.678001 5.24072C0.769608 5.35988 0.885074 5.4586 1.01702 5.53058L3.39202 6.90558L1.01702 8.28058C0.885074 8.35256 0.769608 8.45128 0.678001 8.57043C0.586393 8.68959 0.52068 8.82655 0.485038 8.97256C0.444491 9.11769 0.433511 9.2695 0.45275 9.41895C0.47199 9.56839 0.521056 9.71247 0.597037 9.84259L1.16802 10.8256C1.2403 10.9572 1.33915 11.0724 1.45827 11.1638C1.5774 11.2552 1.71421 11.3208 1.86004 11.3566C2.00533 11.3971 2.15727 11.4081 2.30688 11.3888C2.45648 11.3696 2.60072 11.3205 2.73104 11.2446L5.10604 9.87857V12.6196C5.10993 12.9215 5.23157 13.21 5.44509 13.4235C5.65861 13.637 5.94708 13.7587 6.24901 13.7626H7.39202C7.69378 13.7584 7.982 13.6366 8.1953 13.4232C8.40861 13.2097 8.53014 12.9213 8.53402 12.6196V9.87857L10.909 11.2446C11.0393 11.3205 11.1836 11.3696 11.3332 11.3888C11.4828 11.4081 11.6347 11.3971 11.78 11.3566C11.9259 11.3208 12.0627 11.2552 12.1818 11.1638C12.3009 11.0724 12.3998 10.9572 12.472 10.8256L13.043 9.84259C13.119 9.71247 13.1681 9.56839 13.1873 9.41895C13.2065 9.2695 13.1956 9.11769 13.155 8.97256C13.1196 8.82659 13.0541 8.68963 12.9626 8.57047C12.8712 8.4513 12.7559 8.35256 12.624 8.28058L10.249 6.90558Z" fill="#69A5FF"/>
</g>
<defs>
<clipPath id="clip0">
<rect width="12.781" height="13.718" fill="white" transform="translate(0.430054 0.0336914)"/>
</clipPath>
</defs>
</svg>
