<svg width="16" height="16" viewBox="0 0 16 16" fill="none" xmlns="http://www.w3.org/2000/svg">
<g clip-path="url(#clip0)">
<path d="M10.277 0.678955V4.30537H13.9034L10.277 0.678955Z" fill="#69A5FF"/>
<path d="M9.78777 5.2839C9.51774 5.2839 9.29863 5.06479 9.29863 4.79476V0.392578H2.93995C2.66992 0.392578 2.45081 0.611689 2.45081 0.881719V14.9035C2.45081 15.1735 2.66992 15.3926 2.93995 15.3926H13.7008C13.9708 15.3926 14.1899 15.1735 14.1899 14.9035V5.2839H9.78777ZM8.80952 12.4578H4.89645C4.62642 12.4578 4.40731 12.2387 4.40731 11.9687C4.40731 11.6986 4.62642 11.4795 4.89645 11.4795H8.80949C9.07952 11.4795 9.29863 11.6986 9.29863 11.9687C9.29863 12.2387 9.07955 12.4578 8.80952 12.4578ZM11.7443 10.5013H4.89645C4.62642 10.5013 4.40731 10.2821 4.40731 10.0121C4.40731 9.74209 4.62642 9.52298 4.89645 9.52298H11.7443C12.0143 9.52298 12.2334 9.74209 12.2334 10.0121C12.2334 10.2821 12.0143 10.5013 11.7443 10.5013ZM11.7443 8.54476H4.89645C4.62642 8.54476 4.40731 8.32564 4.40731 8.05562C4.40731 7.78559 4.62642 7.56647 4.89645 7.56647H11.7443C12.0143 7.56647 12.2334 7.78559 12.2334 8.05562C12.2334 8.32564 12.0143 8.54476 11.7443 8.54476Z" fill="#69A5FF"/>
</g>
<defs>
<clipPath id="clip0">
<rect width="15" height="15" fill="white" transform="translate(0.820679 0.392578)"/>
</clipPath>
</defs>
</svg>
