<svg width="16" height="16" viewBox="0 0 16 16" fill="none" xmlns="http://www.w3.org/2000/svg">
<path d="M15.614 5.77736C15.5669 5.63851 15.4801 5.5165 15.3644 5.4264C15.2488 5.3363 15.1092 5.28206 14.963 5.27036L10.6873 4.9306L8.837 0.83483C8.77808 0.702913 8.68223 0.59087 8.56104 0.512221C8.43984 0.433573 8.29847 0.391681 8.15399 0.391602C8.00951 0.391522 7.8681 0.433259 7.74682 0.511774C7.62553 0.59029 7.52957 0.702228 7.4705 0.83408L5.62024 4.9306L1.34446 5.27036C1.2008 5.28174 1.06346 5.33426 0.948874 5.42166C0.834286 5.50905 0.747301 5.6276 0.698326 5.76313C0.649351 5.89866 0.640459 6.04544 0.672715 6.18589C0.704971 6.32634 0.777008 6.45453 0.880208 6.55511L4.03998 9.63538L2.92247 14.4744C2.88854 14.6209 2.89941 14.7742 2.95368 14.9144C3.00796 15.0546 3.10312 15.1753 3.22682 15.2607C3.35053 15.3462 3.49706 15.3925 3.64741 15.3937C3.79776 15.3948 3.94498 15.3507 4.06998 15.2672L8.15375 12.5446L12.2375 15.2672C12.3653 15.352 12.5159 15.3957 12.6693 15.3923C12.8226 15.3889 12.9712 15.3387 13.0951 15.2484C13.219 15.158 13.3123 15.0319 13.3624 14.887C13.4125 14.742 13.417 14.5852 13.3753 14.4377L12.0035 9.63763L15.4055 6.57611C15.6283 6.37511 15.71 6.06161 15.614 5.77736Z" fill="#69A5FF"/>
</svg>
