<svg width="15" height="15" viewBox="0 0 15 15" fill="none" xmlns="http://www.w3.org/2000/svg">
<g clip-path="url(#clip0)">
<path d="M4.47398 7.39272C4.47398 6.6461 4.51446 5.91525 4.59236 5.21753H0.998996C0.773375 5.91068 0.655945 6.64265 0.655945 7.39272C0.655945 7.96631 0.724746 8.52927 0.857866 9.07244H4.54371C4.49765 8.52697 4.47398 7.96445 4.47398 7.39272Z" fill="#69A5FF"/>
<path d="M4.63186 9.89209H1.11377C1.46037 10.8006 1.99775 11.6339 2.70574 12.3421C3.63964 13.2763 4.79119 13.9135 6.04586 14.2072C5.77338 13.8293 5.52595 13.3498 5.31132 12.7756C5.00137 11.9463 4.77157 10.9628 4.63186 9.89209V9.89209Z" fill="#69A5FF"/>
<path d="M10.6039 4.39753H13.9828C13.6432 3.68089 13.1793 3.02038 12.6021 2.44298C11.6682 1.50876 10.5167 0.87162 9.26202 0.577881C9.5345 0.955783 9.78193 1.43526 9.99656 2.00954C10.258 2.70911 10.4624 3.51861 10.6039 4.39753Z" fill="#69A5FF"/>
<path d="M4.70389 4.39753C4.84534 3.51861 5.04972 2.70911 5.31124 2.00954C5.52587 1.43529 5.77327 0.955783 6.04577 0.577881C4.79111 0.87162 3.63958 1.50876 2.70569 2.44298C2.12846 3.02038 1.66456 3.68089 1.32501 4.39753H4.70389Z" fill="#69A5FF"/>
<path d="M10.6759 9.89209C10.5363 10.9628 10.3065 11.9463 9.9965 12.7756C9.78187 13.3498 9.53444 13.8293 9.26196 14.2072C10.5166 13.9135 11.6682 13.2763 12.602 12.3421C13.31 11.6339 13.8474 10.8006 14.194 9.89209H10.6759Z" fill="#69A5FF"/>
<path d="M14.3087 5.21753H10.7153C10.7932 5.91528 10.8337 6.64612 10.8337 7.39272C10.8337 7.96442 10.81 8.52697 10.7639 9.07244H14.4498C14.5829 8.52927 14.6517 7.96631 14.6517 7.39272C14.6517 6.64265 14.5343 5.91068 14.3087 5.21753V5.21753Z" fill="#69A5FF"/>
<path d="M9.84911 9.89209H5.4588C5.5911 10.8583 5.80076 11.7425 6.0796 12.4885C6.52518 13.6806 7.11373 14.3923 7.65397 14.3923C8.19421 14.3923 8.78276 13.6806 9.22834 12.4885C9.50716 11.7425 9.71681 10.8583 9.84911 9.89209V9.89209Z" fill="#69A5FF"/>
<path d="M5.53436 4.39733H9.77294C9.64157 3.62384 9.45843 2.91292 9.22802 2.29644C8.78241 1.10432 8.19387 0.392578 7.65362 0.392578C7.11338 0.392578 6.52486 1.10432 6.07925 2.29644C5.84885 2.91292 5.66571 3.62384 5.53436 4.39733Z" fill="#69A5FF"/>
<path d="M9.88987 5.21753H5.41725C5.33618 5.91131 5.29395 6.64276 5.29395 7.39272C5.29395 7.96631 5.31874 8.52902 5.36657 9.07244H9.94055C9.98838 8.52902 10.0132 7.96634 10.0132 7.39272C10.0132 6.64276 9.97097 5.91131 9.88987 5.21753V5.21753Z" fill="#69A5FF"/>
</g>
<defs>
<clipPath id="clip0">
<rect width="14" height="14" fill="white" transform="translate(0.653687 0.392578)"/>
</clipPath>
</defs>
</svg>
