<svg width="16" height="16" viewBox="0 0 16 16" fill="none" xmlns="http://www.w3.org/2000/svg">
<g clip-path="url(#clip0)">
<path d="M1.36977 11.848H12.8547C12.9577 11.848 13.0572 11.8119 13.1362 11.7462C13.2465 11.6539 15.7628 9.48917 15.9163 4.81641H3.58172C3.42888 9.05801 1.11145 11.0517 1.08736 11.0716C0.946176 11.1909 0.894231 11.3858 0.957749 11.5591C1.02083 11.7321 1.18522 11.848 1.36977 11.848V11.848Z" fill="#69A5FF"/>
<path d="M15.4911 2.17948H13.2938V1.74001C13.2938 1.49391 13.1004 1.30054 12.8543 1.30054C12.6082 1.30054 12.4148 1.49391 12.4148 1.74001V2.17948H10.1882V1.74001C10.1882 1.49391 9.99479 1.30054 9.74869 1.30054C9.50259 1.30054 9.30922 1.49391 9.30922 1.74001V2.17948H7.11185V1.74001C7.11185 1.49391 6.91848 1.30054 6.67238 1.30054C6.42627 1.30054 6.23291 1.49391 6.23291 1.74001V2.17948H4.03554C3.78944 2.17948 3.59607 2.37285 3.59607 2.61896V3.93737H15.9306V2.61896C15.9306 2.37285 15.7372 2.17948 15.4911 2.17948Z" fill="#69A5FF"/>
<path d="M13.7003 12.4197C13.4616 12.6184 13.1621 12.7266 12.8544 12.7266H3.59613V14.045C3.59613 14.288 3.79269 14.4845 4.0356 14.4845H15.4912C15.7341 14.4845 15.9307 14.288 15.9307 14.045V9.11865C15.0834 11.1974 13.901 12.2517 13.7003 12.4197Z" fill="#69A5FF"/>
</g>
<defs>
<clipPath id="clip0">
<rect width="15" height="15" fill="white" transform="translate(0.93103 0.392578)"/>
</clipPath>
</defs>
</svg>
