<svg width="16" height="16" viewBox="0 0 16 16" fill="none" xmlns="http://www.w3.org/2000/svg">
<g clip-path="url(#clip0)">
<path d="M14.4059 5.15786L13.7845 0.807539C13.7334 0.450879 13.2951 0.302666 13.0387 0.559072L12.1336 1.46417C10.9697 0.76207 9.64833 0.392578 8.28963 0.392578C4.20365 0.392578 0.923191 3.59063 0.821062 7.67317C0.815495 7.89633 0.977712 8.08772 1.19829 8.11948L2.95437 8.37053C3.21617 8.40873 3.45971 8.20318 3.45608 7.92938C3.41967 5.23494 5.5959 3.0293 8.28963 3.0293C8.94192 3.0293 9.58651 3.16189 10.1822 3.41552L9.30974 4.28798C9.05495 4.54277 9.19956 4.98249 9.55821 5.03385L13.9085 5.65526C14.1952 5.69848 14.447 5.44919 14.4059 5.15786Z" fill="#69A5FF"/>
<path d="M15.4436 7.69973L13.6888 7.44909C13.4621 7.42038 13.1871 7.61465 13.1871 7.92203C13.1871 10.5875 11.0186 12.756 8.35311 12.756C7.70425 12.756 7.06265 12.6247 6.46915 12.3736L7.31372 11.5291C7.56851 11.2743 7.42391 10.8346 7.06525 10.7832L2.71493 10.1613C2.4292 10.1205 2.17616 10.3656 2.21753 10.6587L2.83892 15.0091C2.89007 15.3661 3.32806 15.5133 3.58478 15.2576L4.51177 14.331C5.67005 15.0267 6.99055 15.3927 8.35311 15.3927C12.4193 15.3927 15.6994 12.2106 15.8208 8.1482C15.8272 7.92461 15.665 7.73148 15.4436 7.69973Z" fill="#69A5FF"/>
</g>
<defs>
<clipPath id="clip0">
<rect width="15" height="15" fill="white" transform="translate(0.820679 0.392578)"/>
</clipPath>
</defs>
</svg>
