<svg width="83" height="24" fill="none" xmlns="http://www.w3.org/2000/svg"><path d="M74.322 0H58.374c.929 5.265 6.039 10.22 11.613 10.22h12.697c.154-.465.154-1.24.154-1.704 0-4.645-3.87-8.516-8.516-8.516z" fill="url(#paint0_linear)"/><path d="M59.768 11.148V24h7.742v-6.813h6.813c3.716 0 6.968-2.632 8.052-6.039H59.768zM32.518 0v23.845h6.813s1.703 0 2.632-1.703c4.645-9.136 6.039-11.923 6.039-11.923h.929v13.626h7.742V0H49.86s-1.704.155-2.633 1.703C43.357 9.6 41.19 13.626 41.19 13.626h-.93V0h-7.741zM0 24V.155h7.742s2.168 0 3.407 3.406c3.097 8.981 3.406 10.22 3.406 10.22s.62-2.168 3.407-10.22C19.2.155 21.368.155 21.368.155h7.742V24h-7.742V11.15h-.929L16.104 24h-3.407L8.362 11.15h-.93V24H0z" fill="#4FAD50"/><defs><linearGradient id="paint0_linear" x1="58.346" y1="5.183" x2="82.784" y2="5.183" gradientUnits="userSpaceOnUse"><stop stop-color="#27B1E6"/><stop offset="1" stop-color="#148ACA"/></linearGradient></defs></svg>