<svg width="99" height="24" fill="none" xmlns="http://www.w3.org/2000/svg"><path d="M37.333 10.286c-.254 1.905-1.777 1.905-3.174 1.905h-.762l.635-3.683c0-.254.254-.38.508-.38h.38c1.017 0 1.905 0 2.413.507v1.65zm-.635-5.08h-5.46c-.38 0-.635.255-.762.635L28.317 19.81c0 .254.128.508.509.508h2.54c.38 0 .634-.254.761-.635l.635-3.81c0-.38.38-.635.762-.635h1.778c3.555 0 5.587-1.777 6.222-5.206.254-1.524 0-2.667-.635-3.556-1.016-.762-2.413-1.27-4.19-1.27zM49.27 15.365c-.255 1.524-1.397 2.54-2.921 2.54-.762 0-1.397-.255-1.778-.762-.38-.508-.508-1.143-.38-1.778.253-1.524 1.396-2.54 2.92-2.54.762 0 1.397.254 1.778.762.253.381.508 1.016.38 1.778zm3.555-5.08h-2.54c-.254 0-.38.127-.508.381l-.127.762-.127-.254c-.508-.762-1.777-1.143-3.047-1.143-2.92 0-5.334 2.16-5.841 5.207-.254 1.524.127 2.92 1.016 3.936.761.89 1.904 1.27 3.301 1.27 2.286 0 3.556-1.524 3.556-1.524l-.127.762c0 .254.127.508.508.508h2.285c.381 0 .635-.254.762-.635l1.397-8.889c0-.127-.127-.38-.508-.38zm13.842.001H64a.698.698 0 00-.635.38L59.81 16l-1.524-5.08c-.127-.38-.381-.507-.762-.507h-2.54c-.254 0-.508.254-.38.635l2.92 8.38-2.667 3.81c-.254.254 0 .762.381.762h2.667a.698.698 0 00.635-.381l8.635-12.571c.127-.381-.127-.762-.508-.762zm9.269 0c-.254 1.905-1.777 1.905-3.174 1.905H72l.635-3.683c0-.254.254-.38.508-.38h.38c1.017 0 1.906 0 2.413.507.127.508.127 1.016 0 1.65zm-.634-5.08h-5.46c-.382 0-.636.255-.763.635L66.921 19.81c0 .254.127.508.508.508h2.793c.254 0 .508-.127.508-.508l.635-3.937c0-.38.381-.635.762-.635h1.778c3.555 0 5.587-1.777 6.222-5.206.254-1.524 0-2.667-.635-3.556-.889-.762-2.286-1.27-4.19-1.27zM88 15.365c-.254 1.524-1.397 2.54-2.92 2.54-.763 0-1.397-.255-1.778-.762-.381-.508-.508-1.143-.381-1.778.254-1.524 1.396-2.54 2.92-2.54.762 0 1.397.254 1.778.762.254.381.508 1.016.38 1.778zm3.555-5.08h-2.54c-.253 0-.38.127-.507.381l-.127.762-.127-.254c-.508-.762-1.778-1.143-3.048-1.143-2.92 0-5.333 2.16-5.84 5.207-.255 1.524.126 2.92 1.015 3.936.762.89 1.905 1.27 3.302 1.27 2.285 0 3.555-1.524 3.555-1.524l-.127.762c0 .254.127.508.508.508h2.286c.38 0 .635-.254.762-.635l1.396-8.889c0-.127-.254-.38-.508-.38zm3.048-4.698L92.318 19.81c0 .254.127.508.508.508h2.285c.381 0 .635-.254.762-.635l2.159-13.969c0-.253-.127-.507-.508-.507h-2.54c-.127 0-.254.254-.38.38zM5.713 22.984l.381-2.667H.761L3.808.89s0-.127.127-.127h7.62c2.412 0 4.19.508 5.079 1.524.38.508.635 1.016.762 1.524.127.634.127 1.27 0 2.158v.508l.38.254c.382.127.636.381.89.635.38.381.634.889.634 1.524.127.635.127 1.397-.127 2.286-.253 1.015-.507 1.777-.888 2.54-.381.634-.89 1.142-1.397 1.65-.508.381-1.27.635-1.905.889-.762.127-1.524.254-2.413.254h-.635c-.38 0-.761.127-1.142.38a2.763 2.763 0 00-.635 1.017v.254l-.762 4.698v.254H5.713v-.127z" fill="#fff"/><path d="M18.286 5.968c0 .127 0 .254-.127.381-1.016 5.08-4.317 6.73-8.635 6.73H7.366c-.508 0-1.016.381-1.016.89l-1.143 7.11-.254 2.032c0 .381.254.635.508.635h3.936c.508 0 .89-.381.89-.762v-.254l.761-4.571v-.254c.127-.508.508-.762.889-.762h.635c3.81 0 6.73-1.524 7.492-5.968.38-1.905.127-3.429-.762-4.445-.254-.254-.635-.508-1.016-.762z" fill="#fff"/><path d="M17.27 5.587c-.127 0-.254-.126-.508-.126-.127 0-.38-.127-.508-.127-.635-.127-1.27-.127-1.905-.127H8.51c-.128 0-.255 0-.382.127-.254.127-.508.38-.508.634l-1.27 7.873v.254c.127-.508.508-.889 1.016-.889h2.16c4.316 0 7.618-1.777 8.634-6.73 0-.127 0-.254.127-.38l-.762-.382c-.127-.127-.254-.127-.254-.127z" fill="#252C5E"/><path d="M7.619 5.968c0-.254.254-.508.508-.635.127 0 .254-.127.38-.127h5.842c.635 0 1.397 0 1.905.127.127 0 .38 0 .508.127.127 0 .254.127.508.127.127 0 .127 0 .254.127l.762.381c.254-1.905 0-3.174-1.016-4.317C16.127.508 14.095 0 11.556 0H4.063c-.507 0-1.015.38-1.015.889L0 20.444c0 .381.254.762.635.762h4.571l1.143-7.365 1.27-7.873z" fill="#fff"/></svg>