<svg width="84" height="24" fill="none" xmlns="http://www.w3.org/2000/svg"><path fill-rule="evenodd" clip-rule="evenodd" d="M3.212 9.089c-.177.442-.265.913-.383 1.385-.295 1.414-.53 2.917-.855 4.332H0C.737 10.032 2.092 5.376 2.682.248h1.915c-.088.471-.206.913-.265 1.385 0 .03-.059.059-.059.118C5.157.6 6.513-.194 8.664.04c2.122.207 3.271 1.887 3.36 3.861.206 3.772-1.798 7.19-5.924 6.896-1.355-.089-2.387-.59-2.888-1.71zm2.77-7.161c-1.738.884-3.418 4.95-1.444 6.69 1.297 1.148 3.33.53 4.185-.531.972-1.209 1.856-4.686.383-5.924-.5-.412-1.297-.56-2.033-.471-.53.03-.796.088-1.09.236zm15.148 8.663h-1.886c.088-.589.206-1.149.324-1.709-.56.825-1.533 1.768-2.947 1.916-2.033.206-3.89-.825-4.067-2.505-.059-.56-.03-1.474.442-2.18 1.179-1.858 4.244-1.975 7.28-1.887.913-3.36-3.98-2.859-5.659-1.768.088-.648.236-1.267.324-1.916 3.036-.943 7.132-.707 7.368 2.564.088 1.297-.295 2.564-.53 3.802-.237 1.208-.472 2.387-.65 3.683zM14.706 7.91c.058.854 1.001 1.326 1.768 1.326 2.092.03 3.094-1.798 3.418-3.595-2.357-.118-5.334.176-5.186 2.269zM25.669.277c.442 2.74.972 5.393 1.385 8.193 1.562-2.682 3.006-5.482 4.538-8.193h2.151c-1.886 3.419-4.096 7.161-6.218 10.757-.648 1.12-1.296 2.622-2.24 3.36-.824.647-2.416.795-3.742.53.03-.59.236-1.032.265-1.592.265-.03.59.148.914.148 1.444 0 2.24-1.327 2.77-2.358-.619-3.566-1.297-7.102-1.916-10.697-.059-.06-.029-.089 0-.148h2.093z" fill="#fff"/><path fill-rule="evenodd" clip-rule="evenodd" d="M34.597 16.633c-.441 2.505-1.001 4.862-1.444 7.367H28.97c.648-3.065 1.208-6.1 1.827-9.136.619-3.006 1.356-6.011 1.71-9.194a26.442 26.442 0 013.742 0c-.03.707-.206 1.297-.265 1.974 1.09-1.09 2.269-2.534 4.774-2.298 2.387.236 3.713 2.24 3.89 4.774.324 4.361-1.798 8.634-5.63 8.93-2.386.176-3.506-.915-4.42-2.417zm1.68-6.513c-.972 1.385-1.296 4.037-.059 5.069.766.648 2.181.324 2.83-.207.825-.677 1.414-1.974 1.384-3.595-.029-1.473-.677-2.711-2.24-2.505-.913.118-1.473.59-1.915 1.238zm19.833 8.664c-1.09-.03-2.327.059-3.33-.059.119-.59.119-1.326.207-1.915-.324.324-.56.795-.972 1.178-1.356 1.238-4.391 1.503-5.894.266-1.621-1.356-1.356-4.598 0-5.983 1.562-1.62 4.509-2.033 7.544-1.709.295-1.238-.53-2.004-1.562-2.151-1.503-.206-3.507.442-4.39.972.176-1.06.235-2.21.441-3.27 1.061-.384 2.063-.679 3.33-.737 3.507-.236 5.924.943 6.16 3.948.117 1.592-.354 3.242-.708 4.804-.324 1.532-.56 3.094-.825 4.656zm-4.213-5.894c-1.267.03-2.652.442-2.947 1.385-.236.825.353 1.592.972 1.71 1.945.412 3.271-1.503 3.419-3.036-.442-.088-1.09-.059-1.444-.059zm17.061-6.778c-.206 1.061-.59 1.945-.796 3.006-1.031-.354-2.269-.884-3.89-.707-.648.088-1.296.412-1.296 1.06.03.796 1.237 1.091 1.974 1.386 1.032.442 2.27 1.031 2.77 1.915.855 1.533 0 3.772-.913 4.715-.766.796-2.21 1.444-3.684 1.562-1.915.148-3.92-.206-5.57-.648.236-1.09.501-2.093.796-3.094 1.09.442 2.328.854 4.008.707.796-.089 1.68-.354 1.562-1.297-.089-.766-1.238-1.031-2.092-1.385-1.592-.648-2.77-1.473-2.77-3.625 0-4.42 6.129-5.157 9.901-3.595zm10.432 0c-.235 1.032-.559 2.004-.854 3.006-.972-.383-2.24-.884-3.86-.707-.648.059-1.297.383-1.297 1.061.03.825 1.503 1.267 2.18 1.562 1.386.59 2.712 1.237 2.889 2.829.177 1.562-.472 2.829-1.385 3.684-.855.825-2.122 1.385-3.537 1.502-1.944.148-3.83-.206-5.57-.648.178-1.12.531-2.033.737-3.094.796.236 1.562.619 2.505.707 1.327.118 3.124.03 3.095-1.12-.03-1.237-2.594-1.503-3.596-2.298-1.09-.855-1.768-2.947-.913-4.656 1.414-2.653 6.277-3.242 9.607-1.828z" fill="#009651"/><path d="M80.952 7.468h-.53l.03-.206h1.296l-.03.206h-.53l-.295 1.62h-.236l.295-1.62zm2.18 1.621l.118-.973c.03-.176.059-.442.088-.619-.088.177-.177.413-.295.59l-.53 1.002h-.177l-.147-.973c-.03-.206-.06-.412-.06-.619a4.641 4.641 0 01-.147.62l-.235.972h-.207l.472-1.827h.295l.147 1.031c.03.147.03.324.03.472.058-.148.147-.295.206-.442l.56-1.061h.294l-.235 1.827h-.177z" fill="#009651"/></svg>