<svg width="79" height="24" fill="none" xmlns="http://www.w3.org/2000/svg"><path d="M72.915.343H68c-1.486 0-2.628.457-3.314 1.943l-9.372 21.371h6.63s1.142-2.857 1.37-3.543h8.115c.228.8.8 3.429.8 3.429h5.943L72.915.343zm-7.772 14.971c.572-1.371 2.514-6.514 2.514-6.514 0 .114.572-1.371.8-2.171l.458 2.057s1.257 5.6 1.485 6.743h-5.257v-.115zM55.772 16c0 4.8-4.343 8-11.085 8-2.857 0-5.6-.571-7.086-1.257l.914-5.257.8.343c2.057.914 3.429 1.257 5.943 1.257 1.829 0 3.771-.686 3.771-2.286 0-1.029-.8-1.714-3.314-2.857-2.4-1.143-5.6-2.972-5.6-6.286C40.115 3.086 44.572 0 50.858 0c2.4 0 4.457.457 5.714 1.029l-.914 5.028-.457-.457c-1.143-.457-2.629-.914-4.8-.914-2.4.114-3.543 1.143-3.543 2.057 0 1.028 1.372 1.828 3.543 2.857 3.657 1.714 5.371 3.657 5.371 6.4z" fill="#fff"/><path d="M0 .572L.114.114h9.829c1.371 0 2.4.458 2.743 1.943l2.171 10.286C12.686 6.857 7.657 2.4 0 .572z" fill="#F9B50B"/><path d="M28.685.343l-9.942 23.2H12L6.285 4.114c4.115 2.629 7.543 6.743 8.8 9.6l.686 2.4L21.942.23h6.743v.114zm2.63-.114H37.6l-4 23.314h-6.286l4-23.314z" fill="#fff"/></svg>