<svg width="18" height="21" fill="none" xmlns="http://www.w3.org/2000/svg"><path d="M1.714 7.021h-.051c-.657 0-1.192.538-1.192 1.193v5.19c0 .658.535 1.194 1.192 1.194h.052c.657 0 1.192-.538 1.192-1.193V8.214c0-.655-.537-1.193-1.193-1.193zm1.764 8.387c0 .603.492 1.094 1.095 1.094h1.171v2.804c0 .659.537 1.194 1.192 1.194h.052c.657 0 1.194-.536 1.194-1.194v-2.804h1.636v2.804c0 .659.539 1.194 1.194 1.194h.05c.658 0 1.193-.536 1.193-1.194v-2.804h1.172c.602 0 1.095-.49 1.095-1.094V7.212H3.478v8.196zM11.75 2.241l.93-1.435a.198.198 0 00-.33-.216l-.964 1.485A6.287 6.287 0 009 1.613a6.28 6.28 0 00-2.385.463L5.652.59a.198.198 0 00-.275-.059.197.197 0 00-.058.274L6.25 2.24c-1.678.823-2.81 2.373-2.81 4.151 0 .11.007.217.017.324h11.088a3.48 3.48 0 00.015-.324c0-1.778-1.132-3.328-2.81-4.15zM6.43 4.812a.533.533 0 11-.003-1.065.533.533 0 01.003 1.065zm5.14 0a.533.533 0 11-.002-1.065.533.533 0 01.002 1.065zm4.767 2.209h-.05c-.656 0-1.193.538-1.193 1.193v5.19c0 .658.538 1.194 1.194 1.194h.05c.658 0 1.192-.538 1.192-1.193V8.214c0-.655-.536-1.193-1.193-1.193z" fill="#69A5FF"/></svg>