<svg width="21" height="23" fill="none" xmlns="http://www.w3.org/2000/svg"><path d="M10.5 6.528A3.264 3.264 0 1010.5 0a3.264 3.264 0 000 6.528zm3.476 12.669l2.07-2.39a.601.601 0 00-.319-.979l-3.079-.717-1.633-2.707a.601.601 0 00-1.03 0L8.35 15.111l-3.078.717a.601.601 0 00-.319.98l2.07 2.39-.27 3.15a.601.601 0 00.833.605l2.913-1.23 2.912 1.23a.602.602 0 00.833-.606l-.269-3.15zm6.427-.535l-1.69-1.391-.183-2.181a.601.601 0 00-.923-.457l-.637.407c.213.214.378.477.474.772a1.96 1.96 0 01-.38 1.878l-1.697 1.96.177 2.073.877 1.016a.601.601 0 001.015-.173l.8-2.038 2.018-.848a.601.601 0 00.15-1.018zm-16.848-2.85c.096-.295.261-.558.475-.772l-.638-.407a.602.602 0 00-.923.457l-.182 2.181-1.69 1.39a.601.601 0 00.148 1.02l2.019.847.8 2.038a.602.602 0 001.015.173l.876-1.016.177-2.073-1.697-1.96a1.96 1.96 0 01-.38-1.878z" fill="#69A5FF"/><path d="M7.492 13.928l1.34-2.22c.35-.58.99-.942 1.668-.942a1.96 1.96 0 011.669.942l1.34 2.22 2.524.588c.09.02.177.048.262.081V9.065c0-1.385-.97-2.547-2.263-2.84a4.611 4.611 0 01-2.858 1.601v1.23a.674.674 0 01-1.348 0v-1.23a4.611 4.611 0 01-2.858-1.6 2.914 2.914 0 00-2.263 2.84v5.531c.085-.033.172-.06.262-.082l2.525-.588z" fill="#69A5FF"/></svg>