<svg width="20" height="21" fill="none" xmlns="http://www.w3.org/2000/svg"><path d="M18.307 4.936l-.3.095-1.593.142-.45.718-.327-.103-1.268-1.144-.184-.594-.246-.634-.797-.715-.94-.184-.022.43.921.899.45.53-.506.266-.413-.122-.618-.258.021-.498-.81-.334-.27 1.172-.818.185.081.654 1.065.205.184-1.044.88.13.408.239h.656l.449.899 1.19 1.207-.088.469-.959-.122-1.658.837-1.193 1.432-.156.634h-.428l-.798-.368-.776.368.193.818.337-.39.594-.018-.042.735.492.144.49.551.802-.225.916.144 1.063.286.53.063.9 1.021 1.738 1.022-1.123 2.147-1.186.551-.45 1.227-1.717 1.146-.183.66C16.736 19.153 20 15.211 20 10.5a9.957 9.957 0 00-1.693-5.563z" fill="#69A5FF"/><path d="M11.15 15.726l-.728-1.35.669-1.393-.668-.2-.751-.754-1.663-.373-.552-1.155v.686h-.243L5.78 9.244V7.648L4.73 5.94l-1.668.297H1.939l-.565-.37.72-.572-.719.166a9.938 9.938 0 00-1.372 5.04C.003 16.02 4.479 20.5 10 20.5c.425 0 .842-.038 1.255-.087L11.15 19.2s.46-1.799.46-1.86c-.001-.062-.46-1.615-.46-1.615zM3.719 3.724l1.776-.247.818-.449.922.265 1.472-.081.504-.793.735.121 1.786-.167.492-.542.694-.464.981.148.358-.054A9.963 9.963 0 002.29 4.136h.005l1.424-.412zm6.705-2.23l1.02-.562.656.379-.949.723-.906.09-.408-.264.587-.366zm-3.025.083l.45.187.59-.187.322.557L7.4 2.49l-.655-.383s.64-.412.655-.531z" fill="#69A5FF"/></svg>