<svg width="20" height="21" fill="none" xmlns="http://www.w3.org/2000/svg"><g clip-path="url(#clip0)" fill="#69A5FF"><path d="M18.696 4.396H17.24c.192-.304.319-.645.355-1.006.115-1.153-.492-2.187-1.526-2.645a2.556 2.556 0 00-2.787.448L11.444 2.86a1.952 1.952 0 00-2.89.002l-1.84-1.668A2.558 2.558 0 003.926.745c-1.033.458-1.64 1.492-1.525 2.645.036.36.163.702.355 1.006H1.304C.584 4.396 0 4.98 0 5.7v1.956c0 .36.292.653.652.653h18.696c.36 0 .652-.292.652-.653V5.7c0-.72-.584-1.304-1.304-1.304zM8.043 4.178v.218H4.975c-.81 0-1.448-.756-1.246-1.6a1.28 1.28 0 01.705-.849 1.255 1.255 0 011.404.213l2.206 1.999v.02zm8.258-.961c-.049.677-.661 1.179-1.34 1.179h-3.005v-.241l2.172-1.968c.334-.303.801-.444 1.233-.315.62.185.985.712.94 1.345zM1.305 9.613v9.565c0 .72.584 1.304 1.304 1.304h6.087V9.612H1.305zm10 0v10.87h6.087c.72 0 1.304-.585 1.304-1.305V9.613h-7.391z"/></g><defs><clipPath id="clip0"><path fill="#fff" transform="translate(0 .5)" d="M0 0h20v20H0z"/></clipPath></defs></svg>