<svg width="20" height="19" fill="none" xmlns="http://www.w3.org/2000/svg"><path d="M19.664 8.605l-3.03-3.031V2.072a1.146 1.146 0 00-2.293 0v1.209l-2.257-2.257c-1.116-1.115-3.056-1.113-4.17.002L.336 8.605a1.147 1.147 0 001.621 1.62l7.579-7.578a.677.677 0 01.927 0l7.58 7.579a1.144 1.144 0 001.621 0 1.147 1.147 0 000-1.621z" fill="#69A5FF"/><path d="M10.397 4.823a.563.563 0 00-.796 0l-6.667 6.664a.564.564 0 00-.164.399v4.86c0 1.141.924 2.066 2.065 2.066h3.3v-5.111h3.727v5.111h3.3c1.14 0 2.066-.925 2.066-2.065v-4.861c0-.15-.06-.294-.165-.399l-6.666-6.664z" fill="#69A5FF"/></svg>