<svg width="20" height="21" fill="none" xmlns="http://www.w3.org/2000/svg"><path d="M19.036 6.21l-1.059.504a8.737 8.737 0 01.851 3.786c0 4.868-3.96 8.828-8.828 8.828-4.868 0-8.828-3.96-8.828-8.828 0-4.868 3.96-8.828 8.828-8.828a8.76 8.76 0 015.363 1.815l-.92.17.212 1.153 2.576-.477.062-2.62-1.172-.027-.02.889A9.924 9.924 0 0010 .5a9.935 9.935 0 00-7.071 2.929A9.935 9.935 0 000 10.5a9.935 9.935 0 002.929 7.071A9.935 9.935 0 0010 20.5a9.935 9.935 0 007.071-2.929A9.935 9.935 0 0020 10.5c0-1.5-.324-2.944-.964-4.29z" fill="#69A5FF"/><path d="M16.982 9.914a7.018 7.018 0 00-6.396-6.396v2.231H9.414V3.518a7.018 7.018 0 00-6.396 6.396h2.231v1.172H3.018a7.018 7.018 0 006.396 6.396V15.25h1.172v2.232a7.018 7.018 0 006.396-6.396H14.75V9.914h2.232zm-3.608 1.172h-3.96v-3.96h1.172v2.788h2.788v1.172z" fill="#69A5FF"/></svg>