<svg width="21" height="23" fill="none" xmlns="http://www.w3.org/2000/svg"><g clip-path="url(#clip0)" fill="#69A5FF"><path d="M10.5 0C6.8 0 3.79 3.01 3.79 6.708c0 3.7 3.01 6.709 6.708 6.709 3.7 0 6.709-3.01 6.709-6.709S14.198 0 10.499 0zm3.629 6.475l-1.305 1.337.31 1.896a.718.718 0 01-1.057.744l-1.578-.872-1.577.873a.718.718 0 01-1.058-.745l.31-1.896L6.87 6.475a.718.718 0 01.406-1.212l1.774-.271.8-1.703c.235-.505 1.064-.505 1.3 0l.8 1.703 1.773.271a.717.717 0 01.406 1.212zm-9.417 5.964l-3.71 6.66a.727.727 0 00.03.738.7.7 0 00.66.326l2.952-.22 1.304 2.654A.74.74 0 006.57 23h.019a.737.737 0 00.632-.364l2.415-4.294-2.348-4.15a8.201 8.201 0 01-2.577-1.753zM19.987 19.1l-3.737-6.623a8.079 8.079 0 01-4.6 2.291 7.553 7.553 0 01-1.15.086 7.4 7.4 0 01-1.236-.096l1.198 2.118 3.248 5.76c.125.22.364.364.623.364h.02a.742.742 0 00.632-.402l1.313-2.655 3.009.23a.71.71 0 00.661-.335.705.705 0 00.02-.738z"/></g><defs><clipPath id="clip0"><path fill="#fff" d="M0 0h21v23H0z"/></clipPath></defs></svg>