<svg width="20" height="17" fill="none" xmlns="http://www.w3.org/2000/svg"><path d="M10.407 12.209a1.318 1.318 0 00-1.8.482l.39-.676a1.318 1.318 0 00-2.284-1.319l.391-.676a1.318 1.318 0 10-2.283-1.318l-.391.676A1.318 1.318 0 002.147 8.06L.73 10.512a1.318 1.318 0 102.283 1.319 1.318 1.318 0 102.283 1.318 1.318 1.318 0 102.284 1.318 1.318 1.318 0 002.283 1.319l1.026-1.776a1.318 1.318 0 00-.483-1.801z" fill="#69A5FF"/><path d="M12.702 6.727a3.31 3.31 0 01-2.724-1.332l-1.398.807a2.621 2.621 0 01-2 .263 2.62 2.62 0 01-1.602-1.228 2.62 2.62 0 01-.263-2.001c.15-.562.474-1.047.926-1.397l-1.437-.83a.586.586 0 00-.81.23L.07 7.44a.586.586 0 00.223.784l.305.176.534-.926a2.491 2.491 0 013.98-.452 2.483 2.483 0 012.096.183 2.474 2.474 0 011.207 1.724 2.495 2.495 0 011.893 1.995 2.492 2.492 0 011.597 3.672l-.73 1.264 1.565.904a1.318 1.318 0 101.318-2.284l1.015.586a1.318 1.318 0 101.319-2.283l.676.39a1.318 1.318 0 101.318-2.283l-.676-.39a1.318 1.318 0 001.318-2.284l-4.09-2.362a3.379 3.379 0 01-2.236.874z" fill="#69A5FF"/><path d="M15.567.139l-2.13 1.23-1.92-.706a2.141 2.141 0 00-1.816.156L6.53 2.65a1.465 1.465 0 101.464 2.537L9.88 4.1a.586.586 0 01.8.213c.399.784 1.125 1.253 2.006 1.244a2.186 2.186 0 001.676-.798.585.585 0 01.76-.152L19.613 7.2l.068.042.105-.086a.586.586 0 00.133-.75L16.365.35a.586.586 0 00-.798-.211z" fill="#69A5FF"/></svg>