<svg width="202" height="30" fill="none" xmlns="http://www.w3.org/2000/svg"><path fill-rule="evenodd" clip-rule="evenodd" d="M55.491 14.668c-1.059 12.055 13.961 5.913 14.879 5.719.353 2.436.688 4.871 1.041 7.307-.441.141-24.604 10.184-25.257-12.779 0-.282-.053-.547-.017-.811C49.419-4.87 71.217.777 71.658.814c-.353 2.611-.688 5.224-1.041 7.836-.883-.283-14.138-5.419-15.126 6.018zm33.64-6.283l-3.918 21.144h-8.595l4.165-21.144h-7.042c.441-2.7.865-5.4 1.306-8.084h21.886c-.442 2.7-.865 5.401-1.306 8.084h-6.495zm14.332 16.908l2.859-5.436 3.371 1.818-1.041-11.402s-9.248 17.686-10.13 18.215c-1.907 1.27-5.913 1.094-9.126 1.041L105.528.301h9.143c1.394 9.743 2.788 19.486 4.165 29.228h-7.095l-8.278-4.236zm35.529-18.408c-2.347 0-4.501-.07-6.848-.07a752.707 752.707 0 01-.777 4.694h2.86c2.63 0 5.559.635 6.318-1.765.636-2.065-1.341-2.806-1.553-2.86zm-9.707 15.585h6.177s2.93-.018 3.53-2.366c.724-2.824-1.818-2.841-1.818-2.841h-7.272l-.617 5.206zm18.514-.812c-2.259 8.066-9.601 7.765-9.601 7.765s-14.102.106-17.526.089c1.729-9.655 3.477-19.31 5.206-28.981l13.096-.389s7.572.406 9.072 6.743c1.095 4.66-3.106 7.518-3.106 7.518s4.095 2.824 2.859 7.255zm45.643 7.783L186.7 25.03l2.594-5.436 3.371 1.817-1.041-11.136s-.512-.16-.512 0c-.018.158-9.602 19.167-9.602 19.167l-16.008.088-5.207-11.49h-.264s-1.395 7.66-2.083 11.49h-8.595c0-.088 5.736-29.228 5.736-29.228h8.348l-1.818 9.655h.265s6.248-6.442 9.39-9.655h10.166l-13.89 14.367 6.3 12.514L188.253.672h9.072l4.412 28.752h-8.295v.017z" fill="#4878FE"/><path fill-rule="evenodd" clip-rule="evenodd" d="M24.763 11.248c-.195.088-7.043-10.96-7.043-10.96 2.7-.354 8.402-.442 10.167.264 0 .088 3.494 1.553 4.165 3.124.088.177.176.247-.159.618-2.347 2.453-4.783 4.518-7.13 6.954zM47.707 29.18s-6.636.953-11.154-1.041c-2.277-1.006-5.966-7.254-5.966-7.254l-8.19 8.648H2.596L5.7 11.83S1.994 13.525 0 14.407V6.835C.265 6.747 9.813.481 9.902.305h6.777s-4.518 25.01-4.695 26.634h.265L38.565.305h12.249L37.329 13.648 47.707 29.18z" fill="#fff"/></svg>