<svg width="285" height="60" fill="none" xmlns="http://www.w3.org/2000/svg"><path fill-rule="evenodd" clip-rule="evenodd" d="M0 0h285v50c0 5.523-4.477 10-10 10h-8.227c0-3.249-3.709-5.882-8.285-5.882-4.576 0-8.285 2.633-8.285 5.882h-16.569c0-3.249-3.709-5.882-8.285-5.882-4.575 0-8.285 2.633-8.285 5.882h-16.569c0-3.249-3.71-5.882-8.285-5.882-4.576 0-8.285 2.633-8.285 5.882h-16.57c0-3.249-3.709-5.882-8.285-5.882-4.576 0-8.285 2.633-8.285 5.882h-16.57c0-3.249-3.709-5.882-8.285-5.882-4.576 0-8.285 2.633-8.285 5.882h-16.57c0-3.249-3.71-5.882-8.285-5.882S84.505 56.75 84.505 60H67.936c0-3.249-3.709-5.882-8.284-5.882-4.576 0-8.285 2.633-8.285 5.882h-16.57c0-3.249-3.71-5.882-8.285-5.882-4.576 0-8.285 2.633-8.285 5.882H10C4.477 60 0 55.523 0 50V0z" fill="#9A6AFF"/></svg>