<svg width="252" height="44" fill="none" xmlns="http://www.w3.org/2000/svg"><path fill-rule="evenodd" clip-rule="evenodd" d="M69.354 21.732c-1.32 17.396 17.406 8.532 18.55 8.252.44 3.515.859 7.03 1.299 10.545-.55.203-30.676 14.696-31.49-18.44 0-.408-.066-.79-.023-1.172 4.094-27.38 31.27-19.23 31.82-19.179-.44 3.77-.857 7.54-1.297 11.309-1.1-.408-17.627-7.82-18.86 8.685zm41.943-9.067l-4.886 30.513H95.695l5.193-30.513h-8.78C92.658 8.768 93.186 4.87 93.736 1h27.287c-.55 3.897-1.078 7.793-1.628 11.665h-8.098zm17.868 24.4l3.565-7.845 4.203 2.623-1.298-16.453s-11.531 25.52-12.631 26.285c-2.377 1.834-7.372 1.579-11.377 1.503L131.74 1h11.399c1.738 14.059 3.477 28.118 5.193 42.178h-8.846l-10.321-6.113zM173.463 10.5c-2.927 0-5.612-.102-8.538-.102-.33 2.394-.969 6.775-.969 6.775h3.565c3.279 0 6.932.917 7.878-2.547.793-2.98-1.672-4.05-1.936-4.126zM161.36 32.99h7.702s3.653-.026 4.401-3.413c.902-4.075-2.267-4.1-2.267-4.1h-9.066l-.77 7.513zm23.084-1.172c-2.817 11.64-11.971 11.207-11.971 11.207s-17.583.153-21.852.127c2.156-13.932 4.335-27.864 6.492-41.821l16.328-.56s9.44.585 11.311 9.729c1.364 6.724-3.873 10.85-3.873 10.85s5.105 4.075 3.565 10.468zm56.907 11.232l-8.406-6.367 3.234-7.845 4.203 2.623-1.298-16.07s-.638-.23-.638 0c-.022.228-11.971 27.66-11.971 27.66l-19.959.127-6.492-16.581h-.33s-1.739 11.054-2.597 16.58H186.38c0-.127 7.152-42.177 7.152-42.177h10.409l-2.267 13.932h.33S209.794 5.635 213.711 1h12.676l-17.319 20.732 7.856 18.058 17.957-38.255h11.311l5.501 41.49h-10.342v.025z" fill="#4878FE"/><path fill-rule="evenodd" clip-rule="evenodd" d="M31.041 16.793C30.8 16.92 22.261.976 22.261.976c3.367-.509 10.475-.636 12.675.382 0 .128 4.357 2.242 5.194 4.509.11.254.22.356-.199.891-2.926 3.54-5.963 6.52-8.89 10.035zM59.65 42.67s-8.275 1.376-13.908-1.503c-2.84-1.451-7.439-10.467-7.439-10.467l-10.21 12.48H3.401l3.873-25.545s-4.62 2.444-7.107 3.717V10.426c.33-.128 12.235-9.17 12.345-9.424h8.45s-5.633 36.09-5.853 38.434h.33l32.81-38.434h15.273L46.709 20.257 59.65 42.67z" fill="#fff"/></svg>