<svg width="22" height="18" fill="none" xmlns="http://www.w3.org/2000/svg"><path d="M9.917 13.333V1.417a1.083 1.083 0 112.166 0v11.916h1.084a1.083 1.083 0 110 2.167h-1.084v1.083a1.083 1.083 0 11-2.166 0V15.5H8.833a1.083 1.083 0 110-2.167h1.084zM17.5 2.5V1.417a1.083 1.083 0 112.167 0V2.5h1.083a1.083 1.083 0 110 2.167h-1.083v11.916a1.084 1.084 0 01-2.167 0V4.667h-1.083a1.083 1.083 0 110-2.167H17.5zm-13 3.25h1.083a1.083 1.083 0 010 2.167H4.5v8.666a1.083 1.083 0 01-2.167 0V7.917H1.25a1.083 1.083 0 110-2.167h1.083V1.417a1.083 1.083 0 012.167 0V5.75z" fill="#fff"/></svg>