<svg width="107" height="17" fill="none" xmlns="http://www.w3.org/2000/svg"><path fill-rule="evenodd" clip-rule="evenodd" d="M29.645 8.639c-.558 6.354 7.359 3.116 7.842 3.014.187 1.284.363 2.567.55 3.851-.233.075-12.969 5.368-13.313-6.735 0-.149-.028-.288-.01-.428 1.731-10 13.22-7.024 13.453-7.005-.186 1.377-.363 2.754-.55 4.13-.464-.148-7.45-2.855-7.972 3.173zm17.731-3.312l-2.065 11.145h-4.53l2.195-11.145h-3.712c.233-1.423.456-2.847.689-4.26h11.535c-.233 1.423-.456 2.846-.688 4.26h-3.424zm7.554 8.912l1.507-2.865 1.777.958-.549-6.01s-4.874 9.322-5.34 9.6c-1.004.67-3.116.578-4.81.55L56.02 1.066h4.818c.735 5.135 1.47 10.27 2.196 15.406h-3.74l-4.363-2.233zm18.726-9.703c-1.237 0-2.372-.037-3.609-.037-.14.874-.41 2.475-.41 2.475h1.508c1.386 0 2.93.334 3.33-.93.335-1.09-.707-1.48-.819-1.508zm-5.116 8.215h3.256s1.544-.01 1.86-1.247c.382-1.489-.958-1.498-.958-1.498h-3.832l-.326 2.745zm9.758-.428c-1.19 4.25-5.06 4.093-5.06 4.093s-7.433.056-9.238.046c.912-5.088 1.833-10.177 2.745-15.275l6.902-.204s3.991.214 4.782 3.553C79.005 6.992 76.79 8.5 76.79 8.5s2.159 1.489 1.508 3.824zm24.057 4.102L98.802 14.1l1.367-2.865 1.777.958-.549-5.87s-.27-.083-.27 0c-.009.084-5.06 10.103-5.06 10.103l-8.438.047-2.744-6.057h-.14s-.735 4.038-1.097 6.057h-4.53c0-.047 3.023-15.406 3.023-15.406h4.4l-.959 5.089h.14s3.293-3.396 4.95-5.089h5.358L88.707 8.64l3.321 6.595L99.62 1.262h4.782l2.326 15.154h-4.373v.01z" fill="#4878FE"/><path fill-rule="evenodd" clip-rule="evenodd" d="M13.45 6.834c-.102.047-3.712-5.777-3.712-5.777 1.424-.186 4.428-.232 5.359.14 0 .046 1.842.818 2.195 1.646.047.093.093.13-.084.326-1.237 1.293-2.52 2.381-3.758 3.665zm12.094 9.452s-3.498.502-5.88-.549c-1.2-.53-3.144-3.823-3.144-3.823l-4.316 4.558H1.766l1.637-9.33S1.45 8.033.398 8.498V4.51c.14-.047 5.173-3.35 5.22-3.442H9.19s-2.382 13.18-2.475 14.036h.14l13.87-14.037h6.456l-7.107 7.032 5.47 8.187z" fill="#fff"/></svg>