<svg width="22" height="22" fill="none" xmlns="http://www.w3.org/2000/svg"><g clip-path="url(#clip0)"><path d="M19.062.813H3.312A2.628 2.628 0 00.687 3.438v15.75a2.628 2.628 0 002.625 2.626h15.75a2.628 2.628 0 002.625-2.625V3.439A2.628 2.628 0 0019.062.812z" fill="#fff"/><path d="M18.406 11.313h-3.281V8.688c0-.724.588-.656 1.312-.656h1.313V4.751h-2.625a3.937 3.937 0 00-3.938 3.937v2.625H8.562v3.282h2.625v7.219h3.938v-7.22h1.968l1.313-3.28z" fill="#242C4F"/></g><defs><clipPath id="clip0"><rect x=".687" y=".813" width="21" height="21" rx="6" fill="#fff"/></clipPath></defs></svg>