<svg width="22" height="22" fill="none" xmlns="http://www.w3.org/2000/svg"><path d="M15.403.113h-9.41A5.802 5.802 0 00.2 5.908v9.41c0 3.196 2.6 5.795 5.795 5.795h9.41c3.195 0 5.795-2.6 5.795-5.795v-9.41c0-3.195-2.6-5.795-5.796-5.795zm3.932 15.205a3.936 3.936 0 01-3.932 3.932h-9.41a3.936 3.936 0 01-3.931-3.932v-9.41a3.936 3.936 0 013.932-3.932h9.41a3.937 3.937 0 013.931 3.932v9.41z" fill="#fff"/><path d="M10.699 5.202a5.417 5.417 0 00-5.412 5.411 5.417 5.417 0 005.412 5.411 5.417 5.417 0 005.41-5.41 5.417 5.417 0 00-5.41-5.412zm0 8.959a3.552 3.552 0 01-3.548-3.548 3.552 3.552 0 013.548-3.548 3.552 3.552 0 013.547 3.548 3.552 3.552 0 01-3.547 3.548zm5.638-10.538a1.372 1.372 0 00-1.367 1.366 1.373 1.373 0 001.367 1.366c.36 0 .712-.146.966-.4a1.37 1.37 0 000-1.932 1.372 1.372 0 00-.966-.4z" fill="#fff"/></svg>