<svg width="22" height="22" fill="none" xmlns="http://www.w3.org/2000/svg"><g clip-path="url(#clip0)"><path d="M21.66 4.802a8.97 8.97 0 01-2.481.68 4.28 4.28 0 001.894-2.38 8.603 8.603 0 01-2.73 1.043 4.304 4.304 0 00-7.447 2.944c0 .34.028.669.1.981-3.58-.174-6.747-1.89-8.874-4.503a4.334 4.334 0 00-.59 2.176 4.31 4.31 0 001.913 3.578 4.252 4.252 0 01-1.946-.53v.047a4.325 4.325 0 003.45 4.23c-.35.096-.733.142-1.13.142-.275 0-.553-.016-.814-.074.558 1.706 2.14 2.959 4.023 3a8.65 8.65 0 01-5.338 1.836c-.353 0-.692-.016-1.03-.06a12.12 12.12 0 006.604 1.933c7.922 0 12.253-6.563 12.253-12.251 0-.19-.006-.374-.015-.557a8.59 8.59 0 002.157-2.235z" fill="#fff"/></g><defs><clipPath id="clip0"><rect x=".659" y=".813" width="21" height="21" rx="6" fill="#fff"/></clipPath></defs></svg>