<svg width="22" height="13" fill="none" xmlns="http://www.w3.org/2000/svg"><path d="M10.812 12.254h1.255s.38-.042.572-.25c.179-.192.172-.552.172-.552s-.025-1.684.757-1.932c.77-.244 1.76 1.627 2.81 2.348.792.545 1.395.425 1.395.425l2.805-.04s1.467-.09.771-1.244c-.056-.094-.405-.853-2.085-2.412-1.76-1.633-1.523-1.368.596-4.191 1.29-1.72 1.806-2.77 1.644-3.219-.153-.428-1.102-.315-1.102-.315l-3.156.019s-.233-.032-.408.072c-.17.102-.278.339-.278.339s-.5 1.33-1.167 2.462c-1.406 2.388-1.969 2.514-2.199 2.365-.534-.345-.4-1.388-.4-2.129 0-2.314.35-3.279-.684-3.528-.344-.083-.596-.138-1.474-.147-1.126-.012-2.08.004-2.62.268-.36.176-.637.568-.467.59.208.028.681.128.932.469.324.44.312 1.43.312 1.43s.187 2.723-.434 3.062c-.427.232-1.011-.242-2.265-2.409C5.453 2.626 4.967 1.4 4.967 1.4s-.093-.229-.26-.35C4.505.9 4.221.854 4.221.854l-3 .018S.77.884.605 1.08c-.147.174-.012.534-.012.534s2.35 5.496 5.01 8.267c2.44 2.54 5.209 2.373 5.209 2.373z" fill="#fff"/></svg>