<svg width="22" height="15" fill="none" xmlns="http://www.w3.org/2000/svg"><path d="M20.765 1.486c-.57-1.013-1.188-1.2-2.446-1.27C17.06.13 13.899.094 11.16.094c-2.744 0-5.907.035-7.163.12C2.74.285 2.12.47 1.547 1.485.96 2.498.656 4.241.656 7.31v.01c0 3.056.303 4.812.89 5.813.574 1.013 1.192 1.197 2.448 1.282 1.258.074 4.42.117 7.165.117 2.74 0 5.901-.043 7.16-.115 1.259-.086 1.877-.27 2.447-1.283.591-1.001.89-2.757.89-5.813v-.01c0-3.07-.299-4.813-.892-5.825z" fill="#fff"/><path d="M8.533 11.251V3.376l6.562 3.937-6.562 3.938z" fill="#242C4F"/></svg>