<svg width="129" height="20" fill="none" xmlns="http://www.w3.org/2000/svg"><path fill-rule="evenodd" clip-rule="evenodd" d="M35.645 9.791c-.67 7.588 8.842 3.722 9.423 3.6.224 1.533.436 3.066.66 4.599-.28.089-15.583 6.41-15.996-8.043 0-.178-.034-.345-.011-.511C31.8-2.507 45.605 1.048 45.884 1.07c-.223 1.645-.436 3.289-.66 4.933-.558-.178-8.953-3.41-9.579 3.788zm21.306-3.955l-2.482 13.31h-5.444l2.638-13.31h-4.46c.28-1.7.548-3.4.828-5.088h13.86c-.279 1.7-.547 3.4-.827 5.088h-4.113zm9.076 10.643l1.811-3.422 2.135 1.145-.66-7.177s-5.857 11.132-6.416 11.465c-1.207.8-3.744.689-5.779.655L67.335.748h5.79a9810.32 9810.32 0 012.639 18.397H71.27l-5.243-2.666zM88.53 4.892c-1.487 0-2.85-.044-4.337-.044-.168 1.044-.492 2.955-.492 2.955h1.811c1.666 0 3.521.4 4.002-1.111.402-1.3-.85-1.767-.984-1.8zm-6.148 9.81h3.912s1.856-.012 2.236-1.49c.458-1.777-1.151-1.788-1.151-1.788h-4.606l-.39 3.277zm11.726-.511c-1.43 5.076-6.08 4.888-6.08 4.888s-8.932.066-11.1.055c1.095-6.077 2.201-12.153 3.297-18.241l8.294-.245s4.795.256 5.745 4.244c.694 2.933-1.967 4.733-1.967 4.733s2.593 1.777 1.811 4.566zm28.907 4.899l-4.27-2.778 1.643-3.421 2.135 1.144-.66-7.01s-.324-.1-.324 0c-.011.1-6.081 12.065-6.081 12.065l-10.138.055-3.298-7.232h-.167s-.884 4.822-1.32 7.232h-5.443c0-.055 3.633-18.397 3.633-18.397h5.287l-1.151 6.077h.167s3.957-4.055 5.947-6.077h6.439l-8.798 9.043 3.991 7.877 9.12-16.686h5.746l2.795 18.097h-5.254v.01z" fill="#4878FE"/><path fill-rule="evenodd" clip-rule="evenodd" d="M16.183 7.64c-.123.055-4.46-6.9-4.46-6.9 1.71-.222 5.32-.278 6.439.167 0 .055 2.213.977 2.638 1.966.055.111.111.156-.101.389-1.487 1.544-3.03 2.844-4.516 4.377zm14.532 11.286s-4.203.6-7.065-.655c-1.442-.634-3.778-4.566-3.778-4.566l-5.187 5.443H2.143L4.111 8.006S1.763 9.072.5 9.628V4.862c.168-.056 6.215-4 6.271-4.11h4.292S8.202 16.492 8.09 17.514h.168L24.924.751h7.758l-8.54 8.399 6.573 9.776z" fill="#fff"/></svg>