<svg width="21" height="21" fill="none" xmlns="http://www.w3.org/2000/svg"><g clip-path="url(#clip0)" fill="#69A5FF"><path d="M3.916 7.094c-1.555 2.699-.567 6.794 1.153 9.277.858 1.241 1.728 2.356 2.918 2.356.022 0 .045 0 .068-.002.56-.022.963-.194 1.354-.36.439-.188.892-.38 1.604-.38.677 0 1.11.186 1.527.367.412.178.836.362 1.463.35 1.34-.024 2.163-1.227 2.89-2.288a10.144 10.144 0 001.266-2.594l.005-.016a.15.15 0 00-.09-.19c-.237-.096-2.308-1.015-2.33-3.52-.02-2.034 1.554-3.111 1.87-3.306l.014-.01a.15.15 0 00.043-.211c-1.086-1.59-2.751-1.83-3.422-1.859a3.019 3.019 0 00-.298-.014c-.788 0-1.542.297-2.148.536-.418.165-.78.308-1.029.308-.28 0-.643-.145-1.064-.312-.563-.223-1.2-.476-1.875-.476h-.048c-1.57.024-3.053.922-3.871 2.344z"/><path d="M14.25.333c-.95.038-2.09.624-2.772 1.422-.58.671-1.145 1.79-.996 2.918a.15.15 0 00.138.13c.064.005.13.008.195.008.93 0 1.932-.515 2.617-1.343.72-.874 1.085-1.996.975-3.001a.152.152 0 00-.156-.134z"/></g><defs><clipPath id="clip0"><path fill="#fff" transform="translate(.707 .178)" d="M0 0h20.066v20.066H0z"/></clipPath></defs></svg>