<svg width="21" height="21" fill="none" xmlns="http://www.w3.org/2000/svg"><path d="M3.65 10.569l4.216 2.984c.232.164.555.11.72-.123l1.195-1.687a.517.517 0 00-.124-.72l-.232-.165c1.247-.985 2.454-2.713 2.977-4.221l.24.17a.517.517 0 00.72-.124l1.194-1.687a.517.517 0 00-.123-.72L10.216 1.29a.517.517 0 00-.72.124L8.302 3.1a.517.517 0 00.123.72l.24.17c-1.27 1.013-2.486 2.735-2.992 4.212l-.233-.165a.517.517 0 00-.72.124L3.526 9.848a.517.517 0 00.123.72zm14.721 1.558l-5.53-3.915a11.903 11.903 0 01-1.786 2.534l5.525 3.91a1.549 1.549 0 101.791-2.53zm-5.063 3.604h-.517a.517.517 0 01-.517-.517.517.517 0 00-.516-.516H4.525a.517.517 0 00-.517.516.517.517 0 01-.516.517h-.517a.517.517 0 00-.517.517v2.066c0 .285.232.517.517.517h10.333a.517.517 0 00.516-.517v-2.066a.517.517 0 00-.516-.517z" fill="#69A5FF"/></svg>