<svg width="140" height="21" fill="none" xmlns="http://www.w3.org/2000/svg"><path d="M26.492 2.695h14.614l-.631 3.587h-9.718l-.353 2.046h5.806l-.671 3.694H29.77l-.395 2.443H40.04l-.672 3.803H23.767l2.725-15.573zm22.039 3.839H42.41l.672-3.84h17.142l-.707 3.84H53.39l-2.05 11.731h-4.862l2.053-11.731zm12.046 4.698c-.198-5.06 3.676-8.79 8.966-8.79 6.161 0 7.979 3.73 8.176 5.528h-4.974c-.237-.431-1.106-1.543-3.04-1.543-2.725 0-4.266 2.117-4.147 4.592.078 2.01 1.303 3.516 3.436 3.516 1.975 0 2.844-1.04 3.12-1.435h4.937c-.316 1.399-2.333 5.417-7.9 5.417-5.096 0-8.414-2.979-8.574-7.285zm20.661-8.537h4.897l-1.62 9.363 9.204-9.363h4.898l-2.725 15.57h-4.897l1.619-9.328-9.204 9.328h-4.898l2.726-15.57zm25.201 3.839h-6.124l.672-3.84h17.146l-.672 3.84h-6.122l-2.051 11.731h-4.859l2.01-11.731zm14.098-3.839h4.897l-1.658 9.4 9.205-9.364h4.898l-2.725 15.571h-4.898l1.619-9.328-9.203 9.328h-4.898l2.763-15.607zM15.274 8.47H10.93l.354-1.9h10.309l.672-3.84H7.019l-.99 5.74H2.751l-.632 3.517h3.279l-1.104 6.278h10.111c4.738 0 7.9-1.864 7.742-5.668-.079-2.655-2.528-4.126-6.873-4.126zm-.434 5.92H9.863l.435-2.403h5.135c1.026 0 1.54.321 1.54.933.079.968-.79 1.47-2.133 1.47z" fill="#fff"/></svg>