<svg width="128" height="24" fill="none" xmlns="http://www.w3.org/2000/svg"><path d="M17.617 9.601H9.151l.42-1.937.212-.646c.104-.216.247-.411.42-.574l.706-.43c.336-.14.696-.214 1.059-.216h7.977l.494-.144c.146-.16.244-.359.282-.574l.848-3.732c.142-.36.142-.574.071-.647l-.495-.143h-9.812A8.135 8.135 0 008.3 1.06a7.018 7.018 0 00-2.258 1.363A7.314 7.314 0 004.56 4.432a9.881 9.881 0 00-.848 2.3L.044 22.813c-.141.431.067.647.565.647h4.588l.706-.143c.112-.147.185-.32.212-.503L8.014 14.7h8.467c.425 0 .637-.29.778-.792l.782-3.446c.142-.43.142-.645.07-.717a.665.665 0 00-.494-.144zm23.93-2.51a8.004 8.004 0 00-1.059-3.729A6.108 6.108 0 0037.804.99a9.957 9.957 0 00-4.377-.863c-1.573.016-3.13.333-4.588.934A11.62 11.62 0 0025.1 3.43a14.7 14.7 0 00-2.824 3.732 19.896 19.896 0 00-1.766 4.882 18.76 18.76 0 00-.564 4.954 8.071 8.071 0 00.988 3.73 5.678 5.678 0 002.611 2.298c1.387.579 2.88.85 4.377.793 1.681.04 3.355-.228 4.942-.793a10.977 10.977 0 003.741-2.368 13.41 13.41 0 002.684-3.732 22.683 22.683 0 001.694-4.954h.07c.388-1.596.554-3.238.495-4.88zm-6.566 2.44a19.32 19.32 0 01-.352 2.442l-.148.074c-.18.805-.415 1.597-.705 2.369a9.038 9.038 0 01-1.059 2.013 4.986 4.986 0 01-1.412 1.364 3.553 3.553 0 01-1.9.499 2.926 2.926 0 01-1.766-.43 2.44 2.44 0 01-.917-1.293 5.678 5.678 0 01-.141-2.082c.071-.92.213-1.832.423-2.73.185-.812.446-1.605.779-2.368a9.108 9.108 0 011.125-1.937c.432-.528.96-.966 1.553-1.293a3.347 3.347 0 011.765-.502 2.718 2.718 0 011.765.502c.422.348.72.828.848 1.365a6.11 6.11 0 01.142 2.007zm50.185-7.747A4.633 4.633 0 0083.191.707a9.922 9.922 0 00-2.613-.36h-8.396a2.432 2.432 0 00-1.835.574c-.401.47-.67 1.04-.78 1.652l-4.305 18.66a2.55 2.55 0 000 1.652c.19.335.73.502 1.624.502h8.328a10.277 10.277 0 003.247-.502 10.028 10.028 0 002.824-1.439 9.248 9.248 0 002.186-2.222 8.325 8.325 0 001.27-2.872 7.21 7.21 0 00.213-1.58 4.947 4.947 0 00-.212-1.507 4.171 4.171 0 00-.706-1.363 3.677 3.677 0 00-1.27-1.006v-.144a7.236 7.236 0 002.117-1.867 6.201 6.201 0 001.267-2.508c.245-.89.27-1.828.07-2.73a3.818 3.818 0 00-1.054-1.863zm-6.492 14.213c-.066.25-.16.49-.282.718a2.662 2.662 0 01-.494.717 2.53 2.53 0 01-.78.503c-.356.147-.74.22-1.125.216h-3.811l.988-4.307h3.809a1.667 1.667 0 011.483.575 1.886 1.886 0 01.212 1.575v.004zm1.06-8.686c-.037.266-.133.52-.28.744a1.78 1.78 0 01-.568.549 2.715 2.715 0 01-1.27.358h-3.319l.707-3.158h3.53a1.316 1.316 0 011.058.36 1.237 1.237 0 01.142 1.143v.004zM106.77.556h-9.528a8.138 8.138 0 00-3.036.503c-.83.307-1.596.77-2.258 1.363a7.325 7.325 0 00-1.482 2.01 9.844 9.844 0 00-.853 2.301l-2.33 10.48a9.682 9.682 0 00-.278 2.226 4.215 4.215 0 00.494 2.01 3.55 3.55 0 001.553 1.436 6.673 6.673 0 003.035.573h9.954l-.006.145c.426 0 .638-.29.779-.792l.848-3.733c.141-.359.141-.574.071-.646l-.495-.143h-8.966l-.565-.216a.868.868 0 01-.282-.574 2.635 2.635 0 01.07-1.006l.567-2.44h8.75c.425 0 .637-.216.779-.718l.779-3.446a1.24 1.24 0 00.071-.717.668.668 0 00-.495-.144h-8.682l.282-1.363.213-.647a1.86 1.86 0 01.422-.574l.706-.43c.336-.14.696-.214 1.059-.216h7.624l.493-.144a1.14 1.14 0 00.283-.573l.848-3.733c.141-.36.141-.574.07-.647l-.494-.145zm21.175.071l-.494-.144h-17.018l-.565.144c-.158.18-.257.406-.281.646l-.848 3.661c-.141.505.071.792.494.792h5.367l-3.952 17.086c-.144.479.044.718.564.718h4.588a.67.67 0 00.655-.1.71.71 0 00.263-.618l3.955-17.086h5.578a.838.838 0 00.576-.227.867.867 0 00.271-.565l.847-3.661c.071-.36.071-.575 0-.646zM65.968.413h-4.587a1.046 1.046 0 00-.706.144c-.12.168-.194.367-.212.574l-2.752 11.845h-.212l-1.553-4.02-2.964-7.031-.494-.793-.495-.433-.635-.216h-2.542a3.069 3.069 0 00-1.977.503 3.83 3.83 0 00-.989 2.086l-4.587 19.74c-.141.503.07.718.564.718h4.588a.703.703 0 00.513-.035.71.71 0 00.364-.406.728.728 0 00.04-.277l2.755-11.774h.21l1.624 4.092 2.966 6.89c.105.282.248.548.423.792l.494.43.636.216h2.47a2.586 2.586 0 002.048-.718 4.337 4.337 0 00.917-1.866L66.533 1.13c.141-.5-.07-.718-.565-.718z" fill="#fff"/></svg>