<svg width="24" height="25" fill="none" xmlns="http://www.w3.org/2000/svg"><path d="M16.013 7.006h3.468c.831 0 1.519.673 1.519 1.552v5.33h-8.255V7.68c-.286-.087-.544-.205-.716-.38-.029 0-.029-.03-.058-.03 0 0 0 .03-.028.03-.201.175-.43.293-.688.38v6.21H3V8.56c0-.88.66-1.553 1.49-1.553h3.497c-.401-.205-.774-.498-1.089-.762-1.376-1.347-1.634-3.221-.544-4.276a2.559 2.559 0 011.72-.644c.945 0 1.92.38 2.75 1.171a5.42 5.42 0 011.147 1.64c.287-.585.717-1.2 1.175-1.64.803-.79 1.835-1.171 2.752-1.171.688 0 1.29.234 1.72.644 1.089 1.055.831 2.929-.573 4.276-.287.264-.66.557-1.032.762zm-5.102-.85c.114-.263-.172-1.61-1.118-2.518-.487-.469-1.146-.733-1.72-.733-.172 0-.458.03-.659.205-.057.059-.23.176-.23.498 0 .381.23.967.775 1.465.688.673 1.777 1.142 2.58 1.142.257 0 .372-.059.372-.059zm2.178 0s.143.059.373.059c.802 0 1.892-.469 2.58-1.142.544-.498.716-1.084.716-1.465 0-.322-.143-.439-.172-.498-.2-.175-.516-.205-.688-.205-.544 0-1.232.264-1.72.733-.917.908-1.232 2.226-1.089 2.548v-.03zm-1.834 16.168H4.49C3.66 22.324 3 21.65 3 20.8v-5.36h8.255v6.883zm8.226 0h-6.736V15.44H21v5.36a1.52 1.52 0 01-1.52 1.523z" fill="#fff"/></svg>