<svg width="130" height="29" fill="none" xmlns="http://www.w3.org/2000/svg"><path opacity=".5" d="M120.062 12.732a1.765 1.765 0 01-.345.66 1.977 1.977 0 01-.525.439 2.285 2.285 0 01-.669.25 3.404 3.404 0 01-.75.082 2.832 2.832 0 01-.557-.06 1.49 1.49 0 01-.481-.185 1.076 1.076 0 01-.328-.321.831.831 0 01-.108-.462c.005-.11.023-.22.051-.328l1.439-4.852h-1.868l-1.391 4.746a2.835 2.835 0 00-.093.6c-.022.348.063.693.245.993.181.28.425.517.712.693.318.191.667.329 1.033.406.399.086.807.13 1.216.129.493.003.983-.05 1.463-.157a4.46 4.46 0 001.225-.467c.357-.2.673-.461.934-.771.255-.312.446-.67.561-1.053l1.505-5.12h-1.883l-1.386 4.778zm-6.72-4.166a2.143 2.143 0 00-.74-.443 3.104 3.104 0 00-1.066-.166h-4.06l-2.198 7.502h1.867l.029-.097c.136-.47.273-.937.405-1.408.122-.439.25-.873.387-1.302h1.9c.104.43.208.863.311 1.297.113.472.231.938.35 1.409l.028.101h1.98l-.853-3.065c.329-.107.643-.254.933-.439.272-.167.515-.374.722-.614a2.282 2.282 0 00.553-1.394c.012-.25-.028-.5-.118-.735a1.7 1.7 0 00-.43-.646zm-1.444 1.418v.006a.472.472 0 01-.079.124c-.08.087-.172.163-.275.223l-.026.018a2.22 2.22 0 01-.482.217 1.99 1.99 0 00-.512.262 1.99 1.99 0 00-.656-.11h-1.153l.246-.836h2.576c.126-.006.251.009.372.042h.006a.304.304 0 01-.017.05v.004z" fill="#749ED3"/><path d="M1.986 23.698L7.48 3.503a.518.518 0 01.188-.277.537.537 0 01.321-.109h5.853a.534.534 0 01.522.418.479.479 0 01-.013.236l-4.253 15.55a.49.49 0 00.09.45.508.508 0 00.419.203H21.91a.535.535 0 01.42.201.511.511 0 01.089.45l-.92 3.342a.52.52 0 01-.188.277.538.538 0 01-.32.108H2.495a.535.535 0 01-.42-.203.512.512 0 01-.09-.451zM30.164 3.12h17.142a.625.625 0 01.5.244.606.606 0 01.113.531l-.112.428c-.824.9-1.536 1.893-2.122 2.957a.407.407 0 01-.369.217H35.56a.626.626 0 00-.387.127.603.603 0 00-.222.335l-.745 2.764a.604.604 0 00.108.535.626.626 0 00.5.24h8.733a.613.613 0 01.5.245.596.596 0 01.108.536l-.83 3.075a.614.614 0 01-.226.331.636.636 0 01-.387.126h-9.397a.636.636 0 00-.388.127.613.613 0 00-.225.334l-.82 2.978a.6.6 0 00.108.541.615.615 0 00.504.24h11.703a.623.623 0 01.607.785l-.858 3.075a.613.613 0 01-.224.33.635.635 0 01-.384.127H24.344a.535.535 0 01-.521-.417.481.481 0 01.012-.236l5.41-19.885a.922.922 0 01.338-.5.957.957 0 01.58-.19zm50.884 10.331l-2.806 10.536a.473.473 0 01-.174.261.49.49 0 01-.302.1l-5.923-.033a.412.412 0 01-.307-.148.358.358 0 01-.066-.328l.01-.037a14.629 14.629 0 003.152-10.924 1.538 1.538 0 01.042-.586l2.381-8.583a.787.787 0 01.29-.424.815.815 0 01.493-.162h4.57a.8.8 0 01.712.424l5.89 10.966a.21.21 0 00.207.106.2.2 0 00.116-.047.192.192 0 00.064-.105l3.16-11.344h5.946a.488.488 0 01.394.19.46.46 0 01.085.42l-5.45 20.027a.784.784 0 01-.285.427.814.814 0 01-.492.165H88.29a.803.803 0 01-.409-.105.78.78 0 01-.294-.297l-6.145-10.542a.205.205 0 00-.087-.082.212.212 0 00-.12-.02.213.213 0 00-.187.145zm30.756-3.921c-.216-.18-.556-.217-.83-.217h-2.028l-.584 1.98h1.962c.228.001.455-.032.674-.096.194-.057.379-.142.547-.254.146-.1.269-.229.358-.379.085-.148.132-.314.137-.484a.631.631 0 00-.236-.55z" fill="#fff"/><path d="M125.3 3.124h-19.25c-1.466 0-2.994 1.173-3.39 2.609l-3.004 10.896c-.505 1.833.613 3.328 2.485 3.328h19.415c1.467 0 2.99-1.172 3.386-2.608l2.962-10.739c.53-1.916-.642-3.486-2.604-3.486zm-11.411 6.82a2.28 2.28 0 01-.553 1.393c-.207.24-.451.447-.722.615a4.087 4.087 0 01-.933.438l.853 3.066h-1.98l-.028-.102c-.119-.47-.237-.937-.35-1.408a277.31 277.31 0 00-.311-1.297h-1.9c-.137.43-.263.863-.387 1.302-.131.47-.269.937-.405 1.408l-.029.097h-1.867l2.197-7.502h4.061c.362-.008.723.049 1.065.166.275.096.528.247.741.443a1.805 1.805 0 01.548 1.38zm7.936 3.13a3.048 3.048 0 01-.561 1.053c-.261.31-.577.571-.934.771a4.47 4.47 0 01-1.226.467 6.47 6.47 0 01-1.462.156 5.707 5.707 0 01-1.216-.128 3.332 3.332 0 01-1.033-.406 2.236 2.236 0 01-.712-.693 1.71 1.71 0 01-.246-.993 2.905 2.905 0 01.094-.6l1.391-4.746h1.868l-1.435 4.853a1.519 1.519 0 00-.052.328.831.831 0 00.108.462c.085.13.197.239.329.322.147.089.31.151.48.185.183.038.37.058.557.06.252 0 .504-.028.75-.083.235-.048.461-.132.67-.25.199-.115.377-.263.525-.438.16-.194.278-.42.344-.66l1.386-4.779h1.882l-1.507 5.119zm-62.198 13.49c6.733 0 12.191-5.344 12.191-11.936S66.36 2.692 59.627 2.692c-6.733 0-12.192 5.344-12.192 11.936s5.459 11.936 12.192 11.936z" fill="#fff"/><path fill-rule="evenodd" clip-rule="evenodd" d="M57.993 2.797A12.354 12.354 0 0052.47 4.96a12.016 12.016 0 00-3.82 4.461l6.323-1.21 3.019-5.415zm-10.404 9.917a11.723 11.723 0 00.476 5.699 11.931 11.931 0 003.123 4.832l.726-6.066-4.325-4.465zm6.58 12.59a12.426 12.426 0 005.529 1.26 12.424 12.424 0 005.514-1.325l-5.489-2.544-5.555 2.609zm14.217-2.373a11.753 11.753 0 003.31-10l-4.04 4.266.73 5.734zm2.15-13.638A12.018 12.018 0 0066.89 5.04a12.342 12.342 0 00-5.216-2.18l2.97 5.412 5.894 1.02zM59.587 20.332l2.73-1.94 2.73-1.944-1.042-3.143-1.042-3.144H56.21l-1.041 3.144-1.042 3.143 2.73 1.944 2.73 1.94z" fill="#D72629"/></svg>