<svg width="134" height="41" fill="none" xmlns="http://www.w3.org/2000/svg"><path d="M26.459 14.55h6.65c3.5 0 5.626-1.568 6.595-4.893l.54-1.834c1.237-4.226-.782-6.86-5.197-6.86H6.133L.75 19.494h24.282l1.427-4.945zm2.504-8.588h6.05L33.89 9.976h-6.085l1.158-4.014zM42.72 19.494l1.777-3.111h8.239v3.11h5.41V.937H47.512L36.447 19.494h6.273zm7.781-13.506h2.235v5.902h-5.654l3.42-5.902zM80.222 9.47l.483-1.674c1.24-4.281-.782-6.86-5.194-6.86H65.228L59.84 19.494h5.626l1.482-5.105h3.5l1.587 5.105h5.789l-1.697-5.453c2.05-.61 3.395-2.124 4.095-4.57zm-5.896.478h-6.084L69.4 5.933h6.058l-1.13 4.015zm11.173 9.546L90.884.936H85.23l-5.357 18.558h5.626zm-34.487 2.632l-6.354 7.417-2.611-7.417H17.682L12.325 40.71h24.283l2.962-10.262 1.966 5.742h3.634l5.25-6.115-3.096 10.635h5.626l5.358-18.584h-7.296zm3.742 18.558h6.273l1.78-3.111h8.235v3.11h5.41v-18.53l-10.608-.027-11.09 18.558zm16.288-13.48v5.903h-5.627l3.392-5.903h2.235zm25.978-5.078H79.925l-1.534 5.317h6.192l-3.85 13.267h5.627l3.85-13.267h5.276l1.534-5.317zm5.979 5.317h8.533l1.562-5.29h-9.099c-3.5 0-5.627 1.567-6.596 4.892l-1.992 6.78c-1.266 4.333.78 6.859 5.195 6.859h7.081l1.535-5.291h-8.535l2.316-7.95zm24.632-5.317l-1.938 6.646h-6.435l1.912-6.646h-5.627l-5.357 18.584h5.626l1.912-6.647h6.435l-1.912 6.647h5.653l5.358-18.584h-5.627z" fill="#EAE200"/></svg>