<svg width="21" height="21" fill="none" xmlns="http://www.w3.org/2000/svg"><path d="M10.627 9.875a4.278 4.278 0 003.126-1.295 4.278 4.278 0 001.296-3.127 4.28 4.28 0 00-1.296-3.126 4.28 4.28 0 00-3.126-1.295A4.278 4.278 0 007.5 2.327a4.279 4.279 0 00-1.295 3.126c0 1.215.436 2.267 1.295 3.127a4.28 4.28 0 003.127 1.295zm7.736 5.274a10.9 10.9 0 00-.148-1.16 9.128 9.128 0 00-.286-1.167 5.761 5.761 0 00-.479-1.087 4.104 4.104 0 00-.723-.942 3.19 3.19 0 00-1.039-.653 3.59 3.59 0 00-1.325-.24c-.188 0-.37.077-.72.305-.215.14-.467.303-.748.482-.24.154-.566.297-.969.427a3.848 3.848 0 01-1.184.192 3.85 3.85 0 01-1.185-.192 4.28 4.28 0 01-.968-.426c-.279-.178-.53-.34-.75-.483-.35-.228-.53-.305-.718-.305-.477 0-.923.08-1.326.24a3.19 3.19 0 00-1.038.653 4.104 4.104 0 00-.723.942c-.2.35-.36.717-.48 1.088a9.16 9.16 0 00-.285 1.166c-.074.411-.124.802-.149 1.16-.024.352-.036.716-.036 1.084 0 .959.304 1.735.905 2.307.593.564 1.379.85 2.333.85h8.84c.955 0 1.74-.285 2.333-.85.601-.572.906-1.348.906-2.307 0-.37-.013-.735-.038-1.084z" fill="#69A5FF"/></svg>