<svg width="25" height="25" fill="none" xmlns="http://www.w3.org/2000/svg"><path d="M4.43 10.417a8.383 8.383 0 000 4.167h2.966a20.656 20.656 0 010-4.167H4.429zm.851-2.084h2.444c.277-1.267.677-2.403 1.168-3.348A8.37 8.37 0 005.28 8.333zm15.29 2.084h-2.967c.14 1.385.14 2.781 0 4.166h2.967c.35-1.366.35-2.8 0-4.166zm-.852-2.084a8.37 8.37 0 00-3.612-3.348c.492.945.89 2.08 1.168 3.348h2.444zM9.492 10.417a18.502 18.502 0 000 4.166h6.016a18.513 18.513 0 000-4.166H9.492zm.372-2.084h5.271a11.202 11.202 0 00-.815-2.267c-.655-1.308-1.354-1.9-1.82-1.9-.467 0-1.166.592-1.82 1.9a11.237 11.237 0 00-.816 2.267zm-4.583 8.334a8.37 8.37 0 003.612 3.348c-.492-.945-.891-2.08-1.168-3.348H5.28zm14.438 0h-2.444c-.277 1.267-.677 2.403-1.168 3.348a8.37 8.37 0 003.612-3.348zm-9.855 0c.212.843.488 1.61.816 2.267.654 1.308 1.354 1.9 1.82 1.9.467 0 1.165-.592 1.82-1.9a11.23 11.23 0 00.815-2.267h-5.27zm2.636 6.25c-5.753 0-10.417-4.664-10.417-10.417S6.747 2.083 12.5 2.083 22.917 6.747 22.917 12.5 18.253 22.917 12.5 22.917z" fill="#fff"/></svg>