<svg width="41" height="41" viewBox="0 0 41 41" fill="none" xmlns="http://www.w3.org/2000/svg">
<rect x="0.792969" y="0.888672" width="40" height="40" rx="2" fill="#171A31"/>
<path d="M21.1745 30.8428C26.9227 30.8428 31.5825 26.183 31.5825 20.4348C31.5825 14.6867 26.9227 10.0269 21.1745 10.0269C15.4263 10.0269 10.7665 14.6867 10.7665 20.4348C10.7665 26.183 15.4263 30.8428 21.1745 30.8428Z" fill="url(#paint0_linear)"/>
<path d="M21.1745 30.8428C26.9227 30.8428 31.5825 26.183 31.5825 20.4348C31.5825 14.6867 26.9227 10.0269 21.1745 10.0269C15.4263 10.0269 10.7665 14.6867 10.7665 20.4348C10.7665 26.183 15.4263 30.8428 21.1745 30.8428Z" fill="url(#paint1_linear)"/>
<path d="M21.1745 30.8428C26.9227 30.8428 31.5825 26.183 31.5825 20.4348C31.5825 14.6867 26.9227 10.0269 21.1745 10.0269C15.4263 10.0269 10.7665 14.6867 10.7665 20.4348C10.7665 26.183 15.4263 30.8428 21.1745 30.8428Z" fill="url(#paint2_linear)"/>
<path d="M27.7837 8.50699C27.3506 8.50699 26.913 8.50699 26.4799 8.50699C25.4287 8.50699 24.3776 8.50699 23.3264 8.50699C22.0451 8.50699 20.7639 8.50699 19.4826 8.50699C18.3773 8.50699 17.2765 8.50699 16.1712 8.50699C15.6343 8.50699 15.0975 8.49346 14.5651 8.50699C14.5561 8.50699 14.5516 8.50699 14.5426 8.50699C14.3892 8.50699 14.2403 8.59271 14.1636 8.72354C13.9425 9.10702 13.7215 9.4905 13.5004 9.87397C12.968 10.7943 12.4357 11.7147 11.9078 12.635C11.2672 13.7448 10.6266 14.8546 9.98596 15.969C9.43556 16.9209 8.88516 17.8728 8.33476 18.8292C8.0731 19.2849 7.78887 19.7315 7.54525 20.1962C7.40991 20.4489 7.51818 20.6203 7.63548 20.8278C7.77083 21.0624 7.90617 21.297 8.04152 21.5361C8.54229 22.4023 9.04306 23.2731 9.54384 24.1393C10.18 25.2446 10.8206 26.3499 11.4567 27.4552C12.0297 28.4477 12.6026 29.4447 13.1801 30.4373C13.4959 30.9832 13.8072 31.5245 14.123 32.0704C14.1365 32.0975 14.1546 32.1201 14.1681 32.1471C14.2448 32.2825 14.3937 32.3637 14.5471 32.3637C14.9892 32.3637 15.4313 32.3637 15.8734 32.3637C16.9246 32.3637 17.9758 32.3637 19.027 32.3637C20.3082 32.3637 21.5895 32.3637 22.8707 32.3637C23.976 32.3637 25.0768 32.3637 26.1822 32.3637C26.719 32.3637 27.2559 32.3772 27.7882 32.3637C27.7973 32.3637 27.8018 32.3637 27.8108 32.3637C27.9642 32.3637 28.1131 32.278 28.1898 32.1471C28.4108 31.7636 28.6319 31.3802 28.853 30.9967C29.3853 30.0764 29.9177 29.156 30.4455 28.2357C31.0861 27.1259 31.7268 26.016 32.3674 24.9017C32.9178 23.9498 33.4682 22.9979 34.0186 22.0414C34.2803 21.5858 34.5645 21.1391 34.8081 20.6744C34.9434 20.4218 34.8352 20.2504 34.7179 20.0428C34.5825 19.8082 34.4472 19.5736 34.3118 19.3345C33.8111 18.4683 33.3103 17.5976 32.8095 16.7314C32.1734 15.6261 31.5328 14.5208 30.8966 13.4155C30.3237 12.423 29.7507 11.4259 29.1733 10.4334C28.8575 9.8875 28.5462 9.34613 28.2304 8.80024C28.2168 8.77317 28.1988 8.75061 28.1853 8.72354C28.1537 8.66941 28.1086 8.62429 28.0589 8.5882C27.9958 8.54309 27.9191 8.5115 27.8334 8.50699C27.8288 8.50699 27.8243 8.50699 27.8153 8.50699C27.8108 8.50699 27.8063 8.50699 27.8018 8.50699C27.7973 8.50699 27.7973 8.50699 27.7928 8.50699C27.7928 8.50699 27.7882 8.50699 27.7837 8.50699ZM29.6695 13.0591C30.3056 14.1644 30.9418 15.2652 31.5824 16.3705C32.1373 17.3269 32.6877 18.2834 33.2426 19.2443C33.4727 19.6413 33.6893 20.0519 33.9284 20.4444C33.7524 20.7466 33.5765 21.0534 33.4005 21.3557C32.8727 22.2715 32.3448 23.1873 31.817 24.1032C31.1809 25.2085 30.5448 26.3093 29.9041 27.4146C29.3492 28.371 28.7988 29.3275 28.2439 30.2884C28.0138 30.6854 27.7657 31.0824 27.5446 31.4839C27.1927 31.4839 26.8363 31.4839 26.4844 31.4839C25.4333 31.4839 24.3821 31.4839 23.3309 31.4839C22.0496 31.4839 20.7684 31.4839 19.4871 31.4839C18.3818 31.4839 17.281 31.4839 16.1757 31.4839C15.7155 31.4839 15.2554 31.4659 14.7952 31.4749C14.6192 31.1681 14.4433 30.8614 14.2674 30.5591C13.7395 29.6433 13.2117 28.7274 12.6838 27.8116C12.0477 26.7063 11.4116 25.6055 10.771 24.5002C10.216 23.5437 9.66565 22.5873 9.11074 21.6264C8.88065 21.2294 8.6641 20.8188 8.42499 20.4263C8.60094 20.124 8.77689 19.8173 8.95283 19.515C9.48068 18.5992 10.0085 17.6833 10.5364 16.7675C11.1725 15.6622 11.8086 14.5614 12.4492 13.4561C13.0041 12.4996 13.5545 11.5432 14.1094 10.5823C14.3395 10.1853 14.5877 9.78825 14.8087 9.38673C15.1606 9.38673 15.517 9.38673 15.8689 9.38673C16.9201 9.38673 17.9713 9.38673 19.0224 9.38673C20.3037 9.38673 21.585 9.38673 22.8662 9.38673C23.9715 9.38673 25.0723 9.38673 26.1776 9.38673C26.6378 9.38673 27.098 9.39575 27.5582 9.39124C27.7341 9.69802 27.9146 10.0048 28.0905 10.3116C28.6138 11.2319 29.1417 12.1478 29.6695 13.0591Z" fill="url(#paint3_linear)"/>
<path d="M27.7837 8.50699C27.3506 8.50699 26.913 8.50699 26.4799 8.50699C25.4287 8.50699 24.3776 8.50699 23.3264 8.50699C22.0451 8.50699 20.7639 8.50699 19.4826 8.50699C18.3773 8.50699 17.2765 8.50699 16.1712 8.50699C15.6343 8.50699 15.0975 8.49346 14.5651 8.50699C14.5561 8.50699 14.5516 8.50699 14.5426 8.50699C14.3892 8.50699 14.2403 8.59271 14.1636 8.72354C13.9425 9.10702 13.7215 9.4905 13.5004 9.87397C12.968 10.7943 12.4357 11.7147 11.9078 12.635C11.2672 13.7448 10.6266 14.8546 9.98596 15.969C9.43556 16.9209 8.88516 17.8728 8.33476 18.8292C8.0731 19.2849 7.78887 19.7315 7.54525 20.1962C7.40991 20.4489 7.51818 20.6203 7.63548 20.8278C7.77083 21.0624 7.90617 21.297 8.04152 21.5361C8.54229 22.4023 9.04306 23.2731 9.54384 24.1393C10.18 25.2446 10.8206 26.3499 11.4567 27.4552C12.0297 28.4477 12.6026 29.4447 13.1801 30.4373C13.4959 30.9832 13.8072 31.5245 14.123 32.0704C14.1365 32.0975 14.1546 32.1201 14.1681 32.1471C14.2448 32.2825 14.3937 32.3637 14.5471 32.3637C14.9892 32.3637 15.4313 32.3637 15.8734 32.3637C16.9246 32.3637 17.9758 32.3637 19.027 32.3637C20.3082 32.3637 21.5895 32.3637 22.8707 32.3637C23.976 32.3637 25.0768 32.3637 26.1822 32.3637C26.719 32.3637 27.2559 32.3772 27.7882 32.3637C27.7973 32.3637 27.8018 32.3637 27.8108 32.3637C27.9642 32.3637 28.1131 32.278 28.1898 32.1471C28.4108 31.7636 28.6319 31.3802 28.853 30.9967C29.3853 30.0764 29.9177 29.156 30.4455 28.2357C31.0861 27.1259 31.7268 26.016 32.3674 24.9017C32.9178 23.9498 33.4682 22.9979 34.0186 22.0414C34.2803 21.5858 34.5645 21.1391 34.8081 20.6744C34.9434 20.4218 34.8352 20.2504 34.7179 20.0428C34.5825 19.8082 34.4472 19.5736 34.3118 19.3345C33.8111 18.4683 33.3103 17.5976 32.8095 16.7314C32.1734 15.6261 31.5328 14.5208 30.8966 13.4155C30.3237 12.423 29.7507 11.4259 29.1733 10.4334C28.8575 9.8875 28.5462 9.34613 28.2304 8.80024C28.2168 8.77317 28.1988 8.75061 28.1853 8.72354C28.1537 8.66941 28.1086 8.62429 28.0589 8.5882C27.9958 8.54309 27.9191 8.5115 27.8334 8.50699C27.8288 8.50699 27.8243 8.50699 27.8153 8.50699C27.8108 8.50699 27.8063 8.50699 27.8018 8.50699C27.7973 8.50699 27.7973 8.50699 27.7928 8.50699C27.7928 8.50699 27.7882 8.50699 27.7837 8.50699ZM29.6695 13.0591C30.3056 14.1644 30.9418 15.2652 31.5824 16.3705C32.1373 17.3269 32.6877 18.2834 33.2426 19.2443C33.4727 19.6413 33.6893 20.0519 33.9284 20.4444C33.7524 20.7466 33.5765 21.0534 33.4005 21.3557C32.8727 22.2715 32.3448 23.1873 31.817 24.1032C31.1809 25.2085 30.5448 26.3093 29.9041 27.4146C29.3492 28.371 28.7988 29.3275 28.2439 30.2884C28.0138 30.6854 27.7657 31.0824 27.5446 31.4839C27.1927 31.4839 26.8363 31.4839 26.4844 31.4839C25.4333 31.4839 24.3821 31.4839 23.3309 31.4839C22.0496 31.4839 20.7684 31.4839 19.4871 31.4839C18.3818 31.4839 17.281 31.4839 16.1757 31.4839C15.7155 31.4839 15.2554 31.4659 14.7952 31.4749C14.6192 31.1681 14.4433 30.8614 14.2674 30.5591C13.7395 29.6433 13.2117 28.7274 12.6838 27.8116C12.0477 26.7063 11.4116 25.6055 10.771 24.5002C10.216 23.5437 9.66565 22.5873 9.11074 21.6264C8.88065 21.2294 8.6641 20.8188 8.42499 20.4263C8.60094 20.124 8.77689 19.8173 8.95283 19.515C9.48068 18.5992 10.0085 17.6833 10.5364 16.7675C11.1725 15.6622 11.8086 14.5614 12.4492 13.4561C13.0041 12.4996 13.5545 11.5432 14.1094 10.5823C14.3395 10.1853 14.5877 9.78825 14.8087 9.38673C15.1606 9.38673 15.517 9.38673 15.8689 9.38673C16.9201 9.38673 17.9713 9.38673 19.0224 9.38673C20.3037 9.38673 21.585 9.38673 22.8662 9.38673C23.9715 9.38673 25.0723 9.38673 26.1776 9.38673C26.6378 9.38673 27.098 9.39575 27.5582 9.39124C27.7341 9.69802 27.9146 10.0048 28.0905 10.3116C28.6138 11.2319 29.1417 12.1478 29.6695 13.0591Z" fill="url(#paint4_linear)"/>
<path d="M27.7837 8.50699C27.3506 8.50699 26.913 8.50699 26.4799 8.50699C25.4287 8.50699 24.3776 8.50699 23.3264 8.50699C22.0451 8.50699 20.7639 8.50699 19.4826 8.50699C18.3773 8.50699 17.2765 8.50699 16.1712 8.50699C15.6343 8.50699 15.0975 8.49346 14.5651 8.50699C14.5561 8.50699 14.5516 8.50699 14.5426 8.50699C14.3892 8.50699 14.2403 8.59271 14.1636 8.72354C13.9425 9.10702 13.7215 9.4905 13.5004 9.87397C12.968 10.7943 12.4357 11.7147 11.9078 12.635C11.2672 13.7448 10.6266 14.8546 9.98596 15.969C9.43556 16.9209 8.88516 17.8728 8.33476 18.8292C8.0731 19.2849 7.78887 19.7315 7.54525 20.1962C7.40991 20.4489 7.51818 20.6203 7.63548 20.8278C7.77083 21.0624 7.90617 21.297 8.04152 21.5361C8.54229 22.4023 9.04306 23.2731 9.54384 24.1393C10.18 25.2446 10.8206 26.3499 11.4567 27.4552C12.0297 28.4477 12.6026 29.4447 13.1801 30.4373C13.4959 30.9832 13.8072 31.5245 14.123 32.0704C14.1365 32.0975 14.1546 32.1201 14.1681 32.1471C14.2448 32.2825 14.3937 32.3637 14.5471 32.3637C14.9892 32.3637 15.4313 32.3637 15.8734 32.3637C16.9246 32.3637 17.9758 32.3637 19.027 32.3637C20.3082 32.3637 21.5895 32.3637 22.8707 32.3637C23.976 32.3637 25.0768 32.3637 26.1822 32.3637C26.719 32.3637 27.2559 32.3772 27.7882 32.3637C27.7973 32.3637 27.8018 32.3637 27.8108 32.3637C27.9642 32.3637 28.1131 32.278 28.1898 32.1471C28.4108 31.7636 28.6319 31.3802 28.853 30.9967C29.3853 30.0764 29.9177 29.156 30.4455 28.2357C31.0861 27.1259 31.7268 26.016 32.3674 24.9017C32.9178 23.9498 33.4682 22.9979 34.0186 22.0414C34.2803 21.5858 34.5645 21.1391 34.8081 20.6744C34.9434 20.4218 34.8352 20.2504 34.7179 20.0428C34.5825 19.8082 34.4472 19.5736 34.3118 19.3345C33.8111 18.4683 33.3103 17.5976 32.8095 16.7314C32.1734 15.6261 31.5328 14.5208 30.8966 13.4155C30.3237 12.423 29.7507 11.4259 29.1733 10.4334C28.8575 9.8875 28.5462 9.34613 28.2304 8.80024C28.2168 8.77317 28.1988 8.75061 28.1853 8.72354C28.1537 8.66941 28.1086 8.62429 28.0589 8.5882C27.9958 8.54309 27.9191 8.5115 27.8334 8.50699C27.8288 8.50699 27.8243 8.50699 27.8153 8.50699C27.8108 8.50699 27.8063 8.50699 27.8018 8.50699C27.7973 8.50699 27.7973 8.50699 27.7928 8.50699C27.7928 8.50699 27.7882 8.50699 27.7837 8.50699ZM29.6695 13.0591C30.3056 14.1644 30.9418 15.2652 31.5824 16.3705C32.1373 17.3269 32.6877 18.2834 33.2426 19.2443C33.4727 19.6413 33.6893 20.0519 33.9284 20.4444C33.7524 20.7466 33.5765 21.0534 33.4005 21.3557C32.8727 22.2715 32.3448 23.1873 31.817 24.1032C31.1809 25.2085 30.5448 26.3093 29.9041 27.4146C29.3492 28.371 28.7988 29.3275 28.2439 30.2884C28.0138 30.6854 27.7657 31.0824 27.5446 31.4839C27.1927 31.4839 26.8363 31.4839 26.4844 31.4839C25.4333 31.4839 24.3821 31.4839 23.3309 31.4839C22.0496 31.4839 20.7684 31.4839 19.4871 31.4839C18.3818 31.4839 17.281 31.4839 16.1757 31.4839C15.7155 31.4839 15.2554 31.4659 14.7952 31.4749C14.6192 31.1681 14.4433 30.8614 14.2674 30.5591C13.7395 29.6433 13.2117 28.7274 12.6838 27.8116C12.0477 26.7063 11.4116 25.6055 10.771 24.5002C10.216 23.5437 9.66565 22.5873 9.11074 21.6264C8.88065 21.2294 8.6641 20.8188 8.42499 20.4263C8.60094 20.124 8.77689 19.8173 8.95283 19.515C9.48068 18.5992 10.0085 17.6833 10.5364 16.7675C11.1725 15.6622 11.8086 14.5614 12.4492 13.4561C13.0041 12.4996 13.5545 11.5432 14.1094 10.5823C14.3395 10.1853 14.5877 9.78825 14.8087 9.38673C15.1606 9.38673 15.517 9.38673 15.8689 9.38673C16.9201 9.38673 17.9713 9.38673 19.0224 9.38673C20.3037 9.38673 21.585 9.38673 22.8662 9.38673C23.9715 9.38673 25.0723 9.38673 26.1776 9.38673C26.6378 9.38673 27.098 9.39575 27.5582 9.39124C27.7341 9.69802 27.9146 10.0048 28.0905 10.3116C28.6138 11.2319 29.1417 12.1478 29.6695 13.0591Z" fill="url(#paint5_linear)"/>
<path d="M23.4302 24.8225C23.4302 24.8187 23.4341 24.8149 23.4341 24.811C23.4341 24.8187 23.4341 24.8187 23.4302 24.8225Z" fill="#69A5FF"/>
<path d="M23.4612 21.6702C23.448 21.6569 23.4347 21.648 23.4302 21.6392C23.4391 21.6613 23.4568 21.6702 23.4612 21.6702Z" fill="#69A5FF"/>
<path d="M9.12435 23.3225H13.2388H15.0569C15.093 23.3721 15.1517 23.4082 15.2194 23.4082C15.3276 23.4082 15.4179 23.318 15.4179 23.2097C15.4179 23.1015 15.3276 23.0112 15.2194 23.0112C15.1517 23.0112 15.0885 23.0473 15.0524 23.1015H11.4252H9.12886C9.09277 23.0473 9.03412 23.0112 8.96645 23.0112C8.85817 23.0112 8.76794 23.1015 8.76794 23.2097C8.76794 23.318 8.85817 23.4082 8.96645 23.4082C9.02961 23.4082 9.08826 23.3721 9.12435 23.3225Z" fill="#69A5FF"/>
<path d="M27.671 22.6547C27.6349 22.6005 27.5717 22.5645 27.504 22.5645C27.3958 22.5645 27.3055 22.6547 27.3055 22.763C27.3055 22.8712 27.3958 22.9615 27.504 22.9615C27.5717 22.9615 27.6304 22.9299 27.6665 22.8757H29.4801H33.5945C33.6306 22.9299 33.6893 22.9615 33.757 22.9615C33.8652 22.9615 33.9555 22.8712 33.9555 22.763C33.9555 22.6547 33.8652 22.5645 33.757 22.5645C33.6893 22.5645 33.6261 22.6005 33.5945 22.6547H31.2982H27.671Z" fill="#69A5FF"/>
<path d="M22.2078 33.2516L22.2033 33.2561C22.1943 33.2696 22.1898 33.2831 22.1852 33.2967C22.1762 33.3147 22.1672 33.3328 22.1672 33.3553V33.5764V33.8741V34.014C22.1176 34.0501 22.0815 34.1087 22.0815 34.1764C22.0815 34.2847 22.1717 34.3749 22.28 34.3749C22.3883 34.3749 22.4785 34.2847 22.4785 34.1764C22.4785 34.1087 22.4424 34.0456 22.3883 34.0095V33.8741V33.3824C22.4244 33.3463 22.4604 33.3057 22.501 33.2651C22.5417 33.22 22.5823 33.1794 22.6274 33.1343C22.668 33.0937 22.7086 33.0485 22.7492 33.0034C22.7582 32.9944 22.7627 32.9899 22.7717 32.9809C22.7808 32.9809 22.7898 32.9854 22.7988 32.9854C22.9071 32.9854 22.9973 32.8952 22.9973 32.7869C22.9973 32.6786 22.9071 32.5884 22.7988 32.5884C22.6905 32.5884 22.6003 32.6786 22.6003 32.7869C22.6003 32.8049 22.6048 32.823 22.6093 32.8365C22.6048 32.841 22.6048 32.841 22.6003 32.8455C22.5597 32.8906 22.5191 32.9403 22.4785 32.9809C22.4379 33.0215 22.3928 33.0666 22.3522 33.1117C22.3116 33.1523 22.2755 33.2019 22.2349 33.238C22.2168 33.2471 22.2123 33.2471 22.2078 33.2516Z" fill="#69A5FF"/>
<path d="M22.5687 7.82562C22.5281 7.7805 22.4875 7.7399 22.4424 7.69478C22.4063 7.65418 22.3702 7.61358 22.3296 7.57749V7.08573V6.95039C22.3837 6.9143 22.4198 6.85114 22.4198 6.78347C22.4198 6.67519 22.3296 6.58496 22.2213 6.58496C22.1131 6.58496 22.0228 6.67519 22.0228 6.78347C22.0228 6.85114 22.0544 6.90979 22.1085 6.94588V7.08573V7.38349V7.60455C22.1085 7.62711 22.1131 7.64516 22.1266 7.6632C22.1311 7.67674 22.1356 7.69027 22.1446 7.70381L22.1491 7.70832C22.1537 7.71283 22.1537 7.71283 22.1582 7.71734C22.1988 7.75794 22.2394 7.80306 22.2755 7.84366C22.3161 7.88878 22.3567 7.92938 22.4018 7.97449C22.4469 8.01961 22.483 8.06472 22.5236 8.10984C22.5281 8.11435 22.5281 8.11435 22.5326 8.11886C22.5281 8.13691 22.5236 8.15044 22.5236 8.16849C22.5236 8.27676 22.6138 8.36699 22.7221 8.36699C22.8304 8.36699 22.9206 8.27676 22.9206 8.16849C22.9206 8.06021 22.8304 7.96998 22.7221 7.96998C22.7131 7.96998 22.7041 7.96998 22.695 7.97449C22.686 7.96547 22.6815 7.95645 22.6725 7.95194C22.6499 7.91133 22.6093 7.86622 22.5687 7.82562Z" fill="#69A5FF"/>
<path d="M21.2512 5.86268C21.2512 5.93487 21.2918 5.99803 21.3505 6.03412V6.20104C21.346 6.20104 21.346 6.20104 21.3414 6.20104V9.68841C21.3414 9.70195 21.346 9.71548 21.3505 9.72451C21.3505 9.74706 21.3595 9.76962 21.3775 9.79218C21.3866 9.8012 21.3956 9.81474 21.4046 9.82376C21.4136 9.83278 21.4272 9.84181 21.4362 9.85083C21.4452 9.85985 21.4587 9.87338 21.4678 9.88241C21.4723 9.88692 21.4723 9.88692 21.4768 9.89143C21.4813 9.89594 21.4813 9.89594 21.4858 9.90045C21.4948 9.90948 21.5039 9.9185 21.5129 9.92752C21.5354 9.95008 21.558 9.97264 21.5806 9.99519C21.6166 10.0268 21.6527 10.0629 21.6843 10.0944C21.7204 10.1305 21.752 10.1621 21.7881 10.1982C21.7971 10.2072 21.8016 10.2117 21.8106 10.2208C21.8422 10.2478 21.8693 10.2749 21.9009 10.302C21.9144 10.3155 21.9324 10.3336 21.9505 10.3471C21.964 10.3561 21.9776 10.3651 21.9866 10.3742C21.9956 10.3832 22.0046 10.3922 22.0182 10.4012C22.0317 10.4148 22.0452 10.4283 22.0588 10.4418C22.0678 10.4509 22.0723 10.4554 22.0813 10.4644V13.4826C21.9595 13.4826 21.8377 13.4826 21.7159 13.4826C21.6663 13.4826 21.6121 13.4826 21.5625 13.4826V11.1862C21.6121 11.1501 21.6482 11.0915 21.6482 11.0238C21.6482 10.9155 21.558 10.8253 21.4497 10.8253C21.3414 10.8253 21.2512 10.9155 21.2512 11.0238C21.2512 11.0915 21.2873 11.1546 21.3414 11.1907V13.46C21.1971 13.46 21.0527 13.46 20.9083 13.46V12.3637V8.21316C20.9444 8.17707 20.9715 8.12745 20.9715 8.0688C20.9715 7.96052 20.8813 7.87029 20.773 7.87029C20.6647 7.87029 20.5745 7.96052 20.5745 8.0688C20.5745 8.14549 20.6196 8.21316 20.6873 8.24474V10.7621V13.4555C20.4437 13.4555 20.2046 13.4555 19.9609 13.4555V12.0254V7.94699C19.9925 7.91089 20.0106 7.86578 20.0106 7.81615C20.0106 7.70788 19.9203 7.61765 19.8121 7.61765C19.7038 7.61765 19.6136 7.70788 19.6136 7.81615C19.6136 7.89736 19.6677 7.96954 19.7399 8.00112V10.0899V13.4555C19.6948 13.4555 19.6542 13.4555 19.609 13.4555C19.4963 13.4555 19.3835 13.4555 19.2707 13.4555C19.2707 12.7652 19.2752 12.075 19.2752 11.3892C19.2932 11.3802 19.3068 11.3712 19.3203 11.3577C19.397 11.281 19.397 11.1546 19.3203 11.0779C19.2436 11.0013 19.1173 11.0013 19.0406 11.0779C18.9639 11.1546 18.9639 11.281 19.0406 11.3577C19.0451 11.3622 19.0496 11.3667 19.0541 11.3712C19.0541 12.066 19.0496 12.7652 19.0496 13.46C19.0135 13.46 18.9819 13.46 18.9459 13.46C18.4361 12.9502 17.9308 12.4449 17.421 11.9351C17.1007 11.6148 16.7803 11.299 16.4645 10.9787C16.4645 10.9652 16.4691 10.9561 16.4691 10.9426C16.4691 10.8343 16.3788 10.7441 16.2705 10.7441C16.1623 10.7441 16.072 10.8343 16.072 10.9426C16.072 11.0509 16.1623 11.1411 16.2705 11.1411C16.2841 11.1411 16.2976 11.1411 16.3112 11.1366C17.0871 11.9126 17.8586 12.684 18.6346 13.46C18.427 13.46 18.215 13.46 18.0075 13.46C17.9984 13.46 17.9849 13.46 17.9759 13.46C17.8721 13.46 17.7638 13.5006 17.6826 13.5638C17.3533 13.2344 17.0195 12.9006 16.6901 12.5712C16.6901 12.463 16.5999 12.3727 16.4916 12.3727C16.3833 12.3727 16.2931 12.463 16.2931 12.5712C16.2931 12.6795 16.3833 12.7698 16.4916 12.7698C16.5142 12.7698 16.5412 12.7652 16.5593 12.7562C16.8841 13.081 17.2089 13.4059 17.5383 13.7352C17.5022 13.8029 17.4841 13.8751 17.4886 13.9563C17.4886 14.0871 17.4886 14.2134 17.4886 14.3443H17.4841H16.9022C16.8661 14.2901 16.8074 14.254 16.7352 14.254C16.627 14.254 16.5367 14.3443 16.5367 14.4525C16.5367 14.5608 16.627 14.651 16.7352 14.651C16.8029 14.651 16.8616 14.6149 16.8976 14.5653H17.4796H17.4841C17.4841 14.7909 17.4841 15.0165 17.4841 15.2466H15.7292C15.7201 15.2466 15.7156 15.2466 15.7111 15.2466C15.0028 14.5428 14.299 13.8345 13.5907 13.1307C13.5907 13.1262 13.5907 13.1216 13.5907 13.1216C13.5907 13.0134 13.5005 12.9231 13.3922 12.9231C13.284 12.9231 13.1937 13.0134 13.1937 13.1216C13.1937 13.2299 13.284 13.3202 13.3922 13.3202C13.4148 13.3202 13.4373 13.3156 13.4554 13.3066C14.1727 14.0239 14.89 14.7413 15.6074 15.4586C15.648 15.4992 15.7111 15.4992 15.7562 15.4631H17.4932C17.4932 15.603 17.4932 15.7428 17.4932 15.8827H15.3096H11.6869C11.6508 15.8376 11.5967 15.806 11.5335 15.806C11.4252 15.806 11.335 15.8962 11.335 16.0045C11.335 16.1128 11.4252 16.203 11.5335 16.203C11.6057 16.203 11.6688 16.1624 11.7049 16.1037H15.9051H17.4932C17.4932 16.2752 17.4932 16.4466 17.4932 16.618H16.8029C16.7668 16.5549 16.7036 16.5098 16.627 16.5098C16.5187 16.5098 16.4285 16.6 16.4285 16.7083C16.4285 16.8165 16.5187 16.9068 16.627 16.9068C16.6856 16.9068 16.7397 16.8797 16.7758 16.8391H17.4932C17.4932 17.0331 17.4932 17.2271 17.4932 17.4211H15.084H14.1411C14.105 17.3669 14.0419 17.3263 13.9742 17.3263C13.8659 17.3263 13.7757 17.4166 13.7757 17.5248C13.7757 17.6331 13.8659 17.7234 13.9742 17.7234C14.0374 17.7234 14.096 17.6918 14.1321 17.6421H17.4932C17.4932 17.8632 17.4932 18.0888 17.4932 18.3098H13.9201H11.9576C11.9215 18.2602 11.8628 18.2241 11.7952 18.2241C11.6869 18.2241 11.5967 18.3144 11.5967 18.4226C11.5967 18.5309 11.6869 18.6211 11.7952 18.6211C11.8628 18.6211 11.926 18.585 11.9621 18.5309H15.869H17.4932C17.4932 18.77 17.4932 19.0136 17.4932 19.2527H16.2931C16.257 19.1941 16.1939 19.158 16.1262 19.158C16.0179 19.158 15.9277 19.2482 15.9277 19.3565C15.9277 19.4648 16.0179 19.555 16.1262 19.555C16.1893 19.555 16.248 19.5234 16.2841 19.4738H17.4932C17.4932 19.7264 17.4932 19.9791 17.4932 20.2362H14.4479H10.4372C10.4011 20.1866 10.3425 20.1505 10.2748 20.1505C10.1665 20.1505 10.0763 20.2408 10.0763 20.349C10.0763 20.4573 10.1665 20.5475 10.2748 20.5475C10.3425 20.5475 10.4056 20.5114 10.4417 20.4573H14.3893H17.4932C17.4932 20.6513 17.4932 20.8453 17.4932 21.0393H14.6329H14.087C14.0509 20.9851 13.9923 20.9536 13.9246 20.9536C13.8163 20.9536 13.7261 21.0438 13.7261 21.1521C13.7261 21.2603 13.8163 21.3506 13.9246 21.3506C13.9923 21.3506 14.0554 21.3145 14.0915 21.2603H17.4932C17.4932 21.4183 17.4932 21.5716 17.4932 21.7295H14.4389H14.1908C14.1817 21.7205 14.1727 21.7115 14.1592 21.7025C13.8795 21.4904 13.6043 21.2784 13.3246 21.0664C13.311 21.0528 13.2885 21.0528 13.2659 21.0528C13.2524 21.0483 13.2388 21.0438 13.2253 21.0438H11.6418H11.1049C11.0688 20.9987 11.0147 20.9671 10.9515 20.9671C10.8432 20.9671 10.753 21.0573 10.753 21.1656C10.753 21.2739 10.8432 21.3641 10.9515 21.3641C11.0237 21.3641 11.0869 21.3235 11.123 21.2649H13.2253C13.5005 21.4769 13.7757 21.6844 14.0509 21.8965C14.0554 21.901 14.0644 21.9055 14.0735 21.9055C14.0915 21.9326 14.1276 21.9506 14.1637 21.9506H17.4932C17.4932 22.0002 17.4932 22.0499 17.4932 22.0995C17.4932 22.2032 17.4932 22.3115 17.4932 22.4153H17.2044C17.1683 22.3521 17.1052 22.3115 17.0285 22.3115C16.9202 22.3115 16.83 22.4018 16.83 22.51C16.83 22.6183 16.9202 22.7085 17.0285 22.7085C17.0871 22.7085 17.1413 22.6815 17.1774 22.6363H17.4886C17.4886 22.7942 17.4886 22.9476 17.4886 23.1055H16.9247C16.9202 23.101 16.9202 23.0965 16.9157 23.0965C16.7352 22.9115 16.5548 22.7311 16.3788 22.5461C16.3788 22.5461 16.3788 22.5461 16.3743 22.5416C16.3653 22.5326 16.3563 22.5236 16.3472 22.5145C16.3112 22.4784 16.257 22.4739 16.2119 22.4965C16.1939 22.4784 16.1668 22.4694 16.1397 22.4694H12.6072C12.5711 22.4243 12.517 22.3972 12.4538 22.3972C12.3456 22.3972 12.2553 22.4875 12.2553 22.5957C12.2553 22.704 12.3456 22.7942 12.4538 22.7942C12.526 22.7942 12.5937 22.7536 12.6253 22.6905H16.1352C16.1578 22.6905 16.1758 22.686 16.1893 22.6724C16.1984 22.6815 16.2029 22.686 16.2074 22.695C16.3878 22.88 16.5683 23.0604 16.7443 23.2454C16.7533 23.2544 16.7668 23.2634 16.7803 23.268C16.7984 23.2995 16.8345 23.3176 16.8706 23.3176H17.4932C17.4932 23.5296 17.4932 23.7462 17.4932 23.9582H14.7863C14.7502 23.9131 14.696 23.8815 14.6329 23.8815C14.5246 23.8815 14.4344 23.9717 14.4344 24.08C14.4344 24.1883 14.5246 24.2785 14.6329 24.2785C14.7051 24.2785 14.7682 24.2379 14.8043 24.1793H17.4932C17.4932 24.3372 17.4932 24.4906 17.4932 24.6485H14.9532H14.2584C14.2494 24.6394 14.2404 24.6349 14.2314 24.6259C13.9336 24.3958 13.6313 24.1657 13.3336 23.9357C13.3155 23.9221 13.2885 23.9176 13.2659 23.9221C13.2479 23.9086 13.2253 23.8996 13.2027 23.8996H11.9666C11.9305 23.8409 11.8674 23.8003 11.7952 23.8003C11.6869 23.8003 11.5967 23.8905 11.5967 23.9988C11.5967 24.1071 11.6869 24.1973 11.7952 24.1973C11.8583 24.1973 11.9125 24.1657 11.9486 24.1206H13.1982C13.2027 24.1206 13.2073 24.1206 13.2118 24.1206C13.2163 24.1206 13.2163 24.1251 13.2208 24.1296C13.5185 24.3597 13.8163 24.5853 14.1186 24.8154C14.1366 24.847 14.1727 24.8695 14.2133 24.8695H17.4932C17.4932 25.0229 17.4932 25.1718 17.4932 25.3252C17.4932 25.3477 17.4932 25.3703 17.4932 25.3974H15.5668H15.5036H15.057H13.3832C13.3471 25.3523 13.293 25.3252 13.2343 25.3252C13.1261 25.3252 13.0358 25.4154 13.0358 25.5237C13.0358 25.632 13.1261 25.7222 13.2343 25.7222C13.3065 25.7222 13.3742 25.6771 13.4058 25.6184H15.5081H17.4616H17.4977C17.4977 25.8621 17.4932 26.1057 17.4932 26.3493C17.051 26.3538 16.6044 26.3583 16.1623 26.3628C16.1623 26.3628 16.1623 26.3628 16.1578 26.3628C16.1442 26.3628 16.1307 26.3628 16.1172 26.3628C16.0991 26.3628 16.0811 26.3628 16.063 26.3628C16.054 26.3493 16.045 26.3358 16.036 26.3267C15.9593 26.25 15.8329 26.25 15.7562 26.3312C15.6795 26.4079 15.6795 26.5343 15.7608 26.611C15.8374 26.6877 15.9638 26.6877 16.0405 26.611C16.0495 26.6019 16.054 26.5974 16.0585 26.5884C16.0811 26.5884 16.1036 26.5884 16.1217 26.5884C16.5773 26.5839 17.0375 26.5794 17.4977 26.5704C17.4977 26.6786 17.4977 26.7914 17.5022 26.8997C17.5022 26.9087 17.5022 26.9132 17.5022 26.9223C17.5022 27.008 17.5247 27.0892 17.5699 27.1614C17.0646 27.6712 16.5593 28.1764 16.054 28.6862C15.4946 29.2502 14.9352 29.8141 14.3757 30.378C14.3622 30.378 14.3532 30.3735 14.3396 30.3735C14.2314 30.3735 14.1411 30.4638 14.1411 30.572C14.1411 30.6803 14.2314 30.7705 14.3396 30.7705C14.4479 30.7705 14.5381 30.6803 14.5381 30.572C14.5381 30.5585 14.5381 30.545 14.5336 30.5314C15.5126 29.5479 16.4916 28.5599 17.4661 27.5764C17.5518 27.4907 17.633 27.405 17.7187 27.3238C17.7954 27.3779 17.8902 27.4095 17.9939 27.4095C18.0075 27.4095 18.021 27.4095 18.0345 27.4095C18.0345 27.8471 18.0345 28.2847 18.039 28.7268C18.03 28.7314 18.0255 28.7359 18.021 28.7404L16.0269 30.7344C15.9593 30.7164 15.8826 30.7299 15.8284 30.7841C15.7517 30.8608 15.7517 30.9871 15.8284 31.0638C15.9051 31.1405 16.0314 31.1405 16.1081 31.0638C16.1487 31.0232 16.1668 30.9645 16.1623 30.9104L18.1744 28.9028C18.1879 28.8892 18.1924 28.8757 18.2015 28.8622C18.2376 28.8441 18.2601 28.808 18.2601 28.7674C18.2601 28.3163 18.2601 27.8697 18.2556 27.4185C18.5308 27.4185 18.806 27.4185 19.0812 27.4185C19.0812 28.1584 19.0857 28.8938 19.0857 29.6336C19.0812 29.6382 19.0767 29.6427 19.0722 29.6472C18.9955 29.7239 18.9955 29.8502 19.0722 29.9269C19.1489 30.0036 19.2752 30.0036 19.3519 29.9269C19.4286 29.8502 19.4286 29.7239 19.3519 29.6472C19.3384 29.6336 19.3203 29.6246 19.3068 29.6156C19.3068 28.8847 19.3023 28.1539 19.3023 27.423C19.3564 27.423 19.415 27.423 19.4692 27.423C19.5684 27.423 19.6677 27.423 19.7669 27.423V30.9149V33.0037C19.6948 33.0353 19.6406 33.103 19.6406 33.1887C19.6406 33.297 19.7308 33.3872 19.8391 33.3872C19.9474 33.3872 20.0376 33.297 20.0376 33.1887C20.0376 33.1391 20.0196 33.0939 19.988 33.0579V28.9795V27.423C20.2316 27.423 20.4707 27.423 20.7144 27.423V30.2427V32.7601C20.6467 32.7917 20.6016 32.8593 20.6016 32.936C20.6016 33.0443 20.6918 33.1345 20.8001 33.1345C20.9083 33.1345 20.9986 33.0443 20.9986 32.936C20.9986 32.8819 20.976 32.8278 20.9354 32.7917V28.6411V27.4185C21.0798 27.4185 21.2241 27.4185 21.3685 27.4185V29.8141C21.3144 29.8502 21.2783 29.9134 21.2783 29.981C21.2783 30.0893 21.3685 30.1795 21.4768 30.1795C21.5851 30.1795 21.6753 30.0893 21.6753 29.981C21.6753 29.9134 21.6437 29.8547 21.5896 29.8186V27.4185C21.6572 27.4185 21.7249 27.4185 21.7926 27.4185C21.8964 27.4185 22.0046 27.4185 22.1084 27.4185V30.563C22.0994 30.572 22.0949 30.5765 22.0858 30.5856C22.0723 30.5991 22.0588 30.6126 22.0452 30.6262C22.0362 30.6352 22.0227 30.6442 22.0137 30.6532C22.0001 30.6623 21.9866 30.6713 21.9776 30.6803C21.9595 30.6938 21.946 30.7074 21.9279 30.7254C21.8964 30.7525 21.8693 30.7796 21.8377 30.8066C21.8287 30.8157 21.8242 30.8202 21.8151 30.8292C21.7791 30.8608 21.743 30.8969 21.7114 30.9329C21.6753 30.969 21.6437 31.0006 21.6076 31.0322C21.5851 31.0548 21.5625 31.0773 21.54 31.0999C21.5309 31.1089 21.5219 31.1179 21.5129 31.1269C21.5084 31.1315 21.5084 31.1315 21.5039 31.136C21.4993 31.136 21.4993 31.1405 21.4948 31.145C21.4858 31.154 21.4723 31.1675 21.4633 31.1766C21.4542 31.1856 21.4407 31.1901 21.4317 31.2036C21.4227 31.2127 21.4136 31.2217 21.4046 31.2352C21.3911 31.2578 21.382 31.2758 21.3775 31.3029C21.373 31.3164 21.3685 31.3254 21.3685 31.339V34.8218C21.3144 34.8579 21.2783 34.9166 21.2783 34.9888C21.2783 35.097 21.3685 35.1873 21.4768 35.1873C21.5851 35.1873 21.6753 35.097 21.6753 34.9888C21.6753 34.9256 21.6437 34.8715 21.5986 34.8354V31.3525C21.6076 31.3435 21.6121 31.339 21.6212 31.33L21.6347 31.3164C21.6437 31.3119 21.6482 31.3074 21.6527 31.2984C21.6663 31.2848 21.6798 31.2713 21.6933 31.2578C21.7159 31.2352 21.743 31.2082 21.7655 31.1856C21.7971 31.154 21.8332 31.1224 21.8648 31.0909C21.8964 31.0593 21.9279 31.0277 21.9595 30.9961C21.964 30.9916 21.964 30.9916 21.9685 30.9871C21.9776 30.9826 21.9821 30.9736 21.9911 30.969C22.0001 30.96 22.0091 30.9555 22.0137 30.9465C22.0407 30.9239 22.0633 30.9014 22.0904 30.8788C22.0994 30.8698 22.1084 30.8653 22.1219 30.8563C22.1355 30.8472 22.1445 30.8382 22.158 30.8247L22.149 30.8337C22.1716 30.8157 22.1896 30.7931 22.2122 30.775C22.2212 30.766 22.2302 30.757 22.2437 30.748C22.2483 30.7435 22.2528 30.739 22.2618 30.7344C22.2753 30.7254 22.2843 30.7119 22.2979 30.6984C22.3024 30.6938 22.3069 30.6893 22.3114 30.6893C22.334 30.6668 22.3385 30.6307 22.334 30.5991C22.334 30.5946 22.334 30.5901 22.334 30.5856V27.432C22.6498 27.4275 22.9656 27.396 23.2769 27.3328C23.2453 27.3644 23.2137 27.4005 23.1776 27.4366C23.1325 27.4817 23.0829 27.5223 23.0378 27.5674C23.0017 27.608 22.9611 27.6486 22.925 27.6847C22.9114 27.6937 22.8979 27.7072 22.8889 27.7208L22.8844 27.7253C22.8663 27.7433 22.8573 27.7704 22.8573 27.793C22.8573 27.811 22.8618 27.8291 22.8708 27.8471V32.0247C22.8708 32.0473 22.8799 32.0744 22.8934 32.0924C22.8934 32.0969 22.8934 32.0969 22.8934 32.1014C22.8934 32.1059 22.8934 32.1104 22.8934 32.1104C22.8934 32.133 22.9024 32.1646 22.9159 32.1781C23.1325 32.3902 23.3491 32.6067 23.5656 32.8187V33.8338V33.9917C23.4889 34.0188 23.4348 34.091 23.4348 34.1767C23.4348 34.285 23.525 34.3752 23.6333 34.3752C23.7415 34.3752 23.8318 34.285 23.8318 34.1767C23.8318 34.1316 23.8137 34.091 23.7867 34.0549V33.8428V32.8684V32.7872C23.7867 32.7556 23.7731 32.7285 23.7551 32.7105C23.7506 32.7014 23.7461 32.6879 23.737 32.6834C23.5205 32.4714 23.3039 32.2548 23.0874 32.0428C23.0874 32.0383 23.0874 32.0338 23.0874 32.0247V27.82C23.1145 27.7885 23.1415 27.7614 23.1731 27.7298C23.2092 27.6937 23.2453 27.6576 23.2814 27.6215C23.3039 27.6035 23.322 27.5854 23.3445 27.5629C23.3626 27.5403 23.3851 27.5223 23.4032 27.4997C23.4393 27.4591 23.4754 27.423 23.516 27.3869C23.5476 27.3553 23.5836 27.3193 23.6152 27.2877C23.6378 27.2651 23.6603 27.2381 23.6829 27.2155C23.6784 27.22 23.6739 27.2245 23.6694 27.229C23.6784 27.22 23.6829 27.2155 23.6919 27.2065C23.8634 27.1478 24.0348 27.0802 24.1972 26.9989C24.2288 26.9854 24.2559 26.9674 24.2874 26.9538V27.7794C24.2107 27.8245 24.134 27.8742 24.0619 27.9238C24.0258 27.9464 23.9897 27.9689 23.9536 27.9915C23.9265 28.0095 23.8949 28.0321 23.8679 28.0501C23.8273 28.0817 23.7822 28.1088 23.7415 28.1403C23.7235 28.1539 23.7055 28.1674 23.6829 28.1809C23.6649 28.1945 23.6513 28.208 23.6333 28.217C23.6378 28.217 23.6423 28.2125 23.6423 28.2125C23.6197 28.2261 23.6017 28.2396 23.5927 28.2622C23.5882 28.2712 23.5882 28.2802 23.5836 28.2892C23.5746 28.3073 23.5656 28.3253 23.5656 28.3434V31.163C23.507 31.1991 23.4618 31.2623 23.4618 31.3345C23.4618 31.4427 23.5521 31.533 23.6603 31.533C23.7686 31.533 23.8588 31.4427 23.8588 31.3345C23.8588 31.2758 23.8273 31.2172 23.7867 31.1811V28.3749C23.8092 28.3569 23.8363 28.3389 23.8588 28.3253C23.904 28.2937 23.9446 28.2667 23.9897 28.2351C24.0168 28.217 24.0438 28.199 24.0709 28.1809C24.107 28.1584 24.1476 28.1358 24.1837 28.1088C24.2198 28.0817 24.2559 28.0591 24.2919 28.0366C24.3416 28.005 24.3957 27.9734 24.4498 27.9418C24.4724 27.9283 24.4905 27.9012 24.495 27.8742C24.504 27.8606 24.5085 27.8426 24.5085 27.8245V26.832C24.7025 26.7102 24.8784 26.5658 25.0454 26.4079C25.6093 26.9809 26.1687 27.5539 26.7281 28.1268C27.2831 28.6953 27.8425 29.2637 28.3974 29.8322C28.3929 29.8457 28.3929 29.8547 28.3929 29.8682C28.3929 29.9765 28.4786 30.0667 28.5869 30.0713C28.6951 30.0713 28.7854 29.9855 28.7899 29.8773C28.7899 29.769 28.7042 29.6788 28.5959 29.6742C28.5824 29.6742 28.5688 29.6743 28.5553 29.6788C27.5853 28.6862 26.6108 27.6937 25.6409 26.7057C25.492 26.5568 25.3476 26.4079 25.1988 26.2546C25.2394 26.2139 25.2755 26.1688 25.3161 26.1237C25.3251 26.1282 25.3386 26.1282 25.3476 26.1282C25.8304 26.1327 26.3131 26.1373 26.7958 26.1463C26.8003 26.1553 26.8048 26.1598 26.8094 26.1688L28.7718 28.19C28.7493 28.2576 28.7628 28.3343 28.817 28.3885C28.8937 28.4652 29.02 28.4697 29.0967 28.393C29.1734 28.3163 29.1779 28.19 29.1012 28.1133C29.0606 28.0727 29.0019 28.0501 28.9478 28.0546L26.9673 26.0154C26.9537 26.0019 26.9402 25.9929 26.9266 25.9884C26.9086 25.9523 26.8725 25.9297 26.8319 25.9297C26.3808 25.9252 25.9341 25.9207 25.483 25.9162C25.5416 25.8395 25.5958 25.7583 25.6454 25.6726C25.7401 25.5237 25.8213 25.3658 25.889 25.2034H27.2244H29.232C29.2636 25.262 29.3268 25.3026 29.3989 25.3026C29.5027 25.3026 29.5884 25.2169 29.5884 25.1131C29.5884 25.0094 29.5027 24.9237 29.3989 24.9237C29.3403 24.9237 29.2907 24.9507 29.2546 24.9913H27.653H27.2244H27.1612H25.9702C26.0289 24.8289 26.0785 24.6575 26.1191 24.4861H28.456C28.4966 24.4861 28.5282 24.4635 28.5463 24.4319C28.8305 24.2109 29.1192 23.9943 29.4035 23.7778C29.408 23.7778 29.408 23.7732 29.4125 23.7732C29.417 23.7732 29.4215 23.7732 29.426 23.7732H30.6215C30.6576 23.8184 30.7073 23.8454 30.7704 23.8454C30.8742 23.8454 30.9599 23.7597 30.9599 23.6559C30.9599 23.5522 30.8742 23.4665 30.7704 23.4665C30.7028 23.4665 30.6396 23.5071 30.608 23.5612H29.426C29.4034 23.5612 29.3809 23.5702 29.3628 23.5838C29.3403 23.5792 29.3132 23.5838 29.2952 23.5973C29.0064 23.8184 28.7222 24.0349 28.4335 24.256C28.4245 24.265 28.4154 24.2695 28.4109 24.2785H27.7477H26.1642C26.1958 24.1071 26.2183 23.9357 26.2319 23.7642H27.9237C27.9598 23.8229 28.0229 23.8635 28.0951 23.8635C28.2034 23.8635 28.2936 23.7732 28.2936 23.665C28.2936 23.5567 28.2034 23.4665 28.0951 23.4665C28.032 23.4665 27.9778 23.498 27.9417 23.5432H26.2454C26.259 23.2228 26.2454 22.9025 26.1958 22.5867C26.295 22.483 26.3988 22.3792 26.4981 22.2754C26.5026 22.2664 26.5522 22.2709 26.5748 22.2709H30.0847C30.1208 22.3296 30.1839 22.3747 30.2561 22.3747C30.3644 22.3747 30.4546 22.2845 30.4546 22.1762C30.4546 22.0679 30.3644 21.9777 30.2561 21.9777C30.1975 21.9777 30.1433 22.0047 30.1027 22.0499H26.5702C26.5522 22.0499 26.4935 22.0544 26.4439 22.0634C26.4078 22.0679 26.3762 22.0814 26.3627 22.095C26.3537 22.104 26.3447 22.113 26.3356 22.122C26.3356 22.122 26.3356 22.122 26.3311 22.1266C26.2635 22.1942 26.2003 22.2619 26.1326 22.3296C26.0695 22.0544 25.9838 21.7882 25.8665 21.531H28.5508C28.5869 21.531 28.6185 21.513 28.641 21.4859C28.65 21.4814 28.6545 21.4814 28.6636 21.4769C28.9388 21.2649 29.214 21.0573 29.4892 20.8453H31.5915C31.6276 20.9039 31.6908 20.9445 31.763 20.9445C31.8712 20.9445 31.9615 20.8543 31.9615 20.746C31.9615 20.6378 31.8712 20.5475 31.763 20.5475C31.6998 20.5475 31.6457 20.5791 31.6096 20.6242H31.0727H29.4937C29.4801 20.6242 29.4666 20.6287 29.4531 20.6333C29.4305 20.6333 29.408 20.6378 29.3944 20.6468C29.1147 20.8588 28.8395 21.0709 28.5598 21.2829C28.5463 21.2919 28.5372 21.301 28.5282 21.31H28.2801H25.7627C25.6725 21.1476 25.5687 20.9897 25.4559 20.8408H28.632C28.6681 20.8949 28.7267 20.931 28.7989 20.931C28.9072 20.931 28.9974 20.8408 28.9974 20.7325C28.9974 20.6242 28.9072 20.534 28.7989 20.534C28.7312 20.534 28.6726 20.5701 28.6365 20.6197H28.0906H25.2709C25.0995 20.4347 24.91 20.2678 24.7025 20.1235C24.7341 20.0964 24.7657 20.0648 24.7927 20.0332C24.7927 20.0332 24.7927 20.0332 24.7972 20.0332H24.8378H28.3342H32.2818C32.3179 20.0874 32.3765 20.1235 32.4487 20.1235C32.557 20.1235 32.6472 20.0332 32.6472 19.925C32.6472 19.8167 32.557 19.7264 32.4487 19.7264C32.381 19.7264 32.3224 19.7625 32.2863 19.8122H28.2756H25.0003C25.1627 19.6137 25.307 19.3971 25.4198 19.167C25.4379 19.1264 25.4559 19.0903 25.474 19.0497H26.8048C26.8409 19.0994 26.8996 19.1309 26.9627 19.1309C27.071 19.1309 27.1612 19.0407 27.1612 18.9324C27.1612 18.8242 27.071 18.7339 26.9627 18.7339C26.8906 18.7339 26.8319 18.77 26.7958 18.8287H25.5642C25.6544 18.5941 25.7176 18.3504 25.7627 18.1068H26.8545H30.7614C30.7975 18.161 30.8561 18.1971 30.9283 18.1971C31.0366 18.1971 31.1268 18.1068 31.1268 17.9986C31.1268 17.8903 31.0366 17.8 30.9283 17.8C30.8607 17.8 30.802 17.8361 30.7659 17.8858H28.8034H25.7943C25.8213 17.6647 25.8304 17.4436 25.8304 17.2181H28.5959C28.632 17.2677 28.6906 17.2993 28.7538 17.2993C28.8621 17.2993 28.9523 17.209 28.9523 17.1008C28.9523 16.9925 28.8621 16.9023 28.7538 16.9023C28.6816 16.9023 28.623 16.9384 28.5869 16.997H27.644H25.8213C25.8123 16.8211 25.7898 16.6406 25.7582 16.4647H26.7597C26.7958 16.5053 26.85 16.5323 26.9086 16.5323C27.0169 16.5323 27.1071 16.4421 27.1071 16.3338C27.1071 16.2255 27.0169 16.1353 26.9086 16.1353C26.8319 16.1353 26.7688 16.1804 26.7327 16.2436H25.7131C25.6679 16.0496 25.6138 15.8646 25.5416 15.6797H26.8139H31.014C31.0501 15.7383 31.1133 15.7789 31.1855 15.7789C31.2938 15.7789 31.384 15.6887 31.384 15.5804C31.384 15.4721 31.2938 15.3819 31.1855 15.3819C31.1223 15.3819 31.0682 15.4135 31.0321 15.4586H27.4094H25.4424C25.4063 15.3774 25.3612 15.2962 25.3161 15.2195C25.28 15.1563 25.2439 15.0977 25.2033 15.039H26.9447C26.9898 15.0751 27.053 15.0706 27.0936 15.0345C27.8109 14.3172 28.5282 13.5999 29.2455 12.8825C29.2636 12.8916 29.2862 12.8961 29.3087 12.8961C29.417 12.8961 29.5072 12.8058 29.5072 12.6976C29.5072 12.5893 29.417 12.4991 29.3087 12.4991C29.2004 12.4991 29.1102 12.5893 29.1102 12.6976C29.1102 12.7021 29.1102 12.7066 29.1102 12.7066C28.4064 13.4104 27.6981 14.1187 26.9943 14.8225C26.9898 14.8225 26.9808 14.8225 26.9763 14.8225H25.104C25.086 14.8225 25.0724 14.827 25.0589 14.836C24.9957 14.7548 24.9281 14.6736 24.8604 14.6014C25.3386 14.1277 25.8123 13.6495 26.2905 13.1758C26.3131 13.1848 26.3356 13.1893 26.3582 13.1893C26.4665 13.1893 26.5567 13.0991 26.5567 12.9908C26.5567 12.8825 26.4665 12.7923 26.3582 12.7923C26.2499 12.7923 26.1597 12.8825 26.1597 12.9908C25.677 13.4735 25.1897 13.9608 24.707 14.4435C24.6348 14.3758 24.5626 14.3082 24.4814 14.2495V13.2254C24.4814 13.2074 24.4769 13.1893 24.4679 13.1758C24.4634 13.1487 24.4499 13.1262 24.4228 13.1081C24.3686 13.0765 24.319 13.045 24.2649 13.0134C24.2288 12.9908 24.1927 12.9637 24.1566 12.9412C24.1205 12.9141 24.0799 12.8961 24.0438 12.869C24.0167 12.851 23.9897 12.8329 23.9626 12.8149C23.9175 12.7833 23.8769 12.7562 23.8318 12.7246C23.8092 12.7066 23.7822 12.6885 23.7596 12.675V9.83278C23.8047 9.79669 23.8318 9.74255 23.8318 9.67939C23.8318 9.57112 23.7415 9.48089 23.6333 9.48089C23.525 9.48089 23.4348 9.57112 23.4348 9.67939C23.4348 9.75157 23.4754 9.81925 23.5385 9.85083V12.6705C23.5385 12.6931 23.543 12.7111 23.5566 12.7246C23.5566 12.7337 23.5611 12.7427 23.5656 12.7517C23.5746 12.7743 23.5927 12.7923 23.6152 12.8013C23.6107 12.8013 23.6062 12.7968 23.6062 12.7968C23.6243 12.8058 23.6423 12.8194 23.6558 12.8329C23.6739 12.8464 23.6919 12.86 23.7145 12.8735C23.7551 12.9051 23.8002 12.9322 23.8408 12.9637C23.8679 12.9818 23.8995 13.0043 23.9265 13.0224C23.9626 13.045 23.9987 13.0675 24.0348 13.0901C24.107 13.1397 24.1837 13.1893 24.2604 13.2344V14.0555C24.1837 14.0014 24.1025 13.9563 24.0213 13.9112C23.8769 13.8299 23.7235 13.7668 23.5701 13.7081C23.543 13.6811 23.516 13.654 23.4889 13.6269C23.4528 13.5908 23.4122 13.5547 23.3761 13.5141C23.3581 13.4916 23.3355 13.4735 23.3175 13.451C23.2994 13.4329 23.2769 13.4149 23.2543 13.3923C23.2182 13.3562 23.1821 13.3202 23.146 13.2841C23.119 13.2525 23.0874 13.2254 23.0603 13.1938V8.98914C23.0603 8.98462 23.0603 8.98011 23.0603 8.97109C23.2769 8.75905 23.4934 8.5425 23.71 8.33046C23.719 8.32144 23.7235 8.31241 23.728 8.30339C23.7506 8.28083 23.7596 8.25377 23.7596 8.2267V7.17101V6.78303C23.7867 6.74693 23.8047 6.70633 23.8047 6.66122C23.8047 6.55294 23.7145 6.46271 23.6062 6.46271C23.4979 6.46271 23.4077 6.55294 23.4077 6.66122C23.4077 6.74693 23.4618 6.81912 23.5385 6.84619V8.17256V8.1906C23.322 8.40264 23.1054 8.61919 22.8889 8.83123C22.8708 8.84928 22.8663 8.87635 22.8663 8.89891C22.8663 8.90342 22.8663 8.90793 22.8663 8.90793C22.8663 8.91244 22.8663 8.91244 22.8663 8.91695C22.8528 8.935 22.8438 8.95756 22.8438 8.98463V13.1713C22.8347 13.1893 22.8302 13.2074 22.8302 13.2254C22.8302 13.248 22.8393 13.275 22.8573 13.2931L22.8618 13.2976C22.8708 13.3111 22.8844 13.3247 22.8979 13.3337C22.934 13.3743 22.9746 13.4149 23.0107 13.451C23.0513 13.4916 23.0964 13.5322 23.137 13.5728C22.8663 13.5096 22.5866 13.4735 22.3069 13.46V10.4328C22.3069 10.4283 22.3069 10.4238 22.3069 10.4193C22.3159 10.3877 22.3069 10.3516 22.2843 10.329C22.2798 10.3245 22.2753 10.32 22.2708 10.32C22.2573 10.3065 22.2483 10.2975 22.2347 10.2839C22.2302 10.2794 22.2257 10.2749 22.2167 10.2704C22.2076 10.2614 22.1986 10.2523 22.1851 10.2433C22.1625 10.2253 22.1445 10.2072 22.1219 10.1847L22.131 10.1937C22.1219 10.1847 22.1084 10.1757 22.0949 10.1621C22.0858 10.1531 22.0768 10.1486 22.0633 10.1396C22.0362 10.117 22.0137 10.0944 21.9866 10.0719C21.9776 10.0629 21.9685 10.0584 21.964 10.0493C21.955 10.0403 21.9505 10.0358 21.9415 10.0313C21.937 10.0268 21.937 10.0268 21.9324 10.0223C21.9009 9.99068 21.8693 9.9591 21.8377 9.92752C21.8061 9.89594 21.7745 9.86436 21.7385 9.83278C21.7159 9.81023 21.6888 9.78316 21.6663 9.7606C21.6527 9.74707 21.6392 9.73353 21.6257 9.72C21.6212 9.71548 21.6166 9.70646 21.6076 9.70195L21.5941 9.68841C21.5851 9.67939 21.5715 9.67037 21.5625 9.66135V9.58014C21.567 9.58014 21.567 9.58465 21.5715 9.58465V6.01156C21.6166 5.97547 21.6482 5.92133 21.6482 5.85817C21.6482 5.7499 21.558 5.65967 21.4497 5.65967C21.3414 5.66418 21.2512 5.75441 21.2512 5.86268ZM22.4016 15.7022C22.4242 15.7067 22.4513 15.7112 22.4738 15.7157C22.5325 15.7293 22.5911 15.7428 22.6498 15.7609C22.6949 15.7744 22.74 15.7879 22.7851 15.806C22.7941 15.8105 22.8077 15.8105 22.8167 15.815C22.8212 15.815 22.8257 15.8195 22.8302 15.8195C22.925 15.8691 23.0197 15.9188 23.1099 15.9819C23.119 15.9864 23.1596 16.018 23.1641 16.0225C23.2002 16.0541 23.2318 16.0857 23.2678 16.1173C23.2994 16.1488 23.331 16.1849 23.3626 16.221C23.3761 16.2391 23.3942 16.2571 23.4077 16.2752C23.4077 16.2797 23.4122 16.2797 23.4122 16.2842C23.4663 16.3654 23.5205 16.4466 23.5611 16.5368C23.5656 16.5459 23.5746 16.5594 23.5836 16.5729C23.5836 16.5774 23.5882 16.5865 23.5927 16.5955C23.6152 16.6496 23.6333 16.7083 23.6513 16.7669C23.6784 16.8617 23.6964 16.9609 23.719 17.0557V17.0602C23.719 17.0872 23.7235 17.1098 23.728 17.1369C23.7325 17.2045 23.737 17.2722 23.737 17.3399C23.737 17.4572 23.737 17.57 23.7235 17.6873C23.7235 17.6963 23.7235 17.7143 23.7235 17.7279C23.7235 17.7324 23.719 17.7369 23.719 17.7459C23.71 17.8091 23.6964 17.8677 23.6829 17.9309C23.6603 18.0256 23.6288 18.1159 23.5972 18.2106C23.5837 18.2331 23.5746 18.2602 23.5611 18.2828C23.534 18.3324 23.507 18.3865 23.4754 18.4317C23.4618 18.4497 23.3987 18.5219 23.3987 18.5444C23.3897 18.558 23.3761 18.5715 23.3671 18.5805C23.2994 18.6572 23.2227 18.7294 23.146 18.7971C23.128 18.8106 23.1099 18.8242 23.0919 18.8332C23.0468 18.8602 23.0062 18.8873 22.9611 18.9144C22.925 18.9324 22.8889 18.9505 22.8528 18.9685C22.8302 18.973 22.7716 19.0001 22.758 19.0046C22.6588 19.0362 22.5595 19.0633 22.4603 19.0813C22.4377 19.0858 22.4107 19.0903 22.3881 19.0948C22.3295 19.0994 22.2708 19.1039 22.2122 19.1084C22.0858 19.1129 21.955 19.1129 21.8287 19.1129C21.3324 19.1129 20.8407 19.1129 20.3444 19.1129L20.3489 18.4001C20.4121 18.355 20.4527 18.2828 20.4527 18.2016C20.4527 18.0662 20.3444 17.9534 20.2091 17.9534C20.0737 17.9534 19.9609 18.0617 19.9609 18.1971C19.9609 18.2828 20.006 18.3595 20.0737 18.4046L20.0692 19.1084C19.9158 19.1084 19.7579 19.1084 19.6045 19.1084C19.6045 18.779 19.6045 18.4452 19.6045 18.1158C19.6045 17.3218 19.6045 16.5278 19.6045 15.7338C19.6045 15.7157 19.6045 15.6977 19.6045 15.6797C20.3038 15.6797 21.0031 15.6797 21.7024 15.6797C21.8242 15.6797 21.946 15.6797 22.0678 15.6797C22.167 15.6797 22.2708 15.6797 22.3701 15.6932C22.3565 15.6932 22.361 15.6932 22.4016 15.7022ZM22.3656 15.6932C22.3746 15.6932 22.3791 15.6977 22.3881 15.6977C22.3791 15.6977 22.3701 15.6977 22.3656 15.6932ZM23.5972 16.5819C23.6017 16.591 23.6062 16.6045 23.6062 16.6135C23.6062 16.609 23.6017 16.5955 23.5972 16.5819ZM23.4077 18.5219C23.4032 18.5264 23.3987 18.5309 23.3987 18.5354C23.4122 18.5174 23.4663 18.4587 23.4077 18.5219ZM22.8438 18.9685C22.8393 18.9685 22.8393 18.973 22.8347 18.973C22.7626 19.0091 22.8167 18.9775 22.8438 18.9685ZM20.4437 22.6679C20.4437 22.5867 20.4031 22.51 20.3354 22.4649L20.3399 21.2739C20.8542 21.2739 21.3685 21.2739 21.8828 21.2739C21.9911 21.2739 22.0994 21.2739 22.2031 21.2739C22.3295 21.2739 22.4513 21.2829 22.5731 21.2964C22.5776 21.2964 22.5776 21.2964 22.5821 21.2964C22.6047 21.301 22.6317 21.3055 22.6543 21.31C22.7129 21.3235 22.7761 21.337 22.8347 21.3506C22.8934 21.3641 22.952 21.3822 23.0062 21.4047C23.0287 21.4137 23.0468 21.4228 23.0693 21.4273C23.1686 21.4769 23.2633 21.5265 23.3581 21.5852C23.3806 21.5987 23.4032 21.6168 23.4257 21.6348C23.4573 21.6574 23.4618 21.6664 23.4528 21.6664C23.4844 21.6934 23.5295 21.7205 23.543 21.7341C23.6062 21.7927 23.6874 21.8649 23.7415 21.9416C23.7461 21.9506 23.7551 21.9687 23.7641 21.9777C23.7822 22.0002 23.7957 22.0273 23.8137 22.0499C23.8408 22.095 23.8679 22.1401 23.8949 22.1852C23.922 22.2303 23.9446 22.2799 23.9671 22.3251C23.9761 22.3386 23.9807 22.3476 23.9807 22.3566C23.9852 22.3747 23.9897 22.3927 23.9942 22.4108C24.0303 22.519 24.0619 22.6318 24.0844 22.7491C24.0889 22.7807 24.0934 22.8123 24.1025 22.8439C24.107 22.8574 24.1115 22.8709 24.1115 22.8755C24.1205 22.9251 24.116 22.9837 24.116 23.0243C24.125 23.1552 24.125 23.286 24.116 23.4168C24.1115 23.4755 24.107 23.5341 24.1025 23.5973C24.1025 23.6108 24.098 23.6244 24.098 23.6289C24.0934 23.6514 24.0889 23.674 24.0844 23.6965C24.0574 23.8274 24.0258 23.9582 23.9761 24.0845C23.9716 24.0981 23.9626 24.1251 23.9536 24.1432C23.9491 24.1522 23.9446 24.1567 23.9401 24.1657C23.9085 24.2289 23.8769 24.2921 23.8408 24.3507C23.8092 24.4003 23.7776 24.45 23.7461 24.4951C23.737 24.5086 23.7325 24.5131 23.728 24.5176C23.7145 24.5312 23.7009 24.5447 23.6919 24.5582C23.6513 24.6079 23.6062 24.653 23.5566 24.6981C23.534 24.7206 23.4483 24.7703 23.4212 24.8109C23.4393 24.7883 23.4709 24.7838 23.4303 24.8154C23.4257 24.8199 23.4212 24.8244 23.4167 24.8244C23.4167 24.8244 23.4167 24.8244 23.4167 24.8289C23.4167 24.8289 23.4167 24.8289 23.4167 24.8244C23.3942 24.8425 23.3716 24.856 23.3445 24.874C23.2904 24.9101 23.2363 24.9417 23.1821 24.9733C23.1551 24.9868 23.1325 25.0004 23.1054 25.0139C23.1009 25.0184 23.0919 25.0184 23.0874 25.0229C23.0378 25.0274 22.9701 25.068 22.925 25.0816C22.8077 25.1177 22.6543 25.1763 22.5325 25.1718C22.546 25.1718 22.6453 25.1583 22.5505 25.1673C22.5099 25.1718 22.4738 25.1763 22.4332 25.1763C22.352 25.1808 22.2708 25.1853 22.1896 25.1853C21.3189 25.1853 20.4482 25.1853 19.5775 25.1853C19.5775 24.7973 19.5775 24.4094 19.5775 24.0259C19.5775 23.1461 19.5775 22.2709 19.5775 21.3912C19.5775 21.3506 19.5775 21.3145 19.5775 21.2739C19.7354 21.2739 19.8933 21.2739 20.0512 21.2739L20.0647 22.4649C19.997 22.51 19.9519 22.5822 19.9519 22.6679C19.9519 22.8033 20.0602 22.9161 20.1955 22.9161C20.3309 22.9161 20.4437 22.8033 20.4437 22.6679ZM23.9852 22.3476C23.9807 22.3341 23.9716 22.3115 23.9671 22.3115C23.9716 22.3205 23.9761 22.3341 23.9852 22.3476ZM24.1115 23.6108V23.6063V23.6108ZM23.7686 24.4951C23.7686 24.4996 23.7641 24.4996 23.7641 24.5041C23.7641 24.4996 23.7641 24.4951 23.7686 24.4951Z" fill="#AEEAFF"/>
<path d="M9.12435 16.8215H13.2388H15.0569C15.093 16.8712 15.1517 16.9073 15.2194 16.9073C15.3276 16.9073 15.4179 16.817 15.4179 16.7088C15.4179 16.6005 15.3276 16.5103 15.2194 16.5103C15.1517 16.5103 15.0885 16.5463 15.0524 16.6005H11.4252H9.12886C9.09277 16.5463 9.03412 16.5103 8.96645 16.5103C8.85817 16.5103 8.76794 16.6005 8.76794 16.7088C8.76794 16.817 8.85817 16.9073 8.96645 16.9073C9.02961 16.9073 9.08826 16.8712 9.12435 16.8215Z" fill="#69A5FF"/>
<path d="M34.542 18.7977H30.9148H28.6184C28.5823 18.7436 28.5237 18.7075 28.456 18.7075C28.3477 18.7075 28.2575 18.7977 28.2575 18.906C28.2575 19.0143 28.3477 19.1045 28.456 19.1045C28.5237 19.1045 28.5823 19.0684 28.6184 19.0188H32.7329H34.5465C34.5826 19.0684 34.6412 19.1045 34.7089 19.1045C34.8172 19.1045 34.9074 19.0143 34.9074 18.906C34.9074 18.7977 34.8172 18.7075 34.7089 18.7075C34.6412 18.7075 34.5781 18.7436 34.542 18.7977Z" fill="#69A5FF"/>
<path d="M22.6317 16.8802C22.6317 16.9479 22.6678 17.011 22.7219 17.0471V17.1825V17.6742C22.6858 17.7103 22.6497 17.7509 22.6091 17.7915C22.5685 17.8366 22.5279 17.8772 22.4828 17.9223C22.4422 17.9629 22.4016 18.0081 22.361 18.0532C22.352 18.0622 22.3475 18.0667 22.3384 18.0757C22.3294 18.0757 22.3204 18.0712 22.3114 18.0712C22.2031 18.0712 22.1129 18.1614 22.1129 18.2697C22.1129 18.378 22.2031 18.4682 22.3114 18.4682C22.4196 18.4682 22.5099 18.378 22.5099 18.2697C22.5099 18.2517 22.5054 18.2336 22.5008 18.2201C22.5054 18.2156 22.5053 18.2156 22.5099 18.2111C22.5505 18.166 22.5911 18.1163 22.6317 18.0757C22.6723 18.0351 22.7174 17.99 22.758 17.9449C22.7986 17.9043 22.8347 17.8547 22.8753 17.8186C22.8798 17.8141 22.8798 17.8141 22.8843 17.8096L22.8888 17.805C22.8978 17.7915 22.9024 17.778 22.9069 17.7644C22.9159 17.7464 22.9249 17.7283 22.9249 17.7058V17.4847V17.187V17.0471C22.9745 17.011 23.0106 16.9524 23.0106 16.8847C23.0106 16.7764 22.9204 16.6862 22.8121 16.6862C22.7219 16.6817 22.6317 16.7719 22.6317 16.8802Z" fill="#69A5FF"/>
<path d="M23.137 23.4526V23.588C23.0828 23.6241 23.0467 23.6872 23.0467 23.7549C23.0467 23.8632 23.137 23.9534 23.2452 23.9534C23.3535 23.9534 23.4437 23.8632 23.4437 23.7549C23.4437 23.6872 23.4122 23.6286 23.358 23.5925V23.4526V23.1549V22.9338C23.358 22.9113 23.3535 22.8932 23.34 22.8752C23.3355 22.8616 23.331 22.8481 23.3219 22.8346L23.3174 22.8301C23.3129 22.8255 23.3129 22.8256 23.3084 22.821C23.2678 22.7804 23.2272 22.7353 23.1911 22.6947C23.1505 22.6496 23.1099 22.609 23.0648 22.5639C23.0197 22.5188 22.9836 22.4737 22.943 22.4285C22.9385 22.424 22.9385 22.424 22.9339 22.4195C22.9385 22.4015 22.943 22.3879 22.943 22.3699C22.943 22.2616 22.8527 22.1714 22.7445 22.1714C22.6362 22.1714 22.546 22.2616 22.546 22.3699C22.546 22.4782 22.6362 22.5684 22.7445 22.5684C22.7535 22.5684 22.7625 22.5684 22.7715 22.5639C22.7806 22.5729 22.7851 22.5819 22.7941 22.5864C22.8347 22.6316 22.8753 22.6767 22.9159 22.7173C22.9565 22.7624 22.9971 22.803 23.0422 22.8481C23.0783 22.8887 23.1144 22.9293 23.155 22.9654V23.4526H23.137Z" fill="#69A5FF"/>
<defs>
<linearGradient id="paint0_linear" x1="21.1731" y1="30.4839" x2="21.1731" y2="10.386" gradientUnits="userSpaceOnUse">
<stop offset="0.005405" stop-color="#272361"/>
<stop offset="0.2457" stop-color="#292B74"/>
<stop offset="0.502" stop-color="#2A3285"/>
<stop offset="0.9838" stop-color="#2ABEC2"/>
</linearGradient>
<linearGradient id="paint1_linear" x1="10.7665" y1="20.4348" x2="31.5825" y2="20.4348" gradientUnits="userSpaceOnUse">
<stop stop-color="#01C3DA"/>
<stop offset="1" stop-color="#8226B7"/>
</linearGradient>
<linearGradient id="paint2_linear" x1="10.7665" y1="20.4348" x2="31.5825" y2="20.4348" gradientUnits="userSpaceOnUse">
<stop stop-color="#8226B7"/>
<stop offset="1" stop-color="#00A2B5"/>
</linearGradient>
<linearGradient id="paint3_linear" x1="21.1748" y1="31.9581" x2="21.1748" y2="8.91281" gradientUnits="userSpaceOnUse">
<stop offset="0.005405" stop-color="#272361"/>
<stop offset="0.2457" stop-color="#292B74"/>
<stop offset="0.502" stop-color="#2A3285"/>
<stop offset="0.9838" stop-color="#2ABEC2"/>
</linearGradient>
<linearGradient id="paint4_linear" x1="7.48242" y1="20.4353" x2="34.8709" y2="20.4353" gradientUnits="userSpaceOnUse">
<stop stop-color="#01C3DA"/>
<stop offset="1" stop-color="#8226B7"/>
</linearGradient>
<linearGradient id="paint5_linear" x1="7.48242" y1="20.4353" x2="34.8709" y2="20.4353" gradientUnits="userSpaceOnUse">
<stop stop-color="#8226B7"/>
<stop offset="1" stop-color="#00A2B5"/>
</linearGradient>
</defs>
</svg>
