<svg width="20" height="22" viewBox="0 0 20 22" fill="none" xmlns="http://www.w3.org/2000/svg">
<path d="M12.975 2.01903L13.935 0.287028C13.9473 0.264835 13.9551 0.24044 13.9579 0.215237C13.9608 0.190035 13.9586 0.164517 13.9516 0.140142C13.9446 0.115766 13.9329 0.0930105 13.9171 0.0731735C13.9013 0.0533365 13.8817 0.0368068 13.8595 0.0245282C13.8373 0.0122496 13.8129 0.00446257 13.7877 0.00161167C13.7625 -0.00123922 13.737 0.000901897 13.7126 0.00791272C13.6882 0.0149235 13.6655 0.0266668 13.6456 0.042472C13.6258 0.0582772 13.6093 0.0778348 13.597 0.100028L12.627 1.85003C11.799 1.48698 10.9046 1.29954 10.0005 1.29954C9.09637 1.29954 8.20205 1.48698 7.374 1.85003L6.404 0.100028C6.37921 0.0549414 6.33751 0.0215521 6.2881 0.00720557C6.23868 -0.00714096 6.18559 -0.00126956 6.1405 0.0235282C6.09542 0.0483259 6.06203 0.0900187 6.04768 0.139435C6.03333 0.18885 6.03921 0.241941 6.064 0.287028L7.024 2.01903C6.11059 2.46952 5.33887 3.16283 4.79345 4.02294C4.24803 4.88304 3.94999 5.87673 3.932 6.89503H16.069C16.0508 5.87652 15.7525 4.88269 15.2067 4.02256C14.6609 3.16243 13.8888 2.46924 12.975 2.01903V2.01903ZM7.2 4.67403C7.09968 4.67403 7.00162 4.64427 6.91823 4.58851C6.83483 4.53276 6.76984 4.45352 6.7315 4.36082C6.69316 4.26812 6.68317 4.16612 6.70282 4.06775C6.72246 3.96937 6.77085 3.87904 6.84186 3.80817C6.91286 3.73731 7.00329 3.6891 7.10171 3.66965C7.20012 3.6502 7.30209 3.66038 7.39472 3.69891C7.48734 3.73744 7.56646 3.80257 7.62204 3.88608C7.67763 3.96959 7.7072 4.06771 7.707 4.16803C7.70674 4.30232 7.65321 4.43102 7.55815 4.52589C7.4631 4.62075 7.33429 4.67403 7.2 4.67403ZM12.802 4.67403C12.7017 4.67403 12.6036 4.64427 12.5202 4.58851C12.4368 4.53276 12.3718 4.45352 12.3335 4.36082C12.2952 4.26812 12.2852 4.16612 12.3048 4.06775C12.3245 3.96937 12.3728 3.87904 12.4439 3.80817C12.5149 3.73731 12.6053 3.6891 12.7037 3.66965C12.8021 3.6502 12.9041 3.66038 12.9967 3.69891C13.0893 3.73744 13.1685 3.80257 13.224 3.88608C13.2796 3.96959 13.3092 4.06771 13.309 4.16803C13.3087 4.30232 13.2552 4.43102 13.1602 4.52589C13.0651 4.62075 12.9363 4.67403 12.802 4.67403ZM3.93 16.171C3.92974 16.3641 3.96759 16.5553 4.04138 16.7337C4.11518 16.9121 4.22346 17.0742 4.36003 17.2107C4.4966 17.3472 4.65876 17.4554 4.83722 17.529C5.01568 17.6027 5.20693 17.6404 5.4 17.64H6.373V20.64C6.373 21.0009 6.51634 21.3469 6.77148 21.602C7.02663 21.8572 7.37268 22.0005 7.7335 22.0005C8.09433 22.0005 8.44038 21.8572 8.69552 21.602C8.95066 21.3469 9.094 21.0009 9.094 20.64V17.64H10.908V20.64C10.908 21.0007 11.0513 21.3466 11.3063 21.6017C11.5614 21.8567 11.9073 22 12.268 22C12.6287 22 12.9746 21.8567 13.2297 21.6017C13.4847 21.3466 13.628 21.0007 13.628 20.64V17.64H14.602C14.7948 17.6402 14.9858 17.6023 15.1639 17.5286C15.3421 17.4548 15.504 17.3467 15.6403 17.2104C15.7767 17.074 15.8848 16.9121 15.9585 16.734C16.0323 16.5558 16.0701 16.3648 16.07 16.172V7.37503H3.93V16.171ZM2.063 7.14103C1.7023 7.14156 1.35653 7.28515 1.10157 7.5403C0.846606 7.79545 0.703267 8.14132 0.703003 8.50203V14.171C0.703003 14.3496 0.73818 14.5265 0.806527 14.6915C0.874873 14.8565 0.97505 15.0064 1.10134 15.1327C1.22763 15.259 1.37755 15.3592 1.54255 15.4275C1.70756 15.4959 1.88441 15.531 2.063 15.531C2.2416 15.531 2.41845 15.4959 2.58345 15.4275C2.74846 15.3592 2.89838 15.259 3.02467 15.1327C3.15096 15.0064 3.25113 14.8565 3.31948 14.6915C3.38783 14.5265 3.423 14.3496 3.423 14.171V8.50203C3.42247 8.1415 3.27902 7.79588 3.02408 7.54095C2.76915 7.28601 2.42354 7.14256 2.063 7.14203V7.14103ZM17.935 7.14103C17.5743 7.14156 17.2285 7.28515 16.9736 7.5403C16.7186 7.79545 16.5753 8.14132 16.575 8.50203V14.171C16.575 14.3496 16.6102 14.5265 16.6785 14.6915C16.7469 14.8565 16.8471 15.0064 16.9733 15.1327C17.0996 15.259 17.2496 15.3592 17.4146 15.4275C17.5796 15.4959 17.7564 15.531 17.935 15.531C18.1136 15.531 18.2904 15.4959 18.4555 15.4275C18.6205 15.3592 18.7704 15.259 18.8967 15.1327C19.023 15.0064 19.1231 14.8565 19.1915 14.6915C19.2598 14.5265 19.295 14.3496 19.295 14.171V8.50203C19.2945 8.1415 19.151 7.79588 18.8961 7.54095C18.6411 7.28601 18.2955 7.14256 17.935 7.14203V7.14103Z" fill="white"/>
</svg>
