<svg width="18" height="21" viewBox="0 0 18 21" fill="none" xmlns="http://www.w3.org/2000/svg">
<path d="M11.94 3.19C12.318 2.75428 12.6063 2.24817 12.7882 1.70074C12.9701 1.1533 13.0421 0.575328 13 0C11.8393 0.093687 10.762 0.639556 9.99997 1.52C9.63507 1.94198 9.35855 2.43288 9.18678 2.96364C9.01501 3.49441 8.95149 4.05424 8.99997 4.61C9.56612 4.61472 10.1258 4.4891 10.6356 4.24286C11.1454 3.99662 11.5917 3.63637 11.94 3.19V3.19ZM14.46 10.63C14.4667 9.86374 14.6685 9.11182 15.0464 8.4452C15.4244 7.77859 15.9659 7.21926 16.62 6.82C16.2072 6.22524 15.6615 5.73483 15.0262 5.38767C14.3909 5.04052 13.6835 4.84615 12.96 4.82C11.4 4.66 9.95997 5.73 9.12997 5.73C8.29997 5.73 7.12997 4.84 5.82997 4.86C4.9801 4.888 4.15199 5.13578 3.42642 5.57919C2.70085 6.02259 2.10258 6.64648 1.68997 7.39C-0.0700274 10.45 1.23997 15 2.99997 17.47C3.79997 18.68 4.79997 20.05 6.11997 20C7.43997 19.95 7.86997 19.18 9.39997 19.18C10.93 19.18 11.4 20 12.7 19.97C14 19.94 14.92 18.73 15.76 17.52C16.355 16.6415 16.8198 15.6816 17.14 14.67C16.3475 14.332 15.6713 13.7693 15.195 13.0513C14.7187 12.3333 14.4632 11.4916 14.46 10.63V10.63Z" fill="white"/>
</svg>
