<svg width="18" height="18" viewBox="0 0 18 18" fill="none" xmlns="http://www.w3.org/2000/svg">
<path d="M17.2892 6.64918C17.2368 6.4949 17.1404 6.35934 17.0118 6.25923C16.8833 6.15912 16.7282 6.09884 16.5658 6.08585L11.815 5.70835L9.75916 1.15751C9.69369 1.01094 9.5872 0.886447 9.45253 0.79906C9.31787 0.711673 9.1608 0.665127 9.00027 0.665039C8.83974 0.664951 8.68261 0.711325 8.54785 0.798564C8.41309 0.885802 8.30646 1.01018 8.24083 1.15668L6.185 5.70835L1.43416 6.08585C1.27454 6.09849 1.12194 6.15685 0.994626 6.25395C0.867306 6.35105 0.770657 6.48278 0.716241 6.63337C0.661824 6.78396 0.651945 6.94704 0.687784 7.1031C0.723623 7.25916 0.803664 7.40159 0.91833 7.51335L4.42916 10.9358L3.1875 16.3125C3.14979 16.4753 3.16188 16.6456 3.22218 16.8014C3.28248 16.9572 3.38822 17.0913 3.52566 17.1862C3.66311 17.2812 3.82593 17.3326 3.99298 17.3339C4.16004 17.3352 4.32362 17.2862 4.4625 17.1933L9 14.1683L13.5375 17.1933C13.6794 17.2876 13.8468 17.3361 14.0172 17.3324C14.1875 17.3286 14.3526 17.2728 14.4903 17.1725C14.628 17.0721 14.7316 16.9319 14.7873 16.7709C14.843 16.6099 14.848 16.4357 14.8017 16.2717L13.2775 10.9383L17.0575 7.53668C17.305 7.31335 17.3958 6.96501 17.2892 6.64918V6.64918Z" fill="#838FC0"/>
</svg>
