<svg width="40" height="40" viewBox="0 0 40 40" fill="none" xmlns="http://www.w3.org/2000/svg">
<rect width="40" height="40" rx="20" fill="#69A5FF"/>
<path d="M24.0127 14.682H27.4809C28.3121 14.682 29 15.3556 29 16.2343V21.5649H20.7452V15.3556C20.4586 15.2678 20.2006 15.1506 20.0287 14.9749C20 14.9749 20 14.9456 19.9713 14.9456C19.9713 14.9456 19.9713 14.9749 19.9427 14.9749C19.742 15.1506 19.5127 15.2678 19.2548 15.3556V21.5649H11V16.2343C11 15.3556 11.6592 14.682 12.4904 14.682H15.9873C15.586 14.477 15.2134 14.1841 14.8981 13.9205C13.5223 12.5732 13.2643 10.6987 14.3535 9.64435C14.8121 9.23431 15.414 9 16.0732 9C17.0191 9 17.9936 9.38075 18.8248 10.1715C19.2834 10.6109 19.7134 11.2259 19.9713 11.8117C20.258 11.2259 20.6879 10.6109 21.1465 10.1715C21.949 9.38075 22.9809 9 23.8981 9C24.586 9 25.1879 9.23431 25.6178 9.64435C26.707 10.6987 26.449 12.5732 25.0446 13.9205C24.758 14.1841 24.3854 14.477 24.0127 14.682ZM18.9108 13.8326C19.0255 13.569 18.7389 12.2218 17.793 11.3138C17.3057 10.8452 16.6465 10.5816 16.0732 10.5816C15.9013 10.5816 15.6146 10.6109 15.414 10.7866C15.3567 10.8452 15.1847 10.9623 15.1847 11.2845C15.1847 11.6653 15.414 12.251 15.9586 12.749C16.6465 13.4226 17.7357 13.8912 18.5382 13.8912C18.7962 13.8912 18.9108 13.8326 18.9108 13.8326ZM21.0892 13.8326C21.0892 13.8326 21.2325 13.8912 21.4618 13.8912C22.2643 13.8912 23.3535 13.4226 24.0414 12.749C24.586 12.251 24.758 11.6653 24.758 11.2845C24.758 10.9623 24.6146 10.8452 24.586 10.7866C24.3854 10.6109 24.0701 10.5816 23.8981 10.5816C23.3535 10.5816 22.6656 10.8452 22.1783 11.3138C21.2611 12.2218 20.9459 13.5397 21.0892 13.8619V13.8326ZM19.2548 30H12.4904C11.6592 30 11 29.3264 11 28.477V23.1172H19.2548V30ZM27.4809 30H20.7452V23.1172H29V28.477C29 29.3264 28.3121 30 27.4809 30Z" fill="white"/>
</svg>
