<svg width="350" height="52" viewBox="0 0 350 52" fill="none" xmlns="http://www.w3.org/2000/svg">
<path fill-rule="evenodd" clip-rule="evenodd" d="M96.046 25.3884C94.2131 46.2533 120.21 35.6223 121.799 35.2863C122.41 39.502 122.99 43.7178 123.601 47.9335C122.837 48.1779 81.0159 65.5603 79.8856 25.8161C79.8856 25.3273 79.7939 24.8691 79.855 24.4108C85.5372 -8.42929 123.265 1.34637 124.029 1.40747C123.418 5.92872 122.837 10.45 122.226 14.9712C120.699 14.4824 97.7567 5.59268 96.046 25.3884ZM154.272 14.513L147.49 51.1106C142.542 51.1106 132.613 51.1106 132.613 51.1106L139.823 14.513C139.823 14.513 131.697 14.513 127.634 14.513C128.397 9.83898 129.131 5.16499 129.894 0.521554C142.511 0.521554 155.158 0.521554 167.775 0.521554C167.011 5.19554 166.278 9.86953 165.514 14.513C161.818 14.513 158.03 14.513 154.272 14.513ZM179.078 43.7789L184.027 34.3698L189.862 37.5163L188.059 17.7817C188.059 17.7817 172.052 48.3918 170.524 49.3082C167.225 51.5077 160.29 51.2023 154.731 51.1106L182.652 0.521554H198.477C200.89 17.3846 203.303 34.2476 205.686 51.1106C201.47 51.1106 193.406 51.1106 193.406 51.1106L179.078 43.7789ZM240.573 11.9163C236.51 11.9163 232.783 11.7941 228.72 11.7941C228.262 14.6657 227.376 19.9201 227.376 19.9201C227.376 19.9201 229.331 19.9201 232.325 19.9201C236.877 19.9201 241.948 21.0199 243.261 16.8652C244.361 13.291 240.94 12.008 240.573 11.9163ZM223.771 38.891H234.463C234.463 38.891 239.534 38.8605 240.573 34.7975C241.826 29.9096 237.427 29.8791 237.427 29.8791H224.84L223.771 38.891ZM255.817 37.4858C251.907 51.4467 239.198 50.9273 239.198 50.9273C239.198 50.9273 214.79 51.1106 208.863 51.0801C211.857 34.3698 214.881 17.6595 217.875 0.918686L240.543 0.246606C240.543 0.246606 253.648 0.949235 256.245 11.9163C258.139 19.9812 250.868 24.9302 250.868 24.9302C250.868 24.9302 257.955 29.818 255.817 37.4858ZM334.817 50.9579L323.147 43.3206L327.638 33.9116L333.472 37.0581L331.67 17.7817C331.67 17.7817 330.784 17.5068 330.784 17.7817C330.754 18.0566 314.166 50.9579 314.166 50.9579L286.458 51.1106L277.446 31.2232H276.987C276.987 31.2232 274.574 44.4815 273.383 51.1106C268.434 51.1106 263.454 51.1106 258.505 51.1106C258.505 50.9579 268.434 0.521554 268.434 0.521554H282.883L279.737 17.2318H280.195C280.195 17.2318 291.009 6.08146 296.447 0.521554C302.313 0.521554 308.178 0.521554 314.043 0.521554L290.001 25.3884L300.907 47.0476L325.835 1.16307H341.537L349.175 50.9273H334.817V50.9579Z" fill="#4878FE"/>
<path fill-rule="evenodd" clip-rule="evenodd" d="M42.8602 19.4633C42.5241 19.616 30.6711 0.492373 30.6711 0.492373C35.3451 -0.118606 45.2124 -0.271351 48.2673 0.950607C48.2673 1.10335 54.316 3.63891 55.4769 6.35776C55.6296 6.66325 55.7824 6.78545 55.202 7.42698C51.1389 11.6733 46.9232 15.2475 42.8602 19.4633ZM82.5738 50.501C82.5738 50.501 71.0874 52.1506 63.2669 48.6986C59.3261 46.9573 52.9413 36.143 52.9413 36.143L38.7666 51.112C27.3413 51.112 4.49069 51.112 4.49069 51.112L9.86731 20.4714C9.86731 20.4714 3.45203 23.4041 0 24.9315C0 20.563 0 16.1945 0 11.826C0.458234 11.6733 16.9852 0.828413 17.138 0.522924C21.0482 0.522924 28.8688 0.522924 28.8688 0.522924C28.8688 0.522924 21.0482 43.8108 20.7427 46.6213C20.8955 46.6213 21.0482 46.6213 21.201 46.6213C36.3838 31.2552 51.5666 15.889 66.7495 0.522924C73.5008 0.522924 87.9504 0.522924 87.9504 0.522924L64.611 23.6179L82.5738 50.501Z" fill="white"/>
</svg>
