<svg width="18" height="18" viewBox="0 0 18 18" fill="none" xmlns="http://www.w3.org/2000/svg">
<path d="M17.2892 6.64918C17.2368 6.4949 17.1404 6.35934 17.0118 6.25923C16.8833 6.15912 16.7283 6.09884 16.5658 6.08585L11.815 5.70835L9.75918 1.15751C9.69371 1.01094 9.58721 0.886447 9.45255 0.79906C9.31789 0.711673 9.16081 0.665127 9.00028 0.665039C8.83975 0.664951 8.68262 0.711325 8.54787 0.798564C8.41311 0.885802 8.30648 1.01018 8.24085 1.15668L6.18501 5.70835L1.43418 6.08585C1.27456 6.09849 1.12196 6.15685 0.994641 6.25395C0.867322 6.35105 0.770673 6.48278 0.716256 6.63337C0.66184 6.78396 0.65196 6.94704 0.687799 7.1031C0.723638 7.25916 0.803679 7.40159 0.918345 7.51335L4.42918 10.9358L3.18751 16.3125C3.14981 16.4753 3.16189 16.6456 3.22219 16.8014C3.2825 16.9572 3.38823 17.0913 3.52568 17.1862C3.66313 17.2812 3.82594 17.3326 3.993 17.3339C4.16005 17.3352 4.32363 17.2862 4.46251 17.1933L9.00001 14.1683L13.5375 17.1933C13.6795 17.2876 13.8469 17.3361 14.0172 17.3324C14.1875 17.3286 14.3527 17.2728 14.4903 17.1725C14.628 17.0721 14.7317 16.9319 14.7873 16.7709C14.843 16.6099 14.848 16.4357 14.8017 16.2717L13.2775 10.9383L17.0575 7.53668C17.305 7.31335 17.3958 6.96501 17.2892 6.64918V6.64918Z" fill="#FFC75B"/>
</svg>
