<svg width="82" height="12" viewBox="0 0 82 12" fill="none" xmlns="http://www.w3.org/2000/svg">
<path fill-rule="evenodd" clip-rule="evenodd" d="M9.97605 4.61218C9.89969 4.64689 7.20609 0.301035 7.20609 0.301035C8.26825 0.16219 10.5106 0.127478 11.2048 0.405169C11.2048 0.43988 12.5794 1.01609 12.8432 1.63395C12.8779 1.70337 12.9126 1.73114 12.7807 1.87693C11.8574 2.8419 10.8994 3.65415 9.97605 4.61218ZM19.001 11.6655C19.001 11.6655 16.3907 12.0404 14.6135 11.2559C13.7179 10.8602 12.267 8.40266 12.267 8.40266L9.04579 11.8044C6.44938 11.8044 1.25657 11.8044 1.25657 11.8044L2.47841 4.84128C2.47841 4.84128 1.02053 5.50773 0.236053 5.85485C0.236053 4.8621 0.236053 3.86936 0.236053 2.87662C0.340187 2.8419 4.09595 0.3774 4.13066 0.307978C5.01927 0.307978 6.79649 0.307978 6.79649 0.307978C6.79649 0.307978 5.01927 10.1452 4.94985 10.7839C4.98456 10.7839 5.01927 10.7839 5.05398 10.7839C8.50429 7.2919 11.9546 3.79994 15.4049 0.307978C16.9391 0.307978 20.2228 0.307978 20.2228 0.307978L14.9189 5.55633L19.001 11.6655Z" fill="white"/>
<path fill-rule="evenodd" clip-rule="evenodd" d="M23.907 5.86962C23.4905 10.6112 29.3983 8.19528 29.7593 8.11892C29.8982 9.07695 30.0301 10.035 30.1689 10.993C29.9954 11.0486 20.4914 14.9987 20.2346 5.96682C20.2346 5.85574 20.2137 5.7516 20.2276 5.64747C21.5189 -1.81546 30.0926 0.406062 30.2661 0.419946C30.1273 1.4474 29.9954 2.47486 29.8565 3.50231C29.5094 3.39123 24.2958 1.37104 23.907 5.86962ZM37.139 3.39818L35.5978 11.715C34.4731 11.715 32.2169 11.715 32.2169 11.715L33.8553 3.39818C33.8553 3.39818 32.0086 3.39818 31.0853 3.39818C31.2589 2.33601 31.4255 1.27385 31.599 0.218621C34.4662 0.218621 37.3403 0.218621 40.2075 0.218621C40.0339 1.28079 39.8673 2.34295 39.6937 3.39818C38.8537 3.39818 37.9929 3.39818 37.139 3.39818ZM42.7761 10.0489L43.9007 7.91065L45.2267 8.6257L44.8171 4.141C44.8171 4.141 41.1794 11.0971 40.8323 11.3054C40.0825 11.8053 38.5066 11.7358 37.2431 11.715L43.5883 0.218621H47.1844C47.7329 4.05075 48.2813 7.88288 48.8228 11.715C47.8648 11.715 46.032 11.715 46.032 11.715L42.7761 10.0489ZM56.7509 2.80808C55.8275 2.80808 54.9806 2.78032 54.0573 2.78032C53.9531 3.43289 53.7518 4.62696 53.7518 4.62696C53.7518 4.62696 54.1961 4.62696 54.8765 4.62696C55.9109 4.62696 57.0633 4.87688 57.3618 3.93273C57.6117 3.12049 56.8342 2.82891 56.7509 2.80808ZM52.9326 8.9381H55.3624C55.3624 8.9381 56.5148 8.93116 56.7509 8.00784C57.0355 6.89708 56.0358 6.89014 56.0358 6.89014H53.1756L52.9326 8.9381ZM60.2151 8.61876C59.3265 11.7914 56.4385 11.6734 56.4385 11.6734C56.4385 11.6734 50.8916 11.715 49.5448 11.7081C50.2251 7.91065 50.9124 4.11323 51.5928 0.308869L56.7439 0.156139C56.7439 0.156139 59.7222 0.315811 60.3123 2.80808C60.7427 4.64084 59.0904 5.76549 59.0904 5.76549C59.0904 5.76549 60.701 6.87625 60.2151 8.61876ZM78.1678 11.6803L75.5158 9.94473L76.5363 7.80652L77.8623 8.52157L77.4527 4.141C77.4527 4.141 77.2514 4.07852 77.2514 4.141C77.2444 4.20348 73.4748 11.6803 73.4748 11.6803L67.1782 11.715L65.1302 7.1956H65.026C65.026 7.1956 64.4776 10.2085 64.2069 11.715C63.0822 11.715 61.9506 11.715 60.826 11.715C60.826 11.6803 63.0822 0.218621 63.0822 0.218621H66.3659L65.6509 4.01604H65.755C65.755 4.01604 68.2125 1.48211 69.4483 0.218621C70.7812 0.218621 72.1141 0.218621 73.447 0.218621L67.9835 5.86962L70.4618 10.7917L76.1267 0.364407H79.6951L81.4306 11.6734H78.1678V11.6803Z" fill="#4878FE"/>
</svg>
