<svg width="19" height="19" viewBox="0 0 19 19" fill="none" xmlns="http://www.w3.org/2000/svg">
<path opacity="0.3" d="M0.391731 7.66793C0.49951 7.33645 0.786034 7.0948 1.13098 7.04471L6.34453 6.28733L8.68654 1.22093C8.83634 0.896951 9.16069 0.689453 9.51772 0.689453C9.87457 0.689453 10.1991 0.89686 10.3489 1.22084L12.6917 6.28751L17.9054 7.04489C18.2503 7.09498 18.5368 7.33663 18.6446 7.66812C18.7523 7.9996 18.6625 8.3635 18.4129 8.6068L14.6264 12.2975L15.5237 17.7835C15.5798 18.1263 15.4372 18.4712 15.1554 18.6743C14.8736 18.8773 14.5012 18.9035 14.1939 18.7419L9.5179 16.283L4.84278 18.7418C4.70872 18.8123 4.56239 18.847 4.41661 18.847C4.22798 18.847 4.04017 18.7888 3.8812 18.6742C3.59944 18.4712 3.45677 18.1263 3.51281 17.7834L4.41011 12.2975L0.623678 8.60671C0.373874 8.36341 0.284045 7.99951 0.391731 7.66793ZM6.02981 11.3188C6.24381 11.5274 6.34261 11.8274 6.29435 12.1224L5.61673 16.2652L9.09155 14.4377C9.35839 14.2974 9.67714 14.2974 9.94398 14.4377L13.4197 16.2654L12.7421 12.1224C12.6938 11.8274 12.7925 11.5274 13.0066 11.3188L15.8059 8.59041L11.9373 8.02845C11.6309 7.98394 11.3677 7.78762 11.2378 7.50659L9.5179 3.78718L7.79876 7.5064C7.66883 7.78753 7.40565 7.98385 7.09916 8.02835L3.23059 8.59032L6.02981 11.3188Z" fill="white"/>
</svg>
