<svg width="19" height="19" viewBox="0 0 19 19" fill="none" xmlns="http://www.w3.org/2000/svg">
<path d="M0.234261 7.66793C0.342039 7.33645 0.628563 7.0948 0.973509 7.04471L6.18706 6.28733L8.52907 1.22093C8.67887 0.896951 9.00322 0.689453 9.36025 0.689453C9.7171 0.689453 10.0416 0.89686 10.1914 1.22084L12.5343 6.28751L17.7479 7.04489C18.0929 7.09498 18.3794 7.33663 18.4872 7.66812C18.5948 7.9996 18.505 8.3635 18.2554 8.6068L14.469 12.2975L15.3663 17.7835C15.4223 18.1263 15.2797 18.4712 14.998 18.6743C14.7161 18.8773 14.3437 18.9035 14.0365 18.7419L9.36043 16.283L4.68531 18.7418C4.55125 18.8123 4.40492 18.847 4.25914 18.847C4.07051 18.847 3.8827 18.7888 3.72373 18.6742C3.44197 18.4712 3.2993 18.1263 3.35534 17.7834L4.25264 12.2975L0.466208 8.60671C0.216404 8.36341 0.126574 7.99951 0.234261 7.66793Z" fill="#69A5FF"/>
</svg>
