<svg width="45" height="45" fill="none" xmlns="http://www.w3.org/2000/svg"><path d="M2.799 22.535A19.873 19.873 0 1022.672 2.662" stroke="#0D0F22" stroke-width="4" stroke-linecap="round" stroke-linejoin="round"/><path d="M2.799 22.535A19.873 19.873 0 1022.672 2.662" stroke="url(#paint0_linear)" stroke-width="4" stroke-linecap="round" stroke-linejoin="round"/><path d="M2.799 22.535A19.873 19.873 0 1022.672 2.662" stroke="url(#paint1_linear)" stroke-width="4" stroke-linecap="round" stroke-linejoin="round"/><path d="M2.799 22.535A19.873 19.873 0 1022.672 2.662" stroke="url(#paint2_linear)" stroke-width="4" stroke-linecap="round" stroke-linejoin="round"/><path d="M19.36 19.52c0 .557-.144 1.055-.43 1.492a2.99 2.99 0 01-1.172 1.023c.593.276 1.049.654 1.367 1.133.323.48.484 1.021.484 1.625 0 1-.338 1.794-1.016 2.383-.677.583-1.578.875-2.703.875-1.13 0-2.036-.294-2.718-.883-.678-.588-1.016-1.38-1.016-2.375 0-.61.162-1.156.484-1.64.323-.485.776-.857 1.36-1.118a3.005 3.005 0 01-1.164-1.023 2.699 2.699 0 01-.422-1.492c0-.969.312-1.737.937-2.305.625-.568 1.47-.852 2.532-.852 1.067 0 1.914.284 2.539.852.625.568.937 1.336.937 2.305zm-1.65 5.18c0-.563-.169-1.016-.507-1.36-.334-.349-.776-.523-1.328-.523s-.995.171-1.328.515c-.329.344-.493.8-.493 1.367 0 .558.162 1.003.485 1.336.328.334.779.5 1.351.5.573 0 1.019-.161 1.336-.484.323-.323.485-.773.485-1.351zm-.242-5.11c0-.495-.143-.901-.43-1.219-.286-.323-.671-.484-1.155-.484-.485 0-.868.154-1.149.46-.281.303-.422.717-.422 1.243 0 .52.14.935.422 1.242.287.308.672.461 1.156.461.485 0 .868-.153 1.149-.46.286-.308.43-.722.43-1.243zm5.125 6.305c.355 0 .628.101.82.305.194.197.29.447.29.75 0 .296-.096.544-.29.742-.192.192-.465.289-.82.289-.338 0-.606-.097-.804-.29a.991.991 0 01-.297-.741c0-.303.096-.553.289-.75.193-.204.463-.305.813-.305zm5.36-4.555h1.156c.583-.005 1.044-.156 1.383-.453.344-.297.516-.727.516-1.29 0-.54-.144-.96-.43-1.257-.281-.302-.714-.453-1.297-.453-.51 0-.93.148-1.258.445-.328.292-.492.675-.492 1.149h-1.898c0-.584.153-1.115.46-1.594.313-.48.745-.852 1.297-1.117a4.218 4.218 0 011.868-.407c1.135 0 2.026.287 2.671.86.652.568.977 1.36.977 2.375 0 .51-.164.992-.492 1.445a3.045 3.045 0 01-1.258 1.016c.625.213 1.099.55 1.422 1.008.328.458.492 1.005.492 1.64 0 1.021-.352 1.834-1.055 2.438-.698.604-1.617.906-2.757.906-1.094 0-1.99-.292-2.688-.875-.698-.583-1.047-1.36-1.047-2.328h1.899c0 .5.166.906.5 1.219.338.312.791.468 1.359.468.588 0 1.052-.156 1.39-.468.34-.313.508-.766.508-1.36 0-.599-.177-1.06-.53-1.383-.355-.323-.881-.484-1.579-.484h-1.117v-1.5z" fill="#fff"/><defs><linearGradient id="paint0_linear" x1="42.545" y1="22.535" x2="2.799" y2="22.535" gradientUnits="userSpaceOnUse"><stop stop-color="#75CCD5"/><stop offset="1" stop-color="#2C319E"/></linearGradient><linearGradient id="paint1_linear" x1="42.545" y1="22.535" x2="2.799" y2="22.535" gradientUnits="userSpaceOnUse"><stop stop-color="#01C3DA"/><stop offset="1" stop-color="#8226B7"/></linearGradient><linearGradient id="paint2_linear" x1="42.545" y1="22.535" x2="2.799" y2="22.535" gradientUnits="userSpaceOnUse"><stop stop-color="#8226B7"/><stop offset="1" stop-color="#00A2B5"/></linearGradient></defs></svg>