<svg width="16" height="20" fill="none" xmlns="http://www.w3.org/2000/svg"><path d="M15.36 11.082a1.53 1.53 0 01-1.533 1.528H9.229l.371 2.282.292 1.97a2.061 2.061 0 01-2.46 2.204l-1.028-2.552a6.856 6.856 0 00-6.372-4.286V3.057c1.434 0 2.798-.2 3.818-1.205A5.1 5.1 0 017.44.382h4.088a1.53 1.53 0 011.532 1.529 1.53 1.53 0 01-1.532 1.528h1.532a1.53 1.53 0 011.533 1.529 1.53 1.53 0 01-1.533 1.528h.767a1.53 1.53 0 011.532 1.529 1.53 1.53 0 01-1.532 1.528 1.53 1.53 0 011.532 1.529z" fill="#fff"/></svg>