<svg width="18" height="20" fill="none" xmlns="http://www.w3.org/2000/svg"><g clip-path="url(#clip0)"><path d="M17.6 8.698a1.53 1.53 0 00-1.533-1.528h-4.598l.372-2.282.291-1.97A2.061 2.061 0 009.673.715L8.644 3.266a6.856 6.856 0 01-6.372 4.286v9.171c1.434 0 2.798.2 3.818 1.205a5.1 5.1 0 003.59 1.47h4.088A1.53 1.53 0 0015.3 17.87a1.53 1.53 0 00-1.532-1.529H15.3a1.53 1.53 0 001.533-1.528 1.53 1.53 0 00-1.532-1.529h.766a1.53 1.53 0 001.533-1.528 1.53 1.53 0 00-1.533-1.529A1.53 1.53 0 0017.6 8.698z" fill="#fff"/></g><defs><clipPath id="clip0"><path fill="#fff" transform="matrix(1 0 0 -1 0 20)" d="M0 0h18v19.895H0z"/></clipPath></defs></svg>