<svg width="83" height="24" viewBox="0 0 83 24" fill="none" xmlns="http://www.w3.org/2000/svg">
<path d="M74.3223 0H58.3739C59.3029 5.26451 64.4126 10.2194 69.9868 10.2194H82.6836C82.8384 9.75484 82.8384 8.98064 82.8384 8.51612C82.8384 3.87096 78.9674 0 74.3223 0Z" fill="url(#paint0_linear)"/>
<path d="M59.7684 11.1483V23.9999H67.5104V17.187H74.3232C78.0394 17.187 81.291 14.5548 82.3749 11.1483H59.7684Z" fill="#4FAD50"/>
<path d="M32.5177 0V23.8452H39.3306C39.3306 23.8452 41.0338 23.8451 41.9629 22.1419C46.608 13.0064 48.0016 10.2194 48.0016 10.2194H48.9306V23.8452H56.6725V0H49.8596C49.8596 0 48.1564 0.154848 47.2274 1.70323C43.3564 9.6 41.1887 13.6258 41.1887 13.6258H40.2596V0H32.5177Z" fill="#4FAD50"/>
<path d="M0.000488281 24.0001V0.154968H7.74242C7.74242 0.154968 9.91018 0.154963 11.1489 3.56141C14.2457 12.542 14.5554 13.7808 14.5554 13.7808C14.5554 13.7808 15.1747 11.613 17.9618 3.56141C19.2005 0.154963 21.3682 0.154968 21.3682 0.154968H29.1102V24.0001H21.3682V11.1485H20.4392L16.1037 24.0001H12.6973L8.36181 11.1485H7.43277V24.0001H0.000488281Z" fill="#4FAD50"/>
<defs>
<linearGradient id="paint0_linear" x1="58.3463" y1="5.18292" x2="82.7836" y2="5.18292" gradientUnits="userSpaceOnUse">
<stop stop-color="#27B1E6"/>
<stop offset="1" stop-color="#148ACA"/>
</linearGradient>
</defs>
</svg>
