<svg width="99" height="24" viewBox="0 0 99 24" fill="none" xmlns="http://www.w3.org/2000/svg">
<path d="M37.3333 10.2859C37.0794 12.1906 35.5556 12.1906 34.1588 12.1906H33.3968L34.0318 8.50811C34.0318 8.25414 34.2857 8.12716 34.5397 8.12716H34.9207C35.9365 8.12716 36.8254 8.12716 37.3333 8.6351C37.3333 9.14303 37.3333 9.65096 37.3333 10.2859ZM36.6984 5.20654H31.2381C30.8572 5.20654 30.6032 5.46051 30.4762 5.84146L28.3175 19.8096C28.3175 20.0636 28.4445 20.3176 28.8255 20.3176H31.3651C31.7461 20.3176 32 20.0636 32.127 19.6827L32.7619 15.8732C32.7619 15.4922 33.1429 15.2382 33.5238 15.2382H35.3016C38.8571 15.2382 40.8889 13.4605 41.5238 10.0319C41.7777 8.50811 41.5238 7.36526 40.8889 6.47638C39.873 5.71448 38.4762 5.20654 36.6984 5.20654Z" fill="white"/>
<path d="M49.2695 15.3648C49.0155 16.8886 47.8727 17.9045 46.3489 17.9045C45.587 17.9045 44.9521 17.6505 44.5711 17.1426C44.1902 16.6346 44.0632 15.9997 44.1901 15.3648C44.4441 13.841 45.587 12.8251 47.1108 12.8251C47.8727 12.8251 48.5076 13.0791 48.8885 13.587C49.1425 13.968 49.3965 14.6029 49.2695 15.3648ZM52.825 10.2855H50.2854C50.0314 10.2855 49.9044 10.4124 49.7774 10.6664L49.6504 11.4283L49.5235 11.1743C49.0155 10.4124 47.7457 10.0315 46.4759 10.0315C43.5552 10.0315 41.1425 12.1902 40.6346 15.2378C40.3806 16.7616 40.7616 18.1584 41.6505 19.1743C42.4124 20.0632 43.5552 20.4441 44.952 20.4441C47.2377 20.4441 48.5076 18.9203 48.5076 18.9203L48.3806 19.6822C48.3806 19.9362 48.5076 20.1902 48.8885 20.1902H51.1742C51.5552 20.1902 51.8091 19.9362 51.9361 19.5553L53.333 10.6664C53.333 10.5394 53.206 10.2855 52.825 10.2855Z" fill="white"/>
<path d="M66.6667 10.2857H64C63.746 10.2857 63.4921 10.4127 63.3651 10.6667L59.8096 16L58.2857 10.9206C58.1588 10.5397 57.9048 10.4127 57.5238 10.4127H54.9842C54.7302 10.4127 54.4763 10.6667 54.6032 11.0476L57.5238 19.4285L54.8572 23.238C54.6032 23.492 54.8572 23.9999 55.2382 23.9999H57.9048C58.1588 23.9999 58.4127 23.8729 58.5397 23.619L67.1746 11.0476C67.3016 10.6667 67.0476 10.2857 66.6667 10.2857Z" fill="white"/>
<path d="M75.9365 10.2859C75.6825 12.1906 74.1587 12.1906 72.7619 12.1906H72L72.6349 8.50811C72.6349 8.25414 72.8889 8.12716 73.1429 8.12716H73.5238C74.5397 8.12716 75.4286 8.12716 75.9365 8.6351C76.0635 9.14303 76.0635 9.65096 75.9365 10.2859ZM75.3016 5.20654H69.8413C69.4603 5.20654 69.2064 5.46051 69.0794 5.84146L66.9207 19.8096C66.9207 20.0636 67.0477 20.3176 67.4286 20.3176H70.2222C70.4762 20.3176 70.7302 20.1906 70.7302 19.8096L71.3651 15.8732C71.3651 15.4922 71.746 15.2382 72.127 15.2382H73.9047C77.4603 15.2382 79.492 13.4605 80.127 10.0319C80.3809 8.50811 80.127 7.36526 79.492 6.47638C78.6032 5.71448 77.2063 5.20654 75.3016 5.20654Z" fill="white"/>
<path d="M87.9999 15.3648C87.746 16.8886 86.6031 17.9045 85.0793 17.9045C84.3174 17.9045 83.6825 17.6505 83.3016 17.1426C82.9206 16.6346 82.7936 15.9997 82.9206 15.3648C83.1746 13.841 84.3174 12.8251 85.8412 12.8251C86.6031 12.8251 87.2381 13.0791 87.619 13.587C87.873 13.968 88.1269 14.6029 87.9999 15.3648ZM91.5555 10.2855H89.0158C88.7619 10.2855 88.6348 10.4124 88.5079 10.6664L88.3809 11.4283L88.2539 11.1743C87.746 10.4124 86.4762 10.0315 85.2063 10.0315C82.2857 10.0315 79.873 12.1902 79.3651 15.2378C79.1111 16.7616 79.492 18.1584 80.3809 19.1743C81.1428 20.0632 82.2857 20.4441 83.6825 20.4441C85.9682 20.4441 87.238 18.9203 87.238 18.9203L87.1111 19.6822C87.1111 19.9362 87.2381 20.1902 87.619 20.1902H89.9047C90.2856 20.1902 90.5396 19.9362 90.6666 19.5553L92.0634 10.6664C92.0634 10.5394 91.8095 10.2855 91.5555 10.2855Z" fill="white"/>
<path d="M94.6034 5.58749L92.3176 19.8096C92.3176 20.0636 92.4446 20.3176 92.8256 20.3176H95.1113C95.4922 20.3176 95.7462 20.0636 95.8732 19.6827L98.0319 5.71448C98.0319 5.46051 97.9049 5.20654 97.524 5.20654H94.9843C94.8573 5.20654 94.7303 5.46051 94.6034 5.58749Z" fill="white"/>
<path d="M5.71323 22.9841L6.09417 20.3174H5.20529H0.760864L3.80848 0.888944C3.80848 0.888944 3.80847 0.761963 3.93545 0.761963H4.06244H11.5545C13.9671 0.761963 15.7449 1.2699 16.6338 2.28577C17.0147 2.7937 17.2687 3.30163 17.3957 3.80957C17.5227 4.44448 17.5227 5.0794 17.3957 5.96828V6.47622L17.7767 6.73019C18.1576 6.85717 18.4116 7.11114 18.6655 7.3651C19.0465 7.74605 19.3005 8.25399 19.3005 8.88891C19.4274 9.52382 19.4274 10.2857 19.1735 11.1746C18.9195 12.1905 18.6655 12.9524 18.2846 13.7143C17.9036 14.3492 17.3957 14.8571 16.8878 15.3651C16.3798 15.746 15.6179 16 14.983 16.2539C14.2211 16.3809 13.4592 16.5079 12.5703 16.5079H11.9354C11.5545 16.5079 11.1735 16.6349 10.7926 16.8889C10.5386 17.1428 10.2846 17.5238 10.1577 17.9047V18.1587L9.39574 22.8571V22.9841V23.111C9.39574 23.111 9.39574 23.111 9.26875 23.111H5.71323V22.9841Z" fill="white"/>
<path d="M18.2861 5.96826C18.2861 6.09525 18.2861 6.22223 18.1592 6.34922C17.1433 11.4286 13.8417 13.0793 9.52429 13.0793H7.36556C6.85762 13.0793 6.34971 13.4603 6.34971 13.9682L5.20684 21.0793L4.95288 23.111C4.95288 23.492 5.20684 23.7459 5.46081 23.7459H9.3973C9.90524 23.7459 10.2862 23.365 10.2862 22.984V22.7301L11.0481 18.1587V17.9047C11.1751 17.3968 11.556 17.1428 11.937 17.1428H12.5719C16.3814 17.1428 19.302 15.619 20.0639 11.1746C20.4449 9.26983 20.1909 7.74603 19.302 6.73017C19.048 6.4762 18.6671 6.22223 18.2861 5.96826Z" fill="white"/>
<path d="M17.2701 5.58749C17.1431 5.58749 17.0161 5.46051 16.7621 5.46051C16.6351 5.46051 16.3812 5.33352 16.2542 5.33352C15.6193 5.20654 14.9843 5.20654 14.3494 5.20654H8.5082C8.38122 5.20654 8.25423 5.20654 8.12725 5.33352C7.87328 5.46051 7.61932 5.71447 7.61932 5.96844L6.34949 13.8414V14.0954C6.47647 13.5875 6.85741 13.2065 7.36534 13.2065H9.52407C13.8415 13.2065 17.1431 11.4287 18.1589 6.47638C18.1589 6.34939 18.1589 6.22241 18.2859 6.09543C18.032 5.96844 17.778 5.84146 17.524 5.71448C17.397 5.5875 17.2701 5.58749 17.2701 5.58749Z" fill="#252C5E"/>
<path d="M7.61901 5.96822C7.61901 5.71425 7.87297 5.46028 8.12693 5.3333C8.25392 5.3333 8.3809 5.20632 8.50789 5.20632H14.3491C14.984 5.20632 15.7459 5.20632 16.2539 5.3333C16.3808 5.3333 16.6348 5.3333 16.7618 5.46029C16.8888 5.46029 17.0158 5.58727 17.2697 5.58727C17.3967 5.58727 17.3967 5.58727 17.5237 5.71426C17.7777 5.84124 18.0316 5.96822 18.2856 6.0952C18.5396 4.19045 18.2856 2.92062 17.2697 1.77777C16.1269 0.507931 14.0952 0 11.5555 0H4.06347C3.55553 0 3.0476 0.380946 3.0476 0.88888L0 20.4443C0 20.8253 0.253967 21.2062 0.634917 21.2062H5.20631L6.34917 13.8412L7.61901 5.96822Z" fill="white"/>
</svg>
