<svg width="84" height="24" viewBox="0 0 84 24" fill="none" xmlns="http://www.w3.org/2000/svg">
<path fill-rule="evenodd" clip-rule="evenodd" d="M3.21216 9.08858C3.03534 9.53062 2.94693 10.0021 2.82906 10.4736C2.53436 11.8882 2.29861 13.3911 1.97445 14.8056C1.32612 14.8056 0.648326 14.8056 0 14.8056C0.736734 10.0316 2.09232 5.37544 2.68171 0.247773C3.33003 0.247773 3.97836 0.247773 4.59722 0.247773C4.50881 0.719283 4.39093 1.16132 4.33199 1.63283C4.33199 1.6623 4.27306 1.69177 4.27306 1.75071C5.15714 0.601405 6.51273 -0.194266 8.66399 0.0414886C10.7858 0.247774 11.9351 1.92753 12.0235 3.90197C12.2298 7.67405 10.2259 11.0925 6.10016 10.7978C4.74456 10.7094 3.71314 10.2084 3.21216 9.08858ZM5.98228 1.92753C4.24359 2.81161 2.56383 6.87838 4.53828 8.61707C5.83493 9.76637 7.86831 9.14752 8.72293 8.08662C9.69541 6.87838 10.5795 3.40099 9.10603 2.16328C8.60505 1.75071 7.80938 1.60336 7.07264 1.69177C6.5422 1.72124 6.27697 1.78018 5.98228 1.92753Z" fill="white"/>
<path fill-rule="evenodd" clip-rule="evenodd" d="M21.1298 10.5914C20.5109 10.5914 19.8921 10.5914 19.2437 10.5914C19.3322 10.002 19.45 9.44209 19.5679 8.88217C19.008 9.70731 18.0355 10.6503 16.621 10.7977C14.5876 11.004 12.731 9.97253 12.5542 8.29278C12.4953 7.73286 12.5247 6.81931 12.9962 6.11205C14.175 4.25548 17.2398 4.1376 20.2752 4.22601C21.1887 0.866507 16.2968 1.36748 14.6171 2.45785C14.7055 1.80952 14.8528 1.19067 14.9412 0.542341C17.9766 -0.400678 22.0728 -0.164922 22.3086 3.10618C22.397 4.40283 22.0139 5.67001 21.7781 6.90772C21.5424 8.11597 21.3066 9.29474 21.1298 10.5914ZM14.7055 7.90968C14.7644 8.76429 15.7074 9.2358 16.4736 9.2358C18.5659 9.26527 19.5679 7.43817 19.8921 5.64054C17.5345 5.52266 14.5581 5.81736 14.7055 7.90968Z" fill="white"/>
<path fill-rule="evenodd" clip-rule="evenodd" d="M25.6688 0.277283C26.1108 3.01793 26.6413 5.67018 27.0539 8.46976C28.6157 5.78805 30.0597 2.98846 31.5921 0.277283C32.2994 0.277283 33.0067 0.277283 33.7434 0.277283C31.8574 3.69573 29.6472 7.43834 27.5254 11.0336C26.877 12.1534 26.2287 13.6564 25.2857 14.3931C24.4606 15.0414 22.8692 15.1888 21.5431 14.9236C21.5726 14.3342 21.7788 13.8921 21.8083 13.3322C22.0735 13.3027 22.3977 13.4796 22.7219 13.4796C24.1659 13.4796 24.9615 12.1534 25.492 11.122C24.8731 7.55621 24.1953 4.01989 23.5765 0.424629C23.5175 0.365691 23.547 0.336221 23.5765 0.277283C24.2837 0.277283 24.991 0.277283 25.6688 0.277283Z" fill="white"/>
<path fill-rule="evenodd" clip-rule="evenodd" d="M34.5975 16.6326C34.1555 19.1375 33.5956 21.495 33.1535 23.9999C31.7685 23.9999 30.3834 23.9999 28.9689 23.9999C29.6172 20.9351 30.1771 17.8998 30.796 14.8644C31.4148 11.8585 32.1516 8.85267 32.5052 5.66998C33.625 5.58158 35.128 5.58158 36.2478 5.66998C36.2183 6.37725 36.0415 6.96664 35.9826 7.64443C37.0729 6.55406 38.2517 5.11006 40.7566 5.34582C43.1436 5.58157 44.4697 7.58549 44.6466 10.1199C44.9707 14.4813 42.8489 18.7544 39.0179 19.0491C36.6309 19.2259 35.5111 18.1355 34.5975 16.6326ZM36.2773 10.1199C35.3048 11.5049 34.9806 14.1572 36.2183 15.1886C36.9845 15.8369 38.3991 15.5128 39.0474 14.9823C39.8725 14.3045 40.4619 13.0079 40.4324 11.387C40.403 9.91357 39.7547 8.67586 38.1928 8.88214C37.2792 9.00002 36.7193 9.47153 36.2773 10.1199Z" fill="#009651"/>
<path fill-rule="evenodd" clip-rule="evenodd" d="M56.1109 18.7841C55.0206 18.7546 53.7828 18.843 52.7809 18.7252C52.8988 18.1358 52.8988 17.399 52.9872 16.8097C52.663 17.1338 52.4272 17.6053 52.0147 17.9884C50.6591 19.2261 47.6237 19.4914 46.1208 18.2537C44.5 16.8981 44.7652 13.6564 46.1208 12.2714C47.6827 10.6506 50.6296 10.238 53.665 10.5622C53.9596 9.32444 53.1345 8.55824 52.1031 8.41089C50.6001 8.20461 48.5962 8.85293 47.7122 9.38338C47.889 8.32249 47.9479 7.17318 48.1542 6.11228C49.2151 5.72918 50.217 5.43449 51.4842 5.37555C54.9911 5.13979 57.4076 6.31857 57.6433 9.32444C57.7612 10.9158 57.2897 12.5661 56.9361 14.1279C56.6119 15.6604 56.3761 17.2222 56.1109 18.7841ZM51.8968 12.8902C50.6296 12.9197 49.2446 13.3323 48.9499 14.2753C48.7141 15.1004 49.3035 15.8666 49.9224 15.9845C51.8673 16.3971 53.1934 14.4816 53.3408 12.9492C52.8988 12.8608 52.2504 12.8902 51.8968 12.8902Z" fill="#009651"/>
<path fill-rule="evenodd" clip-rule="evenodd" d="M68.9581 6.11212C68.7518 7.17302 68.3687 8.0571 68.1624 9.118C67.131 8.76436 65.8933 8.23392 64.2725 8.41073C63.6241 8.49914 62.9758 8.8233 62.9758 9.47163C63.0053 10.2673 64.2135 10.562 64.9503 10.8567C65.9817 11.2987 67.2194 11.8881 67.7204 12.7722C68.575 14.3046 67.7204 16.5443 66.8068 17.4873C66.0406 18.283 64.5966 18.9313 63.1232 19.0492C61.2077 19.1965 59.2038 18.8429 57.5535 18.4008C57.7892 17.3105 58.0544 16.3085 58.3491 15.3066C59.4395 15.7486 60.6772 16.1612 62.357 16.0138C63.1526 15.9254 64.0367 15.6602 63.9188 14.7172C63.8304 13.951 62.6811 13.6857 61.8265 13.3321C60.2352 12.6838 59.0564 11.8586 59.0564 9.70738C59.0564 5.28698 65.186 4.55025 68.9581 6.11212Z" fill="#009651"/>
<path fill-rule="evenodd" clip-rule="evenodd" d="M79.3909 6.11245C79.1551 7.14387 78.831 8.11636 78.5363 9.11832C77.5638 8.73522 76.2966 8.23424 74.6758 8.41106C74.0275 8.47 73.3791 8.79416 73.3791 9.47195C73.4086 10.2971 74.8821 10.7391 75.5599 11.0338C76.9449 11.6232 78.2711 12.2715 78.4479 13.8629C78.6247 15.4248 77.9764 16.6919 77.0628 17.5466C76.2082 18.3717 74.941 18.9316 73.5265 19.0495C71.5815 19.1968 69.6955 18.8432 67.9568 18.4012C68.1336 17.2813 68.4872 16.3678 68.6935 15.3069C69.4892 15.5426 70.2554 15.9257 71.1984 16.0142C72.5245 16.132 74.3222 16.0436 74.2927 14.8943C74.2632 13.6566 71.6994 13.3914 70.6974 12.5957C69.6071 11.7411 68.9293 9.64877 69.7839 7.93955C71.1984 5.2873 76.0609 4.69792 79.3909 6.11245Z" fill="#009651"/>
<path d="M80.9522 7.46789H80.4218L80.4512 7.2616H81.7479L81.7184 7.46789H81.1879L80.8933 9.0887H80.6575L80.9522 7.46789Z" fill="#009651"/>
<path d="M83.1317 9.08882L83.2496 8.11633C83.2791 7.93952 83.3086 7.67429 83.338 7.49747C83.2496 7.67429 83.1612 7.91005 83.0433 8.08686L82.5129 9.08882H82.3361L82.1887 8.11633C82.1593 7.91005 82.1298 7.70376 82.1298 7.49747C82.1003 7.67429 82.0414 7.93952 81.9824 8.11633L81.7467 9.08882H81.5404L82.0119 7.26172H82.3066L82.454 8.29315C82.4834 8.44049 82.4834 8.61731 82.4834 8.76466C82.5424 8.61731 82.6308 8.46996 82.6897 8.32262L83.2496 7.26172H83.5443L83.3086 9.08882H83.1317Z" fill="#009651"/>
</svg>
