<svg width="79" height="24" viewBox="0 0 79 24" fill="none" xmlns="http://www.w3.org/2000/svg">
<path d="M72.9145 0.342896H68.0002C66.5145 0.342896 65.3717 0.800038 64.6859 2.28575L55.3145 23.6572H61.9431C61.9431 23.6572 63.0859 20.8 63.3145 20.1143C64.0002 20.1143 70.5145 20.1143 71.4288 20.1143C71.6574 20.9143 72.2288 23.5429 72.2288 23.5429H78.1717L72.9145 0.342896ZM65.1431 15.3143C65.7145 13.9429 67.6574 8.80004 67.6574 8.80004C67.6574 8.91432 68.2288 7.42861 68.4574 6.62861L68.9145 8.68575C68.9145 8.68575 70.1717 14.2858 70.4002 15.4286H65.1431V15.3143Z" fill="white"/>
<path d="M55.7723 16C55.7723 20.8 51.4295 24 44.6866 24C41.8295 24 39.0866 23.4286 37.6009 22.7429L38.5152 17.4857L39.3152 17.8286C41.3723 18.7429 42.7437 19.0857 45.258 19.0857C47.0866 19.0857 49.0295 18.4 49.0295 16.8C49.0295 15.7714 48.2295 15.0857 45.7152 13.9429C43.3152 12.8 40.1152 10.9714 40.1152 7.65714C40.1152 3.08571 44.5723 0 50.858 0C53.258 0 55.3152 0.457143 56.5723 1.02857L55.658 6.05714L55.2009 5.6C54.058 5.14286 52.5723 4.68571 50.4009 4.68571C48.0009 4.8 46.858 5.82857 46.858 6.74286C46.858 7.77143 48.2295 8.57143 50.4009 9.6C54.058 11.3143 55.7723 13.2571 55.7723 16Z" fill="white"/>
<path d="M0 0.571523L0.114286 0.11438H9.94286C11.3143 0.11438 12.3429 0.571523 12.6857 2.05724L14.8571 12.343C12.6857 6.85724 7.65714 2.40009 0 0.571523Z" fill="#F9B50B"/>
<path d="M28.6853 0.342801L18.7425 23.5428H11.9996L6.28534 4.11423C10.3996 6.7428 13.8282 10.8571 15.0853 13.7142L15.7711 16.1142L21.9425 0.228516H28.6853V0.342801Z" fill="white"/>
<path d="M31.3149 0.228516H37.6006L33.6006 23.5428H27.3149L31.3149 0.228516Z" fill="white"/>
</svg>
