<svg width="36" height="29" viewBox="0 0 36 29" fill="none" xmlns="http://www.w3.org/2000/svg">
<path fill-rule="evenodd" clip-rule="evenodd" d="M18.4108 20.2512V20.2329C18.3375 20.1963 18.2643 20.1048 18.1727 20.0498C18.1178 19.9949 18.0263 19.9216 17.9713 19.8667C17.8798 19.7935 17.8248 19.7568 17.7516 19.6836C17.6784 19.6287 17.6234 19.5371 17.5685 19.4822L17.1657 19.0977C16.4882 18.3286 16.0304 17.7243 15.536 16.7905C13.8697 13.7143 13.8514 9.74084 15.536 6.66463C16.2501 5.36456 16.7994 4.72368 17.7699 3.77152L18.4108 3.2222V3.18558C18.3559 3.16727 18.3375 3.14896 18.2826 3.11233C18.2277 3.07571 18.1911 3.03909 18.1361 3.00247C18.0446 2.92923 17.953 2.87429 17.8615 2.80105C17.6234 2.61794 16.9276 2.21511 16.653 2.08693C16.5431 2.032 16.4332 1.95875 16.3417 1.92213C16.2135 1.8672 16.1219 1.83058 15.9938 1.77565C15.6459 1.59254 14.9867 1.39112 14.5838 1.28125C14.0711 1.13477 13.5584 1.04321 12.9725 0.969971C12.7344 0.93335 12.4232 0.915039 12.1119 0.915039H11.0865C10.5188 0.915039 9.20046 1.15308 8.66945 1.33619C8.55958 1.37281 8.43141 1.40943 8.30323 1.44605L7.60742 1.7024C7.47924 1.75734 7.36938 1.81227 7.25951 1.84889C6.34397 2.23342 5.09884 3.07571 4.38472 3.77152L4.14668 3.99125C4.05513 4.0645 4.00019 4.13774 3.90864 4.22929L3.6706 4.46733C3.341 4.81524 2.68182 5.74909 2.44378 6.1153L1.94938 7.04916C0.777493 9.39294 0.557763 12.5241 1.40006 15.0693C1.56486 15.5087 1.74797 16.0214 1.94938 16.4243C2.37053 17.2483 2.68182 17.761 3.24945 18.4934C3.30438 18.5666 3.39594 18.6582 3.46918 18.7498L3.85371 19.1892C4.36641 19.7935 5.66647 20.7639 6.34397 21.1485C7.36938 21.6978 8.28492 22.0823 9.45681 22.3387C11.2696 22.7049 12.8077 22.6316 14.5655 22.1922C14.9134 22.1006 15.6825 21.8443 15.9938 21.6978C16.9642 21.24 17.422 21.002 18.2826 20.3611C18.3375 20.3245 18.3559 20.2879 18.4108 20.2512Z" fill="white"/>
<path fill-rule="evenodd" clip-rule="evenodd" d="M18.4106 3.18558V3.2222C18.7952 3.46024 19.7473 4.44902 20.022 4.79693C21.0108 5.96882 21.7798 7.41537 22.1827 8.95348C22.6587 10.7846 22.6587 12.7072 22.1827 14.5383C21.9446 15.3989 21.6517 16.0764 21.2854 16.8088C20.8643 17.6511 20.2783 18.4018 19.6375 19.0977C19.5276 19.2441 19.0149 19.7385 18.8501 19.885C18.7036 19.9949 18.5754 20.1414 18.4106 20.2329V20.2512C19.0881 20.7639 19.7107 21.1851 20.4798 21.533C20.5896 21.5879 20.6995 21.6245 20.8094 21.6795C21.7798 22.1189 23.263 22.5035 24.2518 22.5401C24.3617 22.5401 24.3617 22.5584 24.4715 22.5584C24.5448 22.5584 24.6363 22.5401 24.7096 22.5584C25.0758 22.5767 25.4969 22.5767 25.8631 22.5401C26.0646 22.5218 26.1561 22.5218 26.5223 22.4852C26.6688 22.4485 26.797 22.4485 26.9435 22.4119C27.7308 22.2654 28.0604 22.1739 28.8295 21.9175C29.1041 21.8077 29.8915 21.4781 30.1479 21.3133C30.4591 21.1302 30.7155 21.0203 31.0451 20.7823C31.155 20.7273 31.2282 20.6724 31.3381 20.5991C31.6493 20.3794 31.8691 20.178 32.1437 19.9583C32.3818 19.7935 32.9128 19.2441 33.1142 19.0244L33.7734 18.2371C33.8466 18.1272 33.9016 18.0539 33.9748 17.9441C34.5425 17.1933 35.0735 16.0581 35.4031 15.0876C35.6228 14.4284 35.751 13.8241 35.8425 13.1283C35.8791 12.8171 35.9158 12.4508 35.9341 12.1029V11.2789C35.9158 11.1325 35.9158 10.986 35.8975 10.8578C35.8608 10.2352 35.751 9.77746 35.6411 9.19152C35.4946 8.56895 35.2749 7.98301 35.0368 7.39706C34.9819 7.26888 34.927 7.19564 34.8904 7.06747C34.5974 6.40828 33.7734 5.16314 33.279 4.61382L32.6931 3.99125C32.6015 3.8997 32.5283 3.86308 32.4367 3.77152L31.1 2.7095C30.7155 2.45315 30.3127 2.21511 29.8915 2.01369C29.7816 1.95875 29.6901 1.92213 29.5619 1.8672L28.1703 1.33619C27.6942 1.20801 27.1083 1.06153 26.5956 1.00659C25.8998 0.93335 25.8082 0.915039 25.3138 0.915039H24.4349C24.3983 0.915039 24.3433 0.915039 24.2884 0.93335C24.1419 0.951661 24.0137 0.951661 23.849 0.969971C22.8968 1.09815 22.3841 1.20801 21.5235 1.50098C21.3038 1.57423 21.0291 1.68409 20.8277 1.77565C20.2234 2.06862 19.8938 2.17848 19.2713 2.59963L18.4106 3.18558Z" fill="white"/>
<path fill-rule="evenodd" clip-rule="evenodd" d="M3.30457 25.4513V25.1218H2.68201V27.9965H3.30457V26.4401C3.30457 26.019 3.5243 25.6528 3.94545 25.6528H4.07363C4.42153 25.6528 4.62295 25.9641 4.62295 26.312V27.9965H5.28214V26.3486C5.28214 25.9824 5.53849 25.6528 5.86809 25.6528C6.12444 25.6528 6.27092 25.6345 6.45403 25.8725C6.54558 25.9641 6.60052 26.1655 6.60052 26.3486V27.9965H7.24139V26.2753C7.24139 25.7626 7.05829 25.3415 6.61883 25.1584C6.27092 24.9936 5.81315 25.0119 5.46525 25.195L5.2089 25.3964C5.2089 25.4147 5.19059 25.433 5.17228 25.4513C5.13565 25.488 5.11734 25.5246 5.08072 25.5429C5.0441 25.433 4.84268 25.2682 4.73282 25.195C4.45815 25.0119 3.94545 24.9936 3.63417 25.1584C3.43275 25.2682 3.37782 25.3964 3.30457 25.4513Z" fill="white"/>
<path fill-rule="evenodd" clip-rule="evenodd" d="M32.8036 27.4837C31.5402 27.4837 31.6866 25.6526 32.6937 25.6526C33.1332 25.6526 33.3896 25.7991 33.5543 26.2019C33.7924 26.7879 33.4079 27.4837 32.8036 27.4837ZM33.591 25.4512C33.536 25.4146 33.5543 25.4146 33.4994 25.3596C33.4079 25.2681 33.3529 25.2315 33.2248 25.1582C32.7304 24.9202 32.0529 25.085 31.6683 25.4695C31.0091 26.1104 31.0824 27.4654 32.0529 27.9415C32.2909 28.0513 32.5656 28.1063 32.8952 28.0696C33.2797 28.0147 33.4445 27.7767 33.591 27.7034V27.9964H34.2135V24.023C34.2135 23.9131 33.9755 23.9497 33.6459 23.9497C33.536 23.9497 33.591 24.1694 33.591 24.261V25.4512Z" fill="white"/>
<path fill-rule="evenodd" clip-rule="evenodd" d="M9.34769 27.4837C8.99978 27.4837 8.6885 27.3189 8.54201 27.0259C8.43215 26.7879 8.45046 26.678 8.45046 26.44C8.45046 26.0554 8.81668 25.6526 9.21951 25.6526H9.40262C9.80546 25.6526 10.1534 26.0921 10.1534 26.4949C10.1534 26.7879 10.1351 26.9893 9.93363 27.2273C9.82377 27.3372 9.56742 27.4837 9.34769 27.4837ZM10.1167 27.7034V27.9964H10.7759V25.1765C10.7759 25.1216 10.7576 25.1216 10.7027 25.1216C10.0069 25.1216 10.1167 25.0483 10.1167 25.4146C9.93363 25.3047 9.80546 25.0483 9.21951 25.0483C7.57154 25.0483 7.24195 27.4654 8.78005 28.0147C9.09134 28.1246 9.56742 28.1062 9.86039 27.9048C9.98857 27.8316 10.0252 27.7583 10.1167 27.7034Z" fill="white"/>
<path fill-rule="evenodd" clip-rule="evenodd" d="M27 27.4833C26.707 27.4833 26.5056 27.3918 26.3408 27.227C25.8464 26.7326 26.1394 25.6522 26.8718 25.6522C27.1648 25.6522 27.4211 25.6889 27.6042 25.9452C27.7324 26.0917 27.8239 26.3297 27.8239 26.5678C27.8056 26.7143 27.7873 26.8058 27.7507 26.9157C27.6591 27.2453 27.3296 27.4833 27 27.4833ZM25.4435 26.4762C25.4435 27.1537 25.645 27.6298 26.2492 27.9411C26.7619 28.1974 27.3845 28.1242 27.7873 27.6664V27.996H28.4099V25.1212H27.7873V25.4508C27.7141 25.3959 27.6958 25.341 27.6225 25.286C27.1464 24.8832 26.3225 25.0114 25.8647 25.4691C25.645 25.6889 25.4435 26.0551 25.4435 26.4762Z" fill="white"/>
<path fill-rule="evenodd" clip-rule="evenodd" d="M18.52 25.6162C18.9412 25.6162 19.1609 25.9092 19.2525 26.2937H17.7693C17.7876 26.1106 17.8975 25.9275 18.0073 25.8176C18.1355 25.6894 18.3369 25.6162 18.52 25.6162ZM17.0918 26.4951C17.0918 27.2458 17.4031 27.7586 17.989 27.9783C18.2637 28.0881 18.6482 28.1248 18.9778 28.0515C19.1975 27.9966 19.6187 27.8501 19.7469 27.667C19.7286 27.5754 19.5271 27.3008 19.4722 27.2092C19.3623 27.2458 18.6482 27.7952 18.0256 27.3191C17.8242 27.1543 17.8059 26.9163 17.751 26.8247H19.6736C19.93 26.8247 19.8933 26.8796 19.8933 26.4768C19.8933 25.3232 18.7764 24.7739 17.9341 25.1584C17.4397 25.3965 17.0918 25.8542 17.0918 26.4951Z" fill="white"/>
<path fill-rule="evenodd" clip-rule="evenodd" d="M11.4727 25.9638C11.4727 26.4032 11.7839 26.6596 12.1685 26.7695C12.5164 26.861 13.2671 26.861 13.2671 27.154C13.2671 27.6484 12.2417 27.5385 11.8389 27.3188C11.7839 27.2822 11.729 27.2272 11.6558 27.2089C11.6191 27.3005 11.5642 27.392 11.5093 27.4653C11.4543 27.5385 11.3811 27.6484 11.3628 27.7216C11.9121 28.0146 12.1135 28.1245 12.9009 28.0695C13.3587 28.0329 13.9263 27.7216 13.9263 27.1723C13.9263 26.8793 13.908 26.7878 13.7066 26.5864C13.4319 26.3117 12.9925 26.2934 12.6262 26.2201C12.3516 26.1835 12.1502 26.1652 12.1502 25.9272C12.1502 25.5426 12.8643 25.5976 13.1756 25.6891C13.2671 25.7258 13.3037 25.7441 13.377 25.7624C13.4502 25.799 13.5418 25.8356 13.5967 25.8539C13.6883 25.6891 13.7798 25.5243 13.8531 25.3595C13.8348 25.3229 13.7981 25.3046 13.7615 25.2863C13.7249 25.268 13.67 25.2497 13.6333 25.2314C12.9741 24.9201 11.4727 24.9201 11.4727 25.9638Z" fill="white"/>
<path fill-rule="evenodd" clip-rule="evenodd" d="M14.9329 25.1221H14.347V25.708H14.9329V27.1546C14.9329 28.5279 16.7091 28.0152 16.7091 27.8504C16.7091 27.7222 16.5626 27.4842 16.5626 27.3194C16.4893 27.3377 16.471 27.3377 16.4161 27.356C16.0682 27.5391 15.5738 27.5757 15.5738 27.0264V25.708H16.5992V25.1221H15.5738V24.2432H14.9329V25.1221Z" fill="white"/>
<path fill-rule="evenodd" clip-rule="evenodd" d="M22.5516 26.4766C22.5516 26.8977 22.5882 27.1358 22.8262 27.4654C23.1741 27.9964 23.7601 28.1062 24.3643 28.0696C24.6756 28.0513 24.932 27.8682 25.1334 27.74C25.0418 27.5569 24.932 27.3921 24.8221 27.209C23.9798 27.795 23.2108 27.3372 23.2108 26.5864C23.2108 26.0737 23.5404 25.6526 23.9981 25.6526C24.2728 25.6526 24.4376 25.6709 24.6756 25.8174C24.7306 25.854 24.7672 25.8906 24.8221 25.9089C24.932 25.7442 25.0235 25.561 25.1334 25.3962C24.7855 25.1582 24.6573 25.0483 24.0897 25.0483C23.2108 25.0483 22.5516 25.6709 22.5516 26.4766Z" fill="white"/>
<path fill-rule="evenodd" clip-rule="evenodd" d="M29.8555 25.4509V25.1213H29.233V27.9961H29.8555V26.4763C29.8555 25.9087 30.0386 25.6523 30.5147 25.6523C30.6795 25.6523 30.7528 25.7073 30.8626 25.7256C30.8993 25.6523 31.0641 25.1946 31.0641 25.1213C30.8077 25.0847 30.5697 24.9382 30.1485 25.1579C30.057 25.2129 29.9288 25.3594 29.8555 25.4509Z" fill="white"/>
<path fill-rule="evenodd" clip-rule="evenodd" d="M21.1756 25.4514V25.1218H20.5347V27.9966H21.1756V26.4952C21.1756 25.9641 21.3038 25.6529 21.8348 25.6529C21.9813 25.6529 22.0545 25.7078 22.1827 25.7261L22.3475 25.2317C22.3841 25.1035 22.3841 25.1218 22.2376 25.0852C21.9447 25.0303 21.6151 25.0303 21.377 25.2134L21.3038 25.2866C21.2488 25.3416 21.2122 25.3965 21.1756 25.4514Z" fill="white"/>
<path fill-rule="evenodd" clip-rule="evenodd" d="M35.1116 18.4387H35.2031V18.1824C35.2214 18.2007 35.2214 18.2007 35.2397 18.2373C35.313 18.3655 35.2581 18.4021 35.4229 18.4021C35.4412 18.3289 35.4595 18.2556 35.5144 18.2007V18.4387H35.606V18.0176H35.4595C35.4412 18.1274 35.4045 18.1824 35.3862 18.2739C35.2214 18.1458 35.3862 18.0176 35.1116 18.0176V18.4387Z" fill="white"/>
<path fill-rule="evenodd" clip-rule="evenodd" d="M35.0585 27.8868C35.0585 27.5938 35.4614 27.5572 35.4614 27.8868C35.4614 28.1432 35.0585 28.1432 35.0585 27.8868ZM34.967 27.8502C34.967 28.253 35.5529 28.2896 35.5529 27.8319C35.5529 27.5023 34.967 27.5023 34.967 27.8502Z" fill="white"/>
<path fill-rule="evenodd" clip-rule="evenodd" d="M34.6703 18.0906H34.8164V18.4376H34.9259V18.0906H35.0537V18.0176H34.6703V18.0906Z" fill="white"/>
<path fill-rule="evenodd" clip-rule="evenodd" d="M35.2212 27.7769C35.3125 27.7952 35.2943 27.7769 35.3125 27.85H35.2212V27.7769ZM35.1664 27.9961H35.2212V27.923C35.3308 27.9961 35.2395 27.9961 35.3856 27.9961C35.2943 27.8317 35.3673 27.9413 35.4038 27.8135C35.3308 27.7222 35.2943 27.7222 35.1664 27.7222V27.9961Z" fill="white"/>
</svg>
