<svg width="29" height="23" viewBox="0 0 29 23" fill="none" xmlns="http://www.w3.org/2000/svg">
<path fill-rule="evenodd" clip-rule="evenodd" d="M14.3517 16.0496V16.0353C14.2943 16.0066 14.2369 15.9349 14.1652 15.8918C14.1222 15.8488 14.0504 15.7914 14.0074 15.7484C13.9357 15.691 13.8926 15.6623 13.8353 15.6049C13.7779 15.5619 13.7348 15.4902 13.6918 15.4471L13.3762 15.1459C12.8454 14.5434 12.4868 14.07 12.0995 13.3384C10.7941 10.9284 10.7797 7.8155 12.0995 5.40551C12.659 4.387 13.0893 3.88492 13.8496 3.13897L14.3517 2.70862V2.67993C14.3086 2.66558 14.2943 2.65124 14.2513 2.62255C14.2082 2.59386 14.1795 2.56516 14.1365 2.53647C14.0648 2.47909 13.9931 2.43606 13.9213 2.37868C13.7348 2.23523 13.1897 1.91963 12.9745 1.81921C12.8885 1.77618 12.8024 1.7188 12.7307 1.69011C12.6303 1.64707 12.5585 1.61838 12.4581 1.57535C12.1856 1.43189 11.6691 1.2741 11.3535 1.18803C10.9519 1.07327 10.5502 1.00154 10.0912 0.944159C9.90468 0.915468 9.66081 0.901123 9.41694 0.901123H8.61361C8.16891 0.901123 7.13606 1.08761 6.72005 1.23106C6.63397 1.25975 6.53356 1.28844 6.43314 1.31713L5.88802 1.51797C5.78761 1.561 5.70154 1.60404 5.61547 1.63273C4.89821 1.93398 3.92273 2.59386 3.36327 3.13897L3.17678 3.31111C3.10506 3.36849 3.06202 3.42588 2.9903 3.4976L2.80381 3.68409C2.5456 3.95665 2.02917 4.68825 1.84268 4.97516L1.45536 5.70676C0.53727 7.54294 0.365128 9.99597 1.02501 11.99C1.15411 12.3342 1.29757 12.7359 1.45536 13.0515C1.7853 13.697 2.02917 14.0987 2.47387 14.6725C2.51691 14.7299 2.58863 14.8016 2.64601 14.8733L2.94726 15.2176C3.34893 15.691 4.36743 16.4513 4.89821 16.7526C5.70154 17.1829 6.4188 17.4842 7.33689 17.685C8.75706 17.9719 9.96206 17.9145 11.3392 17.5702C11.6118 17.4985 12.2143 17.2977 12.4581 17.1829C13.2184 16.8243 13.577 16.6378 14.2513 16.1357C14.2943 16.107 14.3086 16.0783 14.3517 16.0496Z" fill="#838FC0"/>
<path fill-rule="evenodd" clip-rule="evenodd" d="M14.3516 2.67993V2.70862C14.6528 2.8951 15.3988 3.66974 15.6139 3.9423C16.3886 4.86039 16.9911 5.99366 17.3067 7.19866C17.6796 8.63318 17.6796 10.1394 17.3067 11.5739C17.1202 12.2482 16.8907 12.7789 16.6038 13.3527C16.2738 14.0126 15.8148 14.6008 15.3127 15.1459C15.2266 15.2607 14.825 15.648 14.6958 15.7627C14.5811 15.8488 14.4807 15.9636 14.3516 16.0353V16.0496C14.8823 16.4513 15.3701 16.7812 15.9726 17.0538C16.0586 17.0968 16.1447 17.1255 16.2308 17.1686C16.9911 17.5128 18.153 17.8141 18.9277 17.8428C19.0137 17.8428 19.0137 17.8571 19.0998 17.8571C19.1572 17.8571 19.2289 17.8428 19.2863 17.8571C19.5732 17.8715 19.9031 17.8715 20.1901 17.8428C20.3479 17.8284 20.4196 17.8284 20.7065 17.7998C20.8212 17.7711 20.9217 17.7711 21.0364 17.7424C21.6533 17.6276 21.9115 17.5559 22.514 17.3551C22.7292 17.269 23.346 17.0108 23.5468 16.8817C23.7907 16.7382 23.9915 16.6521 24.2497 16.4657C24.3358 16.4226 24.3932 16.3796 24.4793 16.3222C24.7231 16.1501 24.8953 15.9923 25.1105 15.8201C25.2969 15.691 25.7129 15.2607 25.8707 15.0885L26.3872 14.4717C26.4446 14.3856 26.4876 14.3282 26.545 14.2421C26.9897 13.654 27.4057 12.7646 27.6639 12.0043C27.836 11.4879 27.9365 11.0145 28.0082 10.4694C28.0369 10.2255 28.0656 9.93859 28.0799 9.66603V9.0205C28.0656 8.90574 28.0656 8.79098 28.0512 8.69056C28.0225 8.20282 27.9365 7.84419 27.8504 7.38515C27.7356 6.89741 27.5635 6.43836 27.377 5.97932C27.334 5.8789 27.2909 5.82152 27.2622 5.72111C27.0327 5.20468 26.3872 4.22921 25.9999 3.79885L25.5408 3.31111C25.4691 3.23939 25.4117 3.2107 25.34 3.13897L24.2928 2.30695C23.9915 2.10612 23.6759 1.91963 23.346 1.76183C23.2599 1.7188 23.1882 1.69011 23.0878 1.64707L21.9975 1.23106C21.6246 1.13065 21.1655 1.01588 20.7639 0.972849C20.2187 0.915468 20.147 0.901123 19.7597 0.901123H19.0711C19.0424 0.901123 18.9994 0.901123 18.9564 0.915468C18.8416 0.929813 18.7412 0.929813 18.6121 0.944159C17.8661 1.04457 17.4645 1.13065 16.7902 1.36017C16.6181 1.41755 16.4029 1.50362 16.2451 1.57535C15.7717 1.80487 15.5135 1.89094 15.0258 2.22088L14.3516 2.67993Z" fill="#838FC0"/>
<path fill-rule="evenodd" clip-rule="evenodd" d="M2.51801 20.1237V19.8655H2.03027V22.1177H2.51801V20.8983C2.51801 20.5684 2.69015 20.2815 3.02009 20.2815H3.12051C3.39307 20.2815 3.55086 20.5254 3.55086 20.7979V22.1177H4.06729V20.8266C4.06729 20.5397 4.26812 20.2815 4.52634 20.2815C4.72717 20.2815 4.84193 20.2671 4.98538 20.4536C5.05711 20.5254 5.10014 20.6831 5.10014 20.8266V22.1177H5.60223V20.7692C5.60223 20.3676 5.45877 20.0376 5.11449 19.8942C4.84193 19.7651 4.4833 19.7794 4.21074 19.9229L4.00991 20.0807C4.00991 20.095 3.99556 20.1093 3.98122 20.1237C3.95253 20.1524 3.93818 20.1811 3.90949 20.1954C3.8808 20.1093 3.72301 19.9802 3.63693 19.9229C3.42176 19.7794 3.02009 19.7651 2.77622 19.8942C2.61843 19.9802 2.57539 20.0807 2.51801 20.1237Z" fill="#838FC0"/>
<path fill-rule="evenodd" clip-rule="evenodd" d="M25.6284 21.7161C24.6386 21.7161 24.7533 20.2816 25.5423 20.2816C25.8866 20.2816 26.0875 20.3963 26.2166 20.7119C26.403 21.171 26.1018 21.7161 25.6284 21.7161ZM26.2452 20.1238C26.2022 20.0951 26.2166 20.0951 26.1735 20.052C26.1018 19.9803 26.0588 19.9516 25.9583 19.8942C25.571 19.7078 25.0403 19.8369 24.739 20.1381C24.2226 20.6402 24.28 21.7017 25.0403 22.0747C25.2267 22.1608 25.4419 22.2038 25.7001 22.1751C26.0014 22.1321 26.1305 21.9456 26.2452 21.8882V22.1177H26.733V19.0048C26.733 18.9188 26.5465 18.9475 26.2883 18.9475C26.2022 18.9475 26.2452 19.1196 26.2452 19.1913V20.1238Z" fill="#838FC0"/>
<path fill-rule="evenodd" clip-rule="evenodd" d="M7.2524 21.716C6.97984 21.716 6.73597 21.5869 6.62121 21.3574C6.53514 21.1709 6.54948 21.0848 6.54948 20.8983C6.54948 20.5971 6.83639 20.2815 7.15198 20.2815H7.29543C7.61103 20.2815 7.88358 20.6258 7.88358 20.9414C7.88358 21.1709 7.86924 21.3287 7.71144 21.5152C7.62537 21.6013 7.42454 21.716 7.2524 21.716ZM7.85489 21.8882V22.1177H8.37132V19.9085C8.37132 19.8655 8.35698 19.8655 8.31394 19.8655C7.76882 19.8655 7.85489 19.8081 7.85489 20.095C7.71144 20.0089 7.61103 19.8081 7.15198 19.8081C5.86091 19.8081 5.6027 21.7017 6.8077 22.132C7.05156 22.2181 7.42454 22.2038 7.65406 22.046C7.75448 21.9886 7.78317 21.9312 7.85489 21.8882Z" fill="#838FC0"/>
<path fill-rule="evenodd" clip-rule="evenodd" d="M21.0797 21.7159C20.8502 21.7159 20.6924 21.6441 20.5633 21.515C20.1759 21.1277 20.4055 20.2813 20.9793 20.2813C21.2088 20.2813 21.4096 20.31 21.5531 20.5109C21.6535 20.6256 21.7252 20.8121 21.7252 20.9986C21.7109 21.1134 21.6965 21.1851 21.6678 21.2712C21.5961 21.5294 21.3379 21.7159 21.0797 21.7159ZM19.8604 20.9269C19.8604 21.4576 20.0181 21.8306 20.4915 22.0745C20.8932 22.2753 21.3809 22.2179 21.6965 21.8593V22.1175H22.1843V19.8653H21.6965V20.1235C21.6392 20.0805 21.6248 20.0375 21.5674 19.9944C21.1945 19.6788 20.5489 19.7793 20.1903 20.1379C20.0181 20.31 19.8604 20.5969 19.8604 20.9269Z" fill="#838FC0"/>
<path fill-rule="evenodd" clip-rule="evenodd" d="M14.4378 20.2529C14.7677 20.2529 14.9399 20.4824 15.0116 20.7836H13.8496C13.864 20.6402 13.95 20.4967 14.0361 20.4107C14.1365 20.3103 14.2943 20.2529 14.4378 20.2529ZM13.3188 20.9414C13.3188 21.5296 13.5627 21.9313 14.0218 22.1034C14.2369 22.1895 14.5382 22.2182 14.7964 22.1608C14.9685 22.1178 15.2985 22.003 15.3989 21.8595C15.3846 21.7878 15.2268 21.5726 15.1837 21.5009C15.0977 21.5296 14.5382 21.96 14.0505 21.587C13.8927 21.4579 13.8783 21.2714 13.8353 21.1997H15.3415C15.5424 21.1997 15.5137 21.2427 15.5137 20.9271C15.5137 20.0234 14.6386 19.593 13.9787 19.8942C13.5914 20.0807 13.3188 20.4394 13.3188 20.9414Z" fill="#838FC0"/>
<path fill-rule="evenodd" clip-rule="evenodd" d="M8.91517 20.5252C8.91517 20.8695 9.15904 21.0703 9.46029 21.1564C9.73285 21.2281 10.321 21.2281 10.321 21.4577C10.321 21.845 9.51767 21.7589 9.20208 21.5868C9.15904 21.5581 9.11601 21.515 9.05862 21.5007C9.02993 21.5724 8.9869 21.6442 8.94386 21.7015C8.90083 21.7589 8.84345 21.845 8.8291 21.9024C9.25946 22.1319 9.41725 22.218 10.0341 22.1749C10.3927 22.1462 10.8374 21.9024 10.8374 21.472C10.8374 21.2425 10.8231 21.1708 10.6653 21.013C10.4501 20.7978 10.1058 20.7834 9.81892 20.7261C9.60374 20.6974 9.44594 20.683 9.44594 20.4965C9.44594 20.1953 10.0054 20.2383 10.2493 20.3101C10.321 20.3387 10.3497 20.3531 10.4071 20.3674C10.4645 20.3961 10.5362 20.4248 10.5792 20.4392C10.6509 20.3101 10.7227 20.1809 10.78 20.0518C10.7657 20.0231 10.737 20.0088 10.7083 19.9945C10.6796 19.9801 10.6366 19.9658 10.6079 19.9514C10.0915 19.7076 8.91517 19.7076 8.91517 20.5252Z" fill="#838FC0"/>
<path fill-rule="evenodd" clip-rule="evenodd" d="M11.6273 19.8656H11.1682V20.3246H11.6273V21.4579C11.6273 22.5338 13.0187 22.1321 13.0187 22.003C13.0187 21.9026 12.904 21.7161 12.904 21.587C12.8466 21.6013 12.8323 21.6013 12.7892 21.6157C12.5167 21.7591 12.1293 21.7878 12.1293 21.3575V20.3246H12.9327V19.8656H12.1293V19.177H11.6273V19.8656Z" fill="#838FC0"/>
<path fill-rule="evenodd" clip-rule="evenodd" d="M17.5947 20.927C17.5947 21.257 17.6234 21.4435 17.8099 21.7017C18.0825 22.1177 18.5415 22.2038 19.0149 22.1751C19.2588 22.1607 19.4596 22.0173 19.6174 21.9168C19.5457 21.7734 19.4596 21.6443 19.3735 21.5008C18.7137 21.9599 18.1112 21.6013 18.1112 21.0131C18.1112 20.6114 18.3694 20.2815 18.728 20.2815C18.9432 20.2815 19.0723 20.2958 19.2588 20.4106C19.3018 20.4393 19.3305 20.468 19.3735 20.4823C19.4596 20.3532 19.5313 20.2098 19.6174 20.0807C19.3448 19.8942 19.2444 19.8081 18.7997 19.8081C18.1112 19.8081 17.5947 20.2958 17.5947 20.927Z" fill="#838FC0"/>
<path fill-rule="evenodd" clip-rule="evenodd" d="M23.3188 20.1235V19.8653H22.8311V22.1175H23.3188V20.9269C23.3188 20.4822 23.4622 20.2813 23.8352 20.2813C23.9643 20.2813 24.0217 20.3244 24.1078 20.3387C24.1365 20.2813 24.2656 19.9227 24.2656 19.8653C24.0647 19.8366 23.8783 19.7219 23.5483 19.894C23.4766 19.9371 23.3762 20.0518 23.3188 20.1235Z" fill="#838FC0"/>
<path fill-rule="evenodd" clip-rule="evenodd" d="M16.5177 20.1235V19.8653H16.0156V22.1175H16.5177V20.9412C16.5177 20.5252 16.6181 20.2813 17.0341 20.2813C17.1489 20.2813 17.2063 20.3243 17.3067 20.3387L17.4358 19.9514C17.4645 19.8509 17.4645 19.8653 17.3497 19.8366C17.1202 19.7936 16.862 19.7936 16.6755 19.937L16.6181 19.9944C16.5751 20.0374 16.5464 20.0805 16.5177 20.1235Z" fill="#838FC0"/>
<path fill-rule="evenodd" clip-rule="evenodd" d="M27.4346 14.6293H27.5063V14.4284C27.5206 14.4428 27.5206 14.4428 27.535 14.4715C27.5924 14.5719 27.5493 14.6006 27.6784 14.6006C27.6928 14.5432 27.7071 14.4858 27.7502 14.4428V14.6293H27.8219V14.2993H27.7071C27.6928 14.3854 27.6641 14.4284 27.6497 14.5001C27.5206 14.3997 27.6497 14.2993 27.4346 14.2993V14.6293Z" fill="#838FC0"/>
<path fill-rule="evenodd" clip-rule="evenodd" d="M27.393 22.0313C27.393 21.8018 27.7086 21.7731 27.7086 22.0313C27.7086 22.2322 27.393 22.2322 27.393 22.0313ZM27.3213 22.0026C27.3213 22.3182 27.7803 22.3469 27.7803 21.9883C27.7803 21.7301 27.3213 21.7301 27.3213 22.0026Z" fill="#838FC0"/>
<path fill-rule="evenodd" clip-rule="evenodd" d="M27.0903 14.3568H27.2048V14.6286H27.2906V14.3568H27.3907V14.2996H27.0903V14.3568Z" fill="#838FC0"/>
<path fill-rule="evenodd" clip-rule="evenodd" d="M27.5205 21.9453C27.592 21.9596 27.5777 21.9453 27.592 22.0025H27.5205V21.9453ZM27.4775 22.1169H27.5205V22.0597C27.6063 22.1169 27.5348 22.1169 27.6492 22.1169C27.5777 21.9882 27.6349 22.074 27.6635 21.9739C27.6063 21.9023 27.5777 21.9023 27.4775 21.9023V22.1169Z" fill="#838FC0"/>
</svg>
