<svg width="56" height="36" viewBox="0 0 56 36" fill="none" xmlns="http://www.w3.org/2000/svg">
<path fill-rule="evenodd" clip-rule="evenodd" d="M5.07318 29.185C5.20135 27.9398 5.4577 25.8158 6.59297 25.2848C8.03953 24.6439 8.47898 26.6214 7.39865 28.5075C7.17892 28.9103 6.90426 29.2216 6.50142 29.4047C5.87885 29.716 5.4577 29.3864 5.07318 29.185ZM5.65912 23.9847L5.75068 22.8494H3.0773C3.00406 24.3326 2.36318 27.4454 2.07021 29.0202C1.83217 30.3385 1.0448 34.0739 0.934937 35.0627H3.88297C4.02946 34.8247 4.52385 31.9499 4.61541 31.4555C4.99993 31.5471 5.20135 31.7119 5.73236 31.7485C6.94088 31.8766 8.11277 31.5287 9.01 30.8146C11.6651 28.6906 11.7566 24.2044 9.70581 23.1058C8.44236 22.41 6.94088 22.7212 5.89716 23.7833L5.65912 23.9847Z" fill="white"/>
<path fill-rule="evenodd" clip-rule="evenodd" d="M17.5611 25.0644C17.3963 25.9982 17.2498 27.1518 16.9385 27.9941C16.4441 29.3308 15.4737 29.7336 14.9793 29.0561C14.1187 27.8659 15.5652 24.4601 17.5611 25.0644ZM17.0484 30.0998L16.9751 31.583H19.7218C19.8133 28.9463 20.0697 27.6828 20.5458 25.2475C20.6739 24.6249 20.8753 23.8192 20.9303 23.215C19.0992 22.7023 17.1583 22.5009 15.3272 23.1417C11.372 24.5517 10.6396 29.7153 12.727 31.29C13.7524 32.0591 15.2356 31.9126 16.3343 30.9604C16.6822 30.6492 16.8653 30.2463 17.0484 30.0998Z" fill="white"/>
<path fill-rule="evenodd" clip-rule="evenodd" d="M42.3545 20.0108L55.1354 19.9925L55.9594 15.6162L43.1052 15.6345C43.0503 17.1543 42.794 18.6192 42.3545 20.0108Z" fill="white"/>
<path fill-rule="evenodd" clip-rule="evenodd" d="M40.8151 26.2733C40.8884 25.7423 41.2729 25.3394 41.6025 25.138C42.5913 24.5521 43.6167 25.1563 43.1406 25.8155C42.7927 26.2916 41.3644 26.2733 40.8151 26.2733ZM44.9717 31.1073L44.8435 28.9467C44.1111 29.1114 43.8547 29.441 42.4997 29.441C41.5842 29.4594 40.6869 29.2579 40.5222 28.4523C41.9504 28.434 43.2871 28.4156 44.4773 27.9029C45.5027 27.4452 46.3084 26.493 45.9971 24.9C45.5027 22.3731 41.8405 22.2449 39.9179 23.6182C37.8671 25.0831 37.0614 28.086 38.1601 30.1002C39.3136 32.2426 42.5546 32.0595 44.9717 31.1073Z" fill="white"/>
<path fill-rule="evenodd" clip-rule="evenodd" d="M29.3711 22.9772C29.188 23.4716 28.9866 24.7168 28.8767 25.3027C28.5105 27.0605 28.8035 28.5254 30.8909 28.7818C31.9529 28.9282 32.6121 28.7451 33.4361 28.4522L32.7952 31.5833H35.7982C35.8897 31.1438 37.4462 23.3068 37.4278 22.9223H34.4798C34.2418 23.7097 33.9854 25.8337 33.8572 26.2182C33.7474 26.5478 33.2896 26.6211 32.9417 26.6577C30.9092 26.8408 32.3374 24.1125 32.3374 22.9223C31.7881 22.9223 29.7007 22.8307 29.3711 22.9772Z" fill="white"/>
<path fill-rule="evenodd" clip-rule="evenodd" d="M27.3022 31.3456L27.3205 29.0933C26.5881 29.2764 25.7092 29.6244 24.9584 29.1849C23.7499 28.5257 24.1344 26.1636 25.5444 25.4495C26.4599 24.9734 26.936 25.1016 27.9064 25.2664L28.6023 23.0325C28.1628 22.7212 26.6979 22.7212 26.0571 22.7944C23.8231 23.0325 21.8456 24.4058 21.2413 26.7496C20.5272 29.5328 21.9188 31.6569 24.757 31.785C25.8007 31.8216 26.4599 31.6202 27.3022 31.3456Z" fill="white"/>
<path fill-rule="evenodd" clip-rule="evenodd" d="M46.291 25.0464H48.5066L47.2798 31.5834H50.3011L51.5279 25.0647L53.9999 25.0464C54.1647 25.0098 54.2379 24.314 54.2928 24.021C54.3661 23.6731 54.4943 23.197 54.5309 22.8491H46.7305L46.291 25.0464Z" fill="white"/>
<path fill-rule="evenodd" clip-rule="evenodd" d="M10.2744 15.5244H4.25019L3.51776 20.0289L11.3182 20.0106H11.0252C10.5674 18.5823 10.3111 17.0808 10.2744 15.5244Z" fill="white"/>
<path fill-rule="evenodd" clip-rule="evenodd" d="M23.1829 6.35083L23.5491 8.3284C24.0618 8.18191 24.6112 8.07205 25.1788 8.01712L24.8858 6.03955C24.2999 6.09448 23.7322 6.20435 23.1829 6.35083Z" fill="white"/>
<path fill-rule="evenodd" clip-rule="evenodd" d="M22.3758 8.74905L21.5885 6.95459C21.1673 7.17432 20.7462 7.41236 20.3433 7.68702L21.1124 9.40824C21.5152 9.1702 21.9364 8.93216 22.3758 8.74905Z" fill="white"/>
<path fill-rule="evenodd" clip-rule="evenodd" d="M18.5143 11.8806L17.2875 11.0566C17.141 11.2947 17.0128 11.5327 16.903 11.7891L18.1298 12.5032C18.2396 12.2835 18.3861 12.082 18.5143 11.8806Z" fill="white"/>
<path fill-rule="evenodd" clip-rule="evenodd" d="M17.4327 13.9871L16.2059 13.6392C16.1693 13.804 16.1326 13.9871 16.0777 14.1702L17.2496 14.5364C17.3045 14.3533 17.3595 14.1702 17.4327 13.9871Z" fill="white"/>
<path fill-rule="evenodd" clip-rule="evenodd" d="M18.2741 9.62819L19.3728 10.8367C19.6108 10.5987 19.8488 10.3606 20.1235 10.1409L19.0798 8.73096C18.7868 9.00562 18.5305 9.29859 18.2741 9.62819Z" fill="white"/>
<path fill-rule="evenodd" clip-rule="evenodd" d="M12.4516 20.0105H15.2165C14.4292 18.271 14.063 16.4949 14.0263 14.7919C14.1179 7.52256 20.838 2.17581 27.7594 3.1829L27.3383 6.07601L27.0453 7.99864L25.2325 20.0105H40.9249C41.4559 18.4724 41.7489 16.8061 41.7489 15.0849C41.7489 6.75351 35.0105 0.0151367 26.6791 0.0151367C18.366 0.0151367 11.6276 6.75351 11.6276 15.0849C11.6276 16.8061 11.9023 18.4724 12.4516 20.0105ZM30.4152 6.46028L31.2758 3.71366C30.4885 3.36575 29.6645 3.07278 28.8222 2.88967L28.2546 5.91095C29.0053 6.02082 29.7377 6.20392 30.4152 6.46028ZM34.4071 5.63635L33.2169 7.87027C32.631 7.43081 32.045 7.04628 31.3858 6.735L32.4845 4.1898C33.1803 4.61094 33.8212 5.10534 34.4071 5.63635ZM34.9204 9.5184L36.3669 7.88873C36.0007 7.35772 35.7077 6.9732 35.2866 6.49711L33.7118 8.40144C34.1879 8.73103 34.5541 9.09725 34.9204 9.5184ZM37.7215 10.4339L36.2566 11.6241C36.0369 11.203 35.8538 10.8551 35.5791 10.4705L37.0806 9.06059C37.3187 9.50005 37.5384 9.95782 37.7215 10.4339ZM37.0266 13.73L38.3632 12.8328C38.3083 12.43 38.2351 12.0088 38.1252 11.606L36.6237 12.5765C36.7702 12.9427 36.9167 13.3272 37.0266 13.73ZM38.5812 14.9929L37.3544 15.6521C37.336 15.3042 37.2994 14.938 37.2445 14.5718L38.5629 13.9675C38.5995 14.3704 38.6178 14.6084 38.5812 14.9929ZM28.3635 11.6421L28.6931 10.1955C28.3086 10.0307 27.8875 9.90255 27.4663 9.811L27.21 11.2942C27.6128 11.3674 27.9973 11.4956 28.3635 11.6421ZM30.4709 11.2945L29.8484 12.5213C29.5188 12.2649 29.1892 12.0452 28.823 11.8621L29.4455 10.562C29.8667 10.8001 30.1047 10.9832 30.4709 11.2945ZM30.7261 13.4004L31.5501 12.5032C31.367 12.2285 31.1839 11.9905 30.9458 11.7525L30.1218 12.7779C30.3416 12.9793 30.543 13.1807 30.7261 13.4004ZM32.2634 13.913L31.5493 14.4807C31.4212 14.2609 31.293 14.0412 31.1465 13.8398L31.9522 13.1623C32.0803 13.4003 32.1719 13.6567 32.2634 13.913L32.2634 13.913ZM31.9162 15.5978L32.612 15.1767C32.5937 14.957 32.5388 14.7189 32.4839 14.4992L31.7698 15.0119C31.843 15.195 31.8979 15.4147 31.9162 15.5978ZM32.6682 16.4399L32.1006 16.678C32.0932 16.6046 32.0918 16.5283 32.0903 16.4514C32.0881 16.3364 32.0859 16.2201 32.0639 16.1104L32.6865 15.8174V16.0554C32.6865 16.1653 32.6865 16.3118 32.6682 16.4399Z" fill="white"/>
<path fill-rule="evenodd" clip-rule="evenodd" d="M23.5491 8.3284L23.1829 6.35083C23.7322 6.20435 24.2999 6.09448 24.8858 6.03955L25.1788 8.01712C24.6112 8.07205 24.0618 8.18191 23.5491 8.3284Z" fill="white"/>
<path fill-rule="evenodd" clip-rule="evenodd" d="M20.3433 7.68702C20.7462 7.41236 21.1673 7.17432 21.5885 6.95459L22.3758 8.74905C21.9364 8.93216 21.5152 9.1702 21.1124 9.40824L20.3433 7.68702Z" fill="white"/>
<path fill-rule="evenodd" clip-rule="evenodd" d="M18.2741 9.62819C18.5305 9.29859 18.7868 9.00562 19.0798 8.73096L20.1235 10.1409C19.8488 10.3606 19.6108 10.5987 19.3728 10.8367L18.2741 9.62819Z" fill="white"/>
<path fill-rule="evenodd" clip-rule="evenodd" d="M17.2875 11.0566L18.5143 11.8806C18.3861 12.082 18.2396 12.2835 18.1298 12.5032L16.903 11.7891C17.0128 11.5327 17.141 11.2947 17.2875 11.0566Z" fill="white"/>
<path fill-rule="evenodd" clip-rule="evenodd" d="M16.2059 13.6392L17.4327 13.9871C17.3595 14.1702 17.3045 14.3533 17.2496 14.5364L16.0777 14.1702L16.2059 13.6392Z" fill="white"/>
</svg>
