<svg width="44" height="28" viewBox="0 0 44 28" fill="none" xmlns="http://www.w3.org/2000/svg">
<path fill-rule="evenodd" clip-rule="evenodd" d="M3.91975 23.2815C4.02016 22.306 4.221 20.642 5.1104 20.226C6.24367 19.7239 6.58795 21.2732 5.74159 22.7507C5.56944 23.0663 5.35427 23.3102 5.03867 23.4536C4.55093 23.6975 4.221 23.4393 3.91975 23.2815ZM4.37879 19.2075L4.45052 18.3181H2.35612C2.29874 19.48 1.79666 21.9187 1.56714 23.1524C1.38065 24.1852 0.763805 27.1117 0.677734 27.8863H2.98731C3.10207 27.6998 3.48939 25.4476 3.56112 25.0603C3.86237 25.132 4.02016 25.2611 4.43617 25.2898C5.38296 25.3902 6.30105 25.1177 7.00396 24.5582C9.08401 22.8942 9.15574 19.3796 7.54908 18.5189C6.55926 17.9738 5.38296 18.2176 4.56528 19.0497L4.37879 19.2075Z" fill="#838FC0"/>
<path fill-rule="evenodd" clip-rule="evenodd" d="M13.7031 20.0536C13.574 20.7852 13.4592 21.689 13.2154 22.3488C12.828 23.396 12.0678 23.7116 11.6804 23.1809C11.0062 22.2484 12.1395 19.5802 13.7031 20.0536ZM13.3014 23.9985L13.2441 25.1605H15.3958C15.4676 23.0948 15.6684 22.105 16.0414 20.1971C16.1418 19.7093 16.2996 19.0781 16.3426 18.6047C14.9081 18.2031 13.3875 18.0453 11.953 18.5474C8.85443 19.6519 8.28063 23.6973 9.91598 24.931C10.7193 25.5335 11.8813 25.4187 12.742 24.6727C13.0145 24.4289 13.158 24.1133 13.3014 23.9985Z" fill="#838FC0"/>
<path fill-rule="evenodd" clip-rule="evenodd" d="M33.1279 16.0945L43.1409 16.0801L43.7864 12.6516L33.7161 12.666C33.673 13.8566 33.4722 15.0042 33.1279 16.0945Z" fill="#838FC0"/>
<path fill-rule="evenodd" clip-rule="evenodd" d="M31.922 21.0005C31.9793 20.5845 32.2806 20.2689 32.5388 20.1111C33.3134 19.6521 34.1168 20.1255 33.7438 20.6419C33.4712 21.0149 32.3523 21.0005 31.922 21.0005ZM35.1783 24.7877L35.0779 23.0949C34.5041 23.224 34.3033 23.4823 33.2417 23.4823C32.5245 23.4966 31.8215 23.3388 31.6924 22.7076C32.8114 22.6933 33.8586 22.6789 34.791 22.2773C35.5943 21.9186 36.2255 21.1727 35.9816 19.9246C35.5943 17.945 32.7253 17.8446 31.219 18.9205C29.6124 20.0681 28.9812 22.4207 29.8419 23.9987C30.7457 25.6771 33.2848 25.5336 35.1783 24.7877Z" fill="#838FC0"/>
<path fill-rule="evenodd" clip-rule="evenodd" d="M22.9559 18.4184C22.8124 18.8058 22.6546 19.7812 22.5686 20.2403C22.2817 21.6174 22.5112 22.765 24.1465 22.9659C24.9786 23.0806 25.495 22.9372 26.1405 22.7077L25.6384 25.1607H27.9911C28.0628 24.8164 29.2821 18.6767 29.2678 18.3754H26.9582C26.7717 18.9923 26.5709 20.6563 26.4705 20.9575C26.3844 21.2158 26.0258 21.2731 25.7532 21.3018C24.1609 21.4453 25.2798 19.3078 25.2798 18.3754C24.8495 18.3754 23.2141 18.3037 22.9559 18.4184Z" fill="#838FC0"/>
<path fill-rule="evenodd" clip-rule="evenodd" d="M21.3348 24.9742L21.3492 23.2098C20.7754 23.3532 20.0868 23.6258 19.4986 23.2815C18.5519 22.7651 18.8531 20.9145 19.9577 20.3551C20.675 19.9821 21.0479 20.0825 21.8082 20.2116L22.3533 18.4615C22.0091 18.2176 20.8614 18.2176 20.3594 18.275C18.6092 18.4615 17.06 19.5374 16.5866 21.3736C16.0271 23.554 17.1173 25.2181 19.3408 25.3185C20.1585 25.3472 20.675 25.1894 21.3348 24.9742Z" fill="#838FC0"/>
<path fill-rule="evenodd" clip-rule="evenodd" d="M36.2119 20.0393H37.9477L36.9866 25.1605H39.3535L40.3146 20.0536L42.2512 20.0393C42.3803 20.0106 42.4377 19.4655 42.4808 19.236C42.5381 18.9634 42.6386 18.5904 42.6672 18.3179H36.5562L36.2119 20.0393Z" fill="#838FC0"/>
<path fill-rule="evenodd" clip-rule="evenodd" d="M7.99552 12.5798H3.27596L2.70215 16.1088L8.8132 16.0944H8.58367C8.22505 14.9755 8.02421 13.7992 7.99552 12.5798Z" fill="#838FC0"/>
<path fill-rule="evenodd" clip-rule="evenodd" d="M18.1084 5.39279L18.3953 6.94207C18.797 6.82731 19.2273 6.74124 19.672 6.69821L19.4425 5.14893C18.9835 5.19196 18.5388 5.27803 18.1084 5.39279Z" fill="#838FC0"/>
<path fill-rule="evenodd" clip-rule="evenodd" d="M17.4761 7.27204L16.8593 5.86621C16.5293 6.03835 16.1994 6.22484 15.8838 6.44002L16.4863 7.78847C16.8019 7.60198 17.1318 7.41549 17.4761 7.27204Z" fill="#838FC0"/>
<path fill-rule="evenodd" clip-rule="evenodd" d="M14.4509 9.72512L13.4897 9.07959C13.375 9.26608 13.2745 9.45256 13.1885 9.6534L14.1496 10.2129C14.2357 10.0407 14.3504 9.88292 14.4509 9.72512Z" fill="#838FC0"/>
<path fill-rule="evenodd" clip-rule="evenodd" d="M13.6028 11.3751L12.6417 11.1025C12.613 11.2316 12.5843 11.3751 12.5413 11.5185L13.4594 11.8055C13.5024 11.662 13.5454 11.5185 13.6028 11.3751Z" fill="#838FC0"/>
<path fill-rule="evenodd" clip-rule="evenodd" d="M14.2627 7.96073L15.1234 8.90751C15.3099 8.72102 15.4964 8.53453 15.7116 8.36239L14.8939 7.25781C14.6644 7.47299 14.4635 7.70251 14.2627 7.96073Z" fill="#838FC0"/>
<path fill-rule="evenodd" clip-rule="evenodd" d="M9.7012 16.0944H11.8673C11.2505 14.7316 10.9636 13.3401 10.9349 12.006C11.0066 6.31097 16.2713 2.12218 21.6938 2.91116L21.3638 5.1777L21.1343 6.68395L19.7141 16.0944H32.008C32.424 14.8894 32.6535 13.584 32.6535 12.2355C32.6535 5.70847 27.3745 0.429443 20.8474 0.429443C14.3347 0.429443 9.05566 5.70847 9.05566 12.2355C9.05566 13.584 9.27084 14.8894 9.7012 16.0944ZM23.7738 5.47894L24.4481 3.32716C23.8312 3.0546 23.1857 2.82508 22.5258 2.68163L22.0811 5.04858C22.6693 5.13465 23.2431 5.2781 23.7738 5.47894ZM26.9011 4.83342L25.9687 6.58353C25.5096 6.23925 25.0506 5.938 24.5341 5.69413L25.3948 3.70015C25.94 4.03009 26.442 4.41741 26.9011 4.83342ZM27.3042 7.87441L28.4374 6.59769C28.1505 6.18168 27.921 5.88043 27.5911 5.50745L26.3574 6.99935C26.7304 7.25757 27.0173 7.54447 27.3042 7.87441ZM29.4987 8.59164L28.3511 9.52408C28.1789 9.19414 28.0355 8.92158 27.8203 8.62033L28.9966 7.51575C29.1831 7.86004 29.3552 8.21867 29.4987 8.59164ZM28.9535 11.1741L30.0007 10.4711C29.9577 10.1556 29.9003 9.82561 29.8142 9.51002L28.6379 10.2703C28.7527 10.5572 28.8675 10.8585 28.9535 11.1741ZM30.1722 12.1636L29.211 12.68C29.1967 12.4074 29.168 12.1205 29.125 11.8336L30.1578 11.3602C30.1865 11.6758 30.2009 11.8623 30.1722 12.1636ZM22.1674 9.53841L22.4256 8.40514C22.1244 8.27603 21.7944 8.17561 21.4645 8.10389L21.2636 9.26585C21.5792 9.32323 21.8805 9.42365 22.1674 9.53841ZM23.8184 9.26607L23.3306 10.2272C23.0724 10.0264 22.8142 9.85423 22.5273 9.71077L23.0151 8.69227C23.345 8.87875 23.5315 9.02221 23.8184 9.26607ZM24.0177 10.9158L24.6632 10.2129C24.5198 9.99768 24.3763 9.8112 24.1898 9.62471L23.5443 10.428C23.7165 10.5858 23.8743 10.7436 24.0177 10.9158ZM25.2227 11.3173L24.6632 11.762C24.5628 11.5898 24.4624 11.4177 24.3476 11.2599L24.9788 10.7291C25.0792 10.9156 25.151 11.1165 25.2227 11.3173ZM24.9501 12.6372L25.4953 12.3073C25.4809 12.1351 25.4379 11.9486 25.3948 11.7765L24.8354 12.1782C24.8928 12.3216 24.9358 12.4937 24.9501 12.6372ZM25.5398 13.2969L25.0951 13.4834C25.0893 13.4259 25.0882 13.3662 25.087 13.3059C25.0853 13.2158 25.0836 13.1247 25.0664 13.0387L25.5541 12.8092V12.9957C25.5541 13.0818 25.5541 13.1965 25.5398 13.2969Z" fill="#838FC0"/>
<path fill-rule="evenodd" clip-rule="evenodd" d="M18.3953 6.94207L18.1084 5.39279C18.5388 5.27803 18.9835 5.19196 19.4425 5.14893L19.672 6.69821C19.2273 6.74124 18.797 6.82731 18.3953 6.94207Z" fill="#838FC0"/>
<path fill-rule="evenodd" clip-rule="evenodd" d="M15.8838 6.44002C16.1994 6.22484 16.5293 6.03835 16.8593 5.86621L17.4761 7.27204C17.1318 7.41549 16.8019 7.60198 16.4863 7.78847L15.8838 6.44002Z" fill="#838FC0"/>
<path fill-rule="evenodd" clip-rule="evenodd" d="M14.2627 7.96073C14.4635 7.70251 14.6644 7.47299 14.8939 7.25781L15.7116 8.36239C15.4964 8.53453 15.3099 8.72102 15.1234 8.90751L14.2627 7.96073Z" fill="#838FC0"/>
<path fill-rule="evenodd" clip-rule="evenodd" d="M13.4897 9.07959L14.4509 9.72512C14.3504 9.88292 14.2357 10.0407 14.1496 10.2129L13.1885 9.6534C13.2745 9.45256 13.375 9.26608 13.4897 9.07959Z" fill="#838FC0"/>
<path fill-rule="evenodd" clip-rule="evenodd" d="M12.6417 11.1025L13.6028 11.3751C13.5454 11.5185 13.5024 11.662 13.4594 11.8055L12.5413 11.5185L12.6417 11.1025Z" fill="#838FC0"/>
</svg>
