<svg width="59" height="21" viewBox="0 0 59 21" fill="none" xmlns="http://www.w3.org/2000/svg">
<path fill-rule="evenodd" clip-rule="evenodd" d="M7.88146 3.05838L7.89977 2.98514L7.88146 3.05838ZM1.38112 9.39392H2.97416C3.12065 9.39392 3.08403 9.21081 3.10234 9.11926C3.19389 8.55162 3.32207 8.02061 3.39531 7.43466C3.41362 7.28818 3.45024 7.19662 3.46855 6.9952C3.46855 6.90365 3.50518 6.77547 3.5418 6.61068L3.74322 5.40216C3.77984 5.23737 3.77984 5.14581 3.81646 4.98102C3.90801 4.59649 4.01788 3.75419 4.07281 3.31473C4.10943 3.11332 4.12774 3.095 4.12774 2.85696L4.20099 5.75007C4.27423 6.59237 4.31085 8.55162 4.31085 9.39392H5.62923C5.64754 9.1925 6.39828 7.21493 6.50815 6.90365L6.72788 6.26277C6.7645 6.1346 6.81943 6.04304 6.85605 5.89656C6.89267 5.78669 6.91098 5.78669 6.94761 5.69514L7.42369 4.32183C7.49693 4.08379 7.75328 3.27811 7.88146 3.13163C7.88146 3.53446 7.64342 4.59649 7.58848 5.05426L7.35044 6.61068C7.25889 7.01351 7.22227 7.45297 7.14902 7.85581L6.92929 9.39392H8.797C8.83362 9.24743 8.88855 9.00939 8.90686 8.84459L9.52943 5.07257C9.52943 4.99933 9.56605 4.88946 9.58436 4.83453L9.89564 2.85696C9.95058 2.32595 10.1154 1.70338 10.1886 1.15406L10.2619 0.623047H7.31382C7.2772 0.842776 7.16734 1.06251 7.09409 1.28224L6.65463 2.61892C6.56308 2.85696 6.50815 3.04007 6.4349 3.27811C6.2518 3.82744 6.05038 4.32183 5.88558 4.88946C5.84896 5.03595 5.81234 5.09088 5.77571 5.21906L5.61092 5.73176C5.59261 5.76838 5.59261 5.76838 5.5743 5.805L5.50105 1.94142C5.50105 1.44703 5.46443 1.08082 5.46443 0.623047H2.73612C2.73612 0.787844 2.66288 1.00757 2.64457 1.17237C2.60795 1.30055 2.62626 1.28224 2.60795 1.41041C2.58964 1.52028 2.57133 1.57521 2.55301 1.68507L2.46146 2.25271C2.44315 2.49075 2.40653 2.61892 2.36991 2.82034L2.24173 3.62602C2.22342 3.73588 2.20511 3.79081 2.1868 3.90068L1.87552 5.805C1.71072 6.73885 1.58254 7.6727 1.39943 8.60655C1.38112 8.71642 1.38112 8.78966 1.36281 8.89953C1.3445 9.06432 1.17971 9.39392 1.38112 9.39392Z" fill="white"/>
<path fill-rule="evenodd" clip-rule="evenodd" d="M50.4559 6.68441C50.4559 5.91536 50.3827 5.91536 50.5658 5.23786C50.6939 4.74346 51.0235 4.15752 51.5362 3.97441C51.7377 3.91948 51.8109 3.93779 51.9391 3.93779C52.4884 3.91948 52.6715 4.39556 52.7814 4.81671C52.9279 5.29279 52.7631 6.26326 52.5983 6.64779C52.4884 6.90414 52.3785 7.12387 52.1771 7.30698C52.1405 7.3436 52.1222 7.36191 52.0856 7.39853L52.0306 7.43515C51.5729 7.78306 50.9137 7.78306 50.6207 7.25204C50.5658 7.12387 50.4559 6.83089 50.4559 6.68441ZM53.3124 3.04056C53.1659 3.00394 53.2208 2.98563 53.1293 2.87576C53.0743 2.82083 53.0194 2.74759 52.9645 2.69266C52.8729 2.61941 52.6715 2.47293 52.58 2.39968C51.994 2.07009 51.3348 2.01516 50.6939 2.28982C50.0714 2.56448 50.0348 2.69266 49.5953 3.13211C49.4122 3.29691 49.4671 3.26029 49.3389 3.4434L49.2657 3.53495C49.2291 3.6082 49.2108 3.62651 49.1741 3.69975C48.7896 4.35894 48.6798 4.76178 48.5333 5.4759C48.4417 5.89704 48.46 5.89704 48.46 6.28157V6.64779C48.4783 6.90414 48.4051 6.97738 48.5333 7.43515C48.6981 8.00279 48.5882 7.78306 48.8445 8.33238C48.9544 8.55211 49.0277 8.64366 49.2291 8.84508L49.8333 9.30285C49.9249 9.35779 49.9798 9.3761 50.108 9.39441C50.7122 9.52258 51.0785 9.57751 51.701 9.26623C52.2137 9.00988 52.2137 8.86339 52.4152 8.71691C52.3968 8.93664 52.3053 9.19299 52.3602 9.39441C52.8729 9.39441 53.3856 9.39441 53.8983 9.39441C54.3012 9.41272 54.1181 9.33947 54.2462 8.64366L54.9054 4.76178C54.9237 4.59698 54.9237 4.54205 54.9604 4.39556C54.9787 4.32232 54.997 4.19414 55.0153 4.08428L55.235 2.61941C55.2716 2.49124 55.2899 2.41799 55.3083 2.30813L55.4181 1.63063C55.4364 1.48414 55.4364 1.44752 55.4731 1.30103C55.4914 1.13624 55.5646 0.806643 55.5646 0.623535H53.6786C53.6786 0.824954 53.3124 2.69266 53.3124 3.04056Z" fill="white"/>
<path fill-rule="evenodd" clip-rule="evenodd" d="M48.0545 16.0776C48.0545 16.3706 48.0911 16.9016 48.0179 17.158C47.9996 17.2861 47.9813 17.3227 47.9813 17.4143C47.9629 17.5791 47.7981 17.9636 47.7066 18.1467C47.4869 18.5313 47.1023 18.8792 46.6263 18.8059C45.6924 18.6961 45.8572 17.4509 45.8938 16.8284C45.8938 16.7551 45.9121 16.6636 45.9304 16.572C46.022 16.279 46.022 16.0959 46.2051 15.7663C46.4248 15.4001 46.6079 15.1987 47.0108 15.0888C47.4319 14.979 47.8714 15.2902 47.9813 15.7114C48.0179 15.8396 48.0545 15.9494 48.0545 16.0776ZM48.494 14.1733C48.1644 13.9353 47.9996 13.4592 47.2671 13.331C46.022 13.1113 45.3262 13.8254 44.7036 14.7959L44.0994 16.4988C44.0078 16.9016 44.0078 17.5425 44.0078 17.9453C44.0078 18.3298 44.1543 19.0623 44.3557 19.4285C44.6121 19.8863 44.7036 20.0694 45.1431 20.344L45.1797 20.3807C45.4544 20.5638 45.6924 20.6004 45.9671 20.6187H46.2784C46.3882 20.6004 46.3699 20.637 46.5164 20.6004C47.3038 20.4173 47.4319 20.0877 47.6883 19.9229C47.6883 20.1609 47.615 20.3257 47.615 20.5271H49.2264C49.3546 20.5271 49.3729 20.2525 49.3912 20.0511C49.4095 19.813 49.4278 19.7032 49.4644 19.4834C49.5011 19.3736 49.4827 19.3186 49.5011 19.2088L49.6292 18.3665C49.6842 18.1467 49.6658 18.0735 49.7025 17.8538L49.849 17.0298C49.849 16.9748 49.849 16.9748 49.8673 16.8833L50.38 13.4225C50.3983 13.3127 50.3983 13.2761 50.4166 13.1662C50.4715 12.9098 50.5814 11.9211 50.6546 11.7746C50.4532 11.738 49.4095 11.7746 49.0433 11.7746C48.8052 11.7563 48.8968 11.7196 48.7686 12.4155C48.732 12.6169 48.7137 12.8366 48.6771 13.0197C48.6404 13.2211 48.6221 13.4042 48.5855 13.6057C48.5855 13.7155 48.5672 14.0268 48.494 14.1733Z" fill="white"/>
<path fill-rule="evenodd" clip-rule="evenodd" d="M13.174 6.19009H13.3754C13.3754 6.81265 13.174 7.28874 12.8627 7.60002L12.5331 7.83806C12.5148 7.85637 12.4415 7.89299 12.4415 7.89299C12.3683 7.9113 12.295 7.92961 12.2401 7.92961C11.471 8.13103 11.2879 7.27042 11.471 6.86759C11.5077 6.79434 11.526 6.75772 11.5626 6.70279C11.8006 6.28164 12.4781 6.2084 12.8993 6.19009C13.1007 6.17178 13.0641 6.19009 13.174 6.19009ZM10.7386 2.45469C10.7386 2.78428 10.5006 3.77306 10.5006 4.08435C10.6288 4.08435 10.8119 4.0111 10.94 3.97448C11.3429 3.84631 13.6867 3.42516 13.6867 4.35901C13.6867 4.46887 13.6683 4.76185 13.5951 4.81678C13.5585 4.8534 13.3754 4.81678 13.3388 4.81678C12.826 4.76185 12.1669 4.79847 11.6725 4.92664C10.9767 5.09144 10.3724 5.42103 9.96956 6.02529C9.84139 6.2084 9.73152 6.46475 9.67659 6.68448C9.43855 7.3986 9.5301 8.49725 10.0977 9.02826C10.0977 9.02826 10.1161 9.02826 10.1161 9.04657C10.1344 9.04657 10.1527 9.06488 10.1527 9.06488L10.3175 9.22968C10.9767 9.70576 12.1852 9.54096 12.9176 9.00995C13.0458 8.90009 13.119 8.80853 13.2289 8.71698C13.174 9.5959 12.8993 9.39448 14.767 9.39448L15.4262 5.05482C15.536 4.39563 15.536 3.53502 15.1881 2.9857L14.8219 2.58286C14.3275 2.23496 13.9979 2.1434 13.412 2.10678C12.6613 2.05185 12.5148 2.08847 11.8006 2.19833C11.4344 2.27158 11.1048 2.38144 10.7386 2.45469Z" fill="white"/>
<path fill-rule="evenodd" clip-rule="evenodd" d="M40.8781 7.25184C40.8781 7.1786 40.8964 6.95887 40.9147 6.90393C41.1344 6.35461 41.7387 6.22643 42.2697 6.18981C42.6359 6.1715 42.4894 6.18981 42.8557 6.18981C42.819 6.51941 42.7824 6.77576 42.6725 7.06873C42.5993 7.28846 42.4528 7.47157 42.3063 7.61805C41.9218 7.98427 41.2992 8.11245 41.0063 7.70961C40.933 7.59974 40.8781 7.41664 40.8781 7.25184ZM39.9809 4.08407C40.933 3.86434 40.8781 3.77279 42.1049 3.77279C42.4894 3.77279 42.7824 3.80941 43.0021 4.01083C43.2402 4.23056 43.1486 4.79819 43.0021 4.83481C43.0021 4.83481 42.5627 4.79819 42.5077 4.79819C42.2514 4.76157 42.2331 4.79819 41.995 4.79819C41.2077 4.83481 40.7865 4.9813 40.1457 5.3292C39.9809 5.40245 39.7794 5.60387 39.6696 5.71373C39.5963 5.84191 39.5231 5.87853 39.4315 6.02501C39.34 6.15319 39.3034 6.26306 39.2484 6.40954C39.2118 6.5011 39.1935 6.51941 39.1569 6.61096C39.1203 6.72083 39.1203 6.70251 39.1019 6.79407C39.0104 7.30677 38.9555 7.94765 39.1752 8.44204C39.3217 8.77163 39.578 9.13785 39.9076 9.30265C40.6217 9.68717 41.7021 9.52238 42.3613 9.00967C42.4894 8.91812 42.581 8.82657 42.6725 8.7167C42.6725 9.2294 42.5993 9.3942 42.7458 9.3942H44.2473L44.3205 8.69839L44.3388 8.68008C44.3388 8.66177 44.3388 8.66177 44.3388 8.66177L44.5036 7.54481C44.5219 7.39832 44.5219 7.34339 44.5586 7.21522L44.8149 5.60387C44.9431 4.63339 45.1994 3.24177 44.2839 2.58259C43.6064 2.08819 42.8373 2.03326 42.0317 2.10651C41.3359 2.16144 41.3175 2.19806 40.6767 2.32623C40.6034 2.34455 40.5485 2.36286 40.4752 2.39948C40.0907 2.50934 40.2738 2.2713 40.109 3.13191L39.9809 4.08407Z" fill="white"/>
<path fill-rule="evenodd" clip-rule="evenodd" d="M1.85756 13.9904C1.85756 14.4115 1.83925 14.7777 1.98573 15.1989C2.04066 15.4003 2.11391 15.5468 2.22377 15.7116L2.33364 15.8397C2.35195 15.8581 2.35195 15.8581 2.37026 15.8947C2.4435 15.9679 2.49843 16.0045 2.55337 16.0778C2.71816 16.2426 2.91958 16.3524 3.10269 16.4623L3.70695 16.7919H3.72526L3.99992 16.9567C3.99992 16.975 4.01823 16.9933 4.03654 16.9933C4.03654 16.9933 4.05485 16.9933 4.05485 17.0116H4.07316L4.27458 17.2314C4.36613 17.3412 4.34782 17.3229 4.40276 17.4694C4.54924 17.8722 4.43938 18.3666 4.07316 18.5864C3.41397 18.9892 2.40688 18.8427 1.72938 18.5131C1.54627 18.4399 1.50965 18.3849 1.38148 18.2934C1.36316 18.5131 1.01526 19.7216 0.996949 19.9414C0.978638 20.0512 0.960327 20.1062 0.960327 20.2343C1.23499 20.2343 1.56458 20.4358 1.82093 20.4907C1.9308 20.509 1.96742 20.509 2.05897 20.5273L2.49843 20.6189C2.6083 20.6189 2.71816 20.6372 2.82803 20.6372H3.39566C3.78019 20.6189 4.14641 20.5456 4.58586 20.4174L4.67742 20.3625C5.33661 20.0512 5.86762 19.6301 6.12397 18.8976C6.38032 18.1835 6.45357 17.268 6.21553 16.5172C5.95917 15.7665 5.48309 15.4003 4.84222 15.0524L4.20134 14.6862C4.12809 14.6312 4.18303 14.6678 4.10978 14.6312L3.89005 14.4115C3.6337 14.0636 3.72526 13.441 4.16472 13.2396C4.27458 13.203 4.45769 13.1664 4.58586 13.1481L5.48309 13.1664C5.75776 13.2213 5.94086 13.2396 6.1789 13.3495L6.23384 13.3861C6.30708 13.4227 6.27046 13.4044 6.32539 13.441C6.41694 13.496 6.41694 13.496 6.52681 13.5143L6.89302 11.9395C6.91134 11.848 6.94796 11.8114 6.96627 11.7198C6.76485 11.5733 6.47188 11.4818 6.23384 11.4268C5.86762 11.3353 5.48309 11.2987 5.09857 11.2987C4.60418 11.2804 4.07316 11.3536 3.57877 11.5001H3.56046C3.23087 11.6099 2.88296 11.8297 2.62661 12.086C2.35195 12.3607 2.13222 12.7452 2.02235 13.1114L1.9308 13.496C1.89418 13.6791 1.85756 13.7889 1.85756 13.9904Z" fill="white"/>
<path fill-rule="evenodd" clip-rule="evenodd" d="M25.697 4.94449C25.752 4.83462 25.8069 4.39516 26.1548 4.02895C26.6309 3.55287 27.7479 3.58949 27.7479 4.70645C27.7479 5.05435 27.6197 4.9628 26.7957 4.9628C26.6309 4.9628 25.8069 4.98111 25.697 4.94449ZM23.6646 6.13469C23.6646 6.75725 23.6829 7.08685 23.866 7.67279C23.9575 8.00239 24.1589 8.38692 24.3604 8.58833C24.7266 8.97286 24.9463 9.13766 25.4407 9.30245C26.2647 9.57712 26.4661 9.50387 27.4 9.50387C27.5831 9.50387 27.6746 9.48556 27.8394 9.44894L28.4254 9.33908C28.5169 9.32077 28.5535 9.32077 28.6268 9.28414C28.9014 9.2109 28.7916 9.15597 28.9014 8.64327C28.9381 8.49678 28.9381 8.33198 28.9747 8.20381L29.1212 7.41644C28.5169 7.56293 28.3887 7.87421 26.9605 7.87421C26.3196 7.87421 25.5323 7.47138 25.5323 6.81219V6.44597H29.1761C29.286 6.44597 29.2493 6.40935 29.286 6.33611C29.286 6.33611 29.3226 6.17131 29.3226 6.153C29.5057 5.21915 29.6339 4.13881 29.1944 3.29651L29.0479 3.04016C28.9014 2.85706 28.8465 2.7655 28.6817 2.63733L28.4803 2.47253C28.462 2.47253 28.462 2.47253 28.4437 2.47253C28.4437 2.47253 28.4254 2.45422 28.407 2.43591C27.4732 1.84996 26.045 1.95983 25.2393 2.63733C24.7083 3.05847 24.928 2.87537 24.5252 3.35145C24.5068 3.38807 24.4519 3.443 24.4519 3.46131C24.3054 3.66273 24.0308 4.21205 23.9392 4.50503C23.9026 4.6332 23.8843 4.74307 23.8477 4.88955C23.7927 5.05435 23.7744 5.09097 23.7561 5.27408C23.7195 5.54874 23.6646 5.80509 23.6646 6.13469Z" fill="white"/>
<path fill-rule="evenodd" clip-rule="evenodd" d="M41.7599 16.0412C41.7599 16.6454 41.7599 17.1765 41.5768 17.7258L41.467 18.0554C41.2289 18.5498 40.9909 18.8611 40.4049 18.8611C39.8007 18.8611 39.5443 18.0004 39.5443 17.6342C39.5443 16.9384 39.5626 16.2426 39.8922 15.6384C40.7528 14.1186 41.7599 15.089 41.7599 16.0412ZM40.6979 20.6372H39.9106C39.4162 20.6372 38.6105 20.1794 38.2809 19.6301L38.0612 19.2273C38.0429 19.2273 38.0429 19.1906 38.0429 19.1723L37.933 18.9343C37.8964 18.8244 37.8964 18.8244 37.8597 18.6779L37.7499 18.092C37.6949 17.6708 37.7133 17.6159 37.7133 17.1948C37.7133 16.8652 37.7499 16.6271 37.7682 16.3159L38.1161 15.0524C38.3541 14.6129 38.4091 14.4115 38.8302 13.9721L39.2514 13.6059C39.3246 13.5692 39.3429 13.5509 39.3979 13.5143C39.7091 13.3129 39.8556 13.2763 40.2218 13.1664C40.5148 13.0748 41.3388 13.0565 41.6318 13.1481L42.0529 13.2946C42.1078 13.3312 42.1078 13.3312 42.1628 13.3678C42.529 13.5692 42.822 13.8439 43.06 14.1918C43.3347 14.5946 43.4079 15.0341 43.5178 15.4369C43.646 15.9863 43.5727 17.3046 43.4628 17.8356C43.2614 18.8244 42.8769 19.5935 42.0529 20.1794L41.6684 20.3992H41.6501L41.0824 20.5823C40.9543 20.6189 40.8261 20.6189 40.6979 20.6372Z" fill="white"/>
<path fill-rule="evenodd" clip-rule="evenodd" d="M17.22 18.1104C17.22 18.7696 17.4214 19.8866 17.9707 20.326C18.2637 20.5641 18.4285 20.619 18.6665 20.6373H19.1243C19.5454 20.6373 20.0398 20.2528 20.3145 19.9598C20.4976 19.7767 20.6258 19.5203 20.7356 19.4471C20.7356 19.6851 20.7173 19.795 20.6807 20.0147C20.5892 20.6556 20.3328 20.4908 22.2921 20.4908C22.2921 19.7401 22.4202 19.4471 22.4385 19.0626C22.4752 18.5865 22.6766 17.4695 22.7498 16.8653L23.2808 13.2397H21.523C21.4864 13.3679 21.4681 13.4961 21.4498 13.6243C21.4131 13.7524 21.4315 13.8623 21.3948 14.0088L21.1385 15.8216C21.1202 15.9497 21.0835 16.0779 21.0652 16.2244C20.9188 17.0301 21.0103 17.085 20.6258 17.8724C20.6258 17.8724 20.6258 17.8724 20.6258 17.8907C20.6258 17.8907 20.6258 17.8907 20.6075 17.909C20.4976 18.1837 20.1863 18.5316 19.8384 18.5316C19.4539 18.5316 19.4539 18.5682 19.2525 18.3118C18.9595 17.9639 19.1243 17.1033 19.1792 16.7005C19.3074 16.0779 19.3806 15.1441 19.4905 14.5581L19.6736 13.2397H17.8425C17.8425 13.2947 17.8425 13.3679 17.8242 13.4229L17.7876 13.551V13.5693L17.6961 14.3384C17.5862 15.0159 17.458 16.2427 17.3481 16.7737C17.3115 16.9385 17.3115 17.2132 17.2749 17.4146C17.2566 17.5977 17.22 17.909 17.22 18.1104Z" fill="white"/>
<path fill-rule="evenodd" clip-rule="evenodd" d="M10.3725 16.0409H8.50479C8.57803 15.693 8.59634 15.5648 8.83438 15.2169C8.96256 15.0155 8.96256 15.0704 9.12735 14.9422C9.3837 14.7591 9.98796 14.7042 10.2626 15.1803C10.4824 15.5282 10.3725 15.8394 10.3725 16.0409ZM6.58215 17.3043C6.58215 18.2748 6.72864 19.2636 7.47938 19.9228L7.79067 20.1608C7.8456 20.1974 7.82729 20.1974 7.90053 20.234L8.12026 20.3439C8.94425 20.5819 8.83438 20.6003 9.85979 20.6003C10.1894 20.6003 10.4091 20.527 10.7204 20.4904L11.2331 20.3805C11.3063 20.3439 11.288 20.3622 11.3246 20.3439C11.3796 20.3256 11.3246 20.3622 11.3979 20.3256L11.6176 19.0072C11.6542 18.8424 11.6359 18.6593 11.7092 18.5311C11.5261 18.5311 11.5444 18.5678 11.343 18.641C10.5922 18.9523 9.43864 19.1354 8.72452 18.641C8.5231 18.5128 8.37661 18.1832 8.33999 18.0001L8.32168 17.5057H11.8374C11.8374 17.4142 12.0388 16.5353 12.0388 16.169C12.0388 15.3084 12.0754 14.8324 11.581 14.045L11.2148 13.6605C10.7021 13.1294 9.42033 12.9647 8.63296 13.3492C8.23012 13.5689 8.32168 13.514 7.95546 13.8069C7.53431 14.1365 7.22303 14.6492 7.0033 15.1436V15.1619L6.8385 15.638C6.67371 16.2606 6.58215 16.5169 6.58215 17.3043Z" fill="white"/>
<path fill-rule="evenodd" clip-rule="evenodd" d="M52.1204 15.9311C52.1204 15.8762 52.2119 15.5832 52.2486 15.5283C52.3035 15.3818 52.3584 15.2903 52.45 15.1804C52.8162 14.7226 53.4388 14.7043 53.7684 15.0339C54.0247 15.3086 53.9881 15.6931 53.9881 16.041H52.1204V15.9311ZM52.9261 20.6004C53.6219 20.6004 54.1712 20.5638 54.8121 20.3807C54.8487 20.3623 54.8853 20.3623 54.9219 20.344H54.9402C55.0501 20.3074 55.105 19.5567 55.1234 19.4285C55.1783 19.2088 55.2882 18.751 55.2882 18.5313C55.2149 18.5313 53.0909 19.5201 52.1753 18.4946C52.0471 18.3665 52.0105 18.2383 51.9556 18.0369C51.8823 17.7256 51.9373 17.7439 51.9373 17.5059H55.3614C55.4896 17.5059 55.5079 17.2312 55.5262 17.0664C55.6177 16.0227 55.8192 15.0888 55.2149 14.1001C55.1783 14.0451 55.1783 14.0451 55.1417 14.0085C54.2444 12.9648 52.981 12.8915 51.864 13.569L51.5894 13.7705C51.5711 13.7705 51.5527 13.7888 51.5527 13.8071C51.5344 13.8071 51.5344 13.8071 51.5344 13.8071L51.4246 13.9169C51.4063 13.9169 51.4063 13.9169 51.4063 13.9353L51.2598 14.0817C51.2048 14.1733 51.2964 14.0451 51.2232 14.155L50.9485 14.5029C50.9485 14.5029 50.9485 14.5212 50.9302 14.5212C50.6738 14.8874 50.3625 15.7114 50.3076 16.0959C50.1794 16.8467 50.0879 17.9087 50.3259 18.6594C50.5457 19.3369 50.7837 19.7764 51.4063 20.1792C51.7908 20.4356 52.4866 20.6004 52.9261 20.6004Z" fill="white"/>
<path fill-rule="evenodd" clip-rule="evenodd" d="M29.6182 14.8143C29.8746 14.8143 30.0943 14.8876 30.2041 15.0158C30.4788 15.2721 30.4422 15.6933 30.4422 16.0412H28.5745C28.5928 15.7482 28.7027 15.5101 28.8675 15.2355C28.9956 15.0158 29.2886 14.8143 29.6182 14.8143ZM29.3802 20.6005C29.9295 20.6005 30.4605 20.6005 30.9732 20.4541C31.1563 20.3991 31.4127 20.3808 31.4859 20.2343L31.7423 18.5314C31.6873 18.5314 29.545 19.5202 28.6294 18.4948C28.5196 18.3666 28.4646 18.2385 28.4097 18.037C28.3914 17.9272 28.3731 17.8356 28.3731 17.7624C28.3731 17.7074 28.3914 17.6159 28.3914 17.506H31.9071C31.9071 17.3595 31.9254 17.3595 31.9437 17.2314L32.0718 16.4074C32.1085 15.8031 32.1451 15.2538 31.9437 14.6679C31.7789 14.2101 31.5225 13.8256 31.1197 13.5509C30.3873 13.0382 29.5266 13.0199 28.7027 13.3495C28.5562 13.4227 28.428 13.496 28.2815 13.5875L27.7505 14.0453C27.7139 14.0819 27.7139 14.0819 27.7139 14.1002L27.4392 14.4664C27.4392 14.4664 27.4209 14.4664 27.4209 14.4847L26.7617 16.0961C26.7068 16.3524 26.5969 17.2863 26.6335 17.5243C26.6702 17.7074 26.6519 17.9455 26.6702 18.1469C26.7251 18.5131 26.8716 19.0075 27.073 19.3554C27.2195 19.6301 27.4209 19.8498 27.6589 20.0329L27.7688 20.1062C28.2083 20.4174 28.8675 20.6005 29.3802 20.6005Z" fill="white"/>
<path fill-rule="evenodd" clip-rule="evenodd" d="M33.5719 5.21955V6.19002C33.5719 6.53792 33.7184 7.19711 33.8466 7.49009C33.9564 7.76475 34.048 7.98448 34.2128 8.22252C34.2128 8.22252 34.2128 8.24083 34.2311 8.24083V8.25914C34.4325 8.5338 34.5424 8.71691 34.872 8.93664C34.9635 8.99157 35.0001 9.02819 35.11 9.10144C35.8241 9.46765 36.0988 9.54089 36.9594 9.54089C37.5637 9.54089 38.0214 9.41272 38.5158 9.30285L38.8637 7.25205L37.8932 7.61826C37.7101 7.65488 37.7284 7.67319 37.527 7.67319C37.1974 7.67319 36.9411 7.76475 36.5016 7.54502C36.172 7.38022 35.9157 7.14218 35.7692 6.8309C35.4213 6.11678 35.5312 5.49421 35.5678 4.85333L35.7143 4.24907C35.7143 4.23076 35.7143 4.19414 35.7326 4.13921L35.9889 3.53495C36.3368 2.94901 37.0143 2.34475 37.6735 2.34475C38.2778 2.34475 38.6074 2.38137 39.2116 2.65604C39.3398 2.71097 39.413 2.78421 39.5778 2.80252C39.5778 2.6011 39.6145 2.49124 39.6511 2.32644C39.6694 2.21658 39.8708 0.989754 39.8525 0.91651C39.8159 0.861578 39.8525 0.879889 39.6877 0.806646L38.351 0.45874C38.3144 0.45874 38.2778 0.44043 38.2412 0.44043H37.4721C37.3989 0.44043 37.3256 0.45874 37.2707 0.45874C37.2341 0.45874 37.2341 0.45874 37.1974 0.45874C36.5932 0.513673 35.6593 0.971443 35.2016 1.42921L34.5241 2.19827C34.5241 2.21658 34.5057 2.21658 34.5057 2.23489L34.2494 2.67435C34.1762 2.80252 34.1212 2.91239 34.0663 3.04056L33.7916 3.82793C33.7733 3.91948 33.7733 3.99272 33.755 4.06597C33.6635 4.37725 33.5719 4.87164 33.5719 5.21955Z" fill="white"/>
<path fill-rule="evenodd" clip-rule="evenodd" d="M32.6196 16.6087L32.6563 17.4693C32.6746 17.6158 32.6929 17.8538 32.7295 17.982C32.8027 18.2567 32.876 18.6046 33.0042 18.8792L33.0591 19.0074C33.8098 20.5455 35.1648 20.8385 36.7029 20.4906C36.8494 20.454 37.0142 20.399 37.1607 20.3624L37.3438 19.1173C37.3987 18.7877 37.4354 18.7327 37.4537 18.3116C36.5198 18.8243 35.2564 19.1356 34.6704 17.9454C34.4324 17.451 34.3958 16.9383 34.4141 16.4256L34.524 15.5284C34.6704 15.0523 34.7803 14.6494 35.0733 14.2466C35.3296 13.8987 35.7142 13.5691 36.1536 13.4775C36.5748 13.3677 36.7029 13.4043 37.0875 13.4775C37.5635 13.5691 37.8748 13.8438 38.1129 13.8987L38.4241 11.9578C38.3875 11.9394 37.6551 11.6648 37.3072 11.5915C36.355 11.3718 35.7508 11.5 34.9451 11.8845L34.762 11.9761C34.3042 12.2507 33.8831 12.6902 33.6084 13.1296C33.4985 13.2944 33.4253 13.4226 33.3154 13.6057C33.1873 13.8071 32.9858 14.4114 32.9126 14.6494L32.7112 15.565L32.6196 16.6087Z" fill="white"/>
<path fill-rule="evenodd" clip-rule="evenodd" d="M15.1692 9.30283C15.2973 9.30283 15.6269 9.39439 15.9931 9.43101C16.5974 9.48594 17.2749 9.55918 17.8975 9.44932C18.7947 9.32114 19.7285 8.93662 19.93 7.92952C20.0581 7.32527 20.0215 7.47175 20.0215 6.81256C20.0215 6.61115 19.9483 6.50128 19.93 6.35479C19.9117 6.22662 19.8201 6.08013 19.7652 5.97027C19.7102 5.8604 19.7285 5.89702 19.6553 5.80547C19.4722 5.60405 19.4722 5.58574 19.1975 5.38432C18.6299 5.01811 17.8425 4.85331 17.8425 4.43216C17.8425 4.01101 18.1172 3.8279 18.4834 3.80959C18.9046 3.80959 19.3806 3.80959 19.6736 3.84622C20.0581 3.90115 20.0948 3.9927 20.1131 3.79128L20.2046 3.24196C20.2046 3.16872 20.2046 3.18703 20.2229 3.05885C20.2412 2.9673 20.2596 2.85743 20.2779 2.78419L20.3511 2.21655C20.0581 2.21655 19.7285 2.10669 19.2342 2.10669L18.7581 2.08838C17.8242 2.08838 16.8537 2.27149 16.3594 2.94899L16.1396 3.27858C16.0664 3.42507 16.0115 3.51662 15.9748 3.68142C15.8833 4.08426 15.81 4.59696 15.9199 5.01811C16.0115 5.3477 16.103 5.5125 16.2678 5.75054L16.2861 5.76885L16.396 5.89702C16.4326 5.93365 16.4326 5.93365 16.4692 5.97027L16.9636 6.31817C17.3848 6.61115 18.0623 6.72101 18.1538 7.17878C18.1904 7.34358 18.1172 7.56331 17.989 7.67317L17.9524 7.70979C17.6594 7.94783 16.7988 7.91121 16.4875 7.85628C16.0115 7.78304 16.0298 7.80135 15.572 7.63655C15.4621 7.61824 15.4621 7.58162 15.4072 7.65486L15.2058 9.0831C15.1508 9.26621 15.1508 9.04648 15.1692 9.30283Z" fill="white"/>
<path fill-rule="evenodd" clip-rule="evenodd" d="M12.2413 17.2313C12.2413 17.9454 12.278 18.4398 12.5709 19.0807C12.8639 19.7033 13.3034 20.2526 13.9625 20.4906L14.3288 20.6188C14.3837 20.6188 14.4386 20.6371 14.4936 20.6371H15.1527C15.3175 20.6188 15.4457 20.6188 15.5556 20.6188C15.757 20.6188 16.1965 20.454 16.4345 20.3991L16.6359 18.9708C16.6725 18.7877 16.7092 18.6779 16.7092 18.4948C16.5627 18.4948 16.5627 18.5497 16.4528 18.6046C16.2514 18.6779 16.1049 18.7145 15.9218 18.7511C15.3175 18.8976 14.7316 18.6962 14.4203 18.1285C14.2189 17.744 14.164 17.1947 14.2555 16.7003L14.3837 16.0594C14.4936 15.7664 14.8048 15.327 15.0612 15.1622L15.4457 14.9974C15.6105 14.9425 15.5922 14.9608 15.7387 14.9608H16.1049C16.1232 14.9608 16.1965 14.9791 16.2514 14.9974C16.343 15.0157 16.4711 15.0523 16.5444 15.0889L17.0937 15.327C17.0937 15.1439 17.1486 15.034 17.1852 14.9058L17.4599 13.6241C17.4599 13.4959 17.2402 13.4593 17.1303 13.4044C16.4711 13.1114 15.995 13.0381 15.3175 13.1114C14.7499 13.1846 14.2006 13.4044 13.7611 13.7706L13.7428 13.7889L13.4498 14.0452C13.0104 14.5579 12.754 14.9058 12.516 15.565C12.3512 16.0777 12.2413 16.5538 12.2413 17.2313Z" fill="white"/>
<path fill-rule="evenodd" clip-rule="evenodd" d="M20.2634 7.56308C20.2634 8.35044 20.1718 8.80821 20.831 9.3026C20.9592 9.39415 20.9042 9.35753 21.0873 9.43078C21.2155 9.4674 21.2705 9.48571 21.4169 9.50402C21.5634 9.50402 21.655 9.54064 21.7465 9.54064C22.0761 9.52233 22.4607 9.4674 22.7902 9.37584C23.248 9.26598 23.0649 9.26598 23.1931 8.69834C23.2297 8.57017 23.3396 7.85605 23.3213 7.69125C23.1748 7.69125 22.6987 7.85605 22.4057 7.67294C22.0944 7.47152 22.2409 7.03206 22.2592 6.90389C22.2775 6.51936 22.717 4.28544 22.717 4.02909H23.7058C23.7058 3.60794 23.9255 2.60085 23.9438 2.21632H23.01C23.01 2.05153 23.1565 1.31909 23.2297 1.19092H21.3071C21.2521 1.48389 21.2338 1.64869 21.1789 1.94166L20.2634 7.56308Z" fill="white"/>
<path fill-rule="evenodd" clip-rule="evenodd" d="M47.5439 3.20506H47.5622H47.5439ZM47.5439 3.16844C47.5988 3.04027 47.6537 2.49094 47.727 2.21628C45.5663 2.21628 46.0607 2.06979 45.9142 2.69236L45.6762 4.04736C45.6029 4.41357 45.5663 4.98121 45.4564 5.36574L45.1818 7.14188C45.1451 7.3433 45.1635 7.39823 45.1268 7.54472C45.0353 7.96587 44.9071 9.04621 44.8156 9.39411H46.5001C46.8114 9.41242 46.7382 9.50398 46.8481 8.6983C46.8664 8.60675 46.8664 8.5335 46.8847 8.46026C46.8847 8.38702 46.9213 8.29546 46.9396 8.20391C46.9579 7.98418 46.9762 7.89263 47.0128 7.69121L47.2509 6.37283C47.2692 6.11648 47.4889 5.3108 47.5988 5.01783C47.8002 4.48682 48.0016 4.2854 48.6059 4.2854L48.8989 3.18675L49.32 2.17966C49.1552 2.17966 48.9172 2.0881 48.5143 2.2529C48.3678 2.32614 48.258 2.39939 48.1481 2.50925C47.8735 2.80223 47.6903 3.05858 47.6537 3.0952C47.5622 3.18675 47.672 3.13182 47.5439 3.16844Z" fill="white"/>
<path fill-rule="evenodd" clip-rule="evenodd" d="M32.181 3.16865V3.0954C32.181 3.05878 32.181 3.02216 32.1993 2.98554L32.3092 2.21649H30.588L30.1668 4.87155C30.1485 4.99973 30.0936 5.16452 30.0753 5.31101L29.4527 9.22952C29.4344 9.33939 29.3978 9.39432 29.5259 9.39432H31.2655C31.4303 9.39432 31.3936 9.00979 31.4486 8.69851L31.8331 6.46459C31.8514 6.39135 31.8514 6.33641 31.8697 6.29979C31.888 6.17162 31.888 6.18993 31.888 6.135C31.9063 6.02513 31.943 5.89696 31.9796 5.78709C31.9979 5.62229 32.0162 5.60398 32.0711 5.43919C32.2542 4.67013 32.4557 4.28561 33.2064 4.28561C33.2796 4.12081 33.298 3.9377 33.3529 3.71797C33.3712 3.64473 33.4078 3.57148 33.4261 3.46162C33.4994 3.18696 33.6825 2.72919 33.8107 2.45453L33.9571 2.21649C33.6642 2.07 33.1881 2.19817 32.9317 2.36297C32.9317 2.36297 32.8585 2.4179 32.8402 2.43622L32.4923 2.80243C32.474 2.82074 32.474 2.82074 32.4374 2.85736L32.2176 3.15034C32.1444 3.22358 32.2542 3.18696 32.181 3.16865Z" fill="white"/>
<path fill-rule="evenodd" clip-rule="evenodd" d="M25.6073 14.3387L25.7354 13.3865C23.9044 13.3865 24.1424 13.2584 24.0692 13.7528L23.0804 20.3996C23.0621 20.4911 23.0254 20.5277 23.1536 20.5277H24.8565L25.003 19.3925C25.0213 19.2277 25.0396 19.0446 25.0763 18.8432L25.2594 17.8361C25.296 17.4332 25.3875 17.1769 25.4608 16.8107L25.6256 16.1698L25.6439 16.1515C25.7721 15.8219 25.9369 15.419 26.3946 15.4373C26.7059 15.4557 26.5411 15.419 26.6876 14.943C26.7059 14.8697 26.7059 14.888 26.7242 14.8514C26.7608 14.7415 26.7425 14.7965 26.7425 14.7232C26.7608 14.6317 26.7792 14.6134 26.7975 14.5218C26.8341 14.4303 26.8524 14.3387 26.8707 14.2471C26.9623 13.9725 27.2186 13.4598 27.2369 13.3499C26.9806 13.3316 26.7792 13.2584 26.4679 13.4232C26.0467 13.6612 26.0833 13.7344 25.827 14.0457L25.8087 14.064C25.6805 14.2288 25.6988 14.2655 25.6073 14.3387Z" fill="white"/>
<path fill-rule="evenodd" clip-rule="evenodd" d="M56.4817 8.13091H56.207V7.83794H56.3169C56.4451 7.83794 56.6099 7.87456 56.6099 8.00273C56.6099 8.07598 56.555 8.13091 56.4817 8.13091ZM55.8958 8.91827H56.207V8.36895C56.262 8.38726 56.3169 8.36895 56.3902 8.49713C56.4085 8.55206 56.4268 8.58868 56.4268 8.60699V8.6253L56.5916 8.88165C56.6648 8.9549 56.7564 8.91827 56.8845 8.91827C56.8296 9.06476 56.4451 9.26618 56.0239 9.08307C55.8958 9.00983 55.8775 8.99152 55.7859 8.89996C55.7859 8.89996 55.7676 8.89996 55.7676 8.88165C55.7676 8.88165 55.7493 8.88165 55.7493 8.86334C55.438 8.53375 55.4197 7.91118 55.9141 7.54496C56.2803 7.25199 57.031 7.38017 57.1958 8.13091C57.2691 8.40557 57.1043 8.80841 56.9212 8.91827C56.9029 8.80841 56.8296 8.75348 56.7747 8.66192C56.7014 8.55206 56.6648 8.47881 56.6099 8.36895L56.7014 8.35064C56.7197 8.35064 56.7197 8.35064 56.7197 8.33233L56.793 8.31402C56.9212 8.20415 57.1409 7.5999 56.2803 7.5999H55.8958V8.91827ZM55.1816 8.20415C55.1816 8.68023 55.2915 8.89996 55.6211 9.17462C55.676 9.22956 55.6028 9.19294 55.6943 9.22956C56.262 9.63239 57.2141 9.41266 57.4705 8.75348C57.9649 7.39848 56.3718 6.62942 55.5112 7.45341C55.3647 7.5999 55.1816 7.91118 55.1816 8.20415Z" fill="white"/>
<path fill-rule="evenodd" clip-rule="evenodd" d="M57.3569 19.6118C57.3569 19.6118 57.3752 19.6118 57.3752 19.6301L57.3569 19.6118ZM57.064 20.4907C57.4668 20.4907 57.3752 20.6189 57.3752 19.9414C57.3752 19.8865 57.3569 19.74 57.3936 19.6851L57.6316 20.4907H57.9063C57.9063 20.4175 58.1077 19.6851 58.1809 19.5752V20.4907H58.4556V19.0259H58.0527L57.8147 19.7217C57.7781 19.8499 57.8147 19.8682 57.7415 19.9231C57.7415 19.74 57.5584 19.2639 57.5034 19.0259H57.064V20.4907Z" fill="white"/>
<path fill-rule="evenodd" clip-rule="evenodd" d="M56.2779 19.3369V20.4904H56.6075V19.3369H56.9554V19.0256C56.7723 19.0256 56.1314 19.0073 56.0032 19.0439C55.9117 19.0622 55.9483 19.0073 55.9483 19.2453C55.9483 19.3369 55.8934 19.3185 56.0032 19.3369C56.0399 19.3552 56.223 19.3369 56.2779 19.3369Z" fill="white"/>
</svg>
