<svg width="47" height="17" viewBox="0 0 47 17" fill="none" xmlns="http://www.w3.org/2000/svg">
<path fill-rule="evenodd" clip-rule="evenodd" d="M6.3958 2.48896L6.41014 2.43158L6.3958 2.48896ZM1.30326 7.4524H2.55129C2.66605 7.4524 2.63736 7.30895 2.6517 7.23722C2.72343 6.79252 2.82385 6.37651 2.88123 5.91746C2.89557 5.8027 2.92426 5.73098 2.93861 5.57318C2.93861 5.50145 2.9673 5.40104 2.99599 5.27193L3.15378 4.32515C3.18248 4.19604 3.18248 4.12432 3.21117 3.99521C3.28289 3.69396 3.36896 3.03408 3.412 2.6898C3.44069 2.532 3.45503 2.51765 3.45503 2.33117L3.51241 4.59771C3.5698 5.25759 3.59849 6.79252 3.59849 7.4524H4.63134C4.64568 7.2946 5.23384 5.74532 5.31991 5.50145L5.49205 4.99937C5.52074 4.89896 5.56378 4.82723 5.59247 4.71247C5.62116 4.6264 5.6355 4.6264 5.66419 4.55467L6.03717 3.47878C6.09455 3.29229 6.29538 2.66111 6.3958 2.54635C6.3958 2.86194 6.20931 3.69396 6.16627 4.05259L5.97979 5.27193C5.90806 5.58752 5.87937 5.93181 5.82199 6.2474L5.64985 7.4524H7.11306C7.14175 7.33764 7.18478 7.15115 7.19913 7.02204L7.68686 4.06694C7.68686 4.00955 7.71555 3.92348 7.7299 3.88045L7.97377 2.33117C8.0168 1.91516 8.14591 1.42742 8.20329 0.997065L8.26067 0.581055H5.9511C5.92241 0.753197 5.83633 0.925339 5.77895 1.09748L5.43467 2.14468C5.36294 2.33117 5.31991 2.47462 5.26253 2.66111C5.11908 3.09146 4.96128 3.47878 4.83217 3.92348C4.80348 4.03824 4.77479 4.08128 4.7461 4.1817L4.61699 4.58336C4.60265 4.61205 4.60265 4.61205 4.5883 4.64074L4.53092 1.61391C4.53092 1.22659 4.50223 0.939684 4.50223 0.581055H2.3648C2.3648 0.710161 2.30742 0.882304 2.29307 1.01141C2.26438 1.11183 2.27873 1.09748 2.26438 1.1979C2.25004 1.28397 2.23569 1.327 2.22135 1.41308L2.14962 1.85778C2.13528 2.04426 2.10659 2.14468 2.0779 2.30248L1.97748 2.93367C1.96313 3.01974 1.94879 3.06277 1.93444 3.14884L1.69058 4.64074C1.56147 5.37235 1.46105 6.10395 1.3176 6.83556C1.30326 6.92163 1.30326 6.97901 1.28891 7.06508C1.27457 7.19419 1.14546 7.4524 1.30326 7.4524Z" fill="#838FC0"/>
<path fill-rule="evenodd" clip-rule="evenodd" d="M39.7479 5.3298C39.7479 4.7273 39.6905 4.7273 39.8339 4.19653C39.9344 3.80921 40.1926 3.35016 40.5942 3.20671C40.752 3.16368 40.8094 3.17802 40.9098 3.17802C41.3402 3.16368 41.4836 3.53665 41.5697 3.86659C41.6845 4.23957 41.5554 4.99986 41.4263 5.30111C41.3402 5.50194 41.2541 5.67408 41.0963 5.81754C41.0676 5.84623 41.0533 5.86057 41.0246 5.88926L40.9816 5.91795C40.6229 6.19051 40.1065 6.19051 39.877 5.7745C39.8339 5.67408 39.7479 5.44456 39.7479 5.3298ZM41.9857 2.47511C41.871 2.44642 41.914 2.43207 41.8423 2.346C41.7992 2.30297 41.7562 2.24558 41.7132 2.20255C41.6414 2.14517 41.4836 2.03041 41.4119 1.97303C40.9529 1.71481 40.4364 1.67178 39.9344 1.88696C39.4466 2.10213 39.4179 2.20255 39.0737 2.54683C38.9302 2.67594 38.9732 2.64725 38.8728 2.7907L38.8154 2.86243C38.7867 2.91981 38.7724 2.93415 38.7437 2.99153C38.4425 3.50796 38.3564 3.82356 38.2416 4.38302C38.1699 4.71296 38.1843 4.71296 38.1843 5.01421V5.30111C38.1986 5.50194 38.1412 5.55932 38.2416 5.91795C38.3707 6.36265 38.2847 6.19051 38.4855 6.62087C38.5716 6.79301 38.629 6.86473 38.7867 7.02253L39.2601 7.38116C39.3319 7.4242 39.3749 7.43854 39.4753 7.45289C39.9487 7.5533 40.2356 7.59634 40.7233 7.35247C41.125 7.15164 41.125 7.03688 41.2828 6.92212C41.2685 7.09426 41.1967 7.29509 41.2398 7.45289C41.6414 7.45289 42.0431 7.45289 42.4448 7.45289C42.7604 7.46723 42.6169 7.40985 42.7173 6.86473L43.2338 3.82356C43.2481 3.69445 43.2481 3.65141 43.2768 3.53665C43.2911 3.47927 43.3055 3.37885 43.3198 3.29278L43.492 2.14517C43.5207 2.04475 43.535 1.98737 43.5493 1.9013L43.6354 1.37053C43.6498 1.25577 43.6498 1.22708 43.6785 1.11231C43.6928 0.983208 43.7502 0.724995 43.7502 0.581543H42.2726C42.2726 0.73934 41.9857 2.20255 41.9857 2.47511Z" fill="#838FC0"/>
<path fill-rule="evenodd" clip-rule="evenodd" d="M37.8685 12.689C37.8685 12.9186 37.8972 13.3346 37.8398 13.5354C37.8255 13.6358 37.8111 13.6645 37.8111 13.7362C37.7968 13.8654 37.6677 14.1666 37.596 14.3101C37.4238 14.6113 37.1226 14.8839 36.7496 14.8265C36.018 14.7404 36.1471 13.7649 36.1758 13.2772C36.1758 13.2198 36.1901 13.1481 36.2045 13.0764C36.2762 12.8468 36.2762 12.7034 36.4197 12.4452C36.5918 12.1583 36.7353 12.0005 37.0509 11.9144C37.3808 11.8283 37.7251 12.0722 37.8111 12.4021C37.8398 12.5026 37.8685 12.5886 37.8685 12.689ZM38.2128 11.1971C37.9546 11.0107 37.8255 10.6377 37.2517 10.5373C36.2762 10.3651 35.7311 10.9246 35.2434 11.6849L34.77 13.019C34.6982 13.3346 34.6982 13.8367 34.6982 14.1523C34.6982 14.4535 34.813 15.0273 34.9708 15.3142C35.1716 15.6728 35.2434 15.8163 35.5876 16.0315L35.6163 16.0602C35.8315 16.2036 36.018 16.2323 36.2332 16.2467H36.477C36.5631 16.2323 36.5488 16.261 36.6635 16.2323C37.2804 16.0889 37.3808 15.8306 37.5816 15.7015C37.5816 15.888 37.5242 16.0171 37.5242 16.1749H38.7866C38.887 16.1749 38.9014 15.9597 38.9157 15.802C38.9301 15.6155 38.9444 15.5294 38.9731 15.3573C39.0018 15.2712 38.9875 15.2281 39.0018 15.1421L39.1022 14.4822C39.1452 14.3101 39.1309 14.2527 39.1596 14.0805L39.2744 13.435C39.2744 13.392 39.2744 13.392 39.2887 13.3202L39.6904 10.609C39.7047 10.5229 39.7047 10.4942 39.7191 10.4082C39.7621 10.2073 39.8482 9.43269 39.9055 9.31793C39.7477 9.28924 38.9301 9.31793 38.6432 9.31793C38.4567 9.30358 38.5284 9.27489 38.428 9.82001C38.3993 9.97781 38.385 10.1499 38.3563 10.2934C38.3276 10.4512 38.3132 10.5946 38.2845 10.7524C38.2845 10.8385 38.2702 11.0824 38.2128 11.1971Z" fill="#838FC0"/>
<path fill-rule="evenodd" clip-rule="evenodd" d="M10.5422 4.94238H10.7C10.7 5.43012 10.5422 5.80309 10.2983 6.04696L10.0401 6.23345C10.0257 6.24779 9.96835 6.27648 9.96835 6.27648C9.91097 6.29083 9.85359 6.30517 9.81055 6.30517C9.20806 6.46297 9.0646 5.78875 9.20806 5.47315C9.23675 5.41577 9.25109 5.38708 9.27978 5.34405C9.46627 5.01411 9.99704 4.95673 10.327 4.94238C10.4848 4.92804 10.4561 4.94238 10.5422 4.94238ZM8.63425 2.01596C8.63425 2.27418 8.44776 3.04882 8.44776 3.29268C8.54818 3.29268 8.69163 3.2353 8.79204 3.20661C9.10764 3.1062 10.9438 2.77626 10.9438 3.50786C10.9438 3.59393 10.9295 3.82346 10.8721 3.86649C10.8434 3.89518 10.7 3.86649 10.6713 3.86649C10.2696 3.82346 9.75317 3.85215 9.36585 3.95256C8.82074 4.08167 8.34734 4.33988 8.03175 4.81327C7.93133 4.95673 7.84526 5.15756 7.80223 5.3297C7.61574 5.88916 7.68747 6.74988 8.13217 7.16589C8.13217 7.16589 8.14651 7.16589 8.14651 7.18023C8.16086 7.18023 8.1752 7.19458 8.1752 7.19458L8.30431 7.32368C8.82074 7.69666 9.76752 7.56755 10.3413 7.15154C10.4417 7.06547 10.4991 6.99374 10.5852 6.92202C10.5422 7.61059 10.327 7.45279 11.7902 7.45279L12.3066 4.05298C12.3927 3.53655 12.3927 2.86233 12.1201 2.43197L11.8332 2.11638C11.4459 1.84382 11.1877 1.7721 10.7286 1.7434C10.1405 1.70037 10.0257 1.72906 9.46627 1.81513C9.17936 1.87251 8.92115 1.95858 8.63425 2.01596Z" fill="#838FC0"/>
<path fill-rule="evenodd" clip-rule="evenodd" d="M32.2463 5.77436C32.2463 5.71698 32.2607 5.54483 32.275 5.5018C32.4471 5.07144 32.9205 4.97103 33.3365 4.94234C33.6235 4.92799 33.5087 4.94234 33.7956 4.94234C33.7669 5.20055 33.7382 5.40138 33.6521 5.63091C33.5948 5.80305 33.48 5.9465 33.3652 6.06126C33.064 6.34816 32.5763 6.44858 32.3467 6.13299C32.2894 6.04692 32.2463 5.90346 32.2463 5.77436ZM31.5434 3.29264C32.2894 3.1205 32.2463 3.04877 33.2074 3.04877C33.5087 3.04877 33.7382 3.07746 33.9104 3.23526C34.0968 3.4074 34.0251 3.8521 33.9104 3.88079C33.9104 3.88079 33.5661 3.8521 33.523 3.8521C33.3222 3.82341 33.3079 3.8521 33.1214 3.8521C32.5045 3.88079 32.1746 3.99555 31.6725 4.26811C31.5434 4.32549 31.3856 4.48329 31.2995 4.56936C31.2422 4.66978 31.1848 4.69847 31.113 4.81323C31.0413 4.91365 31.0126 4.99972 30.9696 5.11448C30.9409 5.1862 30.9266 5.20055 30.8979 5.27228C30.8692 5.35835 30.8692 5.344 30.8548 5.41573C30.7831 5.81739 30.7401 6.31947 30.9122 6.70679C31.027 6.96501 31.2278 7.25191 31.486 7.38102C32.0455 7.68227 32.8918 7.55316 33.4083 7.15149C33.5087 7.07977 33.5804 7.00804 33.6521 6.92197C33.6521 7.32364 33.5948 7.45274 33.7095 7.45274H34.8858L34.9432 6.90763L34.9576 6.89328C34.9576 6.87894 34.9576 6.87894 34.9576 6.87894L35.0867 6.00388C35.101 5.88912 35.101 5.84608 35.1297 5.74567L35.3305 4.48329C35.4309 3.723 35.6318 2.63276 34.9145 2.11633C34.3837 1.72901 33.7813 1.68598 33.1501 1.74336C32.6049 1.7864 32.5906 1.81509 32.0885 1.9155C32.0311 1.92985 31.9881 1.94419 31.9307 1.97288C31.6295 2.05895 31.7729 1.87247 31.6438 2.54669L31.5434 3.29264Z" fill="#838FC0"/>
<path fill-rule="evenodd" clip-rule="evenodd" d="M1.67557 11.0538C1.67557 11.3837 1.66123 11.6706 1.77599 12.0006C1.81902 12.1584 1.8764 12.2731 1.96247 12.4022L2.04855 12.5026C2.06289 12.517 2.06289 12.517 2.07724 12.5457C2.13462 12.6031 2.17765 12.6318 2.22069 12.6891C2.34979 12.8182 2.50759 12.9043 2.65104 12.9904L3.12443 13.2486H3.13878L3.35396 13.3777C3.35396 13.392 3.3683 13.4064 3.38265 13.4064C3.38265 13.4064 3.39699 13.4064 3.39699 13.4207H3.41134L3.56913 13.5929C3.64086 13.6789 3.62652 13.6646 3.66955 13.7794C3.78431 14.095 3.69824 14.4823 3.41134 14.6544C2.89491 14.97 2.10593 14.8553 1.57515 14.597C1.4317 14.5397 1.40301 14.4966 1.3026 14.4249C1.28825 14.597 1.01569 15.5438 1.00135 15.716C0.987001 15.802 0.972656 15.8451 0.972656 15.9455C1.18783 15.9455 1.44605 16.1033 1.64688 16.1463C1.73295 16.1607 1.76164 16.1607 1.83337 16.175L2.17765 16.2467C2.26372 16.2467 2.34979 16.2611 2.43587 16.2611H2.88057C3.18181 16.2467 3.46872 16.1894 3.813 16.0889L3.88473 16.0459C4.40116 15.802 4.81717 15.4721 5.018 14.8983C5.21883 14.3388 5.27621 13.6216 5.08973 13.0334C4.88889 12.4453 4.51592 12.1584 4.01384 11.8858L3.51175 11.5989C3.45437 11.5559 3.49741 11.5846 3.44003 11.5559L3.26789 11.3837C3.06705 11.1112 3.13878 10.6234 3.48306 10.4656C3.56913 10.4369 3.71259 10.4082 3.813 10.3939L4.51592 10.4082C4.7311 10.4513 4.87455 10.4656 5.06103 10.5517L5.10407 10.5804C5.16145 10.6091 5.13276 10.5947 5.1758 10.6234C5.24752 10.6665 5.24752 10.6665 5.33359 10.6808L5.6205 9.44712C5.63484 9.37539 5.66353 9.3467 5.67788 9.27498C5.52008 9.16022 5.29056 9.08849 5.10407 9.04545C4.81717 8.97373 4.51592 8.94504 4.21467 8.94504C3.82735 8.93069 3.41134 8.98807 3.02402 9.10283H3.00967C2.75146 9.18891 2.4789 9.36105 2.27807 9.56188C2.06289 9.77706 1.89075 10.0783 1.80468 10.3652L1.73295 10.6665C1.70426 10.8099 1.67557 10.896 1.67557 11.0538Z" fill="#838FC0"/>
<path fill-rule="evenodd" clip-rule="evenodd" d="M20.3531 3.9668C20.3961 3.88073 20.4391 3.53644 20.7117 3.24954C21.0847 2.87656 21.9597 2.90525 21.9597 3.78031C21.9597 4.05287 21.8593 3.98114 21.2138 3.98114C21.0847 3.98114 20.4391 3.99549 20.3531 3.9668ZM18.7607 4.89923C18.7607 5.38697 18.7751 5.64518 18.9185 6.10423C18.9903 6.36244 19.1481 6.66369 19.3059 6.82149C19.5928 7.12274 19.7649 7.25184 20.1522 7.38095C20.7978 7.59613 20.9556 7.53875 21.6872 7.53875C21.8306 7.53875 21.9023 7.5244 22.0314 7.49571L22.4905 7.40964C22.5622 7.3953 22.5909 7.3953 22.6483 7.36661C22.8635 7.30923 22.7774 7.26619 22.8635 6.86452C22.8922 6.74976 22.8922 6.62066 22.9208 6.52024L23.0356 5.9034C22.5622 6.01816 22.4618 6.26203 21.3429 6.26203C20.8408 6.26203 20.224 5.94643 20.224 5.43001V5.1431H23.0786C23.1647 5.1431 23.136 5.11441 23.1647 5.05703C23.1647 5.05703 23.1934 4.92792 23.1934 4.91358C23.3369 4.18197 23.4373 3.33561 23.093 2.67573L22.9782 2.4749C22.8635 2.33145 22.8204 2.25972 22.6913 2.1593L22.5335 2.0302C22.5192 2.0302 22.5192 2.0302 22.5048 2.0302C22.5048 2.0302 22.4905 2.01585 22.4761 2.00151C21.7445 1.54246 20.6256 1.62853 19.9944 2.1593C19.5784 2.48924 19.7506 2.34579 19.435 2.71877C19.4206 2.74746 19.3776 2.79049 19.3776 2.80484C19.2628 2.96263 19.0476 3.39299 18.9759 3.62251C18.9472 3.72293 18.9329 3.809 18.9042 3.92376C18.8612 4.05287 18.8468 4.08156 18.8325 4.22501C18.8038 4.44019 18.7607 4.64102 18.7607 4.89923Z" fill="#838FC0"/>
<path fill-rule="evenodd" clip-rule="evenodd" d="M32.9353 12.6604C32.9353 13.1338 32.9353 13.5498 32.7918 13.9801L32.7058 14.2383C32.5193 14.6257 32.3328 14.8695 31.8737 14.8695C31.4003 14.8695 31.1995 14.1953 31.1995 13.9084C31.1995 13.3633 31.2139 12.8182 31.4721 12.3448C32.1463 11.1541 32.9353 11.9144 32.9353 12.6604ZM32.1033 16.261H31.4864C31.0991 16.261 30.4679 15.9024 30.2097 15.472L30.0375 15.1564C30.0232 15.1564 30.0232 15.1277 30.0232 15.1134L29.9371 14.9269C29.9084 14.8408 29.9084 14.8408 29.8798 14.7261L29.7937 14.267C29.7506 13.9371 29.765 13.8941 29.765 13.5641C29.765 13.3059 29.7937 13.1194 29.808 12.8756L30.0806 11.8857C30.2671 11.5415 30.3101 11.3837 30.64 11.0394L30.97 10.7525C31.0274 10.7238 31.0417 10.7094 31.0847 10.6807C31.3286 10.5229 31.4434 10.4943 31.7303 10.4082C31.9598 10.3365 32.6053 10.3221 32.8349 10.3938L33.1648 10.5086C33.2078 10.5373 33.2078 10.5373 33.2509 10.566C33.5378 10.7238 33.7673 10.939 33.9538 11.2115C34.169 11.5271 34.2263 11.8714 34.3124 12.187C34.4128 12.6173 34.3555 13.6502 34.2694 14.0662C34.1116 14.8408 33.8103 15.4433 33.1648 15.9024L32.8636 16.0745H32.8492L32.4045 16.218C32.3041 16.2467 32.2037 16.2467 32.1033 16.261Z" fill="#838FC0"/>
<path fill-rule="evenodd" clip-rule="evenodd" d="M13.7112 14.2814C13.7112 14.7978 13.869 15.6729 14.2993 16.0172C14.5289 16.2037 14.658 16.2467 14.8445 16.261H15.2031C15.533 16.261 15.9203 15.9598 16.1355 15.7303C16.279 15.5868 16.3794 15.386 16.4655 15.3286C16.4655 15.5151 16.4511 15.6012 16.4224 15.7733C16.3507 16.2754 16.1499 16.1463 17.6848 16.1463C17.6848 15.5581 17.7852 15.3286 17.7996 15.0273C17.8283 14.6544 17.986 13.7793 18.0434 13.3059L18.4594 10.4656H17.0823C17.0536 10.566 17.0393 10.6664 17.0249 10.7668C16.9962 10.8672 17.0106 10.9533 16.9819 11.0681L16.7811 12.4882C16.7667 12.5887 16.738 12.6891 16.7237 12.8038C16.6089 13.435 16.6806 13.4781 16.3794 14.0949C16.3794 14.0949 16.3794 14.0949 16.3794 14.1093C16.3794 14.1093 16.3794 14.1093 16.365 14.1236C16.279 14.3388 16.0351 14.6113 15.7625 14.6113C15.4613 14.6113 15.4613 14.64 15.3035 14.4392C15.074 14.1666 15.2031 13.4924 15.2461 13.1768C15.3465 12.6891 15.4039 11.9575 15.49 11.4984L15.6334 10.4656H14.1989C14.1989 10.5086 14.1989 10.566 14.1846 10.609L14.1559 10.7094V10.7238L14.0842 11.3263C13.9981 11.8571 13.8977 12.8182 13.8116 13.2342C13.7829 13.3633 13.7829 13.5785 13.7542 13.7363C13.7399 13.8797 13.7112 14.1236 13.7112 14.2814Z" fill="#838FC0"/>
<path fill-rule="evenodd" clip-rule="evenodd" d="M8.34738 12.6604H6.88417C6.94155 12.3878 6.9559 12.2874 7.14239 12.0148C7.2428 11.857 7.2428 11.9001 7.37191 11.7997C7.57274 11.6562 8.04613 11.6132 8.26131 11.9862C8.43345 12.2587 8.34738 12.5026 8.34738 12.6604ZM5.37793 13.6502C5.37793 14.4105 5.49269 15.1851 6.08084 15.7016L6.32471 15.888C6.36775 15.9167 6.3534 15.9167 6.41078 15.9454L6.58293 16.0315C7.22846 16.218 7.14239 16.2323 7.94572 16.2323C8.20393 16.2323 8.37607 16.1749 8.61994 16.1463L9.02161 16.0602C9.07899 16.0315 9.06464 16.0458 9.09333 16.0315C9.13637 16.0172 9.09333 16.0458 9.15071 16.0172L9.32286 14.9843C9.35155 14.8552 9.3372 14.7117 9.39458 14.6113C9.25113 14.6113 9.26548 14.64 9.10768 14.6974C8.51953 14.9413 7.61578 15.0847 7.05632 14.6974C6.89852 14.597 6.78376 14.3388 6.75507 14.1953L6.74072 13.808H9.495C9.495 13.7363 9.65279 13.0477 9.65279 12.7608C9.65279 12.0866 9.68149 11.7136 9.29417 11.0968L9.00726 10.7955C8.6056 10.3795 7.60143 10.2504 6.98459 10.5516C6.669 10.7238 6.74072 10.6807 6.45382 10.9103C6.12388 11.1685 5.88001 11.5701 5.70787 11.9575V11.9718L5.57876 12.3448C5.44966 12.8325 5.37793 13.0334 5.37793 13.6502Z" fill="#838FC0"/>
<path fill-rule="evenodd" clip-rule="evenodd" d="M41.0531 12.5742C41.0531 12.5312 41.1249 12.3017 41.1535 12.2587C41.1966 12.1439 41.2396 12.0722 41.3113 11.9861C41.5982 11.6275 42.086 11.6131 42.3442 11.8713C42.545 12.0865 42.5163 12.3878 42.5163 12.6603H41.0531V12.5742ZM41.6843 16.2323C42.2294 16.2323 42.6598 16.2036 43.1619 16.0601C43.1906 16.0458 43.2193 16.0458 43.2479 16.0314H43.2623C43.3484 16.0027 43.3914 15.4146 43.4057 15.3142C43.4488 15.142 43.5349 14.7834 43.5349 14.6113C43.4775 14.6113 41.8134 15.3859 41.0962 14.5826C40.9958 14.4822 40.9671 14.3817 40.924 14.2239C40.8666 13.9801 40.9097 13.9944 40.9097 13.8079H43.5922C43.6926 13.8079 43.707 13.5928 43.7213 13.4637C43.7931 12.646 43.9509 11.9144 43.4775 11.1397C43.4488 11.0967 43.4488 11.0967 43.4201 11.068C42.7172 10.2503 41.7274 10.1929 40.8523 10.7237L40.6371 10.8815C40.6228 10.8815 40.6084 10.8959 40.6084 10.9102C40.5941 10.9102 40.5941 10.9102 40.5941 10.9102L40.508 10.9963C40.4937 10.9963 40.4937 10.9963 40.4937 11.0106L40.3789 11.1254C40.3359 11.1971 40.4076 11.0967 40.3502 11.1828L40.135 11.4553C40.135 11.4553 40.135 11.4697 40.1207 11.4697C39.9199 11.7566 39.676 12.4021 39.633 12.7034C39.5325 13.2915 39.4608 14.1235 39.6473 14.7117C39.8194 15.2425 40.0059 15.5867 40.4937 15.9023C40.7949 16.1032 41.34 16.2323 41.6843 16.2323Z" fill="#838FC0"/>
<path fill-rule="evenodd" clip-rule="evenodd" d="M23.4231 11.6993C23.6239 11.6993 23.7961 11.7567 23.8821 11.8571C24.0973 12.0579 24.0686 12.3879 24.0686 12.6604H22.6054C22.6198 12.4309 22.7058 12.2444 22.835 12.0293C22.9354 11.8571 23.1649 11.6993 23.4231 11.6993ZM23.2366 16.2324C23.667 16.2324 24.083 16.2324 24.4846 16.1176C24.6281 16.0746 24.8289 16.0603 24.8863 15.9455L25.0871 14.6114C25.0441 14.6114 23.3657 15.386 22.6485 14.5827C22.5624 14.4823 22.5194 14.3819 22.4763 14.2241C22.462 14.138 22.4476 14.0663 22.4476 14.0089C22.4476 13.9659 22.462 13.8941 22.462 13.8081H25.2163C25.2163 13.6933 25.2306 13.6933 25.2449 13.5929L25.3454 12.9474C25.374 12.474 25.4027 12.0436 25.2449 11.5846C25.1158 11.2259 24.915 10.9247 24.5994 10.7095C24.0256 10.3078 23.3514 10.2935 22.7058 10.5517C22.5911 10.6091 22.4907 10.6665 22.3759 10.7382L21.9599 11.0968C21.9312 11.1255 21.9312 11.1255 21.9312 11.1399L21.716 11.4268C21.716 11.4268 21.7017 11.4268 21.7017 11.4411L21.1853 12.7035C21.1422 12.9043 21.0561 13.6359 21.0848 13.8224C21.1135 13.9659 21.0992 14.1523 21.1135 14.3101C21.1566 14.597 21.2713 14.9844 21.4291 15.2569C21.5439 15.4721 21.7017 15.6442 21.8882 15.7877L21.9742 15.8451C22.3185 16.0889 22.835 16.2324 23.2366 16.2324Z" fill="#838FC0"/>
<path fill-rule="evenodd" clip-rule="evenodd" d="M26.5215 4.18233V4.94262C26.5215 5.21518 26.6362 5.73161 26.7367 5.96113C26.8227 6.17631 26.8945 6.34845 27.0236 6.53494C27.0236 6.53494 27.0236 6.54928 27.0379 6.54928V6.56363C27.1957 6.7788 27.2818 6.92226 27.54 7.0944C27.6117 7.13743 27.6404 7.16612 27.7265 7.22351C28.2859 7.51041 28.5011 7.56779 29.1753 7.56779C29.6487 7.56779 30.0074 7.46737 30.3947 7.3813L30.6672 5.77464L29.9069 6.06155C29.7635 6.09024 29.7778 6.10458 29.62 6.10458C29.3618 6.10458 29.161 6.17631 28.8167 6.00416C28.5585 5.87506 28.3577 5.68857 28.2429 5.4447C27.9703 4.88524 28.0564 4.3975 28.0851 3.89542L28.1999 3.42203C28.1999 3.40769 28.1999 3.379 28.2142 3.33596L28.415 2.86257C28.6876 2.40352 29.2184 1.93013 29.7348 1.93013C30.2082 1.93013 30.4664 1.95882 30.9398 2.174C31.0402 2.21704 31.0976 2.27442 31.2267 2.28876C31.2267 2.13096 31.2554 2.04489 31.2841 1.91579C31.2984 1.82972 31.4562 0.868588 31.4419 0.811207C31.4132 0.768172 31.4419 0.782517 31.3128 0.725136L30.2656 0.452578C30.2369 0.452578 30.2082 0.438232 30.1795 0.438232H29.577C29.5196 0.438232 29.4622 0.452578 29.4192 0.452578C29.3905 0.452578 29.3905 0.452578 29.3618 0.452578C28.8884 0.495613 28.1568 0.854243 27.7982 1.21287L27.2674 1.81537C27.2674 1.82972 27.2531 1.82972 27.2531 1.84406L27.0523 2.18835C26.9949 2.28876 26.9518 2.37483 26.9088 2.47525L26.6936 3.09209C26.6793 3.16382 26.6793 3.2212 26.6649 3.27858C26.5932 3.52245 26.5215 3.90977 26.5215 4.18233Z" fill="#838FC0"/>
<path fill-rule="evenodd" clip-rule="evenodd" d="M25.7755 13.1049L25.8042 13.7791C25.8185 13.8939 25.8329 14.0803 25.8616 14.1808C25.919 14.3959 25.9763 14.6685 26.0768 14.8837L26.1198 14.9841C26.7079 16.1891 27.7695 16.4186 28.9745 16.146C29.0893 16.1174 29.2184 16.0743 29.3331 16.0456L29.4766 15.0702C29.5196 14.8119 29.5483 14.7689 29.5626 14.439C28.831 14.8406 27.8412 15.0845 27.3822 14.1521C27.1957 13.7647 27.167 13.3631 27.1813 12.9614L27.2674 12.2585C27.3822 11.8855 27.4682 11.5699 27.6978 11.2543C27.8986 10.9818 28.1998 10.7236 28.5441 10.6518C28.8741 10.5658 28.9745 10.5945 29.2757 10.6518C29.6487 10.7236 29.8926 10.9387 30.0791 10.9818L30.3229 9.46119C30.2942 9.44684 29.7204 9.23167 29.4479 9.17429C28.7019 9.00214 28.2285 9.10256 27.5974 9.40381L27.4539 9.47553C27.0953 9.69071 26.7653 10.035 26.5502 10.3793C26.4641 10.5084 26.4067 10.6088 26.3206 10.7523C26.2202 10.9101 26.0624 11.3834 26.005 11.5699L25.8472 12.2872L25.7755 13.1049Z" fill="#838FC0"/>
<path fill-rule="evenodd" clip-rule="evenodd" d="M12.1045 7.3815C12.2049 7.3815 12.4632 7.45322 12.7501 7.48191C13.2235 7.52495 13.7542 7.58233 14.242 7.49626C14.9449 7.39584 15.6765 7.09459 15.8343 6.30561C15.9347 5.83222 15.906 5.94698 15.906 5.43055C15.906 5.27275 15.8486 5.18668 15.8343 5.07192C15.8199 4.9715 15.7482 4.85674 15.7052 4.77067C15.6621 4.6846 15.6765 4.71329 15.6191 4.64156C15.4756 4.48377 15.4756 4.46942 15.2605 4.31163C14.8158 4.02472 14.1989 3.89562 14.1989 3.56568C14.1989 3.23574 14.4141 3.09228 14.701 3.07794C15.0309 3.07794 15.4039 3.07794 15.6334 3.10663C15.9347 3.14967 15.9634 3.22139 15.9777 3.06359L16.0495 2.63324C16.0495 2.57586 16.0495 2.5902 16.0638 2.48979C16.0781 2.41806 16.0925 2.33199 16.1068 2.27461L16.1642 1.82991C15.9347 1.82991 15.6765 1.74384 15.2892 1.74384L14.9162 1.72949C14.1846 1.72949 13.4243 1.87294 13.037 2.40372L12.8648 2.66193C12.8074 2.77669 12.7644 2.84842 12.7357 2.97752C12.664 3.29312 12.6066 3.69478 12.6927 4.02472C12.7644 4.28294 12.8361 4.41204 12.9652 4.59853L12.9796 4.61287L13.0657 4.71329C13.0943 4.74198 13.0943 4.74198 13.123 4.77067L13.5104 5.04323C13.8403 5.27275 14.3711 5.35882 14.4428 5.71745C14.4715 5.84656 14.4141 6.0187 14.3137 6.10477L14.285 6.13346C14.0555 6.31995 13.3812 6.29126 13.1374 6.24823C12.7644 6.19085 12.7788 6.20519 12.4201 6.07608C12.334 6.06174 12.334 6.03305 12.291 6.09043L12.1332 7.20935C12.0902 7.35281 12.0902 7.18066 12.1045 7.3815Z" fill="#838FC0"/>
<path fill-rule="evenodd" clip-rule="evenodd" d="M9.80957 13.5926C9.80957 14.1521 9.83826 14.5394 10.0678 15.0415C10.2973 15.5292 10.6416 15.9596 11.158 16.146L11.4449 16.2465C11.488 16.2465 11.531 16.2608 11.574 16.2608H12.0905C12.2196 16.2465 12.32 16.2465 12.406 16.2465C12.5638 16.2465 12.9081 16.1174 13.0946 16.0743L13.2524 14.9554C13.2811 14.8119 13.3098 14.7259 13.3098 14.5824C13.195 14.5824 13.195 14.6255 13.109 14.6685C12.9512 14.7259 12.8364 14.7546 12.693 14.7833C12.2196 14.898 11.7605 14.7402 11.5166 14.2955C11.3589 13.9943 11.3158 13.5639 11.3875 13.1766L11.488 12.6745C11.574 12.445 11.8179 12.1007 12.0187 11.9716L12.32 11.8425C12.4491 11.7995 12.4347 11.8138 12.5495 11.8138H12.8364C12.8507 11.8138 12.9081 11.8281 12.9512 11.8425C13.0229 11.8568 13.1233 11.8855 13.1807 11.9142L13.611 12.1007C13.611 11.9573 13.6541 11.8712 13.6828 11.7708L13.8979 10.7666C13.8979 10.6662 13.7258 10.6375 13.6397 10.5945C13.1233 10.3649 12.7503 10.3076 12.2196 10.3649C11.7749 10.4223 11.3445 10.5945 11.0002 10.8814L10.9859 10.8957L10.7564 11.0965C10.4121 11.4982 10.2112 11.7708 10.0247 12.2872C9.89564 12.6889 9.80957 13.0618 9.80957 13.5926Z" fill="#838FC0"/>
<path fill-rule="evenodd" clip-rule="evenodd" d="M16.0942 6.01849C16.0942 6.63534 16.0225 6.99396 16.5389 7.38128C16.6393 7.45301 16.5963 7.42432 16.7397 7.4817C16.8402 7.51039 16.8832 7.52474 16.998 7.53908C17.1127 7.53908 17.1844 7.56777 17.2562 7.56777C17.5144 7.55343 17.8156 7.51039 18.0738 7.43867C18.4325 7.35259 18.289 7.35259 18.3894 6.90789C18.4181 6.80748 18.5042 6.24802 18.4899 6.11891C18.3751 6.11891 18.0021 6.24802 17.7726 6.10456C17.5287 5.94677 17.6435 5.60248 17.6578 5.50207C17.6722 5.20082 18.0165 3.4507 18.0165 3.24987H18.7911C18.7911 2.91993 18.9632 2.13095 18.9776 1.8297H18.246C18.246 1.70059 18.3607 1.12678 18.4181 1.02637H16.9119C16.8689 1.25589 16.8545 1.385 16.8115 1.61452L16.0942 6.01849Z" fill="#838FC0"/>
<path fill-rule="evenodd" clip-rule="evenodd" d="M37.4685 2.60445H37.4828H37.4685ZM37.4685 2.57576C37.5115 2.47534 37.5546 2.04499 37.6119 1.82981C35.9192 1.82981 36.3065 1.71505 36.1918 2.20278L36.0053 3.26433C35.9479 3.55123 35.9192 3.99593 35.8331 4.29718L35.618 5.68866C35.5893 5.84646 35.6036 5.8895 35.5749 6.00426C35.5032 6.3342 35.4028 7.18056 35.3311 7.45312H36.6508C36.8947 7.46747 36.8373 7.53919 36.9234 6.90801C36.9377 6.83628 36.9377 6.7789 36.9521 6.72152C36.9521 6.66414 36.9808 6.59241 36.9951 6.52069C37.0094 6.34854 37.0238 6.27682 37.0525 6.11902L37.239 5.08617C37.2533 4.88533 37.4255 4.25415 37.5115 4.02462C37.6693 3.60861 37.8271 3.45082 38.3005 3.45082L38.53 2.5901L38.86 1.80112C38.7309 1.80112 38.5444 1.72939 38.2288 1.8585C38.114 1.91588 38.028 1.97326 37.9419 2.05933C37.7267 2.28886 37.5832 2.48969 37.5546 2.51838C37.4828 2.5901 37.5689 2.54707 37.4685 2.57576Z" fill="#838FC0"/>
<path fill-rule="evenodd" clip-rule="evenodd" d="M25.4328 2.5755V2.51812C25.4328 2.48943 25.4328 2.46074 25.4471 2.43205L25.5332 1.82955H24.1847L23.8548 3.9096C23.8404 4.01002 23.7974 4.13912 23.7831 4.25388L23.2953 7.32375C23.281 7.40982 23.2523 7.45286 23.3527 7.45286H24.7155C24.8446 7.45286 24.8159 7.15161 24.859 6.90774L25.1602 5.15763C25.1746 5.10025 25.1746 5.05721 25.1889 5.02852C25.2032 4.92811 25.2032 4.94245 25.2032 4.89942C25.2176 4.81335 25.2463 4.71293 25.275 4.62686C25.2893 4.49775 25.3037 4.48341 25.3467 4.3543C25.4901 3.7518 25.6479 3.45055 26.2361 3.45055C26.2935 3.32145 26.3078 3.17799 26.3509 3.00585C26.3652 2.94847 26.3939 2.89109 26.4082 2.80502C26.4656 2.58984 26.6091 2.23121 26.7095 2.01603L26.8242 1.82955C26.5947 1.71479 26.2217 1.8152 26.0209 1.94431C26.0209 1.94431 25.9635 1.98734 25.9492 2.00169L25.6766 2.28859C25.6623 2.30294 25.6623 2.30294 25.6336 2.33163L25.4615 2.56115C25.4041 2.61853 25.4901 2.58984 25.4328 2.5755Z" fill="#838FC0"/>
<path fill-rule="evenodd" clip-rule="evenodd" d="M20.2828 11.3261L20.3832 10.5802C18.9487 10.5802 19.1352 10.4797 19.0778 10.8671L18.3031 16.0744C18.2888 16.1461 18.2601 16.1748 18.3605 16.1748H19.6946L19.8094 15.2854C19.8237 15.1563 19.8381 15.0128 19.8668 14.855L20.0102 14.066C20.0389 13.7504 20.1106 13.5496 20.168 13.2627L20.2971 12.7606L20.3115 12.7463C20.4119 12.4881 20.541 12.1725 20.8996 12.1868C21.1435 12.2012 21.0144 12.1725 21.1291 11.7995C21.1435 11.7421 21.1435 11.7565 21.1578 11.7278C21.1865 11.6417 21.1722 11.6847 21.1722 11.6274C21.1865 11.5556 21.2009 11.5413 21.2152 11.4696C21.2439 11.3978 21.2583 11.3261 21.2726 11.2544C21.3443 11.0392 21.5452 10.6375 21.5595 10.5515C21.3587 10.5371 21.2009 10.4797 20.957 10.6089C20.6271 10.7953 20.6558 10.8527 20.4549 11.0966L20.4406 11.1109C20.3402 11.24 20.3545 11.2687 20.2828 11.3261Z" fill="#838FC0"/>
<path fill-rule="evenodd" clip-rule="evenodd" d="M44.4687 6.46287H44.2535V6.23335H44.3396C44.44 6.23335 44.5691 6.26204 44.5691 6.36245C44.5691 6.41984 44.5261 6.46287 44.4687 6.46287ZM44.0097 7.07971H44.2535V6.64936C44.2966 6.6637 44.3396 6.64936 44.397 6.74977C44.4113 6.79281 44.4257 6.8215 44.4257 6.83585V6.85019L44.5548 7.05102C44.6122 7.1084 44.6839 7.07971 44.7843 7.07971C44.7413 7.19448 44.44 7.35227 44.1101 7.20882C44.0097 7.15144 43.9953 7.13709 43.9236 7.06537C43.9236 7.06537 43.9092 7.06537 43.9092 7.05102C43.9092 7.05102 43.8949 7.05102 43.8949 7.03668C43.651 6.77847 43.6367 6.29073 44.024 6.00383C44.3109 5.7743 44.8991 5.87472 45.0282 6.46287C45.0855 6.67805 44.9564 6.99364 44.813 7.07971C44.7986 6.99364 44.7413 6.95061 44.6982 6.87888C44.6408 6.79281 44.6122 6.73543 44.5691 6.64936L44.6408 6.63501C44.6552 6.63501 44.6552 6.63501 44.6552 6.62067L44.7126 6.60632C44.813 6.52025 44.9851 6.04686 44.3109 6.04686H44.0097V7.07971ZM43.4502 6.52025C43.4502 6.89323 43.5363 7.06537 43.7945 7.28055C43.8375 7.32358 43.7801 7.29489 43.8519 7.32358C44.2966 7.63918 45.0425 7.46703 45.2433 6.95061C45.6307 5.88906 44.3826 5.28657 43.7084 5.9321C43.5936 6.04686 43.4502 6.29073 43.4502 6.52025Z" fill="#838FC0"/>
<path fill-rule="evenodd" clip-rule="evenodd" d="M45.1558 15.4576C45.1558 15.4576 45.1701 15.4576 45.1701 15.4719L45.1558 15.4576ZM44.9263 16.1461C45.2419 16.1461 45.1701 16.2466 45.1701 15.7158C45.1701 15.6728 45.1558 15.558 45.1845 15.515L45.371 16.1461H45.5861C45.5861 16.0888 45.7439 15.515 45.8013 15.4289V16.1461H46.0165V14.9985H45.7009L45.5144 15.5437C45.4857 15.6441 45.5144 15.6584 45.457 15.7014C45.457 15.558 45.3136 15.185 45.2706 14.9985H44.9263V16.1461Z" fill="#838FC0"/>
<path fill-rule="evenodd" clip-rule="evenodd" d="M44.311 15.2426V16.1463H44.5692V15.2426H44.8417V14.9987C44.6983 14.9987 44.1962 14.9844 44.0958 15.013C44.0241 15.0274 44.0528 14.9844 44.0528 15.1708C44.0528 15.2426 44.0097 15.2282 44.0958 15.2426C44.1245 15.2569 44.2679 15.2426 44.311 15.2426Z" fill="#838FC0"/>
</svg>
