<svg width="49" height="29" viewBox="0 0 49 29" fill="none" xmlns="http://www.w3.org/2000/svg">
<path fill-rule="evenodd" clip-rule="evenodd" d="M4.77777 13.6513C4.77777 13.1569 4.70453 12.6259 4.6679 12.1681C4.63128 11.9118 4.63128 11.6737 4.61297 11.4174L4.35662 8.13975C4.35662 7.97495 4.39324 7.82846 4.24676 7.82846H0.456421V8.10313C1.31703 8.30454 1.66493 8.52427 1.92128 9.43981C2.14101 10.1906 2.14101 11.0695 2.25088 11.9301C2.41568 13.0837 2.52554 14.5851 2.67203 15.757C2.70865 16.1599 2.78189 16.636 2.8002 17.0571H5.63838L7.63425 12.9921C7.72581 12.809 7.79905 12.6808 7.8906 12.4977L9.39209 9.47643C9.44702 9.36657 9.46533 9.31164 9.52027 9.22008L12.9993 2.40847C13.0909 2.22536 13.1641 2.09718 13.2557 1.93239C13.3472 1.74928 13.4205 1.60279 13.512 1.41968C13.567 1.29151 13.7501 0.998537 13.7684 0.888672H12.4866C12.2303 1.34644 11.8091 1.96901 11.5161 2.44509L4.81439 13.5781C4.77777 13.6513 4.81439 13.6147 4.77777 13.6513Z" fill="white"/>
<path fill-rule="evenodd" clip-rule="evenodd" d="M43.9818 15.2257H43.3043L43.8353 11.8382C43.8903 11.472 43.9452 11.0508 44.0184 10.7029C44.8241 10.7029 45.2636 10.7578 45.758 11.0874C46.8932 11.8199 46.6186 13.7425 45.4101 14.7313C45.2819 14.8228 45.1537 14.8961 45.0072 14.9693C44.7692 15.0975 44.3297 15.2257 43.9818 15.2257ZM48.6694 12.0945V12.6805C48.6694 12.9918 48.6328 13.1382 48.468 13.7059C48.1567 14.8045 47.2411 15.775 46.2707 16.3609C44.7692 17.2399 42.8282 17.0567 40.9972 17.0567C40.869 17.0567 40.9056 17.0018 40.9056 16.892C40.9605 16.3976 41.4549 13.5411 41.5282 13.0467L42.0958 9.42115C42.1324 9.27466 42.169 9.09155 42.169 8.92676H45.1903C46.6186 8.92676 47.7355 9.62257 48.3215 10.7761C48.4863 11.1057 48.6694 11.6184 48.6694 12.0945Z" fill="white"/>
<path fill-rule="evenodd" clip-rule="evenodd" d="M17.5403 12.5523C17.5953 12.4241 17.7967 10.886 17.8882 10.5564C18.2911 10.5564 18.6207 10.5198 18.8953 10.6663C19.5728 10.9959 19.463 11.8748 18.8038 12.3509C18.4376 12.5889 18.1263 12.5523 17.5403 12.5523ZM14.7388 17.0568H16.753C16.8994 17.0568 16.8628 16.8736 16.8811 16.7272C16.9544 16.2328 17.3206 14.2369 17.3206 13.9439H17.3938C17.3938 14.0721 17.6685 14.6031 17.7234 14.7496L18.8221 17.0568H21.4771C21.4222 16.892 20.8729 16.013 20.7447 15.8116L19.463 13.7242C19.7925 13.6509 20.0489 13.5228 20.3236 13.3763C20.47 13.2847 20.5433 13.2115 20.6715 13.1199C21.9898 12.0762 22.2462 8.92676 19.4263 8.92676H15.9839C15.9839 9.25635 15.8923 9.65919 15.8374 9.95216L15.3613 12.9918C15.3064 13.3397 14.7388 16.7455 14.7388 17.0568Z" fill="white"/>
<path fill-rule="evenodd" clip-rule="evenodd" d="M9.04424 17.057H13.4205C13.5853 17.057 13.6036 16.4894 13.6586 16.1964L13.805 15.2259H11.3514C11.3514 14.9879 11.388 14.7681 11.4246 14.5301C11.4613 14.347 11.5345 14.0357 11.5345 13.8343H13.9149L14.1713 12.0581H11.8275C11.8275 11.7285 12.0289 11.051 12.0289 10.7031H14.4459C14.5924 10.7031 14.5558 10.4651 14.5924 10.3186L14.8121 8.927H10.4359C10.1429 8.927 10.2161 8.83544 10.1063 9.51294L9.02593 16.3429C8.97099 16.7274 8.84282 17.057 9.04424 17.057Z" fill="white"/>
<path fill-rule="evenodd" clip-rule="evenodd" d="M35.0995 17.0568H39.6039C39.7504 17.0568 39.7321 16.837 39.7504 16.6722L39.9702 15.2257H37.5165C37.5165 14.8228 37.7179 14.2003 37.7179 13.8341H40.0983C40.0983 13.7059 40.135 13.5045 40.1533 13.4129L40.3547 12.0579H38.0109C38.0109 11.7649 38.194 11.0874 38.194 10.7029H40.611C40.7758 10.7029 40.7575 10.4649 40.7758 10.3184L40.9956 8.92676H36.3812L35.1727 16.5257C35.1544 16.6905 35.0995 16.8736 35.0995 17.0568Z" fill="white"/>
<path fill-rule="evenodd" clip-rule="evenodd" d="M45.373 20.9026C45.3913 21.1773 45.904 23.1732 45.904 23.4661H44.4025C44.4025 23.3196 44.787 22.4041 44.8786 22.1661L45.373 20.9026ZM41.3446 26.0479H43.3771C43.5419 25.7184 43.6335 25.2972 43.7983 24.9859H46.2519C46.2885 25.169 46.3251 25.2972 46.3801 25.4986C46.3984 25.6451 46.4716 25.8832 46.4716 26.0479H48.321C48.1379 25.2606 46.7829 19.1631 46.7829 18.9067H45.0434C44.8786 18.9067 44.6589 18.98 44.549 19.0532C44.4025 19.1631 44.3293 19.2363 44.2377 19.4194L43.8166 20.3533C43.3039 21.5801 42.663 22.9168 42.1503 24.1253C42.0221 24.4549 41.8756 24.7479 41.7291 25.0775C41.6193 25.3521 41.3995 25.8099 41.3446 26.0479Z" fill="white"/>
<path fill-rule="evenodd" clip-rule="evenodd" d="M27.7043 17.0568L28.0888 14.6763C28.1254 14.42 28.1986 14.1087 28.1986 13.8341H30.5424C30.5424 13.5045 30.7988 12.3143 30.7988 12.0579H28.4916L28.7297 10.7029H31.2565C31.2749 10.4282 31.3481 10.062 31.403 9.82399L31.5129 8.92676H26.8803L25.5985 16.9835C25.6351 17.1117 25.9281 17.0568 26.2211 17.0568C26.7155 17.0568 27.2099 17.0568 27.7043 17.0568Z" fill="white"/>
<path fill-rule="evenodd" clip-rule="evenodd" d="M36.7295 21.086C36.7295 22.3128 37.8098 22.7706 38.6888 23.21C38.8352 23.265 38.9634 23.3565 39.0916 23.4481C39.6409 23.8326 39.4761 24.3453 38.8536 24.5467C38.4873 24.6566 38.2127 24.6017 37.9014 24.6017C37.0774 24.6017 36.583 24.2354 36.1985 24.1439C36.1436 24.3819 36.0886 24.7115 36.052 24.9496C36.0154 25.2059 35.9421 25.5172 35.9421 25.7735C36.3084 25.8651 36.3084 25.92 36.9492 26.0482C38.7986 26.4144 41.4903 25.8651 41.4903 23.741C41.4903 23.2283 41.4171 22.9903 41.1058 22.6058C40.9776 22.441 40.9227 22.4044 40.7579 22.2762C40.3367 21.91 39.8423 21.7635 39.4761 21.5621C39.2564 21.4339 38.762 21.1958 38.762 20.9029C38.762 20.555 39.2564 20.2986 39.6409 20.2986C40.3367 20.2986 40.5565 20.2803 41.234 20.5183C41.3621 20.5733 41.3988 20.6099 41.5269 20.6282L41.6917 19.6211C41.765 19.2549 41.8199 19.1267 41.71 19.0535C41.3988 18.8338 39.9339 18.7056 39.2564 18.8154C38.5606 18.9436 38.0113 19.1267 37.5535 19.4929C37.1507 19.8225 36.7295 20.3536 36.7295 21.086Z" fill="white"/>
<path fill-rule="evenodd" clip-rule="evenodd" d="M29.0572 22.7337C28.9839 22.6055 28.8924 22.3858 28.8191 22.2393C28.6177 21.8548 28.2149 21.3238 27.9585 21.0308C27.7754 20.8294 26.7683 19.9688 26.3838 19.8589C26.3838 19.9688 26.4387 20.1153 26.4753 20.2434C26.512 20.3716 26.5486 20.4632 26.5852 20.628L27.0064 22.1477C27.1345 22.6421 28.0684 25.8465 28.0867 26.0479H30.1924C30.2474 25.8099 32.6461 20.2434 33.0489 19.3645C33.0855 19.2363 33.2137 19.0349 33.2137 18.9067H31.1446L29.2586 23.7042C29.2586 23.4661 29.1121 22.9351 29.0572 22.7337Z" fill="white"/>
<path fill-rule="evenodd" clip-rule="evenodd" d="M16.8267 24.8211C16.2774 24.8211 16.076 24.4 16.076 23.8873C16.076 23.0816 17.1563 22.459 17.6507 23.0633C18.1817 23.7225 17.5591 24.8211 16.8267 24.8211ZM14.4097 26.0479H15.7647C15.783 25.9198 15.8196 25.7 15.8379 25.5902C16.2957 26.1212 16.4788 26.1578 17.1563 26.1578C18.3831 26.1578 19.7564 24.2901 19.2254 22.6605C19.1522 22.4407 19.0423 22.2027 18.9141 22.0562C18.3648 21.4519 17.6873 21.3238 16.9182 21.6534C16.6619 21.7632 16.552 21.8914 16.3323 22.0379C16.3872 21.8182 16.4239 21.5069 16.4422 21.2871L16.7901 18.9067H15.3801C15.3801 19.5476 14.4097 25.2972 14.4097 26.0479Z" fill="white"/>
<path fill-rule="evenodd" clip-rule="evenodd" d="M31.4371 17.0568H33.5612C33.5612 16.892 33.5978 16.7088 33.6344 16.5624L34.0373 14.0172C34.257 12.5157 34.55 10.9043 34.7514 9.45777C34.788 9.25635 34.8246 9.09155 34.8429 8.92676H32.7189L31.4371 17.0568Z" fill="white"/>
<path fill-rule="evenodd" clip-rule="evenodd" d="M22.0262 17.0568C24.3151 17.0568 24.0404 17.2032 24.1137 16.6356C24.3334 15.0059 24.7362 12.6438 25.0109 10.9959L25.2489 9.45777C25.2672 9.29297 25.3222 9.12818 25.3222 8.92676H23.1981L21.9896 16.6356C21.953 16.9103 21.8797 17.0568 22.0262 17.0568Z" fill="white"/>
<path fill-rule="evenodd" clip-rule="evenodd" d="M19.0417 28.1898H20.6348C20.708 28.0433 20.7813 27.9334 20.8728 27.7869C21.6602 26.5235 22.649 24.8938 23.4546 23.667L23.949 22.8613C24.0406 22.7149 24.1138 22.5867 24.2054 22.4402C24.3153 22.2754 24.6815 21.7261 24.7181 21.5796H23.1251L22.0813 23.2642C22.0264 23.374 21.9715 23.4473 21.9165 23.5388C21.8982 23.5938 21.8799 23.6304 21.825 23.6853L21.7334 23.8135C21.6785 23.6121 21.6419 23.4656 21.5686 23.2642C21.4588 22.9346 21.0742 21.7627 21.0559 21.5796H19.3897C19.408 21.7444 19.4812 21.9092 19.5361 22.0374L20.0122 23.374C20.2319 23.9783 20.4517 24.5276 20.6531 25.1502C20.763 25.4432 20.7996 25.3699 20.4334 25.9376L19.2615 27.8053C19.2065 27.9151 19.0784 28.0616 19.0417 28.1898Z" fill="white"/>
<path fill-rule="evenodd" clip-rule="evenodd" d="M32.756 26.0479L34.6786 26.0296C34.8068 25.993 34.7519 25.993 34.7702 25.8282L35.9787 18.9067H33.9645L32.756 26.0479Z" fill="white"/>
<path fill-rule="evenodd" clip-rule="evenodd" d="M1.90198 4.42237C1.90198 4.56885 2.41468 4.73365 2.6161 4.80689C2.85414 4.91676 3.1288 5.02662 3.38515 5.13649L4.92326 5.79568L5.10637 5.86892C5.23454 5.96047 5.1613 5.85061 5.19792 6.05203L5.43596 9.12824C5.49089 9.47614 5.34441 9.5677 5.674 9.5677C5.80218 9.5677 5.98528 9.14655 6.09515 8.96344L6.8642 7.68169C6.99238 7.46196 7.10224 7.26054 7.23042 7.04081L7.61495 6.39993C7.68819 6.29007 7.72481 6.21682 7.79805 6.10696C7.8713 5.97878 7.90792 5.88723 7.98116 5.75905L8.45724 4.99C8.49386 4.91676 8.51217 4.88014 8.5488 4.80689C8.75021 4.45899 8.7319 4.60547 8.7319 4.23926H1.90198V4.42237Z" fill="white"/>
<path fill-rule="evenodd" clip-rule="evenodd" d="M26.3837 19.8591C26.7683 19.9689 27.7754 20.8295 27.9585 21.031C28.2148 21.3239 28.6177 21.8549 28.8191 22.2395C28.8923 22.3859 28.9839 22.6057 29.0571 22.7339C29.0571 22.5691 29.0205 22.4226 28.9839 22.2761L28.6909 20.9577C28.636 20.5915 28.4162 19.4196 28.2881 19.2365L28.1416 19.09C27.7937 18.797 27.1711 18.9069 26.4936 18.9069C25.7795 18.9069 25.0654 18.9069 24.3329 18.9069C24.3329 19.09 24.2963 19.0717 24.4611 19.1083C24.6992 19.1999 24.9189 19.1999 25.34 19.3647L26.3837 19.8591Z" fill="white"/>
</svg>
