<svg width="39" height="22" viewBox="0 0 39 22" fill="none" xmlns="http://www.w3.org/2000/svg">
<path fill-rule="evenodd" clip-rule="evenodd" d="M3.8171 10.5208C3.8171 10.1335 3.75972 9.71748 3.73103 9.35885C3.70234 9.15802 3.70234 8.97153 3.688 8.7707L3.48717 6.20291C3.48717 6.0738 3.51586 5.95904 3.40109 5.95904H0.431641V6.17422C1.10586 6.33202 1.37842 6.50416 1.57926 7.22142C1.7514 7.80957 1.7514 8.49814 1.83747 9.17236C1.96658 10.0761 2.05265 11.2524 2.16741 12.1705C2.1961 12.4861 2.25348 12.8591 2.26782 13.189H4.49133L6.05495 10.0044C6.12668 9.86093 6.18406 9.76052 6.25579 9.61707L7.43209 7.25011C7.47513 7.16404 7.48947 7.121 7.53251 7.04928L10.2581 1.71287C10.3298 1.56942 10.3872 1.469 10.4589 1.33989C10.5307 1.19644 10.588 1.08168 10.6598 0.938227C10.7028 0.837811 10.8462 0.608288 10.8606 0.522217H9.85643C9.6556 0.880846 9.32566 1.36858 9.09613 1.74156L3.8458 10.4634C3.8171 10.5208 3.8458 10.4921 3.8171 10.5208Z" fill="#838FC0"/>
<path fill-rule="evenodd" clip-rule="evenodd" d="M34.5312 11.7546H34.0004L34.4165 9.10071C34.4595 8.81381 34.5025 8.48387 34.5599 8.21131C35.1911 8.21131 35.5354 8.25434 35.9227 8.51256C36.8121 9.08636 36.5969 10.5926 35.6501 11.3672C35.5497 11.439 35.4493 11.4964 35.3345 11.5537C35.1481 11.6542 34.8038 11.7546 34.5312 11.7546ZM38.2036 9.30154V9.76059C38.2036 10.0045 38.1749 10.1192 38.0458 10.5639C37.8019 11.4246 37.0847 12.1849 36.3244 12.644C35.1481 13.3325 33.6275 13.1891 32.193 13.1891C32.0925 13.1891 32.1212 13.1461 32.1212 13.06C32.1643 12.6727 32.5516 10.4348 32.609 10.0475L33.0537 7.20714C33.0824 7.09238 33.111 6.94893 33.111 6.81982H35.478C36.5969 6.81982 37.472 7.36494 37.931 8.26869C38.0601 8.5269 38.2036 8.92857 38.2036 9.30154Z" fill="#838FC0"/>
<path fill-rule="evenodd" clip-rule="evenodd" d="M13.8169 9.66017C13.8599 9.55976 14.0177 8.35476 14.0894 8.09655C14.405 8.09655 14.6632 8.06786 14.8784 8.18262C15.4092 8.44083 15.3231 9.1294 14.8067 9.50237C14.5198 9.68886 14.2759 9.66017 13.8169 9.66017ZM11.6221 13.1891H13.2C13.3148 13.1891 13.2861 13.0456 13.3005 12.9309C13.3578 12.5436 13.6447 10.9799 13.6447 10.7504H13.7021C13.7021 10.8508 13.9173 11.2668 13.9603 11.3816L14.821 13.1891H16.9011C16.8581 13.06 16.4277 12.3714 16.3273 12.2136L15.3231 10.5783C15.5813 10.5209 15.7822 10.4205 15.9974 10.3057C16.1121 10.234 16.1695 10.1766 16.2699 10.1049C17.3028 9.2872 17.5036 6.81982 15.2944 6.81982H12.5975C12.5975 7.07804 12.5258 7.39363 12.4828 7.62315L12.1098 10.0045C12.0668 10.277 11.6221 12.9452 11.6221 13.1891Z" fill="#838FC0"/>
<path fill-rule="evenodd" clip-rule="evenodd" d="M7.16082 13.1889H10.5893C10.7184 13.1889 10.7328 12.7442 10.7758 12.5147L10.8906 11.7544H8.96832C8.96832 11.5679 8.99701 11.3958 9.0257 11.2093C9.05439 11.0658 9.11177 10.822 9.11177 10.6642H10.9766L11.1775 9.27268H9.34129C9.34129 9.01447 9.49909 8.48369 9.49909 8.21114H11.3927C11.5074 8.21114 11.4787 8.02465 11.5074 7.90989L11.6796 6.81965H8.25106C8.02154 6.81965 8.07892 6.74793 7.99285 7.2787L7.14648 12.6295C7.10344 12.9307 7.00303 13.1889 7.16082 13.1889Z" fill="#838FC0"/>
<path fill-rule="evenodd" clip-rule="evenodd" d="M27.5728 13.1891H31.1017C31.2164 13.1891 31.2021 13.0169 31.2164 12.8878L31.3886 11.7546H29.4663C29.4663 11.439 29.6241 10.9512 29.6241 10.6643H31.489C31.489 10.5639 31.5177 10.4061 31.532 10.3344L31.6898 9.27285H29.8536C29.8536 9.04333 29.9971 8.51256 29.9971 8.21131H31.8907C32.0198 8.21131 32.0054 8.02482 32.0198 7.91006L32.1919 6.81982H28.5769L27.6301 12.7731C27.6158 12.9022 27.5728 13.0456 27.5728 13.1891Z" fill="#838FC0"/>
<path fill-rule="evenodd" clip-rule="evenodd" d="M35.6218 16.2013C35.6361 16.4165 36.0378 17.9801 36.0378 18.2096H34.8615C34.8615 18.0949 35.1627 17.3776 35.2344 17.1911L35.6218 16.2013ZM32.4658 20.2323H34.0581C34.1872 19.9741 34.259 19.6442 34.3881 19.4003H36.3103C36.339 19.5437 36.3677 19.6442 36.4107 19.802C36.4251 19.9167 36.4825 20.1032 36.4825 20.2323H37.9313C37.7879 19.6155 36.7263 14.8385 36.7263 14.6377H35.3635C35.2344 14.6377 35.0623 14.6951 34.9762 14.7525C34.8615 14.8385 34.8041 14.8959 34.7324 15.0394L34.4024 15.771C34.0008 16.7321 33.4987 17.7793 33.097 18.7261C32.9966 18.9843 32.8818 19.2138 32.7671 19.472C32.681 19.6872 32.5089 20.0458 32.4658 20.2323Z" fill="#838FC0"/>
<path fill-rule="evenodd" clip-rule="evenodd" d="M21.7776 13.1891L22.0789 11.3242C22.1076 11.1234 22.1649 10.8795 22.1649 10.6643H24.0011C24.0011 10.4061 24.202 9.47368 24.202 9.27285H22.3945L22.581 8.21131H24.5606C24.5749 7.99613 24.6323 7.70923 24.6754 7.52274L24.7614 6.81982H21.1321L20.1279 13.1317C20.1566 13.2321 20.3861 13.1891 20.6157 13.1891C21.003 13.1891 21.3903 13.1891 21.7776 13.1891Z" fill="#838FC0"/>
<path fill-rule="evenodd" clip-rule="evenodd" d="M28.8495 16.3449C28.8495 17.306 29.6959 17.6646 30.3844 18.0089C30.4992 18.0519 30.5996 18.1237 30.7 18.1954C31.1304 18.4966 31.0013 18.8983 30.5136 19.0561C30.2266 19.1422 30.0115 19.0991 29.7676 19.0991C29.1221 19.0991 28.7347 18.8122 28.4335 18.7405C28.3905 18.927 28.3474 19.1852 28.3187 19.3717C28.29 19.5725 28.2327 19.8164 28.2327 20.0172C28.5196 20.0889 28.5196 20.132 29.0217 20.2324C30.4705 20.5193 32.5793 20.0889 32.5793 18.4249C32.5793 18.0232 32.5219 17.8368 32.278 17.5355C32.1776 17.4064 32.1346 17.3777 32.0055 17.2773C31.6755 16.9904 31.2882 16.8756 31.0013 16.7178C30.8291 16.6174 30.4418 16.4309 30.4418 16.2014C30.4418 15.9288 30.8291 15.728 31.1304 15.728C31.6755 15.728 31.8477 15.7137 32.3784 15.9002C32.4788 15.9432 32.5075 15.9719 32.6079 15.9862L32.7371 15.1972C32.7944 14.9103 32.8375 14.8099 32.7514 14.7525C32.5075 14.5804 31.3599 14.48 30.8291 14.566C30.284 14.6665 29.8537 14.8099 29.495 15.0968C29.1794 15.355 28.8495 15.771 28.8495 16.3449Z" fill="#838FC0"/>
<path fill-rule="evenodd" clip-rule="evenodd" d="M22.8388 17.6358C22.7814 17.5354 22.7097 17.3633 22.6523 17.2485C22.4945 16.9473 22.1789 16.5313 21.9781 16.3017C21.8346 16.1439 21.0456 15.4697 20.7444 15.3836C20.7444 15.4697 20.7874 15.5845 20.8161 15.6849C20.8448 15.7853 20.8735 15.857 20.9022 15.9861L21.2321 17.1768C21.3325 17.5641 22.0641 20.0745 22.0785 20.2323H23.7282C23.7712 20.0458 25.6504 15.6849 25.966 14.9963C25.9947 14.8959 26.0951 14.7381 26.0951 14.6377H24.4741L22.9966 18.3961C22.9966 18.2096 22.8818 17.7936 22.8388 17.6358Z" fill="#838FC0"/>
<path fill-rule="evenodd" clip-rule="evenodd" d="M13.2578 19.2712C12.8275 19.2712 12.6697 18.9413 12.6697 18.5396C12.6697 17.9084 13.516 17.4207 13.9034 17.8941C14.3194 18.4105 13.8316 19.2712 13.2578 19.2712ZM11.3643 20.2323H12.4258C12.4401 20.1319 12.4688 19.9598 12.4832 19.8737C12.8418 20.2897 12.9853 20.3184 13.516 20.3184C14.4772 20.3184 15.5531 18.8552 15.137 17.5785C15.0797 17.4063 14.9936 17.2198 14.8932 17.1051C14.4628 16.6317 13.932 16.5313 13.3295 16.7895C13.1287 16.8755 13.0426 16.976 12.8705 17.0907C12.9135 16.9186 12.9422 16.6747 12.9566 16.5026L13.2291 14.6377H12.1246C12.1246 15.1398 11.3643 19.6442 11.3643 20.2323Z" fill="#838FC0"/>
<path fill-rule="evenodd" clip-rule="evenodd" d="M24.7036 13.1891H26.3677C26.3677 13.06 26.3963 12.9165 26.425 12.8018L26.7406 10.8078C26.9128 9.63148 27.1423 8.3691 27.3001 7.23583C27.3288 7.07804 27.3575 6.94893 27.3718 6.81982H25.7078L24.7036 13.1891Z" fill="#838FC0"/>
<path fill-rule="evenodd" clip-rule="evenodd" d="M17.3314 13.1891C19.1245 13.1891 18.9093 13.3038 18.9667 12.8591C19.1388 11.5824 19.4544 9.7319 19.6696 8.44083L19.8561 7.23583C19.8704 7.10673 19.9135 6.97762 19.9135 6.81982H18.2494L17.3027 12.8591C17.274 13.0743 17.2166 13.1891 17.3314 13.1891Z" fill="#838FC0"/>
<path fill-rule="evenodd" clip-rule="evenodd" d="M14.9932 21.9105H16.2412C16.2986 21.7958 16.356 21.7097 16.4277 21.595C17.0445 20.6051 17.8192 19.3284 18.4504 18.3673L18.8377 17.7361C18.9094 17.6213 18.9668 17.5209 19.0385 17.4062C19.1246 17.2771 19.4115 16.8467 19.4402 16.7319H18.1921L17.3745 18.0517C17.3314 18.1378 17.2884 18.1951 17.2454 18.2669C17.231 18.3099 17.2167 18.3386 17.1736 18.3816L17.1019 18.482C17.0589 18.3242 17.0302 18.2095 16.9728 18.0517C16.8867 17.7935 16.5855 16.8754 16.5711 16.7319H15.2657C15.2801 16.861 15.3374 16.9901 15.3805 17.0906L15.7535 18.1378C15.9256 18.6112 16.0977 19.0415 16.2555 19.5292C16.3416 19.7588 16.3703 19.7014 16.0834 20.1461L15.1653 21.6093C15.1223 21.6954 15.0219 21.8101 14.9932 21.9105Z" fill="#838FC0"/>
<path fill-rule="evenodd" clip-rule="evenodd" d="M25.7366 20.2323L27.2428 20.218C27.3432 20.1893 27.3002 20.1893 27.3145 20.0602L28.2613 14.6377H26.6834L25.7366 20.2323Z" fill="#838FC0"/>
<path fill-rule="evenodd" clip-rule="evenodd" d="M1.56494 3.29091C1.56494 3.40567 1.96661 3.53478 2.1244 3.59216C2.31089 3.67823 2.52607 3.7643 2.7269 3.85038L3.9319 4.3668L4.07535 4.42418C4.17577 4.49591 4.11838 4.40984 4.14707 4.56763L4.33356 6.97763C4.3766 7.25018 4.26184 7.32191 4.52005 7.32191C4.62047 7.32191 4.76392 6.99197 4.84999 6.84852L5.45249 5.84436C5.5529 5.67221 5.63897 5.51442 5.73939 5.34227L6.04064 4.84019C6.09802 4.75412 6.12671 4.69674 6.18409 4.61067C6.24147 4.51025 6.27016 4.43853 6.32754 4.33811L6.70052 3.73561C6.72921 3.67823 6.74355 3.64954 6.77224 3.59216C6.93004 3.3196 6.9157 3.43436 6.9157 3.14746H1.56494V3.29091Z" fill="#838FC0"/>
<path fill-rule="evenodd" clip-rule="evenodd" d="M20.7444 15.3838C21.0456 15.4699 21.8346 16.1441 21.9781 16.3019C22.1789 16.5314 22.4945 16.9475 22.6523 17.2487C22.7097 17.3635 22.7814 17.5356 22.8388 17.636C22.8388 17.5069 22.8101 17.3922 22.7814 17.2774L22.5519 16.2445C22.5088 15.9576 22.3367 15.0395 22.2363 14.8961L22.1215 14.7813C21.849 14.5518 21.3612 14.6379 20.8305 14.6379C20.271 14.6379 19.7115 14.6379 19.1377 14.6379C19.1377 14.7813 19.109 14.767 19.2381 14.7957C19.4246 14.8674 19.5968 14.8674 19.9267 14.9965L20.7444 15.3838Z" fill="#838FC0"/>
</svg>
