<svg width="58" height="19" viewBox="0 0 58 19" fill="none" xmlns="http://www.w3.org/2000/svg">
<path fill-rule="evenodd" clip-rule="evenodd" d="M50.9882 5.69342C50.9882 5.8216 52.1417 11.0768 52.2699 11.6444L52.3615 12.0473H48.5162L49.7613 8.8795C49.8529 8.62315 49.9445 8.34849 50.0543 8.09214L50.9882 5.69342ZM41.3384 18.1081H46.2091C46.2274 18.0166 46.2823 17.8884 46.3189 17.7969L47.0513 15.8742C47.1063 15.7644 47.1429 15.6728 47.1795 15.5446H53.1122L53.6615 17.9983C53.6615 18.0532 53.6799 18.1081 53.7531 18.1081H57.9829C57.9829 17.9067 55.7124 7.72592 55.6391 7.43295C55.5109 6.73714 55.3095 5.96808 55.1813 5.29058C55.1081 4.94268 55.0165 4.57646 54.9433 4.22856L54.4672 2.10451C54.4306 1.90309 54.394 1.73829 54.3574 1.57349C54.339 1.48194 54.3207 1.39039 54.3024 1.31714C54.2658 1.20728 54.2841 1.0791 54.1926 1.0791H50.4205C49.4134 1.0791 48.7909 1.46363 48.3331 2.23268L47.8204 3.36795C47.4359 4.22856 46.9781 5.32721 46.5753 6.18781L45.8245 7.89072C45.5132 8.60484 45.1104 9.46545 44.8174 10.1429C44.5977 10.6923 44.2864 11.3148 44.085 11.8458C43.9934 12.0473 43.9019 12.2304 43.8286 12.4135L43.0779 14.1164C42.8399 14.6291 42.5652 15.3249 42.3272 15.8193C42.0891 16.2954 41.8145 17.0095 41.5764 17.5039C41.5398 17.6138 41.4849 17.7053 41.4482 17.7969C41.4299 17.8335 41.4116 17.8701 41.3933 17.925C41.3567 17.9983 41.3384 17.9983 41.3384 18.1081Z" fill="white"/>
<path fill-rule="evenodd" clip-rule="evenodd" d="M36.7958 13.091C36.7958 14.2995 35.2027 14.7573 34.2689 14.7573C33.1153 14.7573 32.4378 14.7573 31.3208 14.4643L29.2517 13.6952C29.2151 13.6769 29.1785 13.6586 29.1419 13.6403C29.032 13.6037 29.0686 13.5488 28.9587 14.1896L28.4094 17.4306C28.5559 17.5039 28.739 17.5588 28.9221 17.6321C29.5081 17.8152 29.9842 17.925 30.625 18.0532C31.3208 18.1997 31.8519 18.218 32.5294 18.3096C32.6575 18.3096 32.8406 18.3279 33.0421 18.3279H34.0858C34.5985 18.3279 35.1478 18.2729 35.6056 18.1997C36.0816 18.1265 36.5577 18.0349 36.9789 17.9067C37.1986 17.8335 37.4 17.7785 37.6198 17.7053C37.7296 17.6687 37.8212 17.6321 37.931 17.5771C38.6818 17.2842 39.1579 16.9729 39.7804 16.4968L40.4945 15.7644C41.2087 14.8854 41.6664 13.8234 41.6664 12.4867C41.6664 10.3077 40.1283 9.2091 38.7733 8.38511L37.9677 7.96396C37.7479 7.89072 37.6014 7.78086 37.4 7.70761L36.3197 7.12167C35.5506 6.68221 34.69 6.02302 35.4591 5.08917C35.8802 4.55816 36.9239 4.32012 37.6747 4.32012C38.4621 4.32012 38.8832 4.32012 39.6523 4.48491C39.817 4.50322 39.9635 4.53985 40.11 4.57647C40.4945 4.68633 41.1537 4.88775 41.5016 5.07086C41.5749 5.10748 41.6298 5.1441 41.7214 5.16241L42.2707 1.93971C42.289 1.77492 42.3073 1.61012 42.3439 1.48194C42.2341 1.4087 42.0693 1.37208 41.9411 1.31715C40.934 0.987552 39.6156 0.767823 38.5353 0.749512H38.4254C37.1254 0.749512 36.2464 0.804444 34.983 1.17066L34.0675 1.48194C33.9576 1.53688 33.8844 1.5735 33.7745 1.61012C33.4449 1.75661 33.0237 1.99465 32.7125 2.21438C31.8885 2.74539 31.4124 3.29471 30.918 4.1187C30.625 4.61309 30.3687 5.43707 30.3321 6.00471C30.3137 6.46248 30.3137 6.68221 30.4053 7.13998C30.7166 8.80626 32.3829 10.0148 33.7928 10.7289L34.6534 11.1317C34.8365 11.205 35.0196 11.3148 35.2027 11.4064C35.514 11.5529 35.9352 11.8275 36.2098 12.029C36.4845 12.267 36.7958 12.5966 36.7958 13.091Z" fill="white"/>
<path fill-rule="evenodd" clip-rule="evenodd" d="M11.9494 10.2711C11.8762 10.1613 11.748 9.83166 11.6748 9.68518C11.4367 9.13585 11.1071 8.56822 10.7958 8.07383C10.5944 7.72592 10.3381 7.37802 10.1 7.08504C9.95355 6.92025 9.862 6.79207 9.71551 6.62727C9.66058 6.55403 9.58734 6.48079 9.5324 6.40754C9.45916 6.3343 9.38592 6.26106 9.33098 6.18781C8.87321 5.67511 8.12247 5.01592 7.57315 4.61309C7.28017 4.37505 5.92518 3.40457 5.54065 3.2764C5.55896 3.36795 5.59558 3.44119 5.61389 3.51444L6.07166 5.12579C6.38295 6.3343 6.76747 7.59775 7.09707 8.82457L7.86612 11.5895C7.93936 11.8825 8.04923 12.2121 8.12247 12.5233L8.63517 14.3727C8.72673 14.684 8.81828 14.977 8.89152 15.2883L9.55071 17.6138C9.58734 17.7602 9.64227 17.925 9.67889 18.0715H13.3777C13.7988 18.0715 14.165 18.0532 14.5862 18.0532C14.6411 17.98 14.6594 17.8884 14.696 17.8152C14.8975 17.394 15.3186 16.3869 15.5017 15.9475L16.875 12.7797C17.3145 11.7177 17.8089 10.619 18.2483 9.57531C18.6695 8.5316 19.1822 7.43295 19.6217 6.38923L21.7823 1.33545C21.8189 1.2439 21.8739 1.15235 21.8922 1.04248H16.9849C16.93 1.15235 16.8933 1.26221 16.8384 1.39039L16.4173 2.47072C15.8313 3.91728 15.3003 5.38214 14.7144 6.82869L12.7368 11.9008C12.6819 12.0106 12.4621 12.5417 12.4621 12.6332C12.3889 12.5783 12.4255 12.56 12.3706 12.3586C12.3523 12.2487 12.334 12.1754 12.3156 12.0473L12.0776 10.8571C12.0593 10.7655 11.9677 10.3444 11.9494 10.2711Z" fill="white"/>
<path fill-rule="evenodd" clip-rule="evenodd" d="M20.8655 18.072H25.5164C25.5164 17.9438 25.5714 17.7058 25.608 17.5593L26.2305 13.8239C26.8348 10.2899 27.4757 6.701 28.0616 3.18533C28.1166 2.83743 28.1715 2.47121 28.2264 2.12331L28.4095 1.04297H23.7586C23.667 1.46412 23.4839 2.67263 23.4107 3.16702L22.1289 10.6195C22.0191 11.3153 20.8655 17.8706 20.8655 18.072Z" fill="white"/>
<path fill-rule="evenodd" clip-rule="evenodd" d="M5.53998 3.27609C5.92451 3.40427 7.27951 4.37474 7.57248 4.61278C8.1218 5.01562 8.87255 5.67481 9.33032 6.18751C9.38525 6.26075 9.45849 6.33399 9.53174 6.40724C9.58667 6.48048 9.65991 6.55372 9.71484 6.62697C9.86133 6.79176 9.95288 6.91994 10.0994 7.08474C10.3374 7.37771 10.5938 7.72562 10.7952 8.07352C11.1065 8.56791 11.4361 9.13555 11.6741 9.68487C11.7473 9.83136 11.8755 10.161 11.9488 10.2708C11.9488 10.1793 11.9121 10.106 11.8938 10.0145C11.8755 9.92291 11.8572 9.83136 11.8389 9.7398L10.4107 2.87325C10.2642 2.15913 10.0994 1.64643 9.42187 1.29853C9.1289 1.15204 8.78099 1.09711 8.39647 1.06049C8.15843 1.02386 6.2541 1.04218 5.83296 1.04218C4.13005 1.04218 2.42715 1.04218 0.724244 1.04218C0.724244 1.18866 0.687622 1.2619 0.669312 1.39008V1.40839C0.742555 1.44501 0.907352 1.46332 0.998906 1.49995L1.65809 1.68305C2.77505 1.99434 3.67228 2.36055 4.716 2.85494L5.53998 3.27609Z" fill="white"/>
</svg>
