<svg width="46" height="15" viewBox="0 0 46 15" fill="none" xmlns="http://www.w3.org/2000/svg">
<path fill-rule="evenodd" clip-rule="evenodd" d="M39.9515 4.34863C39.9515 4.44905 40.8553 8.56611 40.9557 9.01082L41.0274 9.32641H38.0149L38.9904 6.84469C39.0621 6.64386 39.1338 6.42868 39.2199 6.22785L39.9515 4.34863ZM32.3916 14.0747H36.2074C36.2218 14.0029 36.2648 13.9025 36.2935 13.8308L36.8673 12.3246C36.9103 12.2385 36.939 12.1668 36.9677 12.0663H41.6156L42.0459 13.9886C42.0459 14.0316 42.0603 14.0747 42.1176 14.0747H45.4314C45.4314 13.9169 43.6526 5.94095 43.5952 5.71142C43.4948 5.16631 43.337 4.56381 43.2366 4.03304C43.1792 3.76048 43.1075 3.47357 43.0501 3.20101L42.6771 1.53697C42.6484 1.37918 42.6197 1.25007 42.591 1.12096C42.5767 1.04924 42.5623 0.977511 42.548 0.92013C42.5193 0.834059 42.5336 0.733643 42.4619 0.733643H39.5068C38.7178 0.733643 38.2301 1.03489 37.8715 1.63739L37.4698 2.52679C37.1685 3.20101 36.8099 4.06173 36.4943 4.73595L35.9062 6.07005C35.6623 6.62951 35.3467 7.30374 35.1172 7.83451C34.945 8.26487 34.7012 8.7526 34.5434 9.16861C34.4717 9.32641 34.3999 9.46986 34.3425 9.61331L33.7544 10.9474C33.5679 11.3491 33.3527 11.8942 33.1662 12.2815C32.9798 12.6545 32.7646 13.214 32.5781 13.6013C32.5494 13.6873 32.5064 13.7591 32.4777 13.8308C32.4633 13.8595 32.449 13.8882 32.4346 13.9312C32.4059 13.9886 32.3916 13.9886 32.3916 14.0747Z" fill="#838FC0"/>
<path fill-rule="evenodd" clip-rule="evenodd" d="M28.8328 10.144C28.8328 11.0908 27.5848 11.4494 26.8532 11.4494C25.9494 11.4494 25.4186 11.4494 24.5436 11.2199L22.9226 10.6174C22.8939 10.603 22.8652 10.5887 22.8365 10.5744C22.7504 10.5457 22.7791 10.5026 22.6931 11.0047L22.2627 13.5438C22.3775 13.6012 22.5209 13.6442 22.6644 13.7016C23.1234 13.8451 23.4964 13.9311 23.9985 14.0315C24.5436 14.1463 24.9596 14.1606 25.4904 14.2324C25.5908 14.2324 25.7342 14.2467 25.892 14.2467H26.7097C27.1114 14.2467 27.5417 14.2037 27.9004 14.1463C28.2733 14.0889 28.6463 14.0172 28.9762 13.9168C29.1484 13.8594 29.3062 13.8164 29.4783 13.759C29.5644 13.7303 29.6361 13.7016 29.7222 13.6586C30.3103 13.429 30.6833 13.1852 31.1711 12.8122L31.7305 12.2384C32.29 11.5498 32.6486 10.7178 32.6486 9.67061C32.6486 7.96353 31.4436 7.10282 30.3821 6.45728L29.7509 6.12735C29.5787 6.06996 29.464 5.98389 29.3062 5.92651L28.4598 5.46747C27.8573 5.12318 27.1831 4.60676 27.7856 3.87515C28.1155 3.45914 28.9332 3.27265 29.5214 3.27265C30.1382 3.27265 30.4681 3.27265 31.0706 3.40176C31.1997 3.4161 31.3145 3.4448 31.4293 3.47349C31.7305 3.55956 32.2469 3.71735 32.5195 3.86081C32.5769 3.8895 32.6199 3.91819 32.6916 3.93253L33.122 1.40778C33.1363 1.27867 33.1507 1.14957 33.1794 1.04915C33.0933 0.991768 32.9642 0.963078 32.8638 0.920043C32.0748 0.661829 31.0419 0.489687 30.1956 0.475342H30.1095C29.091 0.475342 28.4024 0.518377 27.4126 0.805281L26.6954 1.04915C26.6093 1.09218 26.5519 1.12088 26.4658 1.14957C26.2076 1.26433 25.8777 1.45081 25.6338 1.62296C24.9883 2.03897 24.6153 2.46932 24.228 3.11486C23.9985 3.50218 23.7976 4.14771 23.7689 4.59241C23.7546 4.95104 23.7546 5.12318 23.8263 5.48181C24.0702 6.78722 25.3756 7.73401 26.4802 8.29347L27.1544 8.60906C27.2979 8.66644 27.4413 8.75251 27.5848 8.82424C27.8286 8.939 28.1586 9.15418 28.3737 9.31198C28.5889 9.49846 28.8328 9.75668 28.8328 10.144Z" fill="#838FC0"/>
<path fill-rule="evenodd" clip-rule="evenodd" d="M9.36749 7.93481C9.31011 7.84874 9.2097 7.59052 9.15232 7.47576C8.96583 7.04541 8.70762 6.60071 8.46375 6.21339C8.30595 5.94083 8.10512 5.66827 7.91863 5.43875C7.80387 5.30964 7.73214 5.20922 7.61738 5.08012C7.57435 5.02274 7.51697 4.96535 7.47393 4.90797C7.41655 4.85059 7.35917 4.79321 7.31613 4.73583C6.9575 4.33417 6.36935 3.81774 5.939 3.50215C5.70947 3.31566 4.64793 2.55536 4.34668 2.45495C4.36102 2.52667 4.38972 2.58405 4.40406 2.64143L4.76269 3.90381C5.00656 4.85059 5.30781 5.84041 5.56602 6.80154L6.16852 8.96766C6.2259 9.19719 6.31197 9.4554 6.36935 9.69927L6.77102 11.1481C6.84274 11.392 6.91447 11.6215 6.97185 11.8654L7.48828 13.6872C7.51697 13.802 7.56 13.9311 7.58869 14.0459H10.4864C10.8164 14.0459 11.1033 14.0315 11.4332 14.0315C11.4762 13.9741 11.4906 13.9024 11.5193 13.845C11.6771 13.5151 12.007 12.7261 12.1505 12.3818L13.2263 9.9001C13.5706 9.06808 13.958 8.20737 14.3022 7.38969C14.6322 6.57202 15.0338 5.7113 15.3781 4.89363L17.0709 0.934357C17.0996 0.862631 17.1426 0.790905 17.1569 0.704834H13.3124C13.2694 0.790905 13.2407 0.876976 13.1977 0.977393L12.8677 1.82376C12.4087 2.95703 11.9927 4.10464 11.5336 5.23791L9.98434 9.21153C9.9413 9.2976 9.76916 9.71361 9.76916 9.78534C9.71178 9.7423 9.74047 9.72796 9.69743 9.57016C9.68309 9.48409 9.66874 9.42671 9.6544 9.32629L9.46791 8.39385C9.45357 8.32213 9.38184 7.99219 9.36749 7.93481Z" fill="#838FC0"/>
<path fill-rule="evenodd" clip-rule="evenodd" d="M16.3521 14.0461H19.9957C19.9957 13.9457 20.0388 13.7592 20.0675 13.6444L20.5552 10.718C21.0286 7.9494 21.5307 5.13774 21.9897 2.38347C22.0327 2.11091 22.0758 1.824 22.1188 1.55144L22.2623 0.705078H18.6186C18.5469 1.03502 18.4034 1.9818 18.346 2.36912L17.3419 8.20761C17.2558 8.75273 16.3521 13.8883 16.3521 14.0461Z" fill="#838FC0"/>
<path fill-rule="evenodd" clip-rule="evenodd" d="M4.34512 2.45438C4.64637 2.5548 5.70791 3.31509 5.93743 3.50158C6.36779 3.81718 6.95594 4.3336 7.31457 4.73527C7.35761 4.79265 7.41499 4.85003 7.47237 4.90741C7.5154 4.96479 7.57278 5.02217 7.61582 5.07955C7.73058 5.20866 7.80231 5.30907 7.91707 5.43818C8.10356 5.6677 8.30439 5.94026 8.46218 6.21282C8.70605 6.60014 8.96427 7.04484 9.15075 7.4752C9.20813 7.58996 9.30855 7.84817 9.36593 7.93424C9.36593 7.86252 9.33724 7.80514 9.3229 7.73341C9.30855 7.66169 9.29421 7.58996 9.27986 7.51823L8.16094 2.13879C8.04617 1.57933 7.91707 1.17766 7.3863 0.905103C7.15677 0.790341 6.88421 0.747305 6.58297 0.718615C6.39648 0.689925 4.90458 0.70427 4.57464 0.70427C3.24054 0.70427 1.90643 0.70427 0.572332 0.70427C0.572332 0.819031 0.543642 0.876412 0.529297 0.976828V0.991174C0.586678 1.01986 0.715784 1.03421 0.78751 1.0629L1.30394 1.20635C2.17899 1.45022 2.88191 1.73712 3.69958 2.12444L4.34512 2.45438Z" fill="#838FC0"/>
</svg>
