<svg width="55" height="16" viewBox="0 0 55 16" fill="none" xmlns="http://www.w3.org/2000/svg">
<path fill-rule="evenodd" clip-rule="evenodd" d="M47.8258 11.6609C47.858 12.1436 48.035 11.6126 47.6488 12.5941C47.5201 12.9159 47.4075 13.1733 47.2788 13.5112C47.1339 13.8973 46.6191 15.0397 46.5547 15.3615H49.5635L50.9633 11.6448L53.3124 5.57901C53.425 5.25722 54.0525 3.71262 54.0686 3.51954H51.2046L49.4669 8.87738C49.4509 8.86129 49.4509 8.8452 49.4509 8.8452L48.9843 7.57412C48.6303 6.6731 48.1637 5.09632 47.8258 4.22748C47.7453 4.01832 47.6327 3.74479 47.5845 3.51954H44.624L47.7453 11.5804C47.8097 11.677 47.7614 11.6287 47.8258 11.6609ZM12.6539 9.44052V12.1597H15.4696V9.45661V6.38349C16.4028 6.15824 16.7889 5.82035 18.1726 6.01343C18.768 6.10997 18.7036 6.39958 18.7036 5.11241C18.7036 4.58145 18.7036 4.0505 18.7036 3.51954C17.9474 3.45518 17.5934 3.423 16.8211 3.80915C16.0327 4.1953 15.8879 4.45274 15.4696 4.74235V3.51954H12.6539V9.44052ZM44.5757 6.56048C44.5757 5.96516 44.5918 5.70773 44.447 5.25722C43.8195 3.22993 41.1486 3.22993 39.3627 3.2782C38.9122 3.29429 37.1906 3.5839 36.9331 3.71262L36.917 5.35376C36.917 5.57901 36.8688 5.756 37.0297 5.82035C37.1262 5.83644 38.2364 5.40202 38.7191 5.30549C39.2983 5.19286 40.1511 5.16068 40.7464 5.2894C41.406 5.41811 41.8083 5.69164 41.8083 6.48003H41.5508L39.5396 6.68919C37.6089 6.96272 35.9517 7.73502 36.2091 10.0519C36.4504 12.1758 38.7352 12.8515 40.4085 12.1758C40.8751 11.9827 41.1003 11.8379 41.4704 11.5322C41.583 11.4517 41.7117 11.3391 41.8083 11.2747V12.1597H44.5757V6.56048ZM20.2965 6.62484C20.2965 7.67066 20.1999 9.85885 20.4895 10.7116C21.0849 12.5297 23.5305 12.5136 25.1716 12.2401C25.3808 12.1918 25.59 12.1275 25.7991 12.1114V10.1967C25.2038 10.1967 25.1877 10.422 24.3832 10.422C23.7879 10.422 23.45 10.2611 23.257 9.85885C22.9995 9.29571 23.1121 7.47759 23.1121 6.62484V5.40202H25.7991V3.51954H23.1121V1.02565H20.2965V3.51954H19.2185V5.40202H20.2965V6.62484ZM30.0629 4.25966V2.85987C30.8513 2.85987 31.527 2.8116 32.1384 3.00467C33.0234 3.29429 33.0073 3.76088 33.1682 4.25966C33.1682 5.14459 32.9751 5.67555 32.3798 5.98125C31.704 6.33522 31.0604 6.23868 30.0629 6.23868V4.25966ZM36.2735 4.30793C36.2091 3.2782 35.9678 2.4898 35.4046 1.92667C34.4392 0.945202 33.2486 0.736037 31.9453 0.703857H27.0702V3.8896V12.1597H30.0629V8.45905C32.4119 8.45905 33.7474 8.44296 35.1794 7.12361C35.3885 6.93054 35.5977 6.62484 35.7425 6.38349C36.0482 5.86862 36.2735 4.90325 36.2735 4.30793ZM5.51011 6.62484L6.39504 4.09877C6.39504 4.09877 6.41113 4.14703 6.41113 4.16312L6.99035 5.93298C7.05471 6.15824 7.11907 6.39958 7.19952 6.57657C7.24779 6.76964 7.32824 6.96272 7.3765 7.1397C7.42477 7.34887 7.48913 7.59021 7.56958 7.75111H5.17223C5.2205 7.55803 5.28485 7.41323 5.34921 7.22015C5.39748 7.05926 5.49402 6.76964 5.51011 6.62484ZM10.0635 6.5283C10.0474 6.30304 8.56714 2.1841 8.3097 1.42789L8.03618 0.703857H4.7539C4.70563 0.929112 4.593 1.21873 4.51255 1.44398L2.74269 6.57657L1.02111 11.4356C0.924568 11.6931 0.811941 11.9183 0.763672 12.1597H3.77243C3.88506 11.9183 4.35166 10.1967 4.52864 9.85885H8.22925C8.32579 10.2772 8.90502 11.87 8.9372 12.1597H12.0425C12.0103 11.9344 11.8816 11.6287 11.8011 11.4517C11.592 10.8564 10.2244 6.76964 10.0635 6.5283ZM39.0409 9.53706C39.0409 8.49123 40.0062 8.28207 40.8751 8.21771C41.1808 8.20162 41.5187 8.12117 41.8083 8.12117V9.81058C41.8083 10.3576 39.0409 11.2104 39.0409 9.53706Z" fill="#838FC0"/>
<path fill-rule="evenodd" clip-rule="evenodd" d="M3.90087 13.2215L3.59517 13.4306L3.56299 13.3985C3.43427 13.2536 3.28947 13.141 3.11248 13.0606C2.93549 12.9801 2.74242 12.9479 2.54934 12.9479C2.32409 12.9479 2.11492 12.9962 1.92185 13.0927C1.72877 13.1893 1.58397 13.318 1.47134 13.495C1.35871 13.672 1.31044 13.8651 1.31044 14.0742C1.31044 14.396 1.42307 14.6534 1.66442 14.8787C1.92185 15.104 2.22755 15.2005 2.56543 15.2005C2.96767 15.2005 3.28947 15.0557 3.56299 14.7661L3.59517 14.7339L3.90087 14.9591L3.86869 14.9913C3.7078 15.1683 3.51472 15.3131 3.30556 15.4097C3.06421 15.5062 2.80678 15.5545 2.54934 15.5545C2.06666 15.5545 1.63224 15.4097 1.29435 15.0557C1.03692 14.7822 0.908203 14.4443 0.908203 14.0581C0.908203 13.6398 1.0691 13.2858 1.3748 13.0123C1.71268 12.7066 2.09883 12.5779 2.54934 12.5779C2.80678 12.5779 3.06421 12.6261 3.30556 12.7388C3.53081 12.8353 3.7078 12.9801 3.86869 13.1732L3.90087 13.2215ZM4.68926 14.7982L6.23387 13.3663H6.31431V15.4901H5.94425V14.0581L4.43183 15.4901H4.3192V13.3663H4.68926V14.7982ZM9.06564 13.849L8.77602 14.0259L8.74385 13.9938C8.55077 13.7524 8.29334 13.6559 7.98763 13.6559C7.76238 13.6559 7.53712 13.7202 7.36014 13.8811C7.19924 14.0259 7.11879 14.2029 7.11879 14.4282C7.11879 14.5569 7.15097 14.6856 7.23142 14.8143C7.31187 14.9431 7.40841 15.0235 7.53712 15.104C7.68193 15.1683 7.84283 15.2005 7.98763 15.2005C8.29334 15.2005 8.55077 15.0879 8.74385 14.8626L8.77602 14.8304L9.06564 15.0074L9.03346 15.0557C8.92083 15.2166 8.77602 15.3292 8.59904 15.4097C8.40596 15.5062 8.1968 15.5384 7.98763 15.5384C7.64975 15.5384 7.34405 15.4418 7.08662 15.2166C6.86136 15.0074 6.73264 14.75 6.73264 14.4443C6.73264 14.2351 6.797 14.042 6.90963 13.8651C7.02226 13.6881 7.16706 13.5593 7.36014 13.4628C7.5693 13.3663 7.77847 13.318 8.00372 13.318C8.14853 13.318 8.29334 13.3341 8.43814 13.3824C8.56686 13.4145 8.67949 13.4628 8.79211 13.5433C8.88865 13.6237 8.9691 13.7042 9.03346 13.8007L9.06564 13.849ZM10.1919 13.6881V15.4901H9.82185V13.6881H9.24262V13.3663H10.7711V13.6881H10.1919ZM11.3343 14.4925C11.3504 14.6856 11.4147 14.8465 11.5595 14.9913C11.7043 15.1361 11.8974 15.2005 12.1066 15.2005C12.2031 15.2005 12.3157 15.1844 12.4123 15.1522C12.5088 15.12 12.5893 15.0718 12.6697 15.0074C12.7502 14.9431 12.8306 14.8304 12.895 14.7339L12.9111 14.7017L13.2328 14.8626L13.2168 14.9109C13.1363 15.0396 13.0398 15.1522 12.9271 15.2648C12.8306 15.3453 12.7019 15.4097 12.5732 15.4579C12.4284 15.5062 12.2836 15.5384 12.1227 15.5384C11.8009 15.5384 11.4952 15.4418 11.2699 15.2005C11.0608 14.9752 10.9481 14.7178 10.9481 14.4282C10.9481 14.1547 11.0447 13.9294 11.2216 13.7202C11.4469 13.4467 11.7526 13.318 12.1066 13.318C12.4766 13.318 12.7984 13.4467 13.0398 13.7202C13.2168 13.9294 13.2811 14.1708 13.2972 14.4443V14.4925H11.3343ZM16.0968 14.0581L15.2923 15.4901H15.1958L14.3913 14.0581L13.8764 15.4901H13.4903L14.2626 13.3663H14.3913L15.2441 14.8948L16.0968 13.3663H16.2416L16.9978 15.4901H16.6117L16.0968 14.0581ZM19.186 15.2005C19.0895 15.297 18.9929 15.3775 18.8642 15.4257C18.7033 15.5062 18.5424 15.5384 18.3654 15.5384C18.0436 15.5384 17.7701 15.4257 17.5449 15.2166C17.3196 14.9913 17.207 14.7339 17.207 14.4121C17.207 14.1064 17.3196 13.849 17.5449 13.6398C17.7862 13.4145 18.0597 13.318 18.3815 13.318C18.5424 13.318 18.7194 13.3502 18.8803 13.4306C18.9929 13.4789 19.1056 13.5593 19.186 13.6559V13.3663H19.5561V15.4901H19.186V15.2005ZM23.0958 13.7042H21.9212V15.4901H21.5512V13.3663H23.4658V15.4901H23.0958V13.7042ZM24.8496 14.0581L24.1577 15.4901H23.7555L24.8013 13.3663H24.8978L25.9597 15.4901H25.5575L24.8496 14.0581ZM28.1479 15.2005C28.0514 15.297 27.9388 15.3775 27.81 15.4257C27.6652 15.5062 27.4882 15.5384 27.3113 15.5384C27.0056 15.5384 26.732 15.4257 26.5068 15.2166C26.2815 14.9913 26.1528 14.7339 26.1528 14.4121C26.1528 14.1064 26.2815 13.849 26.5068 13.6398C26.732 13.4145 27.0056 13.318 27.3274 13.318C27.5043 13.318 27.6652 13.3502 27.8261 13.4306C27.9548 13.4789 28.0514 13.5593 28.1479 13.6559V13.3663H28.518V15.4901H28.1479V15.2005ZM29.7569 13.6881V15.4901H29.3868V13.6881H28.8076V13.3663H30.3361V13.6881H29.7569ZM30.8992 14.4925C30.8992 14.6856 30.9797 14.8465 31.1245 14.9913C31.2693 15.1361 31.4624 15.2005 31.6715 15.2005C31.7681 15.2005 31.8807 15.1844 31.9772 15.1522C32.0577 15.12 32.1542 15.0718 32.2347 15.0074C32.3151 14.9431 32.3956 14.8304 32.4599 14.7339L32.476 14.7017L32.7978 14.8626L32.7656 14.9109C32.7013 15.0396 32.6047 15.1522 32.4921 15.2648C32.3795 15.3453 32.2669 15.4097 32.1381 15.4579C31.9933 15.5062 31.8485 15.5384 31.6876 15.5384C31.3658 15.5384 31.0601 15.4418 30.8188 15.2005C30.6257 14.9752 30.5131 14.7178 30.5131 14.4282C30.5131 14.1547 30.5935 13.9294 30.7705 13.7202C31.0119 13.4467 31.3176 13.318 31.6715 13.318C32.0416 13.318 32.3634 13.4467 32.6047 13.7202C32.7817 13.9294 32.8461 14.1708 32.8461 14.4443V14.4925H30.8992ZM34.7608 14.2029L35.7422 13.3663H36.2249L35.1308 14.3156L36.2893 15.4901H35.7905L34.8734 14.5247L34.7608 14.6052V15.4901H34.3907V14.6052L34.2781 14.5247L33.361 15.4901H32.8783L34.0045 14.3156L32.9426 13.3663H33.4253L34.3907 14.2029V13.3663H34.7608V14.2029ZM36.6915 14.4925C36.7076 14.6856 36.772 14.8465 36.9168 14.9913C37.0777 15.1361 37.2546 15.2005 37.4638 15.2005C37.5764 15.2005 37.673 15.1844 37.7695 15.1522C37.866 15.12 37.9626 15.0718 38.0269 15.0074C38.1235 14.9431 38.2039 14.8304 38.2522 14.7339L38.2844 14.7017L38.5901 14.8626L38.574 14.9109C38.4935 15.0396 38.4131 15.1522 38.3005 15.2648C38.1878 15.3453 38.0752 15.4097 37.9304 15.4579C37.8017 15.5062 37.6408 15.5384 37.496 15.5384C37.1581 15.5384 36.8524 15.4418 36.6271 15.2005C36.418 14.9752 36.3054 14.7178 36.3054 14.4282C36.3054 14.1547 36.4019 13.9294 36.5789 13.7202C36.8041 13.4467 37.1098 13.318 37.4799 13.318C37.85 13.318 38.1557 13.4467 38.397 13.7202C38.574 13.9294 38.6544 14.1708 38.6544 14.4443V14.4925H36.6915ZM39.4428 14.7982L40.9713 13.3663H41.0679V15.4901H40.6978V14.0581L39.1693 15.4901H39.0728V13.3663H39.4428V14.7982ZM39.298 12.7066H39.652L39.6681 12.7227C39.7003 12.787 39.7646 12.8192 39.829 12.8514C39.9094 12.8836 39.9899 12.8997 40.0864 12.8997C40.1508 12.8997 40.2473 12.8836 40.3117 12.8675C40.3921 12.8353 40.4404 12.771 40.4887 12.7227L40.5047 12.7066H40.8426L40.8265 12.771C40.7944 12.8997 40.6978 12.9962 40.5852 13.0767C40.4243 13.1571 40.2473 13.1893 40.0703 13.1893C39.9094 13.1893 39.7324 13.1571 39.5715 13.0767C39.4589 12.9962 39.3624 12.8997 39.3141 12.771L39.298 12.7066ZM12.8789 14.1708C12.8467 14.0742 12.7984 13.9938 12.7341 13.9133C12.6697 13.8329 12.5732 13.7685 12.4766 13.7363C12.364 13.6881 12.2353 13.6559 12.1227 13.6559C11.9296 13.6559 11.7526 13.7202 11.5917 13.8329C11.4952 13.9294 11.4147 14.042 11.3825 14.1708H12.8789ZM18.3976 13.6559C18.2528 13.6559 18.108 13.6881 17.9954 13.7685C17.8667 13.8329 17.7701 13.9294 17.6897 14.042C17.6253 14.1547 17.577 14.2834 17.577 14.4282C17.577 14.573 17.6253 14.6856 17.6897 14.8143C17.7701 14.927 17.8667 15.0235 17.9954 15.104C18.1241 15.1683 18.2528 15.2005 18.3976 15.2005C18.5424 15.2005 18.6711 15.1683 18.7999 15.104C18.9286 15.0396 19.0251 14.9431 19.1056 14.8304C19.1699 14.7017 19.2021 14.573 19.2021 14.4282C19.2021 14.219 19.1377 14.0259 18.9768 13.8811C18.8159 13.7363 18.6229 13.6559 18.3976 13.6559ZM27.3434 13.6559C27.1986 13.6559 27.0699 13.6881 26.9412 13.7685C26.8125 13.8329 26.7159 13.9294 26.6516 14.042C26.5711 14.1547 26.539 14.2834 26.539 14.4282C26.539 14.573 26.5711 14.6856 26.6516 14.8143C26.7159 14.927 26.8125 15.0235 26.9412 15.104C27.0699 15.1683 27.1986 15.2005 27.3434 15.2005C27.4882 15.2005 27.6331 15.1683 27.7618 15.104C27.8744 15.0396 27.987 14.9431 28.0514 14.8304C28.1318 14.7017 28.164 14.573 28.164 14.4282C28.164 14.219 28.0836 14.0259 27.9227 13.8811C27.7618 13.7363 27.5687 13.6559 27.3434 13.6559ZM32.4438 14.1708C32.4117 14.0742 32.3634 13.9938 32.299 13.9133C32.2347 13.8329 32.1381 13.7685 32.0255 13.7363C31.9129 13.6881 31.8003 13.6559 31.6715 13.6559C31.4785 13.6559 31.3015 13.7202 31.1567 13.8329C31.0441 13.9294 30.9797 14.042 30.9314 14.1708H32.4438ZM38.2361 14.1708C38.2039 14.0742 38.1717 13.9938 38.1074 13.9133C38.0269 13.8329 37.9304 13.7685 37.8339 13.7363C37.7212 13.6881 37.6086 13.6559 37.4799 13.6559C37.2868 13.6559 37.1098 13.7202 36.965 13.8329C36.8524 13.9294 36.788 14.042 36.7398 14.1708H38.2361Z" fill="#838FC0"/>
</svg>
