<svg width="41" height="40" viewBox="0 0 41 40" fill="none" xmlns="http://www.w3.org/2000/svg">
<g clip-path="url(#clip0)">
<path fill-rule="evenodd" clip-rule="evenodd" d="M20.7047 0.0345118L38.0742 6.04702C38.364 6.14726 38.5385 6.44242 38.4868 6.74468L34.4784 30.1268C34.4502 30.2915 34.3573 30.4382 34.2202 30.534L20.859 39.8869C20.7512 39.9622 20.6255 40 20.4998 40C20.3742 40 20.2485 39.9622 20.1407 39.8869L6.77949 30.534C6.64253 30.4381 6.54956 30.2915 6.52136 30.1268L2.51299 6.74468C2.46112 6.44242 2.63573 6.14726 2.92542 6.04702L20.295 0.0345118C20.4276 -0.0115039 20.5719 -0.0115039 20.7047 0.0345118ZM20.4998 38.6093L33.2879 29.6576L37.1622 7.05679L20.4998 1.28905L3.83737 7.05687L7.71183 29.6576L20.4998 38.6093ZM35.2457 7.71911L20.7045 2.68559C20.5719 2.63957 20.4275 2.63957 20.2948 2.68559L5.75371 7.71911C5.46402 7.81935 5.28949 8.11458 5.34136 8.41677L8.81395 28.6737C8.84215 28.8385 8.93512 28.985 9.07207 29.081L20.1405 36.8289C20.2483 36.9043 20.3741 36.942 20.4997 36.942C20.6254 36.942 20.751 36.9043 20.8588 36.8289L31.9274 29.081C32.0645 28.9851 32.1574 28.8385 32.1856 28.6737L35.6582 8.41677C35.71 8.11458 35.5355 7.81927 35.2457 7.71911ZM30.9952 28.2045L20.4998 35.5512L10.0043 28.2045L6.66566 8.72888L20.4998 3.94012L34.3338 8.72888L30.9952 28.2045ZM24.0444 6.49273L26.7169 7.41781C27.0438 7.53085 27.2171 7.88765 27.1039 8.21445C27.0143 8.47359 26.7716 8.63609 26.5121 8.63609C26.4442 8.63609 26.3751 8.62484 26.3072 8.6014L23.6347 7.67632C23.3079 7.5632 23.1346 7.20656 23.2477 6.87968C23.3608 6.55288 23.7174 6.3796 24.0444 6.49273ZM32.4173 9.39116L28.3874 7.99615C28.0606 7.88311 27.7038 8.05639 27.5908 8.38311C27.4776 8.7099 27.651 9.06655 27.9777 9.17967L31.5053 10.4009L30.9658 13.5476C30.9075 13.8886 31.1364 14.2123 31.4773 14.2709C31.5132 14.2769 31.5487 14.2798 31.5839 14.2798C31.8833 14.2798 32.1482 14.0644 32.2005 13.7594L32.8297 10.0888C32.8815 9.78662 32.707 9.49139 32.4173 9.39116ZM30.7728 18.3806C30.4322 18.3223 30.1082 18.5512 30.0497 18.892L29.0762 24.5706C29.0179 24.9115 29.2468 25.2353 29.5877 25.2938C29.6236 25.2999 29.6591 25.3028 29.6943 25.3028C29.9937 25.3028 30.2586 25.0873 30.3109 24.7823L31.2843 19.1038C31.3428 18.7629 31.1137 18.4391 30.7728 18.3806Z" fill="#69A5FF"/>
<path d="M21.6315 17.468C23.4557 16.9699 24.8008 15.2994 24.8008 13.3194C24.8008 10.948 22.8715 9.0188 20.5002 9.0188C18.1288 9.0188 16.1995 10.948 16.1995 13.3194C16.1995 15.2993 17.5447 16.9699 19.3688 17.468C16.2455 18.0068 13.8613 20.7335 13.8613 24.0084V27.3488C13.8613 27.6947 14.1417 27.9751 14.4877 27.9751H26.5127C26.8586 27.9751 27.139 27.6948 27.139 27.3488V24.0084C27.1389 20.7335 24.7549 18.0069 21.6315 17.468ZM17.4521 13.3195C17.4521 11.6388 18.8195 10.2715 20.5002 10.2715C22.1809 10.2715 23.5482 11.6388 23.5482 13.3195C23.5482 15.0002 22.1809 16.3676 20.5002 16.3676C18.8195 16.3676 17.4521 15.0001 17.4521 13.3195ZM25.8864 26.7224H15.1139V24.0084C15.1139 21.0385 17.5302 18.6222 20.5002 18.6222C23.4702 18.6222 25.8864 21.0384 25.8864 24.0084V26.7224H25.8864Z" fill="white"/>
</g>
<defs>
<clipPath id="clip0">
<rect width="40" height="40" fill="white" transform="translate(0.5)"/>
</clipPath>
</defs>
</svg>
