<svg width="41" height="40" viewBox="0 0 41 40" fill="none" xmlns="http://www.w3.org/2000/svg">
<g clip-path="url(#clip0)">
<path fill-rule="evenodd" clip-rule="evenodd" d="M36.3984 3.4082H4.60156C2.33992 3.4082 0.5 5.24813 0.5 7.50977V27.4219C0.5 28.1777 1.67188 28.1777 1.67188 27.4219V10.8105H39.3281V32.4902C39.3281 34.1057 38.0139 35.4199 36.3984 35.4199H36.2422V27.7344C36.2422 27.4108 35.9798 27.1484 35.6562 27.1484H22.0625C21.7389 27.1484 21.4766 27.4108 21.4766 27.7344V35.4199H4.60156C2.98609 35.4199 1.67188 34.1057 1.67188 32.4902V30.5469C1.67188 29.7911 0.5 29.7911 0.5 30.5469V32.4902C0.5 34.7519 2.33992 36.5918 4.60156 36.5918H22.0625H35.6562H36.3984C38.6601 36.5918 40.5 34.7519 40.5 32.4902V7.50977C40.5 5.24813 38.6601 3.4082 36.3984 3.4082ZM22.6484 35.4199V28.3203H35.0703V35.4199H22.6484ZM1.67188 9.63867V7.50977C1.67188 5.8943 2.98609 4.58008 4.60156 4.58008H36.3984C38.0139 4.58008 39.3281 5.8943 39.3281 7.50977V9.63867H1.67188ZM5.38281 6.20117C4.77969 6.20117 4.28906 6.6918 4.28906 7.29492C4.28906 7.89805 4.77969 8.38867 5.38281 8.38867C5.98594 8.38867 6.47656 7.89805 6.47656 7.29492C6.47656 6.6918 5.98594 6.20117 5.38281 6.20117ZM5.38281 7.37305C5.33977 7.37305 5.30469 7.33797 5.30469 7.29492C5.30469 7.25187 5.33977 7.2168 5.38281 7.2168C5.42586 7.2168 5.46094 7.25187 5.46094 7.29492C5.46094 7.33797 5.42586 7.37305 5.38281 7.37305ZM8.03906 7.29492C8.03906 6.6918 8.52969 6.20117 9.13281 6.20117C9.73594 6.20117 10.2266 6.6918 10.2266 7.29492C10.2266 7.89805 9.73594 8.38867 9.13281 8.38867C8.52969 8.38867 8.03906 7.89805 8.03906 7.29492ZM9.05469 7.29492C9.05469 7.33797 9.08977 7.37305 9.13281 7.37305C9.17586 7.37305 9.21094 7.33797 9.21094 7.29492C9.21094 7.25187 9.17586 7.2168 9.13281 7.2168C9.08977 7.2168 9.05469 7.25187 9.05469 7.29492ZM12.8828 6.20117C12.2797 6.20117 11.7891 6.6918 11.7891 7.29492C11.7891 7.89805 12.2797 8.38867 12.8828 8.38867C13.4859 8.38867 13.9766 7.89805 13.9766 7.29492C13.9766 6.6918 13.4859 6.20117 12.8828 6.20117ZM12.8828 7.37305C12.8398 7.37305 12.8047 7.33797 12.8047 7.29492C12.8047 7.25187 12.8398 7.2168 12.8828 7.2168C12.9259 7.2168 12.9609 7.25187 12.9609 7.29492C12.9609 7.33797 12.9259 7.37305 12.8828 7.37305ZM17.6877 28.3203H4.87519C4.1194 28.3203 4.1194 27.1484 4.87519 27.1484H17.6877C18.4435 27.1484 18.4435 28.3203 17.6877 28.3203ZM4.87519 30.9766H17.6877C18.4435 30.9766 18.4435 29.8047 17.6877 29.8047H4.87519C4.1194 29.8047 4.1194 30.9766 4.87519 30.9766ZM17.6877 33.6328H4.87519C4.1194 33.6328 4.1194 32.4609 4.87519 32.4609H17.6877C18.4435 32.4609 18.4435 33.6328 17.6877 33.6328Z" fill="#69A5FF"/>
<path d="M35.7344 17.0703C36.058 17.0703 36.3203 16.808 36.3203 16.4844V13.9941C36.3203 13.6705 36.058 13.4082 35.7344 13.4082H4.875C4.55141 13.4082 4.28906 13.6705 4.28906 13.9941V24.4531C4.28906 24.7767 4.55141 25.0391 4.875 25.0391H35.7344C36.058 25.0391 36.3203 24.7767 36.3203 24.4531V19.6094C36.3203 18.8536 35.1484 18.8536 35.1484 19.6094V23.8672H18.5584L27.8666 14.5948C27.8714 14.59 27.8755 14.5849 27.88 14.5801H35.1484V16.4844C35.1484 16.808 35.4108 17.0703 35.7344 17.0703ZM16.898 23.8672H5.46094V14.5801H26.2209L16.898 23.8672Z" fill="white"/>
<path d="M32.375 17.6172H29.0546C28.2988 17.6172 28.2988 18.7891 29.0546 18.7891H32.375C33.1307 18.7891 33.1307 17.6172 32.375 17.6172Z" fill="white"/>
<path d="M32.375 20.1953H25.9296C25.1738 20.1953 25.1738 21.3672 25.9296 21.3672H32.375C33.1307 21.3672 33.1307 20.1953 32.375 20.1953Z" fill="white"/>
</g>
<defs>
<clipPath id="clip0">
<rect width="40" height="40" fill="white" transform="translate(0.5)"/>
</clipPath>
</defs>
</svg>
