<svg width="41" height="40" viewBox="0 0 41 40" fill="none" xmlns="http://www.w3.org/2000/svg">
<path fill-rule="evenodd" clip-rule="evenodd" d="M9.5625 0H31.4375C32.6221 0 33.5859 0.96375 33.5859 2.14844V29.974C33.5859 30.2976 33.3237 30.5599 33 30.5599C32.6763 30.5599 32.4141 30.2976 32.4141 29.974V5.85938H30.5195C30.1959 5.85938 29.9336 5.59703 29.9336 5.27344C29.9336 4.94984 30.1959 4.6875 30.5195 4.6875H32.4141V2.14844C32.4141 1.60992 31.976 1.17188 31.4375 1.17188H9.5625C9.02398 1.17188 8.58594 1.60992 8.58594 2.14844V4.6875H28.0391C28.3627 4.6875 28.625 4.94984 28.625 5.27344C28.625 5.59703 28.3627 5.85938 28.0391 5.85938H8.58594V7.48047C8.58594 7.80406 8.32367 8.06641 8 8.06641C7.67633 8.06641 7.41406 7.80406 7.41406 7.48047V2.14844C7.41406 0.96375 8.37789 0 9.5625 0ZM18.7031 2.34375H22.2969C22.6205 2.34375 22.8828 2.60609 22.8828 2.92969C22.8828 3.25328 22.6205 3.51562 22.2969 3.51562H18.7031C18.3795 3.51562 18.1172 3.25328 18.1172 2.92969C18.1172 2.60609 18.3795 2.34375 18.7031 2.34375ZM32.4141 32.513C32.4141 32.1895 32.6763 31.9271 33 31.9271C33.3237 31.9271 33.5859 32.1894 33.5859 32.513V37.8255V37.8516C33.5859 39.0363 32.6221 40 31.4375 40H9.5625C8.37789 40 7.41406 39.0363 7.41406 37.8516V37.8255V9.98047C7.41406 9.65687 7.67633 9.39453 8 9.39453C8.32367 9.39453 8.58594 9.65687 8.58594 9.98047V34.1146H32.4141V32.513ZM31.4375 38.8021C31.976 38.8021 32.4141 38.3641 32.4141 37.8255V35.2865H8.58594V37.8255C8.58594 38.3641 9.02398 38.8021 9.5625 38.8021H31.4375ZM30.6562 8.78906H10.3438C10.0201 8.78906 9.75781 9.05141 9.75781 9.375V12.8125C9.75781 13.1361 10.0201 13.3984 10.3438 13.3984H30.6562C30.9799 13.3984 31.2422 13.1361 31.2422 12.8125V9.375C31.2422 9.05141 30.9799 8.78906 30.6562 8.78906ZM30.0703 12.2266H10.9297V9.96094H30.0703V12.2266ZM17.2227 2.92969C17.2227 3.25329 16.9603 3.51562 16.6367 3.51562C16.3131 3.51562 16.0508 3.25329 16.0508 2.92969C16.0508 2.60608 16.3131 2.34375 16.6367 2.34375C16.9603 2.34375 17.2227 2.60608 17.2227 2.92969ZM26.9062 36.4844H14.0938C13.7701 36.4844 13.5078 36.7467 13.5078 37.0703C13.5078 37.3939 13.7701 37.6562 14.0938 37.6562H26.9062C27.2299 37.6562 27.4922 37.3939 27.4922 37.0703C27.4922 36.7467 27.2299 36.4844 26.9062 36.4844Z" fill="#69A5FF"/>
<path d="M20.5 14.4893H10.3438C10.0201 14.4893 9.75781 14.7516 9.75781 15.0752V21.8623C9.75781 22.1859 10.0201 22.4482 10.3438 22.4482H20.5C20.8237 22.4482 21.0859 22.1859 21.0859 21.8623V15.0752C21.0859 14.7516 20.8237 14.4893 20.5 14.4893ZM19.9141 21.2764H10.9297V15.6611H19.9141V21.2764Z" fill="white"/>
<path d="M20.5 23.3301H10.3438C10.0201 23.3301 9.75781 23.5924 9.75781 23.916V30.7031C9.75781 31.0267 10.0201 31.2891 10.3438 31.2891H20.5C20.8237 31.2891 21.0859 31.0267 21.0859 30.7031V23.916C21.0859 23.5924 20.8237 23.3301 20.5 23.3301ZM19.9141 30.1172H10.9297V24.502H19.9141V30.1172Z" fill="white"/>
<path d="M30.6562 14.4922H23.1562C22.8326 14.4922 22.5703 14.7545 22.5703 15.0781V30.7031C22.5703 31.0267 22.8326 31.2891 23.1562 31.2891H30.6562C30.9799 31.2891 31.2422 31.0267 31.2422 30.7031V15.0781C31.2422 14.7545 30.9799 14.4922 30.6562 14.4922ZM30.0703 30.1172H23.7422V15.6641H30.0703V30.1172Z" fill="white"/>
</svg>
