<svg width="41" height="40" viewBox="0 0 41 40" fill="none" xmlns="http://www.w3.org/2000/svg">
<g clip-path="url(#clip0)">
<path d="M37.7491 14.1213C37.7359 13.9265 37.6266 13.7512 37.4577 13.6535L37.4032 13.6221C37.3141 13.5706 37.213 13.5435 37.1101 13.5435H27.952C26.9491 10.5166 24.0924 8.32666 20.7334 8.32666C17.3252 8.32666 14.4338 10.5809 13.4715 13.6767H10.867V11.9286C10.867 11.705 10.7397 11.5009 10.5389 11.4025C10.3382 11.304 10.0988 11.3285 9.92204 11.4655L3.47673 16.4606C3.32251 16.5801 3.2379 16.7686 3.2511 16.9634C3.2643 17.1581 3.37352 17.3335 3.54251 17.4311L3.59696 17.4626C3.6861 17.5141 3.78719 17.5412 3.89009 17.5412H13.3033C14.0446 20.9616 17.0942 23.5318 20.7333 23.5318C24.4195 23.5318 27.5009 20.8946 28.191 17.408H30.1333V19.156C30.1333 19.3796 30.2606 19.5838 30.4613 19.6821C30.5431 19.7223 30.6313 19.742 30.7191 19.742C30.8468 19.742 30.9734 19.7003 31.0782 19.6192L37.5235 14.6241C37.6777 14.5046 37.7623 14.316 37.7491 14.1213ZM5.50766 16.3693L9.69509 13.1241V14.2627C9.69509 14.5863 9.95735 14.8486 10.281 14.8486H13.208C13.1575 15.2017 13.1308 15.5624 13.1308 15.9293C13.1308 16.0771 13.1355 16.2237 13.1438 16.3693H5.50766ZM20.7333 22.3599C17.1873 22.3599 14.3026 19.4752 14.3026 15.9293C14.3026 15.4132 14.3654 14.9117 14.4808 14.4305C14.4872 14.409 14.4921 14.387 14.496 14.3645C15.1967 11.5725 17.727 9.49861 20.7332 9.49861C24.2791 9.49861 27.1639 12.3834 27.1639 15.9293C27.1639 19.4753 24.2792 22.3599 20.7333 22.3599ZM31.3052 17.9606V16.822C31.3052 16.4984 31.0429 16.236 30.7192 16.236H28.3291C28.3332 16.1342 28.3359 16.0321 28.3359 15.9292C28.3359 15.5161 28.3023 15.1108 28.2385 14.7153H35.4925L31.3052 17.9606Z" fill="white"/>
<path d="M38.2881 1.76624H2.71195C1.49227 1.76624 0.5 2.7585 0.5 3.97811V29.2101C0.5 30.4298 1.49227 31.422 2.71195 31.422H14.6287V34.1451H13.1258C12.3592 34.1451 11.7669 34.3563 11.3653 34.7729C10.7206 35.4415 10.7563 36.4158 10.7823 37.127C10.789 37.3112 10.7954 37.4852 10.7873 37.6105C10.777 37.7721 10.834 37.9307 10.9448 38.0487C11.0555 38.1668 11.2102 38.2338 11.3721 38.2338H29.6362C29.7981 38.2338 29.9528 38.1669 30.0636 38.0487C30.1744 37.9306 30.2313 37.772 30.221 37.6105C30.2132 37.4876 30.2176 37.32 30.2223 37.1424C30.241 36.422 30.2668 35.4355 29.6127 34.7641C29.2125 34.3533 28.6304 34.145 27.8826 34.145H26.3713V31.4219H38.288C39.5077 31.4219 40.5 30.4297 40.5 29.2101V3.97811C40.5 2.7585 39.5077 1.76624 38.2881 1.76624ZM28.7733 35.5819C29.0729 35.8895 29.0655 36.5308 29.052 37.062H11.9526C11.9334 36.5367 11.9141 35.8921 12.209 35.5862C12.3813 35.4076 12.6897 35.3169 13.1258 35.3169H15.2145H25.7854H27.8826C28.3023 35.3169 28.602 35.4061 28.7733 35.5819ZM25.1995 34.1451H15.8005V31.422H25.1995V34.1451H25.1995ZM38.2881 30.2501H2.71195C2.13844 30.2501 1.67188 29.7836 1.67188 29.2101V27.2821H32.9247C33.2484 27.2821 33.5106 27.0198 33.5106 26.6962C33.5106 26.3726 33.2484 26.1102 32.9247 26.1102H1.67188V7.07795H6.59656C6.92023 7.07795 7.1825 6.81561 7.1825 6.49202C7.1825 6.16842 6.92023 5.90608 6.59656 5.90608H1.67188V3.97811C1.67188 3.40467 2.13844 2.93811 2.71195 2.93811H38.2881C38.8616 2.93811 39.3282 3.40467 39.3282 3.97811V5.90608H8.94875C8.62508 5.90608 8.36281 6.16842 8.36281 6.49202C8.36281 6.81561 8.62508 7.07795 8.94875 7.07795H39.3281V26.1102H35.2769C34.9532 26.1102 34.6909 26.3726 34.6909 26.6962C34.6909 27.0198 34.9532 27.2821 35.2769 27.2821H39.3281V29.2101C39.3281 29.7836 38.8616 30.2501 38.2881 30.2501Z" fill="#69A5FF"/>
<path d="M21.0513 15.2611V14.0427C21.5937 14.0844 21.7523 14.3515 22.0276 14.3515C22.3948 14.3515 22.5449 13.8925 22.5449 13.6672C22.5449 13.0914 21.5686 12.9579 21.0513 12.9412V12.7326C21.0513 12.6158 20.8927 12.5073 20.7342 12.5073C20.5506 12.5073 20.417 12.6158 20.417 12.7326V12.9663C19.5325 13.0915 18.7481 13.6005 18.7481 14.6603C18.7481 15.7284 19.6493 16.0872 20.417 16.3793V17.7312C19.7995 17.6226 19.5158 17.1304 19.1653 17.1304C18.8482 17.1304 18.5979 17.5476 18.5979 17.8313C18.5979 18.3654 19.4157 18.8827 20.417 18.9162V19.1247C20.417 19.2415 20.5506 19.3501 20.7342 19.3501C20.8927 19.3501 21.0513 19.2415 21.0513 19.1247V18.8827C22.0276 18.7242 22.6952 18.0983 22.6952 17.0636C22.6952 15.9369 21.8106 15.5447 21.0513 15.2611ZM20.5005 15.0608C20.1834 14.9272 19.9664 14.777 19.9664 14.5351C19.9664 14.3348 20.125 14.1429 20.5005 14.0678V15.0608ZM20.9678 17.7227V16.6045C21.2682 16.7464 21.4768 16.9216 21.4768 17.197C21.4768 17.4974 21.2515 17.656 20.9678 17.7227Z" fill="white"/>
</g>
<defs>
<clipPath id="clip0">
<rect width="40" height="40" fill="white" transform="translate(0.5)"/>
</clipPath>
</defs>
</svg>
