<svg width="41" height="40" viewBox="0 0 41 40" fill="none" xmlns="http://www.w3.org/2000/svg">
<path fill-rule="evenodd" clip-rule="evenodd" d="M18.5116 8.79228L13.6839 6.00502C13.1443 5.69353 12.8221 5.13556 12.8223 4.5126C12.8223 3.88947 13.1445 3.3315 13.6841 3.01994L18.5117 0.232752C18.7845 0.0752521 19.0915 -0.00451355 19.4016 0.000330204C20.3364 0.0166583 21.097 0.790564 21.097 1.72533V2.41767C23.8659 2.50721 26.5156 3.18728 28.9814 4.44228C29.2698 4.58908 29.3846 4.94189 29.2378 5.23025C29.091 5.51869 28.7381 5.6333 28.4498 5.48666C25.9764 4.22775 23.3049 3.58603 20.5096 3.57939C20.1866 3.57861 19.9251 3.3165 19.9251 2.99346V1.72533C19.9251 1.38494 19.6484 1.17674 19.3809 1.17205C19.2834 1.16947 19.1874 1.19572 19.0976 1.2476L14.2699 4.03478C14.0209 4.17853 13.9941 4.41681 13.9941 4.5126C13.9941 4.60838 14.0209 4.84658 14.2699 4.99033L19.0976 7.7776C19.3466 7.92135 19.5664 7.82549 19.6493 7.7776C19.7322 7.72971 19.9251 7.58736 19.9251 7.29986V5.99455C19.9251 5.83885 19.987 5.68955 20.0973 5.57963C20.2075 5.46971 20.3573 5.40611 20.5127 5.40861C24.7227 5.42064 28.6786 7.06931 31.6517 10.0508C34.6255 13.033 36.2628 16.9948 36.262 21.2065C36.2616 23.438 35.8087 25.5929 34.9157 27.6114C34.0528 29.5621 32.8227 31.2918 31.2599 32.7524C31.1469 32.8581 31.0032 32.9103 30.8599 32.9103C30.7034 32.9103 30.5471 32.8479 30.4317 32.7245C30.2107 32.488 30.2233 32.1172 30.4597 31.8963C31.9066 30.5439 33.0452 28.9428 33.8439 27.1373C34.6704 25.2689 35.0897 23.2735 35.0901 21.2062C35.0908 17.307 33.575 13.6391 30.8218 10.8781C28.208 8.25697 24.7738 6.74853 21.0969 6.59353V7.29971C21.0969 7.92275 20.7748 8.48072 20.2352 8.79228C19.6955 9.10385 19.0513 9.10392 18.5116 8.79228ZM30.3641 5.90394C30.5487 5.63816 30.9138 5.57222 31.1796 5.75706C36.2421 9.27448 39.2639 15.0499 39.263 21.2063C39.2622 26.2398 37.3103 30.963 33.7668 34.5059C30.2234 38.0487 25.4998 39.9999 20.4663 39.9999C15.7402 39.9999 11.2229 38.2393 7.74644 35.0422C4.29113 31.8646 2.15973 27.5496 1.74488 22.892C1.69355 22.3156 1.88895 21.7393 2.28098 21.3107C2.67629 20.8786 3.23879 20.6308 3.82434 20.6308C4.91074 20.6308 5.80449 21.4523 5.90332 22.5416C6.23137 26.1592 7.89176 29.5103 10.5787 31.9776C13.2821 34.4599 16.7936 35.827 20.4664 35.827C23.5289 35.827 26.4575 34.8978 28.9353 33.1399C29.1992 32.9527 29.565 33.0147 29.7522 33.2787C29.9395 33.5427 29.8773 33.9085 29.6134 34.0957C26.9362 35.995 23.7732 36.9989 20.4664 36.9989C16.4992 36.9989 12.7062 35.5221 9.78613 32.8408C6.88402 30.176 5.09066 26.556 4.73621 22.6475C4.69246 22.1659 4.30043 21.8027 3.82426 21.8027C3.56301 21.8027 3.32191 21.9089 3.14551 22.1018C2.97238 22.291 2.88941 22.5347 2.91199 22.788C3.30098 27.1543 5.29957 31.2 8.53965 34.1796C11.7992 37.1772 16.0348 38.8281 20.4663 38.8281C25.1868 38.8281 29.6161 36.9988 32.9382 33.6772C36.2604 30.3556 38.0904 25.9266 38.0911 21.2061C38.0921 15.4335 35.2583 10.0179 30.511 6.71941C30.2452 6.5348 30.1794 6.16964 30.3641 5.90394Z" fill="#69A5FF"/>
<path d="M17.9437 12.1265C19.2125 12.1265 20.3937 12.9577 20.3937 14.3467C20.3937 16.7092 16.9265 17.4748 16.9265 18.6123V18.8748H19.9671C20.2078 18.8748 20.4156 19.1592 20.4156 19.4873C20.4156 19.8154 20.2078 20.1217 19.9671 20.1217H16.0734C15.8218 20.1217 15.45 19.9467 15.45 19.6733V18.6123C15.45 16.8623 18.9718 15.9326 18.9718 14.3904C18.9718 13.942 18.6765 13.417 17.9546 13.417C17.4187 13.417 16.9812 13.7014 16.9812 14.3795C16.9812 14.642 16.7078 14.9045 16.2375 14.9045C15.8656 14.9045 15.5921 14.7295 15.5921 14.1389C15.5921 12.8921 16.7296 12.1265 17.9437 12.1265Z" fill="white"/>
<path d="M23.544 18.3827H20.919C20.6456 18.3827 20.4377 18.1968 20.4377 17.8796C20.4377 17.7921 20.4596 17.6937 20.5143 17.5952L23.1065 12.4983C23.2378 12.2249 23.4784 12.1265 23.7081 12.1265C23.9596 12.1265 24.419 12.3452 24.419 12.6733C24.419 12.728 24.3971 12.7937 24.3643 12.8593L22.2643 17.0593H23.544V15.9108C23.544 15.5937 23.9049 15.4624 24.2549 15.4624C24.6159 15.4624 24.9659 15.5937 24.9659 15.9108V17.0593H25.4799C25.7753 17.0593 25.9284 17.3874 25.9284 17.7265C25.9284 18.0546 25.7096 18.3827 25.4799 18.3827H24.9659V19.6733C24.9659 19.9687 24.6159 20.1218 24.2549 20.1218C23.9049 20.1218 23.544 19.9687 23.544 19.6733V18.3827Z" fill="white"/>
<path d="M23.1391 25.6088C23.1391 25.8385 22.9969 26.1775 22.8657 26.44L20.0986 31.7556C20.022 31.8978 19.8798 31.9635 19.6939 31.9635C19.2455 31.9635 18.797 31.6572 18.797 31.2525C18.797 31.165 18.808 31.0885 18.8626 31.001L21.7173 25.8822V25.1603H19.4314V26.0463C19.4314 26.3088 19.0814 26.5056 18.7095 26.5056C18.3267 26.5056 18.0095 26.3088 18.0095 26.0463V24.3619C18.0095 24.1431 18.3158 23.9135 18.633 23.9135H22.5158C22.7892 23.9135 23.1392 24.1431 23.1392 24.3619V25.6088H23.1391Z" fill="white"/>
<path d="M14.3889 21.5601C14.0653 21.5601 13.803 21.8224 13.803 22.146C13.803 22.4696 14.0653 22.7319 14.3889 22.7319H26.705C27.0286 22.7319 27.2909 22.4696 27.2909 22.146C27.2909 21.8224 27.0286 21.5601 26.705 21.5601H14.3889Z" fill="white"/>
</svg>
