<svg width="129" height="20" viewBox="0 0 129 20" fill="none" xmlns="http://www.w3.org/2000/svg">
<path fill-rule="evenodd" clip-rule="evenodd" d="M35.645 9.79122C34.9743 17.3789 44.487 13.5128 45.0682 13.3906C45.2918 14.9237 45.5042 16.4568 45.7278 17.9899C45.4483 18.0788 30.1453 24.3999 29.7318 9.94675C29.7318 9.769 29.6982 9.60236 29.7206 9.43572C31.7997 -2.50676 45.6048 1.04821 45.8843 1.07043C45.6607 2.7146 45.4483 4.35878 45.2247 6.00295C44.6658 5.8252 36.271 2.5924 35.645 9.79122ZM56.9507 5.83631L54.4691 19.1452C52.6582 19.1452 49.0253 19.1452 49.0253 19.1452L51.6634 5.83631C51.6634 5.83631 48.69 5.83631 47.2033 5.83631C47.4827 4.13659 47.751 2.43687 48.0305 0.748259C52.6471 0.748259 57.2748 0.748259 61.8914 0.748259C61.612 2.44798 61.3437 4.1477 61.0643 5.83631C59.7117 5.83631 58.3256 5.83631 56.9507 5.83631ZM66.0274 16.479L67.8382 13.0574L69.9733 14.2016L69.3138 7.02501C69.3138 7.02501 63.4564 18.1565 62.8975 18.4898C61.6902 19.2897 59.1528 19.1786 57.1183 19.1452L67.3352 0.748259H73.1255C74.0086 6.88059 74.8917 13.0129 75.7636 19.1452C74.221 19.1452 71.2699 19.1452 71.2699 19.1452L66.0274 16.479ZM88.5291 4.89202C87.0424 4.89202 85.6786 4.84759 84.192 4.84759C84.0243 5.89186 83.7001 7.80266 83.7001 7.80266C83.7001 7.80266 84.4155 7.80266 85.511 7.80266C87.1765 7.80266 89.0321 8.20259 89.5128 6.69173C89.9152 5.39194 88.6632 4.92535 88.5291 4.89202ZM82.3811 14.7015H86.2935C86.2935 14.7015 88.149 14.6904 88.5291 13.2129C88.9874 11.4354 87.3777 11.4243 87.3777 11.4243H82.7723L82.3811 14.7015ZM94.107 14.1905C92.6762 19.2674 88.0261 19.0786 88.0261 19.0786C88.0261 19.0786 79.0947 19.1452 76.9261 19.1341C78.0216 13.0574 79.1282 6.98057 80.2237 0.892679L88.5179 0.648273C88.5179 0.648273 93.3134 0.903788 94.2635 4.89202C94.9566 7.82488 92.2962 9.62458 92.2962 9.62458C92.2962 9.62458 94.8895 11.4021 94.107 14.1905ZM123.014 19.0897L118.744 16.3124L120.387 12.8907L122.522 14.035L121.862 7.02501C121.862 7.02501 121.538 6.92502 121.538 7.02501C121.527 7.12499 115.457 19.0897 115.457 19.0897L105.319 19.1452L102.021 11.9131H101.854C101.854 11.9131 100.97 16.7345 100.534 19.1452C98.7236 19.1452 96.9016 19.1452 95.0907 19.1452C95.0907 19.0897 98.7236 0.748259 98.7236 0.748259H104.011L102.86 6.82504H103.027C103.027 6.82504 106.984 2.77015 108.974 0.748259C111.12 0.748259 113.266 0.748259 115.413 0.748259L106.615 9.79122L110.606 17.6677L119.727 0.981552H125.473L128.268 19.0786H123.014V19.0897Z" fill="#4878FE"/>
<path fill-rule="evenodd" clip-rule="evenodd" d="M16.183 7.63906C16.0601 7.69461 11.7229 0.740178 11.7229 0.740178C13.4332 0.517991 17.0437 0.462445 18.1616 0.906818C18.1616 0.962364 20.3748 1.88444 20.7996 2.87316C20.8555 2.98426 20.9114 3.0287 20.699 3.26199C19.2123 4.80619 17.6697 6.10598 16.183 7.63906ZM30.7147 18.9261C30.7147 18.9261 26.5117 19.526 23.6501 18.2707C22.2081 17.6374 19.8718 13.7047 19.8718 13.7047L14.6851 19.1483C10.5045 19.1483 2.1432 19.1483 2.1432 19.1483L4.11056 8.00567C4.11056 8.00567 1.76314 9.07217 0.5 9.62763C0.5 8.039 0.5 6.45037 0.5 4.86174C0.667673 4.80619 6.71508 0.862381 6.77097 0.751288C8.20178 0.751288 11.0634 0.751288 11.0634 0.751288C11.0634 0.751288 8.20178 16.4932 8.09 17.5152C8.14589 17.5152 8.20178 17.5152 8.25767 17.5152C13.8132 11.9273 19.3688 6.33927 24.9244 0.751288C27.3947 0.751288 32.682 0.751288 32.682 0.751288L24.1419 9.14993L30.7147 18.9261Z" fill="white"/>
</svg>
