<svg width="21" height="21" viewBox="0 0 21 21" fill="none" xmlns="http://www.w3.org/2000/svg">
<g clip-path="url(#clip0)">
<path d="M3.91594 7.09408C2.36088 9.7926 3.34946 13.8878 5.06911 16.3708C5.92749 17.6122 6.79654 18.7265 7.98685 18.7265C8.00929 18.7265 8.03178 18.7261 8.05482 18.7252C8.61407 18.7029 9.0182 18.5307 9.40894 18.3643C9.84762 18.1773 10.3013 17.9841 11.013 17.9841C11.69 17.9841 12.1221 18.1711 12.5399 18.3519C12.9517 18.53 13.3758 18.7143 14.0025 18.7026C15.3433 18.6776 16.1665 17.4752 16.8928 16.4144C17.6507 15.3068 18.0309 14.2315 18.1592 13.8205L18.1644 13.8042C18.1888 13.7311 18.1543 13.6514 18.0843 13.6193C18.0824 13.6184 18.0753 13.6154 18.0733 13.6146C17.8372 13.518 15.766 12.5992 15.7443 10.0949C15.7241 8.06035 17.298 6.98293 17.6137 6.78765L17.6284 6.77848C17.6626 6.75647 17.6864 6.72155 17.6945 6.68163C17.7026 6.64176 17.6941 6.60027 17.6712 6.56674C16.5848 4.97688 14.9197 4.73727 14.2493 4.70844C14.152 4.69873 14.0516 4.69385 13.9507 4.69385C13.1633 4.69385 12.4091 4.99123 11.8031 5.23017C11.3848 5.39512 11.0235 5.53757 10.7743 5.53757C10.4943 5.53757 10.1309 5.39337 9.71012 5.22644C9.14744 5.00311 8.50967 4.75006 7.83451 4.75006C7.81841 4.75006 7.80255 4.75024 7.78693 4.75054C6.21709 4.77364 4.73373 5.67176 3.91594 7.09408Z" fill="#69A5FF"/>
<path d="M14.2506 0.332635C13.3 0.371354 12.1596 0.956531 11.478 1.7549C10.8987 2.42596 10.3329 3.54481 10.4819 4.67258C10.4913 4.74314 10.5487 4.7976 10.6197 4.80309C10.6839 4.8081 10.7494 4.81063 10.8146 4.81069C11.7441 4.81069 12.7469 4.29644 13.4317 3.46839C14.1525 2.59404 14.5169 1.47193 14.4067 0.466823C14.398 0.388059 14.3287 0.32956 14.2506 0.332635Z" fill="#69A5FF"/>
</g>
<defs>
<clipPath id="clip0">
<rect width="20.0664" height="20.0664" fill="white" transform="translate(0.707031 0.178223)"/>
</clipPath>
</defs>
</svg>
