<svg width="21" height="21" viewBox="0 0 21 21" fill="none" xmlns="http://www.w3.org/2000/svg">
<path d="M3.64945 10.5687L7.86649 13.5534C8.09839 13.7175 8.42119 13.6639 8.58665 13.4301L9.78053 11.7433C9.94537 11.5104 9.8902 11.188 9.6573 11.0232L9.42467 10.8585C10.6723 9.87256 11.8795 8.14517 12.4024 6.63659L12.642 6.80611C12.8748 6.97088 13.1973 6.91578 13.3621 6.68288L14.556 4.99605C14.7208 4.76333 14.6657 4.4407 14.4328 4.27589L10.2157 1.29128C9.98285 1.12644 9.6604 1.18158 9.49555 1.41451L8.30167 3.1013C8.13693 3.33406 8.19204 3.65665 8.42491 3.82146L8.66483 3.99126C7.39421 5.00384 6.17932 6.72555 5.67329 8.20341L5.44022 8.03846C5.20736 7.87366 4.88491 7.92876 4.72006 8.1617L3.52618 9.84849C3.36148 10.0813 3.41655 10.4039 3.64945 10.5687Z" fill="#69A5FF"/>
<path d="M18.3712 12.1265L12.8402 8.21191C12.3757 9.10422 11.7463 10.0012 11.0551 10.7461L16.5804 14.6567C17.28 15.1519 18.2461 14.9861 18.7409 14.287C19.2357 13.5878 19.0705 12.6214 18.3712 12.1265Z" fill="#69A5FF"/>
<path d="M13.3076 15.731H12.791C12.5061 15.731 12.2744 15.4993 12.2744 15.2144C12.2744 14.9291 12.0431 14.6978 11.7577 14.6978H4.5248C4.23948 14.6978 4.00817 14.9291 4.00817 15.2144C4.00817 15.4993 3.7764 15.731 3.49153 15.731H2.97489C2.68957 15.731 2.45825 15.9623 2.45825 16.2477V18.3142C2.45825 18.5995 2.68957 18.8308 2.97489 18.8308H13.3076C13.593 18.8308 13.8243 18.5995 13.8243 18.3142V16.2477C13.8243 15.9623 13.593 15.731 13.3076 15.731Z" fill="#69A5FF"/>
</svg>
