<svg width="140" height="21" viewBox="0 0 140 21" fill="none" xmlns="http://www.w3.org/2000/svg">
<path d="M26.4916 2.69482H41.1062L40.4746 6.28224H30.7574L30.4039 8.32762H36.2096L35.5386 12.0224H29.7703L29.3751 14.465H40.0398L39.3681 18.2677H23.7666L26.4916 2.69482Z" fill="white"/>
<path d="M48.5314 6.53359H42.4094L43.0806 2.69482H60.2226L59.5158 6.53359H53.3902L51.3398 18.2652H46.4782L48.5314 6.53359Z" fill="white"/>
<path d="M60.5765 11.2317C60.3793 6.17294 64.2533 2.44153 69.5429 2.44153C75.7045 2.44153 77.5217 6.17294 77.7189 7.96952H72.7453C72.5077 7.53886 71.6389 6.42683 69.7049 6.42683C66.9797 6.42683 65.4393 8.54355 65.5581 11.0189C65.6365 13.0283 66.8609 14.535 68.9941 14.535C70.9693 14.535 71.8381 13.4943 72.1145 13.0997H77.0513C76.7353 14.499 74.7181 18.5171 69.1513 18.5171C64.0553 18.5165 60.7373 15.5384 60.5765 11.2317Z" fill="white"/>
<path d="M81.2377 2.69482H86.1353L84.5157 12.0584L93.7189 2.69482H98.6173L95.8925 18.2652H90.9945L92.6137 8.93697L83.4097 18.2652H78.5117L81.2377 2.69482Z" fill="white"/>
<path d="M106.439 6.53359H100.315L100.987 2.69482H118.133L117.461 6.53359H111.339L109.288 18.2652H104.429L106.439 6.53359Z" fill="white"/>
<path d="M120.537 2.69482H125.434L123.776 12.0944L132.981 2.73082H137.879L135.154 18.3025H130.256L131.875 8.97424L122.672 18.3025H117.774L120.537 2.69482Z" fill="white"/>
<path d="M15.2742 8.47083H10.9292L11.2828 6.56945H21.5919L22.2636 2.73071H7.01916L6.02924 8.47083H2.75126L2.11914 11.9869H5.39784L4.29408 18.265H14.4052C19.1426 18.265 22.3053 16.4009 22.1469 12.5969C22.0684 9.94218 19.6191 8.47083 15.2742 8.47083ZM14.84 14.3909H9.86296L10.2978 11.9869H15.4326C16.4592 11.9869 16.9726 12.3083 16.9726 12.9196C17.0518 13.8883 16.1828 14.3909 14.84 14.3909Z" fill="white"/>
</svg>
