<svg width="19" height="19" viewBox="0 0 19 19" fill="none" xmlns="http://www.w3.org/2000/svg">
<path d="M16.8836 1.91211H2.6008C2.07816 1.91211 1.65283 2.33743 1.65283 2.86008V12.2766C1.65283 12.7993 2.07816 13.2246 2.6008 13.2246H16.8836C17.4062 13.2246 17.8316 12.7993 17.8316 12.2766V2.86008C17.8316 2.33743 17.4062 1.91211 16.8836 1.91211Z" fill="#69A5FF"/>
<path d="M14.798 15.5627H12.2385V14.1724H7.24585V15.5627H4.68633C4.42469 15.5627 4.21234 15.7751 4.21234 16.0367C4.21234 16.2983 4.42469 16.5107 4.68633 16.5107H14.798C15.0597 16.5107 15.272 16.2983 15.272 16.0367C15.272 15.7751 15.0597 15.5627 14.798 15.5627Z" fill="#69A5FF"/>
</svg>
