<svg width="128" height="24" viewBox="0 0 128 24" fill="none" xmlns="http://www.w3.org/2000/svg">
<path d="M17.6173 9.60108H9.15058L9.5706 7.66398L9.7826 7.01783C9.88661 6.80157 10.0295 6.60703 10.2039 6.44425L10.9093 6.0137C11.2453 5.87332 11.6047 5.80013 11.9679 5.79806H19.9446L20.4393 5.65434C20.5854 5.49428 20.6832 5.29498 20.7213 5.08007L21.5686 1.34758C21.7106 0.988233 21.7106 0.77398 21.64 0.701433L21.1453 0.557693H11.3333C10.2997 0.530733 9.27025 0.701383 8.29858 1.06078C7.4686 1.36749 6.70266 1.83 6.04058 2.42425C5.43655 3.00194 4.93518 3.68134 4.55856 4.43254C4.18191 5.16008 3.89698 5.933 3.71056 6.73307L0.0438783 22.8136C-0.097456 23.2441 0.110546 23.4597 0.608548 23.4597H5.19722L5.90259 23.3167C6.01475 23.1704 6.0878 22.9971 6.11458 22.8136L8.01391 14.6998H16.4806C16.906 14.6998 17.1179 14.4102 17.2593 13.9078L18.0406 10.4622C18.1826 10.0316 18.1826 9.81668 18.1113 9.74484C17.9718 9.63238 17.7942 9.58071 17.6173 9.60108Z" fill="white"/>
<path d="M41.547 7.09105C41.5044 5.77785 41.1404 4.49614 40.4883 3.36199C39.8461 2.31659 38.9115 1.49037 37.8042 0.989595C36.4265 0.374251 34.9313 0.0795987 33.4275 0.127157C31.8541 0.143354 30.2978 0.460057 28.8394 1.06078C27.4554 1.60113 26.1856 2.40519 25.0981 3.42976C23.9662 4.51183 23.0129 5.7721 22.2747 7.16224C21.4765 8.70289 20.8829 10.3445 20.5094 12.044C20.1019 13.6618 19.9122 15.3285 19.9454 16.9983C19.969 18.3049 20.3083 19.5855 20.9334 20.7273C21.5464 21.7518 22.4593 22.5555 23.5441 23.0258C24.9309 23.6046 26.4234 23.8751 27.9214 23.8191C29.602 23.8591 31.2759 23.5906 32.8628 23.0265C34.2542 22.5017 35.5268 21.6961 36.6041 20.6582C37.7043 19.5813 38.612 18.3184 39.2875 16.9257C40.0407 15.3476 40.6094 13.685 40.9816 11.9721H41.0522C41.4395 10.3764 41.6062 8.73358 41.547 7.09105ZM34.9815 9.53192C34.916 10.3524 34.7982 11.1678 34.6288 11.9728L34.4815 12.0467C34.3013 12.8522 34.0656 13.6438 33.7761 14.4157C33.5088 15.1297 33.1531 15.8062 32.7175 16.4287C32.3403 16.9741 31.8603 17.4377 31.3054 17.7929C30.7294 18.1352 30.0711 18.308 29.4041 18.2919C28.7861 18.3394 28.169 18.1889 27.6394 17.8613C27.2001 17.5471 26.8771 17.0921 26.7221 16.5691C26.5467 15.8902 26.4988 15.1838 26.5807 14.4868C26.652 13.5674 26.7935 12.655 27.0041 11.7578C27.1891 10.9448 27.4498 10.1516 27.7828 9.38885C28.0774 8.69821 28.4554 8.0475 28.9081 7.45175C29.3401 6.92424 29.8674 6.4856 30.4614 6.15946C30.9931 5.83036 31.6037 5.65653 32.2261 5.65707C32.8537 5.61442 33.4768 5.79174 33.9914 6.15946C34.4135 6.50723 34.7113 6.98661 34.8388 7.52363C34.997 8.17991 35.0452 8.85866 34.9815 9.53123V9.53192Z" fill="white"/>
<path d="M85.1663 1.78363C84.6036 1.26646 83.9255 0.896863 83.1905 0.706939C82.3389 0.471363 81.4605 0.350549 80.5784 0.347591H72.1817C71.8535 0.313853 71.5224 0.347223 71.2071 0.445737C70.8922 0.544247 70.5995 0.705911 70.3469 0.921192C69.9456 1.39032 69.6763 1.96096 69.5677 2.57285L65.2622 21.2332C65.0789 21.768 65.0789 22.3501 65.2622 22.8849C65.4512 23.2198 65.9924 23.3872 66.8862 23.3872H75.2143C76.3159 23.3951 77.4115 23.2255 78.4611 22.8849C79.4707 22.5591 80.4237 22.0735 81.2851 21.4461C82.1322 20.8364 82.8714 20.0849 83.4711 19.2236C84.0718 18.358 84.5033 17.3829 84.7416 16.3515C84.8703 15.8349 84.9415 15.3052 84.9536 14.7724C84.9611 14.2618 84.8895 13.7532 84.7416 13.2652C84.5923 12.7699 84.3532 12.3074 84.0364 11.9017C83.6913 11.4749 83.2572 11.1315 82.7658 10.8962V10.7518C83.585 10.2767 84.3042 9.64247 84.8831 8.88517C85.4903 8.1597 85.9236 7.30102 86.1495 6.37652C86.3947 5.48681 86.4192 4.54919 86.2208 3.64748C86.053 2.93601 85.6868 2.28887 85.1663 1.78363ZM78.6742 15.9975C78.6078 16.2469 78.5131 16.4876 78.3925 16.7149C78.2676 16.9802 78.1005 17.2226 77.8976 17.4323C77.6706 17.6469 77.4066 17.8174 77.1188 17.9353C76.7617 18.0824 76.3789 18.1557 75.9934 18.1509H72.1817L73.1702 13.8435H76.9789C77.2535 13.8088 77.5326 13.843 77.7913 13.9434C78.0496 14.0438 78.2801 14.2071 78.4622 14.4192C78.6093 14.6496 78.7047 14.9103 78.7413 15.1826C78.7779 15.4548 78.7553 15.7319 78.6742 15.9942V15.9975ZM79.7336 7.3108C79.6966 7.57711 79.6012 7.83152 79.4545 8.05533C79.3078 8.2791 79.1135 8.46655 78.8861 8.60379C78.4977 8.82637 78.0613 8.94945 77.6155 8.96245H74.2974L75.0042 5.80428H78.5331C78.7243 5.78319 78.9182 5.80436 79.1007 5.86638C79.2836 5.9284 79.4511 6.02978 79.5918 6.1636C79.706 6.32762 79.7788 6.51782 79.8037 6.71739C79.8286 6.91696 79.8045 7.11963 79.7336 7.30742V7.3108Z" fill="white"/>
<path d="M106.77 0.556287H97.2415C96.2078 0.529039 95.1782 0.699463 94.2059 1.0587C93.3762 1.36572 92.6102 1.8282 91.9479 2.42217C91.3441 3.00058 90.8425 3.68068 90.4661 4.4325C90.0875 5.15969 89.8009 5.93264 89.6134 6.73302L87.2838 17.2131C87.105 17.9413 87.0111 18.6884 87.0047 19.439C87.0002 20.1406 87.1699 20.8319 87.4988 21.4487C87.8612 22.0764 88.4024 22.5773 89.0515 22.8847C90.006 23.311 91.0451 23.5073 92.0867 23.4583H102.041L102.035 23.6028C102.461 23.6028 102.673 23.3132 102.814 22.8108L103.662 19.0776C103.803 18.719 103.803 18.5041 103.733 18.4315L103.238 18.2885H94.2715L93.7066 18.0728C93.5436 17.9255 93.4426 17.7198 93.4248 17.4986C93.3833 17.1619 93.4075 16.8203 93.4954 16.4931L94.0622 14.0522H102.812C103.237 14.0522 103.449 13.8373 103.591 13.3348L104.37 9.8892C104.464 9.6629 104.489 9.41278 104.441 9.17186C104.301 9.05936 104.123 9.0077 103.946 9.0281H95.2642L95.5459 7.66462L95.7586 7.01847C95.8616 6.80099 96.0052 6.60591 96.1814 6.4442L96.8874 6.01365C97.2234 5.87327 97.5828 5.80008 97.946 5.79801H105.57L106.063 5.65429C106.21 5.49439 106.308 5.29536 106.346 5.08068L107.194 1.34753C107.335 0.988864 107.335 0.773931 107.264 0.70138L106.77 0.556287Z" fill="white"/>
<path d="M127.945 0.626894L127.451 0.483154H110.433L109.868 0.626894C109.71 0.806589 109.611 1.03278 109.587 1.27304L108.739 4.93432C108.598 5.43947 108.81 5.72626 109.233 5.72626H114.6L110.648 22.8123C110.504 23.291 110.692 23.5303 111.212 23.5303H115.8C115.908 23.5717 116.026 23.5842 116.14 23.5667C116.255 23.5493 116.363 23.5025 116.455 23.4306C116.547 23.3587 116.619 23.2643 116.665 23.1561C116.711 23.0479 116.729 22.9296 116.718 22.8123L120.673 5.72626H126.179H126.251C126.464 5.7273 126.67 5.64625 126.827 5.49939C126.984 5.35252 127.081 5.15069 127.098 4.93432L127.945 1.27304C128.016 0.913695 128.016 0.698309 127.945 0.626894Z" fill="white"/>
<path d="M65.9684 0.413277H61.3812C61.1365 0.376003 60.8868 0.426848 60.6752 0.557017C60.5545 0.725274 60.481 0.923825 60.4632 1.1313L57.7105 12.9762H57.4985L55.9458 8.95627L52.9819 1.92459L52.4878 1.13198L51.993 0.69872L51.3579 0.483112H48.8156C48.1201 0.419993 47.4239 0.596972 46.839 0.98552C46.3042 1.55957 45.9587 2.28878 45.8505 3.07178L41.2629 22.8122C41.1219 23.3146 41.3331 23.5302 41.8271 23.5302H46.4151C46.4946 23.5556 46.578 23.5666 46.661 23.5628C46.7537 23.5583 46.8442 23.5354 46.9283 23.4953C47.0121 23.4552 47.0871 23.3986 47.1497 23.3289C47.212 23.2592 47.2602 23.1777 47.2915 23.0891C47.3228 23.0004 47.3368 22.9064 47.3323 22.8122L50.0869 11.0385H50.2962L51.9206 15.1303L54.8872 22.0196C54.9924 22.3018 55.135 22.5681 55.3103 22.8116L55.8044 23.2421L56.4399 23.4577H58.9106C59.2824 23.4938 59.6573 23.4485 60.0107 23.3247C60.3637 23.201 60.6869 23.0017 60.9577 22.7404C61.4095 22.204 61.7244 21.563 61.8753 20.8738L66.533 1.1313C66.6744 0.630922 66.4632 0.413277 65.9684 0.413277Z" fill="white"/>
</svg>
