<svg width="24" height="25" viewBox="0 0 24 25" fill="none" xmlns="http://www.w3.org/2000/svg">
<path d="M16.0127 7.0058H19.4809C20.3121 7.0058 21 7.67944 21 8.5581V13.8886H12.7452V7.67944C12.4586 7.59157 12.2006 7.47442 12.0287 7.29869C12 7.29869 12 7.2694 11.9713 7.2694C11.9713 7.2694 11.9713 7.29869 11.9427 7.29869C11.742 7.47442 11.5127 7.59157 11.2548 7.67944V13.8886H3V8.5581C3 7.67944 3.65924 7.0058 4.49045 7.0058H7.98726C7.58599 6.80078 7.21338 6.50789 6.89809 6.24429C5.52229 4.89701 5.26433 3.02254 6.3535 1.96814C6.8121 1.5581 7.41401 1.32379 8.07325 1.32379C9.01911 1.32379 9.99363 1.70454 10.8248 2.49534C11.2834 2.93467 11.7134 3.54973 11.9713 4.13551C12.258 3.54973 12.6879 2.93467 13.1465 2.49534C13.949 1.70454 14.9809 1.32379 15.8981 1.32379C16.586 1.32379 17.1879 1.5581 17.6178 1.96814C18.707 3.02254 18.449 4.89701 17.0446 6.24429C16.758 6.50789 16.3854 6.80078 16.0127 7.0058ZM10.9108 6.15643C11.0255 5.89283 10.7389 4.54555 9.79299 3.6376C9.30573 3.16898 8.6465 2.90538 8.07325 2.90538C7.90127 2.90538 7.61465 2.93467 7.41401 3.1104C7.35669 3.16898 7.18471 3.28613 7.18471 3.60831C7.18471 3.98906 7.41401 4.57484 7.9586 5.07275C8.6465 5.74639 9.73567 6.21501 10.5382 6.21501C10.7962 6.21501 10.9108 6.15643 10.9108 6.15643ZM13.0892 6.15643C13.0892 6.15643 13.2325 6.21501 13.4618 6.21501C14.2643 6.21501 15.3535 5.74639 16.0414 5.07275C16.586 4.57484 16.758 3.98906 16.758 3.60831C16.758 3.28613 16.6146 3.16898 16.586 3.1104C16.3854 2.93467 16.0701 2.90538 15.8981 2.90538C15.3535 2.90538 14.6656 3.16898 14.1783 3.6376C13.2611 4.54555 12.9459 5.86354 13.0892 6.18572V6.15643ZM11.2548 22.3238H4.49045C3.65924 22.3238 3 21.6502 3 20.8008V15.4409H11.2548V22.3238ZM19.4809 22.3238H12.7452V15.4409H21V20.8008C21 21.6502 20.3121 22.3238 19.4809 22.3238Z" fill="white"/>
</svg>
