<svg width="130" height="29" viewBox="0 0 130 29" fill="none" xmlns="http://www.w3.org/2000/svg">
<g opacity="0.5">
<path opacity="0.5" d="M120.062 12.7324C119.996 12.9736 119.878 13.1984 119.717 13.3926C119.57 13.5673 119.392 13.7156 119.192 13.831C118.984 13.9485 118.758 14.0327 118.523 14.0804C118.277 14.1357 118.025 14.1636 117.773 14.1633C117.585 14.1618 117.399 14.1418 117.216 14.1036C117.046 14.0702 116.883 14.0075 116.735 13.9184C116.603 13.8358 116.492 13.7261 116.407 13.597C116.327 13.4562 116.289 13.2959 116.299 13.1348C116.304 13.0241 116.322 12.9142 116.35 12.807L117.789 7.95513H115.921L114.53 12.7009C114.501 12.8023 114.479 12.9056 114.465 13.0101C114.451 13.1072 114.441 13.203 114.437 13.3013C114.415 13.6487 114.5 13.9944 114.682 14.2938C114.863 14.5738 115.107 14.8106 115.394 14.9868C115.712 15.1785 116.061 15.3159 116.427 15.393C116.826 15.4792 117.234 15.5223 117.643 15.5216C118.136 15.5248 118.626 15.4722 119.106 15.3647C119.536 15.27 119.949 15.1127 120.331 14.8981C120.688 14.6982 121.004 14.4368 121.265 14.1267C121.52 13.8148 121.711 13.4571 121.826 13.0738L123.331 7.95386H121.448L120.062 12.7324Z" fill="#749ED3"/>
<path opacity="0.5" d="M113.342 8.56645C113.129 8.37056 112.877 8.21958 112.602 8.12293C112.259 8.00583 111.898 7.94965 111.536 7.95707H107.476L105.278 15.4593H107.145L107.174 15.3622C107.31 14.8917 107.447 14.425 107.579 13.9545C107.701 13.5154 107.829 13.0815 107.966 12.6521H109.866C109.97 13.0815 110.074 13.5154 110.177 13.9493C110.29 14.4205 110.408 14.8871 110.527 15.3577L110.555 15.4593H112.535L111.682 12.3937C112.011 12.2873 112.325 12.14 112.615 11.9553C112.887 11.7877 113.13 11.5805 113.337 11.3408C113.514 11.1347 113.652 10.9006 113.748 10.6485C113.832 10.4232 113.88 10.1863 113.89 9.94656C113.902 9.69652 113.862 9.4466 113.772 9.21249C113.681 8.96783 113.534 8.74682 113.342 8.56645ZM111.898 9.98383V9.98962C111.878 10.0348 111.852 10.0767 111.819 10.1137C111.739 10.2012 111.647 10.2766 111.544 10.3374L111.518 10.3547C111.367 10.4459 111.205 10.5189 111.036 10.572C110.853 10.6343 110.681 10.7227 110.524 10.8343C110.313 10.7609 110.091 10.7234 109.868 10.7237H108.715L108.961 9.88805H111.537C111.663 9.8822 111.788 9.89656 111.909 9.93049H111.915C111.911 9.94754 111.905 9.96431 111.898 9.98063L111.898 9.98383Z" fill="#749ED3"/>
</g>
<path d="M1.9864 23.6975L7.48 3.50312C7.50986 3.39296 7.57594 3.2955 7.66802 3.22579C7.76013 3.15608 7.87309 3.118 7.98949 3.11743H13.8422C13.9235 3.11723 14.0036 3.13547 14.0764 3.17072C14.1492 3.20596 14.2127 3.25725 14.2618 3.32056C14.3131 3.38269 14.3481 3.4562 14.3637 3.53465C14.3793 3.6131 14.3749 3.69409 14.3511 3.77052L10.0978 19.3206C10.075 19.3971 10.0712 19.4779 10.0868 19.5562C10.1023 19.6345 10.1367 19.7079 10.1871 19.7706C10.2354 19.8347 10.2987 19.8867 10.3716 19.922C10.4446 19.9574 10.5252 19.9751 10.6066 19.9737H21.911C21.992 19.9733 22.0721 19.9914 22.1448 20.0263C22.2175 20.0613 22.2811 20.1123 22.3304 20.1753C22.3796 20.2383 22.4133 20.3116 22.4289 20.3895C22.4444 20.4674 22.4413 20.5477 22.4198 20.6242L21.5006 23.9668C21.4706 24.0769 21.4045 24.1743 21.3125 24.244C21.2204 24.3137 21.1075 24.3518 20.9911 24.3525H2.49591C2.41459 24.3528 2.3343 24.3346 2.26138 24.2994C2.18846 24.2641 2.1249 24.2127 2.0757 24.1494C2.02621 24.0859 1.9924 24.0121 1.97691 23.9337C1.96142 23.8553 1.96467 23.7744 1.9864 23.6975Z" fill="white"/>
<path d="M30.1636 3.1199H47.3055C47.4028 3.11903 47.4986 3.14072 47.5855 3.18318C47.6728 3.22563 47.7482 3.28765 47.8058 3.36416C47.8652 3.43821 47.9061 3.52464 47.9258 3.61672C47.9455 3.70881 47.9429 3.80407 47.9187 3.89512L47.8065 4.32323C46.9831 5.2239 46.2707 6.21638 45.6846 7.28012C45.6497 7.34616 45.5965 7.40143 45.5315 7.4398C45.4665 7.47812 45.3919 7.49809 45.3161 7.4974H35.5587C35.4188 7.49543 35.2825 7.54001 35.1719 7.62387C35.0613 7.70772 34.9831 7.82587 34.9501 7.95892L34.2048 10.723C34.1797 10.8143 34.1765 10.9102 34.1953 11.003C34.2141 11.0958 34.2545 11.1831 34.3134 11.2581C34.3722 11.3332 34.448 11.3939 34.5347 11.4357C34.6215 11.4774 34.7168 11.499 34.8135 11.4988H43.5459C43.6432 11.497 43.7394 11.5183 43.8263 11.5608C43.9136 11.6034 43.9886 11.6659 44.0455 11.7431C44.1056 11.8178 44.1465 11.9053 44.1654 11.9984C44.1844 12.0916 44.1803 12.1878 44.1539 12.2792L43.3241 15.3538C43.2885 15.4859 43.2086 15.6026 43.0976 15.6854C42.9865 15.7682 42.8506 15.8123 42.7109 15.8108H33.3139C33.1737 15.8095 33.0371 15.8543 32.9259 15.9379C32.8147 16.0216 32.7354 16.1393 32.7006 16.2723L31.8805 19.2504C31.8541 19.3426 31.8502 19.4395 31.869 19.5334C31.8878 19.6272 31.9289 19.7155 31.9889 19.791C32.0477 19.8671 32.124 19.9284 32.2116 19.9701C32.2993 20.0118 32.3957 20.0326 32.4931 20.0308H44.1955C44.2925 20.0298 44.3887 20.0516 44.4756 20.0942C44.5621 20.1367 44.6375 20.199 44.6951 20.2757C44.7549 20.3511 44.7961 20.4392 44.8151 20.533C44.8336 20.6268 44.8299 20.7236 44.8032 20.8156L43.9452 23.8908C43.9099 24.0222 43.8311 24.1384 43.7212 24.2212C43.6109 24.3039 43.4761 24.3485 43.3371 24.3479H24.3443C24.2631 24.3481 24.183 24.3298 24.1102 24.2946C24.0374 24.2594 23.9739 24.208 23.9248 24.1447C23.8735 24.0826 23.8385 24.0091 23.8228 23.9307C23.8071 23.8523 23.8113 23.7713 23.8348 23.6948L29.2444 3.80963C29.2975 3.61099 29.4167 3.43535 29.5832 3.31044C29.7497 3.18553 29.9539 3.11849 30.1636 3.1199Z" fill="white"/>
<path d="M81.048 13.4512L78.2418 23.9868C78.2155 24.0905 78.1542 24.1826 78.0676 24.248C77.9815 24.3135 77.8749 24.3485 77.7657 24.3473L71.8429 24.3146C71.7838 24.3135 71.7255 24.2996 71.6724 24.2741C71.6196 24.2485 71.5728 24.2119 71.5361 24.1667C71.4993 24.1211 71.474 24.0676 71.4629 24.0106C71.4514 23.9536 71.454 23.8947 71.4703 23.8389L71.4803 23.8023C73.9671 20.7133 75.1003 16.7847 74.6319 12.8784C74.6081 12.6822 74.6223 12.4833 74.6739 12.2922L77.0551 3.70948C77.1008 3.54041 77.2022 3.39098 77.3441 3.28481C77.486 3.17863 77.6602 3.12178 77.8385 3.12324H82.4085C82.5556 3.12176 82.7004 3.16072 82.826 3.23571C82.9519 3.3107 83.0537 3.41871 83.1202 3.54749L89.0103 14.5131C89.0303 14.5489 89.0608 14.578 89.0976 14.5969C89.1343 14.6158 89.1763 14.6235 89.2175 14.6192C89.2602 14.6163 89.3011 14.5999 89.3334 14.5724C89.3657 14.5449 89.388 14.5078 89.3969 14.4668L92.5563 3.12324H98.5029C98.5794 3.12193 98.6548 3.13837 98.7231 3.17123C98.7918 3.20409 98.8513 3.25242 98.8969 3.31222C98.9449 3.37029 98.9776 3.43889 98.9928 3.51212C99.0076 3.58535 99.0039 3.66102 98.9824 3.73262L93.5328 23.7605C93.4886 23.9297 93.3883 24.0797 93.2472 24.1868C93.1064 24.2939 92.9329 24.352 92.7546 24.3519H88.2901C88.1467 24.3538 88.0056 24.3174 87.8815 24.2466C87.7578 24.1759 87.656 24.0733 87.5873 23.9501L81.4424 13.4081C81.4224 13.3729 81.3915 13.3444 81.3548 13.3263C81.3176 13.3082 81.276 13.3013 81.2352 13.3065C81.1925 13.3095 81.152 13.3249 81.1189 13.3507C81.0855 13.3765 81.0606 13.4115 81.048 13.4512Z" fill="white"/>
<path d="M111.804 9.53002C111.588 9.35002 111.248 9.31274 110.974 9.31274H108.946L108.362 11.2939H110.324C110.552 11.2941 110.779 11.2614 110.998 11.1968C111.192 11.1403 111.377 11.0547 111.545 10.9429C111.691 10.8437 111.814 10.7145 111.903 10.5643C111.988 10.416 112.035 10.2497 112.04 10.0796C112.049 9.97613 112.033 9.87198 111.992 9.77623C111.951 9.68045 111.886 9.59594 111.804 9.53002Z" fill="white"/>
<path d="M125.3 3.12439H106.05C104.584 3.12439 103.056 4.29687 102.66 5.73288L99.6559 16.6291C99.1511 18.4617 100.269 19.9575 102.141 19.9575H121.556C123.023 19.9575 124.546 18.785 124.942 17.349L127.904 6.6103C128.434 4.69412 127.262 3.12439 125.3 3.12439ZM113.889 9.94325C113.879 10.1831 113.831 10.42 113.747 10.6452C113.651 10.8972 113.513 11.1314 113.336 11.3375C113.129 11.577 112.885 11.7843 112.614 11.952C112.323 12.1367 112.01 12.284 111.681 12.3904L112.534 15.4559H110.554L110.526 15.3544C110.407 14.8839 110.289 14.4172 110.176 13.946C110.073 13.5121 109.969 13.0782 109.865 12.6488H107.965C107.828 13.0782 107.702 13.5121 107.578 13.9511C107.447 14.4217 107.309 14.8884 107.173 15.3589L107.144 15.4559H105.277L107.474 7.95379H111.535C111.897 7.94634 112.258 8.00252 112.6 8.11961C112.875 8.21645 113.128 8.36739 113.341 8.56317C113.532 8.74357 113.679 8.96459 113.77 9.20917C113.86 9.44325 113.901 9.69317 113.889 9.94325ZM121.825 13.0737C121.71 13.4571 121.519 13.8147 121.264 14.1266C121.003 14.4368 120.687 14.6981 120.33 14.898C119.948 15.1126 119.534 15.2699 119.104 15.3647C118.625 15.4722 118.134 15.5248 117.642 15.5215C117.233 15.5223 116.825 15.4792 116.426 15.393C116.06 15.3158 115.711 15.1784 115.393 14.9867C115.105 14.8105 114.862 14.5738 114.681 14.2938C114.499 13.9943 114.414 13.6486 114.435 13.3013C114.44 13.2042 114.449 13.1084 114.464 13.0101C114.478 12.9056 114.5 12.8023 114.529 12.7009L115.92 7.95506H117.788L116.353 12.8082C116.324 12.9154 116.306 13.0253 116.301 13.1361C116.291 13.2971 116.329 13.4575 116.409 13.5983C116.494 13.7274 116.606 13.837 116.738 13.9196C116.885 14.0087 117.048 14.0714 117.218 14.1048C117.401 14.143 117.588 14.163 117.775 14.1646C118.027 14.1648 118.279 14.137 118.525 14.0816C118.76 14.0339 118.986 13.9498 119.195 13.8322C119.394 13.7169 119.572 13.5686 119.72 13.3938C119.88 13.1997 119.998 12.9748 120.064 12.7337L121.45 7.95506H123.332L121.825 13.0737Z" fill="white"/>
<path d="M59.6269 26.5637C66.3598 26.5637 71.8183 21.2199 71.8183 14.6281C71.8183 8.03624 66.3598 2.6925 59.6269 2.6925C52.8937 2.6925 47.4355 8.03624 47.4355 14.6281C47.4355 21.2199 52.8937 26.5637 59.6269 26.5637Z" fill="white"/>
<path fill-rule="evenodd" clip-rule="evenodd" d="M57.9927 2.79663C55.9981 3.0613 54.1012 3.80471 52.4714 4.96066C50.8416 6.11659 49.5286 7.64921 48.6502 9.42201L54.9741 8.21226L57.9927 2.79663ZM47.589 12.7138C47.2748 14.6232 47.4378 16.5788 48.0648 18.4129C48.6914 20.247 49.763 21.905 51.1878 23.2449L51.9139 17.1794L47.589 12.7138ZM54.1681 25.3038C55.8845 26.1433 57.7791 26.575 59.6979 26.5638C61.6167 26.5526 63.5058 26.099 65.2122 25.2395L59.7232 22.6953L54.1681 25.3038ZM68.386 22.9312C70.5927 20.7084 71.8247 17.7295 71.8195 14.63C71.8191 14.0614 71.7783 13.4935 71.6966 12.9304L67.6554 17.1967L68.386 22.9312ZM70.5366 9.29281C69.6786 7.61459 68.4291 6.15779 66.8892 5.04034C65.3492 3.9229 63.5623 3.17627 61.6728 2.86091L64.6435 8.27205L70.5366 9.29281Z" fill="#D72629"/>
<path fill-rule="evenodd" clip-rule="evenodd" d="M59.5865 20.3316L62.3172 18.3923L65.0472 16.4485L64.005 13.3045L62.9631 10.1605H59.5865H56.2094L55.1676 13.3045L54.1257 16.4485L56.8557 18.3923L59.5865 20.3316Z" fill="#D72629"/>
</svg>
