<svg width="134" height="41" viewBox="0 0 134 41" fill="none" xmlns="http://www.w3.org/2000/svg">
<path d="M26.4587 14.5494H33.1084C36.6082 14.5494 38.7351 12.9817 39.7042 9.65706L40.2432 7.82296C41.4813 3.5972 39.4618 0.962952 35.047 0.962952H6.13298L0.749756 19.4941H25.0322L26.4587 14.5494ZM28.9626 5.96156H35.0125L33.8896 9.97604H27.8052L28.9626 5.96156Z" fill="#EAE200"/>
<path d="M42.7202 19.4936L44.4973 16.3829H52.7355V19.4936H58.1463V0.935791H47.5124L36.4473 19.4936H42.7202ZM50.5011 5.98759H52.7355V11.89H47.0818L50.5011 5.98759Z" fill="#EAE200"/>
<path d="M80.2218 9.47041L80.7052 7.7958C81.9452 3.51483 79.9229 0.935791 75.5109 0.935791H65.2275L59.8396 19.4936H65.4665L66.9482 14.3893H70.4479L72.0353 19.4936H77.8238L76.1271 14.041C78.1763 13.4317 79.522 11.9166 80.2218 9.47041ZM74.3261 9.94751H68.2422L69.3995 5.93304H75.4573L74.3261 9.94751Z" fill="#EAE200"/>
<path d="M85.499 19.4936L90.8838 0.935791H85.2301L79.8726 19.4936H85.499Z" fill="#EAE200"/>
<path d="M51.0119 22.1258L44.6584 29.5433L42.047 22.1258H17.6824L12.3254 40.7102H36.6085L39.5701 30.4477L41.5357 36.19H45.1698L50.4201 30.075L47.3238 40.7102H52.9498L58.3078 22.1258H51.0119Z" fill="#EAE200"/>
<path d="M54.7537 40.6837H61.0267L62.8073 37.5729H71.0416V40.6837H76.4528V22.1524L65.8437 22.1258L54.7537 40.6837ZM71.0416 27.2042V33.1066H65.4151L68.8072 27.2042H71.0416Z" fill="#EAE200"/>
<path d="M97.0203 22.1258H79.9253L78.3911 27.4434H84.5826L80.7328 40.7102H86.3596L90.2094 27.4434H95.4862L97.0203 22.1258Z" fill="#EAE200"/>
<path d="M102.999 27.4434H111.532L113.094 22.1524H103.995C100.495 22.1524 98.3677 23.72 97.3989 27.0447L95.4066 33.8243C94.1413 38.1578 96.1869 40.6837 100.602 40.6837H107.683L109.218 35.3926H100.683L102.999 27.4434Z" fill="#EAE200"/>
<path d="M127.631 22.1258L125.693 28.7725H119.258L121.17 22.1258H115.543L110.186 40.7102H115.812L117.724 34.0635H124.159L122.247 40.7102H127.9L133.258 22.1258H127.631Z" fill="#EAE200"/>
</svg>
