<svg width="21" height="21" viewBox="0 0 21 21" fill="none" xmlns="http://www.w3.org/2000/svg">
<path d="M10.6267 9.87528C11.8417 9.87528 12.8937 9.43953 13.7533 8.5798C14.6129 7.72021 15.0487 6.66845 15.0487 5.45337C15.0487 4.23871 14.6129 3.18681 13.7532 2.32694C12.8934 1.46749 11.8415 1.03174 10.6267 1.03174C9.41166 1.03174 8.3599 1.46749 7.50031 2.32708C6.64072 3.18667 6.20483 4.23857 6.20483 5.45337C6.20483 6.66845 6.64072 7.72035 7.50045 8.57994C8.36018 9.43939 9.41208 9.87528 10.6267 9.87528Z" fill="#69A5FF"/>
<path d="M18.3635 15.1489C18.3387 14.7912 18.2886 14.4009 18.2147 13.9889C18.1402 13.5737 18.0443 13.1812 17.9294 12.8225C17.8108 12.4518 17.6494 12.0856 17.45 11.7348C17.243 11.3706 16.9998 11.0535 16.7269 10.7925C16.4416 10.5196 16.0923 10.3001 15.6884 10.14C15.2858 9.98072 14.8397 9.90004 14.3625 9.90004C14.1751 9.90004 13.9938 9.97694 13.6438 10.2048C13.4284 10.3453 13.1764 10.5078 12.8951 10.6875C12.6546 10.8407 12.3288 10.9843 11.9264 11.1143C11.5338 11.2413 11.1352 11.3058 10.7418 11.3058C10.3483 11.3058 9.94981 11.2413 9.55679 11.1143C9.1548 10.9844 8.829 10.8409 8.58879 10.6876C8.31019 10.5096 8.05807 10.3471 7.83943 10.2047C7.48982 9.9768 7.30843 9.8999 7.12103 9.8999C6.64368 9.8999 6.19771 9.98072 5.79529 10.1401C5.39162 10.2999 5.04215 10.5194 4.75656 10.7927C4.48385 11.0538 4.24055 11.3707 4.03381 11.7348C3.8345 12.0856 3.67314 12.4516 3.55436 12.8227C3.43965 13.1814 3.3437 13.5737 3.26919 13.9889C3.19537 14.4004 3.14523 14.7908 3.12044 15.1493C3.09607 15.5006 3.08374 15.8652 3.08374 16.2334C3.08374 17.1918 3.38839 17.9676 3.98913 18.5398C4.58245 19.1044 5.36753 19.3908 6.32222 19.3908H15.1621C16.1168 19.3908 16.9016 19.1045 17.4951 18.5398C18.096 17.968 18.4006 17.1921 18.4006 16.2333C18.4005 15.8634 18.388 15.4985 18.3635 15.1489Z" fill="#69A5FF"/>
</svg>
