<svg width="21" height="21" viewBox="0 0 21 21" fill="none" xmlns="http://www.w3.org/2000/svg">
<g clip-path="url(#clip0)">
<path d="M16.4861 0.778179V0.776113C16.1311 0.419243 15.6485 0.218468 15.1452 0.218262H6.33731C5.29118 0.221671 4.44402 1.06883 4.44061 2.11496V18.3195C4.44082 18.8229 4.64159 19.3054 4.99846 19.6604C5.35296 20.0168 5.83467 20.2175 6.33731 20.2183H15.1472C15.6499 20.2175 16.1316 20.0168 16.4861 19.6604C16.8424 19.3059 17.0431 18.8242 17.0439 18.3216V2.11702C17.0431 1.61439 16.8424 1.13267 16.4861 0.778179ZM10.7423 18.9311C10.4593 18.9311 10.2299 18.7017 10.2299 18.4187C10.2299 18.1357 10.4593 17.9063 10.7423 17.9063C11.0253 17.9063 11.2547 18.1357 11.2547 18.4187C11.2547 18.7017 11.0253 18.9311 10.7423 18.9311ZM15.5377 15.7141C15.5377 16.3988 14.9827 16.9538 14.298 16.9538H7.18441C6.49976 16.9538 5.94475 16.3988 5.94475 15.7141V3.63768C5.94475 2.95302 6.49976 2.39801 7.18441 2.39801H14.3001C14.9848 2.39801 15.5398 2.95302 15.5398 3.63768L15.5377 15.7141Z" fill="#69A5FF"/>
</g>
<defs>
<clipPath id="clip0">
<rect width="20" height="20" fill="white" transform="translate(0.742188 0.218262)"/>
</clipPath>
</defs>
</svg>
