<svg width="21" height="21" viewBox="0 0 21 21" fill="none" xmlns="http://www.w3.org/2000/svg">
<path d="M3.77359 2.41732C3.85852 2.36873 3.95474 2.34336 4.05259 2.34375C4.15043 2.34415 4.24645 2.37029 4.33099 2.41955L13.0744 7.51977L10.3688 9.9545L3.49377 3.76734V2.90114C3.49369 2.803 3.51953 2.70658 3.56866 2.62162C3.61779 2.53667 3.68849 2.46619 3.77359 2.41732Z" fill="#69A5FF"/>
<path d="M3.49377 5.26758V16.1414L9.536 10.7045L3.49377 5.26758Z" fill="#69A5FF"/>
<path d="M3.49377 17.6422V18.5084C3.49375 18.6065 3.51959 18.7029 3.56871 18.7877C3.61783 18.8726 3.68848 18.9431 3.77352 18.9919C3.85856 19.0408 3.95499 19.0663 4.05307 19.066C4.15114 19.0657 4.2474 19.0395 4.33211 18.99L13.0744 13.8898L10.3688 11.4551L3.49377 17.6422Z" fill="#69A5FF"/>
<path d="M14.0855 13.2999L17.7086 11.1862C17.7928 11.1372 17.8627 11.0669 17.9112 10.9824C17.9598 10.8979 17.9853 10.8021 17.9853 10.7046C17.9853 10.6072 17.9598 10.5114 17.9112 10.4269C17.8627 10.3424 17.7928 10.2721 17.7086 10.223L14.0855 8.10938L11.2015 10.7046L14.0855 13.2999Z" fill="#69A5FF"/>
</svg>
