<svg width="25" height="25" viewBox="0 0 25 25" fill="none" xmlns="http://www.w3.org/2000/svg">
<path d="M4.42909 10.4167C4.25425 11.0973 4.16605 11.7973 4.16659 12.5C4.16659 13.2188 4.25825 13.9167 4.42909 14.5834H7.39575C7.25531 13.198 7.25531 11.802 7.39575 10.4167H4.42909ZM5.28117 8.33337H7.72492C8.002 7.06567 8.402 5.93025 8.89263 4.98546C7.38031 5.71402 6.12202 6.88049 5.28117 8.33337V8.33337ZM20.5708 10.4167H17.6041C17.7445 11.802 17.7445 13.198 17.6041 14.5834H20.5708C20.9214 13.2166 20.9214 11.7835 20.5708 10.4167V10.4167ZM19.7187 8.33337C18.8778 6.88049 17.6195 5.71402 16.1072 4.98546C16.5989 5.93025 16.9978 7.06567 17.2749 8.33337H19.7187ZM9.49159 10.4167C9.41354 11.1084 9.37459 11.804 9.37492 12.5C9.37492 13.2136 9.4145 13.9115 9.49159 14.5834H15.5083C15.6651 13.1989 15.6651 11.8012 15.5083 10.4167H9.49159ZM9.8645 8.33337H15.1353C14.9458 7.55035 14.6723 6.79005 14.3197 6.06567C13.6655 4.75837 12.9655 4.16671 12.4999 4.16671C12.0333 4.16671 11.3343 4.75837 10.6801 6.06567C10.352 6.724 10.076 7.48962 9.8645 8.33337ZM5.28117 16.6667C6.12202 18.1196 7.38031 19.2861 8.89263 20.0146C8.40096 19.0698 8.002 17.9344 7.72492 16.6667H5.28117V16.6667ZM19.7187 16.6667H17.2749C16.9978 17.9344 16.5978 19.0698 16.1072 20.0146C17.6195 19.2861 18.8778 18.1196 19.7187 16.6667ZM9.8645 16.6667C10.076 17.5105 10.352 18.2761 10.6801 18.9344C11.3343 20.2417 12.0343 20.8334 12.4999 20.8334C12.9666 20.8334 13.6655 20.2417 14.3197 18.9344C14.6478 18.2761 14.9239 17.5105 15.1353 16.6667H9.8645V16.6667ZM12.4999 22.9167C6.74679 22.9167 2.08325 18.2532 2.08325 12.5C2.08325 6.74692 6.74679 2.08337 12.4999 2.08337C18.253 2.08337 22.9166 6.74692 22.9166 12.5C22.9166 18.2532 18.253 22.9167 12.4999 22.9167Z" fill="white"/>
</svg>
