<svg width="202" height="30" viewBox="0 0 202 30" fill="none" xmlns="http://www.w3.org/2000/svg">
<path fill-rule="evenodd" clip-rule="evenodd" d="M55.491 14.6683C54.432 26.7231 69.452 20.5809 70.3698 20.3868C70.7227 22.8225 71.0581 25.2581 71.4111 27.6938C70.9698 27.835 46.8073 37.8777 46.1542 14.9154C46.1542 14.633 46.1013 14.3682 46.1366 14.1035C49.4194 -4.87006 71.2169 0.777873 71.6582 0.813172C71.3052 3.42534 70.9698 6.03751 70.6168 8.64968C69.7344 8.36728 56.4794 3.23119 55.491 14.6683ZM89.1315 8.38493L85.2132 29.5294C82.354 29.5294 76.6178 29.5294 76.6178 29.5294L80.7831 8.38493C80.7831 8.38493 76.0883 8.38493 73.7409 8.38493C74.1821 5.68451 74.6057 2.9841 75.0469 0.30133C82.3363 0.30133 89.6433 0.30133 96.9327 0.30133C96.4914 3.00175 96.0678 5.70216 95.6266 8.38493C93.491 8.38493 91.3024 8.38493 89.1315 8.38493ZM103.463 25.2934L106.322 19.8573L109.693 21.6752L108.652 10.2735C108.652 10.2735 99.4037 27.9585 98.5212 28.488C96.615 29.7588 92.6085 29.5823 89.3962 29.5294L105.528 0.30133H114.671C116.065 10.044 117.459 19.7867 118.836 29.5294C116.4 29.5294 111.741 29.5294 111.741 29.5294L103.463 25.2934ZM138.992 6.8847C136.645 6.8847 134.491 6.8141 132.144 6.8141C131.879 8.47318 131.367 11.5089 131.367 11.5089C131.367 11.5089 132.497 11.5089 134.227 11.5089C136.857 11.5089 139.786 12.1443 140.545 9.74397C141.181 7.67894 139.204 6.93765 138.992 6.8847ZM129.285 22.4695H135.462C135.462 22.4695 138.392 22.4518 138.992 20.1044C139.716 17.2804 137.174 17.2628 137.174 17.2628H129.902L129.285 22.4695ZM147.799 21.6576C145.54 29.7235 138.198 29.4235 138.198 29.4235C138.198 29.4235 124.096 29.5294 120.672 29.5117C122.401 19.8573 124.149 10.2029 125.878 0.530775L138.974 0.142477C138.974 0.142477 146.546 0.548424 148.046 6.8847C149.141 11.5442 144.94 14.4035 144.94 14.4035C144.94 14.4035 149.035 17.2275 147.799 21.6576ZM193.442 29.4411L186.7 25.0287L189.294 19.5925L192.665 21.4105L191.624 10.2735C191.624 10.2735 191.112 10.1146 191.112 10.2735C191.094 10.4323 181.51 29.4411 181.51 29.4411L165.502 29.5294L160.295 18.0394H160.031C160.031 18.0394 158.636 25.6994 157.948 29.5294C155.089 29.5294 152.212 29.5294 149.353 29.5294C149.353 29.4411 155.089 0.30133 155.089 0.30133H163.437L161.619 9.95576H161.884C161.884 9.95576 168.132 3.51359 171.274 0.30133C174.662 0.30133 178.051 0.30133 181.44 0.30133L167.55 14.6683L173.85 27.182L188.253 0.671971H197.325L201.737 29.4235H193.442V29.4411Z" fill="#4878FE"/>
<path fill-rule="evenodd" clip-rule="evenodd" d="M24.7627 11.2478C24.5685 11.3361 17.7204 0.28732 17.7204 0.28732C20.4208 -0.0656762 26.1217 -0.153925 27.8867 0.552066C27.8867 0.640315 31.3813 2.10524 32.052 3.67608C32.1403 3.85257 32.2285 3.92317 31.8932 4.29382C29.5457 6.74714 27.1101 8.81217 24.7627 11.2478ZM47.7074 29.18C47.7074 29.18 41.0711 30.1331 36.5527 28.1387C34.2759 27.1326 30.5871 20.8846 30.5871 20.8846L22.3976 29.533C15.7966 29.533 2.59452 29.533 2.59452 29.533L5.70088 11.8303C5.70088 11.8303 1.99443 13.5247 0 14.4071C0 11.8832 0 9.35931 0 6.83539C0.264747 6.74714 9.81328 0.481468 9.90153 0.30497C12.1607 0.30497 16.6791 0.30497 16.6791 0.30497C16.6791 0.30497 12.1607 25.3147 11.9842 26.9385C12.0725 26.9385 12.1607 26.9385 12.249 26.9385C21.0209 18.0607 29.7928 9.18281 38.5648 0.30497C42.4654 0.30497 50.8137 0.30497 50.8137 0.30497L37.3293 13.6482L47.7074 29.18Z" fill="white"/>
</svg>
