<svg width="252" height="44" viewBox="0 0 252 44" fill="none" xmlns="http://www.w3.org/2000/svg">
<path fill-rule="evenodd" clip-rule="evenodd" d="M69.3536 21.7321C68.0333 39.1278 86.7602 30.2644 87.9045 29.9842C88.3446 33.499 88.7627 37.0138 89.2028 40.5287C88.6527 40.7324 58.5268 55.2246 57.7126 22.0886C57.7126 21.6811 57.6465 21.2991 57.6905 20.917C61.7836 -6.46283 88.9607 1.68746 89.5109 1.7384C89.0708 5.5079 88.6527 9.27741 88.2125 13.0469C87.1123 12.6394 70.5859 5.22774 69.3536 21.7321ZM111.297 12.6649L106.411 43.1775C102.846 43.1775 95.6945 43.1775 95.6945 43.1775L100.888 12.6649C100.888 12.6649 95.0343 12.6649 92.1076 12.6649C92.6577 8.76801 93.1859 4.87116 93.736 0.999777C102.824 0.999777 111.935 0.999777 121.023 0.999777C120.473 4.89663 119.945 8.79348 119.395 12.6649C116.732 12.6649 114.003 12.6649 111.297 12.6649ZM129.165 37.0648L132.73 29.2201L136.933 31.8435L135.635 15.3901C135.635 15.3901 124.104 40.9107 123.004 41.6748C120.627 43.5086 115.632 43.2539 111.627 43.1775L131.74 0.999777H143.139C144.877 15.059 146.616 29.1183 148.332 43.1775C145.296 43.1775 139.486 43.1775 139.486 43.1775L129.165 37.0648ZM173.463 10.4999C170.536 10.4999 167.851 10.3981 164.925 10.3981C164.595 12.7922 163.956 17.173 163.956 17.173C163.956 17.173 165.365 17.173 167.521 17.173C170.8 17.173 174.453 18.0899 175.399 14.626C176.192 11.6461 173.727 10.5764 173.463 10.4999ZM161.36 32.9896H169.062C169.062 32.9896 172.715 32.9642 173.463 29.5767C174.365 25.5016 171.196 25.4761 171.196 25.4761H162.13L161.36 32.9896ZM184.444 31.818C181.627 43.4577 172.473 43.0247 172.473 43.0247C172.473 43.0247 154.89 43.1775 150.621 43.152C152.777 29.2201 154.956 15.2882 157.113 1.33088L173.441 0.770544C173.441 0.770544 182.881 1.35635 184.752 10.4999C186.116 17.2239 180.879 21.35 180.879 21.35C180.879 21.35 185.984 25.4252 184.444 31.818ZM241.351 43.0501L232.945 36.6827L236.179 28.8381L240.382 31.4615L239.084 15.3901C239.084 15.3901 238.446 15.1609 238.446 15.3901C238.424 15.6194 226.475 43.0501 226.475 43.0501L206.516 43.1775L200.024 26.5968H199.694C199.694 26.5968 197.955 37.6506 197.097 43.1775C193.532 43.1775 189.945 43.1775 186.38 43.1775C186.38 43.0501 193.532 0.999777 193.532 0.999777H203.941L201.674 14.9317H202.004C202.004 14.9317 209.794 5.63525 213.711 0.999777C217.937 0.999777 222.162 0.999777 226.387 0.999777L209.068 21.7321L216.924 39.79L234.881 1.53463H246.192L251.693 43.0247H241.351V43.0501Z" fill="#4878FE"/>
<path fill-rule="evenodd" clip-rule="evenodd" d="M31.0411 16.7931C30.799 16.9204 22.2608 0.976413 22.2608 0.976413C25.6277 0.467021 32.7355 0.339672 34.9361 1.35846C34.9361 1.48581 39.2933 3.59978 40.1295 5.86658C40.2395 6.12128 40.3495 6.22315 39.9314 6.75802C37.0047 10.2983 33.9679 13.2782 31.0411 16.7931ZM59.6486 42.6702C59.6486 42.6702 51.3744 44.0456 45.7409 41.1675C42.9022 39.7157 38.303 30.6995 38.303 30.6995L28.0923 43.1796C19.8622 43.1796 3.40184 43.1796 3.40184 43.1796L7.27486 17.6336C7.27486 17.6336 2.65364 20.0786 0.166992 21.3521C0.166992 17.71 0.166992 14.0678 0.166992 10.4257C0.497079 10.2983 12.4022 1.25658 12.5122 1.00188C15.329 1.00188 20.9624 1.00188 20.9624 1.00188C20.9624 1.00188 15.329 37.0924 15.1089 39.4356C15.2189 39.4356 15.329 39.4356 15.439 39.4356C26.3759 26.6243 37.3127 13.8131 48.2496 1.00188C53.1129 1.00188 63.5216 1.00188 63.5216 1.00188L46.7092 20.2569L59.6486 42.6702Z" fill="white"/>
</svg>
