<svg width="285" height="60" viewBox="0 0 285 60" fill="none" xmlns="http://www.w3.org/2000/svg">
<path fill-rule="evenodd" clip-rule="evenodd" d="M0 0H285V50C285 55.5228 280.523 60 275 60L266.773 60C266.773 56.7512 263.064 54.1176 258.488 54.1176C253.912 54.1176 250.203 56.7512 250.203 60H233.634C233.634 56.7512 229.925 54.1176 225.349 54.1176C220.774 54.1176 217.064 56.7512 217.064 60H200.495C200.495 56.7512 196.785 54.1176 192.21 54.1176C187.634 54.1176 183.925 56.7512 183.925 60H167.355C167.355 56.7512 163.646 54.1176 159.07 54.1176C154.494 54.1176 150.785 56.7512 150.785 60H134.215C134.215 56.7512 130.506 54.1176 125.93 54.1176C121.354 54.1176 117.645 56.7512 117.645 60H101.075C101.075 56.7512 97.3659 54.1176 92.7903 54.1176C88.2146 54.1176 84.5054 56.7512 84.5054 60H67.9365C67.9365 56.7512 64.2272 54.1176 59.6516 54.1176C55.076 54.1176 51.3667 56.7512 51.3667 60H34.7968C34.7968 56.7512 31.0875 54.1176 26.5119 54.1176C21.9363 54.1176 18.2271 56.7512 18.2271 60L10 60C4.47715 60 0 55.5228 0 50V0Z" fill="#6A32DF"/>
</svg>
