<svg width="20" height="20" viewBox="0 0 20 20" fill="none" xmlns="http://www.w3.org/2000/svg">
<path fill-rule="evenodd" clip-rule="evenodd" d="M12.3772 9.99956L19.508 2.86882C20.1644 2.21242 20.1644 1.1482 19.508 0.491901C18.8516 -0.164493 17.7875 -0.164493 17.1311 0.491901L10.0002 7.62274L2.86938 0.491807C2.21299 -0.164587 1.14886 -0.164587 0.492469 0.491807C-0.163831 1.1482 -0.163831 2.21242 0.492469 2.86872L7.62331 9.99946L0.492469 17.1303C-0.163831 17.7867 -0.163831 18.8509 0.492469 19.5072C1.14886 20.1636 2.21299 20.1636 2.86938 19.5072L10.0002 12.3764L17.1311 19.5072C17.7874 20.1636 18.8516 20.1636 19.508 19.5072C20.1644 18.8508 20.1644 17.7867 19.508 17.1303L12.3772 9.99956Z" fill="#838FC0"/>
</svg>
