<svg width="22" height="18" viewBox="0 0 22 18" fill="none" xmlns="http://www.w3.org/2000/svg">
<path d="M9.91666 13.3333V1.41659C9.91666 1.12927 10.0308 0.853718 10.234 0.650553C10.4371 0.447389 10.7127 0.333252 11 0.333252C11.2873 0.333252 11.5629 0.447389 11.766 0.650553C11.9692 0.853718 12.0833 1.12927 12.0833 1.41659V13.3333H13.1667C13.454 13.3333 13.7295 13.4474 13.9327 13.6506C14.1359 13.8537 14.25 14.1293 14.25 14.4166C14.25 14.7039 14.1359 14.9795 13.9327 15.1826C13.7295 15.3858 13.454 15.4999 13.1667 15.4999H12.0833V16.5833C12.0833 16.8706 11.9692 17.1461 11.766 17.3493C11.5629 17.5524 11.2873 17.6666 11 17.6666C10.7127 17.6666 10.4371 17.5524 10.234 17.3493C10.0308 17.1461 9.91666 16.8706 9.91666 16.5833V15.4999H8.83333C8.54601 15.4999 8.27046 15.3858 8.0673 15.1826C7.86413 14.9795 7.75 14.7039 7.75 14.4166C7.75 14.1293 7.86413 13.8537 8.0673 13.6506C8.27046 13.4474 8.54601 13.3333 8.83333 13.3333H9.91666ZM17.5 2.49992V1.41659C17.5 1.12927 17.6141 0.853718 17.8173 0.650553C18.0205 0.447389 18.296 0.333252 18.5833 0.333252C18.8706 0.333252 19.1462 0.447389 19.3494 0.650553C19.5525 0.853718 19.6667 1.12927 19.6667 1.41659V2.49992H20.75C21.0373 2.49992 21.3129 2.61406 21.516 2.81722C21.7192 3.02038 21.8333 3.29593 21.8333 3.58325C21.8333 3.87057 21.7192 4.14612 21.516 4.34928C21.3129 4.55245 21.0373 4.66658 20.75 4.66658H19.6667V16.5833C19.6667 16.8706 19.5525 17.1461 19.3494 17.3493C19.1462 17.5524 18.8706 17.6666 18.5833 17.6666C18.296 17.6666 18.0205 17.5524 17.8173 17.3493C17.6141 17.1461 17.5 16.8706 17.5 16.5833V4.66658H16.4167C16.1293 4.66658 15.8538 4.55245 15.6506 4.34928C15.4475 4.14612 15.3333 3.87057 15.3333 3.58325C15.3333 3.29593 15.4475 3.02038 15.6506 2.81722C15.8538 2.61406 16.1293 2.49992 16.4167 2.49992H17.5ZM4.5 5.74992H5.58333C5.87065 5.74992 6.1462 5.86406 6.34936 6.06722C6.55253 6.27038 6.66666 6.54593 6.66666 6.83325C6.66666 7.12057 6.55253 7.39612 6.34936 7.59928C6.1462 7.80245 5.87065 7.91658 5.58333 7.91658H4.5V16.5833C4.5 16.8706 4.38586 17.1461 4.1827 17.3493C3.97953 17.5524 3.70398 17.6666 3.41666 17.6666C3.12935 17.6666 2.8538 17.5524 2.65063 17.3493C2.44747 17.1461 2.33333 16.8706 2.33333 16.5833V7.91658H1.25C0.96268 7.91658 0.687129 7.80245 0.483965 7.59928C0.280801 7.39612 0.166664 7.12057 0.166664 6.83325C0.166664 6.54593 0.280801 6.27038 0.483965 6.06722C0.687129 5.86406 0.96268 5.74992 1.25 5.74992H2.33333V1.41659C2.33333 1.12927 2.44747 0.853718 2.65063 0.650553C2.8538 0.447389 3.12935 0.333252 3.41666 0.333252C3.70398 0.333252 3.97953 0.447389 4.1827 0.650553C4.38586 0.853718 4.5 1.12927 4.5 1.41659V5.74992Z" fill="white"/>
</svg>
