<svg width="107" height="17" viewBox="0 0 107 17" fill="none" xmlns="http://www.w3.org/2000/svg">
<path fill-rule="evenodd" clip-rule="evenodd" d="M29.6453 8.6387C29.0872 14.9925 37.0038 11.7551 37.4875 11.6528C37.6736 12.9366 37.8503 14.2203 38.0364 15.5041C37.8038 15.5785 25.0684 20.8718 24.7242 8.76894C24.7242 8.62009 24.6963 8.48055 24.7149 8.34101C26.4452 -1.6594 37.934 1.31747 38.1666 1.33607C37.9806 2.71287 37.8038 4.08967 37.6178 5.46647C37.1526 5.31763 30.1663 2.61054 29.6453 8.6387ZM47.3763 5.32693L45.3111 16.4716C43.8041 16.4716 40.7807 16.4716 40.7807 16.4716L42.9761 5.32693C42.9761 5.32693 40.5016 5.32693 39.2643 5.32693C39.4969 3.90362 39.7202 2.48031 39.9527 1.06629C43.7948 1.06629 47.6461 1.06629 51.4881 1.06629C51.2555 2.48961 51.0323 3.91292 50.7997 5.32693C49.6741 5.32693 48.5205 5.32693 47.3763 5.32693ZM54.9301 14.2389L56.4371 11.3737L58.214 12.3319L57.6651 6.32233C57.6651 6.32233 52.7905 15.6436 52.3253 15.9227C51.3206 16.5925 49.2089 16.4995 47.5158 16.4716L56.0185 1.06629H60.8373C61.5722 6.20139 62.3071 11.3365 63.0328 16.4716C61.749 16.4716 59.2931 16.4716 59.2931 16.4716L54.9301 14.2389ZM73.6565 4.5362C72.4192 4.5362 71.2843 4.49899 70.047 4.49899C69.9075 5.37345 69.6377 6.97352 69.6377 6.97352C69.6377 6.97352 70.2331 6.97352 71.1447 6.97352C72.5308 6.97352 74.0751 7.30841 74.4751 6.04324C74.81 4.95483 73.7681 4.56411 73.6565 4.5362ZM68.54 12.7505H71.7959C71.7959 12.7505 73.3402 12.7412 73.6565 11.5039C74.0379 10.0155 72.6983 10.0062 72.6983 10.0062H68.8656L68.54 12.7505ZM78.2985 12.3226C77.1078 16.5739 73.2378 16.4158 73.2378 16.4158C73.2378 16.4158 65.805 16.4716 64.0002 16.4623C64.9119 11.3737 65.8329 6.28511 66.7445 1.18723L73.6472 0.982567C73.6472 0.982567 77.638 1.19653 78.4287 4.5362C79.0055 6.99212 76.7915 8.49916 76.7915 8.49916C76.7915 8.49916 78.9497 9.98759 78.2985 12.3226ZM102.355 16.4251L98.8017 14.0994L100.169 11.2342L101.946 12.1923L101.397 6.32233C101.397 6.32233 101.127 6.2386 101.127 6.32233C101.118 6.40605 96.0667 16.4251 96.0667 16.4251L87.6291 16.4716L84.8848 10.4155H84.7453C84.7453 10.4155 84.0104 14.4529 83.6476 16.4716C82.1405 16.4716 80.6242 16.4716 79.1172 16.4716C79.1172 16.4251 82.1405 1.06629 82.1405 1.06629H86.5407L85.5825 6.15487H85.7221C85.7221 6.15487 89.0152 2.75939 90.6711 1.06629C92.4572 1.06629 94.2434 1.06629 96.0295 1.06629L88.7082 8.6387L92.0293 15.2343L99.6203 1.26165H104.402L106.728 16.4158H102.355V16.4251Z" fill="#4878FE"/>
<path fill-rule="evenodd" clip-rule="evenodd" d="M13.4501 6.83426C13.3478 6.88077 9.73836 1.05727 9.73836 1.05727C11.1617 0.871221 14.1665 0.824707 15.0967 1.19682C15.0967 1.24333 16.9387 2.01545 17.2922 2.84339C17.3387 2.93642 17.3852 2.97363 17.2084 3.16899C15.9712 4.46207 14.6874 5.55049 13.4501 6.83426ZM25.5437 16.2858C25.5437 16.2858 22.0458 16.7882 19.6644 15.737C18.4643 15.2067 16.52 11.9135 16.52 11.9135L12.2036 16.4719C8.72436 16.4719 1.76594 16.4719 1.76594 16.4719L3.40321 7.14125C3.40321 7.14125 1.44964 8.03431 0.398438 8.49944C0.398438 7.16916 0.398438 5.83887 0.398438 4.50858C0.537978 4.46207 5.57075 1.15961 5.61726 1.06658C6.80801 1.06658 9.1895 1.06658 9.1895 1.06658C9.1895 1.06658 6.80801 14.2485 6.71498 15.1044C6.76149 15.1044 6.80801 15.1044 6.85452 15.1044C11.478 10.4251 16.1014 5.74584 20.7249 1.06658C22.7808 1.06658 27.1809 1.06658 27.1809 1.06658L20.0737 8.09943L25.5437 16.2858Z" fill="white"/>
</svg>
