<svg width="21" height="21" viewBox="0 0 21 21" fill="none" xmlns="http://www.w3.org/2000/svg">
<g clip-path="url(#clip0)">
<path d="M17.9619 10.2448V19.1362H3.24193V10.2448H1.87048V19.8219C1.87048 20.2006 2.17744 20.5076 2.55619 20.5076H18.6476C19.0264 20.5076 19.3333 20.2006 19.3333 19.8219V10.2448H17.9619Z" fill="#69A5FF"/>
<path d="M19.9044 5.10181H1.27579C0.897041 5.10181 0.590088 5.40876 0.590088 5.78751V10.2675C0.590088 10.6463 0.897041 10.9532 1.27579 10.9532H19.9043C20.2831 10.9532 20.59 10.6465 20.59 10.2675V5.78751C20.5901 5.40876 20.2831 5.10181 19.9044 5.10181ZM19.2186 9.58204H1.96153V6.47349H19.2187V9.58204H19.2186Z" fill="#69A5FF"/>
<path d="M11.2646 5.61432C11.218 5.43651 10.0868 1.26233 6.78417 1.26233C5.34737 1.26233 4.17847 2.43124 4.17847 3.86803C4.17847 5.30483 5.3371 6.47374 6.76132 6.47374H10.6013C10.8137 6.47374 11.0144 6.37522 11.1442 6.20698C11.274 6.03874 11.3183 5.81979 11.2646 5.61432ZM6.76136 5.10233C6.08206 5.10233 5.54991 4.56014 5.54991 3.86803C5.54991 3.19901 6.11519 2.63374 6.78421 2.63374C8.2889 2.63374 9.18991 4.11604 9.62308 5.10229H6.76136V5.10233Z" fill="#69A5FF"/>
<path d="M14.419 1.26233C11.1164 1.26233 9.98521 5.43651 9.93857 5.61432C9.88463 5.81979 9.9292 6.03877 10.059 6.20702C10.1889 6.37526 10.3893 6.47377 10.6019 6.47377H14.4419C15.8661 6.47377 17.0247 5.30487 17.0247 3.86807C17.0248 2.43124 15.8559 1.26233 14.419 1.26233ZM14.4419 5.10233H11.5775C12.0074 4.11604 12.9057 2.63377 14.4193 2.63377C15.0883 2.63377 15.6536 3.19905 15.6536 3.86807C15.6536 4.56014 15.1215 5.10233 14.4419 5.10233Z" fill="#69A5FF"/>
<path d="M11.287 5.78772H9.91553V19.822H11.287V5.78772Z" fill="#69A5FF"/>
</g>
<defs>
<clipPath id="clip0">
<rect width="20" height="20" fill="white" transform="translate(0.590088 0.88501)"/>
</clipPath>
</defs>
</svg>
