<svg width="41" height="41" fill="none" xmlns="http://www.w3.org/2000/svg"><rect x=".793" y=".889" width="40" height="40" rx="2" fill="#171A31"/><path d="M21.174 30.843c5.749 0 10.409-4.66 10.409-10.408 0-5.748-4.66-10.408-10.409-10.408-5.748 0-10.407 4.66-10.407 10.408 0 5.748 4.66 10.408 10.407 10.408z" fill="url(#paint0_linear)"/><path d="M21.174 30.843c5.749 0 10.409-4.66 10.409-10.408 0-5.748-4.66-10.408-10.409-10.408-5.748 0-10.407 4.66-10.407 10.408 0 5.748 4.66 10.408 10.407 10.408z" fill="url(#paint1_linear)"/><path d="M21.174 30.843c5.749 0 10.409-4.66 10.409-10.408 0-5.748-4.66-10.408-10.409-10.408-5.748 0-10.407 4.66-10.407 10.408 0 5.748 4.66 10.408 10.407 10.408z" fill="url(#paint2_linear)"/><path d="M27.784 8.507H16.17c-.537 0-1.073-.014-1.606 0h-.022a.447.447 0 00-.38.217c-.22.383-.441.767-.663 1.15-.532.92-1.064 1.84-1.592 2.761-.64 1.11-1.281 2.22-1.922 3.334l-1.651 2.86c-.262.456-.546.902-.79 1.367-.135.253-.027.424.09.632.136.234.271.469.407.708.5.866 1.001 1.737 1.502 2.603.636 1.106 1.277 2.21 1.913 3.316.573.993 1.146 1.99 1.723 2.982l.943 1.633c.014.027.032.05.045.077a.437.437 0 00.38.217h11.634c.537 0 1.074.013 1.606 0h.023a.447.447 0 00.379-.217l.663-1.15c.532-.92 1.065-1.841 1.592-2.761.641-1.11 1.282-2.22 1.922-3.334.55-.952 1.101-1.904 1.652-2.86.261-.456.546-.903.79-1.368.134-.252.026-.424-.091-.631-.136-.235-.27-.47-.406-.709l-1.502-2.603c-.637-1.105-1.277-2.21-1.913-3.316-.573-.992-1.146-1.99-1.724-2.982L28.23 8.8c-.013-.027-.031-.05-.045-.076a.452.452 0 00-.352-.217h-.049zm1.886 4.552c.636 1.105 1.272 2.206 1.912 3.312.555.956 1.106 1.912 1.66 2.873.23.397.447.808.686 1.2-.176.303-.351.61-.527.912l-1.584 2.747c-.636 1.105-1.272 2.206-1.913 3.312-.555.956-1.105 1.913-1.66 2.873-.23.397-.478.794-.7 1.196H16.177c-.46 0-.92-.018-1.38-.01-.177-.306-.353-.613-.529-.915l-1.583-2.747c-.636-1.106-1.272-2.207-1.913-3.312-.555-.956-1.105-1.913-1.66-2.874-.23-.397-.447-.807-.686-1.2l.528-.911 1.583-2.748a1229.16 1229.16 0 011.913-3.31c.555-.957 1.106-1.914 1.66-2.875.23-.397.479-.794.7-1.195h11.369c.46 0 .92.009 1.38.004.176.307.357.614.532.92a421.1 421.1 0 001.58 2.748z" fill="url(#paint3_linear)"/><path d="M27.784 8.507H16.17c-.537 0-1.073-.014-1.606 0h-.022a.447.447 0 00-.38.217c-.22.383-.441.767-.663 1.15-.532.92-1.064 1.84-1.592 2.761-.64 1.11-1.281 2.22-1.922 3.334l-1.651 2.86c-.262.456-.546.902-.79 1.367-.135.253-.027.424.09.632.136.234.271.469.407.708.5.866 1.001 1.737 1.502 2.603.636 1.106 1.277 2.21 1.913 3.316.573.993 1.146 1.99 1.723 2.982l.943 1.633c.014.027.032.05.045.077a.437.437 0 00.38.217h11.634c.537 0 1.074.013 1.606 0h.023a.447.447 0 00.379-.217l.663-1.15c.532-.92 1.065-1.841 1.592-2.761.641-1.11 1.282-2.22 1.922-3.334.55-.952 1.101-1.904 1.652-2.86.261-.456.546-.903.79-1.368.134-.252.026-.424-.091-.631-.136-.235-.27-.47-.406-.709l-1.502-2.603c-.637-1.105-1.277-2.21-1.913-3.316-.573-.992-1.146-1.99-1.724-2.982L28.23 8.8c-.013-.027-.031-.05-.045-.076a.452.452 0 00-.352-.217h-.049zm1.886 4.552c.636 1.105 1.272 2.206 1.912 3.312.555.956 1.106 1.912 1.66 2.873.23.397.447.808.686 1.2-.176.303-.351.61-.527.912l-1.584 2.747c-.636 1.105-1.272 2.206-1.913 3.312-.555.956-1.105 1.913-1.66 2.873-.23.397-.478.794-.7 1.196H16.177c-.46 0-.92-.018-1.38-.01-.177-.306-.353-.613-.529-.915l-1.583-2.747c-.636-1.106-1.272-2.207-1.913-3.312-.555-.956-1.105-1.913-1.66-2.874-.23-.397-.447-.807-.686-1.2l.528-.911 1.583-2.748a1229.16 1229.16 0 011.913-3.31c.555-.957 1.106-1.914 1.66-2.875.23-.397.479-.794.7-1.195h11.369c.46 0 .92.009 1.38.004.176.307.357.614.532.92a421.1 421.1 0 001.58 2.748z" fill="url(#paint4_linear)"/><path d="M27.784 8.507H16.17c-.537 0-1.073-.014-1.606 0h-.022a.447.447 0 00-.38.217c-.22.383-.441.767-.663 1.15-.532.92-1.064 1.84-1.592 2.761-.64 1.11-1.281 2.22-1.922 3.334l-1.651 2.86c-.262.456-.546.902-.79 1.367-.135.253-.027.424.09.632.136.234.271.469.407.708.5.866 1.001 1.737 1.502 2.603.636 1.106 1.277 2.21 1.913 3.316.573.993 1.146 1.99 1.723 2.982l.943 1.633c.014.027.032.05.045.077a.437.437 0 00.38.217h11.634c.537 0 1.074.013 1.606 0h.023a.447.447 0 00.379-.217l.663-1.15c.532-.92 1.065-1.841 1.592-2.761.641-1.11 1.282-2.22 1.922-3.334.55-.952 1.101-1.904 1.652-2.86.261-.456.546-.903.79-1.368.134-.252.026-.424-.091-.631-.136-.235-.27-.47-.406-.709l-1.502-2.603c-.637-1.105-1.277-2.21-1.913-3.316-.573-.992-1.146-1.99-1.724-2.982L28.23 8.8c-.013-.027-.031-.05-.045-.076a.452.452 0 00-.352-.217h-.049zm1.886 4.552c.636 1.105 1.272 2.206 1.912 3.312.555.956 1.106 1.912 1.66 2.873.23.397.447.808.686 1.2-.176.303-.351.61-.527.912l-1.584 2.747c-.636 1.105-1.272 2.206-1.913 3.312-.555.956-1.105 1.913-1.66 2.873-.23.397-.478.794-.7 1.196H16.177c-.46 0-.92-.018-1.38-.01-.177-.306-.353-.613-.529-.915l-1.583-2.747c-.636-1.106-1.272-2.207-1.913-3.312-.555-.956-1.105-1.913-1.66-2.874-.23-.397-.447-.807-.686-1.2l.528-.911 1.583-2.748a1229.16 1229.16 0 011.913-3.31c.555-.957 1.106-1.914 1.66-2.875.23-.397.479-.794.7-1.195h11.369c.46 0 .92.009 1.38.004.176.307.357.614.532.92a421.1 421.1 0 001.58 2.748z" fill="url(#paint5_linear)"/><path d="M23.43 24.823c0-.004.004-.008.004-.012 0 .008 0 .008-.004.012zm.031-3.153c-.013-.013-.026-.022-.03-.03.008.021.026.03.03.03zM9.124 23.323h5.933c.036.05.095.085.162.085a.2.2 0 00.199-.198.2.2 0 00-.199-.199.203.203 0 00-.167.09H9.13a.195.195 0 00-.163-.09.2.2 0 00-.198.199.2.2 0 00.198.198.201.201 0 00.158-.085zm18.547-.668a.203.203 0 00-.167-.09.2.2 0 00-.199.198.2.2 0 00.199.198.191.191 0 00.162-.085h5.928a.191.191 0 00.163.085.2.2 0 00.199-.198.2.2 0 00-.199-.199.19.19 0 00-.163.09h-5.923zm-5.463 10.597l-.005.004c-.009.014-.013.027-.018.04a.128.128 0 00-.018.06v.658a.203.203 0 00-.086.162.2.2 0 00.199.199.2.2 0 00.198-.199.203.203 0 00-.09-.166v-.628c.036-.036.072-.076.113-.117a2.55 2.55 0 01.126-.13c.041-.041.082-.087.122-.132l.023-.022c.009 0 .018.004.027.004a.2.2 0 00.198-.198.2.2 0 00-.198-.199.2.2 0 00-.199.199c0 .018.005.036.01.05l-.01.008c-.04.046-.08.095-.122.136-.04.04-.085.086-.126.13-.04.041-.076.09-.117.127-.018.01-.023.01-.027.014zm.361-25.426a2.576 2.576 0 00-.127-.131 1.387 1.387 0 00-.112-.118V6.95a.203.203 0 00.09-.167.2.2 0 00-.199-.198.2.2 0 00-.198.198c0 .068.031.127.085.163v.659c0 .022.005.04.019.058a.16.16 0 00.018.04l.004.005a3.004 3.004 0 01.126.135c.041.046.082.086.127.131.045.046.081.09.122.136l.009.009c-.005.018-.01.031-.01.05a.2.2 0 00.2.198.2.2 0 00.198-.199.2.2 0 00-.199-.198c-.009 0-.018 0-.027.004-.009-.009-.014-.018-.023-.022a.641.641 0 00-.103-.126z" fill="#69A5FF"/><path d="M21.251 5.863a.2.2 0 00.1.171v.167h-.01v3.487c0 .014.005.027.01.037 0 .022.009.045.027.067.009.01.018.023.027.032l.031.027.032.031.009.01.009.008.027.028.068.067c.036.032.072.068.103.1l.104.103.023.023c.031.027.058.054.09.081a.317.317 0 00.05.045c.013.01.027.018.036.027a.193.193 0 00.031.027l.04.04.023.023v3.019h-.519v-2.297a.203.203 0 00.086-.162.2.2 0 00-.198-.199.2.2 0 00-.199.199c0 .068.036.13.09.167v2.269h-.433V8.214a.204.204 0 00.063-.145.2.2 0 00-.198-.199.2.2 0 00-.198.199c0 .076.045.144.112.176v5.211h-.726V7.947a.197.197 0 00.05-.13.2.2 0 00-.199-.2.2.2 0 00-.198.2c0 .08.054.153.126.184v5.455h-.47c0-.69.004-1.381.004-2.067a.162.162 0 00.045-.031.199.199 0 000-.28.199.199 0 00-.28 0 .199.199 0 00.014.293c0 .695-.004 1.394-.004 2.089h-.104l-1.525-1.525c-.32-.32-.64-.636-.956-.956 0-.014.004-.023.004-.036a.2.2 0 00-.199-.199.2.2 0 00-.198.199.2.2 0 00.198.198c.014 0 .028 0 .041-.004l2.324 2.323h-.659a.493.493 0 00-.293.104l-.993-.993a.2.2 0 00-.198-.198.2.2 0 00-.199.198.2.2 0 00.199.199.16.16 0 00.067-.014l.98.98a.41.41 0 00-.05.22v.388h-.587a.197.197 0 00-.167-.09.2.2 0 00-.198.199.2.2 0 00.198.198.203.203 0 00.163-.086h.586v.682H15.71c-.708-.704-1.412-1.412-2.12-2.116v-.01a.2.2 0 00-.199-.198.2.2 0 00-.198.199.2.2 0 00.198.198.145.145 0 00.063-.013l2.152 2.152c.041.04.104.04.15.004h1.736v.42h-5.806a.197.197 0 00-.153-.077.2.2 0 00-.199.199.2.2 0 00.198.198.2.2 0 00.172-.1h5.788v.515h-.69a.204.204 0 00-.176-.108.2.2 0 00-.198.198.2.2 0 00.198.199.201.201 0 00.149-.068h.717v.582H14.14a.208.208 0 00-.167-.095.2.2 0 00-.198.199.2.2 0 00.198.198.196.196 0 00.158-.08h3.361v.667h-5.535a.203.203 0 00-.163-.086.2.2 0 00-.198.199.2.2 0 00.198.198.203.203 0 00.167-.09h5.532v.722h-1.2a.197.197 0 00-.167-.095.2.2 0 00-.198.198.2.2 0 00.198.199.197.197 0 00.158-.081h1.21v.762h-7.057a.203.203 0 00-.163-.085.2.2 0 00-.199.198.2.2 0 00.199.198c.067 0 .13-.036.167-.09h7.051v.582h-3.405a.191.191 0 00-.162-.085.2.2 0 00-.199.198.2.2 0 00.199.199c.067 0 .13-.037.166-.09h3.402v.469h-3.302a.175.175 0 00-.032-.027l-.834-.637c-.014-.013-.036-.013-.06-.013a.132.132 0 00-.04-.01h-2.12a.197.197 0 00-.154-.076.2.2 0 00-.198.199.2.2 0 00.198.198.2.2 0 00.172-.1h2.102c.276.213.55.42.826.633a.034.034 0 00.022.009.11.11 0 00.09.045h3.33v.464h-.289a.2.2 0 00-.374.095.2.2 0 00.199.198.19.19 0 00.148-.072h.312v.47h-.564c-.005-.005-.005-.01-.01-.01-.18-.184-.36-.365-.536-.55l-.005-.004-.027-.027a.116.116 0 00-.135-.018.102.102 0 00-.072-.028h-3.533a.193.193 0 00-.153-.072.2.2 0 00-.199.199.2.2 0 00.199.198.19.19 0 00.171-.104h3.51c.023 0 .04-.004.054-.018a.08.08 0 01.018.023c.18.185.361.365.537.55a.1.1 0 00.036.023c.018.031.054.05.09.05h.623v.64h-2.707a.197.197 0 00-.153-.076.2.2 0 00-.199.198.2.2 0 00.199.199.202.202 0 00.171-.1h2.69v.47h-3.237c-.009-.01-.018-.014-.027-.023-.297-.23-.6-.46-.897-.69-.018-.014-.045-.018-.068-.014a.108.108 0 00-.063-.022h-1.236a.203.203 0 00-.172-.1.2.2 0 00-.198.199.2.2 0 00.198.198.197.197 0 00.154-.076h1.263c.004 0 .004.004.009.009.297.23.595.455.898.685a.11.11 0 00.094.054h3.28v.528h-4.109a.19.19 0 00-.149-.072.2.2 0 00-.198.199.2.2 0 00.198.198c.072 0 .14-.045.172-.104h4.092c0 .244-.005.488-.005.731l-1.33.014h-.1a.225.225 0 00-.027-.036.195.195 0 00-.28.004.195.195 0 00.005.28.199.199 0 00.28 0c.008-.01.013-.014.017-.023h.064c.455-.004.916-.009 1.376-.018 0 .109 0 .221.004.33v.022c0 .086.023.167.068.24-.505.51-1.01 1.014-1.516 1.524l-1.678 1.692c-.014 0-.023-.005-.036-.005a.2.2 0 00-.199.199.2.2 0 00.199.198.2.2 0 00.198-.198c0-.014 0-.027-.004-.04.979-.984 1.958-1.972 2.932-2.956.086-.085.167-.171.253-.252a.475.475 0 00.275.085h.04c0 .438 0 .876.005 1.318a.056.056 0 00-.018.013l-1.994 1.994a.204.204 0 00-.199.05.199.199 0 000 .28.199.199 0 00.28 0c.04-.04.059-.1.054-.154l2.012-2.007c.014-.014.018-.027.027-.04a.105.105 0 00.06-.096c0-.45 0-.897-.005-1.348h.825c0 .74.005 1.475.005 2.215l-.014.013a.199.199 0 000 .28.199.199 0 00.28 0 .199.199 0 000-.28c-.014-.013-.032-.022-.045-.031 0-.731-.005-1.462-.005-2.193h.465v5.581a.203.203 0 00-.126.185.2.2 0 00.198.198.2.2 0 00.199-.198.196.196 0 00-.05-.131v-5.635h.726v5.337a.194.194 0 00-.112.176.2.2 0 00.198.199.2.2 0 00.199-.199.195.195 0 00-.064-.144v-5.373h.434v2.395a.203.203 0 00-.09.167.2.2 0 00.198.198.2.2 0 00.198-.198.191.191 0 00-.085-.162v-2.4h.518v3.144l-.022.023-.04.04c-.01.01-.023.018-.032.027-.014.01-.027.018-.036.027a.415.415 0 00-.05.045c-.032.027-.059.055-.09.082l-.023.022a1.153 1.153 0 00-.104.104 2.115 2.115 0 01-.103.1l-.068.067-.027.027-.01.009c-.004 0-.004.005-.008.009a9.4 9.4 0 00-.032.032c-.009.009-.022.013-.031.027a.179.179 0 00-.054.1c-.005.012-.01.021-.01.035v3.483a.197.197 0 00-.09.167.2.2 0 00.199.198.2.2 0 00.198-.198.197.197 0 00-.076-.154v-3.483l.022-.022.014-.014a.035.035 0 00.018-.018l.04-.04.072-.072c.032-.032.068-.064.1-.095l.095-.095.008-.009c.01-.004.014-.013.023-.018.01-.009.018-.014.023-.023.027-.022.05-.045.076-.067.01-.01.018-.014.032-.023a.227.227 0 00.036-.031l-.009.009c.023-.018.04-.04.063-.059a.196.196 0 01.032-.027.056.056 0 01.018-.014c.013-.009.022-.022.036-.036.004-.004.009-.009.013-.009.023-.022.027-.058.023-.09v-3.167c.316-.005.632-.036.943-.1-.032.032-.063.069-.1.105-.044.045-.094.085-.14.13a2.117 2.117 0 01-.112.118.135.135 0 00-.036.036l-.005.004a.1.1 0 00-.027.068.12.12 0 00.014.054v4.178c0 .022.009.05.022.067v.018c0 .023.01.055.023.068.216.212.433.429.65.64v1.174a.195.195 0 00-.131.185.2.2 0 00.198.198.2.2 0 00.199-.198.203.203 0 00-.045-.122v-1.267a.109.109 0 00-.032-.077c-.004-.01-.009-.023-.018-.028-.216-.212-.433-.428-.65-.64V27.82c.027-.032.055-.059.086-.09l.108-.108c.023-.018.041-.037.064-.06.018-.022.04-.04.058-.062.036-.04.072-.077.113-.113l.1-.1c.022-.022.044-.049.067-.072l-.014.014.023-.023c.171-.058.343-.126.505-.207.032-.014.059-.032.09-.045v.825a3.813 3.813 0 00-.225.145l-.108.067-.086.06c-.04.03-.086.058-.127.09a.627.627 0 01-.058.04c-.018.014-.032.027-.05.036.005 0 .01-.005.01-.005-.023.014-.041.028-.05.05-.005.01-.005.018-.01.027-.008.018-.017.036-.017.054v2.82a.208.208 0 00-.104.171.2.2 0 00.198.199.2.2 0 00.199-.199.215.215 0 00-.072-.153v-2.806a.705.705 0 01.072-.05c.045-.031.086-.058.13-.09l.082-.054c.036-.023.077-.045.113-.072a3.882 3.882 0 01.266-.167.102.102 0 00.045-.068.091.091 0 00.014-.05v-.992c.194-.122.37-.266.536-.424.564.573 1.124 1.146 1.683 1.719l1.67 1.705c-.005.014-.005.023-.005.036 0 .109.086.199.194.203a.203.203 0 00.203-.194.203.203 0 00-.194-.203c-.014 0-.027 0-.04.005-.97-.993-1.945-1.985-2.915-2.973-.149-.15-.293-.298-.442-.451.04-.041.076-.086.117-.131a.09.09 0 00.032.004c.482.005.965.01 1.448.018.004.01.009.014.013.023l1.963 2.021a.192.192 0 00.045.198.199.199 0 00.28.005.199.199 0 00.004-.28.2.2 0 00-.153-.058l-1.98-2.04a.107.107 0 00-.041-.027.105.105 0 00-.095-.058l-1.349-.014c.059-.076.113-.158.162-.243.095-.15.176-.307.244-.47h3.343a.19.19 0 00.356-.09.19.19 0 00-.19-.19.191.191 0 00-.143.068H25.97c.058-.162.107-.334.148-.505h2.337c.04 0 .072-.023.09-.054.285-.221.573-.438.858-.654.004 0 .004-.005.009-.005h1.21a.184.184 0 00.148.072.19.19 0 00.19-.19.19.19 0 00-.19-.189.195.195 0 00-.162.095h-1.182a.108.108 0 00-.063.023.089.089 0 00-.068.013l-.862.659c-.009.009-.018.014-.022.023h-2.247c.032-.172.054-.343.068-.515h1.692c.036.059.099.1.171.1a.2.2 0 00.199-.199.2.2 0 00-.199-.198.197.197 0 00-.153.076h-1.697c.014-.32 0-.64-.05-.956.1-.104.204-.208.303-.312.005-.009.054-.004.077-.004h3.51a.206.206 0 00.171.104.2.2 0 00.199-.199.2.2 0 00-.199-.198.206.206 0 00-.153.072H26.57a.928.928 0 00-.126.013.151.151 0 00-.081.032l-.027.027-.005.005c-.067.067-.13.135-.198.203a4.146 4.146 0 00-.267-.799h2.685a.117.117 0 00.09-.045l.023-.01.825-.63h2.102c.037.058.1.099.172.099a.2.2 0 00.198-.199.2.2 0 00-.198-.198.197.197 0 00-.153.076h-2.117a.129.129 0 00-.04.01.113.113 0 00-.059.013c-.28.212-.554.424-.834.636-.014.009-.023.018-.032.027h-2.765a3.988 3.988 0 00-.307-.47h3.176a.196.196 0 00.167.091.2.2 0 00.198-.198.2.2 0 00-.198-.199.203.203 0 00-.162.086H25.27a3.498 3.498 0 00-.569-.497.845.845 0 00.09-.09h7.49c.036.054.095.09.167.09a.2.2 0 00.198-.198.2.2 0 00-.198-.199.202.202 0 00-.163.086H25c.163-.198.307-.415.42-.645l.054-.117h1.33a.196.196 0 00.357-.118.2.2 0 00-.198-.198.191.191 0 00-.167.095h-1.232c.09-.235.154-.479.199-.722h4.998c.037.054.095.09.167.09a.2.2 0 00.199-.198.2.2 0 00-.199-.199.203.203 0 00-.162.086h-4.972c.027-.221.036-.442.036-.668h2.766c.036.05.095.081.158.081a.2.2 0 00.198-.198.2.2 0 00-.198-.199.191.191 0 00-.167.095H25.82a4.272 4.272 0 00-.063-.532h1.002c.036.04.09.067.149.067a.2.2 0 00.198-.198.2.2 0 00-.198-.199.203.203 0 00-.176.109h-1.02a4.071 4.071 0 00-.171-.564h5.472c.036.058.1.099.172.099a.2.2 0 00.198-.199.2.2 0 00-.198-.198.197.197 0 00-.154.077h-5.59a2.425 2.425 0 00-.126-.24 2.436 2.436 0 00-.113-.18h1.742a.116.116 0 00.149-.005l2.151-2.152c.019.01.041.014.064.014a.2.2 0 00.198-.198.2.2 0 00-.198-.199.2.2 0 00-.199.199v.009l-2.116 2.115h-1.889a.076.076 0 00-.045.014 3.405 3.405 0 00-.199-.235c.479-.473.952-.952 1.43-1.425a.182.182 0 00.068.013.2.2 0 00.199-.198.2.2 0 00-.199-.199.2.2 0 00-.198.199l-1.453 1.453a2.327 2.327 0 00-.226-.195v-1.024a.091.091 0 00-.013-.05.097.097 0 00-.045-.067l-.158-.095c-.036-.022-.072-.05-.108-.072-.037-.027-.077-.045-.113-.072l-.081-.054-.131-.09a.69.69 0 00-.072-.05V9.833a.193.193 0 00.072-.154.2.2 0 00-.199-.198.2.2 0 00-.198.198c0 .073.04.14.104.172v2.82c0 .022.004.04.018.054 0 .009.004.018.009.027a.09.09 0 00.05.05c-.005 0-.01-.005-.01-.005a.199.199 0 01.05.036c.018.013.036.027.059.04.04.032.085.06.126.09l.085.06.109.067c.072.05.149.1.225.144v.822c-.076-.055-.158-.1-.239-.145a3.363 3.363 0 00-.45-.203l-.082-.081c-.036-.036-.077-.072-.113-.113-.018-.022-.04-.04-.059-.063-.018-.018-.04-.036-.063-.059l-.108-.108c-.027-.032-.059-.059-.086-.09V8.971c.217-.212.433-.428.65-.64a.1.1 0 00.018-.028.106.106 0 00.032-.076V6.783a.202.202 0 00.045-.122.2.2 0 00-.199-.198.2.2 0 00-.198.198c0 .086.054.158.13.185v1.345c-.216.212-.433.428-.65.64-.017.018-.022.045-.022.068v.018a.111.111 0 00-.022.068v4.186a.12.12 0 00-.014.054.1.1 0 00.027.068l.005.005a.138.138 0 00.036.036c.036.04.077.08.113.117l.126.122c-.27-.063-.55-.1-.83-.113v-3.041a.094.094 0 00-.023-.09c-.004-.005-.009-.009-.013-.009l-.036-.036c-.005-.005-.01-.01-.018-.014-.01-.009-.018-.018-.032-.027-.022-.018-.04-.036-.063-.058l.009.009c-.01-.01-.023-.018-.036-.032-.01-.009-.018-.013-.032-.022l-.076-.068c-.01-.01-.018-.014-.023-.023-.009-.009-.013-.013-.022-.018l-.01-.009-.094-.094c-.032-.032-.064-.064-.1-.095l-.072-.072-.04-.041c-.005-.005-.01-.014-.018-.018l-.014-.014c-.009-.009-.023-.018-.032-.027v-.08c.005 0 .005.004.01.004V6.012a.197.197 0 00.076-.154.2.2 0 00-.198-.198.207.207 0 00-.199.203zm1.15 9.84l.073.013a2.394 2.394 0 01.311.09c.01.005.023.005.032.009.004 0 .009.005.013.005.095.05.19.099.28.162.009.004.05.036.054.04.036.032.068.064.104.095.031.032.063.068.095.104.013.018.031.036.045.054 0 .005.004.005.004.01.054.08.108.162.15.252a.4.4 0 00.022.036 1.915 1.915 0 01.068.194c.026.095.044.194.067.289v.004c0 .027.005.05.009.077.005.067.009.135.009.203 0 .117 0 .23-.013.347v.04c0 .005-.005.01-.005.019-.009.063-.023.122-.036.185-.023.095-.054.185-.086.28-.013.022-.022.05-.036.072-.027.05-.054.104-.086.149-.013.018-.076.09-.076.112-.01.014-.023.027-.032.037a2.511 2.511 0 01-.221.216.338.338 0 01-.054.036l-.13.081c-.037.018-.073.037-.11.054-.022.005-.08.032-.094.037-.1.031-.198.058-.298.076l-.072.014-.176.013c-.126.005-.257.005-.383.005h-1.485l.005-.713a.247.247 0 10-.388-.203.25.25 0 00.113.208l-.005.703h-.464V15.68h2.463c.099 0 .203 0 .302.013-.014 0-.009 0 .032.01zm-.035-.01c.009 0 .013.005.022.005-.009 0-.018 0-.022-.005zm1.231.889a.08.08 0 01.01.031c0-.004-.005-.017-.01-.031zm-.19 1.94c-.004.004-.008.009-.008.013.013-.018.067-.076.009-.013zm-.563.447c-.005 0-.005.004-.01.004-.071.036-.017.005.01-.005zm-2.4 3.699a.244.244 0 00-.109-.203l.005-1.191h1.863c.127 0 .248.009.37.022h.01l.071.014.18.04c.06.014.118.032.172.055.023.009.04.018.063.022.1.05.194.1.29.158.022.014.044.032.067.05.031.022.036.031.027.031.031.027.076.055.09.068.063.059.144.13.198.208.005.009.014.027.023.036.018.022.032.05.05.072l.08.135c.028.045.05.095.073.14.01.014.014.023.014.032l.013.054a2.641 2.641 0 01.108.433.181.181 0 01.01.031c.009.05.004.109.004.15.009.13.009.261 0 .392l-.014.18c0 .014-.004.027-.004.032l-.014.067a2.346 2.346 0 01-.13.447c-.005.01-.01.014-.014.023-.032.063-.063.126-.1.185-.03.05-.062.099-.094.144a.127.127 0 01-.018.023.26.26 0 00-.036.04c-.04.05-.086.095-.135.14-.023.023-.109.072-.136.113.018-.023.05-.027.01.004-.005.005-.01.01-.014.01v-.001c-.023.018-.045.032-.073.05a3.104 3.104 0 01-.162.1l-.077.04c-.004.004-.013.004-.018.009-.05.004-.117.045-.162.059-.117.036-.27.094-.393.09.014 0 .113-.014.018-.005-.04.005-.076.01-.117.01a4.405 4.405 0 01-.243.008h-2.613v-3.911h.474l.014 1.19a.243.243 0 00-.113.204c0 .135.108.248.243.248a.25.25 0 00.249-.248zm3.541-.32c-.004-.014-.013-.037-.018-.037.005.01.01.023.018.037zm.127 1.263v-.005.005zm-.343.884c0 .005-.005.005-.005.01 0-.005 0-.01.005-.01z" fill="#AEEAFF"/><path d="M9.124 16.822h5.933c.036.05.095.085.162.085a.2.2 0 00.199-.198.2.2 0 00-.199-.199.203.203 0 00-.167.09H9.13a.195.195 0 00-.163-.09.2.2 0 00-.198.199.2.2 0 00.198.198.2.2 0 00.158-.085zm25.418 1.976h-5.924a.195.195 0 00-.162-.09.2.2 0 00-.198.198.2.2 0 00.198.199.203.203 0 00.162-.086h5.929a.2.2 0 00.162.086.2.2 0 00.198-.199.2.2 0 00-.198-.198.203.203 0 00-.167.09zm-11.91-1.918c0 .068.036.131.09.167v.627c-.036.036-.072.077-.113.117-.04.046-.081.086-.126.131-.04.04-.081.086-.122.131l-.023.023c-.009 0-.018-.005-.027-.005a.2.2 0 00-.198.199.2.2 0 00.198.198.2.2 0 00.199-.198.16.16 0 00-.01-.05l.01-.009c.04-.045.081-.095.122-.135.04-.04.085-.086.126-.131.04-.04.077-.09.117-.126l.01-.01.004-.004a.16.16 0 00.018-.04.128.128 0 00.018-.06v-.658a.203.203 0 00.086-.162.2.2 0 00-.199-.199c-.09-.004-.18.086-.18.194zm.505 6.573v.135a.203.203 0 00-.09.167.2.2 0 00.198.198.2.2 0 00.199-.198.191.191 0 00-.086-.162v-.659a.09.09 0 00-.018-.059.156.156 0 00-.018-.04l-.005-.005-.009-.009a3.004 3.004 0 01-.117-.126c-.04-.045-.081-.086-.126-.131-.045-.045-.081-.09-.122-.136l-.01-.009a.144.144 0 00.01-.05.2.2 0 00-.199-.198.2.2 0 00-.198.199.2.2 0 00.198.198c.01 0 .018 0 .027-.004.01.009.014.018.023.022.04.046.081.09.122.131.04.045.081.086.126.131.036.04.072.081.113.117v.488h-.018z" fill="#69A5FF"/><defs><linearGradient id="paint0_linear" x1="21.173" y1="30.484" x2="21.173" y2="10.386" gradientUnits="userSpaceOnUse"><stop offset=".005" stop-color="#272361"/><stop offset=".246" stop-color="#292B74"/><stop offset=".502" stop-color="#2A3285"/><stop offset=".984" stop-color="#2ABEC2"/></linearGradient><linearGradient id="paint1_linear" x1="10.767" y1="20.435" x2="31.582" y2="20.435" gradientUnits="userSpaceOnUse"><stop stop-color="#01C3DA"/><stop offset="1" stop-color="#8226B7"/></linearGradient><linearGradient id="paint2_linear" x1="10.767" y1="20.435" x2="31.582" y2="20.435" gradientUnits="userSpaceOnUse"><stop stop-color="#8226B7"/><stop offset="1" stop-color="#00A2B5"/></linearGradient><linearGradient id="paint3_linear" x1="21.175" y1="31.958" x2="21.175" y2="8.913" gradientUnits="userSpaceOnUse"><stop offset=".005" stop-color="#272361"/><stop offset=".246" stop-color="#292B74"/><stop offset=".502" stop-color="#2A3285"/><stop offset=".984" stop-color="#2ABEC2"/></linearGradient><linearGradient id="paint4_linear" x1="7.482" y1="20.435" x2="34.871" y2="20.435" gradientUnits="userSpaceOnUse"><stop stop-color="#01C3DA"/><stop offset="1" stop-color="#8226B7"/></linearGradient><linearGradient id="paint5_linear" x1="7.482" y1="20.435" x2="34.871" y2="20.435" gradientUnits="userSpaceOnUse"><stop stop-color="#8226B7"/><stop offset="1" stop-color="#00A2B5"/></linearGradient></defs></svg>