<svg width="20" height="22" fill="none" xmlns="http://www.w3.org/2000/svg"><path d="M12.975 2.019l.96-1.732a.192.192 0 00-.018-.214.193.193 0 00-.32.027l-.97 1.75a6.541 6.541 0 00-5.253 0L6.404.1a.194.194 0 10-.34.187l.96 1.732a5.546 5.546 0 00-3.092 4.876h12.137a5.546 5.546 0 00-3.094-4.876zM7.2 4.674a.507.507 0 110-1.014.507.507 0 010 1.014zm5.602 0a.507.507 0 110-1.014.507.507 0 010 1.014zM3.93 16.171A1.467 1.467 0 005.4 17.64h.973v3a1.36 1.36 0 102.721 0v-3h1.814v3a1.36 1.36 0 002.72 0v-3h.974a1.466 1.466 0 001.468-1.468V7.375H3.93v8.796zm-1.867-9.03a1.362 1.362 0 00-1.36 1.361v5.669a1.36 1.36 0 102.72 0V8.502a1.362 1.362 0 00-1.36-1.36v-.001zm15.872 0a1.362 1.362 0 00-1.36 1.361v5.669a1.361 1.361 0 002.72 0V8.502a1.362 1.362 0 00-1.36-1.36v-.001z" fill="#fff"/></svg>