<svg width="40" height="40" fill="none" xmlns="http://www.w3.org/2000/svg"><rect width="40" height="40" rx="20" fill="#69A5FF"/><path d="M24.013 14.682h3.468c.831 0 1.519.674 1.519 1.552v5.33h-8.255v-6.208c-.286-.088-.544-.205-.716-.381-.029 0-.029-.03-.058-.03 0 0 0 .03-.028.03-.201.176-.43.293-.688.38v6.21H11v-5.33c0-.88.66-1.553 1.49-1.553h3.497c-.401-.205-.774-.498-1.089-.761-1.376-1.348-1.634-3.222-.544-4.277A2.559 2.559 0 0116.073 9c.945 0 1.92.38 2.75 1.171.46.44.89 1.055 1.147 1.64.287-.585.717-1.2 1.175-1.64C21.95 9.381 22.982 9 23.898 9c.688 0 1.29.234 1.72.644 1.089 1.055.831 2.93-.573 4.277-.287.263-.66.556-1.032.761zm-5.102-.85c.114-.263-.172-1.61-1.118-2.518-.487-.469-1.146-.732-1.72-.732-.172 0-.458.029-.659.205-.057.058-.23.175-.23.497 0 .381.23.967.775 1.465.688.674 1.777 1.142 2.58 1.142.257 0 .372-.058.372-.058zm2.178 0s.144.06.373.06c.802 0 1.892-.47 2.58-1.143.544-.498.716-1.084.716-1.465 0-.322-.143-.439-.172-.497-.2-.176-.516-.205-.688-.205-.544 0-1.232.263-1.72.732-.917.908-1.232 2.226-1.089 2.548v-.03zM19.255 30H12.49c-.83 0-1.49-.674-1.49-1.523v-5.36h8.255V30zm8.226 0h-6.736v-6.883H29v5.36A1.52 1.52 0 0127.48 30z" fill="#fff"/></svg>