<svg width="350" height="52" fill="none" xmlns="http://www.w3.org/2000/svg"><path fill-rule="evenodd" clip-rule="evenodd" d="M96.046 25.388c-1.833 20.865 24.164 10.234 25.753 9.898.611 4.216 1.191 8.432 1.802 12.648-.764.244-42.585 17.626-43.715-22.118 0-.489-.092-.947-.031-1.405 5.682-32.84 43.41-23.065 44.174-23.004-.611 4.522-1.192 9.043-1.803 13.564-1.527-.489-24.47-9.378-26.18 10.417zm58.226-10.875l-6.782 36.598h-14.877l7.21-36.598h-12.189c.763-4.674 1.497-9.348 2.26-13.991h37.881c-.764 4.674-1.497 9.348-2.261 13.991h-11.242zm24.806 29.266l4.949-9.41 5.835 3.147-1.803-19.734s-16.007 30.61-17.535 31.526c-3.299 2.2-10.234 1.894-15.793 1.803L182.652.52h15.825c2.413 16.864 4.826 33.727 7.209 50.59h-12.28l-14.328-7.332zm61.495-31.863c-4.063 0-7.79-.122-11.853-.122-.458 2.872-1.344 8.126-1.344 8.126h4.949c4.552 0 9.623 1.1 10.936-3.055 1.1-3.574-2.321-4.857-2.688-4.949zm-16.802 26.975h10.692s5.071-.03 6.11-4.093c1.253-4.888-3.146-4.919-3.146-4.919H224.84l-1.069 9.012zm32.046-1.405c-3.91 13.96-16.619 13.441-16.619 13.441s-24.408.184-30.335.153c2.994-16.71 6.018-33.42 9.012-50.161l22.668-.672s13.105.702 15.702 11.67c1.894 8.064-5.377 13.013-5.377 13.013s7.087 4.888 4.949 12.556zm79 13.472l-11.67-7.637 4.491-9.41 5.834 3.147-1.802-19.276s-.886-.275-.886 0c-.03.275-16.618 33.176-16.618 33.176l-27.708.153-9.012-19.888h-.459s-2.413 13.258-3.604 19.888h-14.878c0-.153 9.929-50.59 9.929-50.59h14.449l-3.146 16.71h.458s10.814-11.15 16.252-16.71h17.596l-24.042 24.867 10.906 21.66 24.928-45.885h15.702l7.638 49.764h-14.358v.03z" fill="#4878FE"/><path fill-rule="evenodd" clip-rule="evenodd" d="M42.86 19.463c-.336.153-12.189-18.97-12.189-18.97C35.345-.12 45.212-.272 48.267.95c0 .152 6.049 2.688 7.21 5.407.153.305.305.427-.275 1.069-4.063 4.246-8.279 7.82-12.342 12.036zm39.714 31.038s-11.487 1.65-19.307-1.802c-3.94-1.742-10.326-12.556-10.326-12.556L38.767 51.112H4.49l5.376-30.64S3.452 23.403 0 24.931V11.825C.458 11.673 16.985.828 17.138.523h11.73s-7.82 43.288-8.125 46.098h.458L66.749.523H87.95L64.611 23.618 82.574 50.5z" fill="#fff"/></svg>