<svg width="82" height="12" fill="none" xmlns="http://www.w3.org/2000/svg"><path fill-rule="evenodd" clip-rule="evenodd" d="M9.976 4.612C9.9 4.647 7.206.301 7.206.301c1.062-.139 3.305-.174 3.999.104 0 .035 1.374.611 1.638 1.229.035.07.07.097-.062.243-.924.965-1.882 1.777-2.805 2.735zm9.025 7.053s-2.61.375-4.388-.41c-.895-.395-2.346-2.852-2.346-2.852l-3.221 3.401h-7.79l1.222-6.963S1.021 5.508.236 5.855V2.877C.34 2.842 4.096.377 4.131.308h2.665S5.02 10.145 4.95 10.784h.104L15.404.308h4.819l-5.304 5.248L19 11.666z" fill="#fff"/><path fill-rule="evenodd" clip-rule="evenodd" d="M23.907 5.87c-.416 4.741 5.491 2.325 5.852 2.249.14.958.271 1.916.41 2.874-.174.056-9.678 4.006-9.934-5.026 0-.111-.021-.215-.007-.32C21.518-1.815 30.093.407 30.266.42c-.139 1.027-.27 2.055-.41 3.082-.347-.11-5.56-2.131-5.949 2.368zm13.232-2.472l-1.541 8.317h-3.381l1.638-8.317h-2.77c.174-1.062.34-2.124.514-3.18h8.609c-.174 1.063-.34 2.125-.514 3.18h-2.555zm5.637 6.65l1.125-2.137 1.326.715-.41-4.485s-3.638 6.956-3.985 7.164c-.75.5-2.325.43-3.589.41L43.588.219h3.596c.549 3.832 1.097 7.664 1.639 11.496h-2.791l-3.256-1.666zm13.975-7.24c-.923 0-1.77-.028-2.694-.028-.104.653-.305 1.847-.305 1.847h1.124c1.035 0 2.187.25 2.486-.694.25-.813-.528-1.104-.611-1.125zm-3.818 6.13h2.43s1.152-.007 1.388-.93c.285-1.11-.715-1.118-.715-1.118h-2.86l-.243 2.048zm7.282-.32c-.889 3.173-3.777 3.055-3.777 3.055s-5.546.042-6.893.035c.68-3.797 1.367-7.595 2.048-11.4l5.15-.152s2.98.16 3.57 2.652c.43 1.833-1.223 2.957-1.223 2.957s1.611 1.111 1.125 2.854zm17.953 3.062l-2.652-1.735 1.02-2.138 1.326.715-.41-4.381s-.2-.062-.2 0c-.008.062-3.777 7.54-3.777 7.54l-6.297.034-2.048-4.52h-.104s-.548 3.014-.82 4.52h-3.38c0-.035 2.256-11.496 2.256-11.496h3.284l-.715 3.797h.104s2.458-2.534 3.693-3.797h3.999l-5.463 5.65 2.478 4.923L76.127.364h3.568l1.736 11.31h-3.263v.006z" fill="#4878FE"/></svg>