<svg width="19" height="19" fill="none" xmlns="http://www.w3.org/2000/svg"><path opacity=".3" d="M.392 7.668a.916.916 0 01.739-.623l5.214-.758 2.342-5.066a.916.916 0 011.662 0l2.343 5.067 5.213.757a.916.916 0 01.508 1.562l-3.787 3.69.898 5.486a.916.916 0 01-1.33.959l-4.676-2.459-4.675 2.459a.915.915 0 01-1.33-.959l.897-5.486-3.786-3.69a.916.916 0 01-.232-.94zm5.638 3.65a.916.916 0 01.264.804l-.677 4.143 3.475-1.827a.916.916 0 01.852 0l3.476 1.827-.678-4.143a.915.915 0 01.265-.803l2.799-2.729-3.869-.562a.916.916 0 01-.7-.521l-1.72-3.72L7.8 7.507a.916.916 0 01-.7.521l-3.868.562 2.798 2.73z" fill="#fff"/></svg>