<svg width="110" height="40" viewBox="0 0 110 40" fill="none" xmlns="http://www.w3.org/2000/svg">
<path d="M104 0H6C2.68629 0 0 2.68629 0 6V34C0 37.3137 2.68629 40 6 40H104C107.314 40 110 37.3137 110 34V6C110 2.68629 107.314 0 104 0Z" fill="black"/>
<mask id="mask0" mask-type="alpha" maskUnits="userSpaceOnUse" x="10" y="6" width="24" height="23">
<path d="M14.443 8.59583L10.3972 20.0177C9.67945 22.0458 10.7388 24.2719 12.768 24.9896L28.6722 28.0875L33.2076 15.2427C33.9253 13.2146 32.8649 10.9896 30.8367 10.2698L19.4149 6.225C18.9847 6.07292 18.5461 6 18.1149 6C16.5107 6 15.0086 6.99792 14.443 8.59583Z" fill="white"/>
</mask>
<g mask="url(#mask0)">
<path fill-rule="evenodd" clip-rule="evenodd" d="M14.443 8.59583L10.3972 20.0177C9.67945 22.0458 10.7388 24.2719 12.768 24.9896L28.6722 28.0875L33.2076 15.2427C33.9253 13.2146 32.8649 10.9896 30.8367 10.2698L19.4149 6.225C18.9847 6.07292 18.5461 6 18.1149 6C16.5107 6 15.0086 6.99792 14.443 8.59583Z" fill="url(#paint0_linear)"/>
</g>
<mask id="mask1" mask-type="alpha" maskUnits="userSpaceOnUse" x="9" y="11" width="20" height="20">
<path d="M12.8729 11.208C10.7344 11.208 9 12.9413 9 15.0809V27.1268C9 29.2653 10.7344 30.9997 12.8729 30.9997H24.9187C27.0573 30.9997 28.7917 29.2653 28.7917 27.1268V15.0809C28.7917 12.9413 27.0573 11.208 24.9187 11.208H12.8729Z" fill="white"/>
</mask>
<g mask="url(#mask1)">
<path fill-rule="evenodd" clip-rule="evenodd" d="M12.8729 11.208C10.7344 11.208 9 12.9413 9 15.0809V27.1268C9 29.2653 10.7344 30.9997 12.8729 30.9997H24.9187C27.0573 30.9997 28.7917 29.2653 28.7917 27.1268V15.0809C28.7917 12.9413 27.0573 11.208 24.9187 11.208H12.8729Z" fill="url(#paint1_linear)"/>
</g>
<path fill-rule="evenodd" clip-rule="evenodd" d="M14.1047 24.7653C14.8557 25.5132 16.8568 25.9611 18.8964 25.9694C20.9359 25.9611 22.937 25.5132 23.687 24.7653C25.5537 22.909 21.0172 15.7934 18.8984 15.783C16.7745 15.7934 12.238 22.909 14.1047 24.7653Z" fill="white"/>
<path fill-rule="evenodd" clip-rule="evenodd" d="M43.2279 7.86597H45.1359L48.1839 16.47H46.6839L45.8919 14.214H42.2679L41.4759 16.47H40.1919L43.2279 7.86597ZM45.4479 12.966L44.0799 9.08997L42.7119 12.966H45.4479ZM49.9059 14.262C49.9939 13.854 50.0519 13.324 50.0799 12.672C50.1079 12.02 50.1219 11.21 50.1219 10.242H54.5979V16.47H53.2059V11.37H51.3939C51.3779 12.194 51.3459 12.922 51.2979 13.554C51.2499 14.186 51.1519 14.72 51.0039 15.156C50.8559 15.592 50.6439 15.926 50.3679 16.158C50.0919 16.39 49.7219 16.506 49.2579 16.506C49.1939 16.506 49.1319 16.504 49.0719 16.5C49.0119 16.496 48.9499 16.49 48.8859 16.482V15.186C48.9659 15.202 49.0259 15.21 49.0659 15.21C49.2819 15.21 49.4559 15.132 49.5879 14.976C49.7199 14.82 49.8259 14.582 49.9059 14.262ZM57.7599 14.586L60.6399 10.242H62.0079V16.47H60.6279V12.15L57.7719 16.47H56.3799V10.242H57.7599V14.586ZM66.4579 16.59C65.9539 16.59 65.5019 16.516 65.1019 16.368C64.7019 16.22 64.3619 16.008 64.0819 15.732C63.8019 15.456 63.5859 15.118 63.4339 14.718C63.2819 14.318 63.2059 13.862 63.2059 13.35C63.2059 12.846 63.2819 12.394 63.4339 11.994C63.5859 11.594 63.8019 11.256 64.0819 10.98C64.3619 10.704 64.7059 10.492 65.1139 10.344C65.5219 10.196 65.9779 10.122 66.4819 10.122C66.9139 10.122 67.2919 10.17 67.6159 10.266C67.9399 10.362 68.1979 10.482 68.3899 10.626V11.778C68.1419 11.618 67.8719 11.494 67.5799 11.406C67.2879 11.318 66.9499 11.274 66.5659 11.274C65.2779 11.274 64.6339 11.966 64.6339 13.35C64.6339 14.734 65.2659 15.426 66.5299 15.426C66.9379 15.426 67.2879 15.38 67.5799 15.288C67.8719 15.196 68.1419 15.078 68.3899 14.934V16.086C68.1819 16.222 67.9219 16.34 67.6099 16.44C67.2979 16.54 66.9139 16.59 66.4579 16.59ZM73.1719 15.378C73.1079 15.522 73.0219 15.666 72.9139 15.81C72.8059 15.954 72.6739 16.084 72.5179 16.2C72.3619 16.316 72.1759 16.41 71.9599 16.482C71.7439 16.554 71.4919 16.59 71.2039 16.59C70.9319 16.59 70.6799 16.552 70.4479 16.476C70.2159 16.4 70.0139 16.286 69.8419 16.134C69.6699 15.982 69.5339 15.792 69.4339 15.564C69.3339 15.336 69.2839 15.074 69.2839 14.778C69.2839 14.098 69.5359 13.588 70.0399 13.248C70.5439 12.908 71.2559 12.738 72.1759 12.738H73.1239V12.354C73.1239 11.946 73.0199 11.664 72.8119 11.508C72.6039 11.352 72.2599 11.274 71.7799 11.274C71.3719 11.274 70.9899 11.332 70.6339 11.448C70.2779 11.564 69.9639 11.698 69.6919 11.85V10.686C69.9399 10.55 70.2679 10.422 70.6759 10.302C71.0839 10.182 71.5279 10.122 72.0079 10.122C72.8079 10.122 73.4259 10.288 73.8619 10.62C74.2979 10.952 74.5159 11.482 74.5159 12.21V15.462C74.5159 15.534 74.5179 15.616 74.5219 15.708C74.5259 15.8 74.5299 15.894 74.5339 15.99C74.5379 16.086 74.5439 16.176 74.5519 16.26C74.5599 16.344 74.5679 16.414 74.5759 16.47H73.2919C73.2679 16.358 73.2459 16.202 73.2259 16.002C73.2059 15.802 73.1919 15.622 73.1839 15.462L73.1719 15.378ZM71.5879 15.51C71.8839 15.51 72.1299 15.448 72.3259 15.324C72.5219 15.2 72.6799 15.056 72.7999 14.892C72.9199 14.728 73.0039 14.566 73.0519 14.406C73.0999 14.246 73.1239 14.134 73.1239 14.07V13.65H72.2599C71.7079 13.65 71.3039 13.736 71.0479 13.908C70.7919 14.08 70.6639 14.322 70.6639 14.634C70.6639 14.906 70.7419 15.12 70.8979 15.276C71.0539 15.432 71.2839 15.51 71.5879 15.51ZM45.6999 25.82C45.6999 26.332 45.6239 26.788 45.4719 27.188C45.3199 27.588 45.1039 27.926 44.8239 28.202C44.5439 28.478 44.2039 28.69 43.8039 28.838C43.4039 28.986 42.9519 29.06 42.4479 29.06C41.9919 29.06 41.6059 29.01 41.2899 28.91C40.9739 28.81 40.7119 28.692 40.5039 28.556V27.404C40.7519 27.548 41.0219 27.666 41.3139 27.758C41.6059 27.85 41.9559 27.896 42.3639 27.896C43.4759 27.896 44.1039 27.372 44.2479 26.324H41.7159V25.196H44.2359C44.0679 24.228 43.4519 23.744 42.3879 23.744C41.9959 23.744 41.6579 23.788 41.3739 23.876C41.0899 23.964 40.8239 24.088 40.5759 24.248V23.096C40.7679 22.952 41.0279 22.832 41.3559 22.736C41.6839 22.64 42.0639 22.592 42.4959 22.592C43.5199 22.592 44.3099 22.874 44.8659 23.438C45.4219 24.002 45.6999 24.796 45.6999 25.82ZM49.6019 23.84V28.94H48.2099V23.84H46.3259V22.712H51.5219V23.84H49.6019ZM55.0319 29.06C54.5919 29.06 54.1839 28.988 53.8079 28.844C53.4319 28.7 53.1059 28.49 52.8299 28.214C52.5539 27.938 52.3379 27.6 52.1819 27.2C52.0259 26.8 51.9479 26.34 51.9479 25.82C51.9479 25.3 52.0259 24.84 52.1819 24.44C52.3379 24.04 52.5539 23.702 52.8299 23.426C53.1059 23.15 53.4319 22.942 53.8079 22.802C54.1839 22.662 54.5919 22.592 55.0319 22.592C55.4719 22.592 55.8799 22.662 56.2559 22.802C56.6319 22.942 56.9599 23.15 57.2399 23.426C57.5199 23.702 57.7399 24.04 57.8999 24.44C58.0599 24.84 58.1399 25.3 58.1399 25.82C58.1399 26.34 58.0599 26.8 57.8999 27.2C57.7399 27.6 57.5199 27.938 57.2399 28.214C56.9599 28.49 56.6319 28.7 56.2559 28.844C55.8799 28.988 55.4719 29.06 55.0319 29.06ZM55.0319 27.896C55.5119 27.896 55.9099 27.728 56.2259 27.392C56.5419 27.056 56.6999 26.532 56.6999 25.82C56.6999 25.116 56.5419 24.594 56.2259 24.254C55.9099 23.914 55.5119 23.744 55.0319 23.744C54.5599 23.744 54.1659 23.914 53.8499 24.254C53.5339 24.594 53.3759 25.116 53.3759 25.82C53.3759 26.532 53.5339 27.056 53.8499 27.392C54.1659 27.728 54.5599 27.896 55.0319 27.896ZM65.7239 28.868C65.5879 29.244 65.4419 29.576 65.2859 29.864C65.1299 30.152 64.9499 30.394 64.7459 30.59C64.5419 30.786 64.3059 30.934 64.0379 31.034C63.7699 31.134 63.4559 31.184 63.0959 31.184C62.7039 31.184 62.3679 31.12 62.0879 30.992V29.744C62.1999 29.832 62.3399 29.9 62.5079 29.948C62.6759 29.996 62.8599 30.02 63.0599 30.02C63.3319 30.02 63.5559 29.962 63.7319 29.846C63.9079 29.73 64.0679 29.556 64.2119 29.324L61.7039 22.712H63.2039L64.9439 27.548L66.6719 22.712H67.9679L65.7239 28.868ZM74.8699 24.428L73.0339 28.34H72.0139L70.2859 24.392V28.94H69.0259V22.712H70.9339L72.6379 26.576L74.4379 22.712H76.2619V28.94H74.8699V24.428ZM83.1399 28.484C83.0519 28.54 82.9439 28.602 82.8159 28.67C82.6879 28.738 82.5359 28.8 82.3599 28.856C82.1839 28.912 81.9799 28.96 81.7479 29C81.5159 29.04 81.2519 29.06 80.9559 29.06C79.8119 29.06 78.9579 28.776 78.3939 28.208C77.8299 27.64 77.5479 26.844 77.5479 25.82C77.5479 25.316 77.6239 24.864 77.7759 24.464C77.9279 24.064 78.1399 23.726 78.4119 23.45C78.6839 23.174 79.0079 22.962 79.3839 22.814C79.7599 22.666 80.1719 22.592 80.6199 22.592C81.0839 22.592 81.5019 22.668 81.8739 22.82C82.2459 22.972 82.5519 23.2 82.7919 23.504C83.0319 23.808 83.1979 24.184 83.2899 24.632C83.3819 25.08 83.3839 25.604 83.2959 26.204H78.9879C79.0439 26.772 79.2319 27.198 79.5519 27.482C79.8719 27.766 80.3719 27.908 81.0519 27.908C81.5479 27.908 81.9619 27.846 82.2939 27.722C82.6259 27.598 82.9079 27.468 83.1399 27.332V28.484ZM80.6199 23.696C80.2119 23.696 79.8679 23.82 79.5879 24.068C79.3079 24.316 79.1239 24.684 79.0359 25.172H81.9639C81.9799 24.668 81.8679 24.296 81.6279 24.056C81.3879 23.816 81.0519 23.696 80.6199 23.696ZM89.8099 28.484C89.7219 28.54 89.6139 28.602 89.4859 28.67C89.3579 28.738 89.2059 28.8 89.0299 28.856C88.8539 28.912 88.6499 28.96 88.4179 29C88.1859 29.04 87.9219 29.06 87.6259 29.06C86.4819 29.06 85.6279 28.776 85.0639 28.208C84.4999 27.64 84.2179 26.844 84.2179 25.82C84.2179 25.316 84.2939 24.864 84.4459 24.464C84.5979 24.064 84.8099 23.726 85.0819 23.45C85.3539 23.174 85.6779 22.962 86.0539 22.814C86.4299 22.666 86.8419 22.592 87.2899 22.592C87.7539 22.592 88.1719 22.668 88.5439 22.82C88.9159 22.972 89.2219 23.2 89.4619 23.504C89.7019 23.808 89.8679 24.184 89.9599 24.632C90.0519 25.08 90.0539 25.604 89.9659 26.204H85.6579C85.7139 26.772 85.9019 27.198 86.2219 27.482C86.5419 27.766 87.0419 27.908 87.7219 27.908C88.2179 27.908 88.6319 27.846 88.9639 27.722C89.2959 27.598 89.5779 27.468 89.8099 27.332V28.484ZM87.2899 23.696C86.8819 23.696 86.5379 23.82 86.2579 24.068C85.9779 24.316 85.7939 24.684 85.7059 25.172H88.6339C88.6499 24.668 88.5379 24.296 88.2979 24.056C88.0579 23.816 87.7219 23.696 87.2899 23.696ZM93.8719 23.84V28.94H92.4799V23.84H90.5959V22.712H95.7919V23.84H93.8719Z" fill="white"/>
<defs>
<linearGradient id="paint0_linear" x1="15.6048" y1="27.0547" x2="27.3144" y2="7.80351" gradientUnits="userSpaceOnUse">
<stop stop-color="#FF3333"/>
<stop offset="1" stop-color="#FF00E2"/>
</linearGradient>
<linearGradient id="paint1_linear" x1="14.5074" y1="31.9653" x2="23.284" y2="10.2424" gradientUnits="userSpaceOnUse">
<stop stop-color="#C826FF"/>
<stop offset="1" stop-color="#5426FF"/>
</linearGradient>
</defs>
</svg>
