<svg width="12" height="10" viewBox="0 0 12 10" fill="none" xmlns="http://www.w3.org/2000/svg">
<path fill-rule="evenodd" clip-rule="evenodd" d="M0.585786 0.585786C0.960859 0.210714 1.46957 0 2 0H10C10.5304 0 11.0391 0.210714 11.4142 0.585786C11.7893 0.960859 12 1.46957 12 2V2.202L6 5.432L0 2.201V2C0 1.46957 0.210714 0.960859 0.585786 0.585786ZM6.237 6.43991L12 3.33691V7.99991C12 8.53035 11.7893 9.03905 11.4142 9.41413C11.0391 9.7892 10.5304 9.99991 10 9.99991H2C1.46957 9.99991 0.960859 9.7892 0.585786 9.41413C0.210714 9.03905 0 8.53035 0 7.99991V3.33691L5.763 6.43991C5.83584 6.47913 5.91727 6.49965 6 6.49965C6.08273 6.49965 6.16416 6.47913 6.237 6.43991Z" fill="#838FC0"/>
</svg>
