<svg width="14" height="14" viewBox="0 0 14 14" fill="none" xmlns="http://www.w3.org/2000/svg">
<path d="M10.6002 13.6667C7.87836 13.6631 5.26904 12.5803 3.34443 10.6557C1.41982 8.73112 0.337024 6.1218 0.333496 3.39999C0.333496 2.58666 0.65659 1.80665 1.2317 1.23153C1.80681 0.656422 2.58683 0.333328 3.40016 0.333328C3.57239 0.332016 3.74433 0.347647 3.9135 0.379995C4.07704 0.404195 4.23781 0.444388 4.3935 0.499995C4.503 0.538414 4.60057 0.60475 4.67657 0.692443C4.75257 0.780136 4.80436 0.886147 4.82683 0.999995L5.74016 4.99999C5.76478 5.10857 5.76182 5.22158 5.73154 5.32872C5.70126 5.43585 5.64464 5.5337 5.56683 5.61333C5.48016 5.70666 5.4735 5.71333 4.6535 6.13999C5.31016 7.58057 6.4623 8.73743 7.90016 9.39999C8.3335 8.57333 8.34016 8.56666 8.4335 8.47999C8.51313 8.40219 8.61097 8.34556 8.71811 8.31528C8.82524 8.28501 8.93825 8.28204 9.04683 8.30666L13.0468 9.21999C13.157 9.24556 13.2589 9.29876 13.3429 9.37457C13.4269 9.45037 13.4902 9.5463 13.5268 9.65333C13.5831 9.81157 13.6255 9.9744 13.6535 10.14C13.6803 10.3075 13.6937 10.477 13.6935 10.6467C13.6812 11.4565 13.349 12.2286 12.7695 12.7944C12.1899 13.3602 11.4101 13.6738 10.6002 13.6667V13.6667Z" fill="#838FC0"/>
</svg>
