<svg height="512" viewBox="0 0 24 24" width="512" xmlns="http://www.w3.org/2000/svg"><path d="M22.5 12h-21C.673 12 0 11.327 0 10.5v-4C0 5.673.673 5 1.5 5h21c.827 0 1.5.673 1.5 1.5v4c0 .827-.673 1.5-1.5 1.5zm-21-6a.5.5 0 00-.5.5v4a.5.5 0 00.5.5h21a.5.5 0 00.5-.5v-4a.5.5 0 00-.5-.5z"/><path d="M19.5 24h-15A2.503 2.503 0 012 21.5v-10a.5.5 0 011 0v10c0 .827.673 1.5 1.5 1.5h15c.827 0 1.5-.673 1.5-1.5v-10a.5.5 0 011 0v10c0 1.378-1.121 2.5-2.5 2.5z"/><path d="M12 24a.5.5 0 01-.5-.5v-12a.5.5 0 011 0v12a.5.5 0 01-.5.5zm0-18a.497.497 0 01-.108-.012c-.63-.14-3.817-.879-4.659-1.721C6.76 3.796 6.5 3.168 6.5 2.5s.26-1.296.732-1.768a2.502 2.502 0 013.535 0c.842.841 1.581 4.029 1.721 4.66A.498.498 0 0112 6zM9 1.001A1.497 1.497 0 007.5 2.5c0 .401.156.777.439 1.061.389.389 2.015.914 3.385 1.264-.351-1.37-.875-2.996-1.264-3.385A1.49 1.49 0 009 1.001z"/><path d="M12 6a.499.499 0 01-.489-.607c.14-.631.879-3.818 1.721-4.66A2.502 2.502 0 0117.5 2.5c0 .668-.26 1.296-.732 1.768-.842.842-4.029 1.581-4.659 1.721A.584.584 0 0112 6zm3-4.999c-.384 0-.769.146-1.061.438-.389.389-.913 2.015-1.264 3.385 1.37-.35 2.996-.875 3.385-1.264.284-.283.44-.659.44-1.06s-.156-.777-.439-1.061A1.497 1.497 0 0015 1.001zm-1.414.085h.01z"/></svg>