<svg width="131" height="20" viewBox="0 0 131 20" fill="none" xmlns="http://www.w3.org/2000/svg">
<path fill-rule="evenodd" clip-rule="evenodd" d="M36.6264 9.88527C35.944 17.6533 45.6228 13.6954 46.2142 13.5703C46.4417 15.1398 46.6578 16.7093 46.8852 18.2789C46.6009 18.3699 31.0306 24.8414 30.6098 10.0445C30.6098 9.86252 30.5757 9.69192 30.5985 9.52132C32.7139 -2.70514 46.7601 0.934364 47.0445 0.95711C46.817 2.64038 46.6009 4.32365 46.3734 6.00692C45.8048 5.82495 37.2633 2.51527 36.6264 9.88527ZM58.3042 5.83632L55.7793 19.4617C53.9368 19.4617 50.2404 19.4617 50.2404 19.4617L52.9245 5.83632C52.9245 5.83632 49.8992 5.83632 48.3865 5.83632C48.6709 4.09618 48.9438 2.35605 49.2282 0.627281C53.9254 0.627281 58.634 0.627281 63.3313 0.627281C63.0469 2.36742 62.774 4.10756 62.4896 5.83632C61.1134 5.83632 59.7031 5.83632 58.3042 5.83632ZM67.5394 16.7321L69.3819 13.2291L71.5543 14.4005L70.8832 7.05328C70.8832 7.05328 64.9235 18.4495 64.3549 18.7907C63.1265 19.6096 60.5448 19.4958 58.4748 19.4617L68.8701 0.627281H74.7616C75.6601 6.90543 76.5586 13.1836 77.4457 19.4617C75.8762 19.4617 72.8736 19.4617 72.8736 19.4617L67.5394 16.7321ZM90.4342 4.86958C88.9215 4.86958 87.534 4.82408 86.0213 4.82408C85.8507 5.89319 85.5209 7.84942 85.5209 7.84942C85.5209 7.84942 86.2488 7.84942 87.3634 7.84942C89.058 7.84942 90.946 8.25887 91.4351 6.71208C91.8445 5.38138 90.5707 4.9037 90.4342 4.86958ZM84.1788 14.9123H88.1595C88.1595 14.9123 90.0475 14.901 90.4342 13.3883C90.9005 11.5685 89.2627 11.5572 89.2627 11.5572H84.5769L84.1788 14.9123ZM96.1096 14.3892C94.6538 19.5868 89.9224 19.3935 89.9224 19.3935C89.9224 19.3935 80.835 19.4617 78.6286 19.4503C79.7432 13.2291 80.8691 7.00779 81.9837 0.775135L90.4228 0.524917C90.4228 0.524917 95.302 0.786507 96.2688 4.86958C96.9739 7.87217 94.2671 9.71467 94.2671 9.71467C94.2671 9.71467 96.9057 11.5344 96.1096 14.3892ZM125.521 19.4048L121.177 16.5615L122.849 13.0585L125.021 14.2299L124.35 7.05328C124.35 7.05328 124.02 6.95092 124.02 7.05328C124.009 7.15564 117.833 19.4048 117.833 19.4048L107.517 19.4617L104.162 12.0576H103.991C103.991 12.0576 103.093 16.9937 102.649 19.4617C100.807 19.4617 98.9529 19.4617 97.1104 19.4617C97.1104 19.4048 100.807 0.627281 100.807 0.627281H106.186L105.015 6.84856H105.186C105.186 6.84856 109.212 2.69725 111.236 0.627281C113.42 0.627281 115.604 0.627281 117.787 0.627281L108.836 9.88527L112.897 17.949L122.178 0.866121H128.023L130.867 19.3935H125.521V19.4048Z" fill="#4878FE"/>
<path fill-rule="evenodd" clip-rule="evenodd" d="M16.8241 7.68088C16.699 7.73774 12.2861 0.617961 12.2861 0.617961C14.0263 0.390492 17.6999 0.333625 18.8372 0.788563C18.8372 0.84543 21.0892 1.78942 21.5214 2.80166C21.5782 2.9154 21.6351 2.96089 21.419 3.19973C19.9063 4.78064 18.3368 6.11134 16.8241 7.68088ZM31.6096 19.2363C31.6096 19.2363 27.3332 19.8505 24.4216 18.5653C22.9544 17.917 20.5774 13.8908 20.5774 13.8908L15.3001 19.4638C11.0464 19.4638 2.53908 19.4638 2.53908 19.4638L4.54081 8.0562C4.54081 8.0562 2.15239 9.14805 0.867188 9.71672C0.867188 8.09032 0.867188 6.46392 0.867188 4.83751C1.03779 4.78064 7.19083 0.74307 7.24769 0.629335C8.7035 0.629335 11.6151 0.629335 11.6151 0.629335C11.6151 0.629335 8.7035 16.7455 8.58976 17.7919C8.64663 17.7919 8.7035 17.7919 8.76036 17.7919C14.413 12.071 20.0656 6.35018 25.7182 0.629335C28.2317 0.629335 33.6114 0.629335 33.6114 0.629335L24.922 9.22766L31.6096 19.2363Z" fill="white"/>
</svg>
