<svg width="124" height="31" viewBox="0 0 124 31" fill="none" xmlns="http://www.w3.org/2000/svg">
<path d="M68.2015 22.8384C70.406 22.8384 71.5542 22.069 71.5542 20.5301C71.5542 18.9912 70.3677 18.1526 68.0714 18.1526C67.0715 18.1514 66.0732 18.2311 65.0861 18.3911V13.2205C65.9581 13.3142 66.8347 13.3578 67.7116 13.3513C70.0845 13.3513 71.2633 12.6512 71.2633 11.0431C71.2633 9.43495 70.184 8.6963 67.9489 8.6963C66.0516 8.79909 64.1794 9.18014 62.3917 9.82736V4.44136C64.7444 3.663 67.21 3.2859 69.6865 3.32569C75.9019 3.32569 79.4919 6.08024 79.4919 10.3813C79.4919 13.0359 77.8079 14.9979 74.8992 15.6211C78.1523 16.329 79.8133 18.1756 79.8133 21.0071C79.8133 25.4929 76.1698 28.109 69.1889 28.109C66.8263 28.0855 64.475 27.7781 62.1851 27.1933V21.7073C64.1323 22.3679 66.1633 22.7462 68.2168 22.8307V22.8307L68.2015 22.8384ZM94.1502 12.1895C99.0644 12.1895 102.31 15.2672 102.31 19.8453C102.31 24.7466 98.5898 28.1474 92.7418 28.1474C85.8527 28.1474 81.3902 23.6924 81.3902 16.3829C81.3902 8.04998 86.0977 3.35647 94.5789 3.35647C96.5154 3.36614 98.4452 3.58541 100.335 4.01048V9.39647C98.5636 8.83957 96.7182 8.55678 94.8621 8.5578C91.119 8.5578 89.3662 10.0967 89.2743 13.6668C90.6896 12.6123 92.4302 12.0945 94.1885 12.2049V12.2049L94.1502 12.1895ZM94.8544 19.676C94.8544 17.7063 93.7675 16.4444 92.1907 16.4444C90.6138 16.4444 89.5575 17.6678 89.5575 19.676C89.5575 21.6842 90.6138 22.8769 92.1907 22.8769C93.7675 22.8769 94.8391 21.6458 94.8391 19.676H94.8544ZM104.736 3.96431H120.75V9.61191H112.23V13.1821C112.911 13.1436 113.386 13.1128 113.539 13.1128C118.828 13.1128 121.699 15.8751 121.699 20.5224C121.699 25.3236 118.208 28.1782 111.403 28.1782C109.011 28.146 106.632 27.8099 104.323 27.178V21.792C105.863 22.263 107.46 22.5218 109.069 22.5614C111.824 22.5614 113.279 21.6073 113.279 19.8453C113.279 17.8756 111.748 16.8907 108.686 16.8907C107.353 16.9171 106.029 17.1109 104.744 17.4678V3.96431H104.736Z" fill="#FFE418"/>
<path d="M2.42651 2.1254H10.5479V12.128C11.0884 11.3424 11.8207 10.7097 12.6746 10.2906C13.5285 9.87159 14.4752 9.68027 15.4238 9.73505C20.1467 9.73505 22.8028 13.1282 22.8028 19.1682C22.8028 24.9236 20.1007 28.4014 15.6075 28.4014C12.8749 28.4014 11.0149 27.3396 9.96619 25.139V28.1475H2.42651V2.1254ZM10.3183 19.0528C10.3183 21.692 10.8771 22.9692 12.3238 22.9692C13.7705 22.9692 14.3599 21.692 14.3599 19.0528C14.3599 16.4137 13.7628 15.1364 12.3161 15.1364C10.8694 15.1364 10.303 16.4291 10.303 19.0528H10.3183ZM43.5771 20.684H32.3326C32.5316 22.6307 33.986 23.554 36.7263 23.554C38.7132 23.5407 40.6805 23.1572 42.5284 22.4229V26.9625C40.1431 27.8427 37.6128 28.2579 35.0729 28.1859C28.1839 28.1859 24.4179 24.7774 24.4179 18.7758C24.4179 12.9051 28.0767 9.38881 34.185 9.38881C40.9592 9.38881 43.5924 12.6281 43.5924 19.5222V20.684H43.5771ZM36.5196 17.237V16.6907C36.5196 14.6748 35.7542 13.5129 34.4146 13.5129C33.0751 13.5129 32.279 14.6748 32.279 16.7215V17.237H36.5196ZM59.6132 9.87354V15.0903H55.8242V19.3529C55.8242 21.5381 56.1534 22.5614 57.7838 22.5614C58.365 22.5474 58.9427 22.4674 59.506 22.3229V27.4319C57.7699 27.9633 55.9626 28.2228 54.1479 28.2013C51.8516 28.2013 50.0987 27.4319 49.0653 26.1546C47.7258 24.4465 47.7258 22.3075 47.7258 19.4221V15.0826H44.8018V9.87354H47.6952V5.91099L55.8242 3.32571V9.91202L59.6132 9.87354Z" fill="white"/>
</svg>
