<svg width="117" height="45" viewBox="0 0 117 45" fill="none" xmlns="http://www.w3.org/2000/svg">
<path d="M79.8921 13.9518C79.8921 16.5071 77.8492 18.2105 74.7247 18.2105C71.5998 18.2105 69.557 16.3851 69.557 13.9518C69.557 11.396 71.6004 9.69261 74.7247 9.69261C77.8492 9.57056 79.8921 11.396 79.8921 13.9518ZM52.009 29.5283C52.009 32.5694 49.6051 34.6389 45.8798 34.6389C42.1549 34.6389 39.7504 32.4534 39.7504 29.5283C39.7504 26.4866 42.1542 24.4171 45.8798 24.4171C49.6058 24.4171 52.009 26.6027 52.009 29.5283ZM22.0835 13.9518C22.0835 16.5071 20.0407 18.2105 16.916 18.2105C13.7912 18.2105 11.8678 16.3899 11.8678 13.9518C11.8678 11.396 13.9112 9.69261 17.0353 9.69261C20.1636 9.57056 22.0835 11.396 22.0835 13.9518ZM87.5863 13.4648C87.5863 7.50226 82.5383 2.51252 74.7264 2.51252C66.7941 2.51252 61.867 7.3796 61.867 13.4648C61.867 16.6286 63.1888 19.0624 65.5897 20.6443C65.708 20.6443 65.708 20.764 65.708 20.8878C65.708 21.0117 65.5897 21.0075 65.5897 21.1307C63.0635 22.4691 61.2627 24.4165 60.4223 26.9718C60.4223 26.9718 60.4223 27.0915 60.1816 27.0915C59.9412 27.0915 59.9419 26.9718 59.9419 26.9718C59.1005 24.4165 57.4174 22.4703 54.7742 21.1307C54.6562 21.1307 54.6562 21.0111 54.6562 20.8878C54.6562 20.7646 54.7742 20.7682 54.7742 20.6443C57.1777 19.063 58.4971 16.5071 58.4971 13.4648C58.4971 7.50226 53.4491 2.51192 45.6371 2.51192C37.7049 2.51192 32.7771 7.3796 32.7771 13.4648C32.7771 16.6286 34.0989 19.0618 36.4998 20.6443C36.6181 20.6443 36.6181 20.764 36.6181 20.8872C36.6181 21.0105 36.4998 21.0069 36.4998 21.1307C33.9763 22.4691 32.1732 24.4165 31.3324 26.9718C31.3324 26.9718 31.3324 27.0915 31.0925 27.0915C30.9743 27.0915 30.852 26.9718 30.852 26.9718C30.0105 24.4165 28.3282 22.4703 25.6845 21.1307C25.5663 21.1307 25.5663 21.0111 25.5663 20.8872C25.5663 20.7634 25.6845 20.7675 25.6845 20.6443C28.0883 19.063 29.4072 16.5071 29.4072 13.4648C29.4072 7.50287 24.3597 2.51252 16.5478 2.51252C8.61486 2.51252 3.68786 7.38021 3.68786 13.4648C3.68786 16.6286 5.00973 19.0624 7.4106 20.6443C7.52877 20.6443 7.52877 20.764 7.52877 20.8872C7.52877 21.0105 7.4106 21.0069 7.4106 21.1307C3.80606 22.9555 1.7627 26.1187 1.7627 30.135C2.25315 36.9506 8.02161 42.5477 16.9136 42.5477C24.365 42.5477 29.653 38.6534 31.2136 33.4214C31.2136 33.4214 31.2136 33.3018 31.4541 33.3018C31.5723 33.3018 31.6946 33.4214 31.6946 33.4214C33.1364 38.6534 38.3039 42.5477 45.8765 42.5477C53.4491 42.5477 58.6158 38.6534 60.1766 33.4214C60.1766 33.4214 60.1766 33.1779 60.4169 33.1779C60.5352 33.1779 60.6573 33.2976 60.6573 33.2976C62.219 38.5295 67.3878 42.4239 74.9573 42.4239C83.971 42.4239 89.6201 36.8264 89.6201 30.0111C89.6201 25.874 87.577 22.8317 83.971 21.0069C83.853 21.0069 83.853 20.8872 83.853 20.7634C83.853 20.6395 83.971 20.6437 83.971 20.5199C86.2549 19.06 87.5756 16.5048 87.5756 13.46L87.5863 13.4648ZM110.299 17.964C110.299 17.964 108.737 19.1815 106.453 19.1815C103.689 19.1815 102.367 17.7211 102.367 15.1652V10.6648H105.131V15.1664C105.131 16.2618 105.491 16.6268 106.453 16.6268C107.294 16.6268 107.535 16.3839 107.535 16.3839V10.6648H110.299V17.964ZM100.924 13.5833C100.924 13.5833 100.563 13.3398 99.7226 13.3398C99.0008 13.3398 98.2801 13.7053 98.2801 14.8002V18.9374H95.5156V14.8038C95.5156 11.0346 98.4005 10.6666 99.6019 10.6666C100.093 10.6629 100.581 10.7453 101.044 10.9101L100.926 13.5869L100.924 13.5833ZM115.224 14.9229C115.224 7.98629 109.695 2.38927 102.964 2.38927C96.233 2.38927 90.7059 7.98629 90.7059 14.9229C90.7059 21.8595 96.235 27.4565 102.964 27.4565C109.693 27.4565 115.227 21.8612 115.227 14.9253L115.224 14.9229Z" fill="white"/>
<path d="M16.9129 24.4172C13.1902 24.4172 10.7834 26.6027 10.7834 29.5284C10.7852 32.5695 13.1902 34.639 16.9129 34.639C20.6356 34.639 23.0418 32.4534 23.0418 29.5284C23.1641 26.6076 20.7609 24.4172 16.9129 24.4172Z" fill="#96C11E"/>
<path d="M74.7244 24.4172C71.0018 24.4172 68.5956 26.6027 68.5956 29.5284C68.5956 32.5695 70.9988 34.639 74.7244 34.639C78.45 34.639 80.8538 32.4534 80.8538 29.5284C80.8538 26.6034 78.45 24.4172 74.7244 24.4172Z" fill="#F2CB03"/>
<path d="M45.8808 18.2105C49.0054 18.2105 51.0482 16.3851 51.0482 13.9518C51.0482 11.5186 49.0054 9.69322 45.8808 9.69322C42.7559 9.69322 40.7131 11.5186 40.7131 13.9518C40.7131 16.3851 42.7566 18.2111 45.8808 18.2111V18.2105Z" fill="#E2271D"/>
</svg>
