<svg width="103" height="54" viewBox="0 0 103 54" fill="none" xmlns="http://www.w3.org/2000/svg">
<path d="M2.11211 6.15231C2.11211 6.15231 14.4011 1.63567 28.3271 1.63567C42.2532 1.63567 49.7668 4.26305 53.2234 5.32516C56.6801 6.38729 64.1447 9.4598 75.0657 9.4598C85.987 9.4598 101.021 5.32516 101.021 5.32516V47.3741C101.021 47.3741 86.9359 51.3974 76.0152 51.3974C65.0945 51.3974 53.0751 47.3741 53.0751 47.3741C53.0751 47.3741 41.754 43.2389 28.5796 43.2389C15.4051 43.2389 2.11211 48.4552 2.11211 48.4552V6.15231Z" fill="white"/>
<path d="M4.38185 7.87174C4.38185 7.87174 15.8532 3.64392 29.6789 3.64392C43.5046 3.64392 55.9778 8.25062 55.9778 8.25062C55.9778 8.25062 65.3953 11.6715 73.8607 11.6715C82.3264 11.6715 96.0521 8.90178 98.8574 8.24906V45.5785C98.8574 45.5785 87.3862 49.1716 74.0114 49.1716C60.6363 49.1716 45.9593 41.1663 31.0816 41.1663C16.2041 41.1663 8.52314 44.1685 4.38185 45.5785V7.87174Z" fill="#234697"/>
<path d="M8.8161 11.5209C8.8161 11.5209 18.008 8.55962 30.2979 8.55962C42.5878 8.55962 52.2221 12.0742 52.2221 12.0742C52.2221 12.0742 64.9465 16.5773 74.3628 16.5773C83.7795 16.5773 94.3668 14.0105 94.3668 14.0105V36.1957C94.3668 36.1957 84.9329 38.5658 74.482 38.5658C64.0311 38.5658 49.3661 33.3395 49.3661 33.3395C49.3661 33.3395 40.4166 30.5713 29.6962 30.5713C18.9759 30.5713 8.8161 33.3395 8.8161 33.3395V11.5209Z" fill="white"/>
<path d="M9.74203 32.308V12.3284C9.74203 12.3284 18.5079 9.55765 30.3802 9.55765C42.2521 9.55765 52.7715 13.2844 52.7715 13.2844C52.7715 13.2844 63.8927 17.5806 74.6624 17.5806C85.4322 17.5806 93.4305 15.3994 93.4305 15.3994V35.4825C93.4305 35.4825 84.8791 37.6968 74.3617 37.6968C63.8443 37.6968 53.023 33.3396 53.023 33.3396C53.023 33.3396 41.752 29.7163 30.3306 29.7163C18.9092 29.7163 10.9944 31.7039 9.74203 32.308Z" fill="#3D9349"/>
<path d="M19.786 18.8942L16.4674 19.3223C16.4674 19.3223 16.4551 17.4097 16.4551 16.7803C18.1834 16.4154 22.5781 15.9879 22.5781 15.9879V14.0121C19.9735 14.1757 14.2378 15.2203 14.2378 15.2203V26.7593C15.2522 26.53 17.8506 26.1521 20.0426 25.8509C21.0132 25.7178 21.9043 25.2398 22.5543 24.5034C23.2043 23.767 23.5703 22.821 23.5858 21.8368C23.6162 19.9351 22.166 18.5925 19.786 18.8942ZM21.2388 22.1008C21.2382 22.5367 21.0834 22.9582 20.8021 23.29C20.5208 23.6219 20.1313 23.8424 19.7031 23.9124L16.4674 24.4414V21.2726C16.4674 21.2726 18.4647 20.9761 19.1349 20.9202C20.5088 20.8068 21.2388 21.2079 21.2388 22.1008Z" fill="white"/>
<path d="M30.4178 13.597L28.0135 13.7103L23.7182 25.4652L26.1224 25.3311L27.2912 22.0904C27.2912 22.0904 30.4135 22.0386 31.3157 22.0904C31.5824 22.8285 32.4491 25.1961 32.4491 25.1961C32.4491 25.1961 34.9866 25.3389 34.9825 25.3265C34.9784 25.3141 30.4178 13.597 30.4178 13.597ZM27.9759 20.1778L29.203 16.2772L30.5805 20.1778H27.9759Z" fill="white"/>
<path d="M37.4186 14.0121V22.9336C37.4183 23.0933 37.3554 23.2464 37.2432 23.3595C37.131 23.4727 36.9792 23.5367 36.82 23.5377C36.4837 23.5403 36.0629 23.5242 35.7152 23.4492V25.1857C35.7152 25.1857 37.0179 25.5998 37.7689 25.5998H37.8526C38.2967 25.5998 38.7231 25.4236 39.0387 25.1095C39.3543 24.7953 39.5338 24.3686 39.5382 23.9223L39.6102 16.213C39.6102 16.213 42.6533 16.6789 42.9412 16.8047V26.3685C42.9412 26.3685 44.9322 26.7587 45.1954 26.8467V15.3202C45.1954 15.3202 40.5868 14.2135 37.4186 14.0121Z" fill="white"/>
<path d="M46.4771 15.5639V17.5774C46.4771 17.5774 48.9983 18.095 49.6995 18.4056V27.9875L51.8449 28.575V18.9993L55.0731 19.9827V18.02C55.0731 18.02 48.713 16.0241 46.4771 15.5639Z" fill="white"/>
<path d="M66.009 27.3752C64.7629 27.0921 63.0472 26.7148 63.0472 26.7148V29.8721C63.0472 29.8721 65.6581 30.5327 66.4036 30.5327C67.1488 30.5327 67.7494 30.2117 67.7494 29.3877C67.7494 28.5637 67.2552 27.6584 66.009 27.3752Z" fill="white"/>
<path d="M75.0464 18.198C65.2952 18.198 57.5144 15.4464 57.5144 15.4464V34.1029C57.5144 34.1029 67.5328 37.0223 75.1551 37.0223C82.7771 37.0223 92.7965 34.9752 92.7965 34.9752V16.186C92.7965 16.186 84.7982 18.198 75.0464 18.198ZM67.6663 32.6599C65.9879 32.5931 60.8116 31.2339 60.8116 31.2339V19.6576C63.254 20.5277 69.0205 21.3352 69.0205 21.3352V23.3109C67.7811 23.3109 63.0495 22.2161 63.0495 22.2161V24.8083C63.0495 24.8083 65.9967 25.4207 66.5644 25.563C69.9452 26.5113 70.0204 29.1117 70.0204 29.9083C70.0231 32.2977 68.1005 32.6599 67.6663 32.6599ZM80.5235 32.8865C78.0688 33.2763 71.9718 33.1381 71.9718 33.1381V21.5997C76.6598 21.7032 80.2834 21.3688 80.2834 21.3688V23.3487C78.1714 23.55 74.2561 23.6173 74.2561 23.6173V26.18C76.2267 26.268 79.8748 25.9155 79.8748 25.9155C79.8748 25.9155 79.8626 27.1112 79.8626 27.8782C78.8729 27.9668 74.2269 28.1174 74.2269 28.1174V31.3012C78.1717 31.339 80.5261 30.9864 80.5261 30.9864L80.5235 32.8865ZM90.4586 21.9972L87.1859 22.5759V32.0813C86.8187 32.115 84.9707 32.3747 84.9707 32.3747V22.8538C83.8102 23.0215 81.6397 23.1975 81.6397 23.1975V21.2348C84.0096 21.183 90.456 20.035 90.456 20.035L90.4586 21.9972Z" fill="white"/>
<path d="M8.92642 36.4318L12.2162 35.616V36.38L9.81505 36.9759V38.0318L11.0035 37.7372C11.3318 37.6555 11.6038 37.6294 11.8195 37.659C12.0388 37.6898 12.2374 37.8054 12.3733 37.9811C12.5268 38.1668 12.6034 38.4098 12.6031 38.7102C12.6057 39.0095 12.5257 39.3035 12.3717 39.5597C12.2422 39.7907 12.0622 39.9893 11.8453 40.1406C11.6481 40.2704 11.3675 40.3805 11.0035 40.4706L8.92642 40.9884V36.4318ZM9.81505 40.0033L10.6795 39.789C10.8789 39.7453 11.0738 39.683 11.2616 39.6027C11.3799 39.5407 11.4804 39.4493 11.5537 39.3372C11.6355 39.2212 11.6791 39.0824 11.6784 38.9401C11.6784 38.7284 11.6057 38.5925 11.4604 38.5328C11.3152 38.473 11.0675 38.4865 10.7176 38.5726L9.81452 38.7969L9.81505 40.0033Z" fill="white"/>
<path d="M12.8486 35.3328L13.8552 35.1501L14.8958 37.3243L15.784 34.7987L16.7241 34.628L15.2183 38.362C15.0538 38.7667 14.8864 39.0824 14.716 39.3087C14.5584 39.528 14.3215 39.6768 14.0561 39.7228C13.8511 39.7661 13.6418 39.7863 13.4323 39.7834V39.0999C13.5601 39.085 13.676 39.0686 13.7795 39.0484C13.9883 39.0103 14.1379 38.9445 14.2282 38.8505C14.3185 38.7568 14.4059 38.5738 14.4904 38.302L12.8486 35.3328Z" fill="white"/>
<path d="M17.324 34.4772L18.2317 34.3609V36.2988C18.4336 36.2522 18.571 36.1817 18.6438 36.0877C18.7166 35.9934 18.8262 35.7433 18.9725 35.3369C19.1607 34.8195 19.3496 34.4886 19.5392 34.3448C19.7287 34.2007 20.0323 34.1018 20.45 34.0476L20.5818 34.028V34.7082L20.453 34.7217C20.2672 34.7454 20.1312 34.7861 20.045 34.8438C19.9572 34.9047 19.8863 34.9873 19.839 35.0833C19.7471 35.2839 19.6681 35.4897 19.6025 35.7003C19.5561 35.8449 19.496 35.9849 19.4233 36.1181C19.3355 36.256 19.2188 36.3726 19.0812 36.4601C19.2779 36.49 19.4563 36.5931 19.5809 36.7491C19.7481 36.9638 19.8934 37.1945 20.0146 37.4384L20.6277 38.6088L19.5608 38.7456L19.024 37.6352C19.0157 37.6197 18.9988 37.5895 18.9725 37.5456C18.9622 37.5301 18.9246 37.4639 18.8592 37.3459C18.7427 37.1389 18.6471 37.0112 18.5722 36.9635C18.4975 36.9166 18.3837 36.9029 18.2307 36.9204V38.9142L17.324 39.0308V34.4772Z" fill="white"/>
<path d="M21.1926 38.4659V33.9111L22.5588 33.8168L23.3794 36.8665L24.1903 33.7044L25.5596 33.6098V38.1646L24.7116 38.2231V34.6388L23.8148 38.2846L22.9354 38.3453L22.0406 34.8224V38.4053L21.1926 38.4659Z" fill="white"/>
<path d="M26.5319 38.0751V33.5203L29.8923 33.4966V34.2667L27.4468 34.2837V35.2937L29.7221 35.277V36.0447L27.4468 36.0608V37.2997L29.9788 37.2819V38.0494L26.5319 38.0751Z" fill="white"/>
<path d="M30.8979 33.4623L31.8118 33.5056V35.4438C32.0179 35.433 32.1534 35.3867 32.2239 35.305C32.2944 35.2233 32.4075 34.9943 32.5579 34.6128C32.7467 34.1299 32.937 33.8324 33.1291 33.7206C33.3211 33.6087 33.6268 33.5633 34.0462 33.5838C34.0666 33.5838 34.1109 33.5838 34.1791 33.5876V34.2676L34.0491 34.2585C33.8617 34.2497 33.725 34.2661 33.637 34.31C33.5481 34.3548 33.475 34.4257 33.4269 34.5129C33.3342 34.6983 33.2553 34.8901 33.1903 35.0872C33.1442 35.2219 33.0836 35.3516 33.0096 35.4731C32.9446 35.5767 32.8301 35.6704 32.6654 35.7548C32.8691 35.8227 33.046 35.9542 33.1702 36.1302C33.3374 36.3723 33.4837 36.6286 33.607 36.8962L34.2254 38.174L33.1506 38.1222L32.6118 36.9199C32.6036 36.9032 32.5861 36.8681 32.5605 36.8215C32.55 36.8045 32.5118 36.7313 32.446 36.6016C32.3285 36.3723 32.2324 36.228 32.1569 36.1682C32.0817 36.1085 31.9672 36.0742 31.813 36.0649V38.0587L30.8991 38.015L30.8979 33.4623Z" fill="white"/>
<path d="M34.8038 38.2335V33.6787L38.1459 34.0295V34.7999L35.7139 34.5457V35.5551L37.9766 35.7925V36.5597L35.7139 36.3225V37.5618L38.2319 37.8256V38.5928L34.8038 38.2335Z" fill="white"/>
<path d="M39.1258 38.6642V34.1095L40.5742 34.3525C41.1239 34.4447 41.4814 34.5276 41.6473 34.6011C41.911 34.7188 42.1345 34.9112 42.2907 35.1548C42.4624 35.4128 42.5484 35.7232 42.5484 36.0866C42.5484 36.3668 42.4985 36.5934 42.3989 36.7668C42.3114 36.9287 42.1797 37.0622 42.0194 37.1518C41.8755 37.2321 41.7157 37.2789 41.5517 37.2889C41.3354 37.2962 41.0236 37.2657 40.6156 37.1975L40.0266 37.0985V38.8159L39.1258 38.6642ZM40.0284 35.0327V36.3267L40.5223 36.4101C40.8785 36.4699 41.1163 36.486 41.2358 36.4582C41.348 36.4356 41.4482 36.3732 41.5182 36.2822C41.589 36.1847 41.6251 36.0661 41.621 35.9451C41.6239 35.7885 41.5735 35.635 41.4779 35.5109C41.385 35.3897 41.2588 35.298 41.1148 35.2479C40.9021 35.1856 40.685 35.1387 40.4655 35.1077L40.0284 35.0327Z" fill="white"/>
<path d="M46.0172 38.3836L46.881 38.8703C46.7486 39.3359 46.5283 39.653 46.22 39.8217C45.9117 39.99 45.5209 40.0182 45.0476 39.9063C44.4676 39.771 43.9556 39.4302 43.605 38.9462C43.2273 38.4443 43.0385 37.8349 43.0385 37.1181C43.0385 36.3588 43.2273 35.8151 43.605 35.4865C43.983 35.158 44.4807 35.066 45.0992 35.2101C45.6147 35.3225 46.0778 35.6057 46.4141 36.0142C46.6152 36.2554 46.7658 36.5705 46.8661 36.9591L45.9839 36.9685C45.937 36.731 45.8245 36.5117 45.6602 36.3351C45.4978 36.1612 45.2874 36.0405 45.0563 35.9881C44.7293 35.9108 44.4641 35.9694 44.2604 36.1635C44.0567 36.3579 43.9553 36.7257 43.9565 37.2665C43.9565 37.8425 44.0567 38.2762 44.2572 38.5678C44.4376 38.8454 44.7174 39.0428 45.0382 39.1192C45.2752 39.1751 45.4789 39.1453 45.6491 39.0302C45.8196 38.9148 45.9423 38.6993 46.0172 38.3836Z" fill="white"/>
<path d="M47.7691 35.996L48.651 36.2417V38.1799C48.8477 38.2141 48.9809 38.1986 49.0502 38.1327C49.1196 38.0669 49.2268 37.8598 49.3723 37.5114C49.5535 37.0722 49.7366 36.818 49.9213 36.7492C50.1061 36.6801 50.4019 36.702 50.8084 36.8148L50.9361 36.8476V37.5254L50.8116 37.4877C50.6309 37.437 50.4986 37.4232 50.4147 37.447C50.3302 37.471 50.2579 37.5263 50.2125 37.6022C50.1218 37.7699 50.0452 37.945 49.9831 38.1254C49.94 38.2475 49.8814 38.3638 49.8091 38.4712C49.7462 38.5594 49.6354 38.6285 49.4769 38.6783C49.678 38.7957 49.8458 38.9635 49.9636 39.1652C50.1242 39.4425 50.2652 39.7309 50.3856 40.0281L50.981 41.4427L49.9446 41.154L49.4233 39.8314C49.4148 39.8129 49.3985 39.776 49.3717 39.7213C49.3615 39.7017 49.3248 39.6176 49.2615 39.4759C49.1482 39.2206 49.0552 39.0548 48.9826 38.979C48.8891 38.8914 48.7748 38.8294 48.6504 38.7992V40.7936L47.7691 40.5494V35.996Z" fill="white"/>
<path d="M55.7269 42.7347L54.7687 42.4629L54.3881 41.3206L52.6442 40.8258L52.2837 41.7575L51.3491 41.4925L53.049 37.4209L53.9804 37.685L55.7269 42.7347ZM54.1051 40.4759L53.5039 38.6124L52.9152 40.1353L54.1051 40.4759Z" fill="white"/>
<path d="M59.0402 43.6591V41.7578L58.8613 41.7089C58.5833 41.6322 58.3869 41.6216 58.2726 41.6773C58.1581 41.7326 57.9628 41.9388 57.6868 42.2951L57.0486 43.1103L55.9937 42.8196L56.5267 42.0805C56.7374 41.7865 56.9052 41.5856 57.0311 41.4785C57.1696 41.3637 57.3298 41.2782 57.5018 41.2275C57.0947 41.0495 56.8003 40.8208 56.6193 40.542C56.4427 40.2767 56.3483 39.9649 56.348 39.6457C56.348 39.3696 56.4151 39.1421 56.5494 38.9634C56.6106 38.8785 56.6902 38.8085 56.782 38.759C56.8738 38.7096 56.9758 38.6817 57.0801 38.6776C57.2995 38.6648 57.628 38.7186 58.0654 38.8393L59.9201 39.3505V43.9056L59.0402 43.6591ZM59.0402 39.8759L58.3513 39.6858C58.1243 39.6182 57.8935 39.5631 57.66 39.521C57.609 39.5131 57.5569 39.5169 57.5073 39.5324C57.4581 39.5476 57.4129 39.5743 57.3753 39.61C57.2958 39.6835 57.2555 39.7968 57.2555 39.9499C57.2515 40.0963 57.2917 40.2407 57.3706 40.364C57.442 40.4761 57.5432 40.5657 57.6627 40.6228C57.781 40.6785 58.0214 40.7561 58.3839 40.8562L59.0364 41.036L59.0402 39.8759Z" fill="white"/>
<path d="M64.6197 40.3652L65.5147 40.5567V42.4946C65.7143 42.5163 65.8495 42.4923 65.9201 42.4226C65.9903 42.3529 66.0993 42.1403 66.2467 41.7845C66.4321 41.3309 66.6183 41.0642 66.8054 40.9843C66.9928 40.904 67.2921 40.9081 67.7039 40.996L67.8339 41.0209V41.7011L67.7051 41.6715C67.5218 41.6323 67.3871 41.6267 67.3026 41.6551C67.216 41.685 67.1432 41.745 67.0966 41.8243C67.0045 41.9968 66.9266 42.1763 66.8637 42.3617C66.8194 42.4873 66.76 42.607 66.6865 42.7183C66.6233 42.8103 66.5108 42.8855 66.3496 42.9444C66.5527 43.0483 66.7238 43.2062 66.8442 43.4009C67.0071 43.6688 67.1502 43.9487 67.2717 44.2377L67.8764 45.6157L66.8293 45.3932L66.2977 44.0992C66.2899 44.0811 66.2724 44.0474 66.2462 43.9921C66.2357 43.9733 66.1987 43.8943 66.1337 43.754C66.0188 43.5054 65.9247 43.3455 65.8516 43.2741C65.7554 43.1915 65.6388 43.1365 65.5141 43.1151V45.1089L64.6191 44.918L64.6197 40.3652Z" fill="white"/>
<path d="M68.2657 43.3543C68.2657 42.8904 68.3345 42.5095 68.4717 42.2108C68.5723 41.9932 68.7142 41.7976 68.8899 41.6354C69.056 41.4788 69.2551 41.3619 69.4722 41.2937C69.7875 41.2038 70.1177 41.1816 70.4421 41.2278C71.1057 41.3057 71.6363 41.576 72.0344 42.0389C72.4325 42.5022 72.6316 43.1042 72.6316 43.8456C72.6316 44.5809 72.434 45.1328 72.0391 45.5018C71.6442 45.8707 71.1161 46.0163 70.4546 45.9387C69.7852 45.8599 69.2528 45.5908 68.8576 45.1311C68.4624 44.6717 68.2651 44.0793 68.2657 43.3543ZM69.2023 43.4333C69.2023 43.949 69.3201 44.3537 69.5555 44.6474C69.6634 44.7879 69.7983 44.905 69.9525 44.9917C70.1063 45.0784 70.2762 45.1328 70.452 45.1519C70.8145 45.1943 71.1121 45.0971 71.3443 44.8605C71.5763 44.6239 71.6926 44.2415 71.6926 43.7136C71.6926 43.1918 71.5795 42.7891 71.3534 42.506C71.2441 42.3672 71.1077 42.2518 70.9529 42.1675C70.7979 42.0831 70.6274 42.031 70.452 42.0146C70.0775 41.9704 69.7759 42.065 69.5462 42.2978C69.3169 42.5309 69.2023 42.9092 69.2023 43.4333Z" fill="white"/>
<path d="M73.4164 46.078V41.5229H74.3318V43.3153L76.1247 43.3123V41.5194H77.0401V46.0742H76.1247V44.0819L74.3318 44.0851V46.0763L73.4164 46.078Z" fill="white"/>
<path d="M79.065 45.9138V42.1324L77.7256 42.2436V41.4718L81.3148 41.1731V41.9432L79.9754 42.0545V45.8377L79.065 45.9138Z" fill="white"/>
<path d="M81.6863 43.5578C81.6863 43.0939 81.7548 42.6954 81.8923 42.3619C81.9958 42.1145 82.1368 41.8846 82.3105 41.6808C82.4734 41.4843 82.6701 41.3189 82.891 41.1921C83.1912 41.0278 83.5199 40.9224 83.8595 40.8817C84.521 40.7918 85.0505 40.9283 85.4478 41.2905C85.8453 41.653 86.0437 42.205 86.0437 42.947C86.0437 43.6819 85.8467 44.2837 85.4524 44.7525C85.0581 45.221 84.5312 45.5 83.8714 45.5893C83.2038 45.6801 82.6728 45.5454 82.2785 45.1855C81.8845 44.8257 81.6869 44.2831 81.6863 43.5578ZM82.6206 43.4023C82.6206 43.9179 82.738 44.293 82.9729 44.5276C83.2078 44.7624 83.506 44.855 83.8673 44.8058C84.0425 44.7835 84.2115 44.7261 84.3645 44.6371C84.5172 44.5484 84.651 44.4295 84.7574 44.2881C84.9893 43.9923 85.1053 43.5803 85.1053 43.0524C85.1053 42.5309 84.9922 42.1569 84.7667 41.9309C84.5411 41.7048 84.2412 41.6167 83.8673 41.6665C83.6904 41.6867 83.5191 41.7426 83.364 41.8304C83.2087 41.9183 83.0726 42.0366 82.9636 42.1783C82.7351 42.4688 82.6206 42.8761 82.6206 43.3999V43.4023Z" fill="white"/>
<path d="M86.8688 45.1282V40.5731L88.3169 40.3289C88.8666 40.2361 89.2244 40.1983 89.3906 40.2162C89.5147 40.227 89.6351 40.2624 89.7455 40.3204C89.8557 40.3784 89.9536 40.4574 90.0334 40.5535C90.2051 40.7532 90.2911 41.0343 90.2911 41.3968C90.2972 41.6483 90.2459 41.8981 90.1416 42.1271C90.0512 42.3218 89.9221 42.4963 89.7624 42.6395C89.6246 42.7643 89.466 42.8641 89.2944 42.9344C88.9893 43.0363 88.6763 43.111 88.3583 43.1575L87.7699 43.2571V44.9744L86.8688 45.1282ZM87.7714 41.1942V42.4884L88.2656 42.405C88.6209 42.3452 88.8587 42.2814 88.9791 42.2135C89.0948 42.1493 89.1921 42.0559 89.2609 41.9423C89.3288 41.8305 89.3646 41.7019 89.3638 41.571C89.3638 41.4056 89.3165 41.2767 89.2207 41.1851C89.123 41.0929 88.9939 41.0422 88.8599 41.0442C88.752 41.0419 88.5355 41.068 88.2103 41.123L87.7714 41.1942Z" fill="white"/>
<path d="M94.5647 43.7993L93.5858 43.9811L93.1965 43.0189L91.4149 43.3495L91.0472 44.452L90.0924 44.6292L91.8288 39.7532L92.78 39.5766L94.5647 43.7993ZM92.9079 42.3051L92.2939 40.7294L91.6915 42.5308L92.9079 42.3051Z" fill="white"/>
</svg>
