<svg width="131" height="27" viewBox="0 0 131 27" fill="none" xmlns="http://www.w3.org/2000/svg">
<path d="M16.3755 13.2042C17.0201 12.7023 17.5358 12.0539 17.8797 11.3129C18.2237 10.5718 18.3859 9.7594 18.3531 8.94308C18.3675 5.15406 15.5784 2.82258 11.2884 2.82258H2.82529V24.2831H11.8721C14.0473 24.2831 15.7971 23.7046 17.1121 22.5675C17.7651 22.0047 18.2821 21.3014 18.6246 20.5103C18.9671 19.7193 19.1261 18.861 19.0897 17.9998C19.1291 17.0269 18.8958 16.0624 18.4162 15.2151C17.9366 14.3678 17.2298 13.6713 16.3755 13.2042ZM8.31222 7.72713H11.1355C11.5698 7.69942 11.9974 7.84536 12.3241 8.13284C12.6509 8.42036 12.8501 8.82585 12.878 9.2602C12.8812 9.31075 12.8819 9.36197 12.878 9.41252C12.896 9.84353 12.7421 10.264 12.4502 10.5817C12.1583 10.8993 11.7522 11.088 11.3212 11.1065C11.2584 11.109 11.1955 11.1079 11.1328 11.1032H8.30959L8.31222 7.72713ZM11.7264 19.3785H8.31222V15.7602H11.7264C12.2058 15.7609 12.6654 15.9519 13.0041 16.2911C13.3429 16.6304 13.5332 17.0903 13.5332 17.5697C13.5332 17.8073 13.4864 18.0426 13.3955 18.2621C13.3045 18.4815 13.1712 18.681 13.0032 18.849C12.8351 19.017 12.6357 19.1502 12.4161 19.241C12.1966 19.3319 11.9613 19.3786 11.7237 19.3785H11.7264Z" fill="#E62533"/>
<path d="M28.7937 8.52755C27.7102 8.49089 26.6308 8.67887 25.6235 9.07968C24.6161 9.48045 23.7026 10.0854 22.9404 10.8564C22.1814 11.6176 21.5846 12.5248 21.1862 13.5232C20.7877 14.5216 20.5958 15.5904 20.6221 16.665C20.588 17.7393 20.7774 18.8089 21.1781 19.8062C21.5789 20.8034 22.1823 21.7066 22.9503 22.4586C24.5122 23.9417 26.5988 24.7277 29.204 24.7277C32.0857 24.7277 34.2957 23.7789 35.7986 21.8801L32.1159 19.3044C31.3625 20.0129 30.3615 20.3981 29.3275 20.3772C27.5475 20.3772 26.4156 19.7647 25.8917 18.504H36.4906C36.6417 17.8827 36.7132 17.2447 36.7033 16.6053C36.7381 15.541 36.5577 14.4808 36.1729 13.488C35.788 12.4951 35.2067 11.5903 34.4638 10.8275C33.73 10.0717 32.8469 9.47688 31.8707 9.08094C30.8946 8.68496 29.8467 8.49654 28.7937 8.52755ZM25.8273 14.9547C26.2574 13.5155 27.2659 12.809 28.8331 12.809C29.4925 12.7538 30.1494 12.9415 30.6801 13.3366C31.2109 13.7317 31.5791 14.3072 31.7154 14.9547H25.8273Z" fill="#E62533"/>
<path d="M48.9234 13.8319V8.95299H45.7347V4.66169L40.6477 6.19409V8.95169H38.3444V13.8306H40.6477V18.399C40.6477 20.8209 41.2601 22.5061 42.4858 23.4546C43.7116 24.4031 45.854 24.6784 48.913 24.2805V19.6846C46.615 19.808 45.724 19.6255 45.724 18.2756V13.8274L48.9234 13.8319Z" fill="#E62533"/>
<path d="M65.2667 13.2042C65.9115 12.7023 66.427 12.0539 66.7709 11.3129C67.1149 10.5718 67.2772 9.7594 67.2441 8.94308C67.2586 5.15142 64.4711 2.82258 60.1699 2.82258H51.7166V24.2831H60.7579C62.9378 24.2831 64.6831 23.7046 66.0032 22.5675C66.6554 22.0041 67.1721 21.3007 67.5142 20.5097C67.8566 19.7188 68.016 18.8608 67.9803 17.9998C68.0197 17.027 67.7864 16.0625 67.3069 15.2151C66.8278 14.3678 66.1209 13.6713 65.2667 13.2042ZM57.2041 7.72713H60.0221C60.2379 7.71331 60.4541 7.74217 60.6587 7.81204C60.8634 7.88187 61.0521 7.99136 61.2144 8.13425C61.3767 8.2771 61.5093 8.45052 61.6044 8.64463C61.6995 8.83874 61.7555 9.04971 61.7693 9.26544C61.7723 9.31406 61.773 9.36327 61.7723 9.41252C61.7815 9.62595 61.7485 9.83904 61.6753 10.0396C61.6018 10.2403 61.4896 10.4245 61.3451 10.5818C61.2006 10.7391 61.0268 10.8664 60.8329 10.9564C60.6394 11.0464 60.4299 11.0974 60.2163 11.1065C60.1506 11.1094 60.0849 11.1083 60.0195 11.1032H57.2041V7.72713ZM60.6052 19.3785H57.2041V15.7602H60.6052C61.0788 15.7692 61.5305 15.9638 61.8621 16.3021C62.1942 16.6404 62.3799 17.0955 62.3799 17.5694C62.3799 18.0433 62.1942 18.4983 61.8621 18.8366C61.5305 19.1749 61.0788 19.3695 60.6052 19.3785Z" fill="#F7E813"/>
<path d="M77.7159 8.52742C76.641 8.51019 75.5735 8.7102 74.5781 9.11547C73.5823 9.52074 72.679 10.1229 71.9216 10.8858C71.1461 11.6229 70.5329 12.5136 70.1209 13.5009C69.709 14.4883 69.5073 15.5506 69.5289 16.6203C69.5077 17.6942 69.709 18.7609 70.1209 19.7531C70.5329 20.7452 71.1461 21.6411 71.9216 22.3842C72.6805 23.1431 73.5849 23.7407 74.5807 24.1409C75.5765 24.5412 76.6429 24.7358 77.7159 24.7131C78.7893 24.7413 79.8572 24.5493 80.8538 24.1487C81.8503 23.7482 82.754 23.1477 83.5095 22.3842C84.285 21.6412 84.8982 20.7453 85.3102 19.7532C85.7224 18.7611 85.9237 17.6943 85.9026 16.6203C85.9237 15.5506 85.7221 14.4882 85.3102 13.5009C84.8979 12.5136 84.2846 11.6229 83.5095 10.8858C82.7547 10.1194 81.8518 9.51505 80.8556 9.10957C79.8594 8.70408 78.7912 8.50599 77.7159 8.52742ZM77.7159 19.8085C77.3177 19.8137 76.9225 19.7405 76.553 19.5929C76.1834 19.4454 75.8465 19.2265 75.5616 18.9487C75.2767 18.6709 75.0491 18.3397 74.8923 17.974C74.7352 17.6082 74.652 17.2152 74.6468 16.8172C74.6468 16.7516 74.6483 16.6859 74.6509 16.6203C74.623 16.2089 74.6784 15.7961 74.8128 15.4064C74.9473 15.0166 75.1586 14.6578 75.4339 14.351C75.7095 14.0443 76.0438 13.7958 76.4167 13.6204C76.79 13.445 77.1944 13.3461 77.6063 13.3296C78.0183 13.3131 78.4294 13.3793 78.8153 13.5244C79.2013 13.6694 79.5541 13.8903 79.8535 14.1741C80.1525 14.4578 80.3917 14.7986 80.557 15.1763C80.7223 15.5541 80.8099 15.9611 80.8155 16.3734C80.8188 16.4555 80.8188 16.5382 80.8155 16.6203C80.8378 17.0163 80.7817 17.4129 80.6506 17.7873C80.5195 18.1618 80.3163 18.5067 80.0518 18.8025C79.7874 19.0982 79.4672 19.339 79.1099 19.5111C78.7526 19.6831 78.3644 19.7831 77.9685 19.8053C77.8871 19.8098 77.7999 19.8112 77.7159 19.8085Z" fill="#F7E813"/>
<path d="M95.5907 8.52751C94.5161 8.51065 93.449 8.71081 92.4536 9.11604C91.4581 9.52131 90.5545 10.1232 89.7971 10.8859C89.0219 11.6231 88.4091 12.5138 87.9975 13.5012C87.586 14.4885 87.3847 15.5509 87.4066 16.6203C87.3851 17.6943 87.5864 18.7611 87.9983 19.7533C88.4102 20.7455 89.0234 21.6414 89.7993 22.3843C90.5582 23.1427 91.4626 23.7399 92.4584 24.1401C93.4538 24.5403 94.5198 24.7352 95.5929 24.7131C96.6663 24.7413 97.7345 24.5492 98.7311 24.1487C99.7276 23.7482 100.631 23.1477 101.387 22.3843C102.163 21.6412 102.776 20.7453 103.187 19.7532C103.599 18.7611 103.801 17.6943 103.78 16.6203C103.801 15.5507 103.599 14.4883 103.187 13.5009C102.776 12.5136 102.162 11.6229 101.387 10.8859C100.632 10.1193 99.7284 9.51473 98.7318 9.10924C97.7353 8.70372 96.6663 8.50578 95.5907 8.52751ZM95.5907 19.8086C95.1929 19.8137 94.7977 19.7404 94.4281 19.5929C94.0585 19.4453 93.7216 19.2264 93.4367 18.9486C93.1519 18.6708 92.9242 18.3396 92.7674 17.9739C92.6103 17.6082 92.5271 17.2152 92.5219 16.8173C92.5219 16.7516 92.5234 16.686 92.526 16.6203C92.4981 16.209 92.5531 15.7962 92.6876 15.4064C92.8224 15.0167 93.0334 14.6579 93.309 14.3511C93.5846 14.0444 93.9185 13.7959 94.2918 13.6205C94.6647 13.4451 95.0692 13.3462 95.4815 13.3297C95.8934 13.3132 96.3045 13.3794 96.6905 13.5245C97.0764 13.6695 97.4292 13.8904 97.7282 14.1741C98.0276 14.4579 98.2668 14.7987 98.4321 15.1764C98.5974 15.5542 98.685 15.9612 98.6902 16.3735C98.6936 16.4555 98.6936 16.5383 98.6902 16.6203C98.7125 17.0164 98.6568 17.4129 98.5257 17.7873C98.3946 18.1617 98.1914 18.5066 97.927 18.8023C97.6629 19.0981 97.3427 19.3389 96.9854 19.511C96.6281 19.6831 96.2403 19.7831 95.8443 19.8053C95.7597 19.8099 95.6753 19.8112 95.5907 19.8086Z" fill="#F7E813"/>
<path d="M123.124 8.52742C122.279 8.48426 121.435 8.64085 120.663 8.98442C119.889 9.32803 119.208 9.84896 118.674 10.505C117.814 9.18529 116.494 8.52742 114.749 8.52742C113.004 8.52742 111.585 9.14065 110.596 10.396V8.95155H105.505V24.2778H110.596V15.9131C110.596 14.3216 111.328 13.3374 112.712 13.3374C113.997 13.3374 114.64 14.0445 114.64 15.483V24.281H119.732V15.9131C119.732 14.3216 120.468 13.3374 121.848 13.3374C123.103 13.3374 123.746 14.0445 123.746 15.483V24.281H128.887V14.8902C128.886 10.9501 126.676 8.52742 123.124 8.52742Z" fill="#F7E813"/>
</svg>
