<svg width="165" height="25" viewBox="0 0 165 25" fill="none" xmlns="http://www.w3.org/2000/svg">
<path d="M31.7441 2.62295H48.864L48.1241 6.92785H36.7411L36.327 9.38231H43.128L42.342 13.816H35.5848L35.1218 16.7471H47.6148L46.828 21.3104H28.5519L31.7441 2.62295Z" fill="white"/>
<path d="M57.5622 7.22946H50.3907L51.177 2.62295H71.2576L70.4297 7.22946H63.254L60.8521 21.3073H55.1571L57.5622 7.22946Z" fill="white"/>
<path d="M71.6722 12.8672C71.4412 6.79667 75.9793 2.31898 82.1757 2.31898C89.3936 2.31898 91.5223 6.79667 91.7533 8.95257H85.9271C85.6488 8.43579 84.631 7.10134 82.3655 7.10134C79.1731 7.10134 77.3686 9.64141 77.5078 12.6119C77.5997 15.0231 79.0339 16.8312 81.5328 16.8312C83.8466 16.8312 84.8644 15.5823 85.1882 15.1087H90.9713C90.6011 16.788 88.2381 21.6097 81.717 21.6097C75.7474 21.6089 71.8606 18.0352 71.6722 12.8672Z" fill="white"/>
<path d="M95.8751 2.62295H101.612L99.7151 13.8592L110.496 2.62295H116.234L113.042 21.3073H107.304L109.201 10.1135L98.4195 21.3073H92.6818L95.8751 2.62295Z" fill="white"/>
<path d="M125.396 7.22946H118.223L119.01 2.62295H139.095L138.309 7.22946H131.136L128.734 21.3073H123.043L125.396 7.22946Z" fill="white"/>
<path d="M141.911 2.62295H147.648L145.706 13.9024L156.489 2.66614H162.227L159.034 21.3521H153.296L155.193 10.1583L144.413 21.3521H138.675L141.911 2.62295Z" fill="white"/>
<path d="M18.6037 9.55414H13.5138L13.928 7.27248H26.0044L26.7912 2.66599H8.93346L7.77384 9.55414H3.93392L3.19344 13.7734H7.0342L5.74122 21.3072H17.5857C23.1352 21.3072 26.8401 19.0703 26.6546 14.5054C26.5626 11.3197 23.6934 9.55414 18.6037 9.55414ZM18.0951 16.6583H12.2648L12.7742 13.7734H18.7892C19.9918 13.7734 20.5932 14.1591 20.5932 14.8926C20.6859 16.0551 19.668 16.6583 18.0951 16.6583Z" fill="white"/>
</svg>
