<svg width="130" height="26" viewBox="0 0 130 26" fill="none" xmlns="http://www.w3.org/2000/svg">
<path d="M32.1088 7.2664C32.1088 7.1517 32.1531 7.04167 32.232 6.96057C32.311 6.87943 32.418 6.83386 32.5296 6.83386H42.0893C44.3586 6.83386 45.3696 7.85629 45.3696 9.67754C45.3696 10.6819 44.8875 11.5624 44.0475 11.8985V11.93C45.4809 12.3136 45.9442 13.6876 45.9442 14.5339C45.9442 16.7703 44.8569 18.2407 41.6072 18.2407H32.5296C32.418 18.2407 32.311 18.1951 32.232 18.114C32.1531 18.0329 32.1088 17.9228 32.1088 17.8081V7.2664ZM36.3996 10.6524C36.3996 10.767 36.4439 10.8768 36.5227 10.9578C36.6015 11.0388 36.7084 11.0843 36.8198 11.0843H39.7113C40.5966 11.0843 40.7986 10.781 40.7986 10.3337C40.7986 9.9186 40.5966 9.61458 39.7113 9.61458H36.8179C36.7064 9.61477 36.5995 9.66042 36.5207 9.74151C36.4419 9.82261 36.3977 9.93254 36.3977 10.0471L36.3996 10.6524ZM36.3996 15.0301C36.3993 15.0868 36.41 15.143 36.4309 15.1955C36.4517 15.248 36.4825 15.2958 36.5213 15.3361C36.5602 15.3764 36.6063 15.4084 36.6572 15.4303C36.7081 15.4523 36.7627 15.4637 36.8179 15.464H40.1444C41.0142 15.464 41.2796 15.0803 41.2796 14.5694C41.2796 14.0739 41.0157 13.6742 40.1444 13.6742H36.8179C36.7064 13.6744 36.5995 13.72 36.5207 13.8011C36.4419 13.8822 36.3977 13.9922 36.3977 14.1067L36.3996 15.0301Z" fill="white"/>
<path d="M47.8239 6.8346H58.7823C58.8939 6.8346 59.0012 6.88017 59.0801 6.96127C59.1589 7.04241 59.2032 7.15241 59.2032 7.26714V9.18343C59.2032 9.24021 59.1925 9.29642 59.1711 9.34888C59.1501 9.40131 59.1191 9.44896 59.0801 9.48907C59.041 9.52919 58.9946 9.56097 58.9433 9.58263C58.8925 9.6043 58.8376 9.6154 58.7823 9.61532H52.2073C52.0956 9.61551 51.9888 9.66116 51.9102 9.74225C51.8314 9.82335 51.7871 9.93328 51.7871 10.0479V10.7174C51.7871 10.832 51.8314 10.942 51.9102 11.023C51.9888 11.1041 52.0956 11.1498 52.2073 11.15H58.2526C58.3643 11.15 58.4712 11.1955 58.5501 11.2764C58.6289 11.3574 58.6735 11.4673 58.6735 11.5818V13.4982C58.6735 13.555 58.6628 13.6112 58.6415 13.6637C58.6205 13.7162 58.5895 13.7638 58.5504 13.804C58.5114 13.8442 58.4649 13.876 58.4137 13.8978C58.3628 13.9195 58.3079 13.9307 58.2526 13.9307H52.2073C52.096 13.9307 51.9891 13.9762 51.9102 14.0572C51.8314 14.1382 51.7871 14.248 51.7871 14.3626V15.0321C51.7871 15.1468 51.8314 15.2567 51.9102 15.3378C51.9888 15.4189 52.0956 15.4645 52.2073 15.4647H58.7823C58.8376 15.4646 58.8925 15.4757 58.9433 15.4974C58.9946 15.519 59.041 15.5509 59.0801 15.591C59.1191 15.6311 59.1501 15.6787 59.1711 15.7312C59.1925 15.7836 59.2032 15.8398 59.2032 15.8966V17.8135C59.2032 17.9282 59.1586 18.038 59.0797 18.119C59.0008 18.1999 58.8939 18.2454 58.7823 18.2454H47.8239C47.7126 18.2454 47.6057 18.1999 47.5268 18.1189C47.448 18.0379 47.4037 17.9281 47.4037 17.8135V7.26646C47.4041 7.15203 47.4483 7.04241 47.5272 6.96146C47.6061 6.88055 47.7126 6.83494 47.8239 6.8346Z" fill="white"/>
<path d="M87.2514 6.8346H98.2102C98.3215 6.8346 98.4287 6.88017 98.5076 6.96127C98.5865 7.04241 98.6307 7.15241 98.6307 7.26714V9.18343C98.6307 9.24021 98.62 9.29642 98.5986 9.34888C98.5776 9.40131 98.5467 9.44896 98.5076 9.48907C98.4685 9.52919 98.4221 9.56097 98.3709 9.58263C98.32 9.6043 98.2651 9.6154 98.2102 9.61532H91.6356C91.5239 9.61532 91.417 9.66089 91.3381 9.74199C91.2589 9.82312 91.2147 9.93313 91.2147 10.0479V10.7174C91.215 10.832 91.2593 10.9419 91.3381 11.0229C91.417 11.1038 91.5239 11.1493 91.6356 11.1493H97.6824C97.7937 11.1495 97.9006 11.1951 97.9794 11.2762C98.0583 11.3573 98.1025 11.4673 98.1025 11.5818V13.4975C98.1022 13.612 98.0579 13.7217 97.9791 13.8027C97.9006 13.8836 97.7937 13.9292 97.6824 13.9294H91.6356C91.5239 13.9294 91.417 13.9749 91.3381 14.056C91.2589 14.1372 91.2147 14.2472 91.2147 14.3619V15.0315C91.2147 15.1462 91.2589 15.2562 91.3381 15.3373C91.417 15.4185 91.5239 15.464 91.6356 15.464H98.2102C98.2651 15.4639 98.32 15.4751 98.3709 15.4967C98.4221 15.5184 98.4685 15.5502 98.5076 15.5903C98.5467 15.6304 98.5776 15.678 98.5986 15.7305C98.62 15.7829 98.6307 15.8391 98.6307 15.8959V17.8122C98.6307 17.9269 98.5865 18.037 98.5076 18.118C98.4287 18.1992 98.3215 18.2448 98.2102 18.2448H87.2514C87.1401 18.2446 87.0332 18.1989 86.9544 18.1178C86.8755 18.0367 86.8313 17.9268 86.8313 17.8122V7.26646C86.8313 7.15191 86.8755 7.04206 86.9544 6.96108C87.0332 6.88009 87.1401 6.8346 87.2514 6.8346Z" fill="white"/>
<path d="M100.259 7.26714C100.259 7.21036 100.27 7.15415 100.292 7.10165C100.313 7.04919 100.344 7.0015 100.383 6.96131C100.422 6.92116 100.468 6.88926 100.519 6.86752C100.57 6.84578 100.625 6.8346 100.68 6.8346H109.494C110.753 6.8346 111.513 6.94642 112.12 7.24972C112.944 7.66487 113.628 8.76763 113.628 10.0137C113.628 11.085 113.193 12.234 111.918 12.6177V12.6518C112.57 12.844 113.1 13.4185 113.178 14.4095L113.364 16.9016C113.389 17.1534 113.451 17.3998 113.549 17.6321C113.578 17.6979 113.59 17.7701 113.585 17.8421C113.58 17.914 113.557 17.9835 113.519 18.0442C113.481 18.1049 113.429 18.1549 113.367 18.1897C113.306 18.2245 113.237 18.2429 113.167 18.2434H109.431C109.333 18.2437 109.238 18.2087 109.162 18.1445C109.087 18.0802 109.036 17.9909 109.018 17.8919C108.958 17.5484 108.941 17.0261 108.888 16.084C108.841 15.2377 108.562 14.7262 107.753 14.7262H105.064C104.952 14.7262 104.846 14.7716 104.767 14.8526C104.688 14.9337 104.644 15.0435 104.644 15.158V17.8075C104.644 17.8643 104.633 17.9205 104.612 17.973C104.591 18.0255 104.56 18.0732 104.521 18.1134C104.482 18.1535 104.435 18.1854 104.385 18.2071C104.333 18.2289 104.279 18.2401 104.223 18.2401H100.679C100.568 18.2401 100.46 18.1945 100.381 18.1134C100.303 18.0323 100.258 17.9223 100.258 17.8075V7.26714H100.259ZM104.644 11.4185C104.644 11.4752 104.655 11.5315 104.676 11.584C104.697 11.6364 104.728 11.6841 104.767 11.7243C104.806 11.7645 104.853 11.7963 104.903 11.8181C104.955 11.8398 105.009 11.851 105.065 11.851H107.753C108.608 11.851 108.965 11.4988 108.965 10.7797C108.965 9.91729 108.42 9.70839 107.69 9.70839H105.063C104.952 9.70858 104.845 9.75422 104.766 9.83532C104.687 9.91642 104.643 10.0263 104.643 10.1409V11.4131L104.644 11.4185Z" fill="white"/>
<path d="M118.583 14.8219L114.127 7.41176C113.937 7.09506 114.077 6.8346 114.44 6.8346H118.453C118.55 6.84006 118.645 6.87085 118.728 6.92415C118.81 6.97744 118.878 7.05146 118.925 7.13926L120.613 10.708C120.769 11.0388 121.024 11.0388 121.18 10.708L122.867 7.13926C122.915 7.05153 122.983 6.97752 123.065 6.92422C123.148 6.87093 123.242 6.84009 123.339 6.8346H127.357C127.719 6.8346 127.86 7.09506 127.669 7.41176L123.215 14.8219C123.139 14.9609 123.096 15.1165 123.09 15.2759V17.8075C123.09 17.9221 123.045 18.0319 122.967 18.1129C122.888 18.194 122.781 18.2397 122.669 18.2401H119.126C119.014 18.2397 118.908 18.194 118.829 18.1129C118.75 18.0319 118.706 17.9221 118.706 17.8075V15.2759C118.7 15.1168 118.658 14.9613 118.583 14.8219Z" fill="white"/>
<path d="M15.1978 12.2334C15.2764 12.3144 15.3205 12.4242 15.3205 12.5387C15.3205 12.6531 15.2764 12.7629 15.1978 12.844L5.58795 22.7195C5.29217 23.0235 5.0498 22.9204 5.0498 22.4898V18.6733C5.0498 18.6165 5.03893 18.5603 5.01774 18.5079C4.99658 18.4554 4.96558 18.4078 4.92648 18.3677C4.88741 18.3276 4.84101 18.2957 4.78996 18.2741C4.73887 18.2524 4.68418 18.2413 4.62893 18.2414H3.0855C3.03023 18.2415 2.9755 18.2304 2.92443 18.2087C2.87337 18.1869 2.82698 18.1551 2.78793 18.1149C2.74888 18.0747 2.71795 18.027 2.69689 17.9745C2.67584 17.9219 2.6651 17.8657 2.66527 17.8089V7.26715C2.66519 7.21037 2.67599 7.15412 2.69707 7.10166C2.71815 7.04919 2.74909 7.0015 2.78812 6.96131C2.82715 6.92116 2.87351 6.88927 2.92453 6.86753C2.97556 6.84578 3.03026 6.83461 3.0855 6.83461H4.62893C4.68418 6.83469 4.73887 6.82359 4.78996 6.80192C4.84101 6.78025 4.88741 6.74844 4.92648 6.70832C4.96558 6.66821 4.99658 6.62059 5.01774 6.56813C5.03893 6.51571 5.0498 6.4595 5.0498 6.40272V2.58616C5.0498 2.15563 5.29217 2.05051 5.58795 2.35717L15.1978 12.2334ZM27.884 6.83461H26.3406C26.2853 6.83469 26.2306 6.82359 26.1796 6.80192C26.1285 6.78025 26.0821 6.74844 26.043 6.70832C26.0039 6.66821 25.9729 6.62059 25.9517 6.56813C25.9306 6.51571 25.9197 6.4595 25.9197 6.40272V2.58616C25.9197 2.15563 25.6773 2.05051 25.3815 2.35717L15.7743 12.2334C15.6957 12.3144 15.6516 12.4242 15.6516 12.5387C15.6516 12.6531 15.6957 12.7629 15.7743 12.844L25.3841 22.7202C25.6799 23.0242 25.9223 22.921 25.9223 22.4912V18.6746C25.9222 18.6179 25.933 18.5617 25.9541 18.5092C25.9752 18.4568 26.0061 18.4092 26.0452 18.369C26.0842 18.3289 26.1306 18.2971 26.1816 18.2754C26.2326 18.2538 26.2873 18.2427 26.3425 18.2428H27.8859C27.9413 18.2428 27.996 18.2317 28.0471 18.21C28.0982 18.1883 28.1446 18.1564 28.1837 18.1162C28.2228 18.0761 28.2538 18.0284 28.275 17.9758C28.2961 17.9233 28.3069 17.867 28.3068 17.8102V7.26715C28.3065 7.15219 28.2618 7.04207 28.1825 6.96097C28.1032 6.87987 27.9958 6.83442 27.884 6.83461Z" fill="white"/>
<path d="M72.1031 6.83386H60.7979C60.7426 6.83386 60.6881 6.84507 60.6372 6.86682C60.586 6.88856 60.5395 6.92042 60.5008 6.9606C60.4618 7.00076 60.4308 7.04845 60.4094 7.10095C60.3884 7.15341 60.3777 7.20966 60.3777 7.2664V9.27511C60.3777 9.33193 60.3884 9.38818 60.4094 9.44072C60.4305 9.49322 60.4614 9.54095 60.5005 9.58114C60.5395 9.62132 60.586 9.65318 60.6369 9.67492C60.6881 9.69663 60.7426 9.70776 60.7979 9.70765H63.8394C63.8947 9.70757 63.9492 9.71867 64.0001 9.74038C64.0513 9.76204 64.0977 9.79382 64.1368 9.83398C64.1755 9.87409 64.2065 9.92174 64.2278 9.97417C64.2489 10.0266 64.2595 10.0828 64.2595 10.1395V17.8075C64.2592 17.8643 64.2702 17.9206 64.2912 17.9732C64.3122 18.0258 64.3432 18.0735 64.3823 18.1137C64.4213 18.1539 64.4681 18.1858 64.519 18.2075C64.5702 18.2291 64.6252 18.2402 64.6804 18.24H68.2206C68.2759 18.2401 68.3308 18.229 68.382 18.2073C68.4329 18.1856 68.4793 18.1537 68.5184 18.1135C68.5575 18.0733 68.5888 18.0256 68.6098 17.9731C68.6308 17.9206 68.6419 17.8643 68.6415 17.8075V10.1422C68.6415 10.0855 68.6522 10.0293 68.6735 9.97685C68.6946 9.92439 68.7255 9.87678 68.7646 9.83663C68.8037 9.79651 68.8497 9.7647 68.901 9.74303C68.9518 9.72136 69.0067 9.71026 69.0617 9.71034H72.1038C72.1591 9.71034 72.214 9.69913 72.2649 9.67738C72.3161 9.6556 72.3626 9.62367 72.4016 9.58345C72.4411 9.54322 72.472 9.49549 72.4931 9.44292C72.5144 9.39034 72.5251 9.33401 72.5251 9.27712V7.26841C72.5247 7.15341 72.4802 7.04318 72.4013 6.96178C72.322 6.88038 72.2152 6.83439 72.1031 6.83386Z" fill="white"/>
<path d="M85.311 6.83389H74.0069C73.9516 6.83381 73.8967 6.84495 73.8454 6.86665C73.7946 6.88836 73.7481 6.92021 73.7091 6.9604C73.67 7.00055 73.6387 7.04828 73.6177 7.10082C73.5967 7.15332 73.5856 7.2096 73.586 7.26642V9.27514C73.5856 9.33199 73.5963 9.38832 73.6177 9.44089C73.6387 9.49343 73.6696 9.5412 73.7087 9.58139C73.7478 9.62161 73.7942 9.65347 73.8454 9.67514C73.8967 9.6968 73.9512 9.70786 74.0069 9.70767H77.0472C77.1025 9.7076 77.1574 9.7187 77.2083 9.74036C77.2595 9.76203 77.306 9.79385 77.345 9.83396C77.3841 9.87408 77.4151 9.92169 77.4361 9.97415C77.4574 10.0266 77.4681 10.0828 77.4681 10.1396V17.8075C77.4681 17.8643 77.4788 17.9206 77.4998 17.9731C77.5208 18.0256 77.5518 18.0733 77.5909 18.1135C77.6299 18.1537 77.6764 18.1856 77.7272 18.2073C77.7785 18.229 77.833 18.2401 77.8883 18.24H81.4306C81.4859 18.2401 81.5408 18.229 81.5917 18.2073C81.6429 18.1856 81.6894 18.1537 81.7284 18.1135C81.7675 18.0734 81.7985 18.0256 81.8199 17.9731C81.8409 17.9206 81.8515 17.8643 81.8515 17.8075V10.1423C81.8515 10.0855 81.8622 10.0293 81.8832 9.97688C81.9046 9.92442 81.9356 9.8768 81.9743 9.83665C82.0133 9.79654 82.0598 9.76472 82.111 9.74305C82.1619 9.72139 82.2164 9.71029 82.2717 9.71036H85.3124C85.3677 9.71036 85.4226 9.69915 85.4739 9.67741C85.5247 9.65563 85.5712 9.6237 85.6106 9.58347C85.6497 9.54324 85.6806 9.49551 85.702 9.44294C85.723 9.39036 85.7341 9.33404 85.7341 9.27714V7.26843C85.7337 7.15324 85.6891 7.04283 85.6099 6.96135C85.5306 6.87991 85.423 6.83407 85.311 6.83389Z" fill="white"/>
</svg>
