<svg width="133" height="29" viewBox="0 0 133 29" fill="none" xmlns="http://www.w3.org/2000/svg">
<path d="M20.1837 12.2533H11.717L12.137 10.3162L12.349 9.67006C12.453 9.45381 12.5959 9.25927 12.7704 9.09648L13.4757 8.66593C13.8117 8.52555 14.1711 8.45237 14.5344 8.4503H22.5111L23.0057 8.30657C23.1518 8.14651 23.2497 7.94722 23.2878 7.73231L24.1351 3.99982C24.2771 3.64047 24.2771 3.42621 24.2064 3.35367L23.7117 3.20993H13.8997C12.8661 3.18297 11.8367 3.35362 10.865 3.71301C10.035 4.01972 9.2691 4.48224 8.60702 5.07649C8.00299 5.65417 7.50162 6.33357 7.125 7.08478C6.74835 7.81232 6.46342 8.58523 6.277 9.3853L2.61032 25.4658C2.46898 25.8964 2.67698 26.112 3.17498 26.112H7.76365L8.46903 25.9689C8.58119 25.8226 8.65424 25.6493 8.68102 25.4658L10.5803 17.352H19.0471C19.4724 17.352 19.6844 17.0625 19.8257 16.5601L20.6071 13.1144C20.7491 12.6839 20.7491 12.4689 20.6777 12.3971C20.5382 12.2846 20.3606 12.2329 20.1837 12.2533Z" fill="white"/>
<path d="M44.1133 9.74324C44.0707 8.43004 43.7068 7.14833 43.0547 6.01418C42.4124 4.96878 41.4778 4.14256 40.3705 3.64179C38.9928 3.02644 37.4976 2.73179 35.9938 2.77935C34.4204 2.79555 32.8641 3.11225 31.4058 3.71297C30.0218 4.25332 28.7519 5.05739 27.6644 6.08195C26.5325 7.16402 25.5792 8.42429 24.8411 9.81443C24.0429 11.3551 23.4492 12.9967 23.0757 14.6962C22.6682 16.314 22.4785 17.9807 22.5117 19.6504C22.5353 20.9571 22.8746 22.2377 23.4997 23.3795C24.1128 24.404 25.0256 25.2077 26.1104 25.678C27.4972 26.2568 28.9897 26.5272 30.4878 26.4713C32.1683 26.5113 33.8422 26.2428 35.4291 25.6787C36.8205 25.1539 38.0931 24.3483 39.1705 23.3104C40.2706 22.2335 41.1784 20.9706 41.8539 19.5779C42.607 17.9998 43.1757 16.3372 43.548 14.6243H43.6185C44.0058 13.0286 44.1725 11.3858 44.1133 9.74324ZM37.5478 12.1841C37.4824 13.0046 37.3645 13.82 37.1952 14.625L37.0478 14.6989C36.8677 15.5044 36.632 16.296 36.3425 17.0679C36.0752 17.7819 35.7194 18.4584 35.2838 19.0809C34.9066 19.6262 34.4267 20.0899 33.8718 20.4451C33.2957 20.7874 32.6375 20.9602 31.9704 20.9441C31.3524 20.9916 30.7353 20.8411 30.2058 20.5135C29.7664 20.1993 29.4434 19.7443 29.2884 19.2212C29.1131 18.5424 29.0651 17.836 29.1471 17.139C29.2183 16.2196 29.3599 15.3071 29.5704 14.41C29.7554 13.597 30.0162 12.8038 30.3491 12.041C30.6438 11.3504 31.0218 10.6997 31.4744 10.1039C31.9065 9.57643 32.4337 9.13779 33.0278 8.81165C33.5595 8.48255 34.17 8.30872 34.7925 8.30926C35.4201 8.26661 36.0431 8.44393 36.5578 8.81165C36.9799 9.15942 37.2776 9.6388 37.4051 10.1758C37.5633 10.8321 37.6116 11.5108 37.5478 12.1834V12.1841Z" fill="white"/>
<path d="M87.7328 4.43576C87.1701 3.91859 86.492 3.549 85.7569 3.35907C84.9053 3.12349 84.027 3.00268 83.1448 2.99972H74.7481C74.42 2.96599 74.0889 2.99936 73.7736 3.09787C73.4587 3.19638 73.166 3.35804 72.9133 3.57332C72.512 4.04245 72.2428 4.61309 72.1342 5.22499L67.8287 23.8853C67.6454 24.4201 67.6454 25.0022 67.8287 25.537C68.0176 25.8719 68.5588 26.0394 69.4527 26.0394H77.7807C78.8824 26.0472 79.978 25.8776 81.0276 25.537C82.0372 25.2112 82.9902 24.7257 83.8516 24.0982C84.6987 23.4886 85.4379 22.7371 86.0375 21.8757C86.6383 21.0102 87.0698 20.035 87.3081 19.0036C87.4367 18.487 87.508 17.9573 87.5201 17.4245C87.5276 16.9139 87.456 16.4053 87.3081 15.9173C87.1588 15.422 86.9197 14.9595 86.6029 14.5538C86.2578 14.127 85.8237 13.7836 85.3323 13.5483V13.4039C86.1514 12.9288 86.8706 12.2946 87.4495 11.5373C88.0567 10.8118 88.4901 9.95315 88.716 9.02865C88.9611 8.13894 88.9857 7.20133 88.7873 6.29961C88.6194 5.58814 88.2532 4.941 87.7328 4.43576ZM81.2406 18.6497C81.1743 18.899 81.0796 19.1397 80.9589 19.367C80.8341 19.6323 80.667 19.8747 80.4641 20.0844C80.2371 20.299 79.9731 20.4695 79.6853 20.5875C79.3282 20.7346 78.9454 20.8078 78.5599 20.8031H74.7481L75.7366 16.4956H79.5454C79.8199 16.4609 80.099 16.4952 80.3577 16.5955C80.6161 16.6959 80.8465 16.8593 81.0287 17.0713C81.1758 17.3018 81.2712 17.5624 81.3078 17.8347C81.3444 18.1069 81.3217 18.3841 81.2406 18.6463V18.6497ZM82.3 9.96293C82.2631 10.2292 82.1677 10.4837 82.021 10.7075C81.8742 10.9312 81.68 11.1187 81.4526 11.2559C81.0641 11.4785 80.6278 11.6016 80.182 11.6146H76.8639L77.5707 8.45642H81.0996C81.2908 8.43532 81.4847 8.45649 81.6672 8.51851C81.8501 8.58054 82.0176 8.68191 82.1582 8.81574C82.2725 8.97975 82.3453 9.16996 82.3702 9.36952C82.3951 9.56909 82.3709 9.77176 82.3 9.95956V9.96293Z" fill="white"/>
<path d="M109.336 3.20852H99.8078C98.7741 3.18127 97.7445 3.35169 96.7722 3.71093C95.9425 4.01795 95.1765 4.48043 94.5143 5.0744C93.9104 5.65281 93.4088 6.33291 93.0325 7.08472C92.6538 7.81192 92.3672 8.58487 92.1797 9.38525L89.8501 19.8653C89.6714 20.5935 89.5775 21.3407 89.571 22.0913C89.5665 22.7928 89.7362 23.4841 90.0651 24.1009C90.4275 24.7287 90.9687 25.2295 91.6178 25.537C92.5723 25.9632 93.6114 26.1596 94.653 26.1106H104.608L104.602 26.255C105.027 26.255 105.24 25.9655 105.38 25.463L106.228 21.7299C106.37 21.3712 106.37 21.1563 106.299 21.0837L105.804 20.9407H96.8378L96.2729 20.7251C96.1099 20.5777 96.0089 20.372 95.9911 20.1508C95.9497 19.8141 95.9738 19.4725 96.0617 19.1453L96.6285 16.7045H105.378C105.804 16.7045 106.016 16.4895 106.157 15.9871L106.936 12.5414C107.03 12.3151 107.055 12.065 107.007 11.8241C106.867 11.7116 106.69 11.6599 106.512 11.6803H97.8305L98.1122 10.3168L98.3249 9.6707C98.4279 9.45322 98.5716 9.25814 98.7477 9.09643L99.4537 8.66588C99.7897 8.5255 100.149 8.45231 100.512 8.45024H108.136L108.63 8.30652C108.776 8.14661 108.874 7.94759 108.912 7.73291L109.76 3.99976C109.902 3.64109 109.902 3.42616 109.83 3.35361L109.336 3.20852Z" fill="white"/>
<path d="M130.512 3.27905L130.018 3.13531H113L112.435 3.27905C112.276 3.45875 112.178 3.68494 112.153 3.9252L111.306 7.58648C111.164 8.09163 111.376 8.37842 111.8 8.37842H117.167L113.214 25.4644C113.071 25.9431 113.259 26.1824 113.778 26.1824H118.366C118.475 26.2238 118.592 26.2364 118.707 26.2189C118.821 26.2015 118.93 26.1546 119.021 26.0828C119.113 26.0109 119.186 25.9164 119.232 25.8082C119.278 25.7001 119.296 25.5817 119.284 25.4644L123.24 8.37842H128.745H128.817C129.03 8.37946 129.236 8.29841 129.393 8.15154C129.551 8.00468 129.647 7.80285 129.664 7.58648L130.512 3.9252C130.582 3.56585 130.582 3.35047 130.512 3.27905Z" fill="white"/>
<path d="M68.5349 3.06552H63.9477C63.7029 3.02824 63.4532 3.07909 63.2417 3.20926C63.121 3.37751 63.0474 3.57606 63.0297 3.78354L60.2769 15.6285H60.065L58.5123 11.6085L55.5483 4.57683L55.0543 3.78421L54.5594 3.35096L53.9243 3.13535H51.382C50.6866 3.07223 49.9904 3.24921 49.4054 3.63776C48.8706 4.21181 48.5252 4.94102 48.4169 5.72402L43.8294 25.4645C43.6883 25.9669 43.8995 26.1825 44.3936 26.1825H48.9815C49.0611 26.2079 49.1444 26.2189 49.2274 26.215C49.3202 26.2106 49.4107 26.1877 49.4948 26.1475C49.5785 26.1074 49.6536 26.0509 49.7162 25.9812C49.7784 25.9115 49.8267 25.83 49.858 25.7413C49.8893 25.6527 49.9032 25.5586 49.8987 25.4645L52.6534 13.6907H52.8627L54.487 17.7825L57.4536 24.6719C57.5589 24.954 57.7014 25.2203 57.8768 25.4638L58.3709 25.8943L59.0063 26.1099H61.477C61.8489 26.146 62.2237 26.1007 62.5771 25.977C62.9301 25.8532 63.2533 25.654 63.5241 25.3926C63.976 24.8563 64.2909 24.2153 64.4417 23.526L69.0994 3.78354C69.2409 3.28316 69.0297 3.06552 68.5349 3.06552Z" fill="white"/>
</svg>
