<svg width="117" height="27" viewBox="0 0 117 27" fill="none" xmlns="http://www.w3.org/2000/svg">
<path fill-rule="evenodd" clip-rule="evenodd" d="M56.7448 24.2105H49.6502L50.8805 17.1739H57.9751L56.7448 24.2105ZM14.2367 10.5384L13.6175 14.2987H17.7261L17.2328 17.113C17.1555 17.5565 16.8561 19.0881 16.4513 19.4355C16.0857 19.693 15.645 19.8162 15.2016 19.7846H13.0715C11.8786 19.7846 10.8341 19.5005 10.2663 18.2668C9.70978 16.9698 10.1369 14.3417 10.3466 13.1402C10.5628 11.9064 10.9776 9.70694 11.9454 8.4738C12.4405 7.86368 13.0694 7.38075 13.7815 7.06399C14.4975 6.74544 15.2761 6.60021 16.0564 6.63958H24.1178L26.9493 2.07109H13.6579C13.0632 2.07109 10.1428 2.10213 7.879 3.58836C4.66437 5.67741 3.66959 9.7559 3.0562 13.2673C2.54826 16.1771 2.06727 20.1947 4.10313 22.3399C5.29183 23.6053 7.50462 24.2069 9.29092 24.2069H19.6606C20.5442 24.2146 21.4095 23.9499 22.1429 23.4477C22.9556 22.8271 23.4982 21.9076 23.655 20.8853L24.8062 14.2975L24.8777 13.8827L25.2983 11.4797L25.4623 10.5366L14.2367 10.5384ZM38.1543 10.5384L37.5359 14.2987H41.6439L41.1521 17.1124C41.0725 17.5571 40.7756 19.0887 40.3696 19.4361C40.004 19.6937 39.5632 19.8167 39.1198 19.7846H36.989C35.7962 19.7846 34.7512 19.5011 34.1835 18.2674C33.6263 16.9704 34.0545 14.3423 34.2643 13.1408C34.4794 11.907 34.8947 9.70755 35.8625 8.47441C36.358 7.86476 36.987 7.3819 37.6986 7.06456C38.4145 6.74564 39.193 6.59998 39.9735 6.63901H48.0355L50.8676 2.0705H37.5763C36.9811 2.0705 34.0612 2.10153 31.7967 3.58776C28.5815 5.67684 27.5873 9.7553 26.9739 13.2667C26.4659 16.1771 25.9832 20.1953 28.0202 22.3434C29.2089 23.6088 31.4217 24.2105 33.2086 24.2105H43.5781C44.4617 24.2178 45.3271 23.9532 46.0605 23.4512C46.8742 22.8312 47.4181 21.9116 47.5755 20.8889L48.7275 14.3011L48.7988 13.8833L49.2161 11.4827L49.3801 10.5396H38.1543V10.5384Z" fill="#EF7C1B"/>
<path fill-rule="evenodd" clip-rule="evenodd" d="M77.0042 24.2096C76.0957 24.2096 75.1982 24.1457 74.474 23.4504C73.6223 22.5986 73.7757 21.711 73.9583 20.6677L76.6094 5.48552C76.7258 4.48995 77.2219 3.58102 77.9908 2.95536C78.8042 2.34255 79.7981 2.03015 80.809 2.06959H95.0418L92.2108 6.63333H84.93C84.5236 6.61766 84.1223 6.72774 83.7786 6.94908C83.4697 7.22211 83.2784 7.60806 83.2466 8.02345L82.8062 10.5363H91.5645L90.9089 14.2966H82.1506L81.3853 18.6765C81.3426 18.817 81.3356 18.9662 81.3654 19.1101C81.3953 19.254 81.4609 19.3876 81.5557 19.4984C81.9375 19.7568 82.4008 19.8583 82.8529 19.7825H93.0205L92.2472 24.2084H77.0042V24.2096ZM97.8451 24.2096L100.919 6.60885H95.6295L96.4212 2.06541H115.098L112.271 6.60885H107.998L104.925 24.2072H97.8451V24.2096ZM72.0175 11.7151C72.9786 10.8166 73.5832 9.59024 73.7164 8.26816C73.9703 6.81297 74.1675 4.78838 73.1659 3.52299C72.1779 2.23553 70.3471 2.07795 68.8093 2.0684H53.5238L52.9027 5.63115V5.6431L51.3907 14.2978H64.1623C64.4507 14.2538 64.745 14.2893 65.0154 14.4005C65.2839 14.5112 65.5179 14.6939 65.6925 14.9293C65.8291 15.2058 65.8721 15.5207 65.8145 15.8246L65.43 18.0456C65.3346 18.5274 65.1162 18.975 64.7967 19.3432C64.6439 19.5014 64.1868 19.7861 62.8393 19.7861H60.7725L58.0458 24.2066H65.2027C67.0815 24.2066 68.7115 24.2066 70.3905 22.6547C71.9916 21.1989 72.271 19.4274 72.5189 18.0044C72.7569 16.6441 72.9737 15.2218 72.0129 14.0859C71.3831 13.4091 70.5244 13.0017 69.6107 12.9465L69.6329 12.8206C70.5337 12.7584 71.3815 12.3649 72.0185 11.7134L72.0175 11.7151ZM66.7488 7.996C66.7461 8.01356 66.7422 8.03092 66.7372 8.04793L66.5884 8.88355L66.5685 8.99697C66.5648 9.01247 66.5619 9.02739 66.5572 9.0435C66.4913 9.36171 66.366 9.66415 66.1887 9.93466C65.9573 10.1703 65.6743 10.3472 65.3634 10.4509C65.0505 10.5555 64.7181 10.5846 64.3927 10.5357H59.1286L59.2926 9.61175L59.4467 8.73373C59.4613 8.64718 59.4749 8.56361 59.4912 8.47947L59.6085 7.80856C59.6115 7.62765 59.6529 7.44949 59.7298 7.2863C59.8073 7.12227 59.9184 6.977 60.0556 6.86014C60.3307 6.65747 60.6704 6.56698 61.0081 6.60645H65.0505C65.5192 6.60645 66.2099 6.60645 66.5738 7.04994C66.6636 7.18828 66.7252 7.34347 66.7554 7.50642C66.7856 7.66938 66.7836 7.83683 66.7494 7.99897L66.7488 7.996Z" fill="white"/>
</svg>
