<svg width="131" height="29" viewBox="0 0 131 29" fill="none" xmlns="http://www.w3.org/2000/svg">
<g opacity="0.5">
<path opacity="0.5" d="M120.918 12.6403C120.851 12.8814 120.734 13.1063 120.573 13.3004C120.425 13.4751 120.247 13.6235 120.048 13.7388C119.839 13.8563 119.613 13.9406 119.378 13.9882C119.132 14.0436 118.881 14.0714 118.628 14.0712C118.441 14.0696 118.254 14.0496 118.071 14.0114C117.901 13.978 117.738 13.9154 117.591 13.8263C117.459 13.7436 117.347 13.634 117.262 13.5048C117.182 13.364 117.145 13.2037 117.154 13.0427C117.159 12.9319 117.177 12.822 117.206 12.7148L118.644 7.86295H116.776L115.386 12.6088C115.356 12.7102 115.335 12.8135 115.32 12.918C115.306 13.015 115.297 13.1108 115.292 13.2092C115.271 13.5565 115.356 13.9022 115.537 14.2016C115.719 14.4816 115.962 14.7184 116.249 14.8946C116.568 15.0863 116.917 15.2237 117.282 15.3008C117.682 15.387 118.09 15.4302 118.499 15.4294C118.991 15.4327 119.482 15.38 119.961 15.2726C120.391 15.1778 120.804 15.0205 121.187 14.8059C121.543 14.606 121.859 14.3447 122.121 14.0345C122.376 13.7226 122.566 13.365 122.682 12.9816L124.186 7.86168H122.304L120.918 12.6403Z" fill="#749ED3"/>
<path opacity="0.5" d="M114.198 8.47433C113.984 8.27844 113.732 8.12746 113.457 8.03081C113.115 7.91372 112.754 7.85753 112.392 7.86495H108.331L106.133 15.3671H108.001L108.029 15.2701C108.165 14.7995 108.302 14.3329 108.435 13.8623C108.557 13.4233 108.684 12.9894 108.821 12.56H110.722C110.826 12.9894 110.929 13.4233 111.033 13.8572C111.146 14.3284 111.264 14.795 111.382 15.2656L111.411 15.3671H113.391L112.537 12.3016C112.866 12.1952 113.18 12.0479 113.471 11.8632C113.742 11.6956 113.986 11.4884 114.193 11.2487C114.369 11.0426 114.508 10.8084 114.603 10.5564C114.688 10.3311 114.736 10.0942 114.745 9.85444C114.758 9.60441 114.718 9.35448 114.627 9.12037C114.536 8.87572 114.389 8.6547 114.198 8.47433ZM112.753 9.89172V9.8975C112.734 9.9427 112.707 9.98459 112.674 10.0216C112.595 10.1091 112.502 10.1844 112.4 10.2453L112.374 10.2626C112.223 10.3538 112.061 10.4268 111.892 10.4799C111.709 10.5422 111.536 10.6306 111.379 10.7422C111.169 10.6687 110.947 10.6313 110.723 10.6316H109.571L109.816 9.79593H112.393C112.518 9.79008 112.644 9.80444 112.764 9.83837H112.771C112.766 9.85543 112.761 9.87219 112.754 9.88852L112.753 9.89172Z" fill="#749ED3"/>
</g>
<path d="M2.84197 23.6052L8.33556 3.41086C8.36542 3.30071 8.4315 3.20325 8.52358 3.13353C8.61569 3.06383 8.72865 3.02575 8.84505 3.02518H14.6978C14.779 3.02498 14.8592 3.04322 14.932 3.07846C15.0048 3.11371 15.0682 3.165 15.1174 3.22831C15.1687 3.29044 15.2037 3.36395 15.2192 3.4424C15.2348 3.52085 15.2305 3.60184 15.2067 3.67827L10.9534 19.2283C10.9305 19.3049 10.9268 19.3857 10.9423 19.4639C10.9578 19.5422 10.9922 19.6157 11.0426 19.6783C11.0909 19.7425 11.1542 19.7944 11.2272 19.8298C11.3002 19.8651 11.3808 19.8828 11.4622 19.8814H22.7665C22.8476 19.8811 22.9276 19.8991 23.0003 19.9341C23.0731 19.969 23.1366 20.02 23.1859 20.083C23.2352 20.146 23.2689 20.2193 23.2844 20.2972C23.2999 20.3751 23.2969 20.4554 23.2754 20.532L22.3561 23.8746C22.3262 23.9846 22.2601 24.0821 22.168 24.1517C22.0759 24.2214 21.963 24.2595 21.8467 24.2602H3.35147C3.27015 24.2605 3.18986 24.2423 3.11694 24.2071C3.04402 24.1718 2.98046 24.1205 2.93126 24.0571C2.88177 23.9936 2.84796 23.9198 2.83247 23.8414C2.81698 23.763 2.82023 23.6822 2.84197 23.6052Z" fill="white"/>
<path d="M31.0191 3.02773H48.161C48.2583 3.02687 48.3541 3.04856 48.441 3.09101C48.5283 3.13347 48.6037 3.19549 48.6613 3.272C48.7207 3.34605 48.7616 3.43248 48.7813 3.52456C48.801 3.61664 48.7984 3.71191 48.7742 3.80296L48.662 4.23106C47.8386 5.13174 47.1262 6.12421 46.5401 7.18796C46.5052 7.254 46.452 7.30927 46.387 7.34763C46.322 7.38596 46.2474 7.40592 46.1716 7.40523H36.4142C36.2743 7.40327 36.138 7.44785 36.0274 7.5317C35.9168 7.61556 35.8386 7.7337 35.8056 7.86676L35.0603 10.6308C35.0352 10.7222 35.032 10.818 35.0508 10.9108C35.0696 11.0036 35.11 11.0909 35.1689 11.166C35.2277 11.241 35.3035 11.3018 35.3902 11.3435C35.477 11.3853 35.5723 11.4069 35.669 11.4067H44.4014C44.4987 11.4049 44.5949 11.4261 44.6818 11.4687C44.7691 11.5112 44.8441 11.5737 44.901 11.6509C44.9611 11.7256 45.002 11.8131 45.0209 11.9063C45.0399 11.9994 45.0358 12.0957 45.0094 12.187L44.1796 15.2616C44.144 15.3937 44.0641 15.5104 43.9531 15.5932C43.842 15.676 43.7061 15.7201 43.5664 15.7186H34.1694C34.0292 15.7173 33.8926 15.7621 33.7814 15.8458C33.6702 15.9294 33.5909 16.0472 33.5561 16.1801L32.736 19.1582C32.7096 19.2504 32.7057 19.3473 32.7245 19.4412C32.7433 19.5351 32.7844 19.6233 32.8444 19.6989C32.9032 19.7749 32.9795 19.8363 33.0671 19.878C33.1548 19.9196 33.2512 19.9404 33.3486 19.9386H45.051C45.148 19.9377 45.2442 19.9594 45.3311 20.002C45.4176 20.0446 45.493 20.1068 45.5506 20.1836C45.6104 20.2589 45.6516 20.347 45.6706 20.4409C45.6891 20.5346 45.6854 20.6315 45.6587 20.7235L44.8007 23.7987C44.7654 23.9301 44.6866 24.0463 44.5767 24.129C44.4664 24.2117 44.3316 24.2563 44.1926 24.2557H25.1998C25.1186 24.2559 25.0385 24.2377 24.9657 24.2024C24.8929 24.1672 24.8294 24.1159 24.7803 24.0526C24.729 23.9904 24.694 23.9169 24.6783 23.8385C24.6626 23.7601 24.6668 23.6791 24.6903 23.6026L30.0999 3.71746C30.153 3.51883 30.2722 3.34318 30.4387 3.21828C30.6052 3.09337 30.8094 3.02632 31.0191 3.02773Z" fill="white"/>
<path d="M81.9034 13.359L79.0973 23.8946C79.0709 23.9983 79.0096 24.0904 78.9231 24.1558C78.8369 24.2213 78.7303 24.2563 78.6211 24.2551L72.6983 24.2224C72.6393 24.2212 72.5809 24.2074 72.5278 24.1819C72.4751 24.1563 72.4283 24.1197 72.3915 24.0745C72.3547 24.0289 72.3295 23.9754 72.3183 23.9184C72.3068 23.8614 72.3094 23.8025 72.3258 23.7467L72.3358 23.71C74.8225 20.6211 75.9557 16.6924 75.4874 12.7862C75.4636 12.59 75.4777 12.3911 75.5293 12.2L77.9106 3.61727C77.9562 3.4482 78.0576 3.29877 78.1995 3.1926C78.3414 3.08643 78.5156 3.02958 78.6939 3.03103H83.264C83.411 3.02955 83.5559 3.06851 83.6814 3.1435C83.8074 3.2185 83.9091 3.32651 83.9756 3.45528L89.8657 14.4209C89.8858 14.4567 89.9162 14.4858 89.953 14.5047C89.9898 14.5236 90.0318 14.5313 90.073 14.527C90.1157 14.5241 90.1566 14.5077 90.1889 14.4802C90.2212 14.4527 90.2435 14.4156 90.2524 14.3746L93.4118 3.03103H99.3583C99.4348 3.02972 99.5102 3.04616 99.5786 3.07902C99.6473 3.11188 99.7067 3.16021 99.7524 3.22001C99.8003 3.27808 99.833 3.34668 99.8482 3.41991C99.8631 3.49314 99.8594 3.56881 99.8378 3.64041L94.3882 23.6683C94.344 23.8375 94.2438 23.9875 94.1026 24.0946C93.9618 24.2017 93.7884 24.2598 93.6101 24.2596H89.1455C89.0022 24.2616 88.861 24.2252 88.737 24.1544C88.6133 24.0836 88.5115 23.9811 88.4428 23.8579L82.2979 13.3159C82.2778 13.2807 82.247 13.2522 82.2102 13.2341C82.1731 13.216 82.1315 13.2091 82.0906 13.2143C82.0479 13.2173 82.0074 13.2327 81.9744 13.2585C81.9409 13.2843 81.916 13.3193 81.9034 13.359Z" fill="white"/>
<path d="M112.66 9.43787C112.443 9.25787 112.104 9.2206 111.83 9.2206H109.802L109.217 11.2017H111.179C111.408 11.202 111.635 11.1693 111.853 11.1047C112.048 11.0482 112.233 10.9625 112.401 10.8507C112.547 10.7516 112.669 10.6224 112.759 10.4721C112.844 10.3239 112.891 10.1575 112.896 9.98747C112.905 9.88398 112.888 9.77983 112.847 9.68409C112.806 9.58831 112.742 9.5038 112.66 9.43787Z" fill="white"/>
<path d="M126.156 3.03221H106.906C105.44 3.03221 103.912 4.20469 103.515 5.64071L100.511 16.5369C100.007 18.3695 101.125 19.8653 102.997 19.8653H122.412C123.878 19.8653 125.402 18.6928 125.798 17.2568L128.759 6.51812C129.289 4.60194 128.118 3.03221 126.156 3.03221ZM114.744 9.85107C114.735 10.0909 114.687 10.3278 114.602 10.553C114.507 10.8051 114.368 11.0392 114.192 11.2453C113.984 11.4848 113.741 11.6921 113.47 11.8598C113.179 12.0445 112.865 12.1919 112.536 12.2982L113.39 15.3638H111.41L111.381 15.2622C111.263 14.7917 111.145 14.325 111.032 13.8538C110.928 13.4199 110.824 12.986 110.721 12.5566H108.82C108.683 12.986 108.558 13.4199 108.434 13.859C108.303 14.3295 108.165 14.7962 108.028 15.2667L108 15.3638H106.132L108.33 7.86161H112.39C112.753 7.85416 113.114 7.91034 113.456 8.02743C113.731 8.12427 113.983 8.27521 114.196 8.471C114.388 8.6514 114.535 8.87241 114.625 9.11699C114.716 9.35107 114.756 9.601 114.744 9.85107ZM122.681 12.9815C122.565 13.3649 122.375 13.7225 122.119 14.0344C121.858 14.3446 121.542 14.6059 121.186 14.8058C120.803 15.0204 120.39 15.1777 119.96 15.2725C119.48 15.38 118.99 15.4326 118.498 15.4293C118.089 15.4301 117.681 15.387 117.281 15.3008C116.916 15.2236 116.566 15.0862 116.248 14.8945C115.961 14.7183 115.718 14.4816 115.536 14.2016C115.355 13.9021 115.269 13.5564 115.291 13.2091C115.296 13.112 115.305 13.0163 115.319 12.9179C115.333 12.8134 115.355 12.7101 115.385 12.6087L116.776 7.86289H118.643L117.208 12.716C117.179 12.8232 117.162 12.9331 117.156 13.0439C117.147 13.2049 117.185 13.3653 117.265 13.5061C117.349 13.6352 117.461 13.7448 117.593 13.8275C117.741 13.9166 117.904 13.9792 118.074 14.0126C118.257 14.0508 118.443 14.0708 118.63 14.0724C118.883 14.0726 119.134 14.0448 119.38 13.9895C119.615 13.9418 119.842 13.8576 120.05 13.74C120.25 13.6247 120.427 13.4764 120.575 13.3016C120.736 13.1075 120.853 12.8826 120.92 12.6415L122.306 7.86289H124.188L122.681 12.9815Z" fill="white"/>
<path d="M60.4824 26.4715C67.2153 26.4715 72.6738 21.1277 72.6738 14.5359C72.6738 7.94403 67.2153 2.6003 60.4824 2.6003C53.7492 2.6003 48.291 7.94403 48.291 14.5359C48.291 21.1277 53.7492 26.4715 60.4824 26.4715Z" fill="white"/>
<path fill-rule="evenodd" clip-rule="evenodd" d="M58.8482 2.70444C56.8536 2.96911 54.9567 3.71251 53.3269 4.86847C51.6971 6.0244 50.3841 7.55702 49.5057 9.32982L55.8296 8.12007L58.8482 2.70444ZM48.4445 12.6216C48.1303 14.5311 48.2933 16.4866 48.9203 18.3207C49.5469 20.1548 50.6185 21.8128 52.0433 23.1527L52.7694 17.0872L48.4445 12.6216ZM55.0236 25.2116C56.74 26.0511 58.6346 26.4828 60.5534 26.4716C62.4722 26.4604 64.3613 26.0068 66.0677 25.1473L60.5787 22.6031L55.0236 25.2116ZM69.2415 22.839C71.4482 20.6162 72.6802 17.6373 72.675 14.5378C72.6746 13.9692 72.6338 13.4013 72.5521 12.8383L68.5109 17.1045L69.2415 22.839ZM71.3921 9.20062C70.5341 7.5224 69.2846 6.0656 67.7447 4.94814C66.2047 3.83071 64.4178 3.08407 62.5283 2.76872L65.499 8.17985L71.3921 9.20062Z" fill="#D72629"/>
<path fill-rule="evenodd" clip-rule="evenodd" d="M60.4421 20.2394L63.1728 18.3001L65.9028 16.3563L64.8606 13.2123L63.8187 10.0683H60.4421H57.065L56.0232 13.2123L54.9813 16.3563L57.7113 18.3001L60.4421 20.2394Z" fill="#D72629"/>
</svg>
