<svg width="130" height="44" viewBox="0 0 130 44" fill="none" xmlns="http://www.w3.org/2000/svg">
<path d="M2.66675 41.1552V2.02866H127.755V41.1599H120.138V9.07739H10.3539V41.1599L2.66675 41.1552Z" fill="white"/>
<path d="M15.4442 41.1494H18.3388L20.6148 26.3693H20.9525L23.3191 41.1621H26.2913L22.9872 23.456H18.7437L15.4442 41.1494Z" fill="white"/>
<path d="M27.7296 27.0327H30.5304V35.0089H30.8727L33.8463 27.0327H36.2936V41.1552H33.5033V33.5957H33.2452L30.1888 41.161H27.7296V27.0327Z" fill="white"/>
<path d="M38.412 27.0327H44.6895V29.505H41.1247V41.1505H38.4146L38.412 27.0327Z" fill="white"/>
<path d="M50.9629 27.0303H46.9717L44.0073 41.1559H46.7218L47.0568 39.416H50.9596L51.1284 41.1595H53.9318L50.9629 27.0303ZM47.5654 37.0857L48.833 29.5121H49.0898L50.3688 37.0857H47.5654Z" fill="white"/>
<path d="M60.364 23.4548H63.93C64.2757 23.4547 64.6177 23.5214 64.9369 23.6509C65.2561 23.7805 65.5462 23.9704 65.7905 24.2099C66.0349 24.4494 66.2287 24.7338 66.3611 25.0467C66.4934 25.3597 66.5612 25.6951 66.5612 26.0338V29.5089H63.8492V26.4812C63.8492 26.4114 63.8352 26.3422 63.808 26.2776C63.7807 26.2131 63.7409 26.1544 63.6904 26.105C63.6403 26.0556 63.5802 26.0164 63.5146 25.9897C63.4486 25.9631 63.3782 25.9494 63.3067 25.9495H61.1631C61.092 25.9494 61.0212 25.9631 60.9556 25.9897C60.8896 26.0164 60.8299 26.0556 60.7794 26.105C60.7289 26.1544 60.6891 26.2131 60.6618 26.2776C60.6346 26.3422 60.6206 26.4114 60.6206 26.4812V38.1102C60.6206 38.2786 60.6891 38.4404 60.8104 38.5593C60.932 38.6786 61.0968 38.7454 61.2689 38.7454H63.2013C63.3731 38.7454 63.5378 38.6786 63.6594 38.5593C63.7811 38.4404 63.8492 38.2786 63.8492 38.1102V35.3362H66.5612V38.5814C66.5612 38.9199 66.4934 39.2553 66.3611 39.5678C66.2291 39.8808 66.0352 40.1651 65.7909 40.4044C65.5469 40.6439 65.2568 40.834 64.9376 40.9634C64.6188 41.0931 64.2768 41.1596 63.9314 41.1596H60.3685C59.6715 41.1596 59.0033 40.8886 58.5105 40.4058C58.0173 39.923 57.7402 39.2683 57.7391 38.585L57.7354 26.0351C57.735 25.6964 57.8025 25.361 57.9344 25.048C58.0664 24.735 58.2602 24.4506 58.5042 24.2109C58.7482 23.9713 59.0383 23.7812 59.3571 23.6514C59.6763 23.5217 60.0183 23.4549 60.364 23.4548Z" fill="white"/>
<path d="M67.6519 27.0271H75.7992V29.5345H73.1783V41.1494H70.369V29.5013H67.6519V27.0271Z" fill="white"/>
<path d="M82.6636 27.0327H78.6012L75.6272 41.1584H78.4265L78.7615 39.4063H82.5025L82.8364 41.1584H85.632L82.6636 27.0327ZM79.1868 37.0785L80.454 29.5089H80.7971L82.0728 37.0778L79.1868 37.0785Z" fill="white"/>
<path d="M93.1777 34.343V34.0125C93.7184 34.0124 94.2366 33.8018 94.6188 33.4271C95.001 33.0525 95.2156 32.5443 95.2159 32.0145V29.757C95.2156 29.0355 94.9236 28.3436 94.4036 27.8332C93.8835 27.3227 93.1785 27.0353 92.4424 27.0341L87.0742 27.0271V41.1526H92.7808C93.1022 41.1526 93.4202 41.0905 93.7169 40.9702C94.014 40.8495 94.2834 40.6728 94.5108 40.4502C94.7379 40.2272 94.9181 39.9627 95.0409 39.6719C95.164 39.3806 95.227 39.0688 95.227 38.754V36.3525C95.227 36.0887 95.1739 35.8273 95.0711 35.5835C94.9682 35.3397 94.8171 35.1182 94.6269 34.9316C94.4368 34.745 94.2108 34.5969 93.962 34.496C93.7136 34.395 93.4472 34.343 93.1777 34.343ZM91.6666 29.509C91.8664 29.509 92.0576 29.5867 92.1988 29.725C92.3396 29.8633 92.4188 30.0509 92.4188 30.2465V32.3417C92.4188 32.5179 92.3477 32.6868 92.2206 32.8113C92.0934 32.9358 91.9213 33.0058 91.7418 33.0058H89.8798L89.8698 29.509H91.6666ZM92.4273 38.0783C92.4273 38.2557 92.3554 38.4259 92.2276 38.5513C92.0997 38.6771 91.9261 38.7475 91.7447 38.7475H89.875V35.411L91.88 35.4149C92.0252 35.415 92.1645 35.4717 92.267 35.5725C92.3698 35.6733 92.4273 35.8099 92.4273 35.9524V38.0783Z" fill="white"/>
<path d="M102.671 27.0271H99.4532C98.7791 27.0271 98.1322 27.2897 97.6553 27.7572C97.1787 28.2246 96.9108 28.8587 96.9108 29.5198V38.6829C96.9108 39.3441 97.1787 39.9779 97.6553 40.4455C98.1322 40.9131 98.7791 41.1758 99.4532 41.1758H102.669C103.344 41.1758 103.99 40.9131 104.467 40.4455C104.944 39.9779 105.212 39.3441 105.212 38.6829V29.5211C105.212 29.1937 105.147 28.8696 105.019 28.567C104.891 28.2646 104.704 27.9897 104.468 27.7581C104.232 27.5265 103.952 27.3427 103.643 27.2173C103.335 27.0919 103.005 27.0272 102.671 27.0271ZM102.422 38.0379C102.421 38.2265 102.345 38.4071 102.209 38.5401C102.073 38.6735 101.889 38.7483 101.697 38.7483H100.327C100.232 38.7483 100.138 38.7298 100.05 38.6941C99.9618 38.6583 99.8822 38.6059 99.8148 38.5398C99.7473 38.4736 99.6942 38.3952 99.6577 38.3089C99.6216 38.2225 99.6028 38.13 99.6032 38.0368L99.6176 30.2184C99.6179 30.0303 99.6942 29.8499 99.8299 29.7169C99.9655 29.5839 100.149 29.5091 100.341 29.5089H101.697C101.792 29.5089 101.886 29.5272 101.974 29.5628C102.062 29.5985 102.142 29.6508 102.209 29.7167C102.276 29.7826 102.33 29.861 102.366 29.9472C102.403 30.0333 102.422 30.1257 102.422 30.219V38.0379Z" fill="white"/>
<path d="M107.26 27.0328H110.043V33.0192H110.565L113.012 27.0271H115.996L113.015 34.0099V34.1947L116.158 41.1635H113.184L110.625 35.4123H110.043V41.1552H107.26V27.0328Z" fill="white"/>
</svg>
