<svg width="135" height="40" viewBox="0 0 135 40" fill="none" xmlns="http://www.w3.org/2000/svg">
<g opacity="0.5">
<path opacity="0.5" d="M55.3514 31.1159H53.306V33.1334L55.341 33.1462H55.348C55.6191 33.1462 55.8795 33.0394 56.0712 32.8493C56.2629 32.6592 56.3705 32.4013 56.3705 32.1324C56.3705 31.8635 56.2629 31.6057 56.0712 31.4155C55.8795 31.2254 55.6191 31.1186 55.348 31.1186L55.3514 31.1159Z" fill="#749ED3"/>
</g>
<path d="M2.04584 2.52568V18.8319H6.10401V6.48498H6.28333L9.41969 18.8319L13.2597 18.8447L16.3449 6.48498H16.5754V18.8447H20.6213V2.52568H13.964L11.4679 12.3604H11.1863L8.72833 2.52568H2.04584Z" fill="white"/>
<path d="M34.1393 2.5338H28.5368L22.3582 18.8447H27.4615L28.2381 16.1534H34.1393L34.9888 18.8434H40.2442L34.1393 2.5338ZM29.3775 12.6625L31.2081 6.79789L33.0218 12.6625H29.3775Z" fill="white"/>
<path d="M51.4338 2.5507H41.9606V18.8447H46.9707V12.6523H51.1908C52.4467 12.6516 53.6509 12.1567 54.5388 11.2762C55.4267 10.3958 55.9254 9.20191 55.9254 7.95704V7.00472C55.9254 5.82374 55.4521 4.69114 54.6097 3.85594C53.7673 3.02072 52.6249 2.55124 51.4338 2.5507ZM51.05 7.64615C51.0496 8.13575 50.8533 8.60524 50.5038 8.95135C50.1547 9.29749 49.6811 9.49196 49.187 9.49196H46.9788V5.79965H49.187C49.6811 5.79965 50.1547 5.99419 50.5042 6.34045C50.8537 6.68675 51.05 7.15643 51.05 7.64615Z" fill="white"/>
<path d="M67.3848 2.5507H61.8575L55.6583 18.7981L60.7794 18.8447L61.4961 16.1534H67.504L68.3066 18.8434H73.5805L67.3848 2.5507ZM62.7122 12.6388L64.4279 6.90267H64.6192L66.3607 12.6388H62.7122Z" fill="white"/>
<path d="M87.5495 3.79433H86.5389V2.54463H81.9177V3.80717H80.9141C79.1899 3.80717 77.5364 4.48615 76.3171 5.69473C75.0979 6.90327 74.4128 8.54246 74.4128 10.2517V10.8349C74.4128 11.6502 74.5748 12.4575 74.8896 13.2107C75.2043 13.9639 75.6656 14.6483 76.2469 15.2248C76.8286 15.8013 77.519 16.2585 78.2789 16.5705C79.0387 16.8825 79.853 17.043 80.6753 17.0429H81.915V18.8447H86.5235V17.0429H87.789C89.4499 17.0429 91.0425 16.3888 92.217 15.2246C93.3915 14.0604 94.0515 12.4814 94.0515 10.8349V10.2388C94.0515 9.39247 93.8833 8.55439 93.5566 7.77247C93.2295 6.99052 92.7509 6.28007 92.1468 5.68162C91.5432 5.0832 90.8265 4.6085 90.0377 4.28469C89.249 3.96087 88.4035 3.79424 87.5495 3.79433ZM81.9015 13.7973C81.2462 13.7973 80.6178 13.5393 80.1546 13.0801C79.6913 12.6209 79.431 11.998 79.431 11.3486V9.46695C79.431 9.14524 79.495 8.8267 79.6192 8.52946C79.7434 8.23225 79.9255 7.9622 80.155 7.73474C80.3845 7.50731 80.6572 7.32688 80.9569 7.20384C81.257 7.0808 81.5783 7.01748 81.9026 7.0176L81.9015 13.7973ZM89.1969 11.1452C89.1961 11.8438 88.9157 12.5136 88.4174 13.0078C87.9194 13.502 87.244 13.7803 86.5389 13.7818V7.00475C87.2448 7.00582 87.9209 7.28444 88.4197 7.7794C88.918 8.27439 89.198 8.94527 89.198 9.6447L89.1969 11.1452Z" fill="white"/>
<path d="M106.329 2.22084H104.477C103.481 2.22084 102.495 2.41533 101.574 2.79321C100.654 3.17109 99.8178 3.72496 99.1135 4.42318C98.4092 5.12139 97.8507 5.9503 97.4696 6.86259C97.0885 7.77485 96.8922 8.75256 96.8925 9.73995V11.5797C96.8922 12.5671 97.0885 13.5448 97.4696 14.4571C97.8507 15.3693 98.4092 16.1983 99.1135 16.8965C99.8178 17.5947 100.654 18.1486 101.574 18.5265C102.495 18.9043 103.481 19.0988 104.477 19.0988H106.329C107.325 19.0988 108.312 18.9043 109.232 18.5265C110.152 18.1486 110.988 17.5947 111.693 16.8965C112.397 16.1983 112.956 15.3693 113.337 14.4571C113.718 13.5448 113.914 12.5671 113.914 11.5797V9.73995C113.914 8.75256 113.718 7.77485 113.337 6.86259C112.956 5.9503 112.397 5.12139 111.693 4.42318C110.988 3.72496 110.152 3.17109 109.232 2.79321C108.312 2.41533 107.325 2.22084 106.329 2.22084ZM108.951 11.9629C108.951 12.8935 108.578 13.7859 107.914 14.444C107.251 15.1021 106.351 15.4719 105.412 15.4721C104.473 15.4719 103.573 15.1021 102.909 14.444C102.245 13.7859 101.873 12.8935 101.873 11.9629V9.49868C101.873 8.56811 102.245 7.67566 102.909 7.01756C103.573 6.35949 104.473 5.98972 105.412 5.98952C106.351 5.98972 107.251 6.35949 107.914 7.01756C108.578 7.67566 108.951 8.56811 108.951 9.49868V11.9629Z" fill="white"/>
<path d="M117.192 2.5338H122.176V8.27805H127.876V2.5338H132.955V18.8319H127.879V12.1955H122.167V18.8447H117.192V2.5338Z" fill="white"/>
<path d="M56.2882 29.31H53.312V27.398H58.5354V25.6042H50.3698L50.3659 35.1557H56.4803C56.8552 35.156 57.2263 35.083 57.5726 34.941C57.919 34.799 58.2337 34.5908 58.4987 34.3281C58.7641 34.0655 58.9743 33.7537 59.1178 33.4105C59.2613 33.0673 59.335 32.6994 59.335 32.3278C59.335 31.9313 59.2563 31.5386 59.1031 31.1723C58.95 30.806 58.7255 30.4732 58.4424 30.193C58.1597 29.9127 57.8237 29.6905 57.4538 29.539C57.0843 29.3875 56.6882 29.3097 56.2882 29.31ZM55.3451 33.1463L53.3097 33.1335V31.116H55.3555C55.6267 31.1169 55.8863 31.2245 56.0776 31.4153C56.2685 31.6061 56.3758 31.8643 56.3746 32.1332C56.3738 32.402 56.265 32.6595 56.0726 32.849C55.8801 33.0385 55.6198 33.1445 55.3486 33.1436L55.3451 33.1463Z" fill="white"/>
<path d="M63.4168 25.6042V35.1557H71.5924V33.0152H66.3517V30.9767H70.9949V29.0728H66.3606V27.4912H71.3618V25.6042H63.4168Z" fill="white"/>
<path d="M75.5692 25.6042H84.6327V27.8549H81.5775V35.1476H78.6245V27.8461H75.5692V25.6042Z" fill="white"/>
<path d="M13.6275 28.0833C13.6275 28.0833 9.22774 28.3752 7.12842 24.7073C8.34411 24.7073 11.327 24.149 13.8102 27.3216C13.3629 27.233 9.9832 25.9536 9.9832 25.9536C11.1442 26.7502 12.3622 27.462 13.6275 28.0833Z" fill="white"/>
<path d="M19.0591 28.8991C19.0591 28.8991 14.8537 27.5859 14.2427 23.4123C15.3759 23.851 18.3596 24.4052 19.5091 28.2556C19.1246 28.0116 16.4464 25.5995 16.4464 25.5995C17.2353 26.7607 18.1086 27.8635 19.0591 28.8991Z" fill="white"/>
<path d="M25.8518 29.8736C25.8518 29.8736 21.5563 28.8868 20.6209 24.7727C21.7848 25.1229 24.8025 25.4486 26.25 29.1977C25.8477 28.9834 22.9888 26.7848 22.9888 26.7848C23.8662 27.882 24.8231 28.9143 25.8518 29.8736Z" fill="white"/>
<path d="M33.5872 29.9677C33.5872 29.9677 29.1779 29.9974 27.3043 26.2112C28.5186 26.2835 31.5316 25.9043 33.8163 29.2188C33.3745 29.1033 30.0786 27.6224 30.0786 27.6224C31.1892 28.4876 32.3618 29.2714 33.5872 29.9677Z" fill="white"/>
<path d="M19.2525 31.178C19.2525 31.178 16.0248 34.156 12.0621 32.6224C13.0057 31.862 14.9646 29.5641 18.9102 30.4724C18.5066 30.684 15.0682 31.8025 15.0682 31.8025C16.4764 31.6953 17.8749 31.4865 19.2525 31.178Z" fill="white"/>
<path d="M26.1928 32.7901C26.1928 32.7901 23.7164 36.406 19.511 35.7882C20.261 34.842 21.6526 32.1649 25.7032 32.1777C25.3569 32.4731 22.2574 34.3243 22.2574 34.3243C23.6049 33.9081 24.9202 33.3953 26.1928 32.7901Z" fill="white"/>
<path d="M34.4442 31.9852C34.4442 31.9852 33.2851 36.2026 29.1055 36.9745C29.5024 35.8343 29.9428 32.857 33.778 31.5675C33.5469 31.9581 31.2226 34.7076 31.2226 34.7076C32.3616 33.8788 33.4383 32.9689 34.4442 31.9852Z" fill="white"/>
<path d="M14.6421 28.0833C14.6421 28.0833 26.5221 33.8187 38.1982 29.5553L38.8117 30.1636C38.8117 30.1636 28.1073 34.6568 14.6421 28.0833Z" fill="white"/>
<path d="M121.261 28.2658C121.261 28.2658 125.66 28.5578 127.76 24.8864C126.543 24.8864 123.561 24.3281 121.078 27.5007C121.526 27.4122 124.905 26.13 124.905 26.13C123.744 26.9288 122.526 27.6426 121.261 28.2658Z" fill="white"/>
<path d="M115.83 29.0815C115.83 29.0815 120.035 27.7683 120.646 23.5947C119.513 24.0334 116.53 24.5876 115.379 28.4381C115.765 28.1941 118.443 25.7819 118.443 25.7819C117.654 26.9431 116.781 28.046 115.83 29.0815Z" fill="white"/>
<path d="M109.039 30.0555C109.039 30.0555 113.334 29.0687 114.27 24.9547C113.106 25.3048 110.088 25.6305 108.641 29.3796C109.039 29.1654 111.903 26.9674 111.903 26.9674C111.025 28.0644 110.068 29.0965 109.039 30.0555Z" fill="white"/>
<path d="M101.301 30.1501C101.301 30.1501 105.71 30.1798 107.584 26.3936C106.37 26.4659 103.357 26.0867 101.072 29.4012C101.514 29.2856 104.81 27.8048 104.81 27.8048C103.699 28.6699 102.527 29.4538 101.301 30.1501Z" fill="white"/>
<path d="M115.636 31.3605C115.636 31.3605 118.864 34.3384 122.827 32.8048C121.883 32.0445 119.924 29.7465 115.978 30.6549C116.382 30.8665 119.821 31.985 119.821 31.985C118.412 31.8778 117.014 31.669 115.636 31.3605Z" fill="white"/>
<path d="M108.695 32.9725C108.695 32.9725 111.172 36.5884 115.377 35.9707C114.627 35.0211 113.236 32.3473 109.185 32.3601C109.532 32.6555 112.631 34.5067 112.631 34.5067C111.283 34.0905 109.968 33.5777 108.695 32.9725Z" fill="white"/>
<path d="M100.445 32.1676C100.445 32.1676 101.604 36.3851 105.783 37.1569C105.387 36.0167 104.946 33.0395 101.111 31.7499C101.342 32.1406 103.666 34.89 103.666 34.89C102.527 34.0612 101.45 33.1513 100.445 32.1676Z" fill="white"/>
<path d="M120.246 28.2657C120.246 28.2657 108.366 34.0012 96.6915 29.7384L96.0779 30.3467C96.0779 30.3467 106.779 34.8386 120.246 28.2657Z" fill="white"/>
</svg>
