<svg width="129" height="18" viewBox="0 0 129 18" fill="none" xmlns="http://www.w3.org/2000/svg">
<path fill-rule="evenodd" clip-rule="evenodd" d="M105.607 6.52077H102.044L100.309 14.9863H96.3778L98.11 6.51889H94.6254L95.2029 3.69641H106.186L105.607 6.52077ZM85.8693 6.52077L85.5725 7.93201H90.7669L90.1864 10.7545H84.992L84.7042 12.1657H90.6164L90.0408 14.9863H80.2019L82.5116 3.6983H92.2505L91.6719 6.52077H85.8693ZM76.1682 9.20165C76.6365 9.3872 77.0429 9.69038 77.3439 10.0787C77.6257 10.4689 77.7706 10.9338 77.7582 11.4069C77.7582 12.5973 77.2421 13.4912 76.2098 14.0885C75.1779 14.6857 73.8499 14.985 72.227 14.9863H65.3903L67.7644 3.72407H74.043C75.4275 3.72407 76.4823 3.9592 77.2069 4.42939C77.5535 4.64248 77.8357 4.9378 78.0254 5.28622C78.2156 5.63468 78.3065 6.02418 78.2901 6.41631C78.2975 7.01128 78.0999 7.59223 77.7275 8.07043C77.3255 8.57518 76.7862 8.96627 76.1682 9.20165ZM69.857 12.1657H72.2315C72.4407 12.1589 72.6417 12.0862 72.803 11.959C72.9643 11.8318 73.0766 11.6573 73.1219 11.4629C73.1447 11.3779 73.1462 11.2891 73.1268 11.2034C73.1073 11.1177 73.0669 11.0375 73.0093 10.9691C72.9516 10.9007 72.8779 10.846 72.794 10.8093C72.7102 10.7726 72.6189 10.7549 72.5264 10.7576H70.1396L69.857 12.1657ZM73.0875 6.52077H71.0102L70.7224 7.93201H72.8C73.0096 7.92503 73.211 7.85189 73.3723 7.72407C73.5336 7.59626 73.6455 7.42103 73.6905 7.22605C73.7133 7.14049 73.7148 7.051 73.695 6.96476C73.6747 6.87852 73.6339 6.7979 73.5756 6.72938C73.5168 6.66083 73.4423 6.60627 73.3577 6.57007C73.2728 6.53383 73.1803 6.51696 73.0875 6.52077ZM60.6414 6.52077L58.9054 14.9863H54.9739L56.7087 6.52077H53.2211L53.7975 3.6983H64.7806L64.2027 6.52077H60.6414ZM47.8284 6.57423C47.2681 6.43485 46.691 6.36505 46.1116 6.36662C45.5595 6.36662 45.131 6.44147 44.8259 6.59125C44.5216 6.74035 44.3697 6.91778 44.3697 7.12162C44.3697 7.32546 44.507 7.4878 44.7829 7.60419C45.2242 7.77098 45.68 7.90047 46.1453 7.99113C46.8033 8.13151 47.4508 8.31438 48.0826 8.53852C48.6062 8.73008 49.0733 9.03892 49.445 9.43888C49.8271 9.84657 50.0191 10.3828 50.0203 11.0477C50.0349 11.8373 49.7792 12.61 49.2926 13.2498C48.7597 13.9168 48.0392 14.4269 47.2146 14.7214C46.1999 15.0889 45.1201 15.2662 44.0347 15.2436C43.0608 15.2489 42.0899 15.1433 41.1422 14.929C40.3581 14.7659 39.6058 14.488 38.9111 14.1054L40.4501 11.3056C41.6595 11.9864 43.0383 12.3475 44.4438 12.3513C44.8413 12.37 45.2384 12.31 45.61 12.1751C45.8818 12.0569 46.0173 11.896 46.0169 11.6926C46.0165 11.4891 45.878 11.3333 45.6014 11.2251C45.1763 11.0633 44.738 10.9345 44.2907 10.84C43.6245 10.6839 42.9695 10.4878 42.3291 10.253C41.8043 10.0521 41.3361 9.73705 40.9622 9.33317C40.5733 8.91919 40.3787 8.37493 40.3787 7.70047C40.3622 6.90379 40.6141 6.12298 41.0973 5.47195C41.6254 4.79867 42.3467 4.28463 43.1746 3.99148C44.0759 3.64377 45.1414 3.46969 46.3717 3.46926C47.2 3.46428 48.0264 3.54763 48.8356 3.71781C49.5273 3.85893 50.1917 4.10086 50.8059 4.43504L49.3679 7.20341C48.8907 6.91881 48.3693 6.70653 47.8232 6.57423H47.8284ZM11.6691 14.9863L12.7277 9.81952L8.80765 14.9863H7.63L5.94418 9.91391L4.90415 14.9863H0.983398L3.2878 3.69641H7.28596L9.27873 9.69241L13.8227 3.69641H17.9056L15.5945 14.9863H11.6691Z" fill="white"/>
<path d="M28.4358 17.8107C33.3533 17.8107 37.3398 14.0197 37.3398 9.34325C37.3398 4.66683 33.3533 0.875847 28.4358 0.875847C23.5182 0.875847 19.5317 4.66683 19.5317 9.34325C19.5317 14.0197 23.5182 17.8107 28.4358 17.8107Z" fill="#E9501A"/>
<path fill-rule="evenodd" clip-rule="evenodd" d="M125.704 14.9863H106.793L109.109 3.69639H128.017L125.704 14.9863Z" fill="#E9501A"/>
<path d="M115.934 7.01023C115.502 6.68391 114.896 6.52075 114.119 6.52075H111.462L110.275 12.1512H112.273L112.57 10.74H113.061L113.898 12.1512H115.975L114.983 10.5103C115.46 10.3549 115.875 10.0641 116.174 9.6773C116.454 9.29574 116.6 8.83915 116.589 8.37367C116.602 8.11319 116.55 7.85358 116.436 7.61638C116.322 7.37923 116.15 7.1714 115.934 7.01023ZM114.331 9.11041C114.15 9.25011 113.921 9.31998 113.689 9.3061H112.868L113.147 7.98858H113.815C114.311 7.98858 114.557 8.17733 114.557 8.55483C114.564 8.65781 114.548 8.76103 114.509 8.85734C114.47 8.95362 114.409 9.04065 114.331 9.1123V9.11041ZM122.535 6.52075L121.892 9.58608C121.804 10.003 121.677 10.3006 121.511 10.4789C121.426 10.5704 121.32 10.6427 121.201 10.6904C121.083 10.7381 120.954 10.76 120.826 10.7544C120.609 10.769 120.396 10.7026 120.23 10.5694C120.158 10.4931 120.103 10.4035 120.068 10.3061C120.033 10.2088 120.02 10.1057 120.029 10.0032C120.03 9.86491 120.047 9.7272 120.079 9.59234L120.723 6.51883H118.727L118.07 9.6232C118.028 9.81889 118.006 10.018 118.004 10.2177C117.994 10.6033 118.101 10.9833 118.312 11.3125C118.528 11.6308 118.838 11.8813 119.202 12.0323C119.636 12.2099 120.105 12.2957 120.577 12.284C121.479 12.284 122.201 12.0671 122.742 11.6334C123.283 11.1997 123.644 10.556 123.825 9.70247L124.498 6.51759L122.535 6.52075Z" fill="white"/>
<path d="M28.5901 12.1374L32.6478 14.4421L31.576 10.0939L35.1613 7.16695L30.438 6.78944L28.5901 2.68786L26.7442 6.7888L22.0209 7.17389L25.6016 10.097L24.5258 14.4459L28.5901 12.1374Z" fill="white"/>
</svg>
