<svg width="162" height="36" viewBox="0 0 162 36" fill="none" xmlns="http://www.w3.org/2000/svg">
<g clip-path="url(#clip0)">
<path opacity="0.5" d="M47.3067 9.34332C51.5138 9.34332 55.6984 12.1772 55.6984 17.7991C55.6984 22.7704 52.2185 26.2332 47.2349 26.2332C42.8868 26.2332 38.8199 23.4459 38.8199 17.7991C38.8199 12.1764 43.0274 9.34332 47.3067 9.34332ZM47.2593 22.213C49.3054 22.213 51.397 20.7028 51.397 17.7951C51.397 14.8873 49.3509 13.3821 47.3067 13.3821C45.1661 13.3821 43.1209 14.8215 43.1209 17.7951C43.1209 20.6988 45.1434 22.213 47.2593 22.213ZM125.251 9.60196C128.308 9.60196 130.448 11.5771 130.448 14.5974C130.448 15.5974 129.908 16.7573 129.084 17.4087C130.424 18.0826 131.129 19.4056 131.129 20.8924C131.129 23.6813 129.296 25.842 125.911 25.842H117.991V9.59878H125.254L125.251 9.60196ZM122.29 16.0103H124.946C125.768 16.0103 126.192 15.383 126.216 14.7331C126.239 14.0102 125.816 13.2921 124.946 13.2921H122.29V16.0103ZM122.29 22.1439H125.605C126.428 22.1439 126.804 21.5398 126.874 20.8884C126.897 20.4 126.686 19.89 126.287 19.6121C126.067 19.5069 125.825 19.452 125.581 19.4514H122.29V22.1463V22.1439ZM99.1165 9.62369V25.9296H94.8145V18.4265L91.3121 22.0507H90.8176L87.3152 18.4265V25.9304H83.0123V9.62446H84.54L91.0761 16.6625L97.5874 9.62369H99.1155H99.1165ZM107.051 9.63573C107.856 9.63573 108.662 9.63573 109.477 9.64614C113.428 9.64614 115.449 12.6889 115.379 15.7556C115.379 18.7276 113.381 21.7037 109.477 21.7037H106.516V25.9079H102.214V9.64614C103.839 9.64614 105.442 9.63573 107.051 9.63573ZM106.448 18.0096H109.48C110.61 18.0096 111.268 16.824 111.268 15.6392C111.268 14.4777 110.656 13.3395 109.48 13.3395H106.448V18.0096ZM62.7502 9.64614V22.0965H68.699V25.9063H58.4479V9.64614H62.7502ZM159.29 9.66864V13.3869H155.27V25.9304H151.108V13.3869H147.065V9.66864H159.29ZM144.308 9.66864V13.3636H138.337V15.689H143.84V19.4056H138.34V22.0563H144.523V25.936H134.036V9.66864H144.311H144.308ZM79.7095 9.66864V13.4785H77.8033V22.1206H79.8949V25.9304H71.4125V22.1206H73.5018V13.4785H71.5979V9.66864H79.704H79.7095ZM47.3067 6.93359C44.4687 6.93359 41.813 7.9055 39.8279 9.67187C38.7426 10.6372 37.8827 11.8242 37.308 13.1507C36.6951 14.5548 36.3845 16.1187 36.3845 17.7991C36.3845 21.1237 37.551 23.9303 39.7588 25.9119C41.7146 27.6702 44.3711 28.6381 47.2372 28.6381C50.3036 28.6381 53.0852 27.5505 55.0696 25.5737C55.4096 25.2349 55.7247 24.8723 56.0117 24.4886V25.9039C56.0117 26.543 56.2684 27.1559 56.7261 27.6078C57.1833 28.0597 57.8034 28.3136 58.4502 28.3136H68.699C69.1746 28.3144 69.6401 28.177 70.0371 27.9184C70.4419 28.1935 70.9212 28.3405 71.4125 28.3401H79.8949C80.4644 28.3411 81.0164 28.1443 81.4543 27.7843C81.8918 28.1442 82.4433 28.3409 83.0123 28.3401H87.3152C87.9619 28.3401 88.582 28.0862 89.0392 27.6343C89.4969 27.1824 89.7536 26.5695 89.7536 25.9304V24.2195C90.0853 24.3782 90.4491 24.4606 90.8176 24.4604H91.3121C91.6806 24.4606 92.0444 24.3782 92.3761 24.2195V25.9304C92.3761 26.5695 92.6328 27.1824 93.0905 27.6343C93.5477 28.0862 94.1678 28.3401 94.8145 28.3401H99.1165C99.6882 28.3399 100.242 28.1409 100.68 27.7778C101.113 28.126 101.656 28.3155 102.215 28.3144H106.517C107.164 28.3144 107.784 28.0605 108.241 27.6086C108.699 27.1567 108.955 26.5438 108.955 25.9046V24.1134H109.478C110.705 24.1243 111.92 23.8779 113.043 23.3905C113.99 22.9729 114.842 22.3721 115.55 21.6234V25.8356C115.55 26.4747 115.807 27.0876 116.264 27.5395C116.722 27.9915 117.342 28.2453 117.988 28.2453H125.911C128.192 28.2453 130.138 27.5007 131.531 26.0934L131.597 26.0251C131.622 26.6471 131.891 27.2351 132.345 27.6661C132.8 28.097 133.406 28.3374 134.036 28.3369H144.522C145.168 28.3369 145.789 28.083 146.246 27.6311C146.703 27.1792 146.961 26.5662 146.961 25.9271V22.0507C146.961 21.7073 146.887 21.3677 146.743 21.055C146.599 20.7423 146.39 20.4636 146.128 20.2378C146.228 19.9703 146.279 19.6875 146.278 19.4024V15.6673C146.532 15.753 146.799 15.7966 147.067 15.7966H148.672V25.9304C148.672 26.5695 148.929 27.1824 149.387 27.6343C149.844 28.0862 150.464 28.3401 151.111 28.3401H155.273C155.92 28.3401 156.54 28.0862 156.997 27.6343C157.455 27.1824 157.712 26.5695 157.712 25.9304V15.7966H159.293C159.939 15.7966 160.56 15.5427 161.017 15.0908C161.475 14.6389 161.731 14.026 161.731 13.3869V9.66864C161.731 9.02955 161.475 8.41659 161.017 7.96468C160.56 7.51278 159.939 7.25891 159.293 7.25891H147.067C146.574 7.25741 146.092 7.4045 145.685 7.68059C145.278 7.40473 144.796 7.25764 144.303 7.25891H134.034C133.387 7.25891 132.767 7.51278 132.31 7.96468C131.852 8.41659 131.595 9.02955 131.595 9.66864V10.2895C131.33 9.90546 131.025 9.54932 130.686 9.22687C129.304 7.91273 127.373 7.189 125.251 7.189H117.991C117.344 7.189 116.724 7.44291 116.267 7.89482C115.809 8.34673 115.552 8.95964 115.552 9.59878V9.71923C115.515 9.67991 115.477 9.63891 115.439 9.60278C113.91 8.05732 111.854 7.23882 109.493 7.23641C108.761 7.22918 107.959 7.22596 107.054 7.22596C106.249 7.22596 105.429 7.22596 104.643 7.23078C103.858 7.23559 103.031 7.23641 102.217 7.23641C101.658 7.23532 101.116 7.42482 100.682 7.773C100.244 7.40964 99.6905 7.21055 99.1188 7.21073H97.5874C97.2489 7.21055 96.9135 7.28009 96.6035 7.41491C96.2939 7.54978 96.0156 7.74696 95.787 7.99387L91.072 13.0913L86.3372 7.99387C86.1086 7.74791 85.8307 7.55159 85.5212 7.41732C85.212 7.28305 84.8776 7.21378 84.54 7.21391H83.0123C82.3881 7.21278 81.7878 7.44923 81.3356 7.87419C80.889 7.47782 80.3098 7.25868 79.7095 7.25891H71.5979C70.9511 7.25891 70.331 7.51278 69.8733 7.96468C69.4161 8.41659 69.1594 9.02955 69.1594 9.66864V13.4785C69.159 14.0259 69.3476 14.557 69.6935 14.9845C70.0394 15.412 70.5224 15.7103 71.0629 15.8304V19.7349C70.7087 19.7848 70.3697 19.9118 70.0711 20.1068C69.6673 19.8337 69.1889 19.6881 68.699 19.6891H65.1892V9.64855C65.1892 9.00946 64.932 8.39655 64.4748 7.94464C64.0175 7.49273 63.397 7.23882 62.7502 7.23882H58.4479C57.8011 7.23882 57.1806 7.49273 56.7233 7.94464C56.2661 8.39655 56.0094 9.00946 56.0094 9.64855V11.0816C55.6258 10.5757 55.1943 10.1072 54.7209 9.68232C52.748 7.90955 50.115 6.93359 47.3067 6.93359ZM80.2422 15.8304C80.3549 15.8055 80.4658 15.7724 80.5739 15.7316V19.8056C80.4653 19.7741 80.3544 19.7505 80.2422 19.7349V15.8304ZM47.2593 19.804C46.86 19.804 45.5595 19.6594 45.5595 17.7959C45.5595 16.0529 46.6537 15.7926 47.3067 15.7926C47.5827 15.7926 48.9581 15.889 48.9581 17.7959C48.9581 19.2755 48.0431 19.804 47.2593 19.804Z" fill="white"/>
<path fill-rule="evenodd" clip-rule="evenodd" d="M55.6978 17.7999C55.6978 22.7712 52.2179 26.234 47.2343 26.234C42.8861 26.234 38.8192 23.4467 38.8192 17.7999C38.8192 12.1772 43.0267 9.34414 47.3056 9.34414C51.5132 9.34337 55.6978 12.178 55.6978 17.7999ZM51.3964 17.7999C51.3964 14.8962 49.3503 13.3869 47.3056 13.3869C45.1654 13.3869 43.1202 14.8263 43.1202 17.7999C43.1202 20.7036 45.1427 22.2178 47.2587 22.2178C49.3015 22.2138 51.3964 20.7036 51.3964 17.7999ZM62.7496 22.0981H68.6983V25.9079H58.4472V9.64618H62.7496V22.0981ZM77.8027 22.1206H79.8943V25.9304H71.4119V22.1206H73.5007V13.4785H71.5973V9.66864H79.7034V13.4785H77.8027V22.1206ZM97.5868 9.62368H99.1149V25.9296H94.8139V18.4265L91.3115 22.0507H90.817L87.3145 18.4265V25.9304H83.0117V9.6245H84.5389L91.0755 16.6625L97.5868 9.62368ZM115.378 15.7556C115.378 18.7277 113.38 21.7037 109.477 21.7037H106.515V25.9079H102.213V9.64618C104.657 9.64618 107.032 9.62368 109.477 9.64618C113.428 9.64618 115.449 12.6889 115.379 15.7556H115.378ZM111.264 15.6392C111.264 14.4777 110.652 13.3395 109.476 13.3395H106.447V18.0095H109.479C110.608 18.0095 111.265 16.824 111.265 15.6392H111.264ZM131.127 20.8892C131.127 23.6781 129.294 25.8388 125.909 25.8388H117.99V9.59878H125.254C128.31 9.59878 130.449 11.574 130.449 14.5934C130.449 15.5942 129.91 16.7541 129.085 17.4047C130.427 18.0795 131.128 19.4024 131.128 20.8892H131.127ZM122.29 16.0103H124.945C125.768 16.0103 126.191 15.383 126.216 14.7331C126.238 14.0102 125.815 13.2921 124.945 13.2921H122.29V16.0103ZM126.873 20.8884C126.896 20.4 126.685 19.89 126.287 19.612C126.066 19.5069 125.825 19.452 125.58 19.4514H122.29V22.1463H125.604C126.427 22.1447 126.803 21.5406 126.873 20.8892V20.8884ZM138.335 22.0499H144.518V25.9296H134.032V9.66864H144.306V13.3636H138.334V15.689H143.84V19.4056H138.339L138.335 22.0499ZM159.289 9.66787V13.3861H155.269V25.9304H151.107V13.3869H147.063V9.66864L159.289 9.66787Z" fill="#761615"/>
<path opacity="0.5" d="M18.385 3.48759C21.2341 3.48759 24.0192 4.32244 26.3881 5.88656C28.7571 7.4507 30.6034 9.67383 31.6937 12.2749C32.7839 14.8759 33.0691 17.738 32.5132 20.4992C31.9574 23.2604 30.5853 25.7967 28.5707 27.7874C26.556 29.7781 23.9892 31.1337 21.1948 31.6828C18.4004 32.232 15.504 31.95 12.8718 30.8725C10.2396 29.795 7.9899 27.9704 6.40713 25.6295C4.82439 23.2886 3.97967 20.5364 3.97983 17.7211C3.98005 13.9461 5.4978 10.3257 8.19929 7.65643C10.9007 4.98715 14.5646 3.48759 18.385 3.48759ZM18.385 0.274605C16.0659 0.272385 13.7693 0.722665 11.6268 1.59961C9.48425 2.47656 7.53809 3.76291 5.89989 5.38483C4.28793 6.97302 3.00338 8.85529 2.11751 10.9272C1.20062 13.0771 0.728271 15.3865 0.728271 17.7195C0.728271 20.0525 1.20062 22.3619 2.11751 24.5117C3.00325 26.5838 4.28782 28.4661 5.89989 30.0542C7.5374 31.6772 9.48338 32.9646 11.626 33.8423C13.7686 34.72 16.0656 35.1707 18.385 35.1684C20.704 35.1712 23.0007 34.7212 25.1432 33.8442C27.2856 32.9672 29.2316 31.6806 30.8692 30.0582C32.4813 28.4701 33.7659 26.5878 34.6516 24.5158C35.5685 22.3659 36.0408 20.0565 36.0408 17.7235C36.0408 15.3906 35.5685 13.0812 34.6516 10.9313C33.7657 8.85929 32.4812 6.97702 30.8692 5.38888C29.2316 3.76612 27.2858 2.47896 25.1433 1.60131C23.0009 0.723661 20.7042 0.272798 18.385 0.274605Z" fill="white"/>
<path d="M18.3853 3.48769C15.5362 3.48753 12.751 4.32225 10.3819 5.88627C8.01292 7.45031 6.16644 9.6734 5.07604 12.2744C3.98565 14.8754 3.70031 17.7375 4.25611 20.4988C4.81191 23.2601 6.18387 25.7965 8.19853 27.7872C10.2131 29.778 12.78 31.1337 15.5744 31.6829C18.3688 32.2321 21.2652 31.9501 23.8975 30.8727C26.5297 29.7952 28.7795 27.9706 30.3623 25.6297C31.9451 23.2887 32.7898 20.5366 32.7896 17.7212C32.7896 15.852 32.417 14.0012 31.6932 12.2743C30.9693 10.5474 29.9083 8.97831 28.5707 7.65659C27.2331 6.3349 25.6452 5.28645 23.8976 4.57116C22.15 3.85586 20.2769 3.48769 18.3853 3.48769Z" fill="#761615"/>
<path fill-rule="evenodd" clip-rule="evenodd" d="M23.2798 10.4061C23.4197 10.4058 23.5594 10.4128 23.6985 10.4269C23.7518 10.5329 23.8138 10.6345 23.8838 10.7306C24.1896 11.1688 24.6561 11.4722 25.1844 11.5764C24.3301 11.6359 23.696 11.3515 23.2798 10.4061ZM19.7788 9.00199C21.3761 8.52004 22.7864 8.59313 23.388 9.45422C23.4278 9.70817 23.4966 9.95686 23.5928 10.1956C22.1012 10.6655 20.7599 10.3715 19.7788 9.00199ZM20.2144 7.15936C21.7248 7.15936 22.7799 7.53204 23.353 8.24372C23.3297 8.49176 23.3246 8.74117 23.3375 8.98995C23.2595 8.91976 23.1758 8.85608 23.0872 8.79958C22.6165 8.50717 21.9711 8.38749 21.2062 8.44372C20.8225 8.13849 20.4908 7.72163 20.2144 7.15936ZM23.7139 7.68467C25.2747 8.84213 25.9672 9.99081 25.4462 11.2005C25.6112 11.3636 25.7849 11.5181 25.9664 11.6631C26.0264 11.8593 26.0992 12.0514 26.1843 12.2383C25.8284 11.947 25.4935 11.6317 25.182 11.2944C23.7846 10.9499 23.3944 9.31526 23.7139 7.68467ZM24.6666 11.9941C25.2796 12.0993 25.8672 12.3172 26.3988 12.6367C26.6584 13.039 26.9808 13.3982 27.354 13.701C27.4501 13.9341 27.5001 14.1834 27.5011 14.4351C27.4546 14.6447 27.4296 14.8584 27.4263 15.0729C27.3897 15.0197 27.3498 14.9687 27.3068 14.9203C26.0135 14.9067 24.8422 13.7677 24.6666 11.9941ZM25.8575 9.81567C27.8897 10.5667 28.3482 11.9266 28.0523 13.0777C27.8994 13.3373 27.7689 13.6093 27.6621 13.8905C27.6499 13.7887 27.6458 13.6861 27.6499 13.5837C26.4249 12.5933 26.1924 11.8471 25.8575 9.81808V9.81567ZM28.744 12.5355C29.5959 14.297 29.5342 15.9541 28.4368 16.7349C28.2724 16.4754 28.0818 16.2332 27.8678 16.0119C27.5166 15.0529 27.6629 14.0022 28.744 12.5379V12.5355ZM28.4563 17.3654C28.1543 18.0505 28.04 18.802 28.1246 19.5446C26.8467 18.5397 26.6314 17.8779 26.3647 15.1268C27.5085 15.9252 28.1669 16.6304 28.4563 17.3678V17.3654ZM28.8847 20.7736C28.7263 20.9053 28.5587 21.0258 28.3831 21.1342C28.2171 21.238 28.0572 21.3512 27.9043 21.4732C27.6279 21.6019 27.3621 21.7518 27.1093 21.9214C27.5442 21.4186 28.0547 20.5711 28.149 19.7173C28.1874 19.9728 28.2436 20.2254 28.3173 20.4731C28.258 20.6447 28.1871 20.8122 28.1051 20.9744C28.1352 20.9575 28.1645 20.943 28.1953 20.9278C28.3623 20.8505 28.5185 20.7525 28.6603 20.6362C28.197 19.2916 28.1612 17.7172 29.687 15.9886C30.7267 18.2771 29.9073 20.486 28.8847 20.776V20.7736ZM26.2501 22.3078C26.3535 22.1338 26.4426 21.9519 26.5167 21.7639C25.7673 21.1294 25.4323 19.5205 26.1957 17.8176C27.2239 19.4538 27.4963 20.6884 26.876 21.637C26.8229 21.8498 26.7511 22.0575 26.6614 22.2579C26.5234 22.3718 26.3913 22.4924 26.2655 22.6194C26.2655 22.5166 26.2599 22.4138 26.2501 22.3078ZM29.3114 21.3045C28.2368 24.4243 27.428 25.1665 25.6201 24.834C25.3944 24.8956 25.1831 25.0004 24.9983 25.1424C24.8076 25.1258 24.6154 25.1399 24.4293 25.1842C24.5782 25.0272 24.719 24.8629 24.8511 24.6918C24.3195 23.2644 24.4447 22.0411 25.6909 20.8772C25.9737 21.625 26.0819 22.2837 26.0436 22.8499C25.5071 23.4588 25.1861 24.1271 25.16 24.7175C25.251 24.6834 25.3452 24.6586 25.4413 24.6436C25.5656 23.4291 27.0955 21.7246 29.3114 21.3045ZM26.3729 25.9216C25.2348 27.4156 24.1927 27.5425 23.0782 26.6605C23.9399 25.4484 24.6585 24.9408 26.3729 25.9216ZM24.3593 23.409C24.2547 24.1325 24.0527 24.8389 23.7586 25.5095C23.4497 25.7384 23.1668 26.0638 22.8807 26.4605C22.5031 26.2084 22.0673 26.0542 21.6134 26.0124C22.0142 24.7858 22.9327 23.8364 24.3593 23.409ZM23.5668 27.4855C22.0784 28.1578 20.5672 28.014 19.7357 27.0967C19.4585 27.2754 19.1935 27.4719 18.9423 27.6847C18.8106 27.6148 18.687 27.5457 18.5708 27.475C18.6781 27.4068 18.7813 27.3385 18.8797 27.2734C19.2495 27.0324 19.5658 26.8252 19.895 26.736C21.1574 25.9561 22.5108 26.1151 23.5668 27.4855ZM17.9181 28.0325C18.014 28.1128 18.114 28.1931 18.2131 28.2735C17.7067 28.6647 17.1564 29.0269 16.5467 29.1779L16.5126 29.1876L15.6688 28.4952L15.8314 28.4775C16.5089 28.4024 17.1686 28.2142 17.7823 27.9209C17.8278 27.957 17.8717 27.9948 17.9181 28.0325Z" fill="#FBBC55"/>
<path fill-rule="evenodd" clip-rule="evenodd" d="M7.88635 16.4521C7.13687 15.5894 7.17836 14.1227 7.92701 12.5676C8.25425 12.9964 8.52519 13.4644 8.73339 13.9605C8.67 14.5532 8.46999 14.9958 8.28632 15.4023C8.20503 15.5774 8.13185 15.7421 8.06924 15.914C7.99771 16.1059 7.93837 16.2858 7.88635 16.4521ZM13.414 26.8943C12.3149 27.4967 10.8339 27.071 10.2299 25.6437C10.8412 25.3489 11.3493 25.2421 11.7866 25.275L11.8597 25.3673C12.2436 25.8275 12.6659 26.255 13.1222 26.6453C13.2327 26.7329 13.3563 26.8309 13.3807 26.8582L13.414 26.8943ZM11.5834 11.6158C11.8537 11.5677 12.1118 11.4675 12.3429 11.3209C12.574 11.1742 12.7736 10.984 12.9303 10.7611C12.9758 10.6977 13.0189 10.6294 13.0588 10.5603C13.4238 10.533 13.791 10.5579 14.1488 10.6342C13.4205 11.6728 12.5889 11.876 11.5834 11.6158ZM13.201 10.2776C13.2727 10.1089 13.3298 9.93447 13.3717 9.75625C14.4789 9.72011 15.3413 9.43497 16.0095 8.8502C16.2461 8.89679 16.4875 8.95865 16.7354 9.03256C16.1136 9.90006 15.3486 10.3362 14.4927 10.4213L14.2033 10.3635C13.8727 10.2955 13.5352 10.2667 13.1977 10.2776H13.201ZM13.427 9.47997C13.4814 9.13461 13.4966 8.78438 13.4725 8.43574C14.0935 7.65656 15.2324 7.21479 16.8671 7.14252C16.1502 8.78515 14.9975 9.41488 13.4237 9.47997H13.427ZM11.3679 11.231C10.8461 10.0205 11.5387 8.8727 13.0994 7.71684C13.4197 9.34661 13.0295 10.9828 11.6362 11.3242C11.3565 11.627 11.0579 11.9122 10.742 12.1781C10.7152 12.1901 10.6876 12.2022 10.6607 12.2142C10.7347 12.0424 10.7985 11.8664 10.8518 11.6873C11.0312 11.5447 11.2024 11.3924 11.3647 11.231H11.3679ZM8.96587 13.6632C8.35702 12.4271 8.58628 10.725 10.9566 9.84865C10.7526 11.08 10.5876 11.8383 10.2145 12.4664C9.90253 12.6647 9.63301 12.9215 9.42109 13.2223C9.34597 13.3296 9.2807 13.4433 9.226 13.5621C9.24146 14.1629 9.03497 14.8199 8.81062 15.5019C8.91141 15.379 9.00166 15.2521 9.0886 15.1284C9.17559 15.0047 9.24634 14.9051 9.33249 14.7991C9.11708 13.2447 10.4811 12.3355 12.1475 12.0254C11.9703 13.8078 10.7851 14.9501 9.47799 14.9484C9.32918 15.1033 9.19656 15.2726 9.08212 15.4537C8.9472 15.6561 8.73178 15.8931 8.57892 16.2296C8.4578 16.6361 8.37408 16.9992 8.31396 17.2996C8.22702 17.1117 8.12904 16.9291 8.02048 16.7525C8.08309 16.5228 8.16598 16.2634 8.2733 15.9734C8.33425 15.8071 8.40743 15.6441 8.48711 15.4714C8.70574 14.9838 8.94881 14.444 8.96261 13.6632H8.96587ZM8.69926 19.4418C8.76021 18.7208 8.63371 17.9964 8.33181 17.3373C8.6074 16.5726 9.26828 15.8497 10.4453 15.0288C10.1811 17.7775 9.96573 18.4402 8.69599 19.4418H8.69926ZM7.12633 16.0232C8.65211 17.7502 8.61715 19.3237 8.15379 20.6684C8.29588 20.7848 8.4521 20.8832 8.61876 20.9616C8.69194 20.9977 8.76674 21.0354 8.84315 21.0828C8.71991 20.8589 8.61526 20.6255 8.53016 20.3848C8.60684 20.1119 8.66122 19.8333 8.69273 19.5518C8.73827 20.0595 8.95286 20.5888 9.226 21.0708C9.29063 21.2696 9.37647 21.461 9.48204 21.6419C9.12108 21.4142 8.73279 21.2317 8.32615 21.0989C8.18562 21.0114 8.05167 20.9139 7.9254 20.8073C6.90438 20.519 6.08177 18.3084 7.12307 16.0232H7.12633ZM10.3388 21.8957C10.4268 22.1 10.5315 22.297 10.6518 22.4845C10.6518 22.5303 10.6396 22.5753 10.6364 22.6194C10.4592 22.4173 10.2662 22.2293 10.0592 22.0572C10.0421 22.0114 10.0267 21.9648 10.0113 21.9182C9.19022 20.8965 8.97645 19.5824 10.6428 17.7333C11.8045 19.49 11.1607 21.2001 10.3356 21.8957H10.3388ZM7.28076 21.1511C7.93575 21.2286 8.56866 21.4339 9.14261 21.7552C9.71659 22.0765 10.2202 22.5073 10.6242 23.0227C10.6469 23.7826 10.9176 24.4243 11.433 24.9127C11.3704 24.8894 11.3062 24.8702 11.2436 24.8533C9.29105 25.2372 8.4302 24.4773 7.28076 21.1511ZM11.3216 21.0612C12.4654 22.1921 12.6076 23.3512 12.1345 24.6637C12.3146 24.908 12.5107 25.1403 12.7214 25.3593C12.8153 25.662 12.9387 25.9549 13.0896 26.2341C12.6938 25.8927 12.2117 25.4308 11.8744 24.9199C10.881 24.1858 10.5705 22.8717 11.3216 21.0587V21.0612ZM13.7221 26.6341C13.0937 25.9047 12.7263 24.777 12.6946 23.3817C14.0472 23.8797 14.8894 24.8348 15.2413 26.0284C14.6841 26.07 14.1535 26.2807 13.7221 26.6317V26.6341ZM21.1413 28.5249L20.2975 29.2165L20.2626 29.2093C19.4188 28.9964 18.6465 28.3803 17.9661 27.8341C17.6515 27.5835 17.3467 27.3417 17.0533 27.1514C16.2168 28.047 14.7187 28.1819 13.2433 27.5152C14.3382 26.0967 15.751 25.9762 17.0517 26.8542C17.3465 26.9913 17.6293 27.1525 17.897 27.3361C18.5896 27.7771 19.4521 28.3281 20.9811 28.5097L21.1413 28.5249Z" fill="#FBBC55"/>
<path fill-rule="evenodd" clip-rule="evenodd" d="M33.5529 17.7213C33.5529 26.0004 26.7613 32.7115 18.3845 32.7115C10.0077 32.7115 3.21523 26.0004 3.21523 17.7213C3.21523 9.44223 10.0061 2.73271 18.3845 2.73271C26.7629 2.73271 33.5529 9.44382 33.5529 17.7213ZM31.9125 17.7213C31.9125 15.0772 31.119 12.4925 29.6324 10.2941C28.1458 8.09568 26.0329 6.38218 23.5607 5.37041C21.0886 4.35859 18.3684 4.0939 15.744 4.60979C13.1196 5.12568 10.7091 6.399 8.81703 8.26868C6.925 10.1384 5.63659 12.5205 5.11467 15.1137C4.59275 17.707 4.86078 20.395 5.88485 22.8377C6.90895 25.2805 8.6431 27.3683 10.868 28.8371C13.093 30.306 15.7087 31.0899 18.3845 31.0897C21.9724 31.0895 25.4133 29.681 27.9503 27.1739C30.4873 24.6669 31.9125 21.2667 31.9125 17.7213Z" fill="#FBBC55" stroke="#FBBC55" stroke-miterlimit="10"/>
</g>
<defs>
<clipPath id="clip0">
<rect width="161" height="35" fill="white" transform="translate(0.728516 0.274719)"/>
</clipPath>
</defs>
</svg>
