<svg width="133" height="44" viewBox="0 0 133 44" fill="none" xmlns="http://www.w3.org/2000/svg">
<path d="M28.077 15.495H34.4376C37.7852 15.495 39.8196 13.963 40.7467 10.7138L41.2622 8.92143C42.4464 4.79172 40.5147 2.21733 36.2919 2.21733H8.63501L3.48584 20.3274H26.7125L28.077 15.495ZM30.472 7.10234H36.2589L35.1849 11.0256H29.365L30.472 7.10234Z" fill="#EAE200"/>
<path d="M43.6314 20.3274L45.3312 17.2874H53.2112V20.3274H58.3868V2.19138H48.2152L37.6312 20.3274H43.6314ZM51.074 7.12836H53.2112V12.8966H47.8034L51.074 7.12836Z" fill="#EAE200"/>
<path d="M79.5028 10.532L79.9651 8.89547C81.1513 4.7118 79.2169 2.19138 74.9967 2.19138H65.1604L60.0067 20.3274H65.3889L66.8063 15.3391H70.1538L71.6722 20.3274H77.209L75.5861 14.9987C77.5462 14.4033 78.8333 12.9226 79.5028 10.532ZM73.8634 10.9983H68.044L69.151 7.07505H74.9454L73.8634 10.9983Z" fill="#EAE200"/>
<path d="M84.5503 20.3274L89.7009 2.19138H84.2931L79.1685 20.3274H84.5503Z" fill="#EAE200"/>
<path d="M51.5625 22.8998L45.4852 30.1488L42.9874 22.8998H19.6821L14.558 41.0618H37.7853L40.6182 31.0326L42.4982 36.6443H45.9744L50.9964 30.6683L48.0347 41.0618H53.4161L58.5411 22.8998H51.5625Z" fill="#EAE200"/>
<path d="M55.1417 41.0359H61.1421L62.8452 37.9958H70.7215V41.0359H75.8974V22.9258L65.7496 22.8998L55.1417 41.0359ZM70.7215 27.8628V33.631H65.3396L68.5842 27.8628H70.7215Z" fill="#EAE200"/>
<path d="M95.5709 22.8998H79.2191L77.7517 28.0966H83.674L79.9915 41.0618H85.3737L89.0562 28.0966H94.1035L95.5709 22.8998Z" fill="#EAE200"/>
<path d="M101.289 28.0965H109.452L110.946 22.9258H102.242C98.8942 22.9258 96.8595 24.4577 95.9328 27.7069L94.0271 34.3324C92.8169 38.5674 94.7735 41.0359 98.9971 41.0359H105.77L107.238 35.865H99.0744L101.289 28.0965Z" fill="#EAE200"/>
<path d="M124.851 22.8998L122.997 29.3954H116.842L118.671 22.8998H113.288L108.164 41.0618H113.546L115.374 34.5662H121.529L119.7 41.0618H125.108L130.233 22.8998H124.851Z" fill="#EAE200"/>
</svg>
