<svg width="121" height="40" viewBox="0 0 121 40" fill="none" xmlns="http://www.w3.org/2000/svg">
<path d="M89.8703 17.2141C90.2722 17.2093 90.6634 17.0861 90.9953 16.8599C91.3268 16.6338 91.5839 16.3148 91.7345 15.943C91.885 15.5713 91.9217 15.1635 91.8404 14.771C91.7591 14.3784 91.563 14.0186 91.2774 13.7369C90.9915 13.4552 90.6287 13.2641 90.2341 13.1877C89.8398 13.1113 89.4318 13.153 89.0609 13.3076C88.6902 13.4622 88.3738 13.7227 88.1513 14.0564C87.9284 14.39 87.8098 14.782 87.8098 15.1828C87.8111 15.4513 87.8657 15.7168 87.9702 15.9642C88.0745 16.2116 88.2267 16.4361 88.418 16.6247C88.6093 16.8134 88.8363 16.9626 89.0855 17.0637C89.3348 17.1648 89.6015 17.2159 89.8703 17.2141Z" fill="#E63420"/>
<path fill-rule="evenodd" clip-rule="evenodd" d="M2.52936 23.8506H118.893V30.7155C118.887 32.4157 118.21 34.0452 117.009 35.2509C116.418 35.8448 115.715 36.3159 114.941 36.6378C114.166 36.9594 113.336 37.1253 112.497 37.1256H8.9215C8.08308 37.1274 7.25271 36.9628 6.47844 36.6419C5.70238 36.3203 4.9977 35.8489 4.40511 35.2547C3.81041 34.6587 3.33903 33.9518 3.01785 33.1743C2.69541 32.395 2.52884 31.5603 2.52754 30.7173L2.52936 23.8506ZM12.4833 33.5795C12.9829 33.5898 13.4765 33.4693 13.9148 33.23C14.3319 32.9881 14.6761 32.6386 14.9112 32.2182L14.059 31.674C13.9016 31.9421 13.6819 32.1685 13.4184 32.3343C13.1354 32.5023 12.8101 32.5862 12.4809 32.5762C12.2084 32.579 11.9384 32.5233 11.6894 32.4129C11.4602 32.3097 11.2557 32.159 11.0894 31.9709C10.9178 31.7786 10.7853 31.555 10.699 31.3123C10.6068 31.0521 10.5603 30.778 10.5615 30.502C10.5604 30.2246 10.6069 29.9491 10.699 29.6874C10.7843 29.4434 10.9151 29.2177 11.0845 29.0222C11.251 28.8303 11.4563 28.6758 11.687 28.5687C11.937 28.4562 12.209 28.4004 12.4833 28.4054C12.7968 28.3937 13.1077 28.4657 13.3839 28.614C13.6616 28.7633 13.8946 28.9834 14.059 29.252L14.9154 28.6908C14.6645 28.2765 14.3057 27.9378 13.8772 27.7106C13.4452 27.4936 12.9669 27.3847 12.4833 27.3931C12.0623 27.3907 11.6454 27.4758 11.2591 27.6428C10.8982 27.7969 10.5725 28.0224 10.3015 28.3056C10.0318 28.5903 9.82044 28.9247 9.67904 29.2901C9.5274 29.6753 9.45087 30.0858 9.45361 30.4996C9.44885 30.9177 9.52074 31.3331 9.66574 31.7254C9.79657 32.0906 10.0031 32.4242 10.2718 32.7044C10.5381 32.9846 10.8607 33.2055 11.2184 33.3527C11.6205 33.5122 12.0507 33.5894 12.4833 33.5795ZM20.2409 28.5348H22.0591L22.0433 27.52H17.3124V28.5348H19.1154V33.4682H20.2409V28.5348ZM27.9518 32.2019L28.4542 33.4682H29.653L27.0287 27.4203H26.5348L23.9379 33.4682H25.1075L25.6057 32.2019H27.9518ZM33.77 33.4682C34.4918 33.4682 35.0282 33.3188 35.3937 33.0147C35.5771 32.8604 35.7225 32.6659 35.8178 32.4462C35.9128 32.2263 35.956 31.9876 35.9447 31.7483C35.9683 31.3979 35.8631 31.0509 35.6488 30.7723C35.4438 30.5249 35.1664 30.3479 34.8554 30.2662C35.0745 30.1538 35.2596 29.9854 35.3916 29.7781C35.5487 29.4768 35.6042 29.1329 35.5497 28.7976C35.4948 28.4623 35.3334 28.1536 35.0889 27.9174C34.687 27.6278 34.1966 27.4873 33.7021 27.52H32.0591V33.4682H33.77ZM39.6955 30.5588L42.1638 33.4682H43.5959L40.9682 30.4113L43.493 27.52H42.1723L39.6955 30.3297V27.52H38.5682V33.4682H39.6955V30.5588ZM49.7779 33.4682H50.847L50.859 27.465H50.3567L47.0395 31.2688V27.5195H45.9688V33.5063H46.4628L49.7748 29.7025V33.4652L49.7779 33.4682ZM61.8033 33.4682H62.9299L62.9368 27.52H61.8071V29.9323H59.019V27.52H57.8916V33.4682H59.019V30.9562H61.8016V33.4682H61.8033ZM69.3681 32.2019L69.867 33.4682H71.0615L68.4348 27.4209H67.9415L65.344 33.4621H66.5142L67.0171 32.2025L69.3681 32.2019ZM80.0118 33.5795C80.513 33.5903 81.0081 33.4698 81.448 33.23H81.4524C81.8731 32.9888 82.2208 32.6383 82.4577 32.2158L81.6095 31.6715C81.4494 31.9374 81.2282 32.1614 80.9646 32.3253C80.681 32.4925 80.356 32.5764 80.0269 32.5672C79.7543 32.5708 79.4841 32.5157 79.2348 32.4057C79.0038 32.3026 78.7974 32.152 78.6287 31.9636C78.4576 31.7714 78.3259 31.5477 78.2409 31.3051C78.1473 31.0452 78.1007 30.7709 78.1034 30.4947C78.1007 30.2167 78.1473 29.9403 78.2409 29.6784C78.3246 29.4341 78.4545 29.2082 78.6239 29.0131C78.7912 28.8206 78.9979 28.6659 79.23 28.5596C79.4796 28.4458 79.7515 28.3892 80.0258 28.3939C80.3385 28.3848 80.6478 28.4591 80.922 28.6092C81.197 28.7603 81.4271 28.9813 81.5889 29.2496L82.445 28.6957C82.1947 28.2805 81.8358 27.9416 81.4062 27.7154C80.9745 27.4979 80.4959 27.3887 80.0124 27.3973C79.5911 27.3922 79.1735 27.4745 78.7857 27.6392C78.4257 27.7947 78.1007 28.0209 77.8298 28.3044C77.5614 28.5897 77.3508 28.9245 77.2106 29.2901C77.0601 29.6756 76.9836 30.0859 76.985 30.4996C76.9809 30.9174 77.0519 31.3326 77.1948 31.7254C77.3289 32.0881 77.535 32.4201 77.801 32.7014C78.0695 32.9812 78.3935 33.2022 78.7524 33.3503C79.1526 33.5102 79.5808 33.5882 80.0118 33.5795ZM88.6826 33.4682H89.79V27.52H84.9592V33.4682H86.0858V28.5348H88.6809L88.6826 33.4682ZM97.6171 32.6875C97.89 32.4052 98.1033 32.071 98.2439 31.7048H98.248C98.3985 31.3163 98.4736 30.9027 98.4695 30.4863C98.4722 30.0739 98.4012 29.6643 98.2596 29.2768C98.1266 28.9109 97.9202 28.5758 97.6535 28.2917C97.3847 28.0081 97.059 27.7839 96.6979 27.6338C96.2995 27.4705 95.8727 27.3895 95.4421 27.3955C95.0258 27.3908 94.6134 27.4719 94.23 27.6338C93.8707 27.7875 93.5457 28.0112 93.2742 28.2917C93.0026 28.5759 92.7897 28.9106 92.6474 29.2768C92.4969 29.6623 92.4204 30.0726 92.4222 30.4863C92.4187 30.9017 92.4897 31.3143 92.6317 31.7048C92.7633 32.0707 92.9697 32.4053 93.2378 32.6875C93.5073 32.9675 93.831 33.1899 94.1893 33.3412C94.5866 33.5051 95.0131 33.5862 95.4427 33.5795C95.8586 33.5833 96.2714 33.5022 96.6547 33.3412C97.0151 33.1884 97.3415 32.9663 97.6154 32.6875H97.6171ZM102.913 31.4351C103.614 31.4284 104.155 31.2464 104.532 30.8908H104.536C104.729 30.7034 104.879 30.4765 104.976 30.2256C105.072 29.974 105.114 29.7047 105.097 29.4359C105.112 29.1747 105.071 28.9135 104.976 28.6697C104.881 28.4262 104.735 28.2061 104.546 28.0244C104.177 27.689 103.638 27.5211 102.93 27.5207H101.112V33.4779H102.239V31.4351H102.913ZM110.378 28.5324H112.196L112.191 27.5176H107.457V28.5324H109.26V33.4658H110.377L110.378 28.5324ZM96.1847 28.735C96.402 28.8264 96.5964 28.9648 96.7535 29.1402C96.9132 29.3194 97.0367 29.5276 97.1172 29.7533C97.288 30.2472 97.288 30.784 97.1172 31.2779C97.0363 31.5034 96.9129 31.7113 96.7535 31.8904C96.5961 32.0658 96.4017 32.2044 96.1847 32.2962C95.9505 32.3951 95.6985 32.4443 95.4444 32.4408C95.1911 32.4448 94.9398 32.3956 94.707 32.2962C94.4916 32.2033 94.299 32.0649 94.1426 31.8904C93.9825 31.712 93.8591 31.5039 93.7792 31.2779C93.6054 30.7845 93.6054 30.2467 93.7792 29.7533C93.8587 29.5272 93.9825 29.3188 94.1426 29.1402C94.299 28.9659 94.4916 28.8276 94.707 28.735C94.9398 28.6352 95.1911 28.5857 95.4444 28.5898C95.6985 28.5862 95.9508 28.6356 96.1847 28.735ZM25.9985 31.137H27.5633L26.7863 29.3155L25.9985 31.137ZM33.9379 30.9864H33.1985V32.4347H33.8906C34.1919 32.4565 34.4929 32.3878 34.7548 32.2376C34.8411 32.1773 34.9115 32.0973 34.9603 32.0042C35.0059 31.9164 35.0268 31.818 35.021 31.7193C35.0255 31.6186 35.0046 31.5184 34.9603 31.4278C34.9128 31.3337 34.8451 31.2511 34.7621 31.1859C34.5173 31.0296 34.2272 30.9594 33.9379 30.9864ZM67.4656 31.137H68.9262L68.199 29.3155L67.4656 31.137ZM34.4548 29.5568C34.4185 29.6456 34.3621 29.7249 34.29 29.7884C34.1061 29.9356 33.8729 30.0074 33.6378 29.9892H33.1978V28.5898H33.6378C33.8699 28.5716 34.1009 28.6358 34.29 28.7713C34.3622 28.8332 34.4189 28.9112 34.4554 28.9991C34.4919 29.0869 34.5073 29.182 34.5003 29.2768C34.5069 29.3724 34.4913 29.4682 34.4548 29.5568ZM102.932 28.5892H102.241V30.5606H102.934C103.237 30.5823 103.538 30.491 103.777 30.3042C103.963 30.1066 104.066 29.8459 104.066 29.5749C104.066 29.304 103.963 29.0433 103.777 28.8456C103.537 28.6589 103.236 28.5678 102.932 28.5898V28.5892Z" fill="#4BB79D"/>
<path d="M24.9242 4.73195C24.923 5.0927 24.849 5.44952 24.7067 5.78116C24.5644 6.11279 24.3566 6.41244 24.0958 6.66225C23.5572 7.17606 22.8409 7.46281 22.0958 7.46281C21.3507 7.46281 20.6343 7.17606 20.0957 6.66225C19.8339 6.41299 19.6256 6.11331 19.4832 5.78136C19.3408 5.44942 19.2673 5.09209 19.2673 4.73103C19.2673 4.36997 19.3408 4.01264 19.4832 3.6807C19.6256 3.34875 19.8339 3.04908 20.0957 2.79982C20.6343 2.28601 21.3507 1.99926 22.0958 1.99926C22.8409 1.99926 23.5572 2.28601 24.0958 2.79982C24.3569 3.0498 24.5648 3.34973 24.7072 3.68169C24.8495 4.01367 24.9233 4.37086 24.9242 4.73195ZM24.9242 9.08599H19.2709V22.225H24.9267L24.9242 9.08599ZM52.386 14.6411V9.08842H43.3829V14.6411H52.386Z" fill="#E63420"/>
<path fill-rule="evenodd" clip-rule="evenodd" d="M10.1532 17.2093C12.1746 17.2096 14.1135 16.4087 15.5431 14.9827C16.9729 13.5567 17.7763 11.6225 17.7768 9.60542C17.7766 8.60661 17.5793 7.61762 17.1961 6.69493C16.8129 5.77223 16.2513 4.93387 15.5433 4.22773C14.8354 3.52157 13.9951 2.96147 13.0702 2.5794C12.1454 2.19732 11.1541 2.00075 10.1532 2.00091C9.15218 2.00075 8.16098 2.19733 7.23616 2.57941C6.31133 2.96149 5.47099 3.5216 4.76313 4.22776C4.05526 4.9339 3.49372 5.77227 3.11057 6.69496C2.72743 7.61769 2.53018 8.60664 2.53011 9.60542V22.225H8.04526V16.9148V9.60542C8.0454 9.04748 8.26761 8.51246 8.66299 8.11795C9.05837 7.72343 9.5946 7.50171 10.1537 7.50154C10.713 7.50154 11.2494 7.72319 11.6449 8.11771C12.0404 8.51226 12.2627 9.04738 12.2628 9.60542C12.2625 10.1633 12.0402 10.6983 11.6447 11.0927C11.2492 11.4871 10.7129 11.7086 10.1537 11.7086C9.9905 11.7084 9.82781 11.6896 9.6689 11.6524V17.1942C9.82949 17.2045 9.99194 17.2093 10.1537 17.2093H10.1532ZM78.5596 17.2093C80.0672 17.2089 81.5404 16.7626 82.7936 15.9268C84.0467 15.0909 85.0232 13.9031 85.5995 12.5135C86.1762 11.1239 86.3267 9.59492 86.0325 8.1199C85.738 6.64488 85.0122 5.29007 83.9463 4.22677C82.8803 3.16345 81.5223 2.43942 80.0439 2.14622C78.5655 1.85301 77.0332 2.0038 75.6405 2.57951C74.2482 3.15522 73.0581 4.12999 72.2209 5.38059C71.3836 6.63119 70.9365 8.10142 70.9369 9.60542V22.225H76.4521V9.60542C76.4517 9.18911 76.5752 8.78208 76.8069 8.43583C77.0384 8.08959 77.3679 7.81966 77.7532 7.66021C78.1386 7.50075 78.5627 7.45895 78.9721 7.54006C79.3811 7.62118 79.7572 7.82158 80.0521 8.11589C80.3473 8.41024 80.5482 8.78526 80.6295 9.19356C80.7111 9.60186 80.6692 10.0251 80.5095 10.4097C80.3497 10.7943 80.0795 11.123 79.7325 11.3542C79.3856 11.5854 78.9776 11.7088 78.5603 11.7086C78.3971 11.7084 78.2346 11.6895 78.0755 11.6524V17.1942C78.237 17.2043 78.3988 17.2093 78.5603 17.2093H78.5596ZM41.7567 9.60542V22.225H36.2415V9.76748C36.2415 9.2095 36.0196 8.67438 35.624 8.27983C35.2287 7.88528 34.6923 7.66363 34.1331 7.66363C33.5739 7.66363 33.0376 7.88528 32.6422 8.27983C32.2468 8.67438 32.0247 9.2095 32.0247 9.76748V16.9154V22.2255H26.5095V9.60542C26.5274 7.59976 27.3385 5.68233 28.7662 4.27039C30.1939 2.85847 32.1227 2.06632 34.1328 2.06632C36.1431 2.06632 38.0716 2.85847 39.4996 4.27039C40.9273 5.68233 41.7381 7.59976 41.7563 9.60542H41.7567ZM54.1084 14.6204V2.00091H59.6233V14.4584C59.6233 15.0164 59.8455 15.5515 60.2411 15.946C60.6364 16.3406 61.1727 16.5622 61.7319 16.5622C62.2911 16.5622 62.8273 16.3406 63.2229 15.946C63.6183 15.5515 63.8404 15.0164 63.8404 14.4584V2.00091H69.3556V14.6204C69.3378 16.6261 68.5266 18.5435 67.0989 19.9554C65.6713 21.3674 63.7424 22.1596 61.7322 22.1596C59.722 22.1596 57.7935 21.3674 56.3655 19.9554C54.9378 18.5435 54.1269 16.6261 54.1088 14.6204H54.1084ZM107.449 11.494V1.9997H111.589V11.373C111.589 11.5805 111.631 11.7859 111.71 11.9775C111.79 12.1692 111.906 12.3433 112.053 12.4899C112.2 12.6366 112.375 12.753 112.567 12.8324C112.759 12.9117 112.965 12.9526 113.172 12.9526C113.381 12.9526 113.586 12.9117 113.778 12.8324C113.97 12.753 114.145 12.6366 114.292 12.4899C114.439 12.3433 114.556 12.1692 114.635 11.9775C114.715 11.7859 114.755 11.5805 114.755 11.373V1.9997H118.895V11.494C118.903 12.2489 118.761 12.9978 118.477 13.6975C118.193 14.3972 117.773 15.0337 117.24 15.5703C116.708 16.1068 116.074 16.5328 115.376 16.8235C114.678 17.1142 113.929 17.2638 113.172 17.2638C112.416 17.2638 111.667 17.1142 110.968 16.8235C110.27 16.5328 109.637 16.1068 109.104 15.5703C108.572 15.0337 108.152 14.3972 107.867 13.6975C107.584 12.9978 107.441 12.2489 107.449 11.494ZM97.6029 17.2141V5.07598H98.8969C99.2487 5.07762 99.5922 5.18306 99.8843 5.37905C100.176 5.57504 100.404 5.85283 100.538 6.17749C100.673 6.50211 100.708 6.85914 100.639 7.2036C100.571 7.5481 100.401 7.86469 100.153 8.11353C98.41 9.52557 98.41 8.92326 98.41 11.0163V12.0721L101.869 17.2123H106.497L102.232 10.7864C103.181 10.3388 103.948 9.58264 104.409 8.64215C104.87 7.70167 104.997 6.63273 104.769 5.61086C104.541 4.58896 103.971 3.67482 103.153 3.01852C102.336 2.36221 101.319 2.00273 100.27 1.9991H93.5579V17.2141H97.6029Z" fill="#E63420"/>
</svg>
