<svg width="130" height="29" viewBox="0 0 130 29" fill="none" xmlns="http://www.w3.org/2000/svg">
<path fill-rule="evenodd" clip-rule="evenodd" d="M128.03 13.9378C128.032 12.3775 127.727 10.8324 127.133 9.39073C126.54 7.94906 125.669 6.63915 124.571 5.53591C123.474 4.43264 122.17 3.5577 120.736 2.9611C119.302 2.36451 117.765 2.05796 116.212 2.05901C109.678 2.05901 104.346 7.37081 104.346 13.9378C104.346 20.5536 109.678 25.8654 116.212 25.8654C122.747 25.8654 128.03 20.5536 128.03 13.9378Z" fill="#E6E12C"/>
<path d="M23.6735 15.6702H29.3429V12.1573H23.6735V10.0205H29.6791V6.50701H19.5056V21.8029H30.0152V18.2901H23.6735V15.6702Z" fill="white"/>
<path d="M44.4885 12.0544C44.4885 12.9215 44.4952 13.8224 44.526 14.7509C44.1123 14.0823 43.6651 13.4112 43.1926 12.7506L38.7986 6.50763H34.3032V21.8029H38.5189V16.111C38.5189 14.9396 38.5059 13.9246 38.4784 13.002C38.9201 13.728 39.4211 14.5199 39.9935 15.3943L44.4971 21.8029H48.6563V6.50763H44.4885V12.0544Z" fill="white"/>
<path d="M1.97006 10.0686H6.58245V21.8029H10.99V10.0686H15.6982V6.50701H1.97006V10.0686Z" fill="white"/>
<path d="M63.7062 12.0544C63.7062 13.0027 63.7162 13.8857 63.7474 14.7363C63.341 14.0738 62.9083 13.4099 62.4556 12.7539L58.0623 6.51096H53.5688V21.8029H57.7366V16.111C57.7366 15.0016 57.725 13.9735 57.7005 12.9908C58.1656 13.7546 58.6885 14.5615 59.2706 15.4114L63.7121 21.8029H67.9219V6.50763H63.7062V12.0544Z" fill="white"/>
<path d="M99.679 6.50701H95.2709V21.8029H99.679V6.50701Z" fill="white"/>
<path d="M77.3875 6.50701H72.979V21.8029H77.3875V6.50701Z" fill="white"/>
<path d="M86.9271 12.352C84.996 11.5865 84.7847 11.2618 84.7847 10.751C84.7847 10.1809 85.3756 9.82714 86.3283 9.82714C87.1499 9.82688 87.9607 10.0159 88.6984 10.3795L89.4468 10.755L90.5039 7.40454L89.9787 7.12339C88.9773 6.5862 87.7654 6.31434 86.3755 6.31434C83.098 6.31434 80.8085 8.23801 80.8085 10.9926C80.8085 13.1215 82.1702 14.6526 84.9711 15.6728C86.7666 16.3763 86.91 16.8165 86.91 17.318C86.91 18.37 85.6958 18.4835 85.1739 18.4835C83.9356 18.4835 82.8439 18.0737 82.2849 17.7232L81.4741 17.2144L80.5017 20.7173L80.9333 21.0064C81.8307 21.6083 83.5534 22.0445 85.0287 22.0445C89.3502 22.0445 90.8842 19.3942 90.8842 17.1253C90.8842 14.8914 89.6634 13.4192 86.9271 12.352Z" fill="white"/>
<path d="M109.667 17.4045C109.794 17.9198 109.945 18.5263 109.979 18.8689L111.145 18.5771L110.994 17.7694L111.041 17.7575C111.577 18.3204 112.252 18.4498 112.951 18.2749C114.117 17.9839 115.097 16.7432 114.622 14.8222C114.274 13.2172 113.075 12.3724 111.769 12.6985C110.977 12.8965 110.452 13.3762 110.253 13.9735L109.465 10.7873L108.113 11.1252L109.667 17.4045ZM110.624 15.4735C110.589 15.3639 110.577 15.248 110.59 15.1336C110.579 14.4895 110.999 13.986 111.509 13.858C112.442 13.625 113.047 14.2698 113.278 15.2069C113.546 16.2845 113.195 17.0692 112.359 17.2791C111.799 17.419 111.243 17.1603 110.961 16.633C110.902 16.5541 110.861 16.4616 110.845 16.3638L110.624 15.4735ZM120.379 13.8797C120.344 13.7392 120.344 13.5399 120.287 13.3056C119.996 12.1342 119.089 10.8685 117.364 11.2994C115.64 11.7304 115.089 13.3116 115.46 14.8109C115.854 16.4047 117.147 17.2256 118.874 16.7947C119.62 16.6079 120.238 16.3044 120.6 15.9645L120.194 15.1211C119.768 15.3978 119.299 15.5987 118.806 15.715C117.92 15.9361 117.07 15.7012 116.836 14.7641L120.379 13.8797ZM116.604 13.8289C116.511 13.2548 116.652 12.4233 117.491 12.2134C118.377 11.9917 118.804 12.7301 118.936 13.2456L116.604 13.8289ZM120.734 9.51167L120.977 10.4956L120.233 10.6824L120.489 11.7132L121.235 11.5264L121.85 14.0104C122.024 14.7133 122.279 15.1468 122.638 15.4049C122.929 15.5811 123.395 15.6636 123.908 15.5369C124.327 15.4319 124.63 15.2564 124.852 15.1514L124.55 14.1319C124.419 14.2137 124.282 14.2486 124.049 14.3067C123.536 14.4354 123.269 14.1536 123.118 13.5445L122.538 11.2018L123.797 10.887L123.541 9.85547L122.283 10.1703L121.946 8.81149L120.734 9.51167Z" fill="#991915"/>
</svg>
