<svg width="127" height="32" viewBox="0 0 127 32" fill="none" xmlns="http://www.w3.org/2000/svg">
<path d="M110.58 2.06225H17.1304C9.19635 2.06225 2.76453 8.14856 2.76453 15.6564C2.76453 23.1642 9.19635 29.2505 17.1304 29.2505H110.58C118.514 29.2505 124.946 23.1642 124.946 15.6564C124.946 8.14856 118.514 2.06225 110.58 2.06225Z" fill="white"/>
<path d="M16.7886 4.253H100.219C100.269 4.25283 100.317 4.26721 100.358 4.29416C100.399 4.3211 100.43 4.35929 100.447 4.40354C100.464 4.44776 100.466 4.49586 100.453 4.54124C100.44 4.58661 100.412 4.62708 100.374 4.65706C98.903 5.80842 95.0341 9.42752 95.0341 15.6582C95.0341 21.8269 98.8253 25.5062 100.329 26.7226C100.37 26.7568 100.4 26.8023 100.414 26.853C100.428 26.9037 100.425 26.9572 100.406 27.0064C100.387 27.0555 100.352 27.0978 100.307 27.1277C100.261 27.1576 100.207 27.1737 100.152 27.1736H16.9414C10.2106 27.1736 4.75372 22.0094 4.75372 15.6413C4.75372 9.35162 10.1418 4.253 16.7886 4.253Z" fill="#272727"/>
<path d="M110.728 27.2357C117.435 27.2357 122.872 22.0908 122.872 15.7443C122.872 9.39785 117.435 4.25301 110.728 4.25301C104.021 4.25301 98.5845 9.39785 98.5845 15.7443C98.5845 22.0908 104.021 27.2357 110.728 27.2357Z" fill="#ED6D24"/>
<path d="M14.4896 8.93605H15.5466C15.8061 8.93612 16.0581 9.01894 16.2618 9.17114C16.4654 9.32332 16.6089 9.53602 16.6692 9.77489L18.9283 18.7244H19.0396L21.3884 12.345C21.463 12.1427 21.6021 11.9673 21.7866 11.8432C21.971 11.719 22.1917 11.6522 22.4181 11.6519H23.6418C23.8835 11.652 24.1194 11.7222 24.3177 11.853C24.5161 11.9838 24.6673 12.1689 24.751 12.3835L27.2207 18.725H27.2895L29.5517 10.1181C29.6405 9.78068 29.846 9.48104 30.1356 9.26694C30.4252 9.05283 30.7821 8.93656 31.1496 8.93667H31.6059C31.7661 8.93667 31.9241 8.97199 32.0675 9.03978C32.2108 9.10761 32.3354 9.20606 32.4316 9.32737C32.5277 9.44864 32.5927 9.58944 32.6213 9.73861C32.65 9.88779 32.6416 10.0412 32.5967 10.1868L29.0127 21.8118C28.9524 22.0072 28.8268 22.1789 28.6547 22.3011C28.4826 22.4233 28.2733 22.4896 28.0582 22.4898H26.4475C26.2023 22.4897 25.9634 22.4162 25.7649 22.28C25.5664 22.1437 25.4185 21.9516 25.3422 21.7311L23.1219 15.298H23.0048L20.7006 21.8618C20.6369 22.0447 20.514 22.2039 20.3493 22.3169C20.1846 22.4298 19.9864 22.4908 19.7829 22.491H18.2028C17.9555 22.4909 17.7149 22.4151 17.5169 22.2748C17.3189 22.1346 17.1742 21.9375 17.1044 21.713L13.5192 10.1645C13.4748 10.0217 13.4662 9.87106 13.494 9.72458C13.5218 9.57806 13.5854 9.43972 13.6795 9.32049C13.7738 9.20126 13.896 9.10444 14.0366 9.03771C14.1772 8.97101 14.3323 8.93619 14.4896 8.93605Z" fill="white"/>
<path d="M35.9001 8.70118H37.1729C37.2769 8.70118 37.3802 8.7206 37.4764 8.75835C37.5728 8.79609 37.66 8.85141 37.7338 8.92115C37.8076 8.99088 37.8659 9.07366 37.9055 9.16479C37.9454 9.25588 37.966 9.35351 37.9656 9.4521V10.4649C37.9656 10.643 37.8911 10.8138 37.7579 10.9397C37.625 11.0656 37.4443 11.1364 37.256 11.1364H35.832C35.6216 11.1364 35.4197 11.0572 35.2709 10.9164C35.1221 10.7756 35.0385 10.5846 35.0385 10.3855V9.51413C35.0392 9.29829 35.1302 9.09151 35.2917 8.93913C35.4533 8.78676 35.672 8.70118 35.9001 8.70118Z" fill="white"/>
<path d="M35.8611 12.3083H37.1923C37.3993 12.3085 37.5973 12.3863 37.7434 12.5247C37.8899 12.6632 37.972 12.8508 37.972 13.0466V21.9082C37.9717 22.1081 37.8878 22.2997 37.7384 22.4411C37.589 22.5825 37.3863 22.6619 37.175 22.6621H35.8063C35.7055 22.6625 35.6056 22.644 35.5124 22.6077C35.4192 22.5714 35.3344 22.5179 35.2632 22.4505C35.1919 22.383 35.1354 22.3028 35.097 22.2146C35.0586 22.1264 35.0391 22.0319 35.0395 21.9365V13.0845C35.0399 12.8785 35.1265 12.6811 35.2806 12.5356C35.4346 12.39 35.6434 12.3083 35.8611 12.3083Z" fill="white"/>
<path d="M42.0786 12.2619H43.2875C43.5302 12.2619 43.7627 12.3531 43.9341 12.5153C44.1058 12.6776 44.2019 12.8977 44.2019 13.1272V13.5042C44.2019 13.5042 45.3251 12.0891 47.3749 12.0891C49.4248 12.0891 51.2079 12.9369 51.2079 16.4205V21.8973C51.2079 22.1135 51.1168 22.3209 50.9555 22.4738C50.7939 22.6267 50.5746 22.7126 50.346 22.7126H49.1836C48.9449 22.7126 48.7159 22.6229 48.5471 22.4633C48.3786 22.3036 48.2836 22.087 48.2836 21.8612V15.8027C48.2836 15.4408 48.1317 15.0937 47.8613 14.8378C47.5909 14.5819 47.2241 14.4381 46.8418 14.4381H46.5794C45.9483 14.4381 45.3431 14.6754 44.8971 15.0976C44.4507 15.5199 44.2001 16.0925 44.2001 16.6897V21.9653C44.2001 22.1635 44.117 22.3536 43.9686 22.4938C43.8207 22.6339 43.6198 22.7126 43.4103 22.7126H42.1377C41.9188 22.7126 41.7089 22.6306 41.5538 22.4844C41.3986 22.3383 41.3111 22.1399 41.3104 21.9328V12.9833C41.3104 12.8881 41.3306 12.794 41.3694 12.7062C41.408 12.6183 41.4648 12.5387 41.5361 12.4716C41.6074 12.4046 41.692 12.3516 41.7852 12.3156C41.8781 12.2796 41.9778 12.2613 42.0786 12.2619Z" fill="white"/>
<path d="M55.3058 8.76745H56.6777C56.8764 8.76745 57.0676 8.84226 57.208 8.97543C57.3488 9.10855 57.428 9.28914 57.428 9.47742V21.8317C57.428 21.9473 57.4038 22.0619 57.3574 22.1688C57.3106 22.2757 57.2418 22.3728 57.1554 22.4546C57.069 22.5364 56.9668 22.6013 56.8538 22.6456C56.7407 22.6899 56.6198 22.7126 56.4974 22.7126H55.4253C55.1931 22.7125 54.9706 22.6252 54.8068 22.47C54.6426 22.3147 54.5505 22.1042 54.5501 21.8846V9.48406C54.5498 9.39001 54.5692 9.29684 54.607 9.20987C54.6448 9.1229 54.7006 9.04386 54.7708 8.9773C54.8406 8.9107 54.9242 8.8579 55.016 8.82189C55.1078 8.78588 55.2064 8.76738 55.3058 8.76745Z" fill="white"/>
<path d="M61.6325 8.70118H62.9051C63.0091 8.70118 63.1124 8.7206 63.2085 8.75835C63.3047 8.79609 63.3921 8.85141 63.4659 8.92115C63.5394 8.99088 63.5981 9.07366 63.6377 9.16479C63.6776 9.25588 63.6981 9.35351 63.6978 9.4521V10.4649C63.6978 10.643 63.6233 10.8138 63.4901 10.9397C63.3569 11.0656 63.1765 11.1364 62.9882 11.1364H61.5648C61.4607 11.1364 61.3574 11.1169 61.2613 11.0792C61.1652 11.0414 61.0777 10.9862 61.0039 10.9164C60.9305 10.8467 60.8718 10.7639 60.8322 10.6728C60.7922 10.5817 60.7717 10.4841 60.7721 10.3855V9.51413C60.7724 9.2985 60.8635 9.09192 61.0248 8.93958C61.1861 8.7872 61.4046 8.70149 61.6325 8.70118Z" fill="white"/>
<path d="M61.5919 12.3083H62.92C63.127 12.3083 63.3253 12.3861 63.4715 12.5245C63.618 12.663 63.7001 12.8507 63.7001 13.0466V21.9082C63.7001 22.0074 63.6792 22.1055 63.6389 22.1971C63.5989 22.2887 63.5399 22.3719 63.4657 22.4419C63.3916 22.512 63.3034 22.5675 63.2065 22.6052C63.1093 22.643 63.0057 22.6623 62.9009 22.6621H61.5372C61.4364 22.6625 61.3363 22.644 61.2431 22.6077C61.1499 22.5714 61.0653 22.5179 60.994 22.4505C60.9227 22.383 60.8662 22.3028 60.8277 22.2146C60.7895 22.1264 60.7701 22.0319 60.7704 21.9365V13.0845C60.7708 12.8785 60.8572 12.6811 61.0113 12.5356C61.1653 12.39 61.3741 12.3083 61.5919 12.3083Z" fill="white"/>
<path d="M67.8103 12.2619H69.0195C69.1398 12.2618 69.2586 12.2841 69.3694 12.3276C69.4807 12.371 69.5815 12.4348 69.6664 12.5151C69.7514 12.5955 69.8187 12.6909 69.8648 12.7959C69.9109 12.9009 69.9346 13.0135 69.9346 13.1272V13.5042C69.9346 13.5042 71.0578 12.0891 73.1073 12.0891C75.1572 12.0891 76.9402 12.9369 76.9402 16.4205V21.8973C76.9402 22.0048 76.9179 22.1112 76.8744 22.2104C76.8304 22.3097 76.7667 22.3997 76.6861 22.4755C76.6054 22.5513 76.51 22.6113 76.4049 22.6519C76.2998 22.6926 76.1871 22.7133 76.0737 22.7126H74.9124C74.6737 22.7125 74.4451 22.6227 74.2762 22.463C74.1078 22.3034 74.0131 22.0869 74.0131 21.8612V15.8027C74.0131 15.4412 73.8615 15.0945 73.5915 14.8386C73.3215 14.5828 72.9554 14.4388 72.5734 14.4381H72.3114C71.6803 14.4381 71.0751 14.6754 70.6291 15.0976C70.1827 15.5199 69.9321 16.0925 69.9321 16.6897V21.9653C69.9321 22.1635 69.849 22.3536 69.7006 22.4937C69.5527 22.6339 69.3518 22.7126 69.1423 22.7126H67.8697C67.6515 22.7117 67.4423 22.6292 67.2883 22.4831C67.1338 22.3371 67.0471 22.1393 67.046 21.9328V12.9833C67.0463 12.7918 67.127 12.6082 67.2703 12.4729C67.4139 12.3376 67.6079 12.2617 67.8103 12.2619Z" fill="white"/>
<path d="M82.3622 18.2445H88.6744C88.8767 18.2445 89.0711 18.1684 89.2144 18.0328C89.3573 17.8973 89.438 17.7135 89.438 17.5219V16.5205C89.438 15.9386 89.317 15.3623 89.0816 14.8247C88.8465 14.2871 88.5016 13.7985 88.0667 13.387C87.6318 12.9755 87.1156 12.6491 86.5475 12.4264C85.9794 12.2037 85.3707 12.0891 84.7554 12.0891H84.3026C82.9018 12.0899 81.559 12.6167 80.5686 13.5539C79.5783 14.491 79.0213 15.7618 79.0206 17.0871V18.035C79.0206 18.678 79.1546 19.3147 79.4145 19.9088C79.6748 20.5029 80.056 21.0427 80.5362 21.4973C81.0168 21.952 81.5874 22.3127 82.2153 22.5587C82.8431 22.8047 83.516 22.9313 84.1956 22.9312H84.7173C87.5714 22.9312 89.2259 21.2831 89.2259 21.2831C89.2608 21.2245 89.2821 21.1598 89.2886 21.0929C89.295 21.0261 89.2864 20.9588 89.2637 20.8953C89.0884 20.4518 88.8152 20.0488 88.4624 19.7132C88.345 19.5979 88.1862 19.5284 88.0174 19.5185C87.8486 19.5086 87.6819 19.5589 87.5505 19.6596C86.2865 20.6442 84.7778 20.6448 84.7778 20.6448H84.1982C83.9109 20.6455 83.6261 20.5925 83.3604 20.4889C83.0948 20.3853 82.8532 20.233 82.6498 20.0409C82.4464 19.8488 82.2851 19.6206 82.1753 19.3693C82.0652 19.1181 82.0086 18.8488 82.009 18.5769C82.0097 18.4886 82.0472 18.4042 82.1134 18.3419C82.1793 18.2797 82.2689 18.2447 82.3622 18.2445ZM82.126 16.0116C82.1264 15.5199 82.333 15.0485 82.7006 14.701C83.0681 14.3534 83.5664 14.1581 84.0862 14.1581H84.6186C85.1316 14.1581 85.623 14.3509 85.9859 14.694C86.3484 15.037 86.5518 15.5024 86.5518 15.9876C86.5518 16.049 86.5263 16.108 86.4802 16.1515C86.4341 16.1949 86.3718 16.2194 86.307 16.2194H82.3449C82.3161 16.2194 82.2876 16.214 82.261 16.2036C82.2344 16.1931 82.2102 16.1778 82.1901 16.1585C82.1696 16.1392 82.1537 16.1163 82.1426 16.0911C82.1318 16.0659 82.126 16.0389 82.126 16.0116Z" fill="white"/>
<path d="M109.778 11.2979C108.096 11.2979 107.175 12.4589 107.175 12.4589V12.1493C107.175 12.056 107.156 11.9637 107.118 11.8775C107.08 11.7913 107.025 11.713 106.955 11.6471C106.885 11.5811 106.803 11.5289 106.712 11.4932C106.62 11.4576 106.523 11.4393 106.424 11.4394H105.434C105.268 11.4394 105.109 11.5017 104.991 11.6127C104.874 11.7237 104.808 11.8742 104.808 12.0313V19.3778C104.808 19.5475 104.879 19.7101 105.006 19.83C105.133 19.95 105.304 20.0173 105.484 20.0173H106.527C106.699 20.0173 106.864 19.9528 106.985 19.8378C107.107 19.7228 107.175 19.5669 107.175 19.4043V15.0729C107.175 14.8302 107.226 14.5899 107.324 14.3657C107.421 14.1415 107.565 13.9378 107.747 13.7661C107.928 13.5945 108.143 13.4584 108.38 13.3655C108.617 13.2726 108.871 13.2248 109.127 13.2248H109.342C109.442 13.2249 109.542 13.2368 109.638 13.2603C109.833 13.3092 110.039 13.2947 110.223 13.2189C110.407 13.1431 110.559 13.0107 110.654 12.843L110.734 12.6985C110.815 12.5536 110.854 12.3916 110.85 12.2281C110.845 12.0645 110.796 11.9048 110.708 11.7643C110.619 11.6237 110.494 11.5071 110.344 11.4254C110.194 11.3437 110.025 11.2998 109.852 11.2979H109.778Z" fill="white"/>
<path d="M119.41 19.8734H118.42C118.321 19.8735 118.223 19.8552 118.132 19.8195C118.041 19.7839 117.959 19.7316 117.889 19.6657C117.819 19.5997 117.764 19.5215 117.726 19.4353C117.688 19.3491 117.669 19.2567 117.669 19.1635V18.8539C117.669 18.8539 116.747 20.0149 115.065 20.0149C113.383 20.0149 111.92 19.3194 111.92 16.4621V11.9669C111.92 11.879 111.938 11.7919 111.974 11.7107C112.009 11.6295 112.061 11.5557 112.127 11.4936C112.192 11.4315 112.27 11.3822 112.356 11.3486C112.442 11.315 112.534 11.2977 112.627 11.2978H113.581C113.777 11.2978 113.965 11.3714 114.103 11.5024C114.242 11.6334 114.32 11.8111 114.32 11.9964V16.9679C114.32 17.265 114.444 17.5499 114.666 17.7599C114.888 17.97 115.189 18.088 115.503 18.088H115.718C116.236 18.0878 116.733 17.893 117.099 17.5464C117.465 17.1999 117.671 16.7299 117.671 16.2399V11.9108C117.671 11.7483 117.739 11.5923 117.86 11.4774C117.982 11.3624 118.146 11.2978 118.319 11.2978H119.362C119.541 11.2978 119.713 11.3652 119.84 11.4851C119.967 11.6051 120.038 11.7677 120.038 11.9373V19.2839C120.037 19.4408 119.971 19.591 119.852 19.7016C119.735 19.8121 119.576 19.8739 119.41 19.8734Z" fill="white"/>
<path d="M102.037 18.0169H103.083C103.256 18.0169 103.421 18.0818 103.543 18.1973C103.665 18.3129 103.734 18.4695 103.734 18.6329V19.4639C103.734 19.6101 103.673 19.7502 103.563 19.8535C103.454 19.9569 103.306 20.0149 103.152 20.0149H101.981C101.808 20.0149 101.643 19.95 101.52 19.8345C101.398 19.719 101.33 19.5623 101.33 19.3989V18.6859C101.33 18.5981 101.348 18.5111 101.384 18.4299C101.419 18.3487 101.472 18.275 101.537 18.2128C101.603 18.1507 101.681 18.1015 101.766 18.0678C101.852 18.0342 101.944 18.0169 102.037 18.0169Z" fill="white"/>
</svg>
