<svg width="129" height="47" viewBox="0 0 129 47" fill="none" xmlns="http://www.w3.org/2000/svg">
<path d="M12.9635 27.0909C12.9016 27.1946 12.8475 27.3029 12.802 27.4148C12.4822 28.0568 12.4233 28.7988 12.6378 29.4837C13.7956 28.521 15.0948 27.7448 16.4889 27.1827C15.3283 26.9437 14.1349 26.9127 12.9635 27.0909Z" fill="#C5AC71"/>
<path d="M14.0911 30.9664C14.4085 31.1075 14.7392 31.216 15.0782 31.2903C15.4339 30.0769 15.9207 28.9065 16.5297 27.7998C15.215 28.3367 13.991 29.0758 12.9015 29.9906C13.1978 30.4231 13.6105 30.7616 14.0911 30.9664Z" fill="#C5AC71"/>
<path d="M18.1861 31.1093C17.7633 29.9119 17.4199 28.8358 17.1587 27.9034C16.5241 28.9952 16.0229 30.1601 15.666 31.373C16.5149 31.4323 17.3675 31.3431 18.1861 31.1093Z" fill="#C5AC71"/>
<path d="M16.9154 24.2089C17.017 24.8371 17.176 25.6083 17.419 26.5211C18.1518 25.5895 18.9757 24.7345 19.8785 23.9689C18.8852 23.8293 17.8737 23.9113 16.9154 24.2089Z" fill="#C5AC71"/>
<path d="M28.1052 34.5986C27.3853 33.8077 26.6242 33.0561 25.8249 32.3467C24.5825 34.097 22.849 35.4337 20.8466 36.1855C21.3503 37.3658 21.9353 38.6005 22.5614 39.9159C25.0037 38.9017 26.981 37.005 28.1052 34.5986Z" fill="#C5AC71"/>
<path d="M21.0885 24.3302C20.9477 24.2692 20.7855 24.2088 20.6239 24.1479C19.6993 24.87 18.8544 25.69 18.1039 26.5938C19.5506 26.1519 21.048 25.8999 22.5589 25.8443L22.5394 25.803C22.4131 25.4691 22.2188 25.1656 21.9689 24.9119C21.719 24.6582 21.4191 24.4601 21.0885 24.3302Z" fill="#C5AC71"/>
<path d="M25.3838 31.9618C24.3087 31.0608 23.1699 30.2398 21.9763 29.5054C21.14 30.3727 20.1197 31.0385 18.9917 31.4529H18.9507C19.4152 32.712 19.9592 34.0917 20.6049 35.6137C22.5334 34.9206 24.2023 33.6453 25.3838 31.9618Z" fill="#C5AC71"/>
<path d="M20.061 35.8577C19.3959 34.3147 18.8512 32.9363 18.3873 31.6779C17.447 31.9597 16.4615 32.0564 15.4848 31.9625C15.098 33.3529 14.8148 34.7704 14.6378 36.2032C16.4442 36.5714 18.3152 36.4522 20.061 35.8577Z" fill="#C5AC71"/>
<path d="M37.0367 8.11941C37.3552 7.87483 37.6228 7.56938 37.824 7.22056C38.0252 6.87173 38.1561 6.48641 38.2092 6.08658V6.02559H38.2287C38.2969 5.24281 38.0743 4.46241 37.6047 3.83474C37.3618 3.51403 37.0581 3.24471 36.7116 3.04217C36.365 2.83963 35.9822 2.70786 35.585 2.65439H35.5244C34.7477 2.57089 33.9688 2.79007 33.3477 3.26686C32.7079 3.76416 32.2869 4.49387 32.175 5.29968V5.38033C32.0838 6.1742 32.3082 6.97216 32.7994 7.60006C33.2906 8.22796 34.0085 8.63483 34.7967 8.73188H34.8573V8.75158C35.6373 8.82889 36.4171 8.60271 37.0367 8.11941ZM33.5249 6.98236C33.214 6.54688 33.0644 6.01558 33.1021 5.48068L33.1216 5.43935V5.41969C33.1918 4.87493 33.4728 4.38003 33.9034 4.04262C34.3362 3.7293 34.8643 3.57849 35.3961 3.61638L35.456 3.63605C35.9973 3.70673 36.4889 3.98951 36.8242 4.42294C37.1355 4.85834 37.2851 5.38964 37.2476 5.92462L37.228 5.9856C37.1978 6.25656 37.1127 6.51846 36.9781 6.75521C36.8438 6.992 36.6628 7.19871 36.4463 7.36267C36.0151 7.67859 35.4862 7.82969 34.9543 7.78892L34.9133 7.76925H34.8937C34.6254 7.73772 34.3662 7.65173 34.1318 7.51648C33.8974 7.38122 33.6927 7.19952 33.5301 6.98236H33.5249Z" fill="#C5AC71"/>
<path d="M4.69733 12.9064C4.69733 13.8 5.05001 14.657 5.6778 15.2888C6.30555 15.9207 7.15703 16.2757 8.0448 16.2757C8.93251 16.2755 9.7838 15.9204 10.4114 15.2886C11.0391 14.6568 11.3917 13.7999 11.3917 12.9064C11.3917 12.464 11.3052 12.0259 11.1371 11.6171C10.9689 11.2083 10.7224 10.8369 10.4116 10.5241C10.1008 10.2112 9.73186 9.963 9.32574 9.79366C8.91964 9.62435 8.4844 9.53717 8.0448 9.53717C7.15732 9.53821 6.30647 9.89352 5.67894 10.5252C5.05138 11.1568 4.69836 12.0132 4.69733 12.9064Z" fill="#C5AC71"/>
<path d="M12.7416 36.1613C11.6407 35.6588 10.6839 34.8841 9.9603 33.9094C9.66519 34.5604 9.44213 35.2422 9.2951 35.9423C10.381 37.634 11.925 38.9778 13.745 39.8151C13.786 39.8347 13.8466 39.8563 13.8857 39.8763C13.8549 38.7923 13.8949 37.7075 14.0056 36.6288C13.57 36.5152 13.1466 36.3586 12.7416 36.1613Z" fill="#C5AC71"/>
<path d="M28.9313 27.9015C28.3791 27.5952 27.7984 27.3441 27.1976 27.152C27.238 27.4479 27.2582 27.7463 27.2582 28.0451C27.2549 29.0852 27.021 30.1115 26.5734 31.0491C26.4523 31.3294 26.3108 31.6003 26.15 31.8596C26.9257 32.5398 27.6651 33.2608 28.3651 34.0196C29.1543 32.0823 29.3514 29.9522 28.9313 27.9015Z" fill="#C5AC71"/>
<path d="M25.6859 31.453C25.8071 31.2294 25.9282 31.0078 26.0292 30.7835C26.6023 29.5856 26.786 28.2365 26.5544 26.9277C25.4843 26.6229 24.3794 26.4593 23.2675 26.4411V26.5939C23.2575 27.1195 23.1406 27.6375 22.9241 28.1159C22.7751 28.4489 22.5858 28.762 22.3605 29.0483C23.5237 29.7703 24.635 30.5738 25.6859 31.453Z" fill="#C5AC71"/>
<path d="M18.7694 30.9251C19.7829 30.5626 20.705 29.9806 21.4705 29.2201C20.2672 28.5254 18.9976 27.9542 17.6807 27.5152C17.9434 28.4896 18.3063 29.6263 18.7694 30.9251Z" fill="#C5AC71"/>
<path d="M14.9176 31.8575C14.5482 31.7887 14.1892 31.6726 13.8491 31.5119C13.3012 31.2615 12.8233 30.8785 12.4581 30.3972C11.5735 31.2389 10.83 32.2193 10.2567 33.3002C10.9232 34.3279 11.8717 35.1388 12.9871 35.6347C13.3383 35.7999 13.7025 35.9357 14.0758 36.0406C14.2491 34.6265 14.5306 33.228 14.9176 31.8575Z" fill="#C5AC71"/>
<path d="M18.4063 27.1322C19.5995 27.5732 20.7532 28.1157 21.8548 28.7539C22.069 28.4853 22.2515 28.1926 22.3988 27.8817C22.6165 27.4339 22.7142 26.9366 22.6822 26.4391C21.2342 26.4941 19.7983 26.7269 18.4063 27.1322Z" fill="#C5AC71"/>
<path d="M22.0191 40.1586C21.3735 38.8198 20.8093 37.581 20.2848 36.4046C18.4518 37.0449 16.4821 37.1807 14.5795 36.7981C14.4754 37.9094 14.4415 39.0264 14.4779 40.1423C16.9095 41.0512 19.5835 41.0567 22.0191 40.1586Z" fill="#C5AC71"/>
<path d="M22.2591 40.6864C19.7657 41.6157 17.0291 41.6442 14.5171 40.7673C14.5736 41.6428 14.7044 42.5116 14.908 43.3648C16.4045 44.0915 18.0456 44.4662 19.7071 44.4603H19.7677C21.1493 44.4617 22.5183 44.1946 23.7993 43.6734C23.2546 42.6377 22.7507 41.6439 22.2877 40.6912L22.2591 40.6864Z" fill="#C5AC71"/>
<path d="M25.7057 23.923C26.2214 24.4933 26.6199 25.1605 26.8784 25.8864L27.0596 26.4346C27.6317 26.6172 28.19 26.8412 28.73 27.1048C28.689 26.9415 28.6284 26.8005 28.5893 26.6372C27.7964 25.5668 26.8199 24.6476 25.7057 23.923Z" fill="#C5AC71"/>
<path d="M38.4274 3.56979L40.8271 6.65184C40.8076 6.79347 40.7059 7.5843 40.6646 7.7476C39.253 13.0231 36.7328 16.3504 33.7092 18.035C33.6896 18.035 33.6896 18.0547 33.6681 18.0547C29.1114 20.5531 24.0107 19.1118 19.2918 15.9884C19.2918 15.9884 23.0432 15.3982 26.0056 16.9819C28.6879 18.4029 27.9563 18.8685 29.9988 18.4639C27.2175 13.8775 22.3917 13.067 17.076 14.2835C16.3383 13.6046 15.6444 12.8792 14.9983 12.1116H12.5721C12.7336 12.2749 13.7207 13.3707 15.2733 14.77C12.3297 15.7536 8.96331 17.5897 5.11288 20.5327L1.95236 22.8082H6.06667C10.5042 19.2573 14.2341 17.3288 17.4193 16.5786C20.7857 19.2567 25.4636 22.0974 29.9793 21.8954C32.4589 25.7099 33.5684 30.5336 34.0115 33.3612C34.0499 33.8181 34.0636 34.2767 34.0525 34.735H38.4274V33.5835H35.1405C34.9184 31.1881 34.0115 26.0758 31.653 21.6718C35.4402 20.8003 38.9721 17.431 41.2915 9.51679C41.3103 9.4368 42.1182 6.57182 42.1182 6.57182L39.1538 2.77896L38.4274 3.56979Z" fill="#C5AC71"/>
<path d="M29.7389 30.0123C29.733 31.5482 29.4178 33.0668 28.8125 34.4766C29.3545 35.0865 29.8655 35.7226 30.3455 36.3849C31.1326 33.6892 30.866 30.7926 29.6001 28.2883C29.6874 28.8589 29.7338 29.435 29.7389 30.0123Z" fill="#C5AC71"/>
<path d="M22.8221 40.4631C23.2866 41.4172 23.7994 42.391 24.3147 43.4257C25.6533 42.8124 26.8569 41.937 27.8553 40.85C28.8537 39.7631 29.6268 38.487 30.1295 37.0957C29.665 36.4459 29.1425 35.7763 28.5359 35.0629C27.333 37.4918 25.3062 39.4073 22.8221 40.4631Z" fill="#C5AC71"/>
<path d="M16.6931 22.5459C16.7126 22.8082 16.7537 23.1741 16.8143 23.6213C18.0057 23.2593 19.2705 23.2174 20.483 23.5C21.037 23.0877 21.6319 22.7343 22.2584 22.4455C21.4197 22.2419 20.5599 22.1397 19.6972 22.1413C18.6823 22.1391 17.6717 22.2752 16.6931 22.5459Z" fill="#C5AC71"/>
<path d="M13.4061 26.4214C14.54 26.31 15.6843 26.3855 16.794 26.645C16.5712 25.7735 16.4031 25.0213 16.3099 24.4154C15.1864 24.821 14.1861 25.512 13.4061 26.4214Z" fill="#C5AC71"/>
<path d="M23.1273 22.7282C22.4398 22.9773 21.7889 23.3187 21.1923 23.7434C21.2333 23.763 21.2939 23.7846 21.333 23.8043C22.1371 24.1504 22.7747 24.7992 23.1097 25.6123C23.1293 25.6929 23.1703 25.7755 23.1898 25.8555C24.2696 25.8732 25.3443 26.0096 26.3946 26.2621C26.3716 26.2107 26.3577 26.1557 26.3536 26.0994C25.7861 24.5735 24.6179 23.4174 23.1273 22.7282Z" fill="#C5AC71"/>
<path d="M10.4634 27.1105C11.1622 26.8504 11.8851 26.6612 12.6213 26.546C13.3659 25.3866 14.6573 24.4128 16.2105 23.8436L16.2509 23.8239C16.1909 23.3977 16.1499 23.037 16.1303 22.7478C13.8044 23.5131 11.8061 25.0515 10.4634 27.1105Z" fill="#C5AC71"/>
<path d="M9.99958 27.8405C9.87843 28.0372 9.77678 28.2471 9.67774 28.4497C9.28315 29.6796 9.30423 31.0063 9.73767 32.2229C9.79827 32.3862 9.87843 32.5468 9.93313 32.7101C10.5181 31.6514 11.2657 30.6924 12.1483 29.8688C12.1182 29.8046 12.0915 29.7389 12.0682 29.672C11.931 29.269 11.8747 28.8426 11.9025 28.4176C11.9304 27.9925 12.0418 27.5772 12.2304 27.1959C11.4799 27.3481 10.7494 27.5866 10.053 27.9067L9.99958 27.8405Z" fill="#C5AC71"/>
<path d="M13.5084 40.3626C11.7787 39.5639 10.2796 38.3349 9.1524 36.7915V36.8111C10.0177 39.4434 11.8258 41.6573 14.2245 43.021C14.0649 42.2037 13.9574 41.3769 13.9026 40.5455C13.7893 40.4847 13.6485 40.4238 13.5084 40.3626Z" fill="#C5AC71"/>
<path d="M9.21309 32.4077C9.00742 31.9385 8.88462 31.4368 8.85019 30.925C8.6871 31.6956 8.60605 32.4815 8.60848 33.2694V33.289C8.60701 33.8149 8.64707 34.3401 8.72834 34.8596C8.78893 34.9815 8.84953 35.1218 8.91012 35.253C9.0919 34.5954 9.33494 33.9564 9.63591 33.3448C9.46125 33.0489 9.31946 32.7347 9.21309 32.4077Z" fill="#C5AC71"/>
<path d="M111.267 13.5831H106.983V34.9855H111.267V13.5831Z" fill="#C5AC71"/>
<path d="M99.0202 26.0601L88.2741 13.6598H86.0977V34.9855H90.4535V22.6574L101.124 34.9855H103.302V13.5831H99.0202V26.0601Z" fill="#C5AC71"/>
<path d="M69.3405 34.9855H82.49V30.674H73.624V25.607H82.49V21.3715H73.624V17.818H82.5641V13.5064H69.3405V34.9855Z" fill="#C5AC71"/>
<path d="M114.346 17.8946H118.554V34.9855H122.838V17.8946H127.045V13.6598H114.346V17.8946Z" fill="#C5AC71"/>
<path d="M53.7129 17.8947H60.0995L53.1884 32.7908V35.0603H65.5846V30.8255H58.7476L65.5846 16.0042V13.7346H53.7129V17.8947Z" fill="#C5AC71"/>
</svg>
