<svg width="107" height="16" fill="none" xmlns="http://www.w3.org/2000/svg"><path fill-rule="evenodd" clip-rule="evenodd" d="M29.248 7.731c-.558 6.354 7.358 3.117 7.842 3.014.186 1.284.363 2.568.549 3.852-.233.074-12.968 5.367-13.312-6.736 0-.148-.028-.288-.01-.427 1.73-10 13.22-7.024 13.452-7.005-.186 1.376-.363 2.753-.549 4.13-.465-.149-7.451-2.856-7.972 3.172zm17.73-3.312l-2.064 11.145h-4.53L42.578 4.42h-3.712c.232-1.423.456-2.846.688-4.26H51.09c-.233 1.423-.456 2.846-.689 4.26H46.98zm7.555 8.913l1.507-2.866 1.776.958-.548-6.01s-4.875 9.322-5.34 9.601c-1.005.67-3.116.577-4.81.55L55.621.158h4.819c.735 5.135 1.47 10.27 2.195 15.405h-3.74l-4.362-2.232zm18.726-9.703c-1.237 0-2.372-.037-3.61-.037-.139.874-.409 2.474-.409 2.474h1.507c1.386 0 2.93.335 3.33-.93.335-1.089-.706-1.48-.818-1.507zm-5.117 8.214H71.4s1.544-.01 1.86-1.246c.381-1.489-.958-1.498-.958-1.498h-3.833l-.326 2.744zm9.76-.428c-1.192 4.251-5.062 4.093-5.062 4.093s-7.433.056-9.237.047c.911-5.089 1.832-10.177 2.744-15.275L73.25.075s3.99.215 4.78 3.555c.577 2.456-1.637 3.963-1.637 3.963s2.158 1.488 1.507 3.823zm24.056 4.103l-3.554-2.326 1.368-2.865 1.777.958-.549-5.87s-.27-.084-.27 0c-.009.084-5.06 10.103-5.06 10.103l-8.438.046-2.745-6.056h-.14s-.734 4.037-1.097 6.056h-4.53c0-.046 3.023-15.405 3.023-15.405h4.4l-.958 5.088h.14S88.618 1.852 90.274.16h5.358l-7.321 7.57 3.32 6.596L99.224.354h4.781l2.326 15.154h-4.372v.01z" fill="#4878FE"/><path fill-rule="evenodd" clip-rule="evenodd" d="M13.052 5.927C12.949 5.974 9.34.15 9.34.15c1.423-.186 4.428-.233 5.358.14 0 .046 1.842.818 2.196 1.646.046.093.093.13-.084.326-1.237 1.293-2.521 2.381-3.758 3.665zm12.093 9.452s-3.498.502-5.88-.55c-1.2-.53-3.143-3.823-3.143-3.823l-4.317 4.559H1.367l1.638-9.331S1.05 7.127 0 7.592v-3.99C.14 3.554 5.172.251 5.219.158H8.79S6.41 13.341 6.317 14.197h.14C11.078 9.517 15.702 4.84 20.326.16h6.455l-7.107 7.033 5.47 8.187z" fill="#fff"/></svg>