<svg width="40" height="40" viewBox="0 0 40 40" fill="none" xmlns="http://www.w3.org/2000/svg">
<g clip-path="url(#clip0)">
<path fill-rule="evenodd" clip-rule="evenodd" d="M10.6941 31.5174C13.316 33.6388 16.6209 34.807 20 34.807C28.1645 34.807 34.8068 28.1646 34.8068 20C34.8068 11.8354 28.1645 5.19312 20 5.19312C16.6209 5.19312 13.3161 6.36132 10.6941 8.48256C8.11071 10.5726 6.28665 13.4987 5.55798 16.7219C5.46282 17.1428 5.72688 17.5611 6.14774 17.6562C6.5686 17.7512 6.98688 17.4873 7.08204 17.0665C8.45446 10.9955 13.7666 6.75561 20 6.75561C27.3029 6.75561 33.2443 12.6971 33.2443 20C33.2443 27.303 27.3029 33.2445 20 33.2445C13.7666 33.2445 8.45454 29.0046 7.08204 22.9337C6.98688 22.5128 6.56837 22.2487 6.14774 22.3439C5.72688 22.4391 5.46282 22.8574 5.55798 23.2782C6.28673 26.5014 8.11071 29.4274 10.6941 31.5174Z" fill="#69A5FF"/>
<path fill-rule="evenodd" clip-rule="evenodd" d="M38.4061 12.1656C38.237 11.7687 37.7781 11.5842 37.3811 11.7532C36.9841 11.9224 36.7995 12.3813 36.9687 12.7782C37.9434 15.0652 38.4375 17.4952 38.4375 20.0009C38.4375 30.1673 30.1665 38.4383 20 38.4383C9.83358 38.4383 1.5625 30.1673 1.5625 20.0009C1.5625 9.8344 9.83358 1.5634 20 1.5634C22.5061 1.5634 24.9362 2.05754 27.2227 3.03222C27.6196 3.20128 28.0785 3.01691 28.2477 2.61988C28.4168 2.223 28.2322 1.7641 27.8353 1.59488C25.3541 0.537226 22.7179 0.000976562 20 0.000976562C14.6579 0.000976562 9.63537 2.08136 5.85788 5.85878C2.08039 9.63635 0 14.6588 0 20.0009C0 25.343 2.08039 30.3654 5.85788 34.143C9.63545 37.9205 14.6579 40.0008 20 40.0008C25.3422 40.0008 30.3646 37.9204 34.1421 34.143C37.9196 30.3655 40 25.343 40 20.0009C40 17.2835 39.4638 14.6474 38.4061 12.1656Z" fill="#69A5FF"/>
<path fill-rule="evenodd" clip-rule="evenodd" d="M29.4014 6.74681H32.8567V10.374C32.8567 10.8055 33.2064 11.1552 33.6379 11.1552C34.0694 11.1552 34.4192 10.8055 34.4192 10.374V6.74681H37.8745C38.306 6.74681 38.6557 6.39696 38.6557 5.96556C38.6557 5.53415 38.306 5.18431 37.8745 5.18431H34.4192V1.55713C34.4192 1.12572 34.0694 0.775879 33.6379 0.775879C33.2064 0.775879 32.8567 1.12572 32.8567 1.55713V5.18431H29.4014C28.9699 5.18431 28.6201 5.53415 28.6201 5.96556C28.6201 6.39696 28.9699 6.74681 29.4014 6.74681Z" fill="#69A5FF"/>
<path fill-rule="evenodd" clip-rule="evenodd" d="M18.7915 24.2357C18.7915 26.8383 20.9089 28.9557 23.5115 28.9557C26.1142 28.9557 28.2316 26.8383 28.2316 24.2357C28.2316 22.5919 27.3864 21.1424 26.1083 20.297C27.3864 19.4516 28.2316 18.0021 28.2316 16.3583C28.2316 13.7556 26.1142 11.6382 23.5115 11.6382C20.9089 11.6382 18.7915 13.7555 18.7915 16.3583C18.7915 18.0021 19.6367 19.4516 20.9148 20.297C19.6367 21.1424 18.7915 22.5919 18.7915 24.2357ZM20.354 16.3583C20.354 14.6172 21.7704 13.2007 23.5115 13.2007C25.2526 13.2007 26.6691 14.6172 26.6691 16.3583C26.6691 18.0993 25.2526 19.5158 23.5115 19.5158C21.7705 19.5158 20.354 18.0993 20.354 16.3583ZM23.5115 21.0782C25.2526 21.0782 26.6691 22.4947 26.6691 24.2357C26.6691 25.9768 25.2526 27.3932 23.5115 27.3932C21.7704 27.3932 20.354 25.9768 20.354 24.2357C20.354 22.4947 21.7705 21.0782 23.5115 21.0782Z" fill="#69A5FF"/>
<path fill-rule="evenodd" clip-rule="evenodd" d="M15.3539 12.6592C15.3533 12.6526 15.3534 12.6458 15.3527 12.6393C15.3502 12.6151 15.3465 12.591 15.3417 12.567C15.3405 12.5613 15.339 12.5557 15.3377 12.5501C15.3332 12.5296 15.3283 12.5092 15.322 12.4891C15.3179 12.4759 15.3127 12.4633 15.3079 12.4504C15.3039 12.4393 15.3004 12.4281 15.2958 12.4172C15.2862 12.3944 15.2755 12.3723 15.2639 12.3507C15.2634 12.3498 15.2631 12.3491 15.2626 12.3482C15.2503 12.3255 15.2368 12.3036 15.2224 12.2823C15.219 12.2773 15.2149 12.2725 15.2113 12.2675C15.1999 12.2515 15.1882 12.2355 15.1756 12.2203C15.1748 12.2194 15.1742 12.2184 15.1734 12.2175C15.1679 12.2109 15.1618 12.2053 15.1561 12.199C15.1454 12.1871 15.1348 12.1751 15.1234 12.1639C15.1146 12.1551 15.1052 12.1472 15.096 12.139C15.0863 12.1304 15.0768 12.1215 15.0667 12.1133C15.0563 12.1049 15.0454 12.0972 15.0346 12.0893C15.0249 12.0822 15.0153 12.0749 15.0052 12.0683C14.9943 12.0611 14.983 12.0546 14.9718 12.048C14.961 12.0416 14.9503 12.0351 14.9391 12.0292C14.9286 12.0237 14.9178 12.0187 14.907 12.0137C14.8945 12.008 14.8821 12.002 14.8692 11.9968C14.8593 11.9928 14.8493 11.9894 14.8393 11.9858C14.8252 11.9808 14.8112 11.9757 14.7968 11.9715C14.7872 11.9686 14.7772 11.9663 14.7675 11.9639C14.7527 11.9601 14.7381 11.9564 14.7231 11.9535C14.7122 11.9514 14.7011 11.9501 14.69 11.9485C14.6761 11.9465 14.6623 11.9441 14.6481 11.9429C14.634 11.9416 14.6197 11.9413 14.6056 11.9408C14.5956 11.9404 14.5858 11.9392 14.5758 11.9392C14.5743 11.9392 14.573 11.9394 14.5716 11.9394C14.5541 11.9395 14.5368 11.9408 14.5193 11.942C14.5109 11.9426 14.5024 11.9426 14.4941 11.9435C14.4739 11.9456 14.4538 11.9491 14.4337 11.9527C14.4177 11.9557 14.4021 11.9594 14.3865 11.9633C14.3724 11.9668 14.3583 11.9698 14.3444 11.9741C14.33 11.9787 14.3161 11.9843 14.3019 11.9895C14.2921 11.9933 14.2822 11.9962 14.2724 12.0004C14.2512 12.0093 14.2308 12.0194 14.2105 12.0301C14.2076 12.0316 14.2047 12.033 14.2018 12.0345C14.1797 12.0466 14.1583 12.0596 14.1376 12.0737C14.1318 12.0776 14.1264 12.0823 14.1207 12.0864C14.1054 12.0974 14.0902 12.1084 14.0758 12.1205C14.0747 12.1213 14.0737 12.122 14.0727 12.1228L10.9726 14.7317C10.6424 15.0096 10.6001 15.5023 10.8779 15.8325C11.0325 16.0162 11.2534 16.1107 11.476 16.1107C11.6536 16.1107 11.8322 16.0505 11.9786 15.9272L13.7945 14.399V27.8739C13.7945 28.3053 14.1443 28.6551 14.5758 28.6551C15.0072 28.6551 15.357 28.3053 15.357 27.8739V12.7205C15.357 12.7193 15.3568 12.7181 15.3568 12.7169C15.3567 12.6976 15.3554 12.6784 15.3539 12.6592Z" fill="#69A5FF"/>
<path fill-rule="evenodd" clip-rule="evenodd" d="M6.75586 20C6.75586 19.5697 6.40492 19.2188 5.97461 19.2188C5.5443 19.2188 5.19336 19.5697 5.19336 20C5.19336 20.4303 5.5443 20.7812 5.97461 20.7812C6.40484 20.7812 6.75586 20.4303 6.75586 20Z" fill="#69A5FF"/>
</g>
<defs>
<clipPath id="clip0">
<rect width="40" height="40" fill="white"/>
</clipPath>
</defs>
</svg>
