<svg width="107" height="17" viewBox="0 0 107 17" fill="none" xmlns="http://www.w3.org/2000/svg">
<path fill-rule="evenodd" clip-rule="evenodd" d="M29.2479 8.14432C28.6897 14.4981 36.6063 11.2607 37.0901 11.1584C37.2761 12.4422 37.4529 13.7259 37.6389 15.0097C37.4063 15.0841 24.6709 20.3774 24.3267 8.27455C24.3267 8.12571 24.2988 7.98617 24.3174 7.84663C26.0477 -2.15379 37.5366 0.823081 37.7692 0.841687C37.5831 2.21849 37.4063 3.59529 37.2203 4.97209C36.7552 4.82325 29.7688 2.11616 29.2479 8.14432ZM46.9788 4.83255L44.9136 15.9772C43.4066 15.9772 40.3832 15.9772 40.3832 15.9772L42.5787 4.83255C42.5787 4.83255 40.1041 4.83255 38.8669 4.83255C39.0994 3.40923 39.3227 1.98592 39.5553 0.571909C43.3973 0.571909 47.2486 0.571909 51.0906 0.571909C50.8581 1.99522 50.6348 3.41854 50.4022 4.83255C49.2766 4.83255 48.1231 4.83255 46.9788 4.83255ZM54.5326 13.7445L56.0397 10.8793L57.8165 11.8375L57.2676 5.82794C57.2676 5.82794 52.393 15.1493 51.9279 15.4283C50.9232 16.0981 48.8115 16.0051 47.1184 15.9772L55.6211 0.571909H60.4399C61.1748 5.70701 61.9097 10.8421 62.6353 15.9772C61.3515 15.9772 58.8956 15.9772 58.8956 15.9772L54.5326 13.7445ZM73.259 4.04182C72.0217 4.04182 70.8868 4.00461 69.6495 4.00461C69.51 4.87906 69.2402 6.47913 69.2402 6.47913C69.2402 6.47913 69.8356 6.47913 70.7473 6.47913C72.1334 6.47913 73.6776 6.81403 74.0776 5.54886C74.4125 4.46044 73.3706 4.06973 73.259 4.04182ZM68.1425 12.2561H71.3985C71.3985 12.2561 72.9427 12.2468 73.259 11.0095C73.6404 9.52112 72.3008 9.51181 72.3008 9.51181H68.4681L68.1425 12.2561ZM77.9011 11.8282C76.7103 16.0795 72.8404 15.9214 72.8404 15.9214C72.8404 15.9214 65.4075 15.9772 63.6028 15.9679C64.5145 10.8793 65.4354 5.79073 66.3471 0.692843L73.2497 0.488182C73.2497 0.488182 77.2406 0.702145 78.0313 4.04182C78.6081 6.49773 76.394 8.00477 76.394 8.00477C76.394 8.00477 78.5522 9.49321 77.9011 11.8282ZM101.958 15.9307L98.4042 13.605L99.7717 10.7398L101.549 11.6979L101 5.82794C101 5.82794 100.73 5.74422 100.73 5.82794C100.721 5.91166 95.6692 15.9307 95.6692 15.9307L87.2317 15.9772L84.4874 9.92113H84.3478C84.3478 9.92113 83.6129 13.9585 83.2501 15.9772C81.7431 15.9772 80.2267 15.9772 78.7197 15.9772C78.7197 15.9307 81.7431 0.571909 81.7431 0.571909H86.1433L85.1851 5.66049H85.3246C85.3246 5.66049 88.6178 2.265 90.2737 0.571909C92.0598 0.571909 93.8459 0.571909 95.632 0.571909L88.3108 8.14432L91.6319 14.7399L99.2229 0.767263H104.004L106.33 15.9214H101.958V15.9307Z" fill="#4878FE"/>
<path fill-rule="evenodd" clip-rule="evenodd" d="M13.0517 6.34012C12.9494 6.38663 9.33992 0.563134 9.33992 0.563134C10.7632 0.37708 13.768 0.330566 14.6983 0.702675C14.6983 0.749188 16.5402 1.52131 16.8937 2.34925C16.9402 2.44228 16.9868 2.47949 16.81 2.67485C15.5727 3.96793 14.289 5.05634 13.0517 6.34012ZM25.1452 15.7917C25.1452 15.7917 21.6474 16.294 19.2659 15.2428C18.0659 14.7126 16.1216 11.4194 16.1216 11.4194L11.8051 15.9777C8.32593 15.9777 1.3675 15.9777 1.3675 15.9777L3.00478 6.64711C3.00478 6.64711 1.05121 7.54017 0 8.0053C0 6.67502 0 5.34473 0 4.01444C0.139541 3.96793 5.17231 0.665465 5.21882 0.572437C6.40957 0.572437 8.79106 0.572437 8.79106 0.572437C8.79106 0.572437 6.40957 13.7544 6.31654 14.6102C6.36305 14.6102 6.40957 14.6102 6.45608 14.6102C11.0795 9.93097 15.703 5.2517 20.3264 0.572437C22.3823 0.572437 26.7825 0.572437 26.7825 0.572437L19.6752 7.60529L25.1452 15.7917Z" fill="white"/>
</svg>
