<svg width="18" height="23" viewBox="0 0 18 23" fill="none" xmlns="http://www.w3.org/2000/svg">
<path d="M0.927815 8.87075C-0.932087 12.0983 0.250287 16.9962 2.30703 19.966C3.33368 21.4507 4.37309 22.7835 5.79674 22.7835C5.82357 22.7835 5.85048 22.783 5.87803 22.7819C6.5469 22.7552 7.03025 22.5493 7.49759 22.3503C8.02227 22.1266 8.56492 21.8955 9.41606 21.8955C10.2258 21.8955 10.7426 22.1191 11.2423 22.3354C11.7348 22.5485 12.2421 22.7689 12.9917 22.7548C14.5953 22.725 15.5799 21.2868 16.4486 20.0181C17.355 18.6934 17.8097 17.4073 17.9632 16.9157L17.9694 16.8962C17.9986 16.8089 17.9573 16.7135 17.8736 16.675C17.8713 16.674 17.8628 16.6704 17.8604 16.6694C17.578 16.5539 15.1009 15.455 15.0748 12.4598C15.0507 10.0264 16.9331 8.73781 17.3107 8.50425L17.3283 8.49328C17.3692 8.46696 17.3977 8.42519 17.4073 8.37744C17.417 8.32976 17.4069 8.28014 17.3795 8.24003C16.0801 6.33851 14.0886 6.05193 13.2868 6.01746C13.1704 6.00584 13.0503 6 12.9297 6C11.988 6 11.0858 6.35568 10.3611 6.64146C9.86075 6.83874 9.42861 7.00911 9.13057 7.00911C8.79566 7.00911 8.36107 6.83665 7.85781 6.63699C7.18483 6.36989 6.42204 6.06723 5.61454 6.06723C5.59528 6.06723 5.57631 6.06744 5.55762 6.0678C3.68005 6.09543 1.90591 7.16961 0.927815 8.87075Z" fill="#838FC0"/>
<path d="M13.1985 0.184709C12.0615 0.231017 10.6976 0.930906 9.88234 1.88578C9.18952 2.68838 8.51272 4.02656 8.69103 5.37541C8.70221 5.4598 8.77088 5.52494 8.85578 5.5315C8.93252 5.53749 9.01086 5.54052 9.0889 5.54059C10.2007 5.54059 11.4 4.92553 12.219 3.93517C13.0811 2.88941 13.5169 1.54734 13.3851 0.345201C13.3747 0.250997 13.2918 0.18103 13.1985 0.184709Z" fill="#838FC0"/>
</svg>
