<svg width="19" height="23" viewBox="0 0 19 23" fill="none" xmlns="http://www.w3.org/2000/svg">
<path d="M1.83797 8.27187C-0.0219305 11.4994 1.16044 16.3973 3.21719 19.3671C4.24383 20.8518 5.28324 22.1846 6.70689 22.1846C6.73373 22.1846 6.76063 22.1841 6.78819 22.183C7.45706 22.1563 7.94041 21.9504 8.40775 21.7514C8.93243 21.5278 9.47507 21.2966 10.3262 21.2966C11.136 21.2966 11.6527 21.5203 12.1524 21.7365C12.6449 21.9496 13.1522 22.17 13.9018 22.156C15.5055 22.1261 16.49 20.6879 17.3587 19.4192C18.2652 18.0945 18.7199 16.8084 18.8733 16.3169L18.8795 16.2973C18.9087 16.21 18.8675 16.1146 18.7837 16.0762C18.7814 16.0751 18.7729 16.0716 18.7705 16.0705C18.4881 15.9551 16.011 14.8561 15.985 11.861C15.9608 9.42756 17.8433 8.13893 18.2208 7.90537L18.2384 7.89441C18.2793 7.86808 18.3078 7.82632 18.3175 7.77857C18.3272 7.73089 18.3171 7.68126 18.2896 7.64116C16.9903 5.73963 14.9987 5.45306 14.1969 5.41858C14.0806 5.40697 13.9605 5.40112 13.8399 5.40112C12.8981 5.40112 11.996 5.7568 11.2712 6.04259C10.7709 6.23986 10.3388 6.41024 10.0407 6.41024C9.70582 6.41024 9.27123 6.23777 8.76797 6.03811C8.09499 5.77101 7.3322 5.46835 6.52469 5.46835C6.50543 5.46835 6.48646 5.46857 6.46778 5.46893C4.59021 5.49655 2.81607 6.57073 1.83797 8.27187Z" fill="white"/>
<path d="M14.1985 0.184709C13.0615 0.231017 11.6976 0.930906 10.8823 1.88578C10.1895 2.68838 9.51272 4.02656 9.69103 5.37541C9.70221 5.4598 9.77088 5.52494 9.85578 5.5315C9.93252 5.53749 10.0109 5.54052 10.0889 5.54059C11.2007 5.54059 12.4 4.92553 13.219 3.93517C14.0811 2.88941 14.5169 1.54734 14.3851 0.345201C14.3747 0.250997 14.2918 0.18103 14.1985 0.184709Z" fill="white"/>
</svg>
