<svg width="20" height="21" viewBox="0 0 20 21" fill="none" xmlns="http://www.w3.org/2000/svg">
<g clip-path="url(#clip0)">
<path d="M18.002 11.0093V3C18.0008 2.07992 17.2552 1.33447 16.3353 1.33334H14.6686V1C14.6686 0.447755 14.2209 0 13.6686 0C13.1162 0 12.6686 0.447755 12.6686 1V1.33334H10.002V1C10.002 0.447755 9.55421 0 9.00197 0C8.44956 0 8.00197 0.447755 8.00197 1V1.33334H5.33529V1C5.33529 0.447755 4.88754 0 4.33529 0C3.78288 0 3.33529 0.447755 3.33529 1V1.33334H1.66862C0.748536 1.33447 0.00292969 2.07992 0.00195312 3V13.6667C0.00292969 14.5868 0.748536 15.3322 1.66862 15.3334H10.0189C10.1694 17.6377 11.8796 19.5386 14.1551 19.9313C16.4307 20.3241 18.6791 19.1063 19.5933 16.9857C20.5075 14.8653 19.8496 12.3944 18.002 11.0093ZM13.3353 1C13.3353 0.815919 13.4846 0.666668 13.6686 0.666668C13.8527 0.666668 14.002 0.815919 14.002 1V2.33334C14.002 2.51742 13.8527 2.66667 13.6686 2.66667C13.4846 2.66667 13.3353 2.51742 13.3353 2.33334V1ZM8.66863 1C8.66863 0.815919 8.81788 0.666668 9.00197 0.666668C9.18605 0.666668 9.3353 0.815919 9.3353 1V2.33334C9.3353 2.51742 9.18605 2.66667 9.00197 2.66667C8.81788 2.66667 8.66863 2.51742 8.66863 2.33334V1ZM4.00196 1C4.00196 0.815919 4.15121 0.666668 4.33529 0.666668C4.51938 0.666668 4.66863 0.815919 4.66863 1V2.33334C4.66863 2.51742 4.51938 2.66667 4.33529 2.66667C4.15121 2.66667 4.00196 2.51742 4.00196 2.33334V1ZM1.66862 2H3.33529V2.33334C3.33529 2.88558 3.78288 3.33334 4.33529 3.33334C4.88754 3.33334 5.33529 2.88558 5.33529 2.33334V2H8.00197V2.33334C8.00197 2.88558 8.44956 3.33334 9.00197 3.33334C9.55421 3.33334 10.002 2.88558 10.002 2.33334V2H12.6686V2.33334C12.6686 2.88558 13.1162 3.33334 13.6686 3.33334C14.2209 3.33334 14.6686 2.88558 14.6686 2.33334V2H16.3353C16.8876 2 17.3353 2.44776 17.3353 3V4.66667H0.668621V3C0.668621 2.44776 1.11621 2 1.66862 2ZM0.668621 13.6667V5.33334H17.3353V10.5811C15.8394 9.78826 14.0436 9.80796 12.5654 10.6333C11.0874 11.4587 10.1286 12.9772 10.0189 14.6667H1.66862C1.11621 14.6667 0.668621 14.2189 0.668621 13.6667ZM15.002 19.3334C12.6087 19.3334 10.6686 17.3933 10.6686 15C10.6686 12.6068 12.6087 10.6667 15.002 10.6667C17.3952 10.6667 19.3353 12.6068 19.3353 15C19.3326 17.3921 17.3941 19.3306 15.002 19.3334Z" fill="#69A5FF"/>
<path d="M15.3353 14.0613V12.3333H14.6686V14.0613C14.3862 14.162 14.1641 14.3842 14.0632 14.6666H13.002V15.3332H14.0632C14.2175 15.772 14.6545 16.0461 15.1165 15.9939C15.5788 15.9415 15.9435 15.5769 15.9958 15.1147C16.048 14.6524 15.7741 14.2154 15.3353 14.0613ZM15.002 15.3332C14.8179 15.3332 14.6686 15.184 14.6686 14.9999C14.6686 14.8158 14.8179 14.6666 15.002 14.6666C15.186 14.6666 15.3353 14.8158 15.3353 14.9999C15.3353 15.184 15.186 15.3332 15.002 15.3332Z" fill="#69A5FF"/>
<path d="M15.002 11C12.7928 11 11.002 12.7909 11.002 15C11.002 17.2091 12.7928 19 15.002 19C17.2111 19 19.002 17.2091 19.002 15C18.9995 12.7918 17.21 11.0024 15.002 11ZM15.002 18.3333C13.161 18.3333 11.6686 16.841 11.6686 15C11.6686 13.159 13.161 11.6667 15.002 11.6667C16.8428 11.6667 18.3353 13.159 18.3353 15C18.3332 16.8402 16.842 18.3314 15.002 18.3333Z" fill="#69A5FF"/>
<path d="M7.33529 6.66675C6.5988 6.66675 6.00195 7.26375 6.00195 8.00008C6.00195 8.73641 6.5988 9.33342 7.33529 9.33342C8.07162 9.33342 8.66862 8.73641 8.66862 8.00008C8.66862 7.26375 8.07162 6.66675 7.33529 6.66675ZM7.33529 8.66675C6.96696 8.66675 6.66862 8.36825 6.66862 8.00008C6.66862 7.63192 6.96696 7.33341 7.33529 7.33341C7.70345 7.33341 8.00195 7.63192 8.00195 8.00008C8.00195 8.36825 7.70345 8.66675 7.33529 8.66675Z" fill="#69A5FF"/>
<path d="M10.6688 9.33342C11.4051 9.33342 12.0021 8.73641 12.0021 8.00008C12.0021 7.26375 11.4051 6.66675 10.6688 6.66675C9.93229 6.66675 9.33545 7.26375 9.33545 8.00008C9.33545 8.73641 9.93229 9.33342 10.6688 9.33342ZM10.6688 7.33341C11.0369 7.33341 11.3354 7.63192 11.3354 8.00008C11.3354 8.36825 11.0369 8.66675 10.6688 8.66675C10.3005 8.66675 10.0021 8.36825 10.0021 8.00008C10.0021 7.63192 10.3005 7.33341 10.6688 7.33341Z" fill="#69A5FF"/>
<path d="M14.0023 9.33342C14.7386 9.33342 15.3356 8.73641 15.3356 8.00008C15.3356 7.26375 14.7386 6.66675 14.0023 6.66675C13.2658 6.66675 12.6689 7.26375 12.6689 8.00008C12.6689 8.73641 13.2658 9.33342 14.0023 9.33342ZM14.0023 7.33341C14.3704 7.33341 14.6689 7.63192 14.6689 8.00008C14.6689 8.36825 14.3704 8.66675 14.0023 8.66675C13.634 8.66675 13.3356 8.36825 13.3356 8.00008C13.3356 7.63192 13.634 7.33341 14.0023 7.33341Z" fill="#69A5FF"/>
<path d="M4.00228 6.66675C3.26579 6.66675 2.66895 7.26375 2.66895 8.00008C2.66895 8.73641 3.26579 9.33342 4.00228 9.33342C4.73861 9.33342 5.33561 8.73641 5.33561 8.00008C5.33561 7.26375 4.73861 6.66675 4.00228 6.66675ZM4.00228 8.66675C3.63395 8.66675 3.33561 8.36825 3.33561 8.00008C3.33561 7.63192 3.63395 7.33341 4.00228 7.33341C4.37044 7.33341 4.66895 7.63192 4.66895 8.00008C4.66895 8.36825 4.37044 8.66675 4.00228 8.66675Z" fill="#69A5FF"/>
<path d="M7.33529 10C6.5988 10 6.00195 10.597 6.00195 11.3333C6.00195 12.0697 6.5988 12.6667 7.33529 12.6667C8.07162 12.6667 8.66862 12.0697 8.66862 11.3333C8.66862 10.597 8.07162 10 7.33529 10ZM7.33529 12C6.96696 12 6.66862 11.7015 6.66862 11.3333C6.66862 10.9652 6.96696 10.6667 7.33529 10.6667C7.70345 10.6667 8.00195 10.9652 8.00195 11.3333C8.00195 11.7015 7.70345 12 7.33529 12Z" fill="#69A5FF"/>
<path d="M10.2243 12.5904L10.4463 11.9625C10.1825 11.8685 10.0056 11.62 10.0032 11.3401C10.0007 11.0601 10.1734 10.8085 10.4356 10.7102C10.6976 10.6117 10.9932 10.6877 11.1757 10.9001L11.6812 10.4667C11.3165 10.0416 10.725 9.88971 10.2006 10.0866C9.676 10.2836 9.33063 10.7873 9.336 11.3476C9.34137 11.9076 9.69619 12.4048 10.2243 12.5917V12.5904Z" fill="#69A5FF"/>
<path d="M4.00228 10C3.26579 10 2.66895 10.597 2.66895 11.3333C2.66895 12.0697 3.26579 12.6667 4.00228 12.6667C4.73861 12.6667 5.33561 12.0697 5.33561 11.3333C5.33561 10.597 4.73861 10 4.00228 10ZM4.00228 12C3.63395 12 3.33561 11.7015 3.33561 11.3333C3.33561 10.9652 3.63395 10.6667 4.00228 10.6667C4.37044 10.6667 4.66895 10.9652 4.66895 11.3333C4.66895 11.7015 4.37044 12 4.00228 12Z" fill="#69A5FF"/>
</g>
<defs>
<clipPath id="clip0">
<rect width="20" height="20.0041" fill="white"/>
</clipPath>
</defs>
</svg>
