<svg width="16" height="16" viewBox="0 0 16 16" fill="none" xmlns="http://www.w3.org/2000/svg">
<path d="M5.05417 7.41089C5.99833 6.46672 7.645 6.46672 8.58917 7.41089L9.17833 8.00005L10.3567 6.82172L9.7675 6.23255C8.98167 5.44589 7.935 5.01172 6.82167 5.01172C5.70833 5.01172 4.66167 5.44589 3.87583 6.23255L2.1075 8.00005C1.32774 8.78232 0.889893 9.84179 0.889893 10.9463C0.889893 12.0508 1.32774 13.1103 2.1075 13.8926C2.49406 14.2797 2.95331 14.5866 3.45885 14.7957C3.96439 15.0047 4.50626 15.1119 5.05333 15.1109C5.60055 15.112 6.14259 15.005 6.64829 14.7959C7.15399 14.5868 7.61337 14.2798 8 13.8926L8.58917 13.3034L7.41083 12.1251L6.82167 12.7142C6.35206 13.1817 5.71639 13.4442 5.05375 13.4442C4.39111 13.4442 3.75544 13.1817 3.28583 12.7142C2.81792 12.2448 2.55517 11.6091 2.55517 10.9463C2.55517 10.2835 2.81792 9.64778 3.28583 9.17839L5.05417 7.41089Z" fill="#838FC0"/>
<path d="M7.99998 2.10745L7.41081 2.69662L8.58914 3.87495L9.17831 3.28579C9.64792 2.81828 10.2836 2.55581 10.9462 2.55581C11.6089 2.55581 12.2445 2.81828 12.7141 3.28579C13.1821 3.75518 13.4448 4.39093 13.4448 5.0537C13.4448 5.71648 13.1821 6.35223 12.7141 6.82162L10.9458 8.58912C10.0016 9.53329 8.35498 9.53329 7.41081 8.58912L6.82164 7.99995L5.64331 9.17829L6.23248 9.76745C7.01831 10.5541 8.06498 10.9883 9.17831 10.9883C10.2916 10.9883 11.3383 10.5541 12.1241 9.76745L13.8925 7.99995C14.6722 7.21769 15.1101 6.15822 15.1101 5.0537C15.1101 3.94919 14.6722 2.88972 13.8925 2.10745C13.1104 1.32729 12.0509 0.88916 10.9462 0.88916C9.84158 0.88916 8.78203 1.32729 7.99998 2.10745Z" fill="#838FC0"/>
</svg>
