<svg width="16" height="10" viewBox="0 0 16 10" fill="none" xmlns="http://www.w3.org/2000/svg">
<path d="M0.160156 4.99998C0.89711 3.55439 2.01939 2.34071 3.40297 1.49305C4.78656 0.645395 6.37756 0.196777 8.00016 0.196777C9.62275 0.196777 11.2138 0.645395 12.5973 1.49305C13.9809 2.34071 15.1032 3.55439 15.8402 4.99998C15.1032 6.44556 13.9809 7.65925 12.5973 8.50691C11.2138 9.35456 9.62275 9.80318 8.00016 9.80318C6.37756 9.80318 4.78656 9.35456 3.40297 8.50691C2.01939 7.65925 0.89711 6.44556 0.160156 4.99998ZM8.00016 8.19998C8.84885 8.19998 9.66278 7.86284 10.2629 7.26272C10.863 6.6626 11.2002 5.84867 11.2002 4.99998C11.2002 4.15129 10.863 3.33735 10.2629 2.73724C9.66278 2.13712 8.84885 1.79998 8.00016 1.79998C7.15146 1.79998 6.33753 2.13712 5.73741 2.73724C5.1373 3.33735 4.80016 4.15129 4.80016 4.99998C4.80016 5.84867 5.1373 6.6626 5.73741 7.26272C6.33753 7.86284 7.15146 8.19998 8.00016 8.19998ZM8.00016 6.59998C7.57581 6.59998 7.16884 6.43141 6.86879 6.13135C6.56873 5.83129 6.40016 5.42433 6.40016 4.99998C6.40016 4.57563 6.56873 4.16867 6.86879 3.86861C7.16884 3.56855 7.57581 3.39998 8.00016 3.39998C8.4245 3.39998 8.83147 3.56855 9.13153 3.86861C9.43159 4.16867 9.60016 4.57563 9.60016 4.99998C9.60016 5.42433 9.43159 5.83129 9.13153 6.13135C8.83147 6.43141 8.4245 6.59998 8.00016 6.59998Z" fill="#838FC0"/>
</svg>
