<svg width="18" height="19" viewBox="0 0 18 19" fill="none" xmlns="http://www.w3.org/2000/svg">
<path d="M9 0.948242C4.16797 0.948242 0.25 4.86621 0.25 9.69824C0.25 14.5303 4.16797 18.4482 9 18.4482C13.832 18.4482 17.75 14.5303 17.75 9.69824C17.75 4.86621 13.832 0.948242 9 0.948242ZM9 16.9639C4.98828 16.9639 1.73438 13.71 1.73438 9.69824C1.73438 5.68652 4.98828 2.43262 9 2.43262C13.0117 2.43262 16.2656 5.68652 16.2656 9.69824C16.2656 13.71 13.0117 16.9639 9 16.9639Z" fill="white"/>
<path d="M8.0625 6.26074C8.0625 6.50938 8.16127 6.74784 8.33709 6.92365C8.5129 7.09947 8.75136 7.19824 9 7.19824C9.24864 7.19824 9.4871 7.09947 9.66291 6.92365C9.83873 6.74784 9.9375 6.50938 9.9375 6.26074C9.9375 6.0121 9.83873 5.77364 9.66291 5.59783C9.4871 5.42201 9.24864 5.32324 9 5.32324C8.75136 5.32324 8.5129 5.42201 8.33709 5.59783C8.16127 5.77364 8.0625 6.0121 8.0625 6.26074ZM9.46875 8.44824H8.53125C8.44531 8.44824 8.375 8.51855 8.375 8.60449V13.917C8.375 14.0029 8.44531 14.0732 8.53125 14.0732H9.46875C9.55469 14.0732 9.625 14.0029 9.625 13.917V8.60449C9.625 8.51855 9.55469 8.44824 9.46875 8.44824Z" fill="white"/>
</svg>
