<svg width="88" height="96" viewBox="0 0 88 96" fill="none" xmlns="http://www.w3.org/2000/svg">
<path d="M43.782 81.2521C62.1626 81.2521 77.063 66.3517 77.063 47.9711C77.063 29.5905 62.1626 14.6901 43.782 14.6901C25.4014 14.6901 10.501 29.5905 10.501 47.9711C10.501 66.3517 25.4014 81.2521 43.782 81.2521Z" fill="#69A5FF"/>
<path d="M64.9164 9.82868C63.5315 9.82868 62.1322 9.82868 60.7473 9.82868C57.386 9.82868 54.0247 9.82868 50.6634 9.82868C46.5664 9.82868 42.4694 9.82868 38.3724 9.82868C34.838 9.82868 31.318 9.82868 27.7836 9.82868C26.0669 9.82868 24.3502 9.7854 22.6479 9.82868C22.6191 9.82868 22.6047 9.82868 22.5758 9.82868C22.0853 9.82868 21.6093 10.1028 21.364 10.5211C20.6571 11.7474 19.9503 12.9736 19.2434 14.1998C17.5411 17.1427 15.8388 20.0856 14.151 23.0286C12.1025 26.5774 10.0539 30.1262 8.00543 33.6895C6.24545 36.7334 4.48547 39.7773 2.72548 42.8356C1.88877 44.2927 0.979921 45.7208 0.200911 47.2067C-0.231872 48.0146 0.114355 48.5628 0.489434 49.2264C0.922217 49.9765 1.355 50.7267 1.78778 51.4913C3.38908 54.2611 4.99038 57.0453 6.59168 59.8151C8.62576 63.3495 10.6743 66.8839 12.7084 70.4183C14.5405 73.5921 16.3726 76.7802 18.2191 79.954C19.229 81.6995 20.2243 83.4307 21.2342 85.1763C21.2775 85.2628 21.3352 85.3349 21.3784 85.4215C21.6237 85.8543 22.0997 86.114 22.5902 86.114C24.004 86.114 25.4177 86.114 26.8315 86.114C30.1928 86.114 33.5541 86.114 36.9154 86.114C41.0124 86.114 45.1094 86.114 49.2064 86.114C52.7408 86.114 56.2608 86.114 59.7952 86.114C61.5119 86.114 63.2286 86.1572 64.9309 86.114C64.9597 86.114 64.9741 86.114 65.003 86.114C65.4935 86.114 65.9695 85.8399 66.2148 85.4215C66.9217 84.1953 67.6286 82.969 68.3354 81.7428C70.0377 78.7999 71.74 75.857 73.4278 72.9141C75.4763 69.3652 77.5248 65.8164 79.5734 62.2532C81.3333 59.2093 83.0933 56.1653 84.8533 53.107C85.69 51.65 86.5989 50.2218 87.3779 48.7359C87.8107 47.928 87.4645 47.3798 87.0894 46.7162C86.6566 45.9661 86.2238 45.2159 85.791 44.4513C84.1897 41.6815 82.5884 38.8973 80.9871 36.1275C78.953 32.5931 76.9045 29.0587 74.8705 25.5243C73.0383 22.3506 71.2062 19.1624 69.3597 15.9886C68.3499 14.2431 67.3545 12.5119 66.3446 10.7664C66.3013 10.6798 66.2436 10.6077 66.2004 10.5211C66.0994 10.348 65.9551 10.2038 65.7964 10.0884C65.5945 9.9441 65.3492 9.84311 65.0751 9.82868C65.0607 9.82868 65.0463 9.82868 65.0174 9.82868C65.003 9.82868 64.9886 9.82868 64.9741 9.82868C64.9597 9.82868 64.9597 9.82868 64.9453 9.82868C64.9453 9.82868 64.9309 9.82868 64.9164 9.82868ZM70.9466 24.3846C72.9806 27.919 75.0147 31.439 77.0632 34.9734C78.8376 38.0317 80.5976 41.0901 82.372 44.1628C83.1078 45.4323 83.8002 46.7451 84.5648 48.0002C84.0022 48.9667 83.4396 49.9477 82.8769 50.9142C81.1891 53.8427 79.5012 56.7712 77.8134 59.6997C75.7793 63.2341 73.7452 66.7541 71.6967 70.2885C69.9223 73.3468 68.1623 76.4052 66.3879 79.4779C65.6522 80.7474 64.8587 82.0169 64.1519 83.3009C63.0266 83.3009 61.887 83.3009 60.7617 83.3009C57.4004 83.3009 54.0392 83.3009 50.6779 83.3009C46.5809 83.3009 42.4838 83.3009 38.3868 83.3009C34.8524 83.3009 31.3325 83.3009 27.7981 83.3009C26.3266 83.3009 24.8551 83.2431 23.3837 83.272C22.8211 82.291 22.2584 81.3101 21.6958 80.3435C20.008 77.415 18.3201 74.4865 16.6323 71.558C14.5982 68.0236 12.5641 64.5036 10.5156 60.9692C8.74117 57.9109 6.98118 54.8526 5.20677 51.7798C4.47104 50.5103 3.77859 49.1975 3.014 47.9425C3.57662 46.9759 4.13924 45.9949 4.70186 45.0284C6.38971 42.0999 8.07757 39.1714 9.76542 36.2429C11.7995 32.7085 13.8336 29.1885 15.8821 25.6541C17.6565 22.5958 19.4165 19.5375 21.1909 16.4647C21.9266 15.1952 22.7201 13.9257 23.4269 12.6418C24.5522 12.6418 25.6918 12.6418 26.8171 12.6418C30.1784 12.6418 33.5397 12.6418 36.9009 12.6418C40.998 12.6418 45.095 12.6418 49.192 12.6418C52.7264 12.6418 56.2463 12.6418 59.7807 12.6418C61.2522 12.6418 62.7237 12.6706 64.1951 12.6562C64.7577 13.6372 65.3348 14.6182 65.8974 15.5991C67.5708 18.5421 69.2587 21.4706 70.9466 24.3846Z" fill="#69A5FF"/>
<path d="M50.9951 62.0063C50.9951 61.9923 51.0091 61.9783 51.0091 61.9644C51.0091 61.9923 51.0091 61.9923 50.9951 62.0063Z" fill="#75CCD5"/>
<path d="M51.0961 51.9237C51.0528 51.8805 51.0095 51.8516 50.9951 51.8228C51.024 51.8949 51.0817 51.9237 51.0961 51.9237Z" fill="#75CCD5"/>
<path d="M5.25002 57.2039H18.4066H24.2203C24.3358 57.3626 24.5233 57.478 24.7397 57.478C25.0859 57.478 25.3744 57.1895 25.3744 56.8432C25.3744 56.497 25.0859 56.2085 24.7397 56.2085C24.5233 56.2085 24.3213 56.3239 24.2059 56.497H12.6073H5.26444C5.14903 56.3239 4.9615 56.2085 4.7451 56.2085C4.39888 56.2085 4.11035 56.497 4.11035 56.8432C4.11035 57.1895 4.39888 57.478 4.7451 57.478C4.94707 57.478 5.13461 57.3626 5.25002 57.2039Z" fill="#75CCD5"/>
<path d="M64.5557 55.0688C64.4403 54.8957 64.2384 54.7803 64.022 54.7803C63.6757 54.7803 63.3872 55.0688 63.3872 55.415C63.3872 55.7612 63.6757 56.0498 64.022 56.0498C64.2384 56.0498 64.4259 55.9488 64.5413 55.7757H70.3406H83.4972C83.6126 55.9488 83.8001 56.0498 84.0165 56.0498C84.3628 56.0498 84.6513 55.7612 84.6513 55.415C84.6513 55.0688 84.3628 54.7803 84.0165 54.7803C83.8001 54.7803 83.5982 54.8957 83.4972 55.0688H76.1543H64.5557Z" fill="#75CCD5"/>
<path d="M47.0856 88.9556L47.0711 88.97C47.0423 89.0133 47.0279 89.0566 47.0134 89.0999C46.9846 89.1576 46.9557 89.2153 46.9557 89.2874V89.9943V90.9464V91.3936C46.797 91.509 46.6816 91.6966 46.6816 91.9129C46.6816 92.2592 46.9702 92.5477 47.3164 92.5477C47.6626 92.5477 47.9511 92.2592 47.9511 91.9129C47.9511 91.6966 47.8357 91.4946 47.6626 91.3792V90.9464V89.374C47.778 89.2585 47.8934 89.1287 48.0233 88.9989C48.1531 88.8546 48.2829 88.7248 48.4272 88.5805C48.557 88.4507 48.6869 88.3064 48.8167 88.1622C48.8456 88.1333 48.86 88.1189 48.8888 88.09C48.9177 88.09 48.9465 88.1044 48.9754 88.1044C49.3216 88.1044 49.6101 87.8159 49.6101 87.4697C49.6101 87.1235 49.3216 86.835 48.9754 86.835C48.6292 86.835 48.3406 87.1235 48.3406 87.4697C48.3406 87.5274 48.3551 87.5851 48.3695 87.6284C48.3551 87.6428 48.3551 87.6428 48.3406 87.6572C48.2108 87.8015 48.081 87.9602 47.9511 88.09C47.8213 88.2199 47.677 88.3641 47.5472 88.5084C47.4174 88.6382 47.302 88.7969 47.1721 88.9123C47.1144 88.9412 47.1 88.9412 47.0856 88.9556Z" fill="#75CCD5"/>
<path d="M48.2397 7.65029C48.1099 7.50602 47.98 7.37619 47.8358 7.23192C47.7203 7.10209 47.6049 6.97226 47.4751 6.85685V5.2844V4.85162C47.6482 4.73621 47.7636 4.53425 47.7636 4.31786C47.7636 3.97163 47.4751 3.68311 47.1289 3.68311C46.7827 3.68311 46.4941 3.97163 46.4941 4.31786C46.4941 4.53425 46.5951 4.72179 46.7682 4.83719V5.2844V6.23653V6.9434C46.7682 7.01553 46.7827 7.07324 46.8259 7.13095C46.8404 7.17423 46.8548 7.2175 46.8836 7.26078L46.8981 7.27521C46.9125 7.28964 46.9125 7.28963 46.9269 7.30405C47.0568 7.43389 47.1866 7.57816 47.302 7.70799C47.4318 7.85225 47.5617 7.98208 47.7059 8.12634C47.8502 8.27061 47.9656 8.41487 48.0954 8.55913C48.1099 8.57355 48.1099 8.57356 48.1243 8.58798C48.1099 8.64569 48.0954 8.68896 48.0954 8.74667C48.0954 9.09289 48.384 9.38142 48.7302 9.38142C49.0764 9.38142 49.3649 9.09289 49.3649 8.74667C49.3649 8.40044 49.0764 8.11192 48.7302 8.11192C48.7013 8.11192 48.6725 8.11192 48.6436 8.12634C48.6148 8.09749 48.6004 8.06864 48.5715 8.05421C48.4994 7.92438 48.3695 7.78012 48.2397 7.65029Z" fill="#75CCD5"/>
<path d="M44.0269 1.37476C44.0269 1.60558 44.1568 1.80754 44.3443 1.92295V2.45672C44.3299 2.45672 44.3299 2.45672 44.3154 2.45672V13.6081C44.3154 13.6514 44.3299 13.6947 44.3443 13.7235C44.3443 13.7956 44.3731 13.8678 44.4309 13.9399C44.4597 13.9687 44.4886 14.012 44.5174 14.0409C44.5463 14.0697 44.5895 14.0986 44.6184 14.1274C44.6473 14.1563 44.6905 14.1996 44.7194 14.2284C44.7338 14.2428 44.7338 14.2428 44.7482 14.2573C44.7627 14.2717 44.7627 14.2717 44.7771 14.2861C44.8059 14.315 44.8348 14.3438 44.8636 14.3727C44.9358 14.4448 45.0079 14.5169 45.08 14.5891C45.1954 14.6901 45.3109 14.8055 45.4118 14.9064C45.5272 15.0219 45.6282 15.1228 45.7436 15.2382C45.7725 15.2671 45.7869 15.2815 45.8158 15.3104C45.9167 15.3969 46.0033 15.4835 46.1043 15.5701C46.1476 15.6133 46.2053 15.671 46.263 15.7143C46.3062 15.7432 46.3495 15.772 46.3784 15.8009C46.4072 15.8297 46.4361 15.8586 46.4794 15.8874C46.5226 15.9307 46.5659 15.974 46.6092 16.0173C46.6381 16.0461 46.6525 16.0605 46.6813 16.0894V25.7405C46.2918 25.7405 45.9023 25.7405 45.5128 25.7405C45.3541 25.7405 45.181 25.7405 45.0223 25.7405V18.3976C45.181 18.2822 45.2964 18.0946 45.2964 17.8782C45.2964 17.532 45.0079 17.2435 44.6617 17.2435C44.3154 17.2435 44.0269 17.532 44.0269 17.8782C44.0269 18.0946 44.1423 18.2966 44.3154 18.412V25.6683C43.8538 25.6683 43.3922 25.6683 42.9305 25.6683V22.1628V8.89076C43.046 8.77535 43.1325 8.61667 43.1325 8.42913C43.1325 8.0829 42.844 7.79438 42.4978 7.79438C42.1515 7.79438 41.863 8.0829 41.863 8.42913C41.863 8.67437 42.0073 8.89076 42.2237 8.99174V17.0415V25.6539C41.4447 25.6539 40.6801 25.6539 39.9011 25.6539V21.0808V8.03962C40.002 7.92421 40.0597 7.77995 40.0597 7.62126C40.0597 7.27504 39.7712 6.98652 39.425 6.98652C39.0788 6.98652 38.7903 7.27504 38.7903 7.62126C38.7903 7.88093 38.9634 8.11176 39.1942 8.21274V14.892V25.6539C39.0499 25.6539 38.9201 25.6539 38.7758 25.6539C38.4152 25.6539 38.0545 25.6539 37.6939 25.6539C37.6939 23.4467 37.7083 21.2395 37.7083 19.0467C37.766 19.0179 37.8093 18.989 37.8526 18.9458C38.0978 18.7005 38.0978 18.2966 37.8526 18.0513C37.6073 17.8061 37.2034 17.8061 36.9581 18.0513C36.7129 18.2966 36.7129 18.7005 36.9581 18.9458C36.9726 18.9602 36.987 18.9746 37.0014 18.989C37.0014 21.2107 36.987 23.4467 36.987 25.6683C36.8716 25.6683 36.7706 25.6683 36.6552 25.6683C35.025 24.0382 33.4093 22.4224 31.7792 20.7923C30.7549 19.768 29.7307 18.7582 28.7208 17.734C28.7208 17.6907 28.7353 17.6618 28.7353 17.6186C28.7353 17.2723 28.4467 16.9838 28.1005 16.9838C27.7543 16.9838 27.4658 17.2723 27.4658 17.6186C27.4658 17.9648 27.7543 18.2533 28.1005 18.2533C28.1438 18.2533 28.1871 18.2533 28.2303 18.2389C30.7116 20.7202 33.1785 23.187 35.6598 25.6683C34.9962 25.6683 34.3182 25.6683 33.6546 25.6683C33.6257 25.6683 33.5824 25.6683 33.5536 25.6683C33.2218 25.6683 32.8755 25.7982 32.6159 26.0001C31.5628 24.947 30.4952 23.8795 29.4421 22.8264C29.4421 22.4802 29.1536 22.1916 28.8074 22.1916C28.4612 22.1916 28.1726 22.4802 28.1726 22.8264C28.1726 23.1726 28.4612 23.4611 28.8074 23.4611C28.8795 23.4611 28.9661 23.4467 29.0238 23.4178C30.0625 24.4565 31.1011 25.4952 32.1542 26.5483C32.0388 26.7647 31.9811 26.9955 31.9956 27.2552C31.9956 27.6736 31.9956 28.0775 31.9956 28.4958H31.9811H30.1202C30.0048 28.3227 29.8172 28.2073 29.5864 28.2073C29.2402 28.2073 28.9516 28.4958 28.9516 28.8421C28.9516 29.1883 29.2402 29.4768 29.5864 29.4768C29.8028 29.4768 29.9903 29.3614 30.1057 29.2027H31.9667H31.9811C31.9811 29.924 31.9811 30.6453 31.9811 31.3811H26.3694C26.3405 31.3811 26.3261 31.3811 26.3117 31.3811C24.0468 29.1306 21.7963 26.8657 19.5314 24.6152C19.5314 24.6008 19.5314 24.5864 19.5314 24.5864C19.5314 24.2401 19.2429 23.9516 18.8966 23.9516C18.5504 23.9516 18.2619 24.2401 18.2619 24.5864C18.2619 24.9326 18.5504 25.2211 18.8966 25.2211C18.9688 25.2211 19.0409 25.2067 19.0986 25.1778C21.3924 27.4716 23.6861 29.7653 25.9799 32.0591C26.1097 32.1889 26.3117 32.1889 26.4559 32.0735H32.01C32.01 32.5207 32.01 32.9679 32.01 33.4151H25.0277H13.4436C13.3282 33.2709 13.1551 33.1699 12.9531 33.1699C12.6069 33.1699 12.3183 33.4584 12.3183 33.8046C12.3183 34.1509 12.6069 34.4394 12.9531 34.4394C13.1839 34.4394 13.3859 34.3096 13.5013 34.122H26.932H32.01C32.01 34.6702 32.01 35.2184 32.01 35.7666H29.8028C29.6874 35.5646 29.4854 35.4204 29.2402 35.4204C28.8939 35.4204 28.6054 35.7089 28.6054 36.0551C28.6054 36.4014 28.8939 36.6899 29.2402 36.6899C29.4277 36.6899 29.6008 36.6033 29.7162 36.4735H32.01C32.01 37.0938 32.01 37.7141 32.01 38.3344H24.3064H21.2914C21.176 38.1613 20.974 38.0315 20.7576 38.0315C20.4114 38.0315 20.1229 38.32 20.1229 38.6662C20.1229 39.0125 20.4114 39.301 20.7576 39.301C20.9596 39.301 21.1471 39.2 21.2625 39.0413H32.01C32.01 39.7482 32.01 40.4695 32.01 41.1764H20.5845H14.3091C14.1937 41.0177 14.0062 40.9023 13.7898 40.9023C13.4436 40.9023 13.1551 41.1908 13.1551 41.537C13.1551 41.8833 13.4436 42.1718 13.7898 42.1718C14.0062 42.1718 14.2082 42.0564 14.3236 41.8833H26.8166H32.01C32.01 42.6479 32.01 43.4269 32.01 44.1914H28.1726C28.0572 44.0039 27.8553 43.8885 27.6389 43.8885C27.2926 43.8885 27.0041 44.177 27.0041 44.5232C27.0041 44.8695 27.2926 45.158 27.6389 45.158C27.8408 45.158 28.0284 45.057 28.1438 44.8983H32.01C32.01 45.7062 32.01 46.514 32.01 47.3363H22.2724H9.44755C9.33214 47.1776 9.1446 47.0622 8.92821 47.0622C8.58198 47.0622 8.29346 47.3508 8.29346 47.697C8.29346 48.0432 8.58198 48.3317 8.92821 48.3317C9.1446 48.3317 9.34657 48.2163 9.46198 48.0432H22.0848H32.01C32.01 48.6635 32.01 49.2839 32.01 49.9042H22.8638H21.1183C21.0029 49.7311 20.8153 49.6301 20.5989 49.6301C20.2527 49.6301 19.9642 49.9186 19.9642 50.2648C19.9642 50.6111 20.2527 50.8996 20.5989 50.8996C20.8153 50.8996 21.0173 50.7842 21.1327 50.6111H32.01C32.01 51.116 32.01 51.6065 32.01 52.1114H22.2435H21.4501C21.4212 52.0825 21.3924 52.0537 21.3491 52.0248C20.4547 51.3468 19.5747 50.6688 18.6803 49.9907C18.637 49.9475 18.5648 49.9475 18.4927 49.9475C18.4494 49.933 18.4062 49.9186 18.3629 49.9186H13.2993H11.5826C11.4672 49.7743 11.2941 49.6734 11.0921 49.6734C10.7459 49.6734 10.4574 49.9619 10.4574 50.3081C10.4574 50.6543 10.7459 50.9429 11.0921 50.9429C11.3229 50.9429 11.5249 50.813 11.6403 50.6255H18.3629C19.2429 51.3035 20.1229 51.9671 21.0029 52.6451C21.0173 52.6596 21.0461 52.674 21.075 52.674C21.1327 52.7605 21.2481 52.8183 21.3635 52.8183H32.01C32.01 52.9769 32.01 53.1356 32.01 53.2943C32.01 53.6261 32.01 53.9723 32.01 54.3041H31.0867C30.9713 54.1022 30.7693 53.9723 30.5241 53.9723C30.1779 53.9723 29.8893 54.2609 29.8893 54.6071C29.8893 54.9533 30.1779 55.2418 30.5241 55.2418C30.7116 55.2418 30.8847 55.1553 31.0002 55.011H31.9956C31.9956 55.5159 31.9956 56.0064 31.9956 56.5113H30.1923C30.1779 56.4969 30.1779 56.4825 30.1634 56.4825C29.5864 55.891 29.0093 55.314 28.4467 54.7225C28.4467 54.7225 28.4467 54.7225 28.4323 54.7081C28.4035 54.6792 28.3746 54.6504 28.3457 54.6215C28.2303 54.5061 28.0572 54.4917 27.913 54.5638C27.8553 54.5061 27.7687 54.4773 27.6821 54.4773H16.3865C16.2711 54.333 16.098 54.2464 15.896 54.2464C15.5498 54.2464 15.2613 54.535 15.2613 54.8812C15.2613 55.2274 15.5498 55.5159 15.896 55.5159C16.1268 55.5159 16.3432 55.3861 16.4442 55.1841H27.6677C27.7399 55.1841 27.7976 55.1697 27.8408 55.1264C27.8697 55.1553 27.8841 55.1697 27.8985 55.1986C28.4756 55.79 29.0526 56.3671 29.6152 56.9585C29.6441 56.9874 29.6874 57.0163 29.7307 57.0307C29.7884 57.1317 29.9038 57.1894 30.0192 57.1894H32.01C32.01 57.8674 32.01 58.5598 32.01 59.2379H23.3543C23.2389 59.0936 23.0658 58.9926 22.8638 58.9926C22.5176 58.9926 22.2291 59.2812 22.2291 59.6274C22.2291 59.9736 22.5176 60.2621 22.8638 60.2621C23.0946 60.2621 23.2966 60.1323 23.412 59.9448H32.01C32.01 60.4497 32.01 60.9402 32.01 61.4451H23.8881H21.6665C21.6376 61.4162 21.6088 61.4018 21.5799 61.3729C20.6278 60.6372 19.6612 59.9015 18.7091 59.1657C18.6514 59.1225 18.5648 59.108 18.4927 59.1225C18.435 59.0792 18.3629 59.0503 18.2908 59.0503H14.338C14.2226 58.8628 14.0206 58.733 13.7898 58.733C13.4436 58.733 13.1551 59.0215 13.1551 59.3677C13.1551 59.7139 13.4436 60.0025 13.7898 60.0025C13.9918 60.0025 14.1649 59.9015 14.2803 59.7572H18.2763C18.2908 59.7572 18.3052 59.7572 18.3196 59.7572C18.334 59.7572 18.334 59.7716 18.3485 59.7861C19.3006 60.5218 20.2527 61.2431 21.2193 61.9788C21.277 62.0798 21.3924 62.152 21.5222 62.152H32.01C32.01 62.6424 32.01 63.1185 32.01 63.609C32.01 63.6811 32.01 63.7532 32.01 63.8398H25.85H25.6481H24.2199H18.8678C18.7524 63.6955 18.5793 63.609 18.3917 63.609C18.0455 63.609 17.757 63.8975 17.757 64.2437C17.757 64.59 18.0455 64.8785 18.3917 64.8785C18.6225 64.8785 18.8389 64.7342 18.9399 64.5467H25.6625H31.909H32.0244C32.0244 65.3257 32.01 66.1047 32.01 66.8837C30.5962 66.8981 29.168 66.9126 27.7543 66.927C27.7543 66.927 27.7543 66.927 27.7399 66.927C27.6966 66.927 27.6533 66.927 27.61 66.927C27.5523 66.927 27.4946 66.927 27.4369 66.927C27.4081 66.8837 27.3792 66.8404 27.3503 66.8116C27.1051 66.5663 26.7012 66.5663 26.4559 66.826C26.2107 67.0712 26.2107 67.4752 26.4704 67.7204C26.7156 67.9657 27.1195 67.9657 27.3648 67.7204C27.3936 67.6916 27.4081 67.6772 27.4225 67.6483C27.4946 67.6483 27.5667 67.6483 27.6244 67.6483C29.0815 67.6339 30.5529 67.6194 32.0244 67.5906C32.0244 67.9368 32.0244 68.2975 32.0388 68.6437C32.0388 68.6726 32.0388 68.687 32.0388 68.7158C32.0388 68.9899 32.111 69.2496 32.2552 69.4804C30.6395 71.1105 29.0238 72.7263 27.408 74.3564C25.6192 76.1597 23.8304 77.963 22.0415 79.7662C21.9983 79.7662 21.9694 79.7518 21.9261 79.7518C21.5799 79.7518 21.2914 80.0403 21.2914 80.3865C21.2914 80.7328 21.5799 81.0213 21.9261 81.0213C22.2724 81.0213 22.5609 80.7328 22.5609 80.3865C22.5609 80.3433 22.5609 80.3 22.5465 80.2567C25.6769 77.1118 28.8074 73.9525 31.9234 70.8076C32.1975 70.5335 32.4572 70.2594 32.7313 69.9997C32.9765 70.1729 33.2795 70.2738 33.6113 70.2738C33.6546 70.2738 33.6978 70.2738 33.7411 70.2738C33.7411 71.6732 33.7411 73.0725 33.7555 74.4863C33.7267 74.5007 33.7123 74.5151 33.6978 74.5295L27.3215 80.9059C27.1051 80.8482 26.8599 80.8915 26.6867 81.0646C26.4415 81.3098 26.4415 81.7137 26.6867 81.959C26.932 82.2042 27.3359 82.2042 27.5812 81.959C27.711 81.8292 27.7687 81.6416 27.7543 81.4685L34.1883 75.0489C34.2316 75.0056 34.246 74.9623 34.2749 74.9191C34.3903 74.8614 34.4624 74.7459 34.4624 74.6161C34.4624 73.1735 34.4624 71.7453 34.448 70.3027C35.328 70.3027 36.208 70.3027 37.088 70.3027C37.088 72.6686 37.1024 75.02 37.1024 77.3859C37.088 77.4003 37.0735 77.4148 37.0591 77.4292C36.8139 77.6744 36.8139 78.0784 37.0591 78.3236C37.3044 78.5689 37.7083 78.5689 37.9535 78.3236C38.1988 78.0784 38.1988 77.6744 37.9535 77.4292C37.9103 77.3859 37.8526 77.3571 37.8093 77.3282C37.8093 74.9912 37.7948 72.6542 37.7948 70.3171C37.968 70.3171 38.1555 70.3171 38.3286 70.3171C38.646 70.3171 38.9634 70.3171 39.2807 70.3171V81.4829V88.1622C39.0499 88.2632 38.8768 88.4796 38.8768 88.7537C38.8768 89.0999 39.1653 89.3884 39.5116 89.3884C39.8578 89.3884 40.1463 89.0999 40.1463 88.7537C40.1463 88.595 40.0886 88.4507 39.9876 88.3353V75.2941V70.3171C40.7666 70.3171 41.5312 70.3171 42.3102 70.3171V79.3334V87.3832C42.0938 87.4842 41.9496 87.7006 41.9496 87.9458C41.9496 88.292 42.2381 88.5806 42.5843 88.5806C42.9305 88.5806 43.2191 88.292 43.2191 87.9458C43.2191 87.7727 43.1469 87.5996 43.0171 87.4842V74.2122V70.3027C43.4787 70.3027 43.9404 70.3027 44.402 70.3027V77.963C44.2289 78.0784 44.1135 78.2803 44.1135 78.4967C44.1135 78.8429 44.402 79.1315 44.7482 79.1315C45.0945 79.1315 45.383 78.8429 45.383 78.4967C45.383 78.2803 45.282 78.0928 45.1089 77.9774V70.3027C45.3253 70.3027 45.5417 70.3027 45.7581 70.3027C46.0899 70.3027 46.4361 70.3027 46.7679 70.3027V80.3577C46.739 80.3865 46.7246 80.401 46.6958 80.4298C46.6525 80.4731 46.6092 80.5164 46.5659 80.5597C46.5371 80.5885 46.4938 80.6174 46.4649 80.6462C46.4217 80.6751 46.3784 80.7039 46.3495 80.7328C46.2918 80.776 46.2485 80.8193 46.1908 80.877C46.0899 80.9636 46.0033 81.0501 45.9023 81.1367C45.8735 81.1656 45.859 81.18 45.8302 81.2088C45.7148 81.3098 45.5994 81.4252 45.4984 81.5406C45.383 81.656 45.282 81.757 45.1666 81.858C45.0945 81.9301 45.0223 82.0023 44.9502 82.0744C44.9213 82.1033 44.8925 82.1321 44.8636 82.161C44.8492 82.1754 44.8492 82.1754 44.8348 82.1898C44.8204 82.1898 44.8204 82.2042 44.8059 82.2187C44.7771 82.2475 44.7338 82.2908 44.705 82.3196C44.6761 82.3485 44.6328 82.3629 44.604 82.4062C44.5751 82.435 44.5463 82.4639 44.5174 82.5072C44.4741 82.5793 44.4453 82.637 44.4309 82.7236C44.4164 82.7669 44.402 82.7957 44.402 82.839V93.9759C44.2289 94.0914 44.1135 94.2789 44.1135 94.5097C44.1135 94.8559 44.402 95.1445 44.7482 95.1445C45.0945 95.1445 45.383 94.8559 45.383 94.5097C45.383 94.3077 45.282 94.1346 45.1377 94.0192V82.8823C45.1666 82.8534 45.181 82.839 45.2099 82.8101L45.2531 82.7668C45.282 82.7524 45.2964 82.738 45.3109 82.7092C45.3541 82.6659 45.3974 82.6226 45.4407 82.5793C45.5128 82.5072 45.5994 82.4206 45.6715 82.3485C45.7725 82.2475 45.8879 82.1465 45.9889 82.0455C46.0899 81.9446 46.1908 81.8436 46.2918 81.7426C46.3063 81.7282 46.3063 81.7282 46.3207 81.7138C46.3495 81.6993 46.364 81.6705 46.3928 81.656C46.4217 81.6272 46.4505 81.6128 46.4649 81.5839C46.5515 81.5118 46.6236 81.4397 46.7102 81.3675C46.739 81.3387 46.7679 81.3242 46.8112 81.2954C46.8544 81.2665 46.8833 81.2377 46.9266 81.1944L46.8977 81.2233C46.9699 81.1656 47.0275 81.0934 47.0997 81.0357C47.1285 81.0069 47.1574 80.978 47.2007 80.9492C47.2151 80.9347 47.2295 80.9203 47.2584 80.9059C47.3017 80.877 47.3305 80.8338 47.3738 80.7905C47.3882 80.776 47.4026 80.7616 47.4171 80.7616C47.4892 80.6895 47.5036 80.5741 47.4892 80.4731C47.4892 80.4587 47.4892 80.4443 47.4892 80.4298V70.346C48.499 70.3316 49.5088 70.2306 50.5042 70.0286C50.4033 70.1296 50.3023 70.245 50.1869 70.3604C50.0426 70.5047 49.8839 70.6345 49.7397 70.7788C49.6243 70.9086 49.4944 71.0384 49.379 71.1538C49.3357 71.1827 49.2924 71.226 49.2636 71.2692L49.2492 71.2837C49.1915 71.3414 49.1626 71.4279 49.1626 71.5001C49.1626 71.5578 49.177 71.6155 49.2059 71.6732V85.0318C49.2059 85.1039 49.2347 85.1904 49.278 85.2481C49.278 85.2626 49.278 85.2626 49.278 85.277C49.278 85.2914 49.278 85.3059 49.278 85.3059C49.278 85.378 49.3069 85.479 49.3502 85.5222C50.0426 86.2003 50.7351 86.8927 51.4275 87.5707V90.8166V91.3215C51.1823 91.4081 51.0092 91.6389 51.0092 91.913C51.0092 92.2592 51.2977 92.5478 51.6439 92.5478C51.9901 92.5478 52.2787 92.2592 52.2787 91.913C52.2787 91.7687 52.221 91.6389 52.1344 91.5235V90.8455V87.7294V87.4698C52.1344 87.3688 52.0911 87.2822 52.0334 87.2245C52.019 87.1957 52.0046 87.1524 51.9757 87.138C51.2833 86.4599 50.5908 85.7675 49.8983 85.0895C49.8983 85.075 49.8983 85.0606 49.8983 85.0318V71.5866C49.9849 71.4856 50.0715 71.3991 50.1725 71.2981C50.2879 71.1827 50.4033 71.0673 50.5187 70.9519C50.5908 70.8942 50.6485 70.8365 50.7206 70.7643C50.7783 70.6922 50.8505 70.6345 50.9082 70.5624C51.0236 70.4325 51.139 70.3171 51.2688 70.2017C51.3698 70.1007 51.4852 69.9853 51.5862 69.8843C51.6583 69.8122 51.7305 69.7257 51.8026 69.6535C51.7882 69.668 51.7737 69.6824 51.7593 69.6968C51.7882 69.6679 51.8026 69.6535 51.8315 69.6247C52.3796 69.4371 52.9278 69.2207 53.4472 68.9611C53.5482 68.9178 53.6347 68.8601 53.7357 68.8168V71.4568C53.4904 71.6011 53.2452 71.7597 53.0144 71.9184C52.899 71.9906 52.7836 72.0627 52.6682 72.1348C52.5816 72.1925 52.4806 72.2647 52.3941 72.3224C52.2642 72.4233 52.12 72.5099 51.9901 72.6109C51.9324 72.6542 51.8747 72.6974 51.8026 72.7407C51.7449 72.784 51.7016 72.8273 51.6439 72.8561C51.6583 72.8561 51.6728 72.8417 51.6728 72.8417C51.6006 72.885 51.5429 72.9283 51.5141 73.0004C51.4996 73.0292 51.4996 73.0581 51.4852 73.0869C51.4564 73.1446 51.4275 73.2024 51.4275 73.2601V82.2764C51.24 82.3918 51.0957 82.5937 51.0957 82.8246C51.0957 83.1708 51.3842 83.4593 51.7305 83.4593C52.0767 83.4593 52.3652 83.1708 52.3652 82.8246C52.3652 82.637 52.2642 82.4495 52.1344 82.3341V73.361C52.2065 73.3033 52.2931 73.2456 52.3652 73.2023C52.5095 73.1014 52.6393 73.0148 52.7836 72.9138C52.8701 72.8561 52.9567 72.7984 53.0433 72.7407C53.1587 72.6686 53.2885 72.5964 53.4039 72.5099C53.5193 72.4233 53.6347 72.3512 53.7501 72.2791C53.9088 72.1781 54.0819 72.0771 54.255 71.9761C54.3272 71.9328 54.3849 71.8463 54.3993 71.7597C54.4281 71.7165 54.4426 71.6588 54.4426 71.6011V68.4273C55.0629 68.0378 55.6255 67.5762 56.1593 67.0713C57.9625 68.9034 59.7514 70.7355 61.5402 72.5676C63.3146 74.3853 65.1035 76.203 66.8779 78.0207C66.8634 78.0639 66.8634 78.0928 66.8634 78.1361C66.8634 78.4823 67.1376 78.7708 67.4838 78.7852C67.83 78.7852 68.1185 78.5112 68.133 78.1649C68.133 77.8187 67.8588 77.5302 67.5126 77.5158C67.4693 77.5158 67.4261 77.5158 67.3828 77.5302C64.2812 74.3564 61.1651 71.1827 58.0635 68.0234C57.5875 67.5473 57.1258 67.0713 56.6498 66.5808C56.7796 66.4509 56.895 66.3067 57.0249 66.1624C57.0537 66.1768 57.097 66.1768 57.1258 66.1768C58.6694 66.1913 60.213 66.2057 61.7566 66.2345C61.771 66.2634 61.7855 66.2778 61.7999 66.3067L68.0752 72.7696C68.0031 72.986 68.0464 73.2312 68.2195 73.4043C68.4647 73.6496 68.8687 73.664 69.1139 73.4187C69.3592 73.1735 69.3736 72.7696 69.1284 72.5243C68.9985 72.3945 68.811 72.3224 68.6379 72.3368L62.3048 65.8162C62.2615 65.7729 62.2182 65.744 62.175 65.7296C62.1173 65.6142 62.0019 65.5421 61.872 65.5421C60.4294 65.5277 59.0012 65.5132 57.5586 65.4988C57.7461 65.2536 57.9193 64.9939 58.0779 64.7198C58.3809 64.2437 58.6406 63.7388 58.857 63.2195H63.1271H69.5467C69.6477 63.407 69.8497 63.5369 70.0805 63.5369C70.4123 63.5369 70.6864 63.2627 70.6864 62.9309C70.6864 62.5991 70.4123 62.3251 70.0805 62.3251C69.8929 62.3251 69.7342 62.4116 69.6188 62.5415H64.4976H63.1271H62.9251H59.1166C59.3042 62.0221 59.4629 61.4739 59.5927 60.9257H67.0654C67.1953 60.9257 67.2962 60.8536 67.3539 60.7526C68.2628 60.0457 69.1861 59.3533 70.0949 58.6608C70.1093 58.6608 70.1093 58.6464 70.1237 58.6464C70.1382 58.6464 70.1526 58.6464 70.167 58.6464H73.9899C74.1054 58.7907 74.2641 58.8772 74.466 58.8772C74.7978 58.8772 75.0719 58.6031 75.0719 58.2713C75.0719 57.9395 74.7978 57.6654 74.466 57.6654C74.2496 57.6654 74.0476 57.7953 73.9467 57.9684H70.167C70.0949 57.9684 70.0228 57.9972 69.9651 58.0405C69.8929 58.0261 69.8064 58.0405 69.7487 58.0838C68.8254 58.7907 67.9166 59.4831 66.9933 60.19C66.9644 60.2188 66.9356 60.2333 66.9212 60.2621H64.8005H59.7369C59.8379 59.7139 59.9101 59.1657 59.9533 58.6175H65.3631C65.4785 58.8051 65.6805 58.9349 65.9113 58.9349C66.2576 58.9349 66.5461 58.6464 66.5461 58.3002C66.5461 57.9539 66.2576 57.6654 65.9113 57.6654C65.7094 57.6654 65.5362 57.7664 65.4208 57.9107H59.9966C60.0399 56.8864 59.9966 55.8622 59.8379 54.8523C60.1553 54.5205 60.4871 54.1887 60.8045 53.8569C60.8189 53.8281 60.9776 53.8425 61.0497 53.8425H72.2732C72.3886 54.0301 72.5906 54.1743 72.8214 54.1743C73.1677 54.1743 73.4562 53.8858 73.4562 53.5396C73.4562 53.1933 73.1677 52.9048 72.8214 52.9048C72.6339 52.9048 72.4608 52.9914 72.3309 53.1356H61.0353C60.9776 53.1356 60.7901 53.1501 60.6314 53.1789C60.516 53.1933 60.415 53.2366 60.3717 53.2799C60.3428 53.3087 60.314 53.3376 60.2851 53.3665C60.2851 53.3665 60.2851 53.3664 60.2707 53.3809C60.0543 53.5973 59.8524 53.8137 59.636 54.03C59.434 53.1501 59.1599 52.2989 58.7848 51.4766H67.3684C67.4838 51.4766 67.5848 51.4189 67.6569 51.3324C67.6857 51.3179 67.7002 51.3179 67.729 51.3035C68.609 50.6255 69.489 49.9619 70.369 49.2839H77.0916C77.207 49.4714 77.4089 49.6012 77.6398 49.6012C77.986 49.6012 78.2745 49.3127 78.2745 48.9665C78.2745 48.6203 77.986 48.3317 77.6398 48.3317C77.4378 48.3317 77.2647 48.4327 77.1493 48.577H75.4326H70.3834C70.3401 48.577 70.2969 48.5914 70.2536 48.6058C70.1815 48.6058 70.1093 48.6203 70.0661 48.6491C69.1716 49.3271 68.2916 50.0052 67.3972 50.6832C67.3539 50.712 67.3251 50.7409 67.2962 50.7698H66.5028H58.453C58.1645 50.2504 57.8327 49.7455 57.4721 49.2694H67.628C67.7435 49.4425 67.931 49.558 68.1618 49.558C68.508 49.558 68.7966 49.2694 68.7966 48.9232C68.7966 48.577 68.508 48.2885 68.1618 48.2885C67.9454 48.2885 67.7579 48.4039 67.6425 48.5625H65.8969H56.8806C56.3324 47.9711 55.7265 47.4373 55.0629 46.9757C55.1639 46.8891 55.2649 46.7881 55.3514 46.6872C55.3514 46.6872 55.3514 46.6872 55.3658 46.6872H55.4957H66.6759H79.2988C79.4142 46.8603 79.6017 46.9757 79.8325 46.9757C80.1787 46.9757 80.4673 46.6872 80.4673 46.3409C80.4673 45.9947 80.1787 45.7062 79.8325 45.7062C79.6161 45.7062 79.4286 45.8216 79.3132 45.9803H66.4884H56.015C56.5344 45.3455 56.996 44.6531 57.3566 43.9174C57.4143 43.7875 57.4721 43.6721 57.5298 43.5423H61.7855C61.9009 43.701 62.0884 43.8019 62.2904 43.8019C62.6366 43.8019 62.9251 43.5134 62.9251 43.1672C62.9251 42.821 62.6366 42.5324 62.2904 42.5324C62.0596 42.5324 61.872 42.6479 61.7566 42.8354H57.8183C58.1068 42.0852 58.3088 41.3062 58.453 40.5272H61.9441H74.4371C74.5526 40.7003 74.7401 40.8157 74.9709 40.8157C75.3172 40.8157 75.6057 40.5272 75.6057 40.181C75.6057 39.8348 75.3172 39.5462 74.9709 39.5462C74.7545 39.5462 74.567 39.6616 74.4516 39.8203H68.1762H58.554C58.6406 39.1135 58.6694 38.4066 58.6694 37.6853H67.5126C67.628 37.844 67.8156 37.9449 68.0175 37.9449C68.3638 37.9449 68.6523 37.6564 68.6523 37.3102C68.6523 36.964 68.3638 36.6754 68.0175 36.6754C67.7867 36.6754 67.5992 36.7909 67.4838 36.9784H64.4687H58.6406C58.6117 36.4158 58.5396 35.8387 58.4386 35.2761H61.6412C61.7566 35.4059 61.9297 35.4925 62.1173 35.4925C62.4635 35.4925 62.752 35.204 62.752 34.8577C62.752 34.5115 62.4635 34.223 62.1173 34.223C61.872 34.223 61.6701 34.3673 61.5547 34.5692H58.2943C58.1501 33.9489 57.977 33.3574 57.7462 32.766H61.8143H75.245C75.3604 32.9535 75.5624 33.0833 75.7932 33.0833C76.1394 33.0833 76.428 32.7948 76.428 32.4486C76.428 32.1024 76.1394 31.8138 75.7932 31.8138C75.5912 31.8138 75.4181 31.9148 75.3027 32.0591H63.7186H57.4288C57.3134 31.7994 57.1691 31.5398 57.0249 31.2945C56.9094 31.0925 56.794 30.905 56.6642 30.7175H62.2327C62.3769 30.8329 62.5789 30.8184 62.7087 30.703C65.0025 28.4093 67.2962 26.1155 69.59 23.8218C69.6477 23.8506 69.7198 23.8651 69.792 23.8651C70.1382 23.8651 70.4267 23.5765 70.4267 23.2303C70.4267 22.8841 70.1382 22.5956 69.792 22.5956C69.4457 22.5956 69.1572 22.8841 69.1572 23.2303C69.1572 23.2447 69.1572 23.2592 69.1572 23.2592C66.9067 25.5096 64.6418 27.7745 62.3914 30.025C62.3769 30.025 62.3481 30.025 62.3336 30.025H56.3468C56.2891 30.025 56.2458 30.0394 56.2026 30.0683C56.0006 29.8086 55.7842 29.5489 55.5678 29.3181C57.097 27.8034 58.6117 26.2742 60.1409 24.7595C60.213 24.7883 60.2851 24.8028 60.3573 24.8028C60.7035 24.8028 60.992 24.5142 60.992 24.168C60.992 23.8218 60.7035 23.5333 60.3573 23.5333C60.0111 23.5333 59.7225 23.8218 59.7225 24.168C58.1789 25.7116 56.6209 27.2696 55.0773 28.8132C54.8465 28.5968 54.6157 28.3804 54.356 28.1929V24.9182C54.356 24.8605 54.3416 24.8028 54.3127 24.7595C54.2983 24.6729 54.255 24.6008 54.1685 24.5431C53.9954 24.4421 53.8367 24.3411 53.6636 24.2401C53.5482 24.168 53.4327 24.0815 53.3173 24.0093C53.2019 23.9228 53.0721 23.8651 52.9567 23.7785C52.8701 23.7208 52.7836 23.6631 52.697 23.6054C52.5528 23.5044 52.4229 23.4178 52.2787 23.3169C52.2065 23.2592 52.12 23.2015 52.0478 23.1582V14.0697C52.1921 13.9543 52.2787 13.7812 52.2787 13.5792C52.2787 13.233 51.9901 12.9445 51.6439 12.9445C51.2977 12.9445 51.0092 13.233 51.0092 13.5792C51.0092 13.8101 51.139 14.0265 51.341 14.1274V23.1438C51.341 23.2159 51.3554 23.2736 51.3987 23.3169C51.3987 23.3457 51.4131 23.3746 51.4275 23.4034C51.4564 23.4756 51.5141 23.5333 51.5862 23.5621C51.5718 23.5621 51.5574 23.5477 51.5574 23.5477C51.6151 23.5765 51.6728 23.6198 51.716 23.6631C51.7737 23.7064 51.8315 23.7497 51.9036 23.7929C52.0334 23.8939 52.1777 23.9805 52.3075 24.0815C52.3941 24.1392 52.495 24.2113 52.5816 24.269C52.697 24.3411 52.8124 24.4133 52.9278 24.4854C53.1586 24.6441 53.4039 24.8028 53.6491 24.947V27.5726C53.4039 27.3995 53.1442 27.2552 52.8845 27.1109C52.4229 26.8513 51.9324 26.6493 51.4419 26.4618C51.3554 26.3752 51.2688 26.2886 51.1823 26.2021C51.0669 26.0867 50.937 25.9713 50.8216 25.8414C50.7639 25.7693 50.6918 25.7116 50.6341 25.6395C50.5764 25.5818 50.5042 25.5241 50.4321 25.4519C50.3167 25.3365 50.2013 25.2211 50.0859 25.1057C49.9993 25.0047 49.8984 24.9182 49.8118 24.8172V11.3721C49.8118 11.3576 49.8118 11.3432 49.8118 11.3144C50.5043 10.6363 51.1967 9.94387 51.8892 9.26584C51.918 9.23699 51.9324 9.20813 51.9468 9.17928C52.019 9.10715 52.0478 9.0206 52.0478 8.93404V5.55833V4.31769C52.1344 4.20228 52.1921 4.07244 52.1921 3.92818C52.1921 3.58196 51.9036 3.29343 51.5574 3.29343C51.2111 3.29343 50.9226 3.58196 50.9226 3.92818C50.9226 4.20228 51.0957 4.43309 51.341 4.51965V8.76093V8.81863C50.6485 9.49665 49.9561 10.1891 49.2636 10.8671C49.2059 10.9248 49.1915 11.0114 49.1915 11.0835C49.1915 11.098 49.1915 11.1124 49.1915 11.1124C49.1915 11.1268 49.1915 11.1268 49.1915 11.1412C49.1482 11.1989 49.1193 11.2711 49.1193 11.3576V24.7451C49.0905 24.8028 49.0761 24.8605 49.0761 24.9182C49.0761 24.9903 49.1049 25.0769 49.1626 25.1346L49.177 25.149C49.2059 25.1923 49.2492 25.2355 49.2925 25.2644C49.4079 25.3942 49.5377 25.5241 49.6531 25.6395C49.783 25.7693 49.9272 25.8991 50.057 26.029C49.1915 25.827 48.297 25.7116 47.4026 25.6683V15.9884C47.4026 15.974 47.4026 15.9596 47.4026 15.9451C47.4315 15.8441 47.4026 15.7287 47.3305 15.6566C47.3161 15.6422 47.3017 15.6278 47.2872 15.6278C47.2439 15.5845 47.2151 15.5556 47.1718 15.5123C47.1574 15.4979 47.143 15.4835 47.1141 15.4691C47.0853 15.4402 47.0564 15.4114 47.0131 15.3825C46.941 15.3248 46.8833 15.2671 46.8112 15.195L46.84 15.2238C46.8112 15.195 46.7679 15.1661 46.7246 15.1228C46.6958 15.094 46.6669 15.0796 46.6236 15.0507C46.5371 14.9786 46.4649 14.9064 46.3784 14.8343C46.3495 14.8055 46.3207 14.791 46.3062 14.7622C46.2774 14.7333 46.263 14.7189 46.2341 14.7045C46.2197 14.6901 46.2197 14.6901 46.2053 14.6756C46.1043 14.5746 46.0033 14.4737 45.9023 14.3727C45.8013 14.2717 45.7004 14.1707 45.5849 14.0697C45.5128 13.9976 45.4263 13.9111 45.3541 13.8389C45.3108 13.7956 45.2676 13.7524 45.2243 13.7091C45.2099 13.6947 45.1954 13.6658 45.1666 13.6514L45.1233 13.6081C45.0945 13.5792 45.0512 13.5504 45.0223 13.5215V13.2619C45.0368 13.2619 45.0368 13.2763 45.0512 13.2763V1.85082C45.1954 1.73541 45.2964 1.5623 45.2964 1.36034C45.2964 1.01411 45.0079 0.725586 44.6617 0.725586C44.3154 0.740012 44.0269 1.02853 44.0269 1.37476ZM47.7056 32.8381C47.7777 32.8525 47.8643 32.867 47.9364 32.8814C48.1239 32.9247 48.3115 32.9679 48.499 33.0256C48.6433 33.0689 48.7875 33.1122 48.9318 33.1699C48.9607 33.1843 49.0039 33.1843 49.0328 33.1987C49.0472 33.1987 49.0616 33.2132 49.0761 33.2132C49.379 33.3719 49.682 33.5305 49.9705 33.7325C49.9993 33.7469 50.1292 33.8479 50.1436 33.8624C50.259 33.9633 50.36 34.0643 50.4754 34.1653C50.5764 34.2663 50.6774 34.3817 50.7783 34.4971C50.8216 34.5548 50.8793 34.6125 50.9226 34.6702C50.9226 34.6846 50.937 34.6846 50.937 34.6991C51.1101 34.9587 51.2833 35.2184 51.4131 35.5069C51.4275 35.5358 51.4564 35.5791 51.4852 35.6223C51.4852 35.6368 51.4996 35.6656 51.5141 35.6945C51.5862 35.8676 51.6439 36.0551 51.7016 36.2427C51.7882 36.5456 51.8459 36.863 51.918 37.1659V37.1804C51.918 37.2669 51.9324 37.339 51.9468 37.4256C51.9613 37.642 51.9757 37.8584 51.9757 38.0748C51.9757 38.4499 51.9757 38.8105 51.9324 39.1856C51.9324 39.2144 51.9324 39.2721 51.9324 39.3154C51.9324 39.3298 51.918 39.3443 51.918 39.3731C51.8892 39.5751 51.8459 39.7626 51.8026 39.9646C51.7305 40.2675 51.6295 40.5561 51.5285 40.859C51.4852 40.9311 51.4564 41.0177 51.4131 41.0898C51.3265 41.2485 51.24 41.4216 51.139 41.5659C51.0957 41.6236 50.8938 41.8544 50.8938 41.9265C50.8649 41.9698 50.8216 42.0131 50.7928 42.042C50.5764 42.2872 50.3311 42.518 50.0859 42.7344C50.0282 42.7777 49.9705 42.821 49.9128 42.8498C49.7685 42.9364 49.6387 43.0229 49.4944 43.1095C49.379 43.1672 49.2636 43.2249 49.1482 43.2826C49.0761 43.297 48.8885 43.3836 48.8452 43.398C48.5279 43.499 48.2105 43.5855 47.8931 43.6433C47.821 43.6577 47.7344 43.6721 47.6623 43.6865C47.4748 43.701 47.2872 43.7154 47.0997 43.7298C46.6958 43.7442 46.2774 43.7442 45.8735 43.7442C44.2866 43.7442 42.7142 43.7442 41.1273 43.7442L41.1417 41.4649C41.3437 41.3207 41.4735 41.0898 41.4735 40.8302C41.4735 40.3974 41.1273 40.0367 40.6945 40.0367C40.2617 40.0367 39.9011 40.383 39.9011 40.8157C39.9011 41.0898 40.0453 41.3351 40.2617 41.4793L40.2473 43.7298C39.7568 43.7298 39.2519 43.7298 38.7614 43.7298C38.7614 42.6767 38.7614 41.6092 38.7614 40.5561C38.7614 38.0171 38.7614 35.4781 38.7614 32.9391C38.7614 32.8814 38.7614 32.8237 38.7614 32.766C40.9974 32.766 43.2335 32.766 45.4695 32.766C45.859 32.766 46.2485 32.766 46.6381 32.766C46.9554 32.766 47.2872 32.766 47.6046 32.8092C47.5613 32.8092 47.5758 32.8092 47.7056 32.8381ZM47.5902 32.8092C47.619 32.8092 47.6335 32.8237 47.6623 32.8237C47.6335 32.8237 47.6046 32.8237 47.5902 32.8092ZM51.5285 35.6512C51.5429 35.68 51.5574 35.7233 51.5574 35.7522C51.5574 35.7377 51.5429 35.6945 51.5285 35.6512ZM50.9226 41.8544C50.9082 41.8688 50.8938 41.8833 50.8938 41.8977C50.937 41.84 51.1101 41.6524 50.9226 41.8544ZM49.1193 43.2826C49.1049 43.2826 49.1049 43.297 49.0905 43.297C48.8597 43.4124 49.0328 43.3115 49.1193 43.2826ZM41.4447 55.112C41.4447 54.8523 41.3148 54.6071 41.0984 54.4628L41.1129 50.6543C42.7574 50.6543 44.402 50.6543 46.0466 50.6543C46.3928 50.6543 46.739 50.6543 47.0708 50.6543C47.4748 50.6543 47.8643 50.6832 48.2538 50.7265C48.2682 50.7265 48.2682 50.7265 48.2826 50.7265C48.3548 50.7409 48.4413 50.7553 48.5135 50.7698C48.701 50.813 48.903 50.8563 49.0905 50.8996C49.278 50.9429 49.4656 51.0006 49.6387 51.0727C49.7108 51.1015 49.7685 51.1304 49.8406 51.1448C50.158 51.3035 50.461 51.4622 50.7639 51.6497C50.836 51.693 50.9082 51.7507 50.9803 51.8084C51.0813 51.8806 51.0957 51.9094 51.0669 51.9094C51.1678 51.996 51.3121 52.0825 51.3554 52.1258C51.5574 52.3133 51.817 52.5442 51.9901 52.7894C52.0046 52.8183 52.0334 52.876 52.0623 52.9048C52.12 52.9769 52.1632 53.0635 52.2209 53.1356C52.3075 53.2799 52.3941 53.4241 52.4806 53.5684C52.5672 53.7127 52.6393 53.8714 52.7114 54.0156C52.7403 54.0589 52.7547 54.0877 52.7547 54.1166C52.7692 54.1743 52.7836 54.232 52.798 54.2897C52.9134 54.6359 53.0144 54.9966 53.0865 55.3717C53.1009 55.4727 53.1154 55.5736 53.1442 55.6746C53.1587 55.7179 53.1731 55.7612 53.1731 55.7756C53.2019 55.9343 53.1875 56.1218 53.1875 56.2517C53.2164 56.67 53.2164 57.0884 53.1875 57.5067C53.1731 57.6943 53.1587 57.8818 53.1442 58.0838C53.1442 58.1271 53.1298 58.1703 53.1298 58.1848C53.1154 58.2569 53.1009 58.329 53.0865 58.4012C53 58.8195 52.899 59.2379 52.7403 59.6418C52.7259 59.6851 52.697 59.7716 52.6682 59.8293C52.6537 59.8582 52.6393 59.8726 52.6249 59.9015C52.5239 60.1034 52.4229 60.3054 52.3075 60.4929C52.2065 60.6516 52.1055 60.8103 52.0046 60.9546C51.9757 60.9979 51.9613 61.0123 51.9468 61.0267C51.9036 61.07 51.8603 61.1133 51.8315 61.1565C51.7016 61.3152 51.5574 61.4595 51.3987 61.6038C51.3265 61.6759 51.0524 61.8346 50.9659 61.9644C51.0236 61.8923 51.1246 61.8778 50.9947 61.9788C50.9803 61.9933 50.9659 62.0077 50.9515 62.0077C50.9515 62.0077 50.9515 62.0077 50.9515 62.0221C50.9515 62.0221 50.9515 62.0221 50.9515 62.0077C50.8793 62.0654 50.8072 62.1087 50.7206 62.1664C50.5475 62.2818 50.3744 62.3828 50.2013 62.4837C50.1147 62.527 50.0426 62.5703 49.9561 62.6136C49.9416 62.628 49.9128 62.628 49.8983 62.6424C49.7397 62.6569 49.5233 62.7867 49.379 62.83C49.0039 62.9454 48.5134 63.1329 48.1239 63.1185C48.1672 63.1185 48.4846 63.0752 48.1816 63.1041C48.0518 63.1185 47.9364 63.1329 47.8066 63.1329C47.5469 63.1473 47.2872 63.1618 47.0275 63.1618C44.2433 63.1618 41.4591 63.1618 38.6748 63.1618C38.6748 61.9211 38.6748 60.6805 38.6748 59.4543C38.6748 56.6412 38.6748 53.8425 38.6748 51.0294C38.6748 50.8996 38.6748 50.7842 38.6748 50.6543C39.1798 50.6543 39.6847 50.6543 40.1896 50.6543L40.2329 54.4628C40.0165 54.6071 39.8722 54.8379 39.8722 55.112C39.8722 55.5448 40.2184 55.9054 40.6512 55.9054C41.084 55.9054 41.4447 55.5448 41.4447 55.112ZM52.7691 54.0878C52.7547 54.0445 52.7259 53.9723 52.7114 53.9723C52.7259 54.0012 52.7403 54.0445 52.7691 54.0878ZM53.1731 58.1271V58.1126V58.1271ZM52.0767 60.9546C52.0767 60.969 52.0623 60.969 52.0623 60.9834C52.0623 60.969 52.0623 60.9546 52.0767 60.9546Z" fill="white"/>
<path d="M5.25002 36.4157H18.4066H24.2203C24.3358 36.5744 24.5233 36.6898 24.7397 36.6898C25.0859 36.6898 25.3744 36.4013 25.3744 36.055C25.3744 35.7088 25.0859 35.4203 24.7397 35.4203C24.5233 35.4203 24.3213 35.5357 24.2059 35.7088H12.6073H5.26444C5.14903 35.5357 4.9615 35.4203 4.7451 35.4203C4.39888 35.4203 4.11035 35.7088 4.11035 36.055C4.11035 36.4013 4.39888 36.6898 4.7451 36.6898C4.94707 36.6898 5.13461 36.5744 5.25002 36.4157Z" fill="#75CCD5"/>
<path d="M86.5267 42.7344H74.9281H67.5852C67.4698 42.5613 67.2823 42.4459 67.0659 42.4459C66.7197 42.4459 66.4312 42.7344 66.4312 43.0807C66.4312 43.4269 66.7197 43.7154 67.0659 43.7154C67.2823 43.7154 67.4698 43.6 67.5852 43.4413H80.7419H86.5411C86.6566 43.6 86.8441 43.7154 87.0605 43.7154C87.4067 43.7154 87.6952 43.4269 87.6952 43.0807C87.6952 42.7344 87.4067 42.4459 87.0605 42.4459C86.8441 42.4459 86.6421 42.5613 86.5267 42.7344Z" fill="#75CCD5"/>
<path d="M48.4417 36.6034C48.4417 36.8198 48.5571 37.0217 48.7302 37.1372V37.5699V39.1424C48.6148 39.2578 48.4994 39.3876 48.3696 39.5175C48.2398 39.6617 48.1099 39.7915 47.9656 39.9358C47.8358 40.0656 47.706 40.2099 47.5762 40.3542C47.5473 40.383 47.5329 40.3974 47.504 40.4263C47.4752 40.4263 47.4463 40.4119 47.4175 40.4119C47.0712 40.4119 46.7827 40.7004 46.7827 41.0466C46.7827 41.3928 47.0712 41.6814 47.4175 41.6814C47.7637 41.6814 48.0522 41.3928 48.0522 41.0466C48.0522 40.9889 48.0378 40.9312 48.0234 40.8879C48.0378 40.8735 48.0378 40.8735 48.0522 40.8591C48.182 40.7148 48.3119 40.5561 48.4417 40.4263C48.5716 40.2965 48.7158 40.1522 48.8456 40.0079C48.9755 39.8781 49.0909 39.7194 49.2207 39.604C49.2352 39.5896 49.2351 39.5896 49.2496 39.5752L49.264 39.5607C49.2929 39.5175 49.3073 39.4742 49.3217 39.4309C49.3506 39.3732 49.3794 39.3155 49.3794 39.2434V38.5365V37.5844V37.1372C49.5381 37.0217 49.6535 36.8342 49.6535 36.6178C49.6535 36.2716 49.365 35.9831 49.0188 35.9831C48.7302 35.9686 48.4417 36.2572 48.4417 36.6034Z" fill="#75CCD5"/>
<path d="M50.0568 57.6224V58.0552C49.8837 58.1706 49.7683 58.3726 49.7683 58.589C49.7683 58.9352 50.0568 59.2237 50.403 59.2237C50.7493 59.2237 51.0378 58.9352 51.0378 58.589C51.0378 58.3726 50.9368 58.185 50.7637 58.0696V57.6224V56.6703V55.9634C50.7637 55.8913 50.7493 55.8336 50.706 55.7759C50.6916 55.7326 50.6771 55.6893 50.6483 55.646L50.6339 55.6316C50.6194 55.6172 50.6194 55.6172 50.605 55.6028C50.4752 55.4729 50.3453 55.3287 50.2299 55.1988C50.1001 55.0546 49.9703 54.9247 49.826 54.7805C49.6817 54.6362 49.5663 54.4919 49.4365 54.3477C49.4221 54.3333 49.4221 54.3333 49.4076 54.3188C49.4221 54.2611 49.4365 54.2178 49.4365 54.1601C49.4365 53.8139 49.148 53.5254 48.8017 53.5254C48.4555 53.5254 48.167 53.8139 48.167 54.1601C48.167 54.5064 48.4555 54.7949 48.8017 54.7949C48.8306 54.7949 48.8594 54.7949 48.8883 54.7805C48.9171 54.8093 48.9316 54.8382 48.9604 54.8526C49.0903 54.9969 49.2201 55.1411 49.3499 55.2709C49.4798 55.4152 49.6096 55.545 49.7539 55.6893C49.8693 55.8191 49.9847 55.949 50.1145 56.0644V57.6224H50.0568Z" fill="#75CCD5"/>
</svg>
