<svg width="18" height="20" viewBox="0 0 18 20" fill="none" xmlns="http://www.w3.org/2000/svg">
<path d="M0.66792 0.0879894C0.7695 0.0298819 0.884586 -0.000462764 1.00161 5.33476e-06C1.11864 0.000473434 1.23348 0.0317378 1.33459 0.0906561L11.7919 6.19067L8.55593 9.10267L0.333252 1.70266V0.666657C0.333156 0.549279 0.364051 0.433955 0.422816 0.332346C0.481581 0.230737 0.566131 0.146444 0.66792 0.0879894Z" fill="white"/>
<path d="M0.333252 3.49731V16.5027L7.55993 9.99999L0.333252 3.49731Z" fill="white"/>
<path d="M0.333252 18.2975V19.3335C0.333217 19.4508 0.364134 19.566 0.42288 19.6675C0.481626 19.7691 0.566122 19.8533 0.667836 19.9117C0.76955 19.9702 0.884881 20.0007 1.00218 20.0003C1.11949 19.9999 1.23461 19.9686 1.33592 19.9095L11.7919 13.8095L8.55593 10.8975L0.333252 18.2975Z" fill="white"/>
<path d="M13.0013 13.104L17.3347 10.576C17.4354 10.5173 17.519 10.4332 17.577 10.3322C17.6351 10.2311 17.6657 10.1166 17.6657 10C17.6657 9.88343 17.6351 9.7689 17.577 9.66783C17.519 9.56677 17.4354 9.48269 17.3347 9.424L13.0013 6.896L9.552 10L13.0013 13.104Z" fill="white"/>
</svg>
