<svg width="80" height="12" fill="none" xmlns="http://www.w3.org/2000/svg"><path fill-rule="evenodd" clip-rule="evenodd" d="M21.826 5.77c-.416 4.741 5.492 2.325 5.853 2.249.139.958.27 1.916.41 2.874-.174.055-9.678 4.006-9.935-5.026 0-.111-.02-.215-.007-.32C19.438-1.916 28.012.306 28.186.32c-.14 1.027-.271 2.055-.41 3.082-.347-.11-5.56-2.131-5.95 2.368zm13.232-2.472l-1.54 8.317h-3.382l1.639-8.317h-2.77c.173-1.062.34-2.124.513-3.18h8.609c-.174 1.063-.34 2.125-.514 3.18h-2.555zm5.638 6.65l1.124-2.137 1.326.715-.41-4.485s-3.637 6.956-3.984 7.164c-.75.5-2.326.43-3.59.41L41.508.119h3.596c.548 3.832 1.097 7.664 1.638 11.496h-2.79l-3.256-1.666zm13.974-7.24c-.923 0-1.77-.028-2.693-.028-.104.653-.306 1.847-.306 1.847h1.125c1.034 0 2.187.25 2.485-.694.25-.813-.527-1.104-.61-1.125zm-3.818 6.13h2.43s1.152-.007 1.388-.93c.285-1.111-.715-1.118-.715-1.118h-2.86l-.243 2.048zm7.282-.32c-.888 3.173-3.776 3.055-3.776 3.055s-5.547.042-6.894.035c.68-3.797 1.368-7.595 2.048-11.4l5.151-.152s2.979.16 3.569 2.652c.43 1.833-1.222 2.957-1.222 2.957s1.61 1.111 1.124 2.854zm17.953 3.062l-2.652-1.735 1.02-2.139 1.327.715-.41-4.38s-.201-.063-.201 0c-.007.062-3.777 7.54-3.777 7.54l-6.297.034-2.047-4.52h-.105s-.548 3.013-.819 4.52h-3.38c0-.035 2.256-11.496 2.256-11.496h3.283l-.715 3.797h.104s2.458-2.534 3.694-3.797h3.998l-5.463 5.65 2.478 4.923L74.046.264h3.568l1.736 11.31h-3.263v.006z" fill="#4878FE"/><path fill-rule="evenodd" clip-rule="evenodd" d="M9.74 4.424C9.664 4.459 6.97.113 6.97.113c1.062-.139 3.305-.174 3.999.104 0 .035 1.374.61 1.638 1.229.035.07.07.097-.062.243-.924.965-1.882 1.777-2.805 2.735zm9.025 7.053s-2.61.375-4.388-.41c-.895-.395-2.346-2.853-2.346-2.853L8.81 11.616H1.02l1.222-6.963S.784 5.32 0 5.667V2.688C.104 2.654 3.86.19 3.895.12H6.56S4.783 9.957 4.714 10.596h.104L15.168.12h4.819l-5.304 5.248 4.082 6.11z" fill="#fff"/></svg>