<svg width="12" height="12" fill="none" xmlns="http://www.w3.org/2000/svg"><g clip-path="url(#clip0)"><path d="M1.429 6.863l-.017-.004h7.36L6.458 9.178a.602.602 0 00-.175.428.6.6 0 00.175.426l.36.36a.597.597 0 00.425.176.597.597 0 00.426-.175l3.966-3.966A.596.596 0 0011.81 6a.596.596 0 00-.175-.427L7.67 1.607a.597.597 0 00-.426-.175.597.597 0 00-.424.175l-.36.36a.596.596 0 000 .842L8.8 5.141H1.42a.623.623 0 00-.61.617v.51c0 .331.286.595.618.595z" fill="#47527E"/></g><defs><clipPath id="clip0"><path fill="#fff" transform="rotate(-180 5.905 5.75)" d="M0 0h11v11H0z"/></clipPath></defs></svg>