<svg width="30" height="30" fill="none" xmlns="http://www.w3.org/2000/svg"><rect width="30" height="30" rx="15" fill="#EE933E"/><path d="M14.99 14.756c-2.202 0-4.032-1.76-4.032-3.842C10.958 8.76 12.788 7 14.99 7c2.277 0 4.031 1.76 4.031 3.914a3.786 3.786 0 01-1.183 2.722 4.089 4.089 0 01-2.836 1.12h-.013zm0-5.493a1.64 1.64 0 00-1.642 1.652c0 .897.71 1.58 1.642 1.58.97 0 1.642-.683 1.642-1.58 0-.9-.672-1.652-1.643-1.652zm1.604 8.69l2.278 2.118c.448.466.448 1.148 0 1.58-.484.465-1.232.465-1.605 0l-2.277-2.155-2.202 2.155c-.224.215-.523.322-.86.322-.26 0-.56-.108-.821-.322-.448-.432-.448-1.114 0-1.58l2.314-2.12a10.727 10.727 0 01-2.387-1.004c-.56-.287-.671-1.005-.373-1.544.373-.538 1.045-.682 1.643-.322a5.31 5.31 0 002.687.726 5.31 5.31 0 002.688-.726c.597-.36 1.306-.216 1.641.322.337.54.187 1.256-.336 1.544-.709.432-1.53.755-2.389 1.006z" fill="#fff"/></svg>