<svg width="16" height="16" fill="none" xmlns="http://www.w3.org/2000/svg"><path d="M11.6 9.6c1.328 0 2.4 1.072 2.4 2.4 0 1.328-1.072 2.4-2.4 2.4A2.397 2.397 0 019.2 12c0-.192.024-.368.072-.552l-3.504-1.84A2.364 2.364 0 014 10.4 2.397 2.397 0 011.6 8c0-1.328 1.072-2.4 2.4-2.4.704 0 1.328.312 1.768.792l3.504-1.84A2.133 2.133 0 019.2 4c0-1.328 1.072-2.4 2.4-2.4C12.928 1.6 14 2.672 14 4c0 1.328-1.072 2.4-2.4 2.4a2.393 2.393 0 01-1.768-.792l-3.504 1.84a2.13 2.13 0 010 1.104l3.504 1.84A2.364 2.364 0 0111.6 9.6z" fill="#fff"/></svg>