<svg width="30" height="30" fill="none" xmlns="http://www.w3.org/2000/svg"><rect width="30" height="30" rx="15" fill="#1E88E5"/><g clip-path="url(#clip0)"><path d="M14.829 19.526h.956s.289-.032.436-.191c.136-.146.13-.42.13-.42s-.018-1.283.578-1.472c.587-.186 1.341 1.24 2.14 1.789.604.415 1.063.324 1.063.324l2.137-.03s1.118-.069.588-.948c-.043-.072-.309-.65-1.589-1.838-1.34-1.244-1.16-1.042.454-3.193.983-1.31 1.376-2.11 1.253-2.453-.117-.326-.84-.24-.84-.24l-2.404.014s-.178-.024-.31.055a.677.677 0 00-.213.258s-.38 1.014-.889 1.877c-1.071 1.819-1.5 1.915-1.675 1.802-.407-.263-.305-1.058-.305-1.622 0-1.763.267-2.499-.521-2.689-.262-.063-.454-.105-1.123-.112-.858-.009-1.585.003-1.996.204-.274.134-.485.433-.356.45.159.021.519.097.71.357.247.335.238 1.09.238 1.09s.142 2.075-.331 2.333c-.325.177-.77-.184-1.726-1.835-.489-.845-.859-1.78-.859-1.78s-.07-.175-.198-.268c-.154-.113-.37-.149-.37-.149l-2.286.014s-.343.01-.469.16c-.112.132-.009.406-.009.406s1.79 4.188 3.817 6.299c1.859 1.935 3.969 1.808 3.969 1.808z" fill="#fff"/></g><defs><clipPath id="clip0"><path fill="#fff" transform="translate(7 7)" d="M0 0h16v16H0z"/></clipPath></defs></svg>