<svg width="36" height="29" fill="none" xmlns="http://www.w3.org/2000/svg"><path fill-rule="evenodd" clip-rule="evenodd" d="M18.41 20.251v-.018c-.073-.037-.146-.128-.237-.183-.055-.055-.147-.128-.202-.183-.091-.073-.146-.11-.22-.183-.073-.055-.128-.147-.183-.202l-.402-.384c-.678-.77-1.136-1.374-1.63-2.307-1.666-3.077-1.685-7.05 0-10.126.714-1.3 1.263-1.941 2.234-2.893l.64-.55v-.036c-.054-.019-.073-.037-.127-.074-.055-.036-.092-.073-.147-.11-.091-.073-.183-.128-.274-.2-.239-.184-.934-.587-1.209-.715-.11-.055-.22-.128-.311-.165-.128-.055-.22-.091-.348-.146-.348-.183-1.007-.385-1.41-.495A10.472 10.472 0 0012.973.97a6 6 0 00-.861-.055h-1.026c-.567 0-1.886.238-2.417.421-.11.037-.238.073-.366.11l-.696.256c-.128.055-.238.11-.347.147-.916.384-2.161 1.227-2.875 1.923l-.238.22c-.092.072-.147.146-.238.237l-.238.238c-.33.348-.99 1.282-1.227 1.648l-.495.934C.777 9.393.558 12.524 1.4 15.07c.165.44.348.952.55 1.355.42.824.732 1.337 1.3 2.07.054.073.146.164.22.256l.384.44c.512.604 1.812 1.574 2.49 1.958 1.025.55 1.94.934 3.113 1.19 1.813.367 3.35.294 5.108-.146.348-.091 1.117-.348 1.429-.494.97-.458 1.428-.696 2.289-1.337.054-.037.073-.073.128-.11z" fill="#fff"/><path fill-rule="evenodd" clip-rule="evenodd" d="M18.41 3.186v.036c.385.238 1.337 1.227 1.612 1.575a10.749 10.749 0 012.16 4.156 11.1 11.1 0 010 5.585c-.237.86-.53 1.538-.897 2.27-.42.843-1.007 1.594-1.648 2.29-.11.146-.622.64-.787.787-.146.11-.275.256-.44.348v.018c.678.513 1.3.934 2.07 1.282.11.055.22.091.33.146.97.44 2.453.825 3.442.861.11 0 .11.018.22.018.073 0 .164-.018.238 0 .366.019.787.019 1.153-.018.202-.018.293-.018.66-.055.146-.037.274-.037.42-.073.788-.147 1.117-.238 1.886-.494.275-.11 1.063-.44 1.319-.605.311-.183.567-.293.897-.53.11-.056.183-.11.293-.184.311-.22.531-.421.806-.64.238-.165.769-.715.97-.935l.66-.787c.073-.11.128-.183.2-.293.569-.75 1.1-1.886 1.43-2.856.219-.66.347-1.264.438-1.96.037-.31.074-.677.092-1.025v-.824c-.018-.146-.018-.293-.036-.421-.037-.623-.147-1.08-.257-1.666-.146-.623-.366-1.209-.604-1.795-.055-.128-.11-.201-.147-.33-.293-.659-1.117-1.904-1.611-2.453l-.586-.623c-.091-.091-.165-.128-.256-.22L31.1 2.71a9.846 9.846 0 00-1.209-.695c-.11-.055-.2-.092-.33-.147l-1.39-.53c-.477-.129-1.063-.275-1.575-.33-.696-.074-.788-.092-1.282-.092h-.88c-.036 0-.09 0-.146.018-.146.019-.274.019-.439.037-.952.128-1.465.238-2.326.531-.22.073-.494.183-.695.275-.605.293-.934.402-1.557.824l-.86.586zM3.305 25.451v-.33h-.623v2.876h.623V26.44c0-.421.22-.787.64-.787h.129c.348 0 .549.311.549.659v1.684h.66V26.35c0-.367.255-.696.585-.696.256 0 .403-.018.586.22.092.091.147.293.147.476v1.648h.64v-1.722c0-.512-.183-.933-.622-1.117a1.342 1.342 0 00-1.154.037l-.256.201c0 .019-.018.037-.037.055-.036.037-.055.074-.091.092-.037-.11-.238-.275-.348-.348-.275-.183-.788-.201-1.099-.037-.201.11-.256.238-.33.293zm29.499 2.033c-1.264 0-1.117-1.831-.11-1.831.44 0 .696.146.86.549.238.586-.146 1.282-.75 1.282zm.787-2.033c-.055-.036-.037-.036-.092-.091a1.07 1.07 0 00-.274-.202c-.495-.238-1.172-.073-1.557.311-.659.641-.586 1.996.385 2.473.238.11.513.164.842.128.385-.055.55-.293.696-.367v.293h.623v-3.973c0-.11-.239-.073-.568-.073-.11 0-.055.22-.055.311v1.19zM9.348 27.484c-.348 0-.66-.165-.806-.458-.11-.238-.092-.348-.092-.586 0-.385.367-.787.77-.787h.183c.402 0 .75.44.75.842 0 .293-.018.494-.22.732-.11.11-.366.257-.585.257zm.769.22v.292h.659v-2.82c0-.054-.018-.054-.073-.054-.696 0-.586-.074-.586.293-.183-.11-.312-.367-.897-.367-1.648 0-1.978 2.417-.44 2.967.311.11.787.091 1.08-.11.129-.073.165-.147.257-.202zM27 27.483c-.293 0-.494-.091-.66-.256-.494-.494-.2-1.575.532-1.575.293 0 .55.037.732.293a.99.99 0 01.22.623 1.653 1.653 0 01-.073.348.803.803 0 01-.751.567zm-1.556-1.007c0 .678.201 1.154.805 1.465.513.256 1.136.183 1.538-.275v.33h.623v-2.875h-.623v.33c-.073-.055-.091-.11-.165-.165-.476-.403-1.3-.275-1.757.183-.22.22-.421.586-.421 1.007zm-6.924-.86c.421 0 .64.293.733.678h-1.484a.845.845 0 01.238-.476.752.752 0 01.513-.202zm-1.428.88c0 .75.311 1.263.897 1.482.275.11.66.147.989.073.22-.054.64-.2.769-.384-.018-.092-.22-.366-.275-.458-.11.037-.824.586-1.446.11-.202-.165-.22-.403-.275-.494h1.923c.256 0 .22.055.22-.348a1.39 1.39 0 00-1.96-1.319c-.494.238-.842.696-.842 1.337zm-5.619-.532c0 .44.31.696.695.806.348.091 1.1.091 1.1.384 0 .494-1.026.384-1.43.165-.054-.037-.109-.092-.182-.11a1.173 1.173 0 01-.147.256.916.916 0 00-.146.257c.55.293.75.402 1.538.348.458-.037 1.025-.348 1.025-.898 0-.293-.018-.384-.22-.586-.274-.274-.713-.293-1.08-.366-.274-.037-.476-.055-.476-.293 0-.384.714-.33 1.026-.238.091.037.128.055.201.073.073.037.165.074.22.092.091-.165.183-.33.256-.494-.018-.037-.055-.055-.091-.074-.037-.018-.092-.036-.129-.055-.659-.31-2.16-.31-2.16.733zm3.46-.842h-.586v.586h.586v1.447c0 1.373 1.776.86 1.776.695 0-.128-.146-.366-.146-.53-.074.018-.092.018-.147.036-.348.183-.842.22-.842-.33v-1.318h1.025v-.586h-1.025v-.879h-.641v.88zm7.619 1.355c0 .42.036.659.274.988.348.531.934.641 1.538.605.312-.019.568-.202.77-.33-.092-.183-.202-.348-.312-.531-.842.586-1.611.128-1.611-.623 0-.512.33-.933.787-.933.275 0 .44.018.678.164.055.037.091.074.146.092.11-.165.201-.348.311-.513-.348-.238-.476-.348-1.043-.348-.88 0-1.538.623-1.538 1.429zm7.303-1.027v-.329h-.622v2.875h.622v-1.52c0-.567.184-.824.66-.824.165 0 .238.055.348.074.036-.074.201-.531.201-.605-.256-.036-.494-.183-.916.037-.091.055-.22.201-.293.293zm-8.679.001v-.33h-.641v2.876h.64v-1.502c0-.53.129-.842.66-.842.146 0 .22.055.348.073l.165-.494c.036-.128.036-.11-.11-.147-.293-.055-.623-.055-.861.128l-.073.074c-.055.055-.092.11-.128.164zm13.936-7.012h.091v-.257a.166.166 0 01.037.055c.073.129.018.165.183.165.018-.073.036-.146.091-.201v.238h.092v-.421h-.147c-.018.11-.055.164-.073.256-.165-.128 0-.256-.274-.256v.42zm-.053 9.448c0-.293.402-.33.402 0 0 .256-.402.256-.402 0zm-.092-.037c0 .403.586.44.586-.018 0-.33-.586-.33-.586.018zm-.297-9.76h.146v.348h.11v-.347h.128v-.073h-.384v.073z" fill="#fff"/><path fill-rule="evenodd" clip-rule="evenodd" d="M35.221 27.777c.092.018.073 0 .092.073h-.092v-.073zm-.055.22h.055v-.074c.11.073.019.073.165.073-.092-.164-.019-.055.018-.182-.073-.092-.11-.092-.238-.092v.274z" fill="#fff"/></svg>