<svg width="29" height="23" fill="none" xmlns="http://www.w3.org/2000/svg"><path fill-rule="evenodd" clip-rule="evenodd" d="M14.352 16.05v-.015c-.058-.028-.115-.1-.187-.143-.043-.043-.115-.1-.158-.144-.071-.057-.114-.086-.172-.143-.057-.043-.1-.115-.143-.158l-.316-.301c-.53-.603-.89-1.076-1.276-1.808-1.306-2.41-1.32-5.522 0-7.932.559-1.019.99-1.521 1.75-2.267l.502-.43v-.03c-.043-.013-.058-.028-.1-.056-.044-.03-.072-.058-.116-.087-.071-.057-.143-.1-.215-.157a7.816 7.816 0 00-.946-.56c-.086-.043-.173-.1-.244-.129l-.273-.115c-.272-.143-.789-.3-1.104-.387A8.203 8.203 0 0010.09.944a4.701 4.701 0 00-.674-.043h-.803c-.445 0-1.478.187-1.894.33a7.25 7.25 0 01-.287.086l-.545.201c-.1.043-.186.086-.273.115-.717.301-1.692.96-2.252 1.506l-.186.172c-.072.057-.115.115-.187.187l-.186.186c-.258.273-.775 1.004-.961 1.291l-.388.732c-.918 1.836-1.09 4.289-.43 6.283.13.344.273.746.43 1.062.33.645.574 1.047 1.019 1.62.043.058.115.13.172.201l.301.345c.402.473 1.42 1.233 1.951 1.535.804.43 1.52.731 2.439.932 1.42.287 2.625.23 4.002-.115a9.327 9.327 0 001.12-.387c.76-.359 1.118-.545 1.792-1.047.043-.029.058-.058.1-.086z" fill="#838FC0"/><path fill-rule="evenodd" clip-rule="evenodd" d="M14.352 2.68v.029c.3.186 1.047.96 1.262 1.233A8.42 8.42 0 0117.307 7.2a8.696 8.696 0 010 4.375 9.378 9.378 0 01-.703 1.779c-.33.66-.79 1.248-1.291 1.793-.086.115-.488.502-.617.617-.115.086-.215.2-.344.272v.015c.53.401 1.018.731 1.62 1.004.087.043.173.072.259.115.76.344 1.922.645 2.697.674.086 0 .086.014.172.014.057 0 .129-.014.186 0 .287.015.617.015.904-.014.158-.015.23-.015.516-.043.115-.029.216-.029.33-.058a8.972 8.972 0 001.478-.387c.215-.086.832-.344 1.033-.473.244-.144.444-.23.703-.416.086-.043.143-.086.23-.144.243-.172.415-.33.63-.502.187-.129.603-.56.76-.732l.517-.616.158-.23c.445-.588.86-1.477 1.119-2.238.172-.516.272-.99.344-1.535.029-.243.058-.53.072-.803V9.02c-.014-.114-.014-.229-.029-.33-.028-.487-.114-.846-.2-1.305a9.527 9.527 0 00-.474-1.406c-.043-.1-.086-.157-.115-.258-.23-.516-.875-1.492-1.262-1.922l-.46-.488c-.07-.072-.128-.1-.2-.172l-1.047-.832a7.726 7.726 0 00-.947-.545c-.086-.043-.158-.072-.258-.115l-1.09-.416c-.373-.1-.832-.215-1.234-.258C20.219.915 20.147.9 19.76.9h-.689c-.029 0-.072 0-.115.014-.114.015-.215.015-.344.03-.746.1-1.147.186-1.822.415a6.158 6.158 0 00-.545.215c-.473.23-.732.316-1.22.646l-.673.459zM2.518 20.124v-.258H2.03v2.252h.488v-1.22c0-.33.172-.616.502-.616h.1c.273 0 .43.243.43.516v1.32h.517v-1.291c0-.287.201-.546.46-.546.2 0 .315-.014.458.173.072.071.115.23.115.373v1.29h.502V20.77c0-.401-.143-.731-.488-.875a1.051 1.051 0 00-.903.029l-.201.158c0 .014-.014.028-.029.043-.028.028-.043.057-.072.071-.028-.086-.186-.215-.272-.272-.215-.144-.617-.158-.86-.029-.159.086-.202.187-.259.23zm23.11 1.592c-.99 0-.875-1.434-.086-1.434.345 0 .545.114.675.43.186.459-.115 1.004-.589 1.004zm.617-1.592c-.043-.029-.028-.029-.072-.072a.835.835 0 00-.215-.158c-.387-.186-.918-.057-1.219.244-.516.502-.459 1.564.301 1.937.187.086.402.129.66.1.301-.043.43-.23.545-.287v.23h.488v-3.113c0-.086-.186-.057-.445-.057-.086 0-.043.172-.043.243v.933zM7.252 21.716c-.272 0-.516-.13-.63-.359-.087-.186-.073-.272-.073-.459 0-.3.287-.616.603-.616h.143c.316 0 .589.344.589.66 0 .229-.015.387-.173.573a.756.756 0 01-.459.201zm.603.172v.23h.516v-2.21c0-.043-.014-.043-.057-.043-.545 0-.46-.057-.46.23-.143-.086-.243-.287-.702-.287-1.291 0-1.55 1.894-.344 2.324.244.086.617.072.846-.086.1-.057.13-.115.2-.158zm13.225-.172a.68.68 0 01-.517-.201c-.387-.387-.157-1.234.416-1.234.23 0 .43.029.574.23.1.115.172.301.172.488a1.291 1.291 0 01-.057.272.629.629 0 01-.588.445zm-1.22-.79c0 .532.158.905.631 1.149.402.2.89.143 1.206-.216v.258h.487v-2.252h-.488v.259c-.057-.043-.071-.086-.129-.13-.372-.315-1.018-.215-1.377.144-.172.172-.33.459-.33.789zm-5.422-.673c.33 0 .502.23.574.53H13.85a.661.661 0 01.186-.372.59.59 0 01.402-.158zm-1.12.688c0 .589.245.99.704 1.162a1.4 1.4 0 00.774.058c.173-.043.503-.158.603-.302-.014-.071-.172-.286-.215-.358-.086.029-.646.459-1.133.086-.158-.13-.173-.316-.216-.387h1.506c.201 0 .173.043.173-.273a1.09 1.09 0 00-1.535-1.033 1.12 1.12 0 00-.66 1.047zm-4.403-.416c0 .345.244.545.545.631.273.072.861.072.861.302 0 .387-.803.3-1.119.129-.043-.029-.086-.072-.143-.086a.913.913 0 01-.115.2.72.72 0 00-.115.201c.43.23.588.316 1.205.273.359-.029.803-.273.803-.703 0-.23-.014-.301-.172-.459-.215-.215-.56-.23-.846-.287-.215-.029-.373-.043-.373-.23 0-.3.56-.258.803-.186.072.029.1.043.158.057.057.03.13.058.172.072.072-.129.144-.258.201-.387-.014-.029-.043-.043-.072-.058-.028-.014-.071-.028-.1-.043-.517-.243-1.693-.243-1.693.574zm2.712-.659h-.459v.459h.46v1.133c0 1.076 1.39.674 1.39.545 0-.1-.114-.287-.114-.416-.057.014-.072.014-.115.029-.272.143-.66.172-.66-.258v-1.033h.804v-.46h-.804v-.688h-.502v.689zm5.968 1.061c0 .33.028.517.215.775.273.416.732.502 1.205.473.244-.014.445-.158.602-.258-.071-.144-.157-.273-.244-.416-.66.459-1.262.1-1.262-.488 0-.402.258-.732.617-.732.215 0 .344.015.53.13.044.028.073.057.116.071.086-.129.157-.272.243-.401-.272-.187-.373-.273-.817-.273-.689 0-1.205.488-1.205 1.119zm5.724-.804v-.258h-.488v2.253h.488v-1.191c0-.445.143-.646.516-.646.13 0 .187.043.273.058.029-.058.158-.416.158-.474-.201-.028-.388-.143-.718.029a1.163 1.163 0 00-.23.23zm-6.801 0v-.258h-.502v2.253h.502V20.94c0-.416.1-.66.516-.66.115 0 .172.043.273.058l.129-.388c.029-.1.029-.086-.086-.114-.23-.043-.488-.043-.675.1l-.057.057a.755.755 0 00-.1.13zm10.917-5.493h.071v-.202c.015.015.015.015.029.043.057.1.014.13.143.13a.332.332 0 01.072-.158v.186h.072v-.33h-.115c-.014.086-.043.13-.057.201-.13-.1 0-.2-.215-.2v.33zm-.042 7.401c0-.23.316-.258.316 0 0 .201-.316.201-.316 0zm-.072-.028a.23.23 0 00.46-.015c0-.258-.46-.258-.46.015zm-.231-7.646h.115v.272h.086v-.272h.1V14.3h-.3v.057z" fill="#838FC0"/><path fill-rule="evenodd" clip-rule="evenodd" d="M27.52 21.945c.072.015.058 0 .072.058h-.072v-.058zm-.043.172h.043v-.057c.086.057.015.057.13.057-.072-.129-.015-.043.014-.143-.058-.072-.086-.072-.187-.072v.215z" fill="#838FC0"/></svg>