<svg width="56" height="36" fill="none" xmlns="http://www.w3.org/2000/svg"><path fill-rule="evenodd" clip-rule="evenodd" d="M5.073 29.185c.128-1.245.385-3.37 1.52-3.9 1.447-.641 1.886 1.336.806 3.223-.22.402-.495.714-.898.897-.622.311-1.043-.019-1.428-.22zm.586-5.2l.092-1.136H3.077c-.073 1.484-.714 4.596-1.007 6.171-.238 1.319-1.025 5.054-1.135 6.043h2.948c.146-.238.64-3.113.732-3.608.385.092.586.257 1.117.294a4.492 4.492 0 003.278-.934c2.655-2.124 2.747-6.61.696-7.71-1.264-.695-2.765-.384-3.809.678l-.238.202z" fill="#fff"/><path fill-rule="evenodd" clip-rule="evenodd" d="M17.561 25.064c-.165.934-.311 2.088-.622 2.93-.495 1.337-1.465 1.74-1.96 1.062-.86-1.19.586-4.596 2.582-3.992zm-.513 5.036l-.073 1.483h2.747c.091-2.637.348-3.9.824-6.335.128-.623.33-1.429.384-2.033-1.83-.513-3.772-.714-5.603-.073-3.955 1.41-4.687 6.573-2.6 8.148 1.025.77 2.509.623 3.607-.33.348-.31.531-.714.714-.86zm25.307-10.09l12.78-.018.824-4.376-12.854.018a16.473 16.473 0 01-.75 4.377zm-1.54 6.263c.073-.53.458-.934.788-1.135.988-.586 2.014.018 1.538.677-.348.477-1.777.458-2.326.458zm4.157 4.834l-.129-2.16c-.732.164-.988.494-2.343.494-.916.018-1.813-.183-1.978-.989 1.428-.018 2.765-.036 3.955-.55 1.026-.457 1.831-1.409 1.52-3.002-.494-2.527-4.157-2.655-6.08-1.282-2.05 1.465-2.856 4.468-1.757 6.482 1.154 2.143 4.395 1.96 6.812 1.007zm-15.601-8.13c-.183.495-.384 1.74-.494 2.326-.366 1.758-.073 3.222 2.014 3.479 1.062.146 1.721-.037 2.545-.33l-.64 3.131h3.002c.092-.44 1.648-8.276 1.63-8.66H34.48c-.238.787-.495 2.91-.623 3.295-.11.33-.567.403-.915.44-2.033.183-.605-2.546-.605-3.736-.549 0-2.636-.091-2.966.055zm-2.069 8.369l.018-2.253c-.732.183-1.61.531-2.362.092-1.208-.66-.824-3.021.586-3.735.916-.477 1.392-.348 2.362-.184l.696-2.233c-.44-.312-1.904-.312-2.545-.239-2.234.238-4.211 1.612-4.816 3.956-.714 2.783.678 4.907 3.516 5.035 1.044.037 1.703-.165 2.545-.44zm18.989-6.3h2.216l-1.227 6.537h3.02l1.227-6.518L54 25.046c.165-.036.238-.732.293-1.025.073-.348.201-.824.238-1.172h-7.8l-.44 2.197zm-36.017-9.522H4.25l-.732 4.505 7.8-.018h-.293a15.881 15.881 0 01-.75-4.487zM23.183 6.35l.366 1.978a9.17 9.17 0 011.63-.31l-.293-1.978a10.3 10.3 0 00-1.703.31zm-.807 2.4l-.788-1.795c-.42.22-.842.457-1.245.732l.77 1.721a10.21 10.21 0 011.263-.659zm-3.862 3.13l-1.226-.823a5.572 5.572 0 00-.385.732l1.227.714c.11-.22.256-.421.384-.622zm-1.081 2.107l-1.227-.348c-.037.165-.073.348-.128.531l1.172.366a6.44 6.44 0 01.183-.549zm.841-4.359l1.099 1.209c.238-.238.476-.476.75-.696L19.08 8.73c-.293.275-.55.568-.806.897z" fill="#fff"/><path fill-rule="evenodd" clip-rule="evenodd" d="M12.452 20.01h2.764a13.322 13.322 0 01-1.19-5.218c.092-7.27 6.812-12.616 13.733-11.61l-.42 2.894-.294 1.923-1.813 12.012h15.693a15.11 15.11 0 00.824-4.926c0-8.331-6.739-15.07-15.07-15.07-8.313 0-15.051 6.739-15.051 15.07 0 1.721.274 3.387.824 4.925zM30.415 6.46l.86-2.746a12.886 12.886 0 00-2.453-.824l-.567 3.02c.75.11 1.483.294 2.16.55zm3.992-.824l-1.19 2.234c-.586-.44-1.172-.824-1.831-1.135l1.098-2.545c.696.42 1.337.915 1.923 1.446zm.513 3.882l1.447-1.63c-.366-.53-.66-.915-1.08-1.39L33.712 8.4c.476.33.842.696 1.208 1.117zm2.801.916l-1.464 1.19c-.22-.421-.403-.769-.678-1.154l1.502-1.41c.238.44.457.898.64 1.374zm-.694 3.296l1.336-.897a9.65 9.65 0 00-.238-1.227l-1.501.97c.146.367.293.751.403 1.154zm1.554 1.263l-1.227.66a11.41 11.41 0 00-.11-1.081l1.319-.604c.036.402.055.64.018 1.025zm-10.218-3.35l.33-1.448a6.827 6.827 0 00-1.227-.384l-.256 1.483c.403.073.787.202 1.153.348zm2.108-.349l-.623 1.227a6.096 6.096 0 00-1.025-.659l.622-1.3a5.8 5.8 0 011.026.732zm.255 2.106l.824-.897a4.713 4.713 0 00-.604-.75l-.824 1.025c.22.201.421.403.604.622zm1.537.513l-.714.568a7.533 7.533 0 00-.402-.641l.805-.678a5.4 5.4 0 01.311.751zm-.347 1.685l.696-.421a4.413 4.413 0 00-.128-.678l-.714.513c.073.183.128.403.146.586zm.752.842l-.567.238a2.108 2.108 0 01-.01-.227c-.003-.115-.005-.23-.027-.34l.623-.294v.238c0 .11 0 .257-.019.385z" fill="#fff"/><path fill-rule="evenodd" clip-rule="evenodd" d="M23.55 8.328l-.367-1.977c.55-.147 1.117-.257 1.703-.311l.293 1.977a9.17 9.17 0 00-1.63.311zm-3.207-.641c.403-.275.824-.513 1.245-.732l.788 1.794c-.44.183-.86.421-1.264.66l-.769-1.722zm-2.069 1.941c.256-.33.513-.622.806-.897l1.044 1.41c-.275.22-.513.458-.751.696l-1.099-1.209zm-.986 1.429l1.226.824c-.128.201-.274.402-.384.622l-1.227-.714c.11-.256.238-.494.385-.732zm-1.082 2.583l1.227.347a6.44 6.44 0 00-.183.55l-1.172-.367.128-.53z" fill="#fff"/></svg>