<svg width="44" height="28" fill="none" xmlns="http://www.w3.org/2000/svg"><path fill-rule="evenodd" clip-rule="evenodd" d="M3.92 23.282c.1-.976.301-2.64 1.19-3.056 1.134-.502 1.478 1.047.632 2.525-.173.315-.388.56-.703.703-.488.244-.818-.015-1.12-.172zm.459-4.075l.072-.889H2.356c-.057 1.162-.56 3.6-.789 4.834-.186 1.033-.803 3.96-.89 4.734h2.31c.115-.186.502-2.438.574-2.826.301.072.46.201.875.23.947.1 1.865-.172 2.568-.732 2.08-1.664 2.152-5.178.545-6.04-.99-.544-2.166-.3-2.984.532l-.186.157z" fill="#838FC0"/><path fill-rule="evenodd" clip-rule="evenodd" d="M13.703 20.054c-.129.731-.244 1.635-.488 2.295-.387 1.047-1.147 1.363-1.535.832-.674-.933.46-3.6 2.023-3.127zm-.402 3.945l-.057 1.162h2.152c.072-2.066.272-3.056.645-4.964.1-.488.259-1.119.302-1.592-1.435-.402-2.956-.56-4.39-.058-3.099 1.105-3.672 5.15-2.037 6.384.803.602 1.965.488 2.826-.258.272-.244.416-.56.56-.674zm19.827-7.904l10.013-.015.645-3.428-10.07.014a12.91 12.91 0 01-.588 3.428zM31.922 21c.057-.416.359-.731.617-.889.774-.459 1.578.014 1.205.53-.273.374-1.392.36-1.822.36zm3.256 3.788l-.1-1.693c-.574.129-.775.387-1.836.387-.717.015-1.42-.143-1.55-.774 1.12-.015 2.167-.03 3.099-.43.803-.36 1.434-1.105 1.19-2.353-.387-1.98-3.256-2.08-4.762-1.005-1.607 1.148-2.238 3.5-1.377 5.079.904 1.678 3.443 1.535 5.336.789zm-12.222-6.37c-.144.388-.301 1.363-.387 1.822-.287 1.377-.058 2.525 1.578 2.726.832.115 1.348-.029 1.994-.258l-.503 2.453h2.353c.072-.345 1.291-6.484 1.277-6.786h-2.31c-.186.617-.387 2.281-.487 2.582-.087.259-.445.316-.718.345-1.592.143-.473-1.994-.473-2.927-.43 0-2.066-.071-2.324.043zm-1.621 6.556l.014-1.764c-.574.143-1.262.416-1.85.072-.947-.517-.646-2.367.459-2.927.717-.373 1.09-.273 1.85-.143l.545-1.75c-.344-.244-1.492-.244-1.994-.187-1.75.187-3.299 1.262-3.772 3.099-.56 2.18.53 3.844 2.754 3.945.817.028 1.334-.13 1.994-.345zm14.877-4.934h1.736l-.961 5.12h2.366l.962-5.106 1.936-.015c.13-.028.187-.574.23-.803.057-.273.158-.646.186-.918h-6.11l-.345 1.721zM7.996 12.58h-4.72l-.574 3.529 6.111-.015h-.23a12.44 12.44 0 01-.587-3.514zm10.112-7.187l.287 1.55a7.076 7.076 0 011.277-.245l-.23-1.55c-.459.044-.903.13-1.334.245zm-.632 1.879l-.617-1.406c-.33.172-.66.359-.975.574l.602 1.348c.316-.186.646-.373.99-.516zM14.45 9.725l-.96-.645a4.37 4.37 0 00-.302.573l.962.56c.086-.172.2-.33.3-.488zm-.847 1.65l-.961-.273c-.029.13-.058.273-.1.416l.917.287c.043-.143.086-.287.144-.43zm.66-3.415l.86.948c.187-.187.373-.373.589-.546l-.818-1.104c-.23.215-.43.445-.631.703z" fill="#838FC0"/><path fill-rule="evenodd" clip-rule="evenodd" d="M9.701 16.094h2.166a10.436 10.436 0 01-.932-4.088c.072-5.695 5.336-9.884 10.759-9.095l-.33 2.267-.23 1.506-1.42 9.41h12.294c.416-1.205.645-2.51.645-3.859A11.797 11.797 0 0020.848.43C14.335.43 9.056 5.71 9.056 12.235c0 1.349.215 2.654.645 3.86zM23.774 5.48l.674-2.152a10.098 10.098 0 00-1.922-.645l-.445 2.367a8.19 8.19 0 011.693.43zm3.127-.646l-.932 1.75a8.238 8.238 0 00-1.435-.889l.86-1.994c.546.33 1.048.717 1.507 1.133zm.403 3.041l1.133-1.276a10.532 10.532 0 00-.846-1.09L26.357 7c.373.259.66.545.947.875zm2.195.718l-1.148.932a7.105 7.105 0 00-.53-.904l1.176-1.104c.186.344.358.703.502 1.076zm-.546 2.582l1.048-.703a7.562 7.562 0 00-.187-.961l-1.176.76c.115.287.23.588.315.904zm1.22.99l-.962.516a8.903 8.903 0 00-.086-.846l1.033-.474c.028.316.043.502.014.804zm-8.006-2.626l.259-1.133a5.35 5.35 0 00-.961-.301l-.201 1.162c.315.057.617.158.903.272zm1.651-.272l-.487.961a4.78 4.78 0 00-.804-.516l.488-1.019c.33.187.517.33.803.574zm.2 1.65l.645-.703a3.693 3.693 0 00-.473-.588l-.646.803c.172.158.33.316.474.488zm1.205.401l-.56.445c-.1-.172-.2-.344-.315-.502l.63-.53c.101.186.173.386.245.587zm-.273 1.32l.545-.33a3.453 3.453 0 00-.1-.53l-.56.401c.058.144.1.316.115.46zm.59.66l-.445.186c-.006-.057-.007-.117-.008-.177-.002-.09-.003-.181-.02-.267l.487-.23v.187c0 .086 0 .2-.014.3z" fill="#838FC0"/><path fill-rule="evenodd" clip-rule="evenodd" d="M18.395 6.942l-.287-1.55c.43-.114.875-.2 1.334-.243l.23 1.55a7.076 7.076 0 00-1.277.243zm-2.511-.502c.315-.215.645-.402.975-.574l.617 1.406c-.344.143-.674.33-.99.516l-.602-1.348zm-1.621 1.52c.2-.257.401-.487.63-.702l.819 1.104c-.216.173-.402.359-.589.546l-.86-.947zm-.773 1.12l.96.645c-.1.158-.214.316-.3.488l-.962-.56c.086-.2.187-.387.302-.573zm-.848 2.022l.96.273c-.057.143-.1.287-.143.43l-.918-.287.1-.416z" fill="#838FC0"/></svg>