<svg width="59" height="21" fill="none" xmlns="http://www.w3.org/2000/svg"><path fill-rule="evenodd" clip-rule="evenodd" d="M7.881 3.058l.019-.073-.019.073zm-6.5 6.336h1.593c.147 0 .11-.183.128-.275.092-.567.22-1.098.293-1.684.019-.147.055-.238.074-.44 0-.091.036-.22.073-.384l.201-1.209c.037-.165.037-.256.073-.421.092-.385.202-1.227.257-1.666.036-.202.055-.22.055-.458L4.2 5.75c.073.842.11 2.802.11 3.644h1.318c.019-.201.77-2.18.88-2.49l.219-.641c.037-.128.091-.22.128-.366.037-.11.055-.11.092-.202l.476-1.373c.073-.238.33-1.044.457-1.19 0 .402-.238 1.464-.293 1.922L7.35 6.611c-.091.403-.128.842-.201 1.245l-.22 1.538h1.868c.037-.147.092-.385.11-.55l.622-3.771c0-.074.037-.184.055-.238l.312-1.978c.055-.531.22-1.154.293-1.703l.073-.531H7.314c-.037.22-.147.44-.22.66l-.44 1.336c-.09.238-.146.421-.22.66-.182.548-.384 1.043-.548 1.61-.037.147-.074.202-.11.33l-.165.513-.037.073-.073-3.864c0-.494-.037-.86-.037-1.318H2.736c0 .165-.073.385-.091.55-.037.128-.019.11-.037.237-.018.11-.037.165-.055.275l-.092.568c-.018.238-.054.366-.091.567l-.128.806c-.019.11-.037.165-.055.275l-.311 1.904c-.165.934-.293 1.868-.477 2.802-.018.11-.018.183-.036.293-.018.164-.183.494.018.494zm49.075-2.71c0-.769-.073-.769.11-1.446.128-.495.457-1.08.97-1.264.202-.055.275-.036.403-.036.55-.019.733.458.842.879.147.476-.018 1.446-.183 1.83-.11.257-.22.477-.42.66l-.092.092-.055.036c-.458.348-1.117.348-1.41-.183-.055-.128-.165-.421-.165-.568zm2.856-3.643c-.146-.037-.091-.055-.183-.165-.055-.055-.11-.128-.164-.183-.092-.074-.294-.22-.385-.293a2.076 2.076 0 00-1.886-.11c-.623.274-.66.403-1.099.842-.183.165-.128.128-.256.311l-.073.092c-.037.073-.055.092-.092.165-.384.659-.494 1.062-.64 1.776-.092.421-.074.421-.074.806v.366c.018.256-.055.33.073.787.165.568.055.348.311.897.11.22.184.312.385.513l.604.458a.61.61 0 00.275.091c.604.129.97.184 1.593-.128.513-.256.513-.403.714-.55-.018.22-.11.477-.055.678h1.538c.403.019.22-.055.348-.75l.66-3.882c.018-.165.018-.22.054-.366.019-.074.037-.202.055-.312l.22-1.465c.037-.128.055-.201.073-.31l.11-.678c.018-.147.018-.183.055-.33.018-.165.092-.494.092-.677h-1.886c0 .201-.367 2.069-.367 2.417zm-5.258 13.037c0 .293.037.824-.036 1.08-.018.128-.037.165-.037.256-.018.165-.183.55-.274.733-.22.384-.605.732-1.08.659-.935-.11-.77-1.355-.733-1.978 0-.073.018-.164.036-.256.092-.293.092-.476.275-.806.22-.366.403-.567.806-.677.42-.11.86.201.97.622.037.129.073.238.073.367zm.44-1.905c-.33-.238-.494-.714-1.227-.842-1.245-.22-1.94.494-2.563 1.465l-.605 1.703c-.091.403-.091 1.044-.091 1.446 0 .385.146 1.117.348 1.483.256.458.348.641.787.916l.037.037c.274.183.512.22.787.238h.311c.11-.019.092.018.238-.019.788-.183.916-.512 1.172-.677 0 .238-.073.403-.073.604h1.611c.129 0 .147-.274.165-.476.019-.238.037-.348.073-.568.037-.11.019-.164.037-.274l.128-.843c.055-.22.037-.293.074-.512l.146-.824c0-.055 0-.055.018-.147l.513-3.46c.018-.11.018-.147.037-.257.054-.256.164-1.245.238-1.391-.202-.037-1.245 0-1.612 0-.238-.019-.146-.055-.274.64-.037.202-.055.422-.092.605-.037.201-.055.384-.091.586 0 .11-.019.42-.092.567zM13.174 6.19h.201c0 .623-.201 1.099-.512 1.41l-.33.238a.587.587 0 01-.091.055.945.945 0 01-.202.037c-.769.201-.952-.66-.769-1.062.037-.074.055-.11.092-.165.238-.421.915-.495 1.336-.513.202-.018.165 0 .275 0zm-2.435-3.735c0 .33-.238 1.318-.238 1.63.128 0 .31-.074.439-.11.403-.129 2.747-.55 2.747.384 0 .11-.019.403-.092.458-.037.036-.22 0-.256 0a5.089 5.089 0 00-1.667.11c-.695.164-1.3.494-1.702 1.098-.129.183-.238.44-.293.66-.238.714-.147 1.812.42 2.343 0 0 .02 0 .02.019.017 0 .036.018.036.018l.165.165c.659.476 1.867.311 2.6-.22.128-.11.201-.201.31-.293-.054.879-.329.677 1.539.677l.66-4.34c.109-.658.109-1.519-.239-2.068l-.366-.403c-.494-.348-.824-.44-1.41-.476-.75-.055-.897-.019-1.611.091-.367.074-.696.183-1.062.257zm30.139 4.797c0-.073.018-.293.037-.348.22-.55.824-.678 1.355-.714.366-.019.22 0 .586 0-.037.33-.074.586-.184.879-.073.22-.22.403-.366.55-.384.365-1.007.493-1.3.09a.896.896 0 01-.128-.457zm-.897-3.168c.952-.22.897-.311 2.124-.311.384 0 .677.036.897.238.238.22.147.787 0 .824 0 0-.44-.037-.494-.037-.257-.036-.275 0-.513 0-.787.037-1.209.183-1.85.531-.164.073-.366.275-.475.385-.074.128-.147.165-.239.311-.091.128-.128.238-.183.385-.036.091-.054.11-.091.201-.037.11-.037.092-.055.183-.092.513-.146 1.154.073 1.648.147.33.403.696.733.86.714.385 1.794.22 2.453-.292a1.59 1.59 0 00.312-.293c0 .512-.074.677.073.677h1.501l.074-.696.018-.018v-.018l.165-1.117c.018-.147.018-.202.055-.33l.256-1.611c.128-.97.384-2.362-.531-3.021-.678-.495-1.447-.55-2.252-.476-.696.054-.714.091-1.355.22a.894.894 0 00-.202.072c-.384.11-.201-.128-.366.733l-.128.952zM1.858 13.99c0 .421-.019.788.128 1.209.055.201.128.348.238.513l.11.128c.018.018.018.018.036.055.073.073.128.11.183.183.165.165.367.274.55.384l.604.33h.018l.275.165a.04.04 0 00.037.036s.018 0 .018.019h.018l.202.22c.091.11.073.09.128.237.146.403.036.898-.33 1.117-.659.403-1.666.257-2.344-.073-.183-.073-.22-.128-.348-.22-.018.22-.366 1.429-.384 1.648-.018.11-.037.165-.037.293.275 0 .605.202.86.257.11.018.147.018.239.036l.44.092c.11 0 .22.018.329.018h.568a4.94 4.94 0 001.19-.22l.091-.055c.66-.31 1.19-.732 1.447-1.464.256-.715.33-1.63.092-2.38-.257-.752-.733-1.118-1.374-1.466l-.64-.366c-.074-.055-.019-.018-.092-.055l-.22-.22c-.256-.347-.165-.97.275-1.171.11-.037.293-.074.42-.092l.898.018c.275.055.458.074.696.184l.055.036c.073.037.036.018.091.055a.383.383 0 00.202.073l.366-1.574c.018-.092.055-.129.073-.22-.201-.147-.494-.238-.732-.293a4.697 4.697 0 00-1.135-.128 4.826 4.826 0 00-1.52.201H3.56c-.33.11-.677.33-.933.586a2.55 2.55 0 00-.605 1.025l-.091.385c-.037.183-.073.293-.073.494zm23.839-9.046c.055-.11.11-.549.458-.915.476-.476 1.593-.44 1.593.677 0 .348-.128.257-.952.257-.165 0-.99.018-1.099-.019zm-2.032 1.19c0 .623.018.953.201 1.539.091.33.293.714.494.915.367.385.586.55 1.08.714.825.275 1.026.202 1.96.202a1.7 1.7 0 00.44-.055l.585-.11c.092-.018.128-.018.202-.055.274-.073.165-.128.274-.64.037-.147.037-.312.074-.44l.146-.788c-.604.147-.732.458-2.16.458-.641 0-1.429-.403-1.429-1.062v-.366h3.644c.11 0 .073-.037.11-.11 0 0 .037-.165.037-.183.183-.934.31-2.014-.129-2.856l-.146-.257c-.147-.183-.201-.275-.366-.403l-.202-.164h-.036l-.037-.037c-.934-.586-2.362-.476-3.168.201-.53.421-.311.238-.714.714-.018.037-.073.092-.073.11a5.05 5.05 0 00-.513 1.044c-.036.128-.055.238-.091.385-.055.164-.074.201-.092.384-.037.275-.091.531-.091.86zm18.095 9.907c0 .604 0 1.136-.183 1.685l-.11.33c-.238.494-.476.805-1.062.805-.604 0-.86-.86-.86-1.227 0-.696.018-1.391.347-1.996.86-1.52 1.868-.549 1.868.403zm-1.062 4.596h-.787c-.495 0-1.3-.458-1.63-1.007l-.22-.403c-.018 0-.018-.036-.018-.055l-.11-.238c-.037-.11-.037-.11-.073-.256l-.11-.586c-.055-.421-.037-.476-.037-.897 0-.33.037-.568.055-.88l.348-1.263c.238-.44.293-.64.714-1.08l.421-.366c.074-.037.092-.055.147-.092.311-.201.458-.238.824-.348.293-.091 1.117-.11 1.41-.018l.42.147.11.073c.367.201.66.476.898.824.275.403.348.842.458 1.245.128.55.055 1.868-.055 2.399-.202.988-.586 1.758-1.41 2.343l-.385.22h-.018l-.568.183c-.128.037-.256.037-.384.055zM17.22 18.11c0 .66.201 1.777.75 2.216.294.238.459.293.697.311h.457c.421 0 .916-.384 1.19-.677.184-.183.312-.44.422-.513 0 .238-.019.348-.055.568-.092.64-.348.476 1.611.476 0-.75.128-1.044.146-1.428.037-.476.239-1.593.312-2.198l.53-3.625h-1.757c-.037.128-.055.256-.073.384-.037.128-.018.238-.055.385l-.256 1.813c-.019.128-.055.256-.074.402-.146.806-.055.861-.44 1.648v.019l-.017.018c-.11.275-.422.623-.77.623-.384 0-.384.036-.585-.22-.294-.348-.129-1.209-.074-1.611.128-.623.202-1.557.312-2.143l.183-1.318h-1.831c0 .055 0 .128-.019.183l-.036.128v.018l-.092.77c-.11.677-.238 1.904-.348 2.435-.037.165-.037.44-.073.64-.018.184-.055.495-.055.696zm-6.847-2.07H8.505c.073-.347.091-.475.33-.823.128-.202.128-.147.292-.275.257-.183.861-.238 1.136.238.22.348.11.66.11.86zm-3.79 1.264c0 .97.146 1.96.896 2.619l.312.238c.055.036.036.036.11.073l.22.11c.823.238.713.256 1.739.256.33 0 .55-.073.86-.11l.513-.11c.073-.036.055-.018.092-.036.055-.018 0 .018.073-.018l.22-1.319c.036-.165.018-.348.091-.476-.183 0-.165.037-.366.11-.75.311-1.904.494-2.618 0-.202-.128-.348-.458-.385-.64l-.018-.495h3.515c0-.092.202-.97.202-1.337 0-.86.036-1.337-.458-2.124l-.366-.384c-.513-.532-1.795-.696-2.582-.312-.403.22-.311.165-.678.458-.42.33-.732.842-.952 1.337v.018l-.165.476c-.164.623-.256.879-.256 1.666zm45.537-1.373a1.7 1.7 0 01.129-.403c.054-.146.11-.238.201-.348.366-.457.989-.476 1.318-.146.257.275.22.66.22 1.007H52.12v-.11zm.806 4.67c.696 0 1.245-.037 1.886-.22.037-.019.073-.019.11-.037h.018c.11-.037.165-.787.183-.916.055-.22.165-.677.165-.897-.073 0-2.197.99-3.113-.036-.128-.129-.164-.257-.22-.458-.073-.311-.018-.293-.018-.531h3.424c.129 0 .147-.275.165-.44.092-1.043.293-1.977-.311-2.966-.037-.055-.037-.055-.073-.091-.898-1.044-2.161-1.117-3.278-.44l-.275.201c-.018 0-.036.019-.036.037h-.019l-.11.11c-.018 0-.018 0-.018.018l-.146.147c-.055.091.036-.037-.037.073l-.274.348s0 .018-.019.018c-.256.366-.568 1.19-.622 1.575-.129.75-.22 1.813.018 2.563.22.678.458 1.117 1.08 1.52.385.257 1.08.421 1.52.421zm-23.308-5.787c.257 0 .476.074.586.202.275.256.238.677.238 1.025h-1.867c.018-.293.128-.53.293-.806a.903.903 0 01.75-.42zm-.238 5.787c.55 0 1.08 0 1.593-.147.183-.055.44-.073.513-.22l.256-1.703c-.055 0-2.197.99-3.113-.036-.11-.128-.164-.257-.22-.458-.018-.11-.036-.201-.036-.275 0-.055.018-.146.018-.256h3.516c0-.146.018-.146.037-.275l.128-.824c.036-.604.073-1.153-.128-1.74-.165-.457-.421-.841-.824-1.116-.733-.513-1.593-.531-2.417-.201a4.899 4.899 0 00-.421.238l-.532.457c-.036.037-.036.037-.036.055l-.275.366s-.018 0-.018.019l-.66 1.611c-.054.256-.164 1.19-.127 1.428.036.183.018.421.036.623.055.366.202.86.403 1.208.146.275.348.495.586.678l.11.073c.44.311 1.099.494 1.611.494zM33.572 5.22v.97c0 .348.146 1.007.275 1.3.11.275.201.494.366.733 0 0 0 .018.018.018v.018c.201.275.311.458.641.678.092.055.128.091.238.164.714.367.989.44 1.85.44.604 0 1.061-.128 1.556-.238l.348-2.051-.97.366c-.184.037-.166.055-.367.055-.33 0-.586.092-1.025-.128-.33-.165-.586-.403-.733-.714-.348-.714-.238-1.337-.201-1.978l.146-.604c0-.018 0-.055.019-.11l.256-.604c.348-.586 1.025-1.19 1.684-1.19.605 0 .934.036 1.539.311.128.055.201.128.366.147 0-.202.036-.312.073-.477.018-.11.22-1.336.201-1.41-.036-.054 0-.036-.164-.11L38.35.46c-.037 0-.073-.019-.11-.019h-.769c-.073 0-.146.019-.201.019h-.074c-.604.055-1.538.512-1.995.97l-.678.77c0 .018-.018.018-.018.036l-.257.44a3.416 3.416 0 00-.183.366l-.274.787c-.019.091-.019.165-.037.238a4.749 4.749 0 00-.183 1.154z" fill="#fff"/><path fill-rule="evenodd" clip-rule="evenodd" d="M32.62 16.609l.036.86c.019.147.037.385.074.513.073.275.146.623.274.897l.055.128c.75 1.538 2.106 1.831 3.644 1.484.146-.037.311-.092.458-.129l.183-1.245c.055-.33.091-.384.11-.805-.934.512-2.198.824-2.784-.367-.238-.494-.274-1.007-.256-1.52l.11-.897c.146-.476.256-.879.55-1.281.256-.348.64-.678 1.08-.77.42-.11.549-.073.933 0 .476.092.788.367 1.026.422l.311-1.941c-.036-.019-.769-.293-1.117-.367-.952-.22-1.556-.091-2.362.293l-.183.092a3.652 3.652 0 00-1.154 1.154c-.11.164-.183.293-.293.476-.128.201-.33.805-.402 1.043l-.202.916-.091 1.044zM15.17 9.303c.127 0 .457.091.823.128.604.055 1.282.128 1.905.018.897-.128 1.83-.512 2.032-1.52.128-.604.091-.457.091-1.116 0-.202-.073-.312-.091-.458-.018-.128-.11-.275-.165-.385-.055-.11-.037-.073-.11-.165-.183-.2-.183-.22-.457-.42-.568-.367-1.355-.532-1.355-.953 0-.421.274-.604.64-.622.422 0 .898 0 1.19.036.385.055.422.147.44-.055l.092-.549c0-.073 0-.055.018-.183.018-.092.037-.202.055-.275l.073-.567c-.293 0-.622-.11-1.117-.11l-.476-.019c-.934 0-1.904.183-2.399.861l-.22.33c-.073.146-.127.238-.164.402-.092.403-.165.916-.055 1.337.092.33.183.495.348.733l.018.018.11.128.073.073.495.348c.42.293 1.098.403 1.19.86a.554.554 0 01-.165.495l-.037.037c-.293.238-1.153.201-1.465.146-.475-.073-.457-.055-.915-.22-.11-.018-.11-.054-.165.019l-.201 1.428c-.055.183-.055-.037-.037.22zm-2.929 7.928c0 .714.037 1.209.33 1.85.293.622.732 1.172 1.392 1.41l.366.128c.055 0 .11.018.165.018h.659c.165-.018.293-.018.403-.018.201 0 .64-.165.879-.22l.2-1.428c.037-.183.074-.293.074-.476-.146 0-.146.055-.256.11a3.3 3.3 0 01-.531.146c-.604.147-1.19-.055-1.502-.623-.201-.384-.256-.933-.165-1.428l.129-.64c.11-.294.42-.733.677-.898l.385-.165c.165-.054.146-.036.293-.036h.366c.018 0 .091.018.146.036.092.019.22.055.293.092l.55.238c0-.183.055-.293.091-.421l.275-1.282c0-.128-.22-.165-.33-.22-.659-.293-1.135-.366-1.812-.293a3.038 3.038 0 00-1.557.66l-.018.018-.293.256c-.44.513-.696.86-.934 1.52a5.037 5.037 0 00-.275 1.666zm8.022-9.668c0 .787-.091 1.245.568 1.74.128.091.073.055.256.128.128.036.183.055.33.073.146 0 .238.037.33.037.33-.019.714-.074 1.043-.165.458-.11.275-.11.403-.678.037-.128.147-.842.128-1.007-.146 0-.622.165-.915-.018-.312-.201-.165-.64-.147-.77.018-.384.458-2.618.458-2.874h.989c0-.421.22-1.428.238-1.813h-.934c0-.164.146-.897.22-1.025h-1.923c-.055.293-.073.458-.128.75l-.916 5.622zm27.281-4.358h.018-.018zm0-.037c.055-.128.11-.677.183-.952-2.16 0-1.666-.146-1.813.476l-.238 1.355c-.073.367-.11.934-.22 1.319l-.274 1.776c-.037.201-.019.256-.055.403-.092.42-.22 1.501-.311 1.85H46.5c.311.017.238.109.348-.697.018-.091.018-.165.037-.238 0-.073.036-.165.055-.256.018-.22.036-.311.073-.513l.238-1.318c.018-.257.238-1.062.348-1.355.201-.531.403-.733 1.007-.733l.293-1.098.421-1.007c-.165 0-.403-.092-.806.073a1.316 1.316 0 00-.366.256c-.275.293-.458.55-.494.586-.092.092.018.037-.11.073zm-15.363.001v-.074c0-.036 0-.073.018-.11l.11-.769h-1.721l-.421 2.656c-.019.128-.073.293-.092.439l-.622 3.919c-.019.11-.055.164.073.164h1.74c.164 0 .128-.384.183-.695l.384-2.234c.018-.074.018-.129.037-.165.018-.128.018-.11.018-.165.018-.11.055-.238.092-.348.018-.165.036-.183.091-.348.183-.769.385-1.153 1.135-1.153.074-.165.092-.348.147-.568.018-.073.055-.147.073-.256.073-.275.256-.733.385-1.007l.146-.239c-.293-.146-.769-.018-1.025.147 0 0-.074.055-.092.073l-.348.366-.055.055-.22.293c-.073.074.037.037-.036.019zm-6.574 11.17l.128-.953c-1.83 0-1.593-.128-1.666.367L23.08 20.4c-.018.091-.055.128.074.128h1.703l.146-1.136c.018-.164.037-.347.073-.549l.183-1.007c.037-.403.128-.66.202-1.025l.165-.641.018-.019c.128-.33.293-.732.75-.714.312.019.147-.018.294-.494.018-.073.018-.055.036-.092.037-.11.018-.055.018-.128.019-.091.037-.11.055-.201.037-.092.055-.183.074-.275.091-.274.348-.787.366-.897-.256-.018-.458-.092-.77.073-.42.238-.384.311-.64.623l-.018.018c-.129.165-.11.201-.202.275zM56.482 8.13h-.275v-.292h.11c.128 0 .293.037.293.165a.125.125 0 01-.128.128zm-.586.788h.311V8.37c.055.018.11 0 .183.128.018.055.037.092.037.11v.018l.165.257c.073.073.164.036.293.036-.055.147-.44.348-.861.165a.804.804 0 01-.238-.183s-.018 0-.018-.018c0 0-.019 0-.019-.019-.311-.33-.33-.952.165-1.318.366-.293 1.117-.165 1.282.586.073.275-.092.677-.275.787-.018-.11-.091-.165-.146-.256-.074-.11-.11-.183-.165-.293l.091-.018c.019 0 .019 0 .019-.019l.073-.018c.128-.11.348-.714-.513-.714h-.384v1.318zm-.714-.714c0 .476.11.696.44.97.054.056-.02.019.072.056.568.402 1.52.183 1.776-.477.495-1.355-1.098-2.124-1.959-1.3-.146.147-.33.458-.33.751zm2.175 11.408s.018 0 .018.018l-.018-.018zm-.293.879c.403 0 .311.128.311-.55 0-.054-.018-.201.019-.256l.238.806h.274c0-.073.202-.806.275-.916v.916h.275v-1.465h-.403l-.238.696c-.037.128 0 .146-.073.201 0-.183-.184-.66-.239-.897h-.439v1.465zm-.786-1.154v1.153h.33v-1.153h.347v-.311c-.183 0-.824-.019-.952.018-.091.018-.055-.037-.055.201 0 .092-.055.073.055.092.037.018.22 0 .275 0z" fill="#fff"/></svg>