<svg width="47" height="17" fill="none" xmlns="http://www.w3.org/2000/svg"><path fill-rule="evenodd" clip-rule="evenodd" d="M6.396 2.489l.014-.057-.014.057zM1.303 7.452h1.248c.115 0 .086-.143.1-.215.072-.444.173-.86.23-1.32.015-.114.043-.186.058-.344 0-.072.028-.172.057-.301l.158-.947c.028-.129.028-.2.057-.33.072-.301.158-.96.201-1.305.029-.158.043-.172.043-.359l.057 2.267c.058.66.086 2.195.086 2.854h1.033c.015-.157.603-1.707.689-1.95l.172-.503c.029-.1.072-.172.1-.287.03-.086.044-.086.072-.157l.373-1.076c.058-.187.258-.818.359-.933 0 .316-.187 1.148-.23 1.507L5.98 5.272c-.072.316-.1.66-.158.975L5.65 7.452h1.463c.029-.114.072-.3.086-.43l.488-2.955c0-.057.029-.144.043-.187l.244-1.549c.043-.416.172-.904.23-1.334L8.26.581H5.95c-.029.172-.115.344-.172.516l-.344 1.048c-.072.186-.115.33-.172.516-.144.43-.302.818-.43 1.262-.03.115-.058.158-.087.259l-.129.401-.029.058-.057-3.027c0-.387-.029-.674-.029-1.033H2.365c0 .13-.058.301-.072.43-.029.1-.014.086-.029.187-.014.086-.028.129-.043.215l-.071.445c-.015.186-.043.287-.072.444l-.1.632c-.015.086-.03.129-.044.215L1.691 4.64c-.13.731-.23 1.463-.373 2.195-.015.086-.015.143-.03.23-.013.128-.143.386.015.386zM39.748 5.33c0-.603-.057-.603.086-1.133.1-.388.359-.847.76-.99.158-.043.215-.029.316-.029.43-.014.574.359.66.689.114.373-.015 1.133-.144 1.434-.086.2-.172.373-.33.517l-.071.071-.043.029c-.36.273-.876.273-1.105-.144-.043-.1-.13-.33-.13-.444zm2.238-2.855c-.115-.029-.072-.043-.144-.129-.043-.043-.086-.1-.129-.143-.072-.058-.23-.173-.301-.23a1.626 1.626 0 00-1.478-.086c-.487.215-.516.316-.86.66-.144.129-.1.1-.201.244l-.058.071c-.028.058-.043.072-.071.13-.301.516-.388.832-.502 1.391-.072.33-.058.33-.058.631v.287c.015.2-.043.258.058.617.129.445.043.273.244.703.086.172.143.244.3.402l.474.358a.478.478 0 00.215.072c.474.1.76.143 1.248-.1.402-.201.402-.316.56-.43-.014.171-.086.372-.043.53h1.205c.315.014.172-.043.272-.588l.517-3.041c.014-.13.014-.173.043-.287.014-.058.029-.158.043-.244l.172-1.148c.029-.1.043-.158.057-.244l.086-.53c.015-.115.015-.144.044-.259.014-.129.071-.387.071-.53h-1.477c0 .157-.287 1.62-.287 1.893zm-4.118 10.214c0 .23.03.646-.028.846-.015.1-.029.13-.029.201-.014.13-.143.43-.215.574-.172.301-.473.574-.846.516-.732-.086-.603-1.061-.574-1.549 0-.057.014-.129.029-.2.071-.23.071-.374.215-.632.172-.287.315-.444.63-.53.33-.087.675.157.761.487.029.1.057.187.057.287zm.345-1.492c-.258-.186-.388-.56-.961-.66-.976-.172-1.52.388-2.009 1.148l-.473 1.334c-.072.316-.072.818-.072 1.133 0 .302.115.875.273 1.162.2.359.272.502.617.718l.028.028c.215.144.402.172.617.187h.244c.086-.015.072.014.187-.015.616-.143.717-.401.918-.53 0 .186-.058.315-.058.473h1.263c.1 0 .114-.215.129-.373a4.03 4.03 0 01.057-.445c.029-.086.014-.129.029-.215l.1-.66c.043-.172.029-.23.058-.401l.114-.646c0-.043 0-.043.015-.115l.401-2.711c.015-.086.015-.115.03-.2.042-.202.128-.976.186-1.091-.158-.029-.976 0-1.263 0-.186-.014-.115-.043-.215.502-.029.158-.043.33-.072.473-.028.158-.043.302-.072.46 0 .085-.014.33-.071.444zM10.542 4.942h.158c0 .488-.158.861-.402 1.105l-.258.186a.463.463 0 01-.072.043.74.74 0 01-.157.03c-.603.157-.746-.517-.603-.833.029-.057.043-.086.072-.129.186-.33.717-.387 1.047-.402.158-.014.13 0 .215 0zM8.634 2.016c0 .258-.186 1.033-.186 1.277.1 0 .244-.058.344-.086.316-.1 2.152-.43 2.152.3 0 .087-.014.316-.072.36-.029.028-.172 0-.2 0a3.987 3.987 0 00-1.306.086c-.545.129-1.019.387-1.334.86-.1.144-.187.345-.23.517-.186.56-.115 1.42.33 1.836 0 0 .015 0 .015.014.014 0 .028.015.028.015l.13.129c.516.373 1.463.244 2.036-.172.1-.087.158-.158.244-.23-.043.689-.258.53 1.205.53l.517-3.399c.086-.516.086-1.19-.187-1.621l-.287-.316c-.387-.272-.645-.344-1.104-.373-.588-.043-.703-.014-1.263.072-.287.058-.545.144-.832.201zm23.612 3.758c0-.057.015-.23.029-.272.172-.43.645-.531 1.062-.56.286-.014.172 0 .459 0a2.669 2.669 0 01-.144.689 1.134 1.134 0 01-.287.43c-.301.287-.789.388-1.018.072a.703.703 0 01-.1-.359zm-.703-2.481c.746-.173.703-.244 1.664-.244.302 0 .531.028.703.186.187.172.115.617 0 .646 0 0-.344-.029-.387-.029-.2-.029-.215 0-.402 0-.617.029-.946.144-1.449.416-.129.057-.286.215-.373.301-.057.1-.114.13-.186.244-.072.1-.1.187-.143.301-.03.072-.043.087-.072.158-.029.086-.029.072-.043.144-.072.401-.115.903.057 1.29.115.259.316.546.574.675.56.301 1.406.172 1.922-.23.1-.071.172-.143.244-.229 0 .402-.057.53.057.53h1.177l.057-.544.015-.015V6.88l.129-.875c.014-.115.014-.158.043-.258l.2-1.263c.1-.76.302-1.85-.416-2.367-.53-.387-1.133-.43-1.764-.373-.545.043-.56.072-1.061.172a.7.7 0 00-.158.058c-.302.086-.158-.1-.287.574l-.1.746zM1.676 11.054c0 .33-.015.617.1.947.043.157.1.272.186.401l.087.1a.119.119 0 01.028.044c.058.057.1.086.144.143.129.13.287.215.43.301l.473.259h.015l.215.129c0 .014.014.028.029.028 0 0 .014 0 .014.015h.014l.158.172c.072.086.058.072.1.186.115.316.03.703-.258.875-.516.316-1.305.201-1.836-.057-.143-.057-.172-.1-.272-.172-.015.172-.287 1.119-.302 1.291-.014.086-.028.13-.028.23.215 0 .473.157.674.2.086.015.115.015.186.029l.345.072c.086 0 .172.014.258.014h.445c.3-.014.588-.072.932-.172l.072-.043c.516-.244.932-.574 1.133-1.148.2-.56.258-1.276.072-1.865-.201-.588-.574-.875-1.076-1.147l-.502-.287c-.058-.043-.015-.014-.072-.043l-.172-.172c-.2-.273-.13-.76.215-.918.086-.03.23-.058.33-.072l.703.014c.215.043.359.058.545.144l.043.028c.057.03.029.015.072.043a.3.3 0 00.158.058l.287-1.234c.014-.072.043-.1.057-.172-.158-.115-.387-.187-.574-.23a3.678 3.678 0 00-.89-.1 3.78 3.78 0 00-1.19.158H3.01a1.97 1.97 0 00-.732.459 1.99 1.99 0 00-.473.803l-.072.301c-.029.144-.057.23-.057.388zm18.677-7.087c.043-.086.086-.43.359-.717.373-.373 1.248-.345 1.248.53 0 .273-.1.201-.746.201-.13 0-.775.014-.86-.014zm-1.592.932c0 .488.014.746.158 1.205.071.258.23.56.387.717.287.302.459.43.846.56.646.215.804.158 1.535.158.144 0 .215-.015.344-.043l.46-.086c.071-.015.1-.015.157-.043.215-.058.13-.1.215-.502.03-.115.03-.244.058-.345l.115-.617c-.474.115-.574.359-1.693.359-.502 0-1.119-.316-1.119-.832v-.287h2.855c.086 0 .057-.029.086-.086 0 0 .028-.13.028-.143.144-.732.244-1.578-.1-2.238l-.115-.201c-.115-.144-.158-.215-.287-.316l-.157-.129h-.03l-.028-.028c-.732-.46-1.85-.373-2.482.157-.416.33-.243.187-.559.56-.014.028-.057.071-.057.086-.115.158-.33.588-.402.818-.029.1-.043.186-.072.3-.043.13-.057.159-.072.302-.028.215-.071.416-.071.674zm14.174 7.761c0 .474 0 .89-.143 1.32l-.086.258c-.187.388-.373.632-.832.632-.474 0-.674-.675-.674-.962 0-.545.014-1.09.272-1.563.674-1.19 1.463-.43 1.463.315zm-.832 3.601h-.617c-.387 0-1.018-.359-1.276-.789l-.172-.316c-.015 0-.015-.028-.015-.043l-.086-.186c-.029-.086-.029-.086-.057-.2l-.086-.46c-.043-.33-.029-.373-.029-.703 0-.258.029-.445.043-.688l.273-.99c.186-.345.23-.502.559-.847l.33-.287c.057-.028.072-.043.115-.071.244-.158.358-.187.645-.273.23-.072.875-.086 1.105-.014l.33.115.086.057c.287.158.516.373.703.645.215.316.272.66.358.976.1.43.044 1.463-.043 1.88-.157.774-.459 1.376-1.104 1.835l-.301.173h-.015l-.444.143c-.1.029-.201.029-.302.043zm-18.392-1.98c0 .517.158 1.392.588 1.736.23.187.359.23.546.244h.358c.33 0 .717-.301.933-.53.143-.144.243-.345.33-.402 0 .186-.015.272-.044.444-.071.502-.272.373 1.263.373 0-.588.1-.817.115-1.119.028-.373.186-1.248.243-1.721l.416-2.84h-1.377c-.028.1-.043.2-.057.3-.029.101-.014.187-.043.302l-.2 1.42c-.015.1-.044.201-.058.316-.115.631-.043.674-.345 1.29v.015l-.014.015c-.086.215-.33.487-.602.487-.302 0-.302.029-.46-.172-.229-.272-.1-.947-.057-1.262.1-.488.158-1.22.244-1.679l.143-1.032H14.2c0 .043 0 .1-.014.143l-.03.1v.015l-.07.602c-.087.531-.187 1.492-.273 1.908-.03.13-.03.345-.058.502-.014.144-.043.388-.043.545zM8.347 12.66H6.884c.058-.272.072-.373.258-.645.1-.158.1-.115.23-.215.2-.144.674-.187.89.186.171.273.085.517.085.674zm-2.97.99c0 .76.116 1.535.704 2.052l.244.186c.043.029.028.029.086.057l.172.087c.645.186.56.2 1.363.2.258 0 .43-.057.674-.086l.402-.086c.057-.028.043-.014.071-.028.043-.015 0 .014.058-.015l.172-1.033c.029-.129.014-.272.072-.373-.144 0-.13.029-.287.086-.588.244-1.492.388-2.052 0-.157-.1-.272-.358-.3-.502l-.015-.387h2.754c0-.072.158-.76.158-1.047 0-.674.028-1.047-.359-1.664l-.287-.301c-.401-.416-1.406-.546-2.022-.244-.316.172-.244.129-.531.358-.33.258-.574.66-.746 1.047v.015l-.13.373c-.128.487-.2.688-.2 1.305zm35.676-1.076c0-.043.072-.272.1-.315a.852.852 0 01.158-.273c.287-.359.775-.373 1.033-.115.201.215.172.517.172.79h-1.463v-.087zm.631 3.658c.545 0 .976-.028 1.478-.172.029-.014.057-.014.086-.029h.014c.086-.028.13-.616.144-.717.043-.172.129-.53.129-.703-.057 0-1.722.775-2.439-.028-.1-.1-.129-.201-.172-.36-.057-.243-.014-.229-.014-.415h2.682c.1 0 .115-.215.13-.344.071-.818.229-1.55-.245-2.324-.028-.043-.028-.043-.057-.072-.703-.818-1.693-.875-2.568-.344l-.215.158c-.014 0-.029.014-.029.028h-.014l-.086.086c-.014 0-.014 0-.014.015l-.115.114c-.043.072.029-.028-.029.058l-.215.272s0 .015-.014.015c-.201.287-.445.932-.488 1.233-.1.588-.172 1.42.014 2.009.172.53.359.875.847 1.19.3.201.846.33 1.19.33zM23.423 11.7c.2 0 .373.057.46.157.214.2.186.53.186.803h-1.464c.015-.23.1-.416.23-.63.1-.173.33-.33.588-.33zm-.186 4.532c.43 0 .846 0 1.248-.114.143-.043.344-.058.401-.172l.201-1.335c-.043 0-1.721.775-2.439-.028a.838.838 0 01-.172-.359c-.014-.086-.028-.158-.028-.215 0-.043.014-.115.014-.2h2.754c0-.116.015-.116.029-.216l.1-.646c.029-.473.058-.903-.1-1.362-.13-.36-.33-.66-.646-.876-.573-.401-1.248-.415-1.893-.157a3.862 3.862 0 00-.33.186l-.416.359c-.029.029-.029.029-.029.043l-.215.287s-.014 0-.014.014l-.517 1.262c-.043.201-.129.933-.1 1.12.028.143.014.33.028.487.044.287.158.674.316.947.115.215.273.387.46.53l.085.058c.345.244.861.387 1.263.387zm3.284-12.05v.76c0 .273.115.79.216 1.02.086.214.158.386.287.573 0 0 0 .014.014.014v.015c.158.215.244.358.502.53.072.043.1.072.187.13.559.286.774.344 1.448.344.474 0 .832-.1 1.22-.187l.272-1.606-.76.287c-.143.028-.13.043-.287.043-.258 0-.459.071-.803-.1a1.208 1.208 0 01-.574-.56c-.273-.56-.187-1.048-.158-1.55l.115-.473c0-.014 0-.043.014-.086l.201-.473c.273-.46.803-.933 1.32-.933.473 0 .731.029 1.205.244.1.043.158.1.287.115 0-.158.028-.244.057-.373.014-.086.172-1.047.158-1.105-.029-.043 0-.028-.13-.086L30.267.453c-.03 0-.058-.015-.086-.015h-.603c-.057 0-.115.015-.158.015h-.057c-.474.043-1.205.401-1.564.76l-.53.602c0 .015-.015.015-.015.03l-.2.343c-.058.1-.101.187-.144.287l-.215.617c-.015.072-.015.13-.03.187a3.72 3.72 0 00-.143.903z" fill="#838FC0"/><path fill-rule="evenodd" clip-rule="evenodd" d="M25.776 13.105l.028.674c.015.115.029.301.058.402.057.215.114.488.215.703l.043.1c.588 1.205 1.65 1.435 2.854 1.162.115-.029.244-.072.36-.1l.143-.976c.043-.258.071-.301.086-.631-.732.402-1.722.646-2.18-.287-.187-.387-.216-.789-.202-1.19l.086-.704c.115-.372.201-.688.43-1.004.202-.272.503-.53.847-.602.33-.086.43-.057.732 0 .373.072.617.287.803.33l.244-1.52a7.745 7.745 0 00-.875-.288c-.746-.172-1.22-.071-1.85.23l-.144.072a2.86 2.86 0 00-.904.903c-.086.13-.143.23-.23.373-.1.158-.258.631-.315.818l-.158.717-.072.818zM12.104 7.381c.1 0 .36.072.646.1.473.044 1.004.101 1.492.015.703-.1 1.434-.401 1.592-1.19.1-.474.072-.359.072-.875 0-.158-.057-.244-.072-.36-.014-.1-.086-.214-.129-.3-.043-.086-.028-.058-.086-.13-.143-.157-.143-.172-.358-.33-.445-.286-1.062-.415-1.062-.745s.215-.474.502-.488c.33 0 .703 0 .932.029.302.043.33.114.345-.043l.071-.43c0-.058 0-.044.015-.144.014-.072.029-.158.043-.215l.057-.445c-.23 0-.488-.086-.875-.086l-.373-.015c-.731 0-1.492.144-1.879.675l-.172.258c-.058.115-.1.186-.13.316-.071.315-.128.717-.042 1.047.071.258.143.387.272.574l.015.014.086.1.057.058.387.272c.33.23.861.316.933.674a.434.434 0 01-.13.388l-.028.028c-.23.187-.904.158-1.148.115-.373-.057-.358-.043-.717-.172-.086-.014-.086-.043-.129.014l-.158 1.12c-.043.143-.043-.03-.028.171zM9.81 13.593c0 .56.028.946.258 1.448.23.488.574.919 1.09 1.105l.287.1c.043 0 .086.015.129.015h.517c.129-.014.229-.014.315-.014.158 0 .502-.13.689-.173l.157-1.119c.03-.143.058-.23.058-.373-.115 0-.115.043-.201.086a2.605 2.605 0 01-.416.115c-.473.115-.932-.043-1.176-.487-.158-.302-.201-.732-.13-1.12l.101-.502c.086-.229.33-.573.53-.702l.302-.13c.13-.043.115-.028.23-.028h.286c.015 0 .072.014.115.028.072.015.172.043.23.072l.43.187c0-.144.043-.23.072-.33l.215-1.004c0-.1-.172-.13-.258-.172-.517-.23-.89-.287-1.42-.23a2.38 2.38 0 00-1.22.516l-.014.015-.23.2c-.344.402-.545.675-.731 1.191-.13.402-.215.775-.215 1.306zm6.284-7.575c0 .617-.072.976.445 1.363.1.072.057.043.2.1.101.03.144.044.259.058.115 0 .186.029.258.029a4.04 4.04 0 00.818-.13c.358-.085.215-.085.315-.53.03-.1.115-.66.1-.79-.114 0-.487.13-.716-.013-.244-.158-.13-.503-.115-.603.014-.301.358-2.051.358-2.252h.775c0-.33.172-1.119.187-1.42h-.732c0-.13.115-.703.172-.804h-1.506c-.043.23-.057.359-.1.589l-.718 4.403zm21.374-3.414h.015-.014zm0-.028c.043-.1.087-.531.144-.746-1.693 0-1.306-.115-1.42.373l-.187 1.061c-.057.287-.086.732-.172 1.033l-.215 1.392c-.029.157-.014.2-.043.315-.072.33-.172 1.177-.244 1.45h1.32c.244.013.186.085.272-.546.015-.072.015-.13.03-.186 0-.058.028-.13.042-.201.014-.172.029-.244.058-.402l.186-1.033c.014-.2.187-.832.273-1.061.157-.416.315-.574.788-.574l.23-.86.33-.79c-.13 0-.316-.072-.631.058a1.03 1.03 0 00-.287.2c-.215.23-.359.43-.387.46-.072.071.014.028-.087.057zm-12.035-.001v-.057c0-.029 0-.057.014-.086l.086-.602h-1.348l-.33 2.08c-.015.1-.058.23-.072.344l-.488 3.07c-.014.086-.043.129.058.129h1.362c.13 0 .1-.301.144-.545l.301-1.75c.015-.058.015-.1.029-.13.014-.1.014-.086.014-.129.015-.086.043-.186.072-.272.014-.13.029-.144.072-.273.143-.602.3-.903.89-.903.057-.13.07-.273.114-.445.014-.058.043-.115.057-.201.058-.215.201-.574.301-.789l.115-.186c-.23-.115-.602-.015-.803.114 0 0-.058.043-.072.058l-.272.287-.043.043-.172.23c-.058.057.028.028-.03.014zm-5.15 8.751l.1-.746c-1.434 0-1.248-.1-1.305.287l-.775 5.207c-.014.072-.043.1.057.1h1.335l.114-.889c.015-.129.03-.272.058-.43l.143-.789c.029-.316.1-.516.158-.803l.13-.502.014-.015c.1-.258.229-.574.588-.56.244.015.114-.014.23-.386.014-.058.014-.043.028-.072.028-.086.014-.043.014-.1.014-.072.029-.087.043-.158.029-.072.043-.144.058-.216.071-.215.272-.617.287-.702-.201-.015-.36-.072-.603.057-.33.186-.301.244-.502.488l-.014.014c-.1.129-.086.158-.158.215zm24.186-4.863h-.215v-.23h.086c.1 0 .23.029.23.13 0 .057-.044.1-.101.1zm-.46.617h.245v-.43c.043.014.086 0 .143.1.014.043.029.072.029.086v.014l.129.201c.057.057.129.029.23.029-.044.114-.345.272-.675.129a.643.643 0 01-.186-.144s-.015 0-.015-.014c0 0-.014 0-.014-.014-.244-.259-.258-.746.129-1.033.287-.23.875-.13 1.004.459.058.215-.072.53-.215.617-.014-.086-.072-.13-.115-.201-.057-.086-.086-.144-.129-.23l.072-.014c.014 0 .014 0 .014-.014l.058-.015c.1-.086.272-.56-.402-.56h-.301V7.08zm-.559-.56c0 .373.086.545.344.76.044.044-.014.015.058.044.445.315 1.19.143 1.391-.373.388-1.062-.86-1.664-1.535-1.019-.114.115-.258.359-.258.588zm1.706 8.938s.014 0 .014.014l-.014-.014zm-.23.688c.316 0 .244.1.244-.43 0-.043-.014-.158.014-.201l.187.631h.215c0-.057.158-.631.215-.717v.717h.215v-1.148h-.315l-.187.546c-.028.1 0 .114-.057.157 0-.143-.143-.516-.186-.703h-.345v1.148zm-.615-.903v.903h.258v-.903h.273v-.244c-.144 0-.646-.015-.746.014-.072.014-.043-.029-.043.158 0 .072-.043.057.043.072.029.014.172 0 .215 0z" fill="#838FC0"/></svg>