<svg width="49" height="29" fill="none" xmlns="http://www.w3.org/2000/svg"><path fill-rule="evenodd" clip-rule="evenodd" d="M4.778 13.651c0-.494-.073-1.025-.11-1.483-.037-.256-.037-.494-.055-.75L4.357 8.14c0-.165.036-.312-.11-.312H.457v.275c.86.202 1.208.421 1.464 1.337.22.75.22 1.63.33 2.49.165 1.154.275 2.655.421 3.827.037.403.11.879.128 1.3h2.838l1.996-4.065c.092-.183.165-.311.257-.494l1.501-3.022c.055-.11.073-.164.128-.256L13 2.408c.09-.183.164-.31.256-.476l.256-.512c.055-.128.238-.421.256-.531h-1.281c-.257.457-.678 1.08-.97 1.556L4.813 13.578c-.036.073 0 .037-.036.073zm39.204 1.575h-.678l.531-3.388c.055-.366.11-.787.183-1.135.806 0 1.246.055 1.74.384 1.135.733.86 2.655-.348 3.644a2.917 2.917 0 01-.403.238 2.487 2.487 0 01-1.025.257zm4.687-3.132v.587c0 .31-.036.457-.201 1.025-.311 1.099-1.227 2.069-2.197 2.655-1.502.879-3.443.696-5.274.696-.128 0-.091-.055-.091-.165.055-.494.549-3.35.622-3.845l.568-3.626a2.18 2.18 0 00.073-.494h3.021c1.429 0 2.546.696 3.132 1.85.164.329.347.841.347 1.318zm-31.129.458c.055-.128.257-1.666.348-1.996.403 0 .733-.036 1.007.11.678.33.568 1.209-.091 1.685-.366.238-.678.201-1.264.201zm-2.801 4.505h2.014c.146 0 .11-.183.128-.33.073-.494.44-2.49.44-2.783h.073c0 .128.275.66.33.806l1.098 2.307h2.655c-.055-.165-.604-1.044-.732-1.245l-1.282-2.088c.33-.073.586-.201.86-.348.147-.091.22-.165.349-.256 1.318-1.044 1.574-4.193-1.246-4.193h-3.442c0 .33-.092.732-.147 1.025l-.476 3.04c-.055.348-.622 3.753-.622 4.065zm-5.695 0h4.377c.164 0 .183-.568.238-.86l.146-.971h-2.454c0-.238.037-.458.074-.696.036-.183.11-.494.11-.696h2.38l.256-1.776h-2.343c0-.33.2-1.007.2-1.355h2.418c.146 0 .11-.238.146-.384l.22-1.392h-4.376c-.293 0-.22-.092-.33.586l-1.08 6.83c-.055.384-.183.714.018.714zm26.056 0h4.504c.146 0 .128-.22.146-.385l.22-1.446h-2.453c0-.403.2-1.026.2-1.392h2.381c0-.128.037-.33.055-.421l.202-1.355H38.01c0-.293.183-.97.183-1.355h2.417c.165 0 .147-.238.165-.385l.22-1.391H36.38l-1.208 7.599c-.019.165-.074.348-.074.53zm10.273 3.846c.018.274.531 2.27.531 2.563h-1.502c0-.146.385-1.062.477-1.3l.494-1.263zm-4.028 5.145h2.032c.165-.33.256-.75.421-1.062h2.454c.036.183.073.311.128.513.018.146.092.384.092.549h1.849c-.183-.787-1.538-6.885-1.538-7.141h-1.74a1.05 1.05 0 00-.494.146.879.879 0 00-.311.366l-.421.934c-.513 1.227-1.154 2.564-1.667 3.772-.128.33-.274.623-.42.953-.11.274-.33.732-.385.97zm-13.641-8.991l.385-2.38c.036-.257.11-.568.11-.843h2.343c0-.33.257-1.52.257-1.776h-2.307l.238-1.355h2.526a6.3 6.3 0 01.147-.879l.11-.897H26.88l-1.28 8.056c.036.129.33.074.622.074h1.483zm9.026 4.029c0 1.227 1.08 1.685 1.959 2.124.146.055.274.146.403.238.549.385.384.897-.238 1.099-.367.11-.641.055-.953.055-.824 0-1.318-.367-1.703-.458-.054.238-.11.568-.146.806-.037.256-.11.567-.11.823.366.092.366.147 1.007.275 1.85.366 4.541-.183 4.541-2.307 0-.513-.073-.75-.384-1.135-.128-.165-.183-.202-.348-.33-.421-.366-.916-.512-1.282-.714-.22-.128-.714-.366-.714-.66 0-.347.494-.603.879-.603.696 0 .916-.019 1.593.22.128.054.165.09.293.11l.165-1.008c.073-.366.128-.494.018-.567-.311-.22-1.776-.348-2.454-.239-.695.129-1.245.312-1.703.678-.402.33-.823.86-.823 1.593zm-7.673 1.648c-.073-.129-.165-.348-.238-.495-.201-.384-.604-.915-.86-1.208-.184-.202-1.19-1.062-1.575-1.172 0 .11.055.256.091.384.037.129.074.22.11.385l.421 1.52c.128.494 1.062 3.698 1.08 3.9h2.106c.055-.238 2.454-5.805 2.857-6.683.037-.129.165-.33.165-.458h-2.07l-1.885 4.797c0-.238-.147-.769-.202-.97zm-12.23 2.087c-.55 0-.751-.421-.751-.934 0-.805 1.08-1.428 1.575-.824.53.66-.092 1.758-.824 1.758zm-2.417 1.227h1.355c.018-.128.055-.348.073-.458.458.531.64.568 1.318.568 1.227 0 2.6-1.868 2.07-3.498-.074-.22-.184-.457-.312-.604-.55-.604-1.227-.732-1.996-.403-.256.11-.366.238-.586.385a5.26 5.26 0 00.11-.75l.348-2.381h-1.41c0 .64-.97 6.39-.97 7.14zm17.027-8.991h2.124c0-.165.037-.348.073-.495l.403-2.545c.22-1.501.513-3.113.714-4.56.037-.2.074-.365.092-.53h-2.124l-1.282 8.13zm-9.411 0c2.29 0 2.014.146 2.088-.421.22-1.63.622-3.992.897-5.64l.238-1.538c.018-.165.073-.33.073-.531h-2.124l-1.208 7.709c-.037.274-.11.42.036.42z" fill="#fff"/><path fill-rule="evenodd" clip-rule="evenodd" d="M19.042 28.19h1.593c.073-.147.146-.257.238-.403.787-1.264 1.776-2.893 2.582-4.12l.494-.806c.092-.146.165-.274.256-.42.11-.166.477-.715.513-.861h-1.593l-1.044 1.684c-.055.11-.11.183-.165.275a.323.323 0 01-.091.146l-.092.129c-.055-.202-.091-.348-.164-.55-.11-.33-.495-1.501-.513-1.684H19.39c.018.164.091.33.146.457l.476 1.337c.22.604.44 1.154.641 1.776.11.293.147.22-.22.788l-1.171 1.867c-.056.11-.184.257-.22.385zm13.714-2.142l1.923-.018c.128-.037.073-.037.091-.202l1.209-6.921h-2.014l-1.209 7.14zM1.902 4.422c0 .147.513.312.714.385.238.11.513.22.77.33l1.537.659.183.073c.129.091.055-.018.092.183l.238 3.076c.055.348-.092.44.238.44.128 0 .311-.421.421-.605l.77-1.281c.127-.22.237-.421.365-.641l.385-.641c.073-.11.11-.183.183-.293.073-.128.11-.22.183-.348l.476-.769.092-.183c.201-.348.183-.202.183-.568h-6.83v.183zM26.384 19.86c.384.109 1.391.97 1.575 1.171.256.293.659.824.86 1.209.073.146.165.366.238.494 0-.165-.037-.311-.073-.458l-.293-1.318c-.055-.366-.275-1.538-.403-1.721l-.146-.147c-.348-.293-.97-.183-1.648-.183h-2.161c0 .183-.037.165.128.201.238.092.458.092.879.257l1.044.494z" fill="#fff"/></svg>