<svg width="39" height="22" fill="none" xmlns="http://www.w3.org/2000/svg"><path fill-rule="evenodd" clip-rule="evenodd" d="M3.817 10.52c0-.386-.057-.803-.086-1.161-.029-.201-.029-.387-.043-.588l-.2-2.568c0-.13.028-.244-.087-.244H.431v.215c.675.158.947.33 1.148 1.047.172.589.172 1.277.258 1.951.13.904.216 2.08.33 2.998.03.316.086.69.1 1.019h2.224l1.564-3.185c.072-.143.13-.243.2-.387L7.433 7.25c.043-.086.057-.129.1-.2l2.726-5.337c.072-.144.13-.244.2-.373l.202-.402c.043-.1.186-.33.2-.416H9.857c-.2.359-.53.847-.76 1.22l-5.25 8.721c-.029.058 0 .03-.029.058zm30.714 1.235h-.53l.416-2.654c.042-.287.085-.617.143-.89.631 0 .975.043 1.363.302.89.573.674 2.08-.273 2.854-.1.072-.2.13-.316.187-.186.1-.53.2-.803.2zm3.673-2.453v.459c0 .244-.03.358-.158.803-.244.86-.961 1.62-1.722 2.08-1.176.688-2.697.545-4.131.545-.1 0-.072-.043-.072-.129.043-.387.43-2.625.488-3.013l.445-2.84a1.72 1.72 0 00.057-.387h2.367c1.119 0 1.994.545 2.453 1.449.13.258.273.66.273 1.033zm-24.387.358c.043-.1.2-1.305.272-1.563.316 0 .574-.03.79.086.53.258.444.946-.072 1.32-.287.186-.531.157-.99.157zm-2.195 3.53H13.2c.115 0 .086-.144.1-.26.058-.386.345-1.95.345-2.18h.057c0 .1.215.517.258.632l.861 1.807h2.08c-.043-.129-.473-.818-.574-.975l-1.004-1.636c.258-.057.46-.157.674-.272.115-.072.172-.13.273-.201 1.033-.818 1.234-3.285-.976-3.285h-2.697c0 .258-.071.574-.114.803l-.373 2.381c-.043.273-.488 2.941-.488 3.185zm-4.462-.001h3.43c.128 0 .143-.445.186-.674l.115-.76H8.968c0-.187.029-.36.058-.546.028-.143.086-.387.086-.545h1.865l.2-1.391H9.341c0-.259.158-.79.158-1.062h1.894c.114 0 .086-.186.114-.301l.173-1.09H8.25c-.23 0-.172-.072-.258.459l-.847 5.35c-.043.302-.143.56.015.56zm20.413.001h3.529c.114 0 .1-.173.114-.302l.173-1.133h-1.923c0-.316.158-.804.158-1.09h1.865c0-.101.029-.259.043-.33l.158-1.062h-1.836c0-.23.143-.76.143-1.062h1.894c.129 0 .114-.186.129-.3l.172-1.091h-3.615l-.947 5.953c-.014.13-.057.273-.057.416zm8.049 3.011c.014.215.416 1.78.416 2.009h-1.176c0-.115.3-.832.372-1.019l.388-.99zm-3.156 4.031h1.592c.13-.258.201-.588.33-.832h1.922c.029.144.058.244.1.402.015.115.073.301.073.43h1.448c-.143-.616-1.205-5.393-1.205-5.594h-1.362a.82.82 0 00-.388.114.687.687 0 00-.244.287l-.33.732c-.401.961-.903 2.008-1.305 2.955-.1.258-.215.488-.33.746-.086.215-.258.574-.301.76zM21.778 13.19l.3-1.866c.03-.2.087-.444.087-.66H24c0-.258.201-1.19.201-1.391h-1.808l.187-1.062h1.98c.014-.215.071-.502.114-.688l.086-.703h-3.629l-1.004 6.312c.029.1.258.057.488.057h1.162zm7.072 3.155c0 .961.846 1.32 1.534 1.664.115.043.216.115.316.186.43.302.301.703-.186.861-.287.086-.502.043-.746.043-.646 0-1.033-.287-1.335-.358a9.754 9.754 0 00-.114.63c-.029.202-.086.445-.086.646.287.072.287.115.789.215 1.449.287 3.557-.143 3.557-1.807 0-.402-.057-.588-.301-.89-.1-.129-.143-.157-.273-.258-.33-.287-.717-.401-1.004-.56-.172-.1-.56-.286-.56-.516 0-.272.388-.473.69-.473.544 0 .717-.014 1.247.172.1.043.13.072.23.086l.13-.789c.056-.287.1-.387.013-.444-.243-.173-1.391-.273-1.922-.187-.545.1-.975.244-1.334.53-.316.259-.646.675-.646 1.249zm-6.011 1.291c-.058-.1-.13-.273-.187-.387-.158-.302-.473-.718-.674-.947-.143-.158-.932-.832-1.234-.918 0 .086.043.2.072.3.029.101.058.173.086.302l.33 1.19c.1.388.832 2.899.846 3.056h1.65c.043-.186 1.922-4.547 2.238-5.236.029-.1.13-.258.13-.358h-1.622l-1.477 3.758c0-.186-.115-.602-.158-.76zm-9.581 1.635c-.43 0-.588-.33-.588-.731 0-.632.846-1.12 1.233-.646.416.517-.071 1.377-.645 1.377zm-1.894.961h1.062c.014-.1.043-.272.057-.358.359.416.502.444 1.033.444.961 0 2.037-1.463 1.621-2.74a1.471 1.471 0 00-.244-.473c-.43-.473-.961-.574-1.564-.316-.2.086-.286.187-.459.302a4.11 4.11 0 00.087-.588l.272-1.865h-1.104c0 .502-.76 5.006-.76 5.594zm13.34-7.042h1.664c0-.13.028-.274.057-.388l.316-1.994c.172-1.177.401-2.439.56-3.572.028-.158.057-.287.07-.416h-1.663l-1.004 6.37zm-7.373 0c1.794 0 1.578.114 1.636-.33.172-1.278.487-3.128.703-4.42l.186-1.204c.014-.13.057-.258.057-.416H18.25l-.946 6.04c-.029.214-.086.33.028.33z" fill="#838FC0"/><path fill-rule="evenodd" clip-rule="evenodd" d="M14.993 21.91h1.248c.058-.114.115-.2.187-.315.616-.99 1.391-2.267 2.022-3.228l.388-.63c.071-.116.129-.216.2-.33.087-.13.373-.56.402-.675h-1.248l-.817 1.32c-.044.086-.087.143-.13.215a.254.254 0 01-.071.115l-.072.1c-.043-.158-.072-.273-.13-.43-.085-.258-.387-1.177-.4-1.32h-1.306c.014.129.071.258.114.359l.373 1.047c.173.473.345.903.503 1.391.086.23.114.172-.173.617l-.918 1.463c-.043.086-.143.201-.172.301zm10.744-1.678l1.506-.014c.1-.029.057-.029.072-.158l.946-5.422h-1.578l-.946 5.594zM1.565 3.29c0 .116.402.245.56.302.186.086.401.172.602.258l1.205.517.143.057c.1.072.043-.014.072.144l.187 2.41c.043.272-.072.344.186.344.1 0 .244-.33.33-.473l.602-1.005c.1-.172.187-.33.287-.502l.302-.502c.057-.086.086-.143.143-.23.057-.1.086-.171.144-.272l.373-.602.071-.144c.158-.272.144-.158.144-.445H1.565v.144zm19.179 12.094c.302.086 1.09.76 1.234.918.2.23.516.646.674.947.058.114.13.287.187.387 0-.13-.029-.244-.058-.359l-.23-1.033c-.042-.286-.214-1.204-.315-1.348l-.114-.115c-.273-.23-.76-.143-1.291-.143h-1.693c0 .143-.029.129.1.158.187.071.359.071.689.2l.817.388z" fill="#838FC0"/></svg>