<svg width="58" height="19" fill="none" xmlns="http://www.w3.org/2000/svg"><path fill-rule="evenodd" clip-rule="evenodd" d="M50.988 5.693c0 .129 1.154 5.384 1.282 5.951l.091.403h-3.845l1.245-3.168c.092-.256.183-.53.293-.787l.934-2.399zm-9.65 12.415h4.871c.018-.091.073-.22.11-.311l.732-1.923c.055-.11.092-.201.128-.33h5.933l.55 2.454c0 .055.018.11.091.11h4.23c0-.201-2.27-10.382-2.344-10.675-.128-.696-.33-1.465-.458-2.142-.073-.348-.164-.715-.238-1.062l-.476-2.124a13.187 13.187 0 00-.11-.532c-.018-.091-.036-.183-.055-.256-.036-.11-.018-.238-.11-.238H50.42c-1.007 0-1.63.385-2.087 1.154l-.513 1.135c-.384.86-.842 1.96-1.245 2.82l-.75 1.703c-.312.714-.715 1.574-1.008 2.252-.22.55-.53 1.172-.732 1.703-.092.201-.183.384-.256.568l-.751 1.702c-.238.513-.513 1.209-.75 1.703-.239.476-.514 1.19-.752 1.685-.036.11-.091.201-.128.293-.018.037-.036.073-.055.128-.036.073-.055.073-.055.183zm-4.542-5.017c0 1.209-1.593 1.666-2.527 1.666-1.154 0-1.831 0-2.948-.293l-2.07-.769-.11-.055c-.109-.036-.072-.091-.182.55l-.55 3.24c.147.074.33.129.513.202.586.183 1.062.293 1.703.421.696.147 1.227.165 1.904.257.128 0 .312.018.513.018h1.044c.513 0 1.062-.055 1.52-.128.476-.073.952-.165 1.373-.293.22-.073.421-.128.64-.202a2.16 2.16 0 00.312-.128c.75-.293 1.227-.604 1.85-1.08l.714-.733c.714-.879 1.171-1.94 1.171-3.277 0-2.18-1.538-3.278-2.893-4.102l-.805-.421c-.22-.073-.367-.183-.568-.256l-1.08-.586c-.77-.44-1.63-1.099-.86-2.033.42-.53 1.464-.769 2.215-.769.787 0 1.208 0 1.977.165.165.018.312.055.458.091.385.11 1.044.312 1.392.495.073.036.128.073.22.091l.549-3.222c.018-.165.036-.33.073-.458-.11-.073-.275-.11-.403-.165A12.514 12.514 0 0038.535.75h-.11c-1.3 0-2.179.054-3.442.42l-.915.312a2.12 2.12 0 01-.293.128c-.33.147-.751.385-1.063.604-.824.531-1.3 1.08-1.794 1.905-.293.494-.55 1.318-.586 1.886-.018.457-.018.677.073 1.135.312 1.666 1.978 2.875 3.388 3.589l.86.403c.184.073.367.183.55.274.311.147.732.421 1.007.623.274.238.586.568.586 1.062zm-24.846-2.82c-.074-.11-.202-.44-.275-.586-.238-.55-.568-1.117-.88-1.611a7.917 7.917 0 00-.695-.989c-.146-.165-.238-.293-.384-.458-.055-.073-.129-.146-.184-.22-.073-.073-.146-.146-.201-.22-.458-.512-1.209-1.171-1.758-1.574-.293-.238-1.648-1.208-2.032-1.337.018.092.055.165.073.238l.458 1.612c.311 1.208.695 2.472 1.025 3.699l.77 2.764c.072.293.182.623.255.934l.513 1.85c.092.311.183.604.257.915l.659 2.326c.036.146.091.311.128.457h3.699c.42 0 .787-.018 1.208-.018.055-.073.073-.165.11-.238a57.22 57.22 0 00.806-1.868l1.373-3.167c.44-1.062.934-2.161 1.373-3.205.421-1.043.934-2.142 1.374-3.186l2.16-5.054c.037-.091.092-.183.11-.293h-4.907c-.055.11-.092.22-.147.348l-.42 1.08c-.588 1.448-1.118 2.913-1.705 4.36l-1.976 5.07c-.055.11-.275.64-.275.732-.073-.055-.037-.073-.091-.274-.019-.11-.037-.184-.055-.312l-.238-1.19c-.019-.091-.11-.513-.129-.586zm8.916 7.801h4.65c0-.128.055-.366.092-.513l.622-3.735c.605-3.534 1.246-7.123 1.832-10.639.055-.348.11-.714.164-1.062l.184-1.08h-4.651c-.092.421-.275 1.63-.348 2.124l-1.282 7.453c-.11.695-1.264 7.25-1.264 7.452z" fill="#fff"/><path fill-rule="evenodd" clip-rule="evenodd" d="M5.54 3.276c.385.128 1.74 1.099 2.032 1.337.55.403 1.3 1.062 1.758 1.575.055.073.128.146.202.22.055.072.128.146.183.219.146.165.238.293.384.458.238.293.495.64.696.989.312.494.641 1.062.88 1.61.072.147.2.477.274.587 0-.092-.037-.165-.055-.257l-.055-.274-1.428-6.867c-.147-.714-.312-1.227-.99-1.574-.292-.147-.64-.202-1.025-.239-.238-.036-2.142-.018-2.563-.018H.724c0 .147-.036.22-.055.348v.018c.074.037.238.055.33.092l.66.183c1.116.311 2.013.678 3.057 1.172l.824.421z" fill="#fff"/></svg>