<svg width="46" height="15" fill="none" xmlns="http://www.w3.org/2000/svg"><path fill-rule="evenodd" clip-rule="evenodd" d="M39.952 4.349c0 .1.903 4.217 1.004 4.662l.071.315h-3.012l.975-2.481c.072-.201.144-.416.23-.617l.732-1.88zm-7.56 9.726h3.815c.015-.072.058-.172.087-.244l.573-1.506c.043-.086.072-.158.1-.259h4.649l.43 1.923c0 .043.014.086.072.086h3.313c0-.158-1.778-8.134-1.836-8.364-.1-.545-.258-1.147-.358-1.678-.058-.273-.13-.56-.187-.832l-.373-1.664a10.325 10.325 0 00-.086-.416 4.672 4.672 0 00-.043-.2c-.029-.087-.014-.187-.086-.187h-2.955c-.79 0-1.277.3-1.636.903l-.401.89c-.301.674-.66 1.535-.976 2.209l-.588 1.334c-.244.56-.56 1.234-.789 1.765-.172.43-.416.918-.574 1.334-.071.157-.143.3-.2.444l-.589 1.334c-.186.402-.401.947-.588 1.335-.186.373-.401.932-.588 1.32-.029.085-.072.157-.1.229a.7.7 0 00-.043.1c-.03.058-.043.058-.043.144zm-3.559-3.931c0 .947-1.248 1.305-1.98 1.305-.904 0-1.434 0-2.31-.23l-1.62-.602a34.51 34.51 0 00-.086-.043c-.087-.028-.058-.071-.144.43l-.43 2.54c.114.057.258.1.401.158.46.143.832.23 1.334.33.546.114.962.129 1.492.2.1 0 .244.015.402.015h.818c.401 0 .832-.043 1.19-.1a7.91 7.91 0 001.076-.23c.172-.058.33-.1.502-.158.086-.029.158-.057.244-.1.588-.23.961-.474 1.45-.847l.558-.574c.56-.688.919-1.52.919-2.567 0-1.707-1.205-2.568-2.267-3.214l-.631-.33c-.172-.057-.287-.143-.445-.2l-.846-.46c-.603-.344-1.277-.86-.674-1.592.33-.416 1.147-.602 1.735-.602.617 0 .947 0 1.55.129.129.014.243.043.358.071.302.087.818.244 1.09.388.058.028.1.057.173.072l.43-2.525c.014-.13.029-.258.057-.359-.086-.057-.215-.086-.315-.129a9.804 9.804 0 00-2.668-.445h-.087c-1.018 0-1.707.043-2.696.33l-.718.244c-.086.043-.143.072-.23.1a5.373 5.373 0 00-.831.474c-.646.416-1.019.846-1.406 1.492a3.861 3.861 0 00-.46 1.477c-.013.359-.013.531.058.89.244 1.305 1.55 2.252 2.654 2.811l.674.316c.144.057.287.144.43.215a5.5 5.5 0 01.79.488c.215.186.459.445.459.832zM9.367 7.935c-.057-.086-.157-.344-.215-.46a9.723 9.723 0 00-.688-1.262 6.208 6.208 0 00-.545-.774c-.115-.13-.187-.23-.302-.359-.043-.057-.1-.115-.143-.172a1.72 1.72 0 01-.158-.172A10.198 10.198 0 005.94 3.502c-.23-.186-1.291-.947-1.592-1.047.014.072.043.129.057.186l.359 1.263c.244.947.545 1.936.803 2.898l.603 2.166c.057.23.143.487.2.731l.402 1.45c.072.243.143.473.2.716l.517 1.822c.029.115.072.244.1.359h2.898c.33 0 .617-.014.947-.014.043-.058.058-.13.086-.187.158-.33.488-1.119.631-1.463L13.226 9.9c.345-.832.732-1.693 1.076-2.51.33-.818.732-1.679 1.076-2.496l1.693-3.96c.029-.071.072-.143.086-.23h-3.845c-.043.087-.071.173-.114.273l-.33.847c-.46 1.133-.875 2.28-1.334 3.414l-1.55 3.974c-.043.086-.215.502-.215.573-.057-.043-.029-.057-.072-.215-.014-.086-.028-.143-.043-.244l-.186-.932a23.929 23.929 0 00-.1-.46zm6.985 6.111h3.644c0-.1.043-.287.072-.402l.487-2.926c.474-2.769.976-5.58 1.435-8.335l.129-.832.143-.846H18.62c-.072.33-.216 1.277-.273 1.664l-1.004 5.839c-.086.545-.99 5.68-.99 5.838z" fill="#838FC0"/><path fill-rule="evenodd" clip-rule="evenodd" d="M4.345 2.454c.301.1 1.363.861 1.592 1.048.43.315 1.019.832 1.378 1.233.043.058.1.115.157.172.043.058.1.115.144.173.115.129.186.23.301.358.187.23.387.502.545.775.244.387.502.832.689 1.262.057.115.158.373.215.46 0-.072-.029-.13-.043-.202l-.043-.215-1.12-5.38c-.114-.559-.243-.96-.774-1.233C7.156.79 6.884.747 6.583.72 6.396.689 4.905.704 4.575.704H.572C.572.82.544.876.53.977V.99c.058.029.187.043.259.072l.516.143c.875.244 1.578.531 2.396.918l.645.33z" fill="#838FC0"/></svg>