<svg width="55" height="16" fill="none" xmlns="http://www.w3.org/2000/svg"><path fill-rule="evenodd" clip-rule="evenodd" d="M47.826 11.66c.032.484.209-.047-.177.934-.129.322-.242.58-.37.917-.145.386-.66 1.529-.724 1.85h3.008l1.4-3.716 2.35-6.066c.112-.322.74-1.866.756-2.06h-2.864l-1.738 5.358c-.016-.016-.016-.032-.016-.032l-.467-1.27c-.354-.902-.82-2.479-1.158-3.348-.08-.209-.193-.482-.242-.707h-2.96l3.121 8.06c.065.097.016.049.08.08zM12.654 9.44v2.72h2.816V6.383c.933-.225 1.319-.563 2.703-.37.595.097.53.387.53-.9V3.52c-.756-.065-1.11-.097-1.882.29-.788.385-.933.643-1.351.932V3.52h-2.816v5.92zm31.922-2.88c0-.595.016-.852-.129-1.303-.628-2.027-3.298-2.027-5.084-1.979-.45.016-2.172.306-2.43.435l-.016 1.64c0 .226-.048.403.113.467.096.016 1.206-.418 1.69-.515.578-.112 1.431-.144 2.026-.016.66.13 1.062.403 1.062 1.191h-.257l-2.011.21c-1.931.273-3.588 1.045-3.33 3.362.24 2.124 2.525 2.8 4.198 2.124a3.54 3.54 0 001.062-.644c.113-.08.242-.193.338-.257v.885h2.768v-5.6zm-24.28.065c0 1.046-.096 3.234.194 4.087.595 1.818 3.04 1.802 4.682 1.528.209-.048.418-.113.627-.129v-1.914c-.595 0-.611.225-1.416.225-.595 0-.933-.16-1.126-.563-.258-.563-.145-2.381-.145-3.234V5.402H25.8V3.52h-2.687V1.026h-2.815V3.52h-1.079v1.882h1.079v1.223zm9.767-2.365v-1.4c.788 0 1.464-.048 2.075.145.885.29.87.756 1.03 1.255 0 .885-.193 1.416-.788 1.721-.676.354-1.32.258-2.317.258v-1.98zm6.21.048c-.064-1.03-.305-1.818-.868-2.381-.966-.982-2.156-1.191-3.46-1.223H27.07V12.16h2.993V8.459c2.349 0 3.684-.016 5.116-1.335.21-.193.419-.5.563-.74.306-.515.532-1.48.532-2.076zM5.51 6.625l.885-2.526s.016.048.016.064l.58 1.77c.064.225.128.467.209.644.048.193.128.386.176.563.049.209.113.45.194.611H5.172c.049-.193.113-.338.177-.53.048-.162.145-.451.161-.596zm4.553-.097c-.016-.225-1.496-4.344-1.753-5.1L8.036.704H4.754c-.048.225-.161.515-.241.74l-1.77 5.133-1.722 4.859c-.096.257-.21.482-.257.724h3.008c.113-.242.58-1.963.757-2.301h3.7c.097.418.676 2.011.708 2.3h3.106c-.033-.225-.161-.53-.242-.707-.209-.596-1.577-4.682-1.738-4.924zm28.978 3.01c0-1.047.965-1.256 1.834-1.32.306-.016.644-.097.933-.097v1.69c0 .547-2.767 1.4-2.767-.274zM3.9 13.222l-.305.209-.032-.032a1.327 1.327 0 00-.45-.338 1.355 1.355 0 00-.564-.113c-.225 0-.434.048-.627.145a1.092 1.092 0 00-.45.402 1.05 1.05 0 00-.162.58c0 .321.113.578.354.804.258.225.564.322.901.322.403 0 .724-.145.998-.435l.032-.032.306.225-.032.032a1.786 1.786 0 01-.563.419 2.039 2.039 0 01-.757.145c-.482 0-.917-.145-1.255-.5a1.411 1.411 0 01-.386-.997c0-.418.161-.772.467-1.046.338-.305.724-.434 1.174-.434.258 0 .515.048.757.16.225.097.402.242.563.435l.032.049zm.79 1.576l1.544-1.432h.08v2.124h-.37v-1.432L4.432 15.49h-.113v-2.124h.37v1.432zm4.376-.949l-.29.177-.032-.032c-.193-.242-.45-.338-.756-.338a.915.915 0 00-.628.225.697.697 0 00-.241.547c0 .129.032.258.112.386a.88.88 0 00.306.29c.145.064.306.097.45.097a.956.956 0 00.757-.338l.032-.033.29.177-.033.049c-.112.16-.257.273-.434.354a1.35 1.35 0 01-.611.128 1.32 1.32 0 01-.901-.321 1.028 1.028 0 01-.354-.773c0-.209.064-.402.177-.579.112-.177.257-.306.45-.402a1.503 1.503 0 011.078-.08c.129.032.241.08.354.16.097.08.177.161.241.258l.033.048zm1.126-.16v1.801h-.37v-1.802h-.58v-.322h1.53v.322h-.58zm1.142.803c.016.194.08.354.226.5a.752.752 0 00.547.208c.096 0 .209-.016.305-.048a.815.815 0 00.258-.145c.08-.064.16-.177.225-.273l.016-.032.322.16-.016.049c-.08.129-.177.241-.29.354-.096.08-.225.145-.354.193-.145.048-.29.08-.45.08-.322 0-.628-.096-.853-.338a1.112 1.112 0 01-.322-.772c0-.273.097-.499.274-.708.225-.273.53-.402.885-.402.37 0 .691.129.933.402.177.21.241.45.257.724v.048h-1.963zm4.763-.434l-.805 1.432h-.096l-.805-1.432-.515 1.432h-.386l.773-2.124h.128l.853 1.529.853-1.529h.145l.756 2.124h-.386l-.515-1.432zm3.089 1.143a.897.897 0 01-.322.225c-.16.08-.322.112-.499.112a1.17 1.17 0 01-.82-.321 1.081 1.081 0 01-.338-.805c0-.306.113-.563.338-.772.241-.226.515-.322.836-.322.161 0 .338.032.5.113a.84.84 0 01.305.225v-.29h.37v2.124h-.37v-.29zm3.91-1.497H21.92v1.786h-.37v-2.124h1.915v2.124h-.37v-1.786zm1.754.354l-.692 1.432h-.402l1.045-2.124h.097l1.062 2.124h-.402l-.708-1.432zm3.298 1.143a.957.957 0 01-.338.225 1.04 1.04 0 01-.499.112c-.305 0-.579-.112-.804-.321-.226-.226-.354-.483-.354-.805 0-.306.129-.563.354-.772.225-.226.499-.322.82-.322.177 0 .338.032.5.113a.897.897 0 01.32.225v-.29h.371v2.124h-.37v-.29zm1.609-1.513v1.802h-.37v-1.802h-.58v-.322h1.53v.322h-.58zm1.142.804c0 .194.08.354.226.5a.752.752 0 00.547.208c.096 0 .209-.016.305-.048.08-.032.177-.08.258-.145.08-.064.16-.177.225-.273l.016-.032.322.16-.032.049a1.407 1.407 0 01-.274.354c-.112.08-.225.145-.354.193-.145.048-.29.08-.45.08-.322 0-.628-.096-.87-.338a1.17 1.17 0 01-.305-.772c0-.273.08-.499.257-.708.242-.273.548-.402.902-.402.37 0 .691.129.933.402.177.21.241.45.241.724v.048H30.9zm3.862-.29l.981-.836h.483l-1.094.95 1.158 1.174h-.498l-.918-.965-.112.08v.885h-.37v-.885l-.113-.08-.917.965h-.483l1.127-1.174-1.062-.95h.482l.966.837v-.837h.37v.837zm1.93.29a.761.761 0 00.226.5.78.78 0 00.547.208.948.948 0 00.306-.048.67.67 0 00.257-.145.735.735 0 00.225-.273l.032-.032.306.16-.016.049c-.08.129-.16.241-.273.354-.113.08-.226.145-.37.193a1.3 1.3 0 01-.435.08c-.338 0-.644-.096-.869-.338a1.112 1.112 0 01-.322-.772c0-.273.097-.499.274-.708.225-.273.53-.402.9-.402.371 0 .677.129.918.402.177.21.257.45.257.724v.048h-1.963zm2.752.306l1.528-1.432h.097v2.124h-.37v-1.432l-1.529 1.432h-.096v-2.124h.37v1.432zm-.145-2.091h.354l.016.016c.032.064.097.096.161.128.08.033.16.049.257.049.065 0 .161-.016.226-.033.08-.032.128-.096.177-.144l.016-.016h.338l-.017.064c-.032.129-.128.225-.24.306-.162.08-.339.112-.516.112-.16 0-.338-.032-.498-.112a.679.679 0 01-.258-.306l-.016-.064zm-26.42 1.464a.818.818 0 00-.144-.258.572.572 0 00-.257-.177.942.942 0 00-.354-.08.914.914 0 00-.531.177.748.748 0 00-.21.338h1.497zm5.52-.515a.691.691 0 00-.403.112.836.836 0 00-.305.274.775.775 0 00-.113.386c0 .145.048.258.113.386.08.113.177.21.305.29a.873.873 0 00.403.097.836.836 0 00.708-.37.873.873 0 00.096-.403.706.706 0 00-.225-.547.843.843 0 00-.58-.225zm8.945 0a.726.726 0 00-.402.112.682.682 0 00-.29.274.641.641 0 00-.112.386c0 .145.032.258.113.386a.83.83 0 00.29.29.873.873 0 00.401.097.94.94 0 00.419-.097.788.788 0 00.29-.274.726.726 0 00.112-.402.72.72 0 00-.241-.547.843.843 0 00-.58-.225zm5.1.515a.814.814 0 00-.144-.258.542.542 0 00-.273-.177.83.83 0 00-.869.097.783.783 0 00-.226.338h1.513zm5.793 0a.776.776 0 00-.129-.258.728.728 0 00-.273-.177.83.83 0 00-.869.097.782.782 0 00-.225.338h1.496z" fill="#838FC0"/></svg>