<svg width="18" height="21" viewBox="0 0 18 21" fill="none" xmlns="http://www.w3.org/2000/svg">
<path d="M1.71419 7.02148H1.66295C1.00619 7.02148 0.470703 7.55868 0.470703 8.21374V13.4046C0.470703 14.0622 1.00619 14.5977 1.66295 14.5977H1.71506C2.37182 14.5977 2.90731 14.0605 2.90731 13.4046V8.2137C2.90644 7.55868 2.37012 7.02148 1.71419 7.02148Z" fill="#69A5FF"/>
<path d="M3.47754 15.4082C3.47754 16.0111 3.97031 16.5022 4.57326 16.5022H5.74418V19.306C5.74418 19.9645 6.28137 20.5 6.93643 20.5H6.98766C7.64529 20.5 8.18161 19.9636 8.18161 19.306V16.5022H9.81798V19.306C9.81798 19.9645 10.3569 20.5 11.0119 20.5H11.0623C11.7199 20.5 12.2554 19.9636 12.2554 19.306V16.5022H13.4272C14.0292 16.5022 14.5221 16.0111 14.5221 15.4082V7.21191H3.47754V15.4082Z" fill="#69A5FF"/>
<path d="M11.7503 2.24139L12.6804 0.805763C12.7401 0.715215 12.7136 0.591409 12.6223 0.532456C12.5318 0.472671 12.4079 0.497456 12.349 0.590538L11.3848 2.07574C10.6614 1.77938 9.85348 1.61286 9.00026 1.61286C8.14621 1.61286 7.33998 1.77938 6.61492 2.07574L5.65243 0.590538C5.59351 0.497456 5.4688 0.472671 5.37742 0.532456C5.28604 0.591369 5.25955 0.715215 5.31934 0.805763L6.25024 2.24139C4.57203 3.06385 3.44043 4.61394 3.44043 6.39204C3.44043 6.50136 3.44728 6.60897 3.45666 6.71571H14.5447C14.5541 6.60897 14.5601 6.50136 14.5601 6.39204C14.5601 4.61394 13.4276 3.06385 11.7503 2.24139ZM6.42959 4.81206C6.13494 4.81206 5.8958 4.57462 5.8958 4.27914C5.8958 3.98366 6.13494 3.74706 6.42959 3.74706C6.72594 3.74706 6.96338 3.98362 6.96338 4.27914C6.96338 4.57466 6.72424 4.81206 6.42959 4.81206ZM11.5701 4.81206C11.2754 4.81206 11.0363 4.57462 11.0363 4.27914C11.0363 3.98366 11.2754 3.74706 11.5701 3.74706C11.8656 3.74706 12.103 3.98362 12.103 4.27914C12.103 4.57462 11.8656 4.81206 11.5701 4.81206Z" fill="#69A5FF"/>
<path d="M16.3372 7.02148H16.2877C15.6309 7.02148 15.0938 7.55868 15.0938 8.21374V13.4046C15.0938 14.0622 15.6318 14.5977 16.2877 14.5977H16.3381C16.9957 14.5977 17.5304 14.0605 17.5304 13.4046V8.2137C17.5304 7.55868 16.994 7.02148 16.3372 7.02148Z" fill="#69A5FF"/>
</svg>
