<svg width="18" height="21" viewBox="0 0 18 21" fill="none" xmlns="http://www.w3.org/2000/svg">
<path d="M12.849 0.5C12.8956 0.5 12.9421 0.5 12.9913 0.5C13.1055 1.91044 12.5671 2.96432 11.9128 3.72751C11.2708 4.48542 10.3917 5.2205 8.96985 5.10897C8.875 3.71872 9.41424 2.74301 10.0676 1.98158C10.6736 1.27197 11.7846 0.640517 12.849 0.5Z" fill="#69A5FF"/>
<path d="M17.1529 15.1805C17.1529 15.1945 17.1529 15.2068 17.1529 15.22C16.7533 16.4302 16.1834 17.4674 15.4878 18.4299C14.8528 19.3038 14.0747 20.4797 12.6854 20.4797C11.4848 20.4797 10.6874 19.7078 9.45697 19.6867C8.15543 19.6656 7.43967 20.3322 6.24967 20.4999C6.11354 20.4999 5.97742 20.4999 5.84392 20.4999C4.97008 20.3735 4.26486 19.6814 3.75109 19.0579C2.23614 17.2153 1.06546 14.8353 0.847656 11.7896C0.847656 11.491 0.847656 11.1933 0.847656 10.8947C0.939871 8.71493 1.99902 6.94266 3.40683 6.08374C4.14981 5.62706 5.1712 5.23801 6.30851 5.4119C6.79593 5.48742 7.29389 5.65429 7.73037 5.8194C8.14402 5.97836 8.6613 6.26027 9.15135 6.24534C9.48332 6.23568 9.81354 6.06267 10.1481 5.94059C11.1283 5.58667 12.089 5.18092 13.3555 5.3715C14.8774 5.60159 15.9577 6.27783 16.6251 7.32117C15.3376 8.14057 14.3198 9.37536 14.4936 11.484C14.6482 13.3994 15.7618 14.52 17.1529 15.1805Z" fill="#69A5FF"/>
</svg>
