<svg width="20" height="20" viewBox="0 0 20 20" fill="none" xmlns="http://www.w3.org/2000/svg">
<path d="M10.0195 15.4886C11.0982 15.4886 11.9727 14.6142 11.9727 13.5356C11.9727 12.4569 11.0982 11.5825 10.0195 11.5825C8.94085 11.5825 8.06641 12.4569 8.06641 13.5356C8.06641 14.6142 8.94085 15.4886 10.0195 15.4886Z" fill="#69A5FF"/>
<path d="M19.4141 0H0.585938C0.262344 0 0 0.262305 0 0.585898V14.6477C0 14.9713 0.262344 15.2336 0.585938 15.2336H7.39812C6.05492 13.1671 7.54492 10.4109 10.0195 10.4109C12.4941 10.4109 13.9841 13.1671 12.6409 15.2336H19.4141C19.7377 15.2336 20 14.9713 20 14.6477V0.585898C20 0.262305 19.7377 0 19.4141 0ZM7.65625 2.3827H12.3438C12.6673 2.3827 12.9297 2.645 12.9297 2.96859C12.9297 3.29219 12.6673 3.55449 12.3438 3.55449H7.65625C7.33266 3.55449 7.07031 3.29219 7.07031 2.96859C7.07031 2.645 7.33266 2.3827 7.65625 2.3827ZM15.8594 9.41359H4.14062C3.81703 9.41359 3.55469 9.15129 3.55469 8.82769C3.55469 8.5041 3.81703 8.2418 4.14062 8.2418H15.8594C16.183 8.2418 16.4453 8.5041 16.4453 8.82769C16.4453 9.15129 16.183 9.41359 15.8594 9.41359ZM15.8594 7.06996H4.14062C3.81703 7.06996 3.55469 6.80766 3.55469 6.48406C3.55469 6.16047 3.81703 5.89816 4.14062 5.89816H15.8594C16.183 5.89816 16.4453 6.16047 16.4453 6.48406C16.4453 6.80766 16.183 7.06996 15.8594 7.06996Z" fill="#69A5FF"/>
<path d="M7.68555 15.6105V19.4131C7.68555 19.8776 8.2043 20.1606 8.59523 19.9014L10.0391 18.9442L11.483 19.9014C11.8679 20.1566 12.3927 19.8831 12.3927 19.4131V15.5654C11.1582 17.0064 8.94828 17.0293 7.68555 15.6105Z" fill="#69A5FF"/>
</svg>
