<svg width="21" height="23" viewBox="0 0 21 23" fill="none" xmlns="http://www.w3.org/2000/svg">
<path d="M10.4994 6.52805C12.302 6.52805 13.7634 5.06669 13.7634 3.26402C13.7634 1.46135 12.302 0 10.4994 0C8.6967 0 7.23535 1.46135 7.23535 3.26402C7.23535 5.06669 8.6967 6.52805 10.4994 6.52805Z" fill="#69A5FF"/>
<path d="M13.9761 19.1974L16.0453 16.8075C16.1833 16.6482 16.2278 16.4283 16.1626 16.2279C16.0975 16.0276 15.9323 15.8758 15.7271 15.8281L12.6483 15.1109L11.0148 12.4044C10.9059 12.224 10.7106 12.1138 10.4999 12.1138C10.2892 12.1138 10.0938 12.2241 9.98494 12.4044L8.35145 15.1109L5.27264 15.8281C5.06744 15.8758 4.90221 16.0276 4.83708 16.2279C4.77194 16.4283 4.81646 16.6482 4.95437 16.8075L7.0236 19.1974L6.7543 22.3472C6.73633 22.5571 6.82954 22.7611 7.00002 22.8849C7.1705 23.0088 7.39335 23.0343 7.58742 22.9525L10.4999 21.723L13.4122 22.9525C13.4874 22.9842 13.567 22.9998 13.6461 22.9998C13.7712 22.9998 13.8952 22.9608 13.9996 22.885C14.1701 22.7611 14.2633 22.5571 14.2454 22.3472L13.9761 19.1974Z" fill="#69A5FF"/>
<path d="M20.4031 18.6616L18.7126 17.271L18.53 15.0897C18.5124 14.8798 18.3862 14.6943 18.1974 14.6009C18.0086 14.5076 17.7846 14.5197 17.607 14.6331L16.9695 15.0402C17.1831 15.2542 17.3483 15.5172 17.4441 15.8117C17.6539 16.4575 17.5082 17.1771 17.064 17.6901L15.3672 19.6499L15.5444 21.7232L16.4206 22.7387C16.5359 22.8724 16.7027 22.9473 16.8759 22.9473C16.9095 22.9473 16.9433 22.9444 16.977 22.9387C17.1847 22.9033 17.3588 22.7618 17.4358 22.5657L18.2359 20.5283L20.254 19.6805C20.4482 19.5989 20.5856 19.4217 20.6161 19.2131C20.6466 19.0046 20.5658 18.7954 20.4031 18.6616Z" fill="#69A5FF"/>
<path d="M3.55514 15.8121C3.65096 15.5174 3.81627 15.2543 4.02997 15.0402L3.39244 14.6331C3.21482 14.5197 2.99088 14.5075 2.80203 14.6009C2.61318 14.6944 2.48699 14.8798 2.46943 15.0898L2.28677 17.271L0.596319 18.6616C0.433612 18.7954 0.352797 19.0047 0.383299 19.2132C0.413801 19.4216 0.551217 19.5989 0.745459 19.6806L2.76353 20.5283L3.56363 22.5657C3.64067 22.7618 3.8147 22.9033 4.02238 22.9388C4.05611 22.9445 4.08989 22.9473 4.12349 22.9473C4.29671 22.9473 4.46355 22.8724 4.57882 22.7388L5.45498 21.7232L5.63224 19.65L3.93541 17.6902C3.49117 17.1772 3.34549 16.4575 3.55514 15.8121Z" fill="#69A5FF"/>
<path d="M7.49176 13.9275L8.83129 11.708C9.1819 11.1271 9.82132 10.7661 10.5 10.7661C11.1787 10.7661 11.8182 11.1271 12.1688 11.7082L13.5082 13.9275L16.0329 14.5156C16.1227 14.5365 16.2101 14.5642 16.2949 14.5973V9.0652C16.2949 7.6799 15.3257 6.51821 14.0323 6.22514C13.3224 7.07048 12.3155 7.6582 11.1738 7.82616V9.05626C11.1738 9.42839 10.8721 9.73009 10.5 9.73009C10.1278 9.73009 9.82613 9.42839 9.82613 9.05626V7.82612C8.68444 7.65815 7.67751 7.07044 6.96766 6.2251C5.67422 6.51821 4.70508 7.67985 4.70508 9.06515V14.5973C4.78994 14.5642 4.87731 14.5364 4.96715 14.5155L7.49176 13.9275Z" fill="#69A5FF"/>
</svg>
