<svg width="20" height="15" viewBox="0 0 20 15" fill="none" xmlns="http://www.w3.org/2000/svg">
<rect y="0.356934" width="20" height="14.2857" rx="2" fill="white"/>
<mask id="mask0" mask-type="alpha" maskUnits="userSpaceOnUse" x="0" y="0" width="20" height="15">
<rect y="0.356934" width="20" height="14.2857" rx="2" fill="white"/>
</mask>
<g mask="url(#mask0)">
<path d="M9.06881 1.89887C9.21772 1.62752 9.46261 1.38883 9.64054 1.34156C9.81259 1.29589 9.91176 1.2972 10.1537 1.34843C10.2714 1.37336 10.4972 1.41734 10.6554 1.4462C11.2836 1.56075 11.6301 1.67987 11.798 1.83898C11.8559 1.89392 11.9154 2.01541 11.9726 2.19599C12.0204 2.34653 12.0612 2.47332 12.0633 2.47776C12.0654 2.48217 12.1278 2.42812 12.2019 2.35758C12.4605 2.11167 12.8813 1.95564 13.214 1.98236C13.5843 2.01208 13.9568 2.28784 14.2951 2.78283C14.4052 2.94385 14.5066 3.2449 14.5069 3.41129C14.507 3.45594 14.5426 3.59315 14.5861 3.7162C14.7199 4.09472 14.6845 4.36383 14.4623 4.65727C14.4164 4.71784 14.3789 4.77767 14.3789 4.79023C14.3789 4.85489 14.6604 5.15414 14.8992 5.34342C15.0956 5.49907 15.1942 5.60349 15.2584 5.72376C15.4819 6.14306 15.5669 6.25681 15.7552 6.38894C15.9835 6.5491 16.1208 6.74522 16.1698 6.98122L16.2061 7.15595L16.3073 7.13003C16.6624 7.03907 16.9748 7.18472 17.1869 7.5401C17.2251 7.60412 17.3227 7.71083 17.4037 7.77722C17.6583 7.98583 17.7312 8.25383 17.6046 8.5154C17.4817 8.76921 16.83 9.31274 16.5579 9.38833C16.2856 9.46395 16.0361 9.40348 15.7684 9.19691C15.6777 9.12698 15.59 9.06974 15.5734 9.06974C15.5569 9.06974 15.5191 9.11078 15.4894 9.16096C15.4373 9.2493 15.438 9.25441 15.5119 9.3239C15.6433 9.44733 15.7261 9.69228 15.7495 10.0265C15.7695 10.3128 15.7781 10.3415 15.8843 10.4792C16.0257 10.6623 16.0936 10.906 16.122 11.3319C16.1605 11.9114 16.0897 11.9687 15.4023 11.9143C14.7413 11.8621 14.5947 11.9055 14.4528 12.1954C14.3786 12.3472 14.3675 12.4167 14.349 12.8509C14.3256 13.3993 14.2882 13.5204 14.0971 13.666C14.0006 13.7396 13.9537 13.752 13.774 13.7513C13.6039 13.7506 13.5201 13.73 13.334 13.6434C13.1275 13.5475 13.0859 13.5388 12.9266 13.5587C12.6502 13.5932 12.4381 13.5333 12.1349 13.3352C11.9892 13.2399 11.8403 13.1617 11.804 13.1614C11.7678 13.1611 11.6096 13.2053 11.4525 13.2597C11.0645 13.3941 10.8819 13.3948 10.5861 13.2629C10.2953 13.1333 10.2061 13.134 10.0117 13.2677C9.76378 13.4383 9.66202 13.4804 9.49789 13.4804C9.30386 13.4804 9.14932 13.3998 9.02538 13.2339C8.9463 13.1281 8.90472 13.102 8.78825 13.0851C8.58891 13.0563 8.39567 12.9324 8.25872 12.7459C8.07491 12.4955 8.05525 12.4927 6.48444 12.4934C4.71372 12.4943 4.63238 12.506 4.45515 12.7858C4.40229 12.8692 4.31717 13.0039 4.26607 13.0851C4.07583 13.3869 3.75021 13.4971 3.18216 13.4517C2.89077 13.4285 2.8613 13.4198 2.77117 13.3296C2.63245 13.1909 2.62277 13.0319 2.72821 12.6251C2.77497 12.4447 2.80866 12.2657 2.80306 12.2272C2.79725 12.1871 2.71798 12.1001 2.6175 12.0235C2.33978 11.8116 2.27941 11.6099 2.37868 11.2259C2.44724 10.9607 2.61216 10.7261 2.84957 10.5559C3.14511 10.3441 3.24739 10.2318 3.3063 10.0545C3.36836 9.86762 3.37453 9.52522 3.32113 9.22954C3.28632 9.03682 3.22649 8.85195 2.82707 7.70297C2.64636 7.18312 2.62008 7.02526 2.69526 6.91052C2.7897 6.76637 2.91125 6.73873 3.24036 6.78648C3.68175 6.85053 4.11112 6.84378 4.38276 6.76852C4.50961 6.73336 4.66536 6.70459 4.72887 6.70459C4.83578 6.70459 4.84709 6.6952 4.88251 6.5771C4.90871 6.48959 4.95771 6.42445 5.0388 6.36935C5.10374 6.32521 5.17022 6.28909 5.18649 6.28909C5.20279 6.28909 5.3448 6.22981 5.50208 6.15738C5.74003 6.04775 5.81028 6.02867 5.92048 6.04373L6.05296 6.06182L6.05706 5.8798C6.05952 5.76959 6.09589 5.60327 6.1492 5.4581C6.19762 5.32626 6.25765 5.13209 6.28258 5.02662C6.43976 4.36128 6.55927 4.18964 7.02779 3.9562C7.10689 3.91679 7.19757 3.86169 7.2293 3.83379C7.28415 3.78552 7.28131 3.77827 7.17155 3.68571C6.96287 3.5097 6.9645 3.21527 7.17577 2.92749C7.238 2.84269 7.30192 2.77334 7.31781 2.77334C7.33369 2.77334 7.41909 2.67381 7.50756 2.55213C7.59606 2.43049 7.73433 2.28733 7.81484 2.23399C8.03214 2.09007 8.18236 2.07891 8.5364 2.18045L8.83326 2.26563L8.88644 2.19995C8.91568 2.16383 8.99773 2.02835 9.06881 1.89887Z" fill="#F92323"/>
</g>
</svg>
