<svg width="20" height="19" viewBox="0 0 20 19" fill="none" xmlns="http://www.w3.org/2000/svg">
<path d="M18.8281 0.476562H1.17188C0.525781 0.476562 0 1.00234 0 1.64844V13.2891C0 13.9352 0.525781 14.4609 1.17188 14.4609H18.8281C19.4742 14.4609 20 13.9352 20 13.2891V1.64844C20 1.00234 19.4742 0.476562 18.8281 0.476562Z" fill="#69A5FF"/>
<path d="M16.25 17.3516H13.0859V15.6328H6.91406V17.3516H3.75C3.42656 17.3516 3.16406 17.6141 3.16406 17.9375C3.16406 18.2609 3.42656 18.5234 3.75 18.5234H16.25C16.5734 18.5234 16.8359 18.2609 16.8359 17.9375C16.8359 17.6141 16.5734 17.3516 16.25 17.3516Z" fill="#69A5FF"/>
</svg>
