<svg width="20" height="21" viewBox="0 0 20 21" fill="none" xmlns="http://www.w3.org/2000/svg">
<path d="M18.3066 4.93575L18.0074 5.03061L16.4139 5.17257L15.9638 5.89131L15.6373 5.78755L14.3691 4.64418L14.1851 4.04958L13.9388 3.41551L13.1417 2.70058L12.2014 2.5166L12.1798 2.94696L13.101 3.84586L13.5517 4.3768L13.0449 4.64163L12.6324 4.52004L12.0143 4.26221L12.0353 3.76374L11.2242 3.43015L10.9549 4.60216L10.1375 4.78742L10.2184 5.44123L11.2834 5.64622L11.4674 4.60153L12.3466 4.7314L12.7553 4.97076H13.411L13.8598 5.86967L15.0497 7.0767L14.9624 7.54589L14.0031 7.42366L12.3453 8.26081L11.1516 9.69256L10.9963 10.3266H10.5679L9.76954 9.95867L8.99414 10.3266L9.18704 11.1447L9.52444 10.7557L10.1178 10.7373L10.0764 11.4719L10.5679 11.6158L11.0587 12.1671L11.8602 11.9417L12.7757 12.0862L13.8388 12.3721L14.3697 12.4345L15.2699 13.4562L17.0073 14.478L15.8836 16.6247L14.6976 17.176L14.2475 18.4028L12.5312 19.5487L12.3485 20.2095C16.7361 19.1527 20 15.2114 20 10.4992C19.9987 8.44097 19.3748 6.52539 18.3066 4.93575Z" fill="#69A5FF"/>
<path d="M11.1508 15.7259L10.4225 14.3756L11.0909 12.9827L10.4225 12.7828L9.67189 12.0291L8.00904 11.656L7.45709 10.5012V11.1868H7.2139L5.78088 9.24386V7.64786L4.73046 5.93982L3.06252 6.23712H1.93889L1.37357 5.86661L2.09486 5.29492L1.37548 5.46108C0.508405 6.94185 0.00292969 8.66009 0.00292969 10.5005C0.00292969 16.0219 4.47899 20.4999 10.001 20.4999C10.4263 20.4999 10.8433 20.4623 11.2558 20.4127L11.1514 19.2012C11.1514 19.2012 11.6104 17.4021 11.6104 17.341C11.6098 17.2793 11.1508 15.7259 11.1508 15.7259Z" fill="#69A5FF"/>
<path d="M3.71861 3.72447L5.49478 3.47683L6.31347 3.02801L7.23465 3.29348L8.70652 3.21199L9.21072 2.4194L9.94601 2.54036L11.7317 2.37293L12.2238 1.83053L12.9177 1.36707L13.8994 1.51477L14.2572 1.46066C12.9642 0.85205 11.5255 0.5 10.0008 0.5C6.89725 0.5 4.12223 1.91457 2.29004 4.13573H2.29513L3.71861 3.72447ZM10.4235 1.4944L11.4446 0.932264L12.1003 1.31105L11.1511 2.03361L10.2446 2.12465L9.83651 1.85982L10.4235 1.4944ZM7.3989 1.57652L7.84963 1.76432L8.43977 1.57652L8.76126 2.13356L7.3989 2.49134L6.74382 2.1081C6.74318 2.1081 7.38426 1.69557 7.3989 1.57652Z" fill="#69A5FF"/>
</svg>
