<svg width="20" height="21" viewBox="0 0 20 21" fill="none" xmlns="http://www.w3.org/2000/svg">
<path d="M7.65833 6.74445C11.0204 6.74445 13.7558 9.47984 13.7558 12.8419C13.7558 16.204 11.0204 18.9386 7.65833 18.9386C4.29625 18.9386 1.56163 16.2032 1.56163 12.8411C1.56163 9.47906 4.29625 6.74445 7.65833 6.74445ZM7.65833 5.18359C3.43076 5.18359 0 8.61435 0 12.8419C0 17.0695 3.43076 20.4995 7.65833 20.4995C11.8859 20.4995 15.3167 17.0687 15.3167 12.8411C15.3167 8.61357 11.8859 5.18359 7.65833 5.18359Z" fill="#69A5FF"/>
<path d="M14.6825 0.500977C11.8808 0.500977 9.58943 2.67212 9.38574 5.42157C10.86 5.77276 12.1664 6.54694 13.1739 7.61379C13.266 7.60676 13.3979 7.59428 13.5782 7.57711C13.7733 7.55682 13.7686 7.53574 13.842 7.51545C13.9364 7.48424 14.009 7.43429 14.0597 7.36639C14.1089 7.29771 14.1339 7.1947 14.1339 7.05812V4.50144H13.1326V4.11747H13.3846C13.7132 4.11747 14.009 4.05582 14.2689 3.93329C14.5311 3.81311 14.7161 3.682 14.83 3.54152H15.3646C15.3568 3.73975 15.3482 3.96997 15.3381 4.23532C15.3287 4.50222 15.3232 4.73869 15.3232 4.94941V7.00661C15.3232 7.11431 15.3474 7.20875 15.395 7.29225C15.4426 7.37576 15.5098 7.43819 15.5987 7.47799C15.6775 7.51077 15.8071 7.54121 15.9874 7.56774C16.1677 7.59662 16.1466 7.61223 16.2348 7.61457V8.11092H13.6094C14.2985 8.97875 14.8003 10.0003 15.0618 11.1156C17.8198 10.9205 20.0003 8.626 20.0003 5.81803C19.9995 2.88206 17.6177 0.500977 14.6825 0.500977Z" fill="#69A5FF"/>
<path d="M9.60604 12.2159C9.87139 12.393 10.0946 12.6303 10.2741 12.9299C10.4544 13.2296 10.5457 13.6011 10.5457 14.0444C10.5457 14.824 10.2444 15.4609 9.63882 15.9549C9.03555 16.4497 8.26371 16.6963 7.32485 16.6963C6.59828 16.6963 5.99188 16.541 5.50724 16.2288C5.02103 15.9174 4.77832 15.5483 4.77832 15.1237C4.77832 14.8701 4.85948 14.6594 5.02025 14.4861C5.18258 14.3113 5.39642 14.2239 5.66567 14.2239C5.94584 14.2239 6.17528 14.2996 6.35478 14.4502C6.5335 14.6016 6.62403 14.803 6.62403 15.0543C6.62403 15.2314 6.59437 15.4242 6.53272 15.6326C6.47263 15.8417 6.42346 16.0025 6.38522 16.111C6.46951 16.143 6.56862 16.1672 6.68256 16.1828C6.79572 16.1992 6.90186 16.207 7.00098 16.207C7.20311 16.207 7.40134 16.1609 7.59644 16.0712C7.79155 15.9814 7.95856 15.8487 8.09592 15.6747C8.2559 15.4765 8.37609 15.2408 8.45881 14.97C8.53998 14.6992 8.58134 14.3917 8.58134 14.0475C8.58134 13.548 8.44555 13.1383 8.17708 12.8191C7.91017 12.4968 7.56366 12.336 7.13833 12.336C6.80665 12.336 6.53116 12.4032 6.3064 12.5358C6.08476 12.6701 5.88419 12.8441 5.70547 13.0603L5.29496 12.9221L5.81083 9.0083H10.2117V10.4755H6.1948L5.9755 12.2299C6.16592 12.1105 6.41175 11.9942 6.71378 11.885C7.0158 11.7741 7.36934 11.7203 7.77594 11.7203C8.09045 11.7203 8.4034 11.7546 8.70855 11.8249C9.01526 11.8935 9.31494 12.0247 9.60604 12.2159Z" fill="#69A5FF"/>
</svg>
