<svg width="20" height="21" viewBox="0 0 20 21" fill="none" xmlns="http://www.w3.org/2000/svg">
<g clip-path="url(#clip0)">
<path d="M18.6957 4.39563H17.2398C17.4319 4.09172 17.5586 3.75059 17.5947 3.38981C17.7102 2.2368 17.1029 1.20321 16.0691 0.744963C15.1189 0.323752 14.0511 0.49594 13.2821 1.19336L11.4438 2.85938C11.0858 2.46781 10.5712 2.22172 10 2.22172C9.42781 2.22172 8.91234 2.4686 8.55426 2.86137L6.71363 1.19317C5.94344 0.495744 4.87602 0.324221 3.92621 0.745198C2.8927 1.20348 2.28535 2.23742 2.40113 3.39039C2.43734 3.7509 2.56398 4.09188 2.75598 4.39563H1.30434C0.583945 4.39563 0 4.97961 0 5.69996V7.65649C0 8.01664 0.291992 8.30867 0.652187 8.30867H19.3479C19.708 8.30867 20 8.01668 20 7.65649V5.69996C20 4.97961 19.4161 4.39563 18.6957 4.39563ZM8.04348 4.17824V4.39563H4.97539C4.16477 4.39563 3.5268 3.63992 3.72926 2.79594C3.81844 2.42426 4.08672 2.10742 4.43371 1.94703C4.9102 1.7268 5.43801 1.7975 5.8382 2.15973L8.04402 4.15903C8.04391 4.16547 8.04348 4.1718 8.04348 4.17824ZM16.3005 3.21664C16.252 3.89449 15.6396 4.39571 14.9601 4.39571H11.9565V4.17832C11.9565 4.17063 11.9561 4.16301 11.956 4.15531C12.4557 3.70235 13.5397 2.71985 14.1276 2.18692C14.4618 1.88406 14.9293 1.7427 15.3615 1.8716C15.9817 2.0566 16.3459 2.58403 16.3005 3.21664Z" fill="#69A5FF"/>
<path d="M1.30469 9.61279V19.178C1.30469 19.8984 1.88863 20.4824 2.60902 20.4824H8.69598V9.61279H1.30469Z" fill="#69A5FF"/>
<path d="M11.3047 9.61279V20.4824H17.3916C18.112 20.4824 18.696 19.8984 18.696 19.178V9.61279H11.3047Z" fill="#69A5FF"/>
</g>
<defs>
<clipPath id="clip0">
<rect width="20" height="20" fill="white" transform="translate(0 0.5)"/>
</clipPath>
</defs>
</svg>
