<svg width="20" height="19" viewBox="0 0 20 19" fill="none" xmlns="http://www.w3.org/2000/svg">
<path d="M19.6643 8.60463L16.6332 5.57354V2.07211C16.6332 1.439 16.1202 0.92592 15.4861 0.92592C14.8536 0.92592 14.3405 1.439 14.3405 2.07211V3.28087L12.0836 1.0239C10.9678 -0.091323 9.02773 -0.0893449 7.91444 1.02592L0.335549 8.60463C-0.11185 9.05292 -0.11185 9.77828 0.335549 10.2259C0.78315 10.674 1.50992 10.674 1.95736 10.2259L9.53552 2.64696C9.7824 2.40138 10.2175 2.40138 10.4631 2.64623L18.0426 10.2259C18.2673 10.45 18.5603 10.5614 18.8533 10.5614C19.1468 10.5614 19.4403 10.4499 19.6644 10.2259C20.1119 9.77832 20.1119 9.05296 19.6643 8.60463Z" fill="#69A5FF"/>
<path d="M10.3971 4.82276C10.1769 4.6027 9.82039 4.6027 9.60085 4.82276L2.93445 11.4872C2.8292 11.5924 2.76953 11.736 2.76953 11.8859V16.7467C2.76953 17.8873 3.69436 18.8121 4.83494 18.8121H8.13548V13.7007H11.8617V18.8121H15.1623C16.3029 18.8121 17.2277 17.8873 17.2277 16.7468V11.8859C17.2277 11.736 17.1685 11.5924 17.0628 11.4872L10.3971 4.82276Z" fill="#69A5FF"/>
</svg>
