<svg width="20" height="21" viewBox="0 0 20 21" fill="none" xmlns="http://www.w3.org/2000/svg">
<path d="M9.86666 0.5L0 10.3667V13.5111L13.0111 0.5H9.86666Z" fill="#69A5FF"/>
<path d="M2.22224 0.5C1 0.5 0 1.5 0 2.72224V4.95L4.45 0.5H2.22224Z" fill="#69A5FF"/>
<path d="M6.98926 20.4999H10.1337L20.0004 10.6332V7.48877L6.98926 20.4999Z" fill="#69A5FF"/>
<path d="M18.3451 0.583008L0.0839844 18.8441C0.183984 19.2274 0.378411 19.5719 0.650651 19.8441L0.656224 19.8497C0.928464 20.1219 1.27289 20.3163 1.65622 20.4163L19.9173 2.15525C19.7117 1.38858 19.1117 0.788581 18.3451 0.583008Z" fill="#69A5FF"/>
<path d="M17.7785 20.4998C18.3896 20.4998 18.9452 20.2498 19.3452 19.8498C19.7508 19.4442 20.0008 18.8887 20.0008 18.2776V16.0498L15.5508 20.4998H17.7785Z" fill="#69A5FF"/>
</svg>
