<svg width="20" height="21" viewBox="0 0 20 21" fill="none" xmlns="http://www.w3.org/2000/svg">
<path d="M19.0358 6.21063L17.9774 6.71387C18.5419 7.9009 18.8281 9.17477 18.8281 10.5C18.8281 15.3679 14.8679 19.3281 10 19.3281C5.13215 19.3281 1.17188 15.3679 1.17188 10.5C1.17188 5.63215 5.13215 1.67188 10 1.67188C11.9646 1.67188 13.8309 2.3098 15.3634 3.4868L14.4421 3.65738L14.6554 4.80969L17.2314 4.33273L17.2929 1.71391L16.1213 1.68645L16.1005 2.575C14.3599 1.22941 12.2361 0.5 10 0.5C7.32891 0.5 4.8177 1.5402 2.92891 3.42891C1.0402 5.3177 0 7.82891 0 10.5C0 13.1711 1.0402 15.6823 2.92891 17.5711C4.8177 19.4598 7.32891 20.5 10 20.5C12.6711 20.5 15.1823 19.4598 17.0711 17.5711C18.9598 15.6823 20 13.1711 20 10.5C20 8.9993 19.6756 7.55613 19.0358 6.21063Z" fill="#69A5FF"/>
<path d="M16.9822 9.91399C16.6996 6.51672 13.9831 3.8002 10.5858 3.51758V5.74941H9.41395V3.51758C6.01668 3.8002 3.3002 6.51672 3.01758 9.91399H5.24941V11.0859H3.01758C3.3002 14.4831 6.01668 17.1996 9.41395 17.4823V15.2504H10.5858V17.4823C13.9831 17.1996 16.6996 14.4831 16.9822 11.0859H14.7504V9.91399H16.9822ZM13.3739 11.0859H9.41395V7.1259H10.5858V9.91399H13.3739V11.0859Z" fill="#69A5FF"/>
</svg>
