<svg width="21" height="23" viewBox="0 0 21 23" fill="none" xmlns="http://www.w3.org/2000/svg">
<g clip-path="url(#clip0)">
<path d="M10.4993 0C6.80018 0 3.79102 3.00917 3.79102 6.70833C3.79102 10.4075 6.80018 13.4167 10.4993 13.4167C14.1985 13.4167 17.2077 10.4075 17.2077 6.70833C17.2077 3.00917 14.1985 0 10.4993 0ZM14.1286 6.47546L12.8243 7.81233L13.1338 9.70792C13.1779 9.97913 13.0638 10.2523 12.8377 10.4113C12.715 10.4976 12.5693 10.5417 12.4246 10.5417C12.3048 10.5417 12.1851 10.512 12.0768 10.4516L10.4993 9.58046L8.92193 10.4525C8.68139 10.5858 8.38431 10.5704 8.16006 10.4113C7.93485 10.2523 7.82081 9.97913 7.86393 9.70792L8.17347 7.81233L6.87014 6.47546C6.68231 6.28283 6.61714 6.00013 6.70339 5.74521C6.78868 5.48933 7.0091 5.30438 7.27647 5.26317L9.05035 4.99196L9.8496 3.289C10.0853 2.78396 10.9143 2.78396 11.1501 3.289L11.9493 4.99196L13.7232 5.26317C13.9896 5.30342 14.211 5.48933 14.2963 5.74521C14.3816 6.00013 14.3164 6.28283 14.1286 6.47546Z" fill="#69A5FF"/>
<path d="M4.71153 12.439L1.00278 19.0994C0.878196 19.3294 0.887779 19.6169 1.03153 19.8373C1.17528 20.0577 1.42445 20.1919 1.69278 20.1631L4.64445 19.9427L5.94778 22.5973C6.07236 22.8368 6.31195 22.9902 6.5707 22.9998H6.58986C6.84861 22.9998 7.09778 22.856 7.22236 22.6356L9.63736 18.3423L7.28944 14.1927C6.32153 13.7806 5.44945 13.1769 4.71153 12.439Z" fill="#69A5FF"/>
<path d="M19.9874 19.0996L16.2499 12.4775C15.0328 13.6946 13.4324 14.5188 11.6499 14.768C11.2762 14.8255 10.8928 14.8542 10.4999 14.8542C10.0783 14.8542 9.66617 14.8255 9.26367 14.7584L10.4616 16.8763L13.7103 22.6359C13.8349 22.8563 14.0745 23 14.3332 23H14.3524C14.6207 22.9905 14.8603 22.8371 14.9849 22.5975L16.2978 19.943L19.307 20.173C19.5753 20.1921 19.8245 20.0675 19.9682 19.8375C20.112 19.6171 20.1216 19.3296 19.9874 19.0996Z" fill="#69A5FF"/>
</g>
<defs>
<clipPath id="clip0">
<rect width="21" height="23" fill="white"/>
</clipPath>
</defs>
</svg>
