<svg width="19" height="25" viewBox="0 0 19 25" fill="none" xmlns="http://www.w3.org/2000/svg">
<path d="M10.9648 4.39453H10.2324V3.61636C10.2324 2.42974 11.1973 1.46484 12.3839 1.46484H13.1621V0H12.3839C10.3898 0 8.76758 1.62222 8.76758 3.61636V4.39453H8.03516V10.3027H10.9648V4.39453Z" fill="#69A5FF"/>
<path d="M9.5 24.9999C11.0487 24.9999 12.7002 24.5635 14.5883 23.0945C15.5814 17.1347 16.0918 14.0894 16.0918 8.05654V7.6646L12.4297 5.22314V11.7675H6.57031V5.22314L2.9082 7.6646V8.05654C2.9082 14.1035 3.42105 17.1492 4.43169 23.2139C6.65444 24.8483 8.69785 24.9999 9.5 24.9999Z" fill="#69A5FF"/>
<path d="M18.2896 16.4793L17.1611 15.8022C16.9717 17.4803 16.7166 19.196 16.4004 21.1242L18.2896 20.3684V16.4793Z" fill="#69A5FF"/>
<path d="M1.83721 15.8037L0.710938 16.4794V20.3685L2.6001 21.1243C2.27832 19.1644 2.02471 17.4553 1.83721 15.8037Z" fill="#69A5FF"/>
</svg>
