<svg width="20" height="21" viewBox="0 0 20 21" fill="none" xmlns="http://www.w3.org/2000/svg">
<path d="M19.8714 11.3905L18.4017 9.05837C18.2852 8.87347 18.246 8.65021 18.2921 8.43674L18.8756 5.74257C18.9666 5.32271 18.7237 4.90245 18.3147 4.77121L15.6897 3.92941C15.4817 3.86265 15.3081 3.717 15.2063 3.52376L13.9215 1.08498C13.7213 0.704789 13.2652 0.538875 12.8674 0.701227L10.3154 1.74377C10.1131 1.82619 9.88654 1.82619 9.68432 1.74377L7.13266 0.701423C6.73492 0.539071 6.27878 0.704985 6.07845 1.08518L4.79366 3.52373C4.69183 3.71696 4.5182 3.86262 4.31016 3.92938L1.68527 4.77117C1.27606 4.90241 1.03338 5.32271 1.12436 5.74254L1.70759 8.43671C1.75393 8.65017 1.71449 8.87347 1.59805 9.05834L0.128549 11.3905C-0.100568 11.754 -0.0160585 12.2319 0.32345 12.4953L2.502 14.184C2.67478 14.318 2.78808 14.5142 2.81772 14.7308L3.19105 17.4619C3.24906 17.8876 3.62111 18.1996 4.05016 18.1829L6.80466 18.0762C7.02293 18.0677 7.23577 18.1453 7.39792 18.292L9.43916 20.1442C9.75739 20.4328 10.243 20.4328 10.561 20.1442L12.6024 18.292C12.7642 18.1451 12.9772 18.0677 13.1957 18.0762L15.95 18.1829C16.3794 18.1996 16.7511 17.8874 16.8093 17.4619L17.1826 14.7308C17.2123 14.5142 17.3256 14.318 17.4981 14.184L19.6767 12.4953C20.0162 12.2319 20.1005 11.754 19.8714 11.3905ZM7.68733 13.8305L5.25483 12.1315L6.2546 14.4486L5.58829 14.7362L4.05497 11.1833L4.75277 10.882L7.23119 12.6271L6.20702 10.2545L6.87332 9.9667L8.40707 13.5198L7.68733 13.8305ZM9.16556 13.1924L7.63224 9.63952L10.2667 8.50223L10.5259 9.10341L8.60864 9.93079L8.94857 10.7183L10.7325 9.94834L10.9908 10.547L9.2069 11.3168L9.62425 12.2838L11.6091 11.4272L11.8675 12.0259L9.16556 13.1924ZM15.1714 10.6005L13.3173 8.24936L13.7583 11.21L12.9803 11.5458L10.5989 8.35913L11.333 8.04194L12.9221 10.2514L12.5183 7.5307L13.3718 7.1624L15.0656 9.3754L14.5397 6.65826L15.2619 6.34649L15.9324 10.2721L15.1714 10.6005Z" fill="#69A5FF"/>
</svg>
