<svg width="20" height="17" viewBox="0 0 20 17" fill="none" xmlns="http://www.w3.org/2000/svg">
<path d="M10.4072 12.2089C9.77665 11.8449 8.97037 12.0609 8.6063 12.6915L8.99693 12.0149C9.36099 11.3844 9.14494 10.5781 8.51439 10.214C7.88384 9.84994 7.07755 10.066 6.71349 10.6965L7.10412 10.0199C7.46818 9.38939 7.25212 8.5831 6.62158 8.21904C5.99103 7.85498 5.18474 8.07103 4.82068 8.70158L4.43005 9.37814C4.79408 8.74759 4.57806 7.9413 3.94748 7.57724C3.31693 7.21318 2.51064 7.42923 2.14658 8.05978L0.730561 10.5124C0.366499 11.143 0.582554 11.9493 1.2131 12.3133C1.84365 12.6774 2.64998 12.4613 3.014 11.8307C2.64994 12.4613 2.86599 13.2676 3.49654 13.6316C4.12708 13.9957 4.93341 13.7796 5.29744 13.149C4.93337 13.7796 5.14943 14.5859 5.78001 14.9499C6.41056 15.314 7.21685 15.098 7.58091 14.4674C7.21685 15.0979 7.43291 15.9042 8.06345 16.2683C8.694 16.6323 9.50033 16.4163 9.86435 15.7857L10.8897 14.0097C11.2538 13.3793 11.0378 12.573 10.4072 12.2089Z" fill="#69A5FF"/>
<path d="M12.7022 6.72713C11.6128 6.74291 10.6152 6.24955 9.97804 5.39463L8.57995 6.20182C8.1737 6.43639 7.72276 6.5562 7.26589 6.5562C7.03683 6.5562 6.80632 6.52608 6.57917 6.46526C5.89886 6.28295 5.33023 5.84666 4.97812 5.2367C4.62597 4.62682 4.53245 3.91623 4.71476 3.23592C4.86523 2.67428 5.18921 2.18916 5.64073 1.83873L4.20409 1.00928C3.91761 0.843889 3.55112 0.948264 3.3948 1.23975L0.0696787 7.43905C-0.0798916 7.71791 0.0189755 8.06522 0.293077 8.22342L0.597608 8.39924L1.13218 7.4733C1.57562 6.70514 2.40249 6.22795 3.28999 6.22795C3.72546 6.22795 4.15562 6.34338 4.5339 6.56182C4.75151 6.68745 4.94562 6.84229 5.1123 7.02092C5.38171 6.92256 5.66948 6.86971 5.96409 6.86971C6.39956 6.86971 6.82968 6.98514 7.208 7.20358C7.78401 7.53612 8.19608 8.07315 8.36823 8.71565C8.38718 8.78631 8.40237 8.85733 8.41503 8.9285C8.65464 8.98385 8.88608 9.07455 9.10081 9.19854C9.67687 9.53108 10.0889 10.0681 10.2611 10.7106C10.28 10.7813 10.2952 10.8523 10.3079 10.9235C10.5475 10.9788 10.7789 11.0695 10.9936 11.1935C12.1828 11.8801 12.5917 13.406 11.9052 14.5952L11.1752 15.8595L12.7399 16.7628C13.3704 17.1269 14.1767 16.9108 14.5408 16.2803C14.9048 15.6497 14.6888 14.8434 14.0582 14.4794L15.0731 15.0653C15.7037 15.4294 16.51 15.2133 16.874 14.5828C17.2381 13.9522 17.022 13.1459 16.3915 12.7818L17.0681 13.1724C17.6986 13.5365 18.505 13.3205 18.869 12.6899C19.233 12.0594 19.017 11.253 18.3864 10.889L17.7098 10.4984C18.3404 10.8624 19.1467 10.6464 19.5107 10.0158C19.8748 9.38526 19.6587 8.57897 19.0282 8.21491L14.9372 5.85295C14.3352 6.39963 13.5501 6.71487 12.7022 6.72713Z" fill="#69A5FF"/>
<path d="M15.5666 0.138668L13.4363 1.36863L11.5174 0.662809C11.4468 0.636832 11.3752 0.615035 11.3032 0.596715C10.7629 0.459371 10.1902 0.536442 9.70153 0.81859L6.52954 2.64996C5.82891 3.05445 5.58887 3.95035 5.99337 4.65097C6.39786 5.3516 7.29376 5.59164 7.99438 5.18715L9.87977 4.09859C10.1598 3.93691 10.5179 4.03261 10.6798 4.31246C11.0787 5.09636 11.805 5.56476 12.6856 5.55558C13.3464 5.5439 13.9581 5.25851 14.3623 4.758C14.5397 4.52273 14.866 4.45863 15.1211 4.60593L19.6145 7.20019C19.6376 7.21351 19.6598 7.22769 19.6823 7.24164L19.7868 7.15562C20.0091 6.97258 20.0655 6.65508 19.9197 6.40668L16.365 0.349528C16.202 0.0718322 15.8455 -0.0223474 15.5666 0.138668Z" fill="#69A5FF"/>
</svg>
