<svg width="18" height="18" viewBox="0 0 18 18" fill="none" xmlns="http://www.w3.org/2000/svg">
<path d="M8.16673 0.755887C8.56229 0.159709 9.43771 0.15971 9.83327 0.755888L12.2619 4.41631C12.3948 4.61658 12.5954 4.76229 12.8269 4.82678L17.0587 6.00543C17.7479 6.1974 18.0184 7.02998 17.5736 7.59041L14.8429 11.0313C14.6935 11.2196 14.6169 11.4554 14.6271 11.6955L14.8138 16.0844C14.8442 16.7992 14.136 17.3137 13.4655 17.0639L9.34916 15.5301C9.12395 15.4462 8.87605 15.4462 8.65084 15.5301L4.53447 17.0639C3.86403 17.3137 3.1558 16.7992 3.18621 16.0844L3.37293 11.6955C3.38314 11.4554 3.30654 11.2196 3.15713 11.0313L0.42636 7.59041C-0.0184045 7.02998 0.252117 6.1974 0.94135 6.00543L5.17312 4.82678C5.40464 4.76229 5.6052 4.61658 5.73807 4.41631L8.16673 0.755887Z" fill="#69A5FF"/>
</svg>
