<svg width="22" height="22" viewBox="0 0 22 22" fill="none" xmlns="http://www.w3.org/2000/svg">
<g clip-path="url(#clip0)">
<path d="M19.0623 0.813477H3.31226C1.86457 0.813477 0.687256 1.99079 0.687256 3.43848V19.1885C0.687256 20.6362 1.86457 21.8135 3.31226 21.8135H19.0623C20.5099 21.8135 21.6873 20.6362 21.6873 19.1885V3.43848C21.6873 1.99079 20.5099 0.813477 19.0623 0.813477Z" fill="white"/>
<path d="M18.406 11.3135H15.1248V8.68848C15.1248 7.96398 15.7128 8.03223 16.4373 8.03223H17.7498V4.75098H15.1248C12.9499 4.75098 11.1873 6.51366 11.1873 8.68848V11.3135H8.56226V14.5947H11.1873V21.8135H15.1248V14.5947H17.0935L18.406 11.3135Z" fill="#242C4F"/>
</g>
<defs>
<clipPath id="clip0">
<rect x="0.687256" y="0.813477" width="21" height="21" rx="6" fill="white"/>
</clipPath>
</defs>
</svg>
