<svg width="22" height="22" viewBox="0 0 22 22" fill="none" xmlns="http://www.w3.org/2000/svg">
<path d="M15.4033 0.113281H5.99381C2.79841 0.113281 0.19873 2.71308 0.19873 5.90849V15.3179C0.19873 18.5135 2.79841 21.1132 5.99381 21.1132H15.4033C18.5989 21.1132 21.1986 18.5134 21.1986 15.3179V5.90849C21.1987 2.71308 18.5989 0.113281 15.4033 0.113281ZM19.3355 15.3179C19.3355 17.4861 17.5716 19.2499 15.4034 19.2499H5.99381C3.82578 19.2501 2.06194 17.4861 2.06194 15.3179V5.90849C2.06194 3.74046 3.82578 1.97649 5.99381 1.97649H15.4033C17.5714 1.97649 19.3354 3.74046 19.3354 5.90849V15.3179H19.3355Z" fill="white"/>
<path d="M10.6986 5.20215C7.71487 5.20215 5.28748 7.62954 5.28748 10.6133C5.28748 13.5969 7.71487 16.0242 10.6986 16.0242C13.6824 16.0242 16.1097 13.5969 16.1097 10.6133C16.1097 7.62954 13.6824 5.20215 10.6986 5.20215ZM10.6986 14.1608C8.74237 14.1608 7.15069 12.5694 7.15069 10.6132C7.15069 8.65679 8.74224 7.06523 10.6986 7.06523C12.655 7.06523 14.2465 8.65679 14.2465 10.6132C14.2465 12.5694 12.6549 14.1608 10.6986 14.1608Z" fill="white"/>
<path d="M16.3368 3.62256C15.9778 3.62256 15.6252 3.76789 15.3717 4.02253C15.1169 4.27592 14.9705 4.62869 14.9705 4.98891C14.9705 5.34802 15.117 5.70066 15.3717 5.9553C15.6251 6.20869 15.9778 6.35527 16.3368 6.35527C16.697 6.35527 17.0486 6.20869 17.3032 5.9553C17.5578 5.70066 17.7032 5.34789 17.7032 4.98891C17.7032 4.62869 17.5578 4.27592 17.3032 4.02253C17.0498 3.76789 16.697 3.62256 16.3368 3.62256Z" fill="white"/>
</svg>
