<svg width="22" height="19" viewBox="0 0 22 19" fill="none" xmlns="http://www.w3.org/2000/svg">
<path d="M0.982738 8.9385L5.82156 10.7445L7.69448 16.7678C7.81432 17.1536 8.28605 17.2961 8.59916 17.0402L11.2964 14.8413C11.5791 14.6109 11.9818 14.5995 12.2773 14.8139L17.1422 18.3459C17.4771 18.5894 17.9516 18.4059 18.0356 18.0011L21.5994 0.858749C21.6911 0.416629 21.2567 0.0477992 20.8357 0.210619L0.977068 7.87149C0.486998 8.06049 0.491268 8.75433 0.982738 8.9385ZM7.39264 9.78312L16.8495 3.95863C17.0195 3.85426 17.1943 4.08407 17.0484 4.21945L9.24372 11.4742C8.96939 11.7296 8.79243 12.0713 8.74231 12.4423L8.47645 14.4125C8.44124 14.6756 8.07171 14.7017 7.99912 14.4471L6.97663 10.8543C6.85952 10.4445 7.03018 10.0068 7.39264 9.78312Z" fill="white"/>
</svg>
