<svg width="22" height="22" viewBox="0 0 22 22" fill="none" xmlns="http://www.w3.org/2000/svg">
<g clip-path="url(#clip0)">
<path d="M21.6594 4.80216C20.8785 5.14473 20.0464 5.37179 19.1788 5.48204C20.0713 4.94916 20.7525 4.11179 21.0727 3.10248C20.2406 3.5986 19.3219 3.94904 18.3427 4.1446C17.5526 3.30329 16.4265 2.78223 15.198 2.78223C12.8145 2.78223 10.8956 4.71685 10.8956 7.08854C10.8956 7.42979 10.9245 7.75791 10.9954 8.07029C7.41617 7.89573 4.24911 6.18029 2.12155 3.5671C1.75011 4.21154 1.53224 4.94916 1.53224 5.74323C1.53224 7.23423 2.30005 8.55591 3.44455 9.3211C2.75286 9.30798 2.0743 9.10716 1.49942 8.79085C1.49942 8.80398 1.49942 8.82104 1.49942 8.8381C1.49942 10.9302 2.99174 12.668 4.94867 13.0683C4.59824 13.1641 4.2163 13.21 3.81992 13.21C3.5443 13.21 3.26605 13.1943 3.00486 13.1365C3.56267 14.8415 5.14555 16.0949 7.02767 16.1356C5.56292 17.2814 3.70311 17.9718 1.68974 17.9718C1.33667 17.9718 0.998049 17.956 0.659424 17.9127C2.56649 19.1425 4.82661 19.8447 7.26392 19.8447C15.1862 19.8447 19.5174 13.2822 19.5174 7.59385C19.5174 7.40354 19.5109 7.21979 19.5017 7.03735C20.3561 6.43098 21.074 5.67366 21.6594 4.80216Z" fill="white"/>
</g>
<defs>
<clipPath id="clip0">
<rect x="0.659424" y="0.813477" width="21" height="21" rx="6" fill="white"/>
</clipPath>
</defs>
</svg>
