<svg width="22" height="13" viewBox="0 0 22 13" fill="none" xmlns="http://www.w3.org/2000/svg">
<path d="M10.8119 12.2539H12.0668C12.0668 12.2539 12.4461 12.2119 12.639 12.0032C12.8176 11.8115 12.811 11.4519 12.811 11.4519C12.811 11.4519 12.7861 9.76783 13.5684 9.51975C14.3389 9.2756 15.3286 11.1474 16.3773 11.868C17.1701 12.4127 17.7726 12.2933 17.7726 12.2933L20.5776 12.2539C20.5776 12.2539 22.0451 12.1633 21.3494 11.0095C21.293 10.915 20.9438 10.1564 19.2637 8.59699C17.5048 6.96412 17.7411 7.22926 19.8596 4.40587C21.1499 2.68636 21.6658 1.63629 21.5043 1.18738C21.3507 0.759472 20.4017 0.872355 20.4017 0.872355L17.2463 0.890731C17.2463 0.890731 17.0126 0.859229 16.838 0.962924C16.6687 1.06531 16.5598 1.30157 16.5598 1.30157C16.5598 1.30157 16.0597 2.63255 15.3929 3.76401C13.9871 6.15162 13.424 6.27763 13.1943 6.12931C12.6601 5.78409 12.7939 4.74058 12.7939 4.00027C12.7939 1.68617 13.1444 0.721406 12.1101 0.472013C11.7662 0.389319 11.5142 0.33419 10.636 0.325002C9.50982 0.313189 8.55556 0.32894 8.01609 0.592772C7.65643 0.76866 7.37948 1.16113 7.5488 1.18344C7.7575 1.21101 8.23004 1.31076 8.48074 1.65204C8.80496 2.09176 8.79314 3.08146 8.79314 3.08146C8.79314 3.08146 8.97953 5.8051 8.35867 6.14375C7.93208 6.37608 7.34797 5.90223 6.09444 3.73513C5.45259 2.62599 4.96693 1.39871 4.96693 1.39871C4.96693 1.39871 4.87373 1.17031 4.70703 1.04824C4.50489 0.89992 4.22137 0.852666 4.22137 0.852666L1.22078 0.871043C1.22078 0.871043 0.770556 0.884169 0.605169 1.07975C0.458158 1.25432 0.593356 1.61397 0.593356 1.61397C0.593356 1.61397 2.9429 7.10982 5.60222 9.88071C8.04234 12.4206 10.8119 12.2539 10.8119 12.2539Z" fill="white"/>
</svg>
