<svg width="22" height="15" viewBox="0 0 22 15" fill="none" xmlns="http://www.w3.org/2000/svg">
<path d="M20.7652 1.48598C20.1956 0.472726 19.5774 0.286352 18.3187 0.215477C17.0613 0.130164 13.8995 0.0947266 11.1603 0.0947266C8.4159 0.0947266 5.25278 0.130164 3.99671 0.214164C2.74065 0.286352 2.12115 0.471414 1.54628 1.48598C0.95959 2.49791 0.657715 4.24091 0.657715 7.30954C0.657715 7.31216 0.657715 7.31348 0.657715 7.31348C0.657715 7.3161 0.657715 7.31741 0.657715 7.31741V7.32004C0.657715 10.3755 0.95959 12.1317 1.54628 13.1331C2.12115 14.1464 2.73934 14.3301 3.9954 14.4154C5.25278 14.4889 8.4159 14.5322 11.1603 14.5322C13.8995 14.5322 17.0613 14.4889 18.32 14.4167C19.5787 14.3314 20.1969 14.1477 20.7665 13.1344C21.3585 12.133 21.6577 10.3769 21.6577 7.32135C21.6577 7.32135 21.6577 7.31741 21.6577 7.31479C21.6577 7.31479 21.6577 7.31216 21.6577 7.31085C21.6577 4.24091 21.3585 2.49791 20.7652 1.48598Z" fill="white"/>
<path d="M8.53271 11.251V3.37598L15.0952 7.31348L8.53271 11.251Z" fill="#242C4F"/>
</svg>
