<svg width="107" height="16" viewBox="0 0 107 16" fill="none" xmlns="http://www.w3.org/2000/svg">
<path fill-rule="evenodd" clip-rule="evenodd" d="M29.2479 7.73123C28.6897 14.085 36.6063 10.8476 37.0901 10.7453C37.2761 12.0291 37.4529 13.3129 37.6389 14.5966C37.4063 14.6711 24.6709 19.9643 24.3267 7.86147C24.3267 7.71262 24.2988 7.57308 24.3174 7.43354C26.0477 -2.56687 37.5366 0.409995 37.7692 0.428601C37.5831 1.8054 37.4063 3.1822 37.2203 4.559C36.7552 4.41016 29.7688 1.70307 29.2479 7.73123ZM46.9788 4.41946L44.9136 15.5641C43.4066 15.5641 40.3832 15.5641 40.3832 15.5641L42.5787 4.41946C42.5787 4.41946 40.1041 4.41946 38.8669 4.41946C39.0994 2.99615 39.3227 1.57283 39.5553 0.158823C43.3973 0.158823 47.2486 0.158823 51.0906 0.158823C50.8581 1.58214 50.6348 3.00545 50.4022 4.41946C49.2766 4.41946 48.1231 4.41946 46.9788 4.41946ZM54.5326 13.3315L56.0397 10.4662L57.8165 11.4244L57.2676 5.41485C57.2676 5.41485 52.393 14.7362 51.9279 15.0153C50.9232 15.685 48.8115 15.592 47.1184 15.5641L55.6211 0.158823H60.4399C61.1748 5.29392 61.9097 10.429 62.6353 15.5641C61.3515 15.5641 58.8956 15.5641 58.8956 15.5641L54.5326 13.3315ZM73.259 3.62873C72.0217 3.62873 70.8868 3.59152 69.6495 3.59152C69.51 4.46598 69.2402 6.06604 69.2402 6.06604C69.2402 6.06604 69.8356 6.06604 70.7473 6.06604C72.1334 6.06604 73.6776 6.40094 74.0776 5.13577C74.4125 4.04736 73.3706 3.65664 73.259 3.62873ZM68.1425 11.843H71.3985C71.3985 11.843 72.9427 11.8337 73.259 10.5965C73.6404 9.10803 72.3008 9.09873 72.3008 9.09873H68.4681L68.1425 11.843ZM77.9011 11.4151C76.7103 15.6664 72.8404 15.5083 72.8404 15.5083C72.8404 15.5083 65.4075 15.5641 63.6028 15.5548C64.5145 10.4662 65.4354 5.37764 66.3471 0.279757L73.2497 0.0750959C73.2497 0.0750959 77.2406 0.289059 78.0313 3.62873C78.6081 6.08465 76.394 7.59169 76.394 7.59169C76.394 7.59169 78.5522 9.08012 77.9011 11.4151ZM101.958 15.5176L98.4042 13.1919L99.7717 10.3267L101.549 11.2849L101 5.41485C101 5.41485 100.73 5.33113 100.73 5.41485C100.721 5.49858 95.6692 15.5176 95.6692 15.5176L87.2317 15.5641L84.4874 9.50805H84.3478C84.3478 9.50805 83.6129 13.5454 83.2501 15.5641C81.7431 15.5641 80.2267 15.5641 78.7197 15.5641C78.7197 15.5176 81.7431 0.158823 81.7431 0.158823H86.1433L85.1851 5.2474H85.3246C85.3246 5.2474 88.6178 1.85192 90.2737 0.158823C92.0598 0.158823 93.8459 0.158823 95.632 0.158823L88.3108 7.73123L91.6319 14.3269L99.2229 0.354177H104.004L106.33 15.5083H101.958V15.5176Z" fill="#4878FE"/>
<path fill-rule="evenodd" clip-rule="evenodd" d="M13.0517 5.92703C12.9494 5.97355 9.33992 0.150048 9.33992 0.150048C10.7632 -0.036006 13.768 -0.0825195 14.6983 0.289589C14.6983 0.336103 16.5402 1.10823 16.8937 1.93617C16.9402 2.02919 16.9868 2.06641 16.81 2.26176C15.5727 3.55484 14.289 4.64326 13.0517 5.92703ZM25.1452 15.3786C25.1452 15.3786 21.6474 15.8809 19.2659 14.8297C18.0659 14.2995 16.1216 11.0063 16.1216 11.0063L11.8051 15.5646C8.32593 15.5646 1.3675 15.5646 1.3675 15.5646L3.00478 6.23402C3.00478 6.23402 1.05121 7.12708 0 7.59222C0 6.26193 0 4.93164 0 3.60136C0.139541 3.55484 5.17231 0.252379 5.21882 0.159352C6.40957 0.159352 8.79106 0.159352 8.79106 0.159352C8.79106 0.159352 6.40957 13.3413 6.31654 14.1971C6.36305 14.1971 6.40957 14.1971 6.45608 14.1971C11.0795 9.51788 15.703 4.83862 20.3264 0.159352C22.3823 0.159352 26.7825 0.159352 26.7825 0.159352L19.6752 7.1922L25.1452 15.3786Z" fill="white"/>
</svg>
