<svg width="14" height="14" viewBox="0 0 14 14" fill="none" xmlns="http://www.w3.org/2000/svg">
<path d="M12.7695 1.66797H4.51172C3.83305 1.66797 3.28125 2.22004 3.28125 2.89844C3.28125 3.57711 3.83305 4.12891 4.51172 4.12891H12.7695C13.4479 4.12891 14 3.57711 14 2.89844C14 2.22004 13.4479 1.66797 12.7695 1.66797Z" fill="#69A5FF"/>
<path d="M12.7695 5.76953H4.51172C3.83305 5.76953 3.28125 6.3216 3.28125 7C3.28125 7.67867 3.83305 8.23047 4.51172 8.23047H12.7695C13.4479 8.23047 14 7.67867 14 7C14 6.3216 13.4479 5.76953 12.7695 5.76953Z" fill="#69A5FF"/>
<path d="M12.7695 9.87109H4.51172C3.83305 9.87109 3.28125 10.4232 3.28125 11.1016C3.28125 11.7802 3.83305 12.332 4.51172 12.332H12.7695C13.4479 12.332 14 11.7802 14 11.1016C14 10.4232 13.4479 9.87109 12.7695 9.87109Z" fill="#69A5FF"/>
<path d="M1.23047 1.66797C0.551797 1.66797 0 2.22004 0 2.89844C0 3.57711 0.551797 4.12891 1.23047 4.12891C1.90887 4.12891 2.46094 3.57711 2.46094 2.89844C2.46094 2.22004 1.90887 1.66797 1.23047 1.66797Z" fill="#69A5FF"/>
<path d="M1.23047 5.76953C0.551797 5.76953 0 6.3216 0 7C0 7.67867 0.551797 8.23047 1.23047 8.23047C1.90887 8.23047 2.46094 7.67867 2.46094 7C2.46094 6.3216 1.90887 5.76953 1.23047 5.76953Z" fill="#69A5FF"/>
<path d="M1.23047 9.87109C0.551797 9.87109 0 10.4232 0 11.1016C0 11.7802 0.551797 12.332 1.23047 12.332C1.90887 12.332 2.46094 11.7802 2.46094 11.1016C2.46094 10.4232 1.90887 9.87109 1.23047 9.87109Z" fill="#69A5FF"/>
</svg>
