<svg width="25" height="25" fill="none" xmlns="http://www.w3.org/2000/svg"><g clip-path="url(#clip0)" fill="#838FC0"><path d="M4.715 8.608c-1.86 3.227-.678 8.125 1.38 11.095C7.12 21.188 8.16 22.52 9.583 22.52l.081-.001c.669-.027 1.152-.233 1.62-.432.524-.224 1.067-.455 1.918-.455.81 0 1.327.224 1.826.44.493.213 1 .434 1.75.42 1.603-.03 2.588-1.468 3.457-2.737a12.133 12.133 0 001.514-3.102l.006-.02a.18.18 0 00-.108-.227c-.283-.115-2.76-1.214-2.786-4.21-.024-2.433 1.858-3.721 2.236-3.955l.017-.01a.18.18 0 00.052-.254c-1.3-1.902-3.291-2.188-4.093-2.223a3.613 3.613 0 00-.357-.017c-.942 0-1.844.355-2.569.641-.5.198-.932.368-1.23.368-.335 0-.77-.173-1.273-.372-.673-.267-1.436-.57-2.243-.57h-.057c-1.878.028-3.652 1.102-4.63 2.804z"/><path d="M17.076.52c-1.138.047-2.501.747-3.317 1.701-.693.803-1.37 2.141-1.191 3.49a.18.18 0 00.165.156c.076.006.155.01.233.01 1.112 0 2.311-.616 3.13-1.606.862-1.046 1.298-2.388 1.166-3.59a.181.181 0 00-.186-.16z"/></g><defs><clipPath id="clip0"><path fill="#fff" transform="translate(.877 .336)" d="M0 0h24v24H0z"/></clipPath></defs></svg>