<svg width="30" height="29" fill="none" xmlns="http://www.w3.org/2000/svg"><g clip-path="url(#clip0)" fill="#00A2B5"><path d="M26.143 13.291v12.448H4.799V13.291H2.81v13.408c0 .53.445.96.994.96h23.333c.55 0 .994-.43.994-.96V13.291h-1.988z"/><path d="M28.959 6.09H1.947c-.549 0-.994.43-.994.96v6.273c0 .53.445.96.994.96H28.96c.549 0 .994-.43.994-.96V7.05c0-.53-.445-.96-.994-.96zm-.994 6.273H2.942V8.011h25.023v4.352z"/><path d="M16.431 6.808C16.363 6.56 14.723.716 9.934.716c-2.083 0-3.778 1.636-3.778 3.648 0 2.011 1.68 3.648 3.745 3.648h5.568c.308 0 .6-.138.787-.374a.935.935 0 00.175-.83zm-6.53-.716c-.985 0-1.756-.76-1.756-1.728 0-.937.82-1.728 1.79-1.728 2.181 0 3.488 2.075 4.116 3.456H9.9z"/><path d="M21.005.716c-4.789 0-6.429 5.843-6.497 6.092a.934.934 0 00.175.83c.188.236.479.374.787.374h5.568c2.065 0 3.745-1.637 3.745-3.648 0-2.012-1.695-3.648-3.778-3.648zm.033 5.376h-4.153c.623-1.381 1.926-3.456 4.12-3.456.97 0 1.79.791 1.79 1.728 0 .969-.771 1.728-1.757 1.728z"/><path d="M16.464 7.051h-1.989v19.648h1.989V7.051z"/></g><defs><clipPath id="clip0"><path fill="#fff" transform="translate(.953 .187)" d="M0 0h29v28H0z"/></clipPath></defs></svg>