<svg width="20" height="20" fill="none" xmlns="http://www.w3.org/2000/svg"><path d="M18.828 17.972h-.742V3.551a.55.55 0 00-.55-.55h-4.214v.355c.069 1.429-2.036 2.902-3.073 3.422a.55.55 0 01-.5 0c-1.043-.523-3.142-1.996-3.073-3.422v-.355H2.462a.55.55 0 00-.55.55v14.421H1.17c-.73.03-.729 1.07 0 1.1h5.808v-3.998a.55.55 0 01.55-.55h4.942a.55.55 0 01.55.55v3.997h5.808c.73-.029.729-1.07 0-1.099zm-12.5-6.833H4.702c-.73-.029-.729-1.07 0-1.099h1.626c.729.03.728 1.07 0 1.1zm.55 1.693a.55.55 0 01-.55.55H4.702c-.73-.03-.729-1.07 0-1.1h1.626a.55.55 0 01.55.55zm-.55-3.935H4.702c-.73-.029-.729-1.07 0-1.099h1.626c.729.03.728 1.07 0 1.1zm4.484 4.485H9.186c-.729-.03-.728-1.07 0-1.1h1.626c.73.03.729 1.07 0 1.1zm0-2.243H9.186c-.729-.029-.728-1.07 0-1.099h1.626c.73.03.729 1.07 0 1.1zm0-2.242H9.186c-.729-.029-.728-1.07 0-1.099h1.626c.73.03.729 1.07 0 1.1zm2.858-1.099h1.626c.73.03.729 1.07 0 1.1H13.67c-.729-.03-.728-1.071 0-1.1zm0 2.242h1.626c.73.03.729 1.07 0 1.1H13.67c-.729-.03-.728-1.07 0-1.1zm0 2.242h1.626c.73.03.729 1.07 0 1.1H13.67c-.729-.03-.728-1.07 0-1.1z" fill="#69A5FF"/><path d="M8.078 15.623h3.843v3.448H8.078v-3.448zM7.775 3.356c0 .802 1.367 1.814 2.225 2.307.857-.492 2.224-1.505 2.224-2.307v-1.19a.646.646 0 00-.347-.583 2.03 2.03 0 01-.587-.434.662.662 0 00-.483-.22H9.192a.663.663 0 00-.483.22 2.03 2.03 0 01-.586.434.646.646 0 00-.348.582v1.19z" fill="#69A5FF"/></svg>