<svg width="20" height="20" fill="none" xmlns="http://www.w3.org/2000/svg"><path d="M2.907 10.555l4.217 2.985c.232.164.555.11.72-.123l1.194-1.687a.517.517 0 00-.123-.72l-.233-.165c1.248-.986 2.455-2.713 2.978-4.222l.24.17c.233.164.555.11.72-.124l1.194-1.686a.517.517 0 00-.123-.72L9.474 1.277a.517.517 0 00-.72.123L7.558 3.088a.517.517 0 00.124.72l.24.17C6.652 4.99 5.437 6.712 4.93 8.19l-.233-.165a.517.517 0 00-.72.123L2.784 9.835a.517.517 0 00.123.72zm14.722 1.558l-5.53-3.915a11.906 11.906 0 01-1.786 2.534l5.525 3.911a1.549 1.549 0 101.791-2.53zm-5.063 3.604h-.517a.517.517 0 01-.517-.516.517.517 0 00-.517-.517H3.783a.517.517 0 00-.517.517.517.517 0 01-.517.516h-.516a.517.517 0 00-.517.517v2.067c0 .285.231.516.517.516h10.332a.517.517 0 00.517-.516v-2.067a.517.517 0 00-.517-.517z" fill="#69A5FF"/></svg>