<svg width="20" height="20" fill="none" xmlns="http://www.w3.org/2000/svg"><path d="M16.987 1.266H6.507c-.961 0-1.748.786-1.748 1.747v13.101a.875.875 0 01-.873.873.875.875 0 01-.873-.873V6.506c0-.436-.437-.873-.874-.873s-.873.437-.873.873v10.481c0 .961.786 1.747 1.747 1.747h13.974c.961 0 1.747-.786 1.747-1.747V3.013c0-.961-.786-1.747-1.747-1.747zM12.62 10H7.38a.875.875 0 01-.874-.873c0-.437.437-.874.874-.874h5.24c.437 0 .874.437.874.874a.875.875 0 01-.874.873zm3.494-3.494H7.38a.875.875 0 01-.874-.873c0-.437.437-.874.874-.874h8.734c.437 0 .873.437.873.874a.875.875 0 01-.873.873z" fill="#69A5FF"/></svg>