<svg width="20" height="21" fill="none" xmlns="http://www.w3.org/2000/svg"><g clip-path="url(#clip0)" fill="#69A5FF"><path d="M10.768 8.48v3h3a3.857 3.857 0 00-3-3z"/><path d="M9.23 8.48a3.853 3.853 0 00-3.077 3.769 3.85 3.85 0 003.846 3.846 3.853 3.853 0 003.769-3.077H9.23V8.48z"/><path d="M10.769 3.822V2.248h1.538V.71H7.692v1.538h1.539v1.574c-4.307.39-7.693 4.02-7.693 8.426 0 4.666 3.796 8.462 8.462 8.462 4.665 0 8.461-3.796 8.461-8.462 0-4.406-3.385-8.036-7.692-8.426zm-.77 13.811a5.39 5.39 0 01-5.384-5.385A5.39 5.39 0 0110 6.864a5.39 5.39 0 015.384 5.384A5.39 5.39 0 0110 17.633z"/></g><defs><clipPath id="clip0"><path fill="#fff" transform="translate(0 .71)" d="M0 0h20v20H0z"/></clipPath></defs></svg>