<svg width="20" height="21" fill="none" xmlns="http://www.w3.org/2000/svg"><g clip-path="url(#clip0)" fill="#69A5FF"><path d="M8.124 1.882c4.222.23 7.366 2.595 7.366 6.805v3.65h.586a.586.586 0 00.586-.586V8.704c0-2.147-.737-4.02-2.131-5.413C12.2.96 8.802.71 7.449.71a.586.586 0 00-.586.591l.004.58h1.257z"/><path d="M5.41 10.355l2.85-1.5c-.178.558-.488 1.04-.845 1.598-.547.853-1.149 1.792-1.412 3.226h8.314V8.68c0-3.561-2.695-5.418-6.26-5.626H6.87c0 .013-3.742 3.957-3.742 3.957a.586.586 0 00-.08.745l1.602 2.405c.166.25.495.334.76.194zm-.273 4.495a.586.586 0 00-.586.587v1.718h11.328v-1.719a.586.586 0 00-.586-.585H5.137zm-1.758 3.477v1.797c0 .324.262.586.586.586h12.5a.586.586 0 00.586-.586v-1.797H3.379z"/></g><defs><clipPath id="clip0"><path fill="#fff" transform="translate(0 .71)" d="M0 0h20v20H0z"/></clipPath></defs></svg>