<svg width="20" height="21" fill="none" xmlns="http://www.w3.org/2000/svg"><path d="M18.456 3.721a.512.512 0 00-.426-.227h-3.539a.512.512 0 00-.478.33l-2.849 7.465-1.397-6.03A2.21 2.21 0 007.604 3.54H1.583a.512.512 0 00-.067 1.02c.015.002 1.429.195 3.158.958.283.125.585.27.899.438l2.94 11.346a.512.512 0 00.496.383h3.608a.512.512 0 00.474-.317l5.413-13.167a.512.512 0 00-.048-.48zm-13.408.843h2.556c.56 0 1.04.38 1.166.925l.45 1.944a11.68 11.68 0 00-1.202-1.1 13.435 13.435 0 00-2.962-1.765l-.008-.004z" fill="#69A5FF"/></svg>