<svg width="20" height="21" fill="none" xmlns="http://www.w3.org/2000/svg"><g clip-path="url(#clip0)" fill="#69A5FF"><path d="M13.516 6.608h-.586v3.516h.586a.586.586 0 00.586-.586V7.194a.586.586 0 00-.586-.586zM6.484 8.952h-.586v1.172h.586a.586.586 0 000-1.172zm0-2.344h-.586V7.78h.586a.586.586 0 000-1.172z"/><path d="M17.617 12.124V4.608L13.758.71H6.242l-3.86 3.898v7.516l3.86 3.86h7.516l3.86-3.86zM8.242 9.538a1.76 1.76 0 01-1.758 1.758H4.727v-5.86h1.757c.97 0 1.758.79 1.758 1.758 0 .452-.176.86-.457 1.172.281.312.457.72.457 1.172zm2.344 1.758H9.414v-5.86h1.172v5.86zm1.172 0v-5.86h1.758c.969 0 1.757.79 1.757 1.758v2.344a1.76 1.76 0 01-1.757 1.758h-1.758zm-2.93 5.859h2.344v3.555H8.828v-3.555z"/></g><defs><clipPath id="clip0"><path fill="#fff" transform="translate(0 .71)" d="M0 0h20v20H0z"/></clipPath></defs></svg>