<svg width="20" height="21" fill="none" xmlns="http://www.w3.org/2000/svg"><g clip-path="url(#clip0)" fill="#69A5FF"><path d="M2.21 1.259c-.916 0-1.66.745-1.66 1.661v6.756h8.417V1.26H2.21zm3.84 4.762h-.74v.739a.554.554 0 01-1.107 0v-.74h-.739a.554.554 0 010-1.107h.739v-.739a.554.554 0 011.107 0v.739h.738a.554.554 0 010 1.107zm12.14 3.655h.302V2.921c0-.916-.745-1.662-1.661-1.662h-6.756v8.218a6.519 6.519 0 013.932-1.314c1.59 0 3.048.569 4.184 1.513zm-5.752-4.208c0-.306.248-.554.553-.554h2.585a.554.554 0 110 1.108H12.99a.554.554 0 01-.553-.554zm-3.67 5.316H.55v6.756c0 .916.746 1.661 1.662 1.661h6.756V18.9a6.523 6.523 0 01-1.514-4.184c0-1.474.49-2.836 1.314-3.932zm-2.695 4.74a.554.554 0 11-.783.783l-.531-.531-.531.531a.552.552 0 01-.783 0 .554.554 0 010-.783l.53-.531-.53-.532a.554.554 0 11.783-.783l.531.531.531-.531a.554.554 0 01.784.783l-.532.531.531.532z"/><path d="M14.006 9.27a5.451 5.451 0 00-5.445 5.446 5.451 5.451 0 005.445 5.445 5.451 5.451 0 005.445-5.445 5.452 5.452 0 00-5.445-5.446zm1.292 6.922h-2.584a.554.554 0 010-1.107h2.584a.554.554 0 010 1.107zm0-1.846h-2.584a.554.554 0 110-1.107h2.584a.554.554 0 010 1.107z"/></g><defs><clipPath id="clip0"><path fill="#fff" transform="translate(0 .71)" d="M0 0h20v20H0z"/></clipPath></defs></svg>