<svg width="20" height="21" fill="none" xmlns="http://www.w3.org/2000/svg"><g clip-path="url(#clip0)" fill="#69A5FF"><path d="M10 .866c-4.222 0-7.656 3.435-7.656 7.656 0 2.051 1.242 4.685 3.693 7.828a41.628 41.628 0 003.639 4.074.469.469 0 00.648 0 41.625 41.625 0 003.64-4.074c2.45-3.143 3.692-5.777 3.692-7.828 0-4.221-3.434-7.656-7.656-7.656zm0 13.125a5.475 5.475 0 01-5.469-5.469A5.475 5.475 0 0110 3.054a5.475 5.475 0 015.469 5.468A5.475 5.475 0 0110 13.992z"/><path d="M13.752 7.863l-3.437-3.125a.469.469 0 00-.63 0L6.246 7.863a.469.469 0 00.329.816h.455v2.968a.469.469 0 00.468.47h1.094a.469.469 0 00.469-.47V9.93a.469.469 0 01.469-.47h.937a.469.469 0 01.469.47v1.718a.469.469 0 00.469.47h1.093a.469.469 0 00.47-.47V8.68h.454a.481.481 0 00.416-.229.47.47 0 00-.087-.587z"/></g><defs><clipPath id="clip0"><path fill="#fff" transform="translate(0 .71)" d="M0 0h20v20H0z"/></clipPath></defs></svg>