<svg width="20" height="20" fill="none" xmlns="http://www.w3.org/2000/svg"><path d="M15.96 10a.662.662 0 00-.662.663v6.623a.662.662 0 01-.662.662H2.713a.662.662 0 01-.663-.662V4.039c0-.366.297-.662.663-.662h7.947a.662.662 0 100-1.325H2.715c-1.098 0-1.987.89-1.987 1.987v13.247c0 1.097.89 1.987 1.987 1.987h11.921c1.098 0 1.987-.89 1.987-1.987v-6.624A.662.662 0 0015.96 10z" fill="#69A5FF"/><path d="M18.53 1.47a2.535 2.535 0 00-3.586 0L6.22 10.195a.67.67 0 00-.16.26l-1.325 3.973a.662.662 0 00.837.838l3.974-1.325a.663.663 0 00.26-.16l8.724-8.724c.99-.99.99-2.596 0-3.586z" fill="#69A5FF"/></svg>