<svg width="20" height="20" fill="none" xmlns="http://www.w3.org/2000/svg"><path d="M17.91 4.447h-1.325a2.1 2.1 0 00.323-.914 2.334 2.334 0 00-1.388-2.406 2.325 2.325 0 00-2.535.408L11.313 3.05a1.776 1.776 0 00-2.628.002L7.01 1.535a2.327 2.327 0 00-2.536-.408 2.334 2.334 0 00-1.387 2.406 2.1 2.1 0 00.323.914H2.09c-.656 0-1.187.532-1.187 1.187v1.78c0 .327.266.593.593.593h17.006a.593.593 0 00.593-.593v-1.78c0-.655-.531-1.187-1.186-1.187zM8.22 4.25v.197H5.43a1.17 1.17 0 01-1.134-1.455c.081-.338.325-.626.64-.772.434-.2.914-.136 1.278.194l2.007 1.818v.018zm7.511-.875c-.044.617-.601 1.073-1.22 1.073H11.78v-.219l1.975-1.79c.303-.276.729-.405 1.122-.287.564.168.895.648.854 1.223zM2.09 9.193v8.7c0 .656.532 1.187 1.187 1.187h5.537V9.193H2.09zm9.097 0v9.887h5.536c.656 0 1.187-.531 1.187-1.186V9.193h-6.723z" fill="#69A5FF"/></svg>