<svg width="20" height="20" fill="none" xmlns="http://www.w3.org/2000/svg"><path d="M10 13.846c1.058 0 1.963-.377 2.716-1.13.753-.752 1.13-1.658 1.13-2.716V3.846c0-1.057-.376-1.963-1.13-2.716C11.963.377 11.058 0 10 0 8.942 0 8.037.377 7.284 1.13c-.753.753-1.13 1.659-1.13 2.716V10c0 1.058.377 1.963 1.13 2.716.753.753 1.658 1.13 2.716 1.13z" fill="#69A5FF"/><path d="M16.694 7.92a.738.738 0 00-.54-.228.74.74 0 00-.541.229.74.74 0 00-.229.54V10c0 1.482-.527 2.75-1.58 3.804-1.053 1.054-2.322 1.58-3.804 1.58-1.483 0-2.75-.526-3.804-1.58-1.054-1.053-1.58-2.322-1.58-3.804V8.46a.74.74 0 00-.229-.54.739.739 0 00-.54-.229.74.74 0 00-.542.229.739.739 0 00-.228.54V10c0 1.77.59 3.311 1.773 4.621 1.181 1.31 2.642 2.061 4.38 2.254v1.586H6.155a.74.74 0 00-.541.229.74.74 0 00-.229.54.74.74 0 00.229.541.74.74 0 00.54.229h7.693a.74.74 0 00.54-.229.739.739 0 00.23-.54.739.739 0 00-.23-.541.739.739 0 00-.54-.229H10.77v-1.586c1.739-.193 3.2-.944 4.381-2.254 1.182-1.31 1.773-2.85 1.773-4.621V8.46a.739.739 0 00-.229-.54z" fill="#69A5FF"/></svg>