<svg width="20" height="20" fill="none" xmlns="http://www.w3.org/2000/svg"><path d="M10 1.025C5.051 1.025 1.025 5.05 1.025 10S5.05 18.975 10 18.975 18.975 14.95 18.975 10 14.95 1.025 10 1.025zm.57 2.916L12.878 2.7a7.89 7.89 0 013.24 2.39l-.549 2.537-1.76.863-3.24-2.36V3.94zM7.14 2.693l2.31 1.245v2.193L6.212 8.49l-1.769-.864-.55-2.553a7.88 7.88 0 013.248-2.38zM3.527 14.436a7.802 7.802 0 01-1.341-3.673l1.9-2.063 1.732.847 1.304 3.705-1.103 1.322-2.492-.138zM12 17.586a7.814 7.814 0 01-2 .267 7.824 7.824 0 01-2.4-.378l-.705-2.197 1.125-1.351h3.965l1.105 1.308-1.09 2.35zm1.965-3.05L12.88 13.25l1.323-3.704 1.724-.845 1.888 2.062a7.781 7.781 0 01-1.06 3.221l-2.79.55z" fill="#69A5FF"/></svg>