<svg width="20" height="20" fill="none" xmlns="http://www.w3.org/2000/svg"><path d="M9.885 9.664a4.278 4.278 0 003.126-1.295 4.278 4.278 0 001.296-3.127 4.28 4.28 0 00-1.296-3.126A4.28 4.28 0 009.885.82a4.278 4.278 0 00-3.127 1.296 4.279 4.279 0 00-1.295 3.126c0 1.215.436 2.267 1.295 3.127a4.28 4.28 0 003.127 1.295zm7.736 5.274a10.904 10.904 0 00-.148-1.16 9.127 9.127 0 00-.286-1.167 5.762 5.762 0 00-.48-1.088 4.104 4.104 0 00-.722-.942 3.19 3.19 0 00-1.039-.652 3.59 3.59 0 00-1.326-.24c-.187 0-.368.077-.718.305-.216.14-.468.303-.749.482-.24.153-.566.297-.969.427a3.848 3.848 0 01-1.184.191c-.394 0-.792-.064-1.185-.191a4.28 4.28 0 01-.968-.427c-.279-.178-.531-.34-.75-.483-.35-.227-.53-.304-.718-.304-.478 0-.923.08-1.326.24a3.21 3.21 0 00-1.039.652 4.106 4.106 0 00-.722.943c-.2.35-.361.716-.48 1.087a9.16 9.16 0 00-.285 1.167c-.074.411-.124.801-.149 1.16-.024.351-.036.716-.036 1.084 0 .959.304 1.734.905 2.306.593.565 1.378.852 2.333.852h8.84c.955 0 1.74-.287 2.333-.852.6-.571.905-1.347.905-2.306 0-.37-.012-.735-.037-1.084z" fill="#69A5FF"/></svg>