<svg width="20" height="20" fill="none" xmlns="http://www.w3.org/2000/svg"><path d="M7.536 1.145H2.431c-.705 0-1.277.571-1.277 1.276v5.105c0 .705.572 1.277 1.277 1.277h5.105c.705 0 1.276-.572 1.276-1.277V2.421c0-.705-.571-1.276-1.276-1.276zm0 10.21H2.43c-.704 0-1.276.572-1.276 1.277v5.105c0 .705.572 1.277 1.276 1.277h5.106c.704 0 1.276-.572 1.276-1.277v-5.105c0-.705-.572-1.277-1.276-1.277zm9.496 1.074h-3.674a.919.919 0 00-.919.918v3.674a.92.92 0 00.919.919h3.674a.919.919 0 00.918-.919v-3.674a.919.919 0 00-.918-.918zm.714-11.284H12.64c-.704 0-1.276.571-1.276 1.276v5.105c0 .705.572 1.277 1.276 1.277h5.106c.704 0 1.276-.572 1.276-1.277V2.421c0-.705-.572-1.276-1.276-1.276z" fill="#69A5FF"/></svg>