<svg width="20" height="20" fill="none" xmlns="http://www.w3.org/2000/svg"><path d="M15.732 2.768L6 6.018a.57.57 0 00-.39.542v5.276a.57.57 0 00.39.541l9.732 3.25a.571.571 0 00.752-.541V3.31a.571.571 0 00-.752-.542zM17.624 6.9v4.595c1.933-.917 1.944-3.671 0-4.594zM4.467 11.836c0-5.685-.037-5.464.1-5.85h-.433A3.215 3.215 0 00.922 9.198a3.215 3.215 0 003.212 3.212h.432a1.713 1.713 0 01-.099-.574zm2.762 2.156l-1.319-.44c-1.918 0-1.95.01-2.295-.031l.71 3.29a.57.57 0 00.558.45h2.344a.571.571 0 00.558-.69l-.556-2.58z" fill="#69A5FF"/></svg>