<svg width="25" height="25" viewBox="0 0 25 25" fill="none" xmlns="http://www.w3.org/2000/svg">
<g clip-path="url(#clip0)">
<path d="M4.71492 8.60756C2.85502 11.8351 4.0374 16.733 6.09414 19.7028C7.12079 21.1875 8.1602 22.5203 9.58385 22.5203C9.61068 22.5203 9.63759 22.5198 9.66514 22.5187C10.334 22.492 10.8174 22.2861 11.2847 22.0871C11.8094 21.8635 12.352 21.6323 13.2032 21.6323C14.0129 21.6323 14.5297 21.856 15.0294 22.0722C15.5219 22.2853 16.0292 22.5057 16.7788 22.4917C18.3824 22.4618 19.367 21.0236 20.2357 19.7549C21.1421 18.4302 21.5969 17.1441 21.7503 16.6526L21.7565 16.633C21.7857 16.5457 21.7444 16.4503 21.6607 16.4119C21.6584 16.4108 21.6499 16.4072 21.6475 16.4062C21.3651 16.2908 18.888 15.1918 18.8619 12.1967C18.8378 9.76325 20.7202 8.47463 21.0978 8.24107L21.1154 8.2301C21.1563 8.20377 21.1848 8.16201 21.1944 8.11426C21.2041 8.06658 21.194 8.01695 21.1666 7.97685C19.8672 6.07533 17.8757 5.78875 17.0739 5.75427C16.9575 5.74266 16.8374 5.73682 16.7168 5.73682C15.7751 5.73682 14.8729 6.09249 14.1482 6.37828C13.6479 6.57556 13.2157 6.74593 12.9177 6.74593C12.5828 6.74593 12.1482 6.57347 11.6449 6.37381C10.9719 6.1067 10.2092 5.80404 9.40164 5.80404C9.38239 5.80404 9.36342 5.80426 9.34473 5.80462C7.46716 5.83225 5.69302 6.90642 4.71492 8.60756Z" fill="#838FC0"/>
<path d="M17.0755 0.520402C15.9385 0.56671 14.5746 1.2666 13.7593 2.22147C13.0665 3.02407 12.3897 4.36225 12.568 5.7111C12.5792 5.7955 12.6479 5.86063 12.7328 5.8672C12.8095 5.87318 12.8879 5.87621 12.9659 5.87628C14.0777 5.87628 15.277 5.26122 16.096 4.27086C16.9581 3.2251 17.394 1.88303 17.2621 0.680894C17.2517 0.586691 17.1688 0.516724 17.0755 0.520402Z" fill="#838FC0"/>
</g>
<defs>
<clipPath id="clip0">
<rect width="24" height="24" fill="white" transform="translate(0.876953 0.335693)"/>
</clipPath>
</defs>
</svg>
