<svg width="14" height="14" viewBox="0 0 14 14" fill="none" xmlns="http://www.w3.org/2000/svg">
<path d="M13.269 5.45246C13.2297 5.33675 13.1574 5.23508 13.061 5.16C12.9646 5.08492 12.8483 5.03971 12.7265 5.02996L9.16341 4.74684L7.62153 1.33371C7.57243 1.22378 7.49256 1.13041 7.39156 1.06487C7.29056 0.999331 7.17276 0.964422 7.05236 0.964356C6.93196 0.964289 6.81411 0.99907 6.71305 1.0645C6.61198 1.12993 6.53201 1.22321 6.48278 1.33309L4.94091 4.74684L1.37778 5.02996C1.25807 5.03944 1.14362 5.08322 1.04813 5.15604C0.952638 5.22887 0.880151 5.32766 0.839339 5.4406C0.798527 5.55355 0.791117 5.67586 0.817996 5.7929C0.844876 5.90994 0.904906 6.01676 0.990906 6.10058L3.62403 8.66746L2.69278 12.7C2.6645 12.822 2.67357 12.9498 2.71879 13.0666C2.76402 13.1835 2.84332 13.284 2.94641 13.3552C3.04949 13.4265 3.1716 13.465 3.2969 13.466C3.42219 13.4669 3.54487 13.4302 3.64903 13.3606L7.05216 11.0918L10.4553 13.3606C10.5617 13.4313 10.6873 13.4677 10.8151 13.4649C10.9428 13.4621 11.0666 13.4202 11.1699 13.3449C11.2732 13.2696 11.3509 13.1645 11.3926 13.0438C11.4344 12.923 11.4381 12.7923 11.4034 12.6693L10.2603 8.66934L13.0953 6.11809C13.2809 5.95059 13.349 5.68933 13.269 5.45246Z" fill="#838FC0"/>
</svg>
