<svg width="30" height="29" viewBox="0 0 30 29" fill="none" xmlns="http://www.w3.org/2000/svg">
<g clip-path="url(#clip0)">
<path d="M26.1426 13.291V25.739H4.79861V13.291H2.81001V26.699C2.81001 27.2293 3.25509 27.659 3.80428 27.659H27.1369C27.6861 27.659 28.1311 27.2293 28.1311 26.699V13.291H26.1426Z" fill="#00A2B5"/>
<path d="M28.9589 6.09082H1.94739C1.39821 6.09082 0.953125 6.52055 0.953125 7.0508V13.3228C0.953125 13.8531 1.39821 14.2828 1.94739 14.2828H28.9588C29.508 14.2828 29.9531 13.8533 29.9531 13.3228V7.0508C29.9531 6.52055 29.508 6.09082 28.9589 6.09082ZM27.9645 12.3631H2.94172V8.01117H27.9646V12.3631H27.9645Z" fill="#00A2B5"/>
<path d="M16.431 6.80836C16.3634 6.55943 14.7232 0.715576 9.93432 0.715576C7.85097 0.715576 6.15605 2.35204 6.15605 4.36356C6.15605 6.37508 7.83607 8.01154 9.90119 8.01154H15.4692C15.7771 8.01154 16.0681 7.87362 16.2563 7.63808C16.4445 7.40254 16.5089 7.09602 16.431 6.80836ZM9.90124 6.09158C8.91626 6.09158 8.14465 5.33251 8.14465 4.36356C8.14465 3.42693 8.96429 2.63554 9.93438 2.63554C12.1162 2.63554 13.4226 4.71077 14.0507 6.09152H9.90124V6.09158Z" fill="#00A2B5"/>
<path d="M21.0051 0.715576C16.2163 0.715576 14.576 6.55943 14.5084 6.80837C14.4302 7.09602 14.4948 7.4026 14.6831 7.63814C14.8714 7.87368 15.162 8.0116 15.4702 8.0116H21.0382C23.1033 8.0116 24.7834 6.37513 24.7834 4.36362C24.7834 2.35204 23.0885 0.715576 21.0051 0.715576ZM21.0383 6.09158H16.8848C17.5083 4.71077 18.8108 2.6356 21.0055 2.6356C21.9756 2.6356 22.7952 3.42698 22.7952 4.36362C22.7952 5.33251 22.0236 6.09158 21.0383 6.09158Z" fill="#00A2B5"/>
<path d="M16.4639 7.05103H14.4753V26.699H16.4639V7.05103Z" fill="#00A2B5"/>
</g>
<defs>
<clipPath id="clip0">
<rect width="29" height="28" fill="white" transform="translate(0.953125 0.187256)"/>
</clipPath>
</defs>
</svg>
