<svg width="25" height="25" viewBox="0 0 25 25" fill="none" xmlns="http://www.w3.org/2000/svg">
<path d="M4.54481 2.42368C4.64639 2.36558 4.76148 2.33523 4.8785 2.3357C4.99553 2.33617 5.11037 2.36743 5.21148 2.42635L15.6688 8.52636L12.4328 11.4384L4.21014 4.03835V3.00235C4.21005 2.88497 4.24094 2.76965 4.29971 2.66804C4.35847 2.56643 4.44302 2.48214 4.54481 2.42368Z" fill="#838FC0"/>
<path d="M4.21014 5.83301V18.8384L11.4368 12.3357L4.21014 5.83301Z" fill="#838FC0"/>
<path d="M4.21014 20.6329V21.6689C4.21011 21.7862 4.24103 21.9015 4.29977 22.003C4.35852 22.1045 4.44301 22.1888 4.54473 22.2472C4.64644 22.3056 4.76177 22.3362 4.87907 22.3358C4.99638 22.3354 5.1115 22.304 5.21281 22.2449L15.6688 16.1449L12.4328 13.2329L4.21014 20.6329Z" fill="#838FC0"/>
<path d="M16.8782 15.4397L21.2115 12.9117C21.3122 12.853 21.3958 12.7689 21.4539 12.6679C21.5119 12.5668 21.5425 12.4523 21.5425 12.3357C21.5425 12.2191 21.5119 12.1046 21.4539 12.0035C21.3958 11.9025 21.3122 11.8184 21.2115 11.7597L16.8782 9.23169L13.4288 12.3357L16.8782 15.4397Z" fill="#838FC0"/>
</svg>
